<?xml version="1.0" encoding="utf-8"?>
<!-- Generator: Adobe Illustrator 26.0.2, SVG Export Plug-In . SVG Version: 6.00 Build 0)  -->
<svg version="1.1" id="Layer_1" xmlns="http://www.w3.org/2000/svg" xmlns:xlink="http://www.w3.org/1999/xlink" x="0px" y="0px"
	 viewBox="0 0 152 60" style="enable-background:new 0 0 152 60;" xml:space="preserve">
<style type="text/css">
	.st0{font-family:'Metropolis-Light';}
	.st1{font-size:14.8328px;}
	.st2{font-family:'Metropolis-Regular';}
	.st3{font-size:6.5698px;}
	.st4{clip-path:url(#SVGID_00000134944734973272030550000007914175151360600481_);}
	.st5{fill:#7416A7;}
	.st6{fill:#2C5EFA;}
	.st7{fill:#2FAC4C;}
	.st8{fill:#FBE12B;}
	.st9{fill:#F77316;}
	.st10{fill:#F6022D;}
	.st11{clip-path:url(#SVGID_00000134944734973272030550000007914175151360600481_);fill:#241F23;}
	.st12{clip-path:url(#SVGID_00000134944734973272030550000007914175151360600481_);fill:#744A26;}
	.st13{clip-path:url(#SVGID_00000134944734973272030550000007914175151360600481_);fill:#91D4F6;}
	.st14{clip-path:url(#SVGID_00000134944734973272030550000007914175151360600481_);fill:#E892B8;}
	.st15{clip-path:url(#SVGID_00000134944734973272030550000007914175151360600481_);fill:#FFFFFF;}
	.st16{clip-path:url(#SVGID_00000031206588132560970980000004372712210564331679_);}
	.st17{clip-path:url(#SVGID_00000031206588132560970980000004372712210564331679_);fill:#241F23;}
	.st18{clip-path:url(#SVGID_00000031206588132560970980000004372712210564331679_);fill:#744A26;}
	.st19{clip-path:url(#SVGID_00000031206588132560970980000004372712210564331679_);fill:#91D4F6;}
	.st20{clip-path:url(#SVGID_00000031206588132560970980000004372712210564331679_);fill:#E892B8;}
	.st21{clip-path:url(#SVGID_00000031206588132560970980000004372712210564331679_);fill:#FFFFFF;}
	.st22{clip-path:url(#SVGID_00000157275110843932659740000011278484978233530040_);}
	.st23{clip-path:url(#SVGID_00000157275110843932659740000011278484978233530040_);fill:#241F23;}
	.st24{clip-path:url(#SVGID_00000157275110843932659740000011278484978233530040_);fill:#744A26;}
	.st25{clip-path:url(#SVGID_00000157275110843932659740000011278484978233530040_);fill:#91D4F6;}
	.st26{clip-path:url(#SVGID_00000157275110843932659740000011278484978233530040_);fill:#E892B8;}
	.st27{clip-path:url(#SVGID_00000157275110843932659740000011278484978233530040_);fill:#FFFFFF;}
	.st28{clip-path:url(#SVGID_00000021805672928648027880000013096285502946011293_);}
	.st29{clip-path:url(#SVGID_00000021805672928648027880000013096285502946011293_);fill:#241F23;}
	.st30{clip-path:url(#SVGID_00000021805672928648027880000013096285502946011293_);fill:#744A26;}
	.st31{clip-path:url(#SVGID_00000021805672928648027880000013096285502946011293_);fill:#91D4F6;}
	.st32{clip-path:url(#SVGID_00000021805672928648027880000013096285502946011293_);fill:#E892B8;}
	.st33{clip-path:url(#SVGID_00000021805672928648027880000013096285502946011293_);fill:#FFFFFF;}
	.st34{clip-path:url(#SVGID_00000099626098448985153220000007986260449783362239_);}
	.st35{clip-path:url(#SVGID_00000099626098448985153220000007986260449783362239_);fill:#241F23;}
	.st36{clip-path:url(#SVGID_00000099626098448985153220000007986260449783362239_);fill:#744A26;}
	.st37{clip-path:url(#SVGID_00000099626098448985153220000007986260449783362239_);fill:#91D4F6;}
	.st38{clip-path:url(#SVGID_00000099626098448985153220000007986260449783362239_);fill:#E892B8;}
	.st39{clip-path:url(#SVGID_00000099626098448985153220000007986260449783362239_);fill:#FFFFFF;}
</style>
<g>
	<path d="M57.38,50.26"/>
	<text transform="matrix(1 0 0 1 82.7046 52.6897)" class="st0 st1">together</text>
	<text transform="matrix(1 0 0 1 8.0376 10.803)" class="st2 st3">LOVE IS LOVE</text>
	<g>
		<defs>
			<path id="SVGID_1_" d="M8.04,14.53h11.21c1.8,0,3.44,0.36,4.91,1.09c1.47,0.73,2.63,1.74,3.47,3.04c0.84,1.3,1.26,2.77,1.26,4.42
				c0,1.65-0.42,3.13-1.26,4.42c-0.84,1.3-1.99,2.31-3.47,3.04c-1.48,0.73-3.11,1.09-4.91,1.09h-6.56v8.66H8.04V14.53z M18.69,27.32
				c1.62,0,2.93-0.38,3.92-1.14c0.99-0.76,1.48-1.79,1.48-3.09c0-1.3-0.49-2.33-1.48-3.09c-0.99-0.76-2.29-1.14-3.92-1.14h-6v8.48
				H18.69z"/>
		</defs>
		<clipPath id="SVGID_00000114754455597270119880000006978843064824538518_">
			<use xlink:href="#SVGID_1_"  style="overflow:visible;"/>
		</clipPath>
		
			<g id="XMLID_00000156556569835116762160000002834551267273192589_" style="clip-path:url(#SVGID_00000114754455597270119880000006978843064824538518_);">
			
				<rect id="XMLID_00000029751829000474308690000014048469272312283067_" x="6.24" y="36.28" class="st5" width="138.71" height="4.43"/>
			
				<rect id="XMLID_00000125591761692396231970000006694582509719885478_" x="6.24" y="31.84" class="st6" width="138.71" height="4.43"/>
			
				<rect id="XMLID_00000047774488472921191210000012029861434399643304_" x="6.24" y="27.41" class="st7" width="138.71" height="4.43"/>
			
				<rect id="XMLID_00000103986036257791304700000003660714412654842299_" x="6.24" y="22.98" class="st8" width="138.71" height="4.43"/>
			
				<rect id="XMLID_00000023257381666921572490000001046012840393266064_" x="6.24" y="18.54" class="st9" width="138.71" height="4.43"/>
			
				<rect id="XMLID_00000059271082562642681570000010593928799800807049_" x="6.24" y="14.11" class="st10" width="138.71" height="4.43"/>
		</g>
		
			<rect id="XMLID_00000003086133919408361340000016179751679106346658_" x="9.3" y="14.11" transform="matrix(0.6803 -0.733 0.733 0.6803 -6.7909 12.653)" style="clip-path:url(#SVGID_00000114754455597270119880000006978843064824538518_);fill:#241F23;" width="3.62" height="0"/>
		
			<polygon id="XMLID_00000062898668252435952400000010554040058462061463_" style="clip-path:url(#SVGID_00000114754455597270119880000006978843064824538518_);fill:#241F23;" points="
			12.92,14.11 9.3,14.11 23.63,27.41 9.3,40.71 12.92,40.71 27.25,27.41 		"/>
		
			<polygon id="XMLID_00000078737522396133574850000010096212542762287750_" style="clip-path:url(#SVGID_00000114754455597270119880000006978843064824538518_);fill:#744A26;" points="
			9.3,14.11 6.24,14.11 6.24,14.64 20,27.41 6.24,40.18 6.24,40.71 9.3,40.71 23.63,27.41 		"/>
		
			<polygon id="XMLID_00000003794965528917401810000004547323193924931468_" style="clip-path:url(#SVGID_00000114754455597270119880000006978843064824538518_);fill:#91D4F6;" points="
			16.38,27.41 6.24,36.82 6.24,40.18 20,27.41 6.24,14.64 6.24,18 		"/>
		
			<polygon id="XMLID_00000096017320948715433040000000031797624602094226_" style="clip-path:url(#SVGID_00000114754455597270119880000006978843064824538518_);fill:#E892B8;" points="
			6.24,18 6.24,21.36 12.76,27.41 6.24,33.46 6.24,36.82 16.38,27.41 		"/>
		
			<polygon id="XMLID_00000044887466621089427170000000810085242904616870_" style="clip-path:url(#SVGID_00000114754455597270119880000006978843064824538518_);fill:#FFFFFF;" points="
			6.24,21.36 6.24,33.46 12.76,27.41 		"/>
	</g>
	<g>
		<defs>
			<path id="SVGID_00000093179348293844007510000013533542283478016914_" d="M52.92,28.38c-1.27,1.49-2.96,2.47-5.06,2.94l6.3,8.96
				h-5.32l-6.07-8.66h-4.13v8.66h-4.65V14.53H45.2c1.8,0,3.44,0.36,4.91,1.09c1.47,0.73,2.63,1.74,3.47,3.04
				c0.84,1.3,1.26,2.77,1.26,4.42C54.84,25.13,54.2,26.9,52.92,28.38z M38.64,27.32h6c1.62,0,2.93-0.38,3.92-1.14
				c0.99-0.76,1.48-1.79,1.48-3.09c0-1.3-0.49-2.33-1.48-3.09c-0.99-0.76-2.29-1.14-3.92-1.14h-6V27.32z"/>
		</defs>
		<clipPath id="SVGID_00000000214466062358998120000001439518692801958292_">
			<use xlink:href="#SVGID_00000093179348293844007510000013533542283478016914_"  style="overflow:visible;"/>
		</clipPath>
		
			<g id="XMLID_00000024712731335649103630000007801496347063344573_" style="clip-path:url(#SVGID_00000000214466062358998120000001439518692801958292_);">
			
				<rect id="XMLID_00000036224179069586767220000012909552344983891585_" x="6.24" y="36.28" class="st5" width="138.71" height="4.43"/>
			
				<rect id="XMLID_00000021833137491395182130000015228449398326389160_" x="6.24" y="31.84" class="st6" width="138.71" height="4.43"/>
			
				<rect id="XMLID_00000015335760406445988830000010636683143093765015_" x="6.24" y="27.41" class="st7" width="138.71" height="4.43"/>
			
				<rect id="XMLID_00000075161178894482666430000005639590330641982387_" x="6.24" y="22.98" class="st8" width="138.71" height="4.43"/>
			
				<rect id="XMLID_00000093876942822772124870000000691736989379256465_" x="6.24" y="18.54" class="st9" width="138.71" height="4.43"/>
			
				<rect id="XMLID_00000163781898435332010580000010899988119037868702_" x="6.24" y="14.11" class="st10" width="138.71" height="4.43"/>
		</g>
		
			<rect id="XMLID_00000066510628213944659220000005457687796343400863_" x="9.3" y="14.11" transform="matrix(0.6803 -0.733 0.733 0.6803 -6.7909 12.653)" style="clip-path:url(#SVGID_00000000214466062358998120000001439518692801958292_);fill:#241F23;" width="3.62" height="0"/>
		
			<polygon id="XMLID_00000096759578097588626050000014701528659413297079_" style="clip-path:url(#SVGID_00000000214466062358998120000001439518692801958292_);fill:#241F23;" points="
			12.92,14.11 9.3,14.11 23.63,27.41 9.3,40.71 12.92,40.71 27.25,27.41 		"/>
		
			<polygon id="XMLID_00000091010328862144951350000017242184059351891856_" style="clip-path:url(#SVGID_00000000214466062358998120000001439518692801958292_);fill:#744A26;" points="
			9.3,14.11 6.24,14.11 6.24,14.64 20,27.41 6.24,40.18 6.24,40.71 9.3,40.71 23.63,27.41 		"/>
		
			<polygon id="XMLID_00000158000097515300538630000017190973871462461322_" style="clip-path:url(#SVGID_00000000214466062358998120000001439518692801958292_);fill:#91D4F6;" points="
			16.38,27.41 6.24,36.82 6.24,40.18 20,27.41 6.24,14.64 6.24,18 		"/>
		
			<polygon id="XMLID_00000080172760359864021820000007581761943274646171_" style="clip-path:url(#SVGID_00000000214466062358998120000001439518692801958292_);fill:#E892B8;" points="
			6.24,18 6.24,21.36 12.76,27.41 6.24,33.46 6.24,36.82 16.38,27.41 		"/>
		
			<polygon id="XMLID_00000086681938103528053200000005854957111483899272_" style="clip-path:url(#SVGID_00000000214466062358998120000001439518692801958292_);fill:#FFFFFF;" points="
			6.24,21.36 6.24,33.46 12.76,27.41 		"/>
	</g>
	<g>
		<defs>
			<path id="SVGID_00000149369384376087554020000016737224629862081202_" d="M95.9,39.28c-1.73-0.98-3.07-2.33-4.05-4.07
				c-0.98-1.74-1.46-3.71-1.46-5.91V14.53h4.69v14.62c0,1.4,0.29,2.66,0.86,3.79c0.57,1.12,1.37,2,2.38,2.62
				c1.01,0.63,2.16,0.94,3.43,0.94c1.3,0,2.46-0.31,3.47-0.94c1.01-0.62,1.81-1.5,2.38-2.62c0.57-1.12,0.86-2.39,0.86-3.79V14.53
				h4.65V29.3c0,2.2-0.48,4.17-1.44,5.91c-0.96,1.74-2.31,3.09-4.03,4.07c-1.73,0.98-3.69,1.46-5.89,1.46
				C99.57,40.74,97.62,40.25,95.9,39.28z"/>
		</defs>
		<clipPath id="SVGID_00000014598419847421847650000009311560269468843943_">
			<use xlink:href="#SVGID_00000149369384376087554020000016737224629862081202_"  style="overflow:visible;"/>
		</clipPath>
		
			<g id="XMLID_00000098933547089766930620000009775370358141594547_" style="clip-path:url(#SVGID_00000014598419847421847650000009311560269468843943_);">
			
				<rect id="XMLID_00000111895531664040224940000008994825966186080651_" x="6.24" y="36.28" class="st5" width="138.71" height="4.43"/>
			
				<rect id="XMLID_00000059289595575059722480000000052016707436467353_" x="6.24" y="31.84" class="st6" width="138.71" height="4.43"/>
			
				<rect id="XMLID_00000168818239351675963470000013469323062390123158_" x="6.24" y="27.41" class="st7" width="138.71" height="4.43"/>
			
				<rect id="XMLID_00000071557810249480708560000005205186777973998750_" x="6.24" y="22.98" class="st8" width="138.71" height="4.43"/>
			
				<rect id="XMLID_00000043440367124000785740000012268770931792100248_" x="6.24" y="18.54" class="st9" width="138.71" height="4.43"/>
			
				<rect id="XMLID_00000154385401135369295410000007836342660606393767_" x="6.24" y="14.11" class="st10" width="138.71" height="4.43"/>
		</g>
		
			<rect id="XMLID_00000150799672097031881630000017185428370478388362_" x="9.3" y="14.11" transform="matrix(0.6803 -0.733 0.733 0.6803 -6.7909 12.653)" style="clip-path:url(#SVGID_00000014598419847421847650000009311560269468843943_);fill:#241F23;" width="3.62" height="0"/>
		
			<polygon id="XMLID_00000047770791884665113960000010871168389738670740_" style="clip-path:url(#SVGID_00000014598419847421847650000009311560269468843943_);fill:#241F23;" points="
			12.92,14.11 9.3,14.11 23.63,27.41 9.3,40.71 12.92,40.71 27.25,27.41 		"/>
		
			<polygon id="XMLID_00000066506643413098565470000001813061900646873019_" style="clip-path:url(#SVGID_00000014598419847421847650000009311560269468843943_);fill:#744A26;" points="
			9.3,14.11 6.24,14.11 6.24,14.64 20,27.41 6.24,40.18 6.24,40.71 9.3,40.71 23.63,27.41 		"/>
		
			<polygon id="XMLID_00000130628090944031366070000015517691408673487035_" style="clip-path:url(#SVGID_00000014598419847421847650000009311560269468843943_);fill:#91D4F6;" points="
			16.38,27.41 6.24,36.82 6.24,40.18 20,27.41 6.24,14.64 6.24,18 		"/>
		
			<polygon id="XMLID_00000023977585890897724110000011308147914337056408_" style="clip-path:url(#SVGID_00000014598419847421847650000009311560269468843943_);fill:#E892B8;" points="
			6.24,18 6.24,21.36 12.76,27.41 6.24,33.46 6.24,36.82 16.38,27.41 		"/>
		
			<polygon id="XMLID_00000168085108052888801000000007166160753694890882_" style="clip-path:url(#SVGID_00000014598419847421847650000009311560269468843943_);fill:#FFFFFF;" points="
			6.24,21.36 6.24,33.46 12.76,27.41 		"/>
	</g>
	<g>
		<defs>
			<path id="SVGID_00000088116310274961306380000015377450762624361917_" d="M119.6,14.53h9.04c2.8,0,5.3,0.55,7.5,1.65
				c2.2,1.1,3.92,2.62,5.16,4.58c1.24,1.95,1.86,4.16,1.86,6.64c0,2.48-0.62,4.69-1.86,6.66c-1.24,1.96-2.96,3.49-5.16,4.59
				c-2.2,1.1-4.7,1.65-7.5,1.65h-9.04V14.53z M129.12,36.05c1.8,0,3.4-0.37,4.8-1.11c1.4-0.74,2.49-1.76,3.28-3.07
				c0.79-1.31,1.18-2.81,1.18-4.48c0-1.67-0.39-3.16-1.18-4.46c-0.79-1.3-1.88-2.32-3.28-3.06c-1.4-0.74-3-1.11-4.8-1.11h-4.87
				v17.29H129.12z"/>
		</defs>
		<clipPath id="SVGID_00000106134990675615018780000004502905455363588249_">
			<use xlink:href="#SVGID_00000088116310274961306380000015377450762624361917_"  style="overflow:visible;"/>
		</clipPath>
		
			<g id="XMLID_00000170257973907232425990000015014023979327932321_" style="clip-path:url(#SVGID_00000106134990675615018780000004502905455363588249_);">
			
				<rect id="XMLID_00000039838818515190679350000006624756529063369368_" x="6.24" y="36.28" class="st5" width="138.71" height="4.43"/>
			
				<rect id="XMLID_00000055666600785072973390000014599345840948702336_" x="6.24" y="31.84" class="st6" width="138.71" height="4.43"/>
			
				<rect id="XMLID_00000076567371887727124570000004272278264167722416_" x="6.24" y="27.41" class="st7" width="138.71" height="4.43"/>
			
				<rect id="XMLID_00000124849166662243215880000002187827257587181959_" x="6.24" y="22.98" class="st8" width="138.71" height="4.43"/>
			
				<rect id="XMLID_00000138543178156855926780000001120874818674849411_" x="6.24" y="18.54" class="st9" width="138.71" height="4.43"/>
			
				<rect id="XMLID_00000123433707874265821490000016502674956402768783_" x="6.24" y="14.11" class="st10" width="138.71" height="4.43"/>
		</g>
		
			<rect id="XMLID_00000031206338113778480130000008243568122323368357_" x="9.3" y="14.11" transform="matrix(0.6803 -0.733 0.733 0.6803 -6.7909 12.653)" style="clip-path:url(#SVGID_00000106134990675615018780000004502905455363588249_);fill:#241F23;" width="3.62" height="0"/>
		
			<polygon id="XMLID_00000003086491271509042680000012952489230581884348_" style="clip-path:url(#SVGID_00000106134990675615018780000004502905455363588249_);fill:#241F23;" points="
			12.92,14.11 9.3,14.11 23.63,27.41 9.3,40.71 12.92,40.71 27.25,27.41 		"/>
		
			<polygon id="XMLID_00000142875158723577120500000003524948709546948489_" style="clip-path:url(#SVGID_00000106134990675615018780000004502905455363588249_);fill:#744A26;" points="
			9.3,14.11 6.24,14.11 6.24,14.64 20,27.41 6.24,40.18 6.24,40.71 9.3,40.71 23.63,27.41 		"/>
		
			<polygon id="XMLID_00000146493329973353518720000015400398286697128607_" style="clip-path:url(#SVGID_00000106134990675615018780000004502905455363588249_);fill:#91D4F6;" points="
			16.38,27.41 6.24,36.82 6.24,40.18 20,27.41 6.24,14.64 6.24,18 		"/>
		
			<polygon id="XMLID_00000141454857611981392860000004550518486729563530_" style="clip-path:url(#SVGID_00000106134990675615018780000004502905455363588249_);fill:#E892B8;" points="
			6.24,18 6.24,21.36 12.76,27.41 6.24,33.46 6.24,36.82 16.38,27.41 		"/>
		
			<polygon id="XMLID_00000030451330973554819480000011207701276427297158_" style="clip-path:url(#SVGID_00000106134990675615018780000004502905455363588249_);fill:#FFFFFF;" points="
			6.24,21.36 6.24,33.46 12.76,27.41 		"/>
	</g>
	<g>
		<defs>
			<path id="SVGID_00000183217240473105001760000001444412559024841872_" d="M65.8,38.65c-2.01-1.18-3.62-2.76-4.81-4.75
				c-1.19-1.99-1.78-4.14-1.78-6.44c0-2.31,0.59-4.45,1.78-6.43c1.19-1.98,2.79-3.56,4.81-4.73c2.01-1.18,4.19-1.77,6.52-1.77
				c2.33,0,4.5,0.59,6.52,1.77c2.01,1.18,3.62,2.76,4.82,4.73c1.2,1.98,1.8,4.12,1.8,6.43c0,2.31-0.6,4.45-1.8,6.44
				c-1.2,1.99-2.81,3.57-4.82,4.75c-2.01,1.18-4.19,1.77-6.52,1.77S67.82,39.83,65.8,38.65z M76.54,35.06
				c1.31-0.8,2.35-1.87,3.11-3.22c0.76-1.35,1.15-2.81,1.15-4.39c0-1.55-0.38-3-1.15-4.35c-0.76-1.35-1.8-2.42-3.11-3.22
				c-1.31-0.8-2.72-1.2-4.22-1.2c-1.51,0-2.91,0.4-4.21,1.2c-1.3,0.8-2.34,1.87-3.11,3.22c-0.78,1.35-1.16,2.8-1.16,4.35
				c0,1.58,0.39,3.04,1.16,4.39c0.78,1.35,1.81,2.42,3.11,3.22c1.3,0.8,2.7,1.2,4.21,1.2C73.82,36.26,75.23,35.86,76.54,35.06z"/>
		</defs>
		<clipPath id="SVGID_00000111169339831147504920000017500001142715475082_">
			<use xlink:href="#SVGID_00000183217240473105001760000001444412559024841872_"  style="overflow:visible;"/>
		</clipPath>
		
			<g id="XMLID_00000148638140909985509980000000855362359006370204_" style="clip-path:url(#SVGID_00000111169339831147504920000017500001142715475082_);">
			
				<rect id="XMLID_00000099631503420690928330000017164936509200239243_" x="8.43" y="36.08" class="st5" width="134.67" height="4.3"/>
			
				<rect id="XMLID_00000067935548606694842520000003604916049927137966_" x="8.43" y="31.78" class="st6" width="134.67" height="4.3"/>
			
				<rect id="XMLID_00000053533488626591904450000006619365749761747113_" x="8.43" y="27.47" class="st7" width="134.67" height="4.3"/>
			
				<rect id="XMLID_00000057842827356334170510000005350259075984207015_" x="8.43" y="23.17" class="st8" width="134.67" height="4.3"/>
			
				<rect id="XMLID_00000090975094367927728580000014210997386049237652_" x="8.43" y="18.86" class="st9" width="134.67" height="4.3"/>
			
				<rect id="XMLID_00000157285061064483403640000016612727548736280723_" x="8.43" y="14.56" class="st10" width="134.67" height="4.3"/>
		</g>
		
			<rect id="XMLID_00000140698970425507302690000004510707266531505556_" x="11.39" y="14.56" transform="matrix(0.6803 -0.733 0.733 0.6803 -6.4661 14.2958)" style="clip-path:url(#SVGID_00000111169339831147504920000017500001142715475082_);fill:#241F23;" width="3.52" height="0"/>
		
			<polygon id="XMLID_00000150803594757772872520000015910694612858414992_" style="clip-path:url(#SVGID_00000111169339831147504920000017500001142715475082_);fill:#241F23;" points="
			14.91,14.56 11.39,14.56 25.31,27.47 11.39,40.38 14.91,40.38 28.82,27.47 		"/>
		
			<polygon id="XMLID_00000129170334619959762030000015669531533759326633_" style="clip-path:url(#SVGID_00000111169339831147504920000017500001142715475082_);fill:#744A26;" points="
			11.39,14.56 8.43,14.56 8.43,15.07 21.79,27.47 8.43,39.87 8.43,40.38 11.39,40.38 25.31,27.47 		"/>
		
			<polygon id="XMLID_00000142872486264611859470000007715738898859619761_" style="clip-path:url(#SVGID_00000111169339831147504920000017500001142715475082_);fill:#91D4F6;" points="
			18.27,27.47 8.43,36.61 8.43,39.87 21.79,27.47 8.43,15.07 8.43,18.33 		"/>
		
			<polygon id="XMLID_00000005969865247231026570000002473798441100634774_" style="clip-path:url(#SVGID_00000111169339831147504920000017500001142715475082_);fill:#E892B8;" points="
			8.43,18.33 8.43,21.6 14.76,27.47 8.43,33.35 8.43,36.61 18.27,27.47 		"/>
		
			<polygon id="XMLID_00000124849867499043764770000002252405693416693891_" style="clip-path:url(#SVGID_00000111169339831147504920000017500001142715475082_);fill:#FFFFFF;" points="
			8.43,21.6 8.43,33.35 14.76,27.47 		"/>
	</g>
</g>
</svg>
