<?xml version="1.0" encoding="UTF-8"?>
<svg width="250px" height="60px" viewBox="0 0 250 60" version="1.1" xmlns="http://www.w3.org/2000/svg" xmlns:xlink="http://www.w3.org/1999/xlink">
    <title>Contrast_Logo_RGB</title>
    <g id="Page-1" stroke="none" stroke-width="1" fill="none" fill-rule="evenodd">
        <g id="Home-V1" transform="translate(-69.000000, -47.000000)" fill-rule="nonzero">
            <g id="Contrast_Logo_RGB" transform="translate(69.000000, 47.830840)">
                <path d="M92.9794725,5.80071099 C97.0474467,5.80071099 100.562988,6.8546449 102.923502,8.51110757 C103.375314,8.86251235 103.475934,9.21377691 103.475934,9.81616547 L103.475934,13.1790924 C103.475934,13.68106 103.224806,13.9821827 102.822882,13.9821827 C102.622205,13.9821827 102.371077,13.8316228 102.170109,13.68106 C99.8597643,11.4724879 96.495014,10.16743 92.9794725,10.16743 C84.4415965,10.16743 79.7707295,16.0903338 79.7707295,24.6230701 C79.7707295,33.4570722 85.1445286,38.9281474 92.627716,38.9281474 C96.4448457,38.9281474 99.4581313,37.9744971 102.270449,35.6656442 C102.521585,35.5150843 102.672374,35.4146605 102.873333,35.4146605 C103.224809,35.4146605 103.475934,35.7157832 103.475934,36.1173298 L103.475934,38.7775874 C103.475934,39.3799788 103.325146,39.5806777 102.923502,39.8818033 C100.010564,42.0400905 96.7461504,43.0440257 91.6736476,43.0440257 C81.5286532,43.0440257 74.3467705,35.5652204 74.3467705,24.8239121 C74.3467705,14.3334473 81.4283137,5.80071099 92.9794725,5.80071099 Z M119.027023,17.3451097 C127.313771,17.3451097 131.130617,23.6192752 131.130617,30.0440035 C131.130617,36.5188708 127.313771,43.0440229 119.027023,43.0440229 C110.790455,43.0440229 106.872977,36.5188708 106.872977,30.0440035 C106.872977,23.6192752 110.790452,17.3451097 119.027023,17.3451097 Z M166.83388,12.0748765 C167.235508,12.0748765 167.436473,12.2755783 167.436473,12.677122 L167.436473,14.1828817 C167.436473,15.4378006 167.285685,17.0439841 167.085008,18.348899 C168.441002,18.248621 171.052363,18.1983362 172.910612,18.1983362 C173.11158,18.1983362 173.262368,18.348899 173.262368,18.6501648 L173.262368,21.2601404 C173.262368,21.5111241 173.16174,21.6616869 172.910612,21.6616869 C171.152974,21.6616869 168.842629,21.6616869 167.085008,21.5111241 C167.211745,22.73691 167.231756,23.9626958 167.234915,25.9078566 L167.235508,35.0632529 C167.235508,38.275617 168.792469,39.2795493 170.901846,39.2795493 C171.554618,39.2795493 172.20768,39.1791284 172.659484,38.9281446 C173.01124,38.7775846 173.262368,38.9281446 173.262368,39.2292701 L173.262368,42.2409325 C173.262368,42.4919163 173.0614,42.6926181 172.810272,42.7428973 C171.906372,42.9436019 171.002183,43.0440229 170.248799,43.0440229 C166.080477,43.0440229 162.665267,40.5343309 162.665267,35.1636739 L162.665267,27.0826231 C162.665267,24.4223655 162.765895,22.9164628 162.916411,21.5111241 C162.079304,21.6365931 160.998124,21.6575046 160.254195,21.6609899 L159.852957,21.6616869 L159.852957,21.6616869 C159.551653,21.6616869 159.350685,21.3102822 159.350685,20.7080338 C159.350685,20.1559273 159.400861,19.8548045 159.702149,19.7040987 C162.263642,18.097918 164.473356,15.5883662 166.230996,12.4762801 C166.381785,12.1751573 166.532576,12.0748765 166.83388,12.0748765 Z M203.728743,17.3451125 C210.609324,17.3451125 212.91938,20.5574738 212.91938,24.8239121 C212.91938,27.8354342 212.668252,32.5034191 212.668252,35.2640977 C212.668252,38.7775846 213.371476,40.6848908 214.124877,41.2369974 C214.325828,41.4378422 214.376004,41.5884022 214.376004,41.8393888 C214.376004,42.1405143 214.0747,42.3914953 213.823572,42.3914953 L211.613566,42.3914953 C210.860457,42.3914953 210.508701,42.0903753 210.257573,41.487984 C209.70514,40.5343337 209.303513,38.9281474 209.253336,37.3219667 C207.846891,40.8354536 204.984402,43.0440257 200.715452,43.0440257 C196.14523,43.0440257 193.382789,40.3336291 193.382789,36.6694392 C193.382789,31.6501898 198.254607,27.5343115 208.449773,26.9319229 L208.449773,25.2756005 C208.449773,22.5150649 207.194116,20.8084604 203.377278,20.8084604 C201.267884,20.8084604 199.811277,21.410706 198.907377,22.5150649 C198.204153,23.3682942 197.752348,24.0709635 196.647483,24.0709635 C195.542343,24.0709635 194.688603,23.418436 194.688603,22.1636601 C194.688603,20.4570556 197.199916,17.3451125 203.728743,17.3451125 Z M226.040926,17.3451097 C228.953864,17.3451097 231.163597,18.198339 232.369077,19.2022741 C233.021849,19.7543807 233.222814,20.2060662 233.222814,20.9088786 C233.222814,22.1636573 232.369077,23.0168866 231.515354,23.0168866 C230.912469,23.0168866 230.560985,22.9164628 230.108909,22.5150621 C228.752915,21.4107032 227.346742,20.8585966 225.789798,20.8585966 C222.876843,20.8585966 221.520864,22.5150621 221.520864,24.3219445 C221.520864,26.8817783 223.630241,27.5343087 226.292054,28.43782 C231.163597,30.0941425 233.82541,31.7003259 233.82541,35.8663404 C233.82541,40.1327815 230.058732,43.0440201 224.534144,43.0440201 C221.370351,43.0440201 219.009829,42.1405115 217.452884,41.0362956 C217.15158,40.7853118 217.05124,40.4841891 217.05124,40.1830663 L217.05124,37.8740733 C217.05124,37.4725267 217.151577,37.2215429 217.402705,37.2215429 C217.70401,37.2215429 217.904978,37.3219639 218.105654,37.5228087 C219.662598,38.7775846 222.02312,39.6810959 224.483965,39.6810959 C227.698227,39.6810959 229.40596,38.1250542 229.40596,36.1676118 C229.40596,33.5574932 227.045455,32.9552449 223.580065,31.7504677 C220.265483,30.6462518 217.101417,28.9397904 217.101417,24.4725073 C217.101417,20.7080366 220.466159,17.3451097 226.040926,17.3451097 Z M243.515443,12.0748765 C243.917088,12.0748765 244.118036,12.2755783 244.118036,12.677122 L244.118036,14.1828817 C244.118036,15.4378006 243.967247,17.0439841 243.766571,18.348899 C245.122565,18.248621 247.733925,18.1983362 249.592175,18.1983362 C249.793143,18.1983362 249.943931,18.348899 249.943931,18.6501648 L249.943931,21.2601404 C249.943931,21.5111241 249.843319,21.6616869 249.592175,21.6616869 C247.834554,21.6616869 245.524209,21.6616869 243.766571,21.5111241 C243.901244,22.8135216 243.91542,24.1159191 243.916912,26.2811801 L243.917088,35.0632529 C243.917088,38.275617 245.474032,39.2795493 247.583426,39.2795493 C248.236181,39.2795493 248.889242,39.1791284 249.341047,38.9281446 C249.692803,38.7775846 249.943931,38.9281446 249.943931,39.2292701 L249.943931,42.2409325 C249.943931,42.4919163 249.74298,42.6926181 249.491835,42.7428973 C248.587935,42.9436019 247.683763,43.0440229 246.930362,43.0440229 C242.762059,43.0440229 239.346846,40.5343309 239.346846,35.1636739 L239.346846,27.0826231 C239.346846,24.4223655 239.447458,22.9164628 239.597974,21.5111241 C238.760867,21.6365931 237.679687,21.6575046 236.935757,21.6609899 L236.53452,21.6616869 L236.53452,21.6616869 C236.233215,21.6616869 236.032264,21.3102822 236.032264,20.7080338 C236.032264,20.1559273 236.082424,19.8548045 236.383729,19.7040987 C238.945205,18.097918 241.154921,15.5883662 242.912559,12.4762801 C243.063347,12.1751573 243.214139,12.0748765 243.515443,12.0748765 Z M148.818816,17.3451125 C153.137926,17.3451125 156.6033,20.0053701 156.6033,25.1751795 L156.6033,41.9398069 C156.6033,42.1405115 156.352172,42.3914925 156.151204,42.3914925 L152.485154,42.3914925 C152.234026,42.3914925 152.033058,42.1405115 152.033058,41.9398069 L152.033058,26.2292508 C152.033058,22.5652039 150.12463,21.0091594 147.111355,21.0091594 C143.344677,21.0091594 139.778676,23.7698408 139.778676,28.6385274 L139.778676,41.9398069 C139.778676,42.1405115 139.527548,42.3914925 139.326871,42.3914925 L135.660533,42.3914925 C135.409405,42.3914925 135.208437,42.1405115 135.208437,41.9398069 L135.208437,22.6656221 C135.208437,20.0555063 134.856973,19.0014293 134.856973,18.6501676 C134.856973,18.4493228 135.057932,18.198339 135.258608,18.198339 L138.422691,18.198339 C138.673819,18.1983418 138.824607,18.4493256 138.874778,18.6501704 C139.025567,19.7041043 139.176083,21.7621135 139.176083,23.3682942 C140.532068,19.8548073 144.198418,17.3451125 148.818816,17.3451125 Z M189.196237,17.3451097 C192.360031,17.3451097 193.716024,18.9512903 193.716024,20.7581756 C193.716024,22.2137963 192.962915,23.2678704 191.707259,23.2678704 C189.999804,23.2678704 190.15032,21.5612659 187.48849,21.5612659 C184.073297,21.5612659 182.265497,24.9744749 182.265497,28.7890846 L182.265497,41.9398069 C182.265497,42.1405115 182.014352,42.3914925 181.813401,42.3914925 L178.147062,42.3914925 C177.895934,42.3914925 177.695258,42.1405115 177.695258,41.9398069 L177.695258,22.6656221 C177.695258,20.0555063 177.343502,19.0014293 177.343502,18.6501676 C177.343502,18.4493228 177.544453,18.198339 177.745418,18.198339 L180.909501,18.198339 C181.160629,18.198339 181.311128,18.4493228 181.361305,18.6501676 C181.562273,19.9550825 181.662609,21.8122497 181.662609,23.6192752 C182.868089,19.9550825 185.529899,17.3451097 189.196237,17.3451097 Z M119.027026,20.7581756 C113.904071,20.7581756 111.794978,24.9243359 111.794978,30.1442843 C111.794978,35.4146605 113.954534,39.7312405 119.027026,39.7312405 C124.149694,39.7312405 126.259082,35.3645187 126.259082,30.1442843 C126.259082,24.8239121 124.099526,20.7581756 119.027026,20.7581756 Z M208.449767,29.3914731 C200.715446,29.9435853 197.852685,32.6539791 197.852685,35.8663432 C197.852685,38.325899 199.761094,39.6308139 201.970828,39.6308139 C205.838117,39.6308139 208.449767,36.5188708 208.449767,32.6038373 L208.449767,29.3914731 Z" id="Contrast" fill="#0A004F"></path>
                <path d="M79.4298316,47.8686668 C80.4378367,47.8686668 81.2584708,48.0989023 81.9639198,48.5737001 C82.0934315,48.6744968 82.1080303,48.7606978 82.1080303,48.9333772 L82.1080303,49.9118839 C82.1080303,50.0414601 82.0361111,50.1134774 81.9352525,50.1134774 C81.8630612,50.1134774 81.8057407,50.0845606 81.7478732,50.0270017 C81.0567593,49.3507479 80.2504574,49.034174 79.3289703,49.034174 C78.1484512,49.034174 77.5006033,49.7536657 77.5006033,50.6170518 C77.5006033,51.7251319 78.5226768,52.1135885 79.6745258,52.5740624 C81.5896914,53.2935541 82.5398401,54.0993813 82.5398401,55.6534825 C82.5398401,57.4810515 81.0424327,58.5602203 79.0556117,58.5602203 C77.659046,58.5602203 76.9533333,58.2868815 76.06078,57.653731 C75.9742536,57.5672552 75.9166611,57.4810543 75.9166611,57.3226958 L75.9166611,56.5311924 C75.9166611,56.387427 75.9742536,56.3009569 76.06078,56.3009569 C76.1327076,56.3009569 76.1903002,56.3441891 76.2478928,56.4017508 C77.0831201,57.0781393 77.9900056,57.4378164 78.9980191,57.4378164 C80.2937262,57.4378108 81.085693,56.7614224 81.085693,55.8118325 C81.085693,54.6174141 80.1642059,54.3152958 78.6235297,53.6821453 C77.2556341,53.1496541 76.0464478,52.3869301 76.0464478,50.7466252 C76.0464478,49.2787334 77.2269669,47.8686668 79.4298316,47.8686668 Z M101.115303,47.8686668 C102.28177,47.8686668 103.289509,48.1707851 103.966291,48.64558 C104.095811,48.7463767 104.124736,48.8471735 104.124736,49.019853 L104.124736,49.9839012 C104.124736,50.1277984 104.052817,50.2141368 103.937632,50.2141368 C103.879764,50.2141368 103.807848,50.1710363 103.750253,50.1277984 C103.088061,49.4946479 102.123316,49.1205123 101.115303,49.1205123 C98.6677497,49.1205123 97.3287767,50.8185107 97.3287767,53.2647718 C97.3287767,55.7973741 98.8694529,57.3659309 101.014725,57.3659309 C102.10899,57.3659309 102.972876,57.0924575 103.779178,56.4305247 C103.851105,56.3874242 103.894363,56.3585102 103.951956,56.3585102 C104.052817,56.3585102 104.124736,56.4449803 104.124736,56.5601009 L104.124736,57.322693 C104.124736,57.4953697 104.081476,57.5529286 103.966288,57.6392697 C103.131327,58.2579619 102.195241,58.5457591 100.741083,58.5457591 C97.8327806,58.5457591 95.7737682,56.4017452 95.7737682,53.3223307 C95.7737682,50.3147961 97.8038552,47.8686668 101.115303,47.8686668 Z M109.091512,48.1995617 C109.149105,48.1995617 109.221033,48.271579 109.221033,48.3434589 L109.221033,54.7037496 C109.221033,56.3298625 110.243373,57.2651313 111.985485,57.2651313 C113.75654,57.2651313 114.77888,56.4449803 114.77888,54.7757669 L114.77888,48.3434589 C114.77888,48.271579 114.836473,48.1995617 114.908392,48.1995617 L116.074585,48.1995617 C116.132177,48.1995617 116.204105,48.271579 116.204105,48.3434589 L116.204105,54.9627674 C116.204105,57.1500136 114.50525,58.5457563 111.985485,58.5457563 C109.466004,58.5457563 107.752551,57.1356926 107.752551,54.9195296 L107.752551,48.3434589 C107.752551,48.271579 107.810143,48.1995617 107.882062,48.1995617 L109.091512,48.1995617 Z M92.7275673,48.1995645 C92.7997587,48.1995645 92.8284203,48.2426706 92.8427525,48.3291407 L92.9436055,49.2211717 C92.9436055,49.293189 92.9149467,49.3362894 92.8427525,49.3362894 C91.978858,49.3362894 90.5390348,49.3076474 89.7040741,49.3076474 C88.9553648,49.3076474 88.4513636,49.293189 87.9619613,49.2644095 C87.9906201,49.8256802 88.0049551,50.4012719 88.0049551,50.8903906 C88.0049551,51.4228818 87.9906201,51.9840151 87.9619613,52.5452829 C88.4080976,52.5020451 88.9121072,52.4877241 89.6318827,52.4877241 C90.366257,52.4877241 90.8989282,52.473403 91.2444837,52.473403 C91.3023429,52.473403 91.3453367,52.5165035 91.3453367,52.6028418 L91.3453367,53.4662307 C91.3453367,53.5381107 91.3166779,53.5813485 91.2444837,53.5813485 C90.8845932,53.5813485 90.3375954,53.5670275 89.6032211,53.5670275 C88.9840236,53.5670275 88.4370286,53.5381107 87.9619585,53.4950102 C87.9906173,54.1281608 88.0049523,54.7325347 88.0049523,55.3224474 C88.0049523,55.9700536 87.9906173,56.6463102 87.9619585,57.2939164 C88.515464,57.2586524 88.9920518,57.2522407 89.7306956,57.251075 L90.2656678,57.2508159 L90.2656678,57.2508159 C91.1871577,57.2508131 92.1948962,57.2218963 93.0587907,57.2218963 C93.1163833,57.2218963 93.1596521,57.2651341 93.1596521,57.3514725 L93.0444669,58.2436408 C93.0301319,58.3155208 93.0155331,58.3587586 92.9436055,58.3587586 L86.6803171,58.3587586 C86.6083895,58.3587586 86.5507969,58.2868787 86.5507969,58.2293198 L86.5507969,48.3434617 C86.5507969,48.2715818 86.6083895,48.1995645 86.6803171,48.1995645 L92.7275673,48.1995645 Z M123.704964,48.1995673 C126.066274,48.1995673 127.117548,49.4658712 127.117548,51.0344224 C127.117548,52.6028418 125.706383,53.7252485 124.223302,53.8403663 C124.957677,53.9985846 126.023008,55.0346529 127.059683,56.2147475 C127.865985,57.1067785 128.441914,57.7688459 128.744478,57.927067 C128.816406,57.9558464 128.83073,58.0277263 128.83073,58.1285231 C128.83073,58.2724203 128.75881,58.3587614 128.643625,58.3587614 L127.318987,58.3587614 C127.131874,58.3587614 126.987764,58.2724203 126.671139,57.8407258 C125.389762,56.3585102 123.877744,54.1857196 122.855671,54.1857196 C122.697225,54.1857196 122.294074,54.1712612 122.03477,54.1569402 C122.078039,54.7757698 122.092363,55.4232441 122.092363,56.0996298 L122.092363,58.2293226 C122.092363,58.2868815 122.020443,58.3587614 121.962851,58.3587614 L120.767724,58.3587614 C120.695805,58.3587614 120.638213,58.2868815 120.638213,58.2293226 L120.638213,48.3867024 C120.638213,48.2859056 120.710132,48.1995673 120.767724,48.1995673 L123.704964,48.1995673 Z M133.519815,48.1995645 C133.577407,48.1995645 133.649335,48.2715818 133.649335,48.3434617 L133.649335,58.2293198 C133.649335,58.2868787 133.577407,58.3587586 133.519815,58.3587586 L132.324697,58.3587586 C132.252769,58.3587586 132.195177,58.2868787 132.195177,58.2293198 L132.195177,48.3434617 C132.195177,48.2715818 132.252769,48.1995645 132.324697,48.1995645 L133.519815,48.1995645 Z M145.809812,48.1995673 C145.882003,48.1995673 145.910671,48.2426678 145.910671,48.3146823 L145.910671,49.293189 C145.910671,49.3507479 145.882003,49.3938483 145.809818,49.3938483 C145.277146,49.3938483 144.643625,49.3652063 144.110954,49.3652063 C143.477433,49.3652063 142.814983,49.3507479 142.181462,49.3219684 C142.210396,49.8543222 142.224719,50.3868134 142.224719,50.9193019 L142.224719,58.2293198 C142.224719,58.2868787 142.1528,58.3587586 142.095208,58.3587586 L140.900081,58.3587586 C140.828162,58.3587586 140.77057,58.2868787 140.77057,58.2293198 L140.77057,50.8903906 C140.77057,50.3580368 140.784896,49.825683 140.813827,49.3219712 C140.237898,49.3507507 139.647368,49.3652091 139.071439,49.3652091 C138.409256,49.3652091 137.819004,49.3938511 137.156546,49.3938511 C137.084618,49.3938511 137.041361,49.3507507 137.055685,49.2787334 L137.185205,48.3291435 C137.199804,48.2426734 137.228462,48.1995673 137.286058,48.1995673 L145.809812,48.1995673 Z M149.408959,48.1995645 C149.538479,48.1995645 149.610407,48.2715818 149.653664,48.3577827 L152.014975,51.4804407 C152.345923,51.9553674 152.648496,52.4158413 152.878869,52.9338741 C153.166835,52.3869301 153.454798,51.9264562 153.771414,51.4948935 L156.147059,48.3577827 C156.233577,48.2283439 156.334447,48.1995645 156.449632,48.1995645 L157.659085,48.1995645 C157.817531,48.1995645 157.817531,48.3146823 157.730996,48.4298001 L153.569989,53.9267018 L153.569989,58.2293198 C153.569986,58.2868787 153.497786,58.3587586 153.440466,58.3587586 L152.245348,58.3587586 C152.17342,58.3587586 152.115553,58.2868787 152.115553,58.2293198 L152.115553,53.9267018 L147.997803,48.4298001 C147.911543,48.3146823 147.911543,48.1995645 148.069731,48.1995645 L149.408959,48.1995645 Z M122.049369,49.2500885 C122.078036,49.7824423 122.092363,50.861743 122.092363,51.4373346 C122.092363,52.0272473 122.078036,52.6171628 122.049369,53.1927545 C122.308409,53.1784335 122.71156,53.1496541 123.114711,53.1496541 C124.828165,53.1496541 125.591198,52.3582825 125.591198,51.0775257 C125.591198,49.9839012 124.929015,49.293189 123.532186,49.293189 C123.01385,49.293189 122.538779,49.2787305 122.049369,49.2500885 Z" id="Security" fill="#9DA5B3"></path>
                <g id="Symbol">
                    <path d="M17.0520191,24.1825873 C17.0520191,31.5253386 19.8757826,38.0441224 24.5191166,42.4364718 C23.7852818,42.5029873 23.0299874,42.5351766 22.2510928,42.5351766 C9.11286255,42.5351766 2.38901777e-14,34.9220589 2.38901777e-14,24.5044499 C2.38901777e-14,14.0868409 9.11286255,6.47157796 22.2510928,6.47157796 C22.7725039,6.47157796 23.2810377,6.48230681 23.7724072,6.5016193 C19.5560724,10.9175688 17.0520191,17.2110496 17.0520191,24.1825873 Z" id="Path" fill="#004D45"></path>
                    <path d="M55.8791522,9.96485786 C56.4998812,13.9688264 53.4197747,17.2646938 48.1885159,17.2646938 C40.3266461,17.2646938 38.9310712,7.13890605 23.7724072,6.5016193 C27.6059533,2.46975747 32.8628968,2.98874959e-15 38.943915,2.98874959e-15 C39.063779,2.98874959e-15 39.1815024,2.98874959e-15 39.3013691,0.00214520846 C48.0472456,0.00214520846 55.1984884,5.59396617 55.8791522,9.96485786 Z" id="Path" fill="#0E9E53"></path>
                    <path d="M51.3314824,31.945906 C53.3587639,32.3407225 55.9581761,33.7268777 55.9581761,37.9411271 C55.9581761,43.7925856 46.8537584,48.1591841 39.2843758,48.232138 C39.2843758,48.232138 39.2649476,48.232138 39.2476769,48.232138 C39.2347239,48.232138 39.2282459,48.232138 39.221768,48.232138 C39.2152901,48.232138 39.2131327,48.232138 39.2131327,48.232138 C33.4486557,48.2235544 28.3642597,46.0499114 24.5191194,42.4364718 C37.8594514,41.3056609 44.1075367,30.5318575 51.3314824,31.945906 Z" id="Path" fill="#0A004F"></path>
                </g>
            </g>
        </g>
    </g>
</svg>
