<svg width="123" height="27" viewBox="0 0 123 27" fill="none" xmlns="http://www.w3.org/2000/svg">
<path fill-rule="evenodd" clip-rule="evenodd" d="M32.0965 0.796655C32.0961 0.745043 32.0909 0.69358 32.0811 0.6429C32.0811 0.627524 32.0734 0.613686 32.0688 0.59831C32.0642 0.582935 32.0488 0.52912 32.0365 0.495294L32.0135 0.446092C31.9992 0.416745 31.9827 0.388482 31.9643 0.361526C31.9535 0.344613 31.9428 0.3277 31.9305 0.310787L31.9089 0.281574C31.8966 0.267736 31.8828 0.256973 31.8705 0.244672L31.8397 0.207771L31.8151 0.190858C31.7926 0.171589 31.769 0.153622 31.7444 0.137043L31.6844 0.0986042C31.658 0.0847479 31.6308 0.072427 31.603 0.0617028L31.5384 0.0355643C31.5092 0.026339 31.4784 0.0217263 31.4492 0.0155761L31.3831 0.00173806C31.3467 -0.000579352 31.3103 -0.000579352 31.2739 0.00173806H31.2124C30.8004 0.0386394 25.3559 0.558334 19.2364 3.2875C15.5616 4.92192 12.7171 7.43122 10.9274 10.4771L10.4662 10.677C3.91462 13.6014 0 19.2858 0 25.8834V25.9941C0.000155589 26.146 0.04364 26.2947 0.125346 26.4227C0.207053 26.5507 0.323589 26.6527 0.461267 26.7168C0.566932 26.7652 0.681762 26.7904 0.797992 26.7906H22.5467C22.589 26.7908 22.6312 26.7872 22.6728 26.7798L22.7282 26.766C22.7543 26.7583 22.7805 26.7537 22.8066 26.7445C22.8327 26.7353 22.845 26.726 22.865 26.7168C22.885 26.7076 22.9111 26.6984 22.9327 26.6861C22.9733 26.6621 23.0118 26.6348 23.048 26.6046L31.8121 19.2151C31.9017 19.1398 31.9735 19.0456 32.0224 18.9392C32.0713 18.8329 32.0961 18.7171 32.095 18.6V0.796655H32.0965ZM24.1719 23.5694L23.3309 24.2782V8.55671L30.5021 2.51257V18.2341L24.1719 23.5694ZM9.85421 19.4011H21.7364V25.1962H2.97825L9.85421 19.4011ZM19.8837 4.7451C22.6845 3.51191 25.6143 2.59548 28.6186 2.01286L22.2085 7.41738C19.2497 7.7784 16.3395 8.46365 13.5305 9.46079C15.1173 7.52347 17.2575 5.91672 19.8837 4.7451ZM12.0068 11.7533C15.1283 10.4684 18.3961 9.57242 21.7364 9.08563V17.8067H10.377C10.4589 15.6921 11.0159 13.6231 12.0068 11.7533ZM9.81884 12.7712C9.14704 14.5144 8.78992 16.363 8.76408 18.231L1.69131 24.1998C2.22638 19.3504 5.10623 15.2943 9.81884 12.7712Z" fill="#3569F3"/>
<path fill-rule="evenodd" clip-rule="evenodd" d="M38.2144 22.2073V4.15332H45.6869C47.6181 4.15332 49.1705 4.65405 50.3441 5.65551C51.5178 6.65698 52.1041 8.13252 52.1031 10.0821C52.1302 11.1253 51.8786 12.1567 51.3743 13.0702C50.87 13.9837 50.1312 14.7462 49.234 15.2791L53.1041 22.2104H47.9609L44.9027 16.0602H42.8978V22.2104L38.2144 22.2073ZM42.8978 12.3024H45.2256C45.5079 12.3132 45.7894 12.2672 46.0536 12.1671C46.3177 12.067 46.559 11.9148 46.7632 11.7196C46.9646 11.5155 47.1215 11.2718 47.2242 11.004C47.3269 10.7362 47.373 10.4501 47.3597 10.1636C47.3597 9.47788 47.1701 8.93615 46.7909 8.53843C46.4116 8.14072 45.8827 7.94135 45.2041 7.94033H42.8978V12.3024ZM53.7006 15.8388C53.6852 14.6387 53.9786 13.4548 54.5524 12.4008C55.113 11.3809 55.942 10.5339 56.9495 9.95145C58.0275 9.33388 59.2529 9.02035 60.4951 9.04429C61.8492 9.04429 63.0362 9.34668 64.0561 9.95145C65.058 10.5388 65.8813 11.3876 66.4378 12.4069C67.0118 13.4588 67.3057 14.6406 67.2911 15.8388C67.3069 17.0391 67.013 18.2232 66.4378 19.2767C65.8804 20.2943 65.0572 21.1414 64.0561 21.7276C63.031 22.3324 61.8441 22.6348 60.4951 22.6348C59.2529 22.6587 58.0275 22.3452 56.9495 21.7276C55.9427 21.1463 55.1138 20.3009 54.5524 19.2829C53.9773 18.2271 53.684 17.0409 53.7006 15.8388ZM60.4951 18.6279C60.8384 18.6416 61.1804 18.5767 61.4948 18.4382C61.8093 18.2996 62.0879 18.091 62.3094 17.8284C62.7697 17.2697 63.0103 16.5622 62.9859 15.8388C63.01 15.1153 62.7694 14.408 62.3094 13.8492C62.079 13.5977 61.7987 13.3969 61.4865 13.2596C61.1743 13.1222 60.837 13.0513 60.4959 13.0513C60.1548 13.0513 59.8174 13.1222 59.5052 13.2596C59.193 13.3969 58.9128 13.5977 58.6823 13.8492C58.2211 14.4074 57.98 15.115 58.0043 15.8388C57.9774 16.5657 58.2187 17.2771 58.6823 17.8376C58.9038 18.0997 59.1823 18.3078 59.4964 18.4458C59.8106 18.5839 60.1522 18.6483 60.4951 18.634V18.6279ZM69.4022 22.2012H73.978V4.15332H69.4022V22.2012ZM76.6287 22.2012H81.2045V4.15332H76.6302L76.6287 22.2012ZM83.8552 21.6046V4.15332H88.431V10.5127C88.7348 10.167 89.1084 9.8898 89.5273 9.69929C89.9075 9.5278 90.3064 9.40088 90.7158 9.32105C91.0194 9.25734 91.3282 9.22132 91.6383 9.21342C92.8284 9.21342 93.8345 9.51068 94.6566 10.1052C95.4787 10.7034 96.1241 11.5124 96.5247 12.4469C96.9503 13.4251 97.1666 14.4814 97.1597 15.5482C97.1597 17.7858 96.5103 19.5284 95.2116 20.7759C93.9129 22.0233 91.9997 22.646 89.4719 22.644C88.4294 22.646 87.3898 22.5325 86.3722 22.3057C85.5217 22.1219 84.6824 21.8899 83.8583 21.6108L83.8552 21.6046ZM88.431 15.5681V18.6279C88.6562 18.7075 88.887 18.7707 89.1214 18.817C89.4202 18.8746 89.7242 18.9019 90.0285 18.8985C90.3676 18.9108 90.7053 18.8499 91.0186 18.7199C91.332 18.5899 91.6136 18.3938 91.8444 18.1451C92.3149 17.6387 92.5496 16.8356 92.5486 15.7357C92.5464 15.3256 92.4779 14.9185 92.3456 14.5303C92.2225 14.1437 92.0035 13.7946 91.7091 13.5155C91.3983 13.2363 90.9902 13.0905 90.5728 13.1096C89.8143 13.1096 89.2684 13.3443 88.9353 13.8138C88.5856 14.3326 88.4101 14.9491 88.4341 15.5743L88.431 15.5681ZM106.623 22.2012L106.46 21.0096C105.98 21.5596 105.385 21.9987 104.718 22.2965C104.02 22.5496 103.28 22.6691 102.538 22.6486C101.937 22.6409 101.343 22.5306 100.779 22.3226C100.153 22.0969 99.6063 21.6922 99.2077 21.1587C98.7741 20.5949 98.5573 19.8077 98.5573 18.797C98.5573 17.772 98.8372 16.9145 99.3969 16.2247C99.9895 15.515 100.761 14.9772 101.632 14.6671C102.598 14.3118 103.62 14.1357 104.649 14.1474C105.064 14.1474 105.398 14.1567 105.652 14.1751C105.904 14.192 106.174 14.2197 106.463 14.2566V14.0045C106.463 13.5545 106.351 13.2162 106.125 12.9897C105.898 12.7628 105.612 12.6031 105.3 12.5284C104.99 12.4491 104.672 12.4083 104.352 12.4069C103.632 12.3946 102.915 12.4984 102.228 12.7144C101.694 12.8783 101.188 13.1198 100.725 13.4309L98.9925 10.8094C99.5337 10.3768 100.296 9.98015 101.279 9.61934C102.262 9.25852 103.503 9.07658 105.001 9.0735C106.77 9.0735 108.201 9.52965 109.293 10.4419C110.384 11.3542 110.93 12.7119 110.93 14.5149V22.2027L106.623 22.2012ZM106.46 17.5439V16.7059C106.051 16.6237 105.633 16.5871 105.215 16.5968C104.456 16.5968 103.897 16.7459 103.537 17.0442C103.37 17.169 103.233 17.3314 103.139 17.5182C103.045 17.7051 102.996 17.9113 102.996 18.1205C102.996 19.0605 103.502 19.5299 104.512 19.5289C104.987 19.5272 105.449 19.3807 105.838 19.1091C106.255 18.8283 106.463 18.3086 106.463 17.5501L106.46 17.5439ZM113.533 22.2012V9.4825H117.946L118.1 11.08C118.464 10.5725 118.918 10.1367 119.44 9.79462C120.019 9.42983 120.693 9.24618 121.376 9.26724C121.688 9.26381 122 9.28179 122.31 9.32105C122.544 9.34839 122.776 9.39992 123 9.47481L122.409 13.3787C121.975 13.2736 121.529 13.222 121.083 13.2249C119.097 13.2249 118.104 14.3171 118.104 16.5014V22.2135L113.533 22.2012Z" fill="#343F55"/>
</svg>
