<svg width="175" height="39" viewBox="0 0 175 39" fill="none" xmlns="http://www.w3.org/2000/svg">
<path fill-rule="evenodd" clip-rule="evenodd" d="M45.6658 1.64407C45.6651 1.57064 45.6578 1.49742 45.6439 1.42531C45.6439 1.40344 45.633 1.38375 45.6264 1.36187C45.6198 1.34 45.598 1.26343 45.5805 1.21531L45.5476 1.1453C45.5273 1.10355 45.5039 1.06334 45.4776 1.02499C45.4623 1.00092 45.447 0.97686 45.4295 0.952797L45.3989 0.911233C45.3814 0.891545 45.3617 0.876232 45.3442 0.858731L45.3004 0.806229L45.2654 0.782166C45.2334 0.754751 45.1998 0.729188 45.1648 0.7056L45.0795 0.650911C45.0419 0.631196 45.0032 0.613667 44.9636 0.598409L44.8717 0.56122C44.8301 0.548094 44.7864 0.541532 44.7448 0.532781L44.6507 0.513093C44.599 0.509796 44.5471 0.509796 44.4954 0.513093H44.4079C43.8216 0.565595 36.0754 1.305 27.3688 5.18796C22.1405 7.51336 18.0935 11.0835 15.5471 15.4171L14.8909 15.7015C5.56958 19.8623 0 27.9497 0 37.3367V37.4942C0.000221366 37.7102 0.0620895 37.9217 0.178338 38.1039C0.294587 38.286 0.46039 38.4312 0.656275 38.5223C0.80661 38.5912 0.969986 38.627 1.13535 38.6273H32.0787C32.1388 38.6277 32.1989 38.6225 32.2581 38.612L32.3368 38.5923C32.374 38.5814 32.4112 38.5748 32.4484 38.5617C32.4856 38.5486 32.5031 38.5355 32.5315 38.5223C32.56 38.5092 32.5972 38.4961 32.6278 38.4786C32.6855 38.4445 32.7404 38.4057 32.7919 38.3626L45.2611 27.8491C45.3885 27.742 45.4907 27.608 45.5603 27.4567C45.6299 27.3054 45.6652 27.1406 45.6636 26.9741V1.64407H45.6658ZM34.391 34.0443L33.1944 35.0528V12.6848L43.3972 4.08541V26.4534L34.391 34.0443ZM14.0202 28.1138H30.9258V36.3588H4.23735L14.0202 28.1138ZM28.2898 7.26178C32.2747 5.50724 36.4431 4.20338 40.7175 3.37445L31.5974 11.0638C27.3877 11.5774 23.2473 12.5524 19.2507 13.9711C21.5083 11.2147 24.5534 8.92872 28.2898 7.26178ZM17.0828 17.2328C21.524 15.4046 26.1733 14.1299 30.9258 13.4373V25.8453H14.764C14.8805 22.8368 15.6731 19.8931 17.0828 17.2328ZM13.9699 18.681C13.0141 21.1612 12.506 23.7913 12.4692 26.4491L2.40634 34.9413C3.16762 28.0416 7.26496 22.2708 13.9699 18.681Z" fill="white"/>
<path fill-rule="evenodd" clip-rule="evenodd" d="M54.3701 32.1061V6.41956H65.0018C67.7494 6.41956 69.9581 7.13198 71.628 8.55682C73.2978 9.98167 74.132 12.081 74.1305 14.8549C74.1691 16.339 73.8112 17.8065 73.0936 19.1062C72.3761 20.4059 71.3249 21.4908 70.0485 22.2489L75.5547 32.1105H68.2372L63.8861 23.3602H61.0335V32.1105L54.3701 32.1061ZM61.0335 18.0137H64.3455C64.7471 18.0292 65.1477 17.9637 65.5235 17.8213C65.8993 17.6789 66.2426 17.4624 66.5331 17.1846C66.8196 16.8941 67.0429 16.5475 67.189 16.1665C67.3351 15.7855 67.4007 15.3784 67.3819 14.9708C67.3819 13.9952 67.1121 13.2244 66.5725 12.6585C66.0328 12.0927 65.2803 11.809 64.3149 11.8076H61.0335V18.0137ZM76.4034 23.0452C76.3815 21.3378 76.7989 19.6534 77.6154 18.1537C78.4129 16.7027 79.5923 15.4976 81.0258 14.6689C82.5596 13.7903 84.3031 13.3442 86.0704 13.3783C87.9969 13.3783 89.6857 13.8085 91.1368 14.6689C92.5623 15.5046 93.7336 16.7122 94.5254 18.1625C95.3421 19.659 95.7602 21.3404 95.7395 23.0452C95.762 24.7529 95.3438 26.4376 94.5254 27.9366C93.7324 29.3843 92.5612 30.5895 91.1368 31.4236C89.6784 32.2841 87.9896 32.7143 86.0704 32.7143C84.3031 32.7483 82.5596 32.3023 81.0258 31.4236C79.5934 30.5965 78.4141 29.3938 77.6154 27.9454C76.7971 26.4432 76.3797 24.7556 76.4034 23.0452ZM86.0704 27.0135C86.5589 27.033 87.0454 26.9407 87.4927 26.7435C87.9401 26.5464 88.3365 26.2496 88.6517 25.8759C89.3066 25.081 89.6488 24.0745 89.6142 23.0452C89.6484 22.0159 89.3062 21.0095 88.6517 20.2144C88.3238 19.8567 87.9251 19.5711 87.4809 19.3756C87.0367 19.1802 86.5567 19.0793 86.0715 19.0793C85.5862 19.0793 85.1062 19.1802 84.662 19.3756C84.2178 19.5711 83.8191 19.8567 83.4912 20.2144C82.835 21.0087 82.4919 22.0155 82.5265 23.0452C82.4883 24.0794 82.8316 25.0915 83.4912 25.889C83.8063 26.262 84.2025 26.558 84.6495 26.7544C85.0965 26.9508 85.5825 27.0424 86.0704 27.0222V27.0135ZM98.743 32.0974H105.253V6.41956H98.743V32.0974ZM109.025 32.0974H115.535V6.41956H109.027L109.025 32.0974ZM119.306 31.2486V6.41956H125.817V15.4674C126.249 14.9756 126.78 14.5812 127.376 14.3102C127.917 14.0662 128.485 13.8856 129.067 13.772C129.499 13.6814 129.939 13.6301 130.38 13.6189C132.073 13.6189 133.504 14.0418 134.674 14.8877C135.844 15.7387 136.762 16.8898 137.332 18.2194C137.938 19.6111 138.245 21.114 138.235 22.6317C138.235 25.8154 137.312 28.2946 135.464 30.0695C133.616 31.8444 130.894 32.7303 127.298 32.7274C125.814 32.7303 124.335 32.5689 122.887 32.2461C121.677 31.9846 120.483 31.6545 119.311 31.2574L119.306 31.2486ZM125.817 22.6602V27.0135C126.137 27.1267 126.465 27.2167 126.799 27.2825C127.224 27.3644 127.656 27.4032 128.089 27.3985C128.572 27.416 129.052 27.3293 129.498 27.1443C129.944 26.9593 130.345 26.6804 130.673 26.3265C131.342 25.6061 131.676 24.4635 131.675 22.8986C131.672 22.3151 131.574 21.7359 131.386 21.1835C131.211 20.6335 130.899 20.1368 130.48 19.7397C130.038 19.3425 129.458 19.1351 128.864 19.1622C127.785 19.1622 127.008 19.4962 126.534 20.1641C126.037 20.9022 125.787 21.7795 125.821 22.6689L125.817 22.6602ZM151.7 32.0974L151.468 30.402C150.784 31.1845 149.939 31.8093 148.99 32.233C147.996 32.5932 146.944 32.7631 145.888 32.734C145.033 32.723 144.187 32.5661 143.385 32.2702C142.494 31.949 141.716 31.3732 141.149 30.6142C140.532 29.8121 140.224 28.6921 140.224 27.2541C140.224 25.7957 140.622 24.5758 141.418 23.5943C142.262 22.5846 143.36 21.8194 144.599 21.3782C145.973 20.8727 147.427 20.6222 148.891 20.6388C149.482 20.6388 149.957 20.652 150.317 20.6782C150.676 20.7023 151.061 20.7417 151.472 20.7942V20.4354C151.472 19.7952 151.312 19.3139 150.991 18.9916C150.668 18.6688 150.261 18.4417 149.816 18.3353C149.376 18.2225 148.924 18.1645 148.469 18.1625C147.444 18.1449 146.423 18.2926 145.446 18.6C144.687 18.8332 143.967 19.1767 143.308 19.6194L140.843 15.8896C141.613 15.2742 142.697 14.7098 144.096 14.1964C145.495 13.6831 147.26 13.4242 149.392 13.4198C151.909 13.4198 153.944 14.0688 155.498 15.3668C157.051 16.6647 157.827 18.5964 157.827 21.1617V32.0996L151.7 32.0974ZM151.468 25.4712V24.279C150.885 24.162 150.291 24.1099 149.696 24.1237C148.617 24.1237 147.821 24.3358 147.31 24.7602C147.071 24.9378 146.877 25.1688 146.743 25.4347C146.609 25.7005 146.54 25.994 146.54 26.2915C146.54 27.6289 147.258 28.2968 148.696 28.2954C149.371 28.2929 150.029 28.0845 150.582 27.6982C151.176 27.2986 151.472 26.5592 151.472 25.48L151.468 25.4712ZM161.531 32.0974V14.0017H167.809L168.028 16.2746C168.546 15.5526 169.193 14.9326 169.936 14.4458C170.758 13.9268 171.718 13.6655 172.69 13.6955C173.134 13.6906 173.577 13.7162 174.018 13.772C174.352 13.8109 174.681 13.8842 175 13.9908L174.16 19.545C173.542 19.3956 172.908 19.3221 172.272 19.3263C169.447 19.3263 168.035 20.8802 168.035 23.988V32.1149L161.531 32.0974Z" fill="white"/>
</svg>
