<svg xmlns="http://www.w3.org/2000/svg" viewBox="0 0 353.85 23.02"><g><g><path class="cls-1" fill="#fff" d="M51.59,17.35l-5.26-15a2.51,2.51,0,0,1-.16-.72A1.27,1.27,0,0,1,47.47.4a1.36,1.36,0,0,1,1.31,1.09l4.35,12.9L57.52,1.46A1.31,1.31,0,0,1,58.79.4h.13a1.39,1.39,0,0,1,1.35,1.06l4.35,12.93L69,1.42a1.27,1.27,0,0,1,1.24-1,1.24,1.24,0,0,1,1.27,1.21v0a2.89,2.89,0,0,1-.16.72l-5.3,15a1.53,1.53,0,0,1-1.4,1.2h-.1a1.44,1.44,0,0,1-1.41-1.2L58.86,4.63,54.5,17.35a1.44,1.44,0,0,1-1.4,1.2H53a1.54,1.54,0,0,1-1.44-1.2"/><path class="cls-1" fill="#fff" d="M89.91,1.7a1.29,1.29,0,1,1,2.58,0v3a7.07,7.07,0,0,1,6-4.34,1.25,1.25,0,0,1,1.27,1.23v.1A1.31,1.31,0,0,1,98.62,3c-3.36.41-6.11,3-6.11,8.1v6a1.29,1.29,0,0,1-1.25,1.33h0a1.29,1.29,0,0,1-1.31-1.29V1.7"/><path class="cls-1" fill="#fff" d="M108,18.69c-4.67,0-8.48-3.7-8.48-9.13V9.48c0-5.05,3.45-9.13,8.15-9.13,5,0,7.89,4.24,7.89,8.9a1.2,1.2,0,0,1-1.18,1.22H102.12c.35,3.8,3,5.94,6,5.94a6.81,6.81,0,0,0,4.89-2,1.16,1.16,0,0,1,.73-.3,1.12,1.12,0,0,1,1.12,1.12h0a1.18,1.18,0,0,1-.4.85A8.51,8.51,0,0,1,108,18.69m5-10.15c-.26-3.2-2-6-5.42-6-3,0-5.2,2.54-5.52,6Z"/><path class="cls-1" fill="#fff" d="M71.6,13.19v-.07c0-3.72,3-5.71,7.39-5.71a18.1,18.1,0,0,1,5.32.75V7.55c0-3.18-1.91-4.83-5.15-4.83a8.62,8.62,0,0,0-4,.81,1.23,1.23,0,0,1-.46.1A1.16,1.16,0,0,1,73.56,2.5a1.07,1.07,0,0,1,.7-1.09,11.22,11.22,0,0,1,5.2-1,7.48,7.48,0,0,1,5.58,2,7.11,7.11,0,0,1,1.77,5.16v9.76a1.25,1.25,0,0,1-1.18,1.3h-.06a1.2,1.2,0,0,1-1.23-1.17V15.65a7.5,7.5,0,0,1-6.25,3c-3.21,0-6.46-1.88-6.46-5.51m12.71-1.32V10.11a17.85,17.85,0,0,0-5.08-.75c-3.24,0-5,1.44-5,3.66v.07c0,2.22,2,3.52,4.35,3.52,3.17,0,5.78-2,5.78-4.79"/><path class="cls-1" fill="#fff" d="M4.73,1.51A2.41,2.41,0,0,0,1.58.21L1.46.26A2.47,2.47,0,0,0,.22,3.53a.59.59,0,0,0,0,.08l5.49,12.2c.86,1.91,1.77,2.91,3.48,2.91s2.62-1.09,3.48-2.91L17.55,5a.68.68,0,0,1,.68-.45.77.77,0,0,1,.76.78h0V15.79c0,1.61.87,2.93,2.55,2.93s2.58-1.32,2.58-2.93V7.26A2.6,2.6,0,0,1,26.6,4.55h.25A2.53,2.53,0,0,1,29.46,7a2.43,2.43,0,0,1,0,.27v8.53c0,1.61.88,2.93,2.55,2.93a2.62,2.62,0,0,0,2.6-2.65,2.53,2.53,0,0,0,0-.28V7.26a2.58,2.58,0,0,1,2.46-2.71h.26A2.53,2.53,0,0,1,39.94,7a2.62,2.62,0,0,1,0,.28v8.53c0,1.61.87,2.93,2.55,2.93s2.58-1.32,2.58-2.93V6.09A6,6,0,0,0,39.14,0h-.25A7.84,7.84,0,0,0,33.4,2.41,6,6,0,0,0,28.11,0c-2.76,0-5.18,2.39-5.18,2.39A6.13,6.13,0,0,0,18.31,0,5.66,5.66,0,0,0,12.73,3.9l-3.5,8.45L4.73,1.51"/><path class="cls-1" fill="#fff" d="M115.8,2.56h0a2.14,2.14,0,1,1,4.28,0h0a2.14,2.14,0,1,1-4.28,0h0m3.87,0h0A1.74,1.74,0,0,0,118,.76h0a1.77,1.77,0,0,0-1.74,1.79h0a1.74,1.74,0,1,0,3.47.26V2.55"/><path class="cls-1" fill="#fff" d="M117.12,1.69a.23.23,0,0,1,.22-.24h.73a.83.83,0,0,1,.6.22.66.66,0,0,1,.18.48h0a.64.64,0,0,1-.41.64l.31.39a.29.29,0,0,1,.07.18.22.22,0,0,1-.2.22h0a.29.29,0,0,1-.23-.12l-.44-.58h-.36v.47a.23.23,0,0,1-.46,0h0Zm.92.79c.22,0,.34-.12.34-.3h0c0-.19-.13-.3-.35-.3h-.45v.61Z"/><path class="cls-1" fill="#fff" d="M144.58,2.86h-5.94V.38h14.58V2.86h-6V18.52h-2.67Z"/><path class="cls-1" fill="#fff" d="M167.62,10.25v8.27H165V16.65a5.67,5.67,0,0,1-4.54,2.19c-2.9,0-5-1.69-5-4.36s2.45-4.54,5.46-4.54a12.91,12.91,0,0,1,4.12.74v-.43a3.22,3.22,0,0,0-2.85-3.54,3.64,3.64,0,0,0-.66,0,8.53,8.53,0,0,0-3.85,1.14l-1-1.93a11.43,11.43,0,0,1,5.18-1.37C165.58,4.55,167.62,6.87,167.62,10.25Zm-2.57,4V12.42a12.68,12.68,0,0,0-3.72-.53c-1.82,0-3.35,1-3.35,2.51s1.32,2.38,3,2.38,3.63-.85,4-2.54Z"/><path class="cls-1" fill="#fff" d="M183.47,9.83v8.69h-2.56V10.28A3.19,3.19,0,0,0,178,6.83h-.26A3.63,3.63,0,0,0,174,9.67v8.85H171.4V4.87H174v2a5.09,5.09,0,0,1,4.33-2.3,5,5,0,0,1,5.13,4.86C183.48,9.56,183.47,9.7,183.47,9.83Z"/><path class="cls-1" fill="#fff" d="M186.64,16.57l7.66-9.35h-7.5V4.87h10.94v2l-7.66,9.35h7.71v2.3H186.64Z"/><path class="cls-1" fill="#fff" d="M213,4.87V18.52h-2.62v-2a5.08,5.08,0,0,1-4.33,2.3A5,5,0,0,1,200.93,14c0-.14,0-.27,0-.41V4.87h2.56v8.24a3.17,3.17,0,0,0,2.86,3.45h.28a3.63,3.63,0,0,0,3.75-2.86V4.87Z"/><path class="cls-1" fill="#fff" d="M224.74.38H231c5.86,0,10,3.75,10,9s-4.18,9.09-10,9.09h-6.26Zm6.42,15.71c4.2,0,7.13-2.75,7.13-6.66s-2.93-6.63-7.13-6.63h-3.75V16.09Z"/><path class="cls-1" fill="#fff" d="M254.64,15l1.64,1.7a8.27,8.27,0,0,1-5.52,2.11,7,7,0,0,1-7-7v-.19a6.85,6.85,0,0,1,6.59-7.1h.23c4.17,0,6.58,3.17,6.58,8.05H246.38a4.31,4.31,0,0,0,4.35,3.91A5.93,5.93,0,0,0,254.64,15Zm-8.24-4.51h8.19a3.8,3.8,0,0,0-3.93-3.65,4.29,4.29,0,0,0-4.26,3.66Z"/><path class="cls-1" fill="#fff" d="M258.85,4.87h2.82l4.26,10.61L270.1,4.87h2.83l-5.76,13.65h-2.46Z"/><path class="cls-1" fill="#fff" d="M284.68,15l1.64,1.7a8.27,8.27,0,0,1-5.52,2.11,7,7,0,0,1-7-7v-.19a6.85,6.85,0,0,1,6.59-7.1h.23c4.17,0,6.58,3.17,6.58,8.05H276.42a4.31,4.31,0,0,0,4.35,3.91A5.93,5.93,0,0,0,284.68,15Zm-8.24-4.51h8.19a3.8,3.8,0,0,0-3.94-3.65,4.28,4.28,0,0,0-4.25,3.66Z"/><path class="cls-1" fill="#fff" d="M290.21,0h2.59v18.5h-2.59Z"/><path class="cls-1" fill="#fff" d="M295.86,11.68a7.19,7.19,0,0,1,14.37,0,7.19,7.19,0,0,1-14.37,0Zm11.75,0a4.57,4.57,0,1,0-9.13-.43,3.09,3.09,0,0,0,0,.43,4.58,4.58,0,1,0,9.13,0Z"/><path class="cls-1" fill="#fff" d="M327.16,11.68c0,4.2-2.69,7.16-6.28,7.16a5.52,5.52,0,0,1-4.86-2.7V23h-2.59V4.87H316V7.22a5.56,5.56,0,0,1,4.86-2.67C324.47,4.55,327.16,7.51,327.16,11.68Zm-2.64,0c0-2.85-1.77-4.86-4.28-4.86s-4.22,2-4.22,4.86,1.77,4.89,4.22,4.89,4.28-2,4.28-4.89Z"/><path class="cls-1" fill="#fff" d="M340.51,15l1.64,1.7a8.29,8.29,0,0,1-5.53,2.11,7,7,0,0,1-7-7v-.19a6.85,6.85,0,0,1,6.59-7.1h.22c4.18,0,6.58,3.17,6.58,8.05H332.24a4.33,4.33,0,0,0,4.36,3.91A6,6,0,0,0,340.51,15Zm-8.24-4.51h8.18a3.8,3.8,0,0,0-3.93-3.65,4.28,4.28,0,0,0-4.25,3.66Z"/><path class="cls-1" fill="#fff" d="M353.85,4.55V6.82c-2.83,0-4.83,1.56-5.07,3.93v7.77h-2.62V4.87h2.62V7.48A5.38,5.38,0,0,1,353.85,4.55Z"/></g></g></svg>