<svg width="147" height="106" viewBox="0 0 147 106" fill="none" xmlns="http://www.w3.org/2000/svg">
<path d="M147 63.6151L109.304 41.8947L118.387 36.6154C118.69 36.4646 118.993 36.0121 118.993 35.5596V12.6325C118.993 12.18 118.841 11.8783 118.387 11.7275C118.236 11.7275 118.236 11.7275 118.084 11.7275L98.1009 0.113127C97.7982 -0.037709 97.344 -0.037709 96.8898 0.113127L77.0577 11.7275C76.9063 11.7275 76.9063 11.8783 76.7549 12.0292L76.6035 12.18C76.6035 12.3308 76.6035 12.3308 76.6035 12.4817C76.6035 12.6325 76.6035 12.6325 76.6035 12.7834V23.191L73.2729 21.381L56.0144 31.1853V24.3977C56.0144 23.9452 55.863 23.6435 55.4089 23.4927C55.2575 23.4927 55.2575 23.4927 55.1061 23.4927L35.2739 11.7275C34.9712 11.5767 34.517 11.5767 34.0628 11.7275L14.2307 23.3419C14.0793 23.3419 14.0793 23.4927 13.9279 23.6435C13.9279 23.6435 13.7765 23.6435 13.7765 23.7944C13.7765 23.9452 13.7765 23.9452 13.6251 24.0961V24.2469V47.174C13.6251 47.6265 13.7765 47.9281 14.2307 48.2298L20.4377 51.8499L0 63.6151L38.6045 85.788V88.503C38.6045 88.9555 38.7559 89.2572 39.2101 89.5589L59.1936 101.022C59.345 101.173 59.4964 101.173 59.7992 101.173H59.9506C60.102 101.173 60.4047 101.173 60.5561 101.022L62.827 99.6649L73.8785 106L97.7981 92.1231L108.093 98.1565L144.426 77.0395L134.132 71.1569L147 63.6151ZM79.9341 12.6325L97.6468 2.37567L115.511 12.6325L97.7981 22.8894L88.2606 17.3084C88.1092 17.4593 79.9341 12.6325 79.9341 12.6325ZM78.723 24.3977V14.5934L87.0494 19.2693L96.587 24.6994V34.3529V44.9114L78.723 34.9562V26.9619V24.3977ZM16.9557 24.2469L34.6684 13.99L52.3811 24.2469L34.8198 34.5037L25.2822 28.9228L16.9557 24.2469ZM15.896 26.2078L26.1905 32.2412L33.6087 36.4646V46.7215V56.8275L24.828 51.8499L22.7085 50.4924L15.896 46.5706V26.2078ZM40.724 86.9947V84.4305V67.5368L44.3574 69.4977L58.5881 77.6428V94.5365V98.0057L40.724 87.7488V86.9947ZM41.9351 65.576L59.6478 55.3191L77.3605 65.576L59.6478 75.8328L44.8115 67.386L41.9351 65.576ZM80.9938 74.0228L107.639 58.6375L129.439 71.1569L97.6468 89.5589L80.9938 80.0562V74.0228ZM73.7271 103.436L64.9464 98.4582L80.3883 89.5589C80.691 89.408 80.9938 88.9555 80.9938 88.503V82.6204L95.3759 90.9164L73.7271 103.436ZM139.733 77.0395L107.941 95.4415L99.9176 90.9164L131.71 72.3636L139.733 77.0395ZM107.639 55.9224L80.9938 71.4586V65.4251C80.9938 64.9726 80.8424 64.6709 80.3883 64.3693C80.2369 64.3693 80.2369 64.3693 80.0855 64.3693L60.102 52.9057C59.7992 52.7549 59.345 52.7549 58.8908 52.9057L38.9073 64.3693C38.7559 64.3693 38.7559 64.5201 38.7559 64.5201L38.6045 64.6709C38.6045 64.8218 38.4531 64.8218 38.4531 64.9726C38.4531 65.1234 38.4531 65.1234 38.4531 65.2743V82.9221L4.39032 63.3134L22.7085 53.0566L34.0628 59.8442C34.2142 59.995 34.3656 59.995 34.6684 59.995H34.8198C34.9712 59.995 35.2739 59.995 35.4253 59.8442L55.4089 48.2298C55.7116 48.079 56.0144 47.6265 56.0144 47.174V33.7496L73.2729 23.7944L76.4521 25.6044V35.5596C76.4521 36.0121 76.6035 36.3138 77.0577 36.6154L97.0412 48.079C97.1926 48.2298 97.344 48.2298 97.6468 48.2298H97.7981C97.9495 48.2298 98.2523 48.2298 98.4037 48.079L107.033 43.1014L142.458 63.4642L131.71 69.7994L107.639 55.9224Z" fill="white"/>
</svg>
