<svg xmlns="http://www.w3.org/2000/svg" viewBox="0 0 105 124.2"><g id="Layer_2" data-name="Layer 2"><g id="Layer_1-2" data-name="Layer 1"><circle cx="52.5" cy="66.2" r="52.5" fill="#fff"/><path d="M57.7,111.8h0a5,5,0,0,1-5,5h0a5,5,0,0,1-5-5h0a5,5,0,0,1,5-5h0A5,5,0,0,1,57.7,111.8Z" fill="#62bb46"/><path d="M52.5,13.7A52.49,52.49,0,0,0,0,66.2a51.78,51.78,0,0,0,14.3,35.9h0a56.25,56.25,0,0,0,4.4,4.1l3.6-9.8a42.23,42.23,0,0,1-4.7-5.6h0a42.77,42.77,0,1,1,70.2-.5,46.49,46.49,0,0,1-4.9,5.9l3.6,9.8a47.82,47.82,0,0,0,4.6-4.4A52.45,52.45,0,0,0,52.5,13.7Z" fill="#727175"/><path d="M82.9,96.3,59.6,32.6l-3.3,1.2L55.7,31l-1.2.2,14.8,74.3a42.93,42.93,0,0,1-14,3.4,28.1,28.1,0,0,1-2.9.1,19.27,19.27,0,0,1-2.4-.1,43.36,43.36,0,0,1-14.4-3.4L50.4,31.2,49.2,31l-.6,2.8-3.2-1.2L22,96.4l-3.6,9.8a12.67,12.67,0,0,0,1.3,1.1v-.1h0v.1h0c.7.6,1.5,1.1,2.3,1.7,1.2.8,2.4,1.6,3.7,2.4h0a52.26,52.26,0,0,0,26.6,7.3,53,53,0,0,0,27.1-7.5h0a40.47,40.47,0,0,0,3.4-2.3,23.48,23.48,0,0,0,2.5-1.9c.4-.3.7-.6,1.1-.9ZM29,102l-3.3-2.4,22-59.9L34.6,105.1A38.07,38.07,0,0,1,29,102Zm47.4-.3h0a34.18,34.18,0,0,1-5.9,3.3L57.4,39.1,79.5,99.5C78.5,100.2,77.5,101,76.4,101.7Z" fill="#00438c"/><polygon points="52.7 7.8 44.4 12 42.2 21 48 28.3 57.2 28.3 63.1 20.9 61 12 52.7 7.8" fill="#fff"/><path d="M57.6,18.4h0a5,5,0,0,1-5,5h0a5,5,0,0,1-5-5h0a5,5,0,0,1,5-5h0A5,5,0,0,1,57.6,18.4Z" fill="#62bb46"/><path d="M70.7,22.6,67.1,7.2,52.7,0,38.4,7.1,34.6,22.6,44.7,35.3H49v69.2h7V35.3h4.6ZM48,28.3,42.2,21l2.2-9,8.3-4.1L61,12l2.1,9-5.9,7.3Z" fill="#009cdc"/><path d="M51.7,108.3a5,5,0,1,0,5.7,4.2A5,5,0,0,0,51.7,108.3Z" fill="#fff"/><path d="M63.3,111.6a11,11,0,0,0-12.5-9.3h0a11,11,0,0,0,1.6,21.9,8.6,8.6,0,0,0,1.6-.1A11,11,0,0,0,63.3,111.6Zm-10.1,6.5a5,5,0,1,1,4.2-5.7A5,5,0,0,1,53.2,118.1Z" fill="#62bb46"/></g></g></svg>