<?xml version="1.0" encoding="utf-8"?>
<!-- Generator: Adobe Illustrator 25.4.1, SVG Export Plug-In . SVG Version: 6.00 Build 0)  -->
<svg version="1.1" id="Layer_1" xmlns="http://www.w3.org/2000/svg" xmlns:xlink="http://www.w3.org/1999/xlink" x="0px" y="0px"
	 viewBox="0 0 63.1 63" style="enable-background:new 0 0 63.1 63;" xml:space="preserve">
<style type="text/css">
	.st0{fill:#FFFFFF;}
</style>
<g id="Layer_2_00000071530629141637013500000001291483912455534985_">
	<g id="svg29">
		<path id="path55" class="st0" d="M57.2,45.3c-7.8,10.3-24.3,6.8-35,7.3c0,0-1.9,0.1-3.8,0.4c0,0,0.7-0.3,1.6-0.6
			c7.5-2.6,11-3.1,15.5-5.4c8.5-4.4,17-13.9,18.7-23.8c-3.2,9.5-13.1,17.7-22.1,21C26.1,46.6,15,48.8,15,48.8l-0.4-0.2
			c-7.6-3.7-7.8-20.1,6-25.3c6-2.3,11.8-1,18.3-2.6c6.9-1.6,15-6.9,18.2-13.6C60.7,17.8,65.1,34.8,57.2,45.3z M57.4,3.6
			c-0.9,2.1-2,4.1-3.4,5.9C42-3,22.1-3.5,9.5,8.5s-13,31.9-1,44.5c0.5,0.5,1,1,1.6,1.5l0.7,0.6c-1.2-0.9-1.3-2.6-0.4-3.8
			c0.9-1.2,2.6-1.3,3.8-0.4s1.3,2.6,0.4,3.8c0,0,0,0,0,0c-0.9,1.1-2.6,1.3-3.8,0.4l0.5,0.4c13.3,11.2,33.1,9.5,44.3-3.7
			c4.3-5.1,6.9-11.4,7.3-18.1C63.8,25.8,61.4,15.6,57.4,3.6"/>
	</g>
</g>
</svg>
