<?xml version="1.0" encoding="utf-8"?>
<!-- Generator: Adobe Illustrator 26.0.1, SVG Export Plug-In . SVG Version: 6.00 Build 0)  -->
<svg version="1.1" id="Layer_1" xmlns="http://www.w3.org/2000/svg" xmlns:xlink="http://www.w3.org/1999/xlink" x="0px" y="0px"
	 viewBox="0 0 133.2 133.2" style="enable-background:new 0 0 133.2 133.2;" xml:space="preserve">
<style type="text/css">
	.st0{fill:#000000;}
</style>
<path class="st0" d="M89.7,110L78.9,81.7c-1-2.6,0.3-5.6,2.9-6.6c0.8-0.3,1.7-0.4,2.6-0.3l30.2,4.5L89.7,110z"/>
<path class="st0" d="M103.9,33.8L79,50.5c-2.4,1.6-5.6,0.9-7.2-1.5c-0.5-0.7-0.7-1.5-0.8-2.4l-2.3-30L103.9,33.8z"/>
<path class="st0" d="M54.1,81.7L43.3,110L18.8,79l29.9-4.2c2.8-0.4,5.3,1.6,5.7,4.4C54.5,80,54.4,80.9,54.1,81.7z"/>
<path class="st0" d="M46.1,65.9L18,74.6l9.2-37.1l21,19.9c2,2,2.1,5.2,0.1,7.2C47.7,65.2,46.9,65.7,46.1,65.9z"/>
<path class="st0" d="M115.6,74.8L87,66.2c-2.7-0.8-4.3-3.7-3.4-6.4c0.3-0.9,0.8-1.7,1.4-2.3l21.7-20.2L115.6,74.8z"/>
<path class="st0" d="M64.3,16.8l-2.6,29.4c-0.3,2.8-2.7,4.9-5.6,4.7c-0.9-0.1-1.7-0.4-2.4-0.9L29.9,33.8L64.3,16.8z"/>
<path class="st0" d="M47.4,111.9l14.8-25.7c1.4-2.4,4.5-3.3,6.9-1.9c0.8,0.4,1.4,1.1,1.9,1.9l14.8,25.7L47.4,111.9z"/>
<path class="st0" d="M66.6,0C29.8,0,0,29.8,0,66.6s29.8,66.6,66.6,66.6s66.6-29.8,66.6-66.6C133.2,29.8,103.4,0,66.6,0
	C66.6,0,66.6,0,66.6,0z M66.8,124.4c-32.1,0-58.1-26-58.1-58.1s26-58.1,58.1-58.1s58.1,26,58.1,58.1l0,0
	C124.9,98.4,98.9,124.4,66.8,124.4C66.8,124.4,66.8,124.4,66.8,124.4z"/>
</svg>
