<svg xmlns="http://www.w3.org/2000/svg" viewBox="0 0 400 400"><polygon points="185.978 5.651 185.978 23.401 64.778 81.771 50.868 70.711 185.978 5.651" fill="#00c1d5"/><polygon points="346.098 70.721 332.188 81.771 210.978 23.401 210.978 5.651 346.098 70.721" fill="#00c1d5"/><polygon points="49.168 101.301 19.228 232.481 1.908 236.471 35.278 90.261 49.168 101.301" fill="#1d428a"/><polygon points="108.668 362.061 100.978 378.081 7.478 260.841 24.768 256.851 108.668 362.061" fill="#78be20"/><polygon points="254.448 388.931 123.498 388.931 131.188 372.931 226.748 372.931 254.448 388.931" fill="#00c1d5"/><polygon points="395.968 240.511 384.948 234.141 377.068 229.591 347.788 101.311 361.678 90.271 395.048 236.471 395.968 240.511" fill="#1d428a"/><polygon points="342.888 209.851 323.978 198.941 308.768 132.311 305.658 118.671 293.258 112.701 210.978 73.071 198.478 67.051 185.978 73.071 103.708 112.701 91.308 118.671 88.198 132.311 67.888 221.261 64.828 234.651 73.568 245.611 130.388 316.861 138.998 327.651 181.878 327.651 181.878 343.651 131.298 343.651 122.698 332.871 56.288 249.591 47.518 238.601 50.568 225.251 74.298 121.271 77.418 107.601 89.788 101.641 185.978 55.321 198.478 49.301 210.978 55.321 307.178 101.641 319.548 107.601 322.668 121.271 342.888 209.851" fill="#0091da"/><path d="M334.268,257.631l-14.01-8.1-13.39-7.73-.01-.01h-.01l-2.22-1.28-.95.55-52.52,30.32v61.74l15.69,9.05,16.45,9.5,9.1,5.25,12.23,7.06,4.81-2.78h.01l48.64-28.08v-61.74Zm-37.64,83.26-19.69-11.37-5.91-3.41h-.01l-3.86-2.23v-34.06l29.47,16.94Zm8.18-47.88-29.62-17.03,29.44-17,5.54,3.2,14.02,8.1,9.92,5.73Zm37.28,30.87-5.33,3.08h-.01l-24.12,13.93v-33.92l29.46-17.08Z" fill="#1d428a"/><polygon points="397.678 276.001 397.678 355.291 327.008 396.041 327.038 395.991 311.028 386.791 381.678 346.051 381.678 266.811 383.768 268.011 397.678 276.001" fill="#1d428a"/><polygon points="296.978 218.121 270.458 233.401 236.028 253.261 227.808 258.001 227.808 338.961 211.808 329.761 211.808 248.761 229.078 238.801 247.578 228.131 279.368 209.801 280.938 208.901 284.608 211.011 296.978 218.121" fill="#1d428a"/></svg>