<svg width="208" height="67" viewBox="0 0 208 67" fill="none" xmlns="http://www.w3.org/2000/svg">
<path d="M179.242 38.3764C176.166 38.3764 173.164 38.9063 170.463 39.8146C168.062 17.4094 149.302 0 126.49 0C105.48 0 87.9207 14.7602 83.4184 34.5918H77.1902C59.4811 34.5918 45.1488 49.0492 45.1488 66.9127H207.607C207.532 51.1686 194.85 38.3764 179.242 38.3764Z" fill="white"/>
<path d="M1.49677 66.61C1.49677 53.906 11.7374 43.5759 24.3316 43.5759C25.0949 43.5759 25.8581 43.6401 26.6214 43.7043" stroke="white" stroke-width="2" stroke-miterlimit="10" stroke-linejoin="round"/>
<path d="M26.2397 43.8325C26.2397 29.2037 38.007 17.3337 52.5093 17.3337C64.849 17.3337 75.1533 25.8673 78.0156 37.4805" stroke="white" stroke-width="2" stroke-miterlimit="10" stroke-linejoin="round"/>
</svg>
