<?xml version="1.0" encoding="utf-8"?>
<!-- Generator: Adobe Illustrator 26.0.1, SVG Export Plug-In . SVG Version: 6.00 Build 0)  -->
<svg version="1.1" id="Layer_1" xmlns="http://www.w3.org/2000/svg" xmlns:xlink="http://www.w3.org/1999/xlink" x="0px" y="0px"
	 viewBox="0 0 105 124.2" style="enable-background:new 0 0 105 124.2;" xml:space="preserve">
<style type="text/css">
	.st0{fill:#FFFFFF;}
	.st1{fill:#62BB46;}
	.st2{fill:#727175;}
	.st3{fill:#00438C;}
	.st4{fill:#009CDC;}
</style>
<circle class="st0" cx="51.5" cy="65.5" r="48.3"/>
<path class="st1" d="M57.7,111.8L57.7,111.8c0,2.8-2.2,5-5,5l0,0c-2.8,0-5-2.2-5-5l0,0c0-2.8,2.2-5,5-5l0,0
	C55.5,106.8,57.7,109,57.7,111.8z"/>
<path class="st2" d="M52.5,13.7C23.5,13.7,0,37.2,0,66.2l0,0c0,13.4,5.1,26.2,14.3,35.9l0,0c1.4,1.4,2.9,2.8,4.4,4.1l3.6-9.8
	c-1.7-1.7-3.3-3.6-4.7-5.6l0,0C4,71.5,8.5,44.8,27.8,31.2s46-9.1,59.6,10.2C97.8,56,97.9,75.5,87.8,90.3c-1.5,2.1-3.1,4.1-4.9,5.9
	l3.6,9.8c1.6-1.4,3.2-2.8,4.6-4.4c19.6-21.3,18.1-54.5-3.2-74.1C78.2,18.6,65.6,13.7,52.5,13.7z"/>
<path class="st3" d="M82.9,96.3L59.6,32.6l-3.3,1.2L55.7,31l-1.2,0.2l14.8,74.3c-4.4,1.9-9.2,3.1-14,3.4c-1,0.1-1.9,0.1-2.9,0.1
	c-0.8,0-1.6,0-2.4-0.1c-5-0.3-9.8-1.5-14.4-3.4l14.8-74.3L49.2,31l-0.6,2.8l-3.2-1.2L22,96.4l-3.6,9.8c0.4,0.4,0.8,0.8,1.3,1.1v-0.1
	l0,0v0.1l0,0c0.7,0.6,1.5,1.1,2.3,1.7c1.2,0.8,2.4,1.6,3.7,2.4l0,0c8.1,4.8,17.2,7.3,26.6,7.3c9.5,0,18.9-2.6,27.1-7.5l0,0
	c1.2-0.7,2.3-1.5,3.4-2.3c0.9-0.6,1.7-1.2,2.5-1.9c0.4-0.3,0.7-0.6,1.1-0.9L82.9,96.3z M29,102l-3.3-2.4l22-59.9l-13.1,65.4
	C32.6,104.2,30.8,103.2,29,102z M76.4,101.7L76.4,101.7c-1.9,1.3-3.8,2.4-5.9,3.3L57.4,39.1l22.1,60.4
	C78.5,100.2,77.5,101,76.4,101.7z"/>
<polygon class="st0" points="52.7,7.8 44.4,12 42.2,21 48,28.3 57.2,28.3 63.1,20.9 61,12 "/>
<path class="st1" d="M57.6,18.4L57.6,18.4c0,2.8-2.2,5-5,5l0,0c-2.8,0-5-2.2-5-5l0,0c0-2.8,2.2-5,5-5l0,0
	C55.4,13.4,57.6,15.6,57.6,18.4z"/>
<path class="st4" d="M70.7,22.6L67.1,7.2L52.7,0L38.4,7.1l-3.8,15.5l10.1,12.7H49v69.2h7V35.3h4.6L70.7,22.6z M48,28.3L42.2,21
	l2.2-9l8.3-4.1L61,12l2.1,9l-5.9,7.3H48z"/>
<path class="st0" d="M51.7,108.3c-2.7,0.4-4.6,3-4.2,5.7s3,4.6,5.7,4.2s4.6-3,4.2-5.7C57,109.8,54.4,107.9,51.7,108.3L51.7,108.3z"
	/>
<path class="st1" d="M63.3,111.6c-0.9-6-6.5-10.2-12.5-9.3l0,0l0,0c-6,0.8-10.2,6.4-9.4,12.4c0.7,5.5,5.5,9.6,11,9.5
	c0.5,0,1.1,0,1.6-0.1C60,123.2,64.2,117.6,63.3,111.6L63.3,111.6z M53.2,118.1c-2.7,0.4-5.3-1.5-5.7-4.2s1.5-5.3,4.2-5.7
	c2.7-0.4,5.3,1.5,5.7,4.2C57.8,115.1,55.9,117.7,53.2,118.1L53.2,118.1z"/>
</svg>
