<svg xmlns="http://www.w3.org/2000/svg" viewBox="0 0 20 25">
  <g>
    <path d="M19,5H16.2A2.79,2.79,0,0,0,17,3a3,3,0,0,0-3-3,7.1,7.1,0,0,0-4,2.1A7.1,7.1,0,0,0,6,0,3,3,0,0,0,3,3a2.79,2.79,0,0,0,.8,2H1A.94.94,0,0,0,0,6V8.8A.22.22,0,0,0,.2,9H8.6A.43.43,0,0,0,9,8.6V5.4A.43.43,0,0,1,9.4,5h1.2a.43.43,0,0,1,.4.4V8.6a.43.43,0,0,0,.4.4h8.4a.22.22,0,0,0,.2-.2V6A.94.94,0,0,0,19,5ZM6,4A.94.94,0,0,1,5,3,.94.94,0,0,1,6,2,7,7,0,0,1,8.9,3.8C8.6,3.9,6,4,6,4Zm8,0s-2.6-.1-2.9-.2A6.6,6.6,0,0,1,14,2a.94.94,0,0,1,1,1A.94.94,0,0,1,14,4Z" style="fill: #78be20"/>
    <path d="M8.6,11H1.2a.22.22,0,0,0-.2.2V19a.94.94,0,0,0,1,1H8.6a.43.43,0,0,0,.4-.4V11.4A.43.43,0,0,0,8.6,11Z" style="fill: #78be20"/>
    <path d="M18.8,11H11.4a.43.43,0,0,0-.4.4v8.2a.43.43,0,0,0,.4.4H18a.94.94,0,0,0,1-1V11.2A.22.22,0,0,0,18.8,11Z" style="fill: #78be20"/>
  </g>
</svg>
