<svg xmlns="http://www.w3.org/2000/svg" viewBox="0 0 46 46">
  <rect width="46" height="46" rx="3" style="fill: #1d428a"/>
  <g>
    <path d="M16,30.55a9.8,9.8,0,0,1-.1-15l-1.61-1.9a12.26,12.26,0,0,0-1.74,16.93Z" style="fill: #fff"/>
    <path d="M37.23,28.4l-1.77,1.77L38.1,32.8H33a14.66,14.66,0,0,1-3,2.5H38.1l-2.64,2.63,1.77,1.77,5.65-5.65Z" style="fill: #fff"/>
    <path d="M34.58,23a12.32,12.32,0,0,0-12.3-12.3h-.87L23.6,8.52l.45-.45L22.28,6.3,20.13,8.45,18.4,10.18,16.63,12l1.77,1.77,1.73,1.73,2.15,2.15,1.77-1.77-.22-.22L21.41,13.2h.87a9.8,9.8,0,0,1,0,19.6H6.09v2.5H22.28a12.14,12.14,0,0,0,3.88-.64A12.36,12.36,0,0,0,34.58,23Z" style="fill: #fff"/>
  </g>
</svg>
