<?xml version="1.0" encoding="UTF-8" standalone="no"?>
<!-- Created with Inkscape (http://www.inkscape.org/) -->

<svg
   xmlns:dc="http://purl.org/dc/elements/1.1/"
   xmlns:cc="http://creativecommons.org/ns#"
   xmlns:rdf="http://www.w3.org/1999/02/22-rdf-syntax-ns#"
   xmlns:svg="http://www.w3.org/2000/svg"
   xmlns="http://www.w3.org/2000/svg"
   xmlns:xlink="http://www.w3.org/1999/xlink"
   xmlns:sodipodi="http://sodipodi.sourceforge.net/DTD/sodipodi-0.dtd"
   xmlns:inkscape="http://www.inkscape.org/namespaces/inkscape"
   version="1.0"
   width="46"
   height="46"
   id="svg2"
   sodipodi:version="0.32"
   inkscape:version="0.92.5 (2060ec1f9f, 2020-04-08)"
   sodipodi:docname="python-logo-small.svg">
  <metadata
     id="metadata2193">
    <rdf:RDF>
      <cc:Work
         rdf:about="">
        <dc:format>image/svg+xml</dc:format>
        <dc:type
           rdf:resource="http://purl.org/dc/dcmitype/StillImage" />
        <dc:title></dc:title>
      </cc:Work>
    </rdf:RDF>
  </metadata>
  <sodipodi:namedview
     inkscape:window-height="1376"
     inkscape:window-width="3440"
     inkscape:pageshadow="2"
     inkscape:pageopacity="0.0"
     borderopacity="1.0"
     bordercolor="#666666"
     pagecolor="#ffffff"
     id="base"
     inkscape:zoom="22.944142"
     inkscape:cx="29.811484"
     inkscape:cy="23.295811"
     inkscape:window-x="0"
     inkscape:window-y="27"
     inkscape:current-layer="g2303"
     showgrid="false"
     inkscape:window-maximized="1"
     units="px"
     showguides="true"
     inkscape:guide-bbox="true" />
  <defs
     id="defs4">
    <linearGradient
       id="linearGradient2795">
      <stop
         style="stop-color:#b8b8b8;stop-opacity:0.49803922"
         offset="0"
         id="stop2797" />
      <stop
         style="stop-color:#7f7f7f;stop-opacity:0"
         offset="1"
         id="stop2799" />
    </linearGradient>
    <linearGradient
       id="linearGradient2787">
      <stop
         style="stop-color:#7f7f7f;stop-opacity:0.5"
         offset="0"
         id="stop2789" />
      <stop
         style="stop-color:#7f7f7f;stop-opacity:0"
         offset="1"
         id="stop2791" />
    </linearGradient>
    <linearGradient
       id="linearGradient3676">
      <stop
         style="stop-color:#b2b2b2;stop-opacity:0.5"
         offset="0"
         id="stop3678" />
      <stop
         style="stop-color:#b3b3b3;stop-opacity:0"
         offset="1"
         id="stop3680" />
    </linearGradient>
    <linearGradient
       id="linearGradient3236">
      <stop
         style="stop-color:#f4f4f4;stop-opacity:1"
         offset="0"
         id="stop3244" />
      <stop
         style="stop-color:#ffffff;stop-opacity:1"
         offset="1"
         id="stop3240" />
    </linearGradient>
    <linearGradient
       id="linearGradient4671">
      <stop
         style="stop-color:#ffd43b;stop-opacity:1"
         offset="0"
         id="stop4673" />
      <stop
         style="stop-color:#ffe873;stop-opacity:1"
         offset="1"
         id="stop4675" />
    </linearGradient>
    <linearGradient
       id="linearGradient4689">
      <stop
         style="stop-color:#5a9fd4;stop-opacity:1"
         offset="0"
         id="stop4691" />
      <stop
         style="stop-color:#306998;stop-opacity:1"
         offset="1"
         id="stop4693" />
    </linearGradient>
    <linearGradient
       x1="224.23996"
       y1="144.75717"
       x2="-65.308502"
       y2="144.75717"
       id="linearGradient2987"
       xlink:href="#linearGradient4671"
       gradientUnits="userSpaceOnUse"
       gradientTransform="translate(100.2702,99.61116)" />
    <linearGradient
       x1="172.94208"
       y1="77.475983"
       x2="26.670298"
       y2="76.313133"
       id="linearGradient2990"
       xlink:href="#linearGradient4689"
       gradientUnits="userSpaceOnUse"
       gradientTransform="translate(100.2702,99.61116)" />
    <linearGradient
       x1="172.94208"
       y1="77.475983"
       x2="26.670298"
       y2="76.313133"
       id="linearGradient2587"
       xlink:href="#linearGradient4689"
       gradientUnits="userSpaceOnUse"
       gradientTransform="translate(100.2702,99.61116)" />
    <linearGradient
       x1="224.23996"
       y1="144.75717"
       x2="-65.308502"
       y2="144.75717"
       id="linearGradient2589"
       xlink:href="#linearGradient4671"
       gradientUnits="userSpaceOnUse"
       gradientTransform="translate(100.2702,99.61116)" />
    <linearGradient
       x1="172.94208"
       y1="77.475983"
       x2="26.670298"
       y2="76.313133"
       id="linearGradient2248"
       xlink:href="#linearGradient4689"
       gradientUnits="userSpaceOnUse"
       gradientTransform="translate(100.2702,99.61116)" />
    <linearGradient
       x1="224.23996"
       y1="144.75717"
       x2="-65.308502"
       y2="144.75717"
       id="linearGradient2250"
       xlink:href="#linearGradient4671"
       gradientUnits="userSpaceOnUse"
       gradientTransform="translate(100.2702,99.61116)" />
    <linearGradient
       x1="224.23996"
       y1="144.75717"
       x2="-65.308502"
       y2="144.75717"
       id="linearGradient2255"
       xlink:href="#linearGradient4671"
       gradientUnits="userSpaceOnUse"
       gradientTransform="matrix(0.562541,0,0,0.567972,-11.5974,-7.60954)" />
    <linearGradient
       x1="172.94208"
       y1="76.176224"
       x2="26.670298"
       y2="76.313133"
       id="linearGradient2258"
       xlink:href="#linearGradient4689"
       gradientUnits="userSpaceOnUse"
       gradientTransform="matrix(0.562541,0,0,0.567972,-11.5974,-7.60954)" />
    <radialGradient
       cx="61.518883"
       cy="132.28575"
       r="29.036913"
       fx="61.518883"
       fy="132.28575"
       id="radialGradient2801"
       xlink:href="#linearGradient2795"
       gradientUnits="userSpaceOnUse"
       gradientTransform="matrix(1,0,0,0.177966,0,108.7434)" />
    <linearGradient
       x1="150.96111"
       y1="192.35176"
       x2="112.03144"
       y2="137.27299"
       id="linearGradient1475"
       xlink:href="#linearGradient4671"
       gradientUnits="userSpaceOnUse"
       gradientTransform="matrix(0.21083612,0,0,0.21287162,-3.3960479,104.57739)" />
    <linearGradient
       x1="26.648937"
       y1="20.603781"
       x2="135.66525"
       y2="114.39767"
       id="linearGradient1478"
       xlink:href="#linearGradient4689"
       gradientUnits="userSpaceOnUse"
       gradientTransform="matrix(0.21083612,0,0,0.21287162,-3.3960479,104.57739)" />
    <radialGradient
       cx="61.518883"
       cy="132.28575"
       r="29.036913"
       fx="61.518883"
       fy="132.28575"
       id="radialGradient1480"
       xlink:href="#linearGradient2795"
       gradientUnits="userSpaceOnUse"
       gradientTransform="matrix(2.382716e-8,-0.296405,1.43676,4.683673e-7,-128.544,150.5202)" />
  </defs>
  <g
     id="g2303"
     transform="translate(0,-107.3598)">
    <path
       id="path1948"
       style="fill:url(#linearGradient1478);fill-opacity:1;stroke-width:0.37479246"
       d="m 22.805657,108.96369 c -1.717919,0.008 -3.358493,0.1545 -4.802029,0.40993 -4.252476,0.75127 -5.02456,2.32375 -5.024561,5.22367 v 3.82991 H 23.02819 v 1.27664 H 12.979067 9.207718 c -2.9205551,0 -5.4778756,1.75541 -6.2777737,5.09483 -0.9226715,3.82774 -0.9635963,6.21632 0,10.2131 0.7143272,2.97504 2.4202386,5.09484 5.3407927,5.09484 h 3.455118 v -4.59122 c 0,-3.31687 2.869839,-6.24263 6.277773,-6.24263 h 10.03741 c 2.794059,0 5.024563,-2.30054 5.024562,-5.10655 v -9.56892 c 0,-2.72337 -2.29747,-4.76915 -5.024562,-5.22367 -1.726288,-0.28736 -3.517463,-0.41791 -5.235381,-0.40993 z m -5.434491,3.08032 c 1.038006,0 1.885674,0.86152 1.885674,1.92081 0,1.05555 -0.847668,1.90911 -1.885674,1.90911 -1.041726,0 -1.885675,-0.85356 -1.885675,-1.90911 0,-1.05929 0.843949,-1.92081 1.885675,-1.92081 z"
       inkscape:connector-curvature="0" />
    <path
       id="path1950"
       style="fill:url(#linearGradient1475);fill-opacity:1;stroke-width:0.37479246"
       d="m 34.318812,119.70384 v 4.46237 c 0,3.45962 -2.933087,6.37148 -6.277774,6.37148 h -10.03741 c -2.749414,0 -5.02456,2.35313 -5.024561,5.10654 v 9.56892 c 0,2.72336 2.368159,4.32522 5.024561,5.10654 3.180988,0.93534 6.231389,1.10438 10.03741,0 2.529908,-0.73249 5.024563,-2.20663 5.024562,-5.10654 v -3.82991 H 23.02819 v -1.27663 h 10.03741 5.024563 c 2.920555,0 4.008873,-2.03716 5.024557,-5.09484 1.049168,-3.14785 1.004527,-6.175 0,-10.2131 -0.721767,-2.90743 -2.100288,-5.09483 -5.024557,-5.09483 z m -5.645311,24.23267 c 1.041727,1e-5 1.885674,0.85356 1.885674,1.9091 -1e-6,1.0593 -0.843948,1.92081 -1.885674,1.92081 -1.038006,0 -1.885675,-0.86151 -1.885675,-1.92081 2e-6,-1.05554 0.847668,-1.9091 1.885675,-1.9091 z"
       inkscape:connector-curvature="0" />
    <text
       xml:space="preserve"
       style="font-style:normal;font-weight:normal;font-size:3.7099967px;line-height:1.25;font-family:sans-serif;letter-spacing:0px;word-spacing:0px;fill:#666666;fill-opacity:1;stroke:none;stroke-width:0.09274992"
       x="38.77071"
       y="111.60623"
       id="text476"><tspan
         sodipodi:role="line"
         id="tspan474"
         x="38.77071"
         y="111.60623"
         style="fill:#666666;stroke-width:0.09274992">TM</tspan></text>
  </g>
</svg>
