<?xml version="1.0" encoding="utf-8"?>
<!-- Generator: Adobe Illustrator 25.2.3, SVG Export Plug-In . SVG Version: 6.00 Build 0)  -->
<svg version="1.1" id="Layer_1" xmlns="http://www.w3.org/2000/svg" xmlns:xlink="http://www.w3.org/1999/xlink" x="0px" y="0px"
	 viewBox="0 0 46 46" style="enable-background:new 0 0 46 46;" xml:space="preserve">
<style type="text/css">
	.st0{fill:#FFFFFF;}
	.st1{fill:#17242C;}
</style>
<path class="st0" d="M3,0h40c1.7,0,3,1.3,3,3v40c0,1.7-1.3,3-3,3H3c-1.7,0-3-1.3-3-3V3C0,1.3,1.3,0,3,0z"/>
<polygon class="st1" points="30.6,9.6 15.4,9.6 7.8,22.8 15.4,36 23.8,36 23.8,33 17.1,33 11.2,22.8 17.1,12.6 28.9,12.6 34.8,22.8 
	27.1,36 30.6,36 38.2,22.8 "/>
</svg>
