<?xml version="1.0" encoding="UTF-8" standalone="no"?>
<!-- Created with Inkscape (http://www.inkscape.org/) -->

<svg
   xmlns:dc="http://purl.org/dc/elements/1.1/"
   xmlns:cc="http://creativecommons.org/ns#"
   xmlns:rdf="http://www.w3.org/1999/02/22-rdf-syntax-ns#"
   xmlns:svg="http://www.w3.org/2000/svg"
   xmlns="http://www.w3.org/2000/svg"
   xmlns:xlink="http://www.w3.org/1999/xlink"
   xmlns:sodipodi="http://sodipodi.sourceforge.net/DTD/sodipodi-0.dtd"
   xmlns:inkscape="http://www.inkscape.org/namespaces/inkscape"
   version="1.0"
   width="46"
   height="46"
   id="svg2"
   sodipodi:version="0.32"
   inkscape:version="0.92.5 (2060ec1f9f, 2020-04-08)"
   sodipodi:docname="python-logo-square.svg">
  <metadata
     id="metadata2193">
    <rdf:RDF>
      <cc:Work
         rdf:about="">
        <dc:format>image/svg+xml</dc:format>
        <dc:type
           rdf:resource="http://purl.org/dc/dcmitype/StillImage" />
        <dc:title></dc:title>
      </cc:Work>
    </rdf:RDF>
  </metadata>
  <sodipodi:namedview
     inkscape:window-height="1376"
     inkscape:window-width="3440"
     inkscape:pageshadow="2"
     inkscape:pageopacity="0.0"
     borderopacity="1.0"
     bordercolor="#666666"
     pagecolor="#ffffff"
     id="base"
     inkscape:zoom="22.944142"
     inkscape:cx="5.4994054"
     inkscape:cy="23.059162"
     inkscape:window-x="0"
     inkscape:window-y="27"
     inkscape:current-layer="g2303"
     showgrid="false"
     inkscape:window-maximized="1"
     inkscape:snap-grids="false"
     units="px"
     inkscape:pagecheckerboard="true"
     showguides="true"
     inkscape:guide-bbox="true">
    <sodipodi:guide
       position="23.01241,47.070838"
       orientation="1,0"
       id="guide108"
       inkscape:locked="false" />
    <sodipodi:guide
       position="-64.06864,22.925241"
       orientation="0,1"
       id="guide110"
       inkscape:locked="false" />
  </sodipodi:namedview>
  <defs
     id="defs4">
    <linearGradient
       id="linearGradient2795">
      <stop
         style="stop-color:#b8b8b8;stop-opacity:0.49803922"
         offset="0"
         id="stop2797" />
      <stop
         style="stop-color:#7f7f7f;stop-opacity:0"
         offset="1"
         id="stop2799" />
    </linearGradient>
    <linearGradient
       id="linearGradient2787">
      <stop
         style="stop-color:#7f7f7f;stop-opacity:0.5"
         offset="0"
         id="stop2789" />
      <stop
         style="stop-color:#7f7f7f;stop-opacity:0"
         offset="1"
         id="stop2791" />
    </linearGradient>
    <linearGradient
       id="linearGradient3676">
      <stop
         style="stop-color:#b2b2b2;stop-opacity:0.5"
         offset="0"
         id="stop3678" />
      <stop
         style="stop-color:#b3b3b3;stop-opacity:0"
         offset="1"
         id="stop3680" />
    </linearGradient>
    <linearGradient
       id="linearGradient3236">
      <stop
         style="stop-color:#f4f4f4;stop-opacity:1"
         offset="0"
         id="stop3244" />
      <stop
         style="stop-color:#ffffff;stop-opacity:1"
         offset="1"
         id="stop3240" />
    </linearGradient>
    <linearGradient
       id="linearGradient4671">
      <stop
         style="stop-color:#ffd43b;stop-opacity:1"
         offset="0"
         id="stop4673" />
      <stop
         style="stop-color:#ffe873;stop-opacity:1"
         offset="1"
         id="stop4675" />
    </linearGradient>
    <linearGradient
       id="linearGradient4689">
      <stop
         style="stop-color:#5a9fd4;stop-opacity:1"
         offset="0"
         id="stop4691" />
      <stop
         style="stop-color:#306998;stop-opacity:1"
         offset="1"
         id="stop4693" />
    </linearGradient>
    <linearGradient
       x1="224.23996"
       y1="144.75717"
       x2="-65.308502"
       y2="144.75717"
       id="linearGradient2987"
       xlink:href="#linearGradient4671"
       gradientUnits="userSpaceOnUse"
       gradientTransform="translate(100.2702,99.61116)" />
    <linearGradient
       x1="172.94208"
       y1="77.475983"
       x2="26.670298"
       y2="76.313133"
       id="linearGradient2990"
       xlink:href="#linearGradient4689"
       gradientUnits="userSpaceOnUse"
       gradientTransform="translate(100.2702,99.61116)" />
    <linearGradient
       x1="172.94208"
       y1="77.475983"
       x2="26.670298"
       y2="76.313133"
       id="linearGradient2587"
       xlink:href="#linearGradient4689"
       gradientUnits="userSpaceOnUse"
       gradientTransform="translate(100.2702,99.61116)" />
    <linearGradient
       x1="224.23996"
       y1="144.75717"
       x2="-65.308502"
       y2="144.75717"
       id="linearGradient2589"
       xlink:href="#linearGradient4671"
       gradientUnits="userSpaceOnUse"
       gradientTransform="translate(100.2702,99.61116)" />
    <linearGradient
       x1="172.94208"
       y1="77.475983"
       x2="26.670298"
       y2="76.313133"
       id="linearGradient2248"
       xlink:href="#linearGradient4689"
       gradientUnits="userSpaceOnUse"
       gradientTransform="translate(100.2702,99.61116)" />
    <linearGradient
       x1="224.23996"
       y1="144.75717"
       x2="-65.308502"
       y2="144.75717"
       id="linearGradient2250"
       xlink:href="#linearGradient4671"
       gradientUnits="userSpaceOnUse"
       gradientTransform="translate(100.2702,99.61116)" />
    <linearGradient
       x1="224.23996"
       y1="144.75717"
       x2="-65.308502"
       y2="144.75717"
       id="linearGradient2255"
       xlink:href="#linearGradient4671"
       gradientUnits="userSpaceOnUse"
       gradientTransform="matrix(0.562541,0,0,0.567972,-11.5974,-7.60954)" />
    <linearGradient
       x1="172.94208"
       y1="76.176224"
       x2="26.670298"
       y2="76.313133"
       id="linearGradient2258"
       xlink:href="#linearGradient4689"
       gradientUnits="userSpaceOnUse"
       gradientTransform="matrix(0.562541,0,0,0.567972,-11.5974,-7.60954)" />
    <radialGradient
       cx="61.518883"
       cy="132.28575"
       r="29.036913"
       fx="61.518883"
       fy="132.28575"
       id="radialGradient2801"
       xlink:href="#linearGradient2795"
       gradientUnits="userSpaceOnUse"
       gradientTransform="matrix(1,0,0,0.177966,0,108.7434)" />
    <linearGradient
       x1="150.96111"
       y1="192.35176"
       x2="112.03144"
       y2="137.27299"
       id="linearGradient1475"
       xlink:href="#linearGradient4671"
       gradientUnits="userSpaceOnUse"
       gradientTransform="matrix(0.19164198,0,0,0.19349217,-1.0062028,107.35179)" />
    <linearGradient
       x1="26.648937"
       y1="20.603781"
       x2="135.66525"
       y2="114.39767"
       id="linearGradient1478"
       xlink:href="#linearGradient4689"
       gradientUnits="userSpaceOnUse"
       gradientTransform="matrix(0.19164198,0,0,0.19349217,-1.0062028,107.35179)" />
    <radialGradient
       cx="61.518883"
       cy="132.28575"
       r="29.036913"
       fx="61.518883"
       fy="132.28575"
       id="radialGradient1480"
       xlink:href="#linearGradient2795"
       gradientUnits="userSpaceOnUse"
       gradientTransform="matrix(2.382716e-8,-0.296405,1.43676,4.683673e-7,-128.544,150.5202)" />
  </defs>
  <g
     id="g2303"
     transform="translate(0,-107.35978)">
    <rect
       style="fill:#666666;stroke-width:0.4245407"
       id="rect48"
       width="46.060219"
       height="46.025642"
       x="0.043579042"
       y="107.4071"
       ry="4.6182361" />
    <path
       id="path1948"
       style="fill:url(#linearGradient1478);fill-opacity:1;stroke-width:0.34067205"
       d="m 22.810153,111.33876 c -1.561518,0.006 -3.052746,0.14046 -4.36488,0.37262 -3.865339,0.68288 -4.567136,2.11219 -4.567136,4.7481 v 3.48125 h 9.134273 v 1.16042 h -9.134273 -3.428012 c -2.6546748,0 -4.979164,1.59562 -5.7062333,4.63101 -0.8386951,3.47927 -0.8758742,5.65038 0,9.28332 0.6492962,2.70421 2.1998862,4.63102 4.8545617,4.63102 H 12.73904 v -4.17326 c 0,-3.01491 2.608558,-5.67431 5.706233,-5.67431 h 9.123643 c 2.539695,0 4.567138,-2.09111 4.567138,-4.64165 v -8.6978 c 0,-2.47544 -2.08832,-4.33498 -4.567138,-4.7481 -1.569149,-0.26133 -3.197245,-0.37987 -4.758763,-0.37262 z m -4.939758,2.79991 c 0.94352,0 1.714005,0.78308 1.714005,1.74593 0,0.95947 -0.770485,1.7353 -1.714005,1.7353 -0.946878,0 -1.714006,-0.77583 -1.714006,-1.7353 0,-0.96285 0.767128,-1.74593 1.714006,-1.74593 z"
       inkscape:connector-curvature="0" />
    <path
       id="path1950"
       style="fill:url(#linearGradient1475);fill-opacity:1;stroke-width:0.34067205"
       d="m 33.275151,121.10115 v 4.05613 c 0,3.14467 -2.66605,5.79141 -5.706235,5.79141 h -9.123643 c -2.499099,0 -4.567136,2.13892 -4.567136,4.64167 v 8.69778 c 0,2.47543 2.15258,3.93147 4.567136,4.64165 2.89141,0.85018 5.664096,1.00383 9.123643,0 2.299575,-0.66582 4.567138,-2.00575 4.567138,-4.64165 v -3.48126 H 23.01241 v -1.16038 h 9.123644 4.567138 c 2.654675,0 3.643898,-1.85171 4.567107,-4.63102 0.953677,-2.86126 0.913083,-5.61284 0,-9.28332 -0.656037,-2.64273 -1.909076,-4.63101 -4.567107,-4.63101 z m -5.131356,22.02657 c 0.946877,0 1.714005,0.77586 1.714005,1.73529 0,0.96286 -0.767128,1.74597 -1.714005,1.74597 -0.943521,0 -1.714005,-0.78311 -1.714005,-1.74597 0,-0.95943 0.770484,-1.73529 1.714005,-1.73529 z"
       inkscape:connector-curvature="0" />
    <path
       id="text3004"
       style="font-style:normal;font-weight:normal;font-size:15.16445827px;line-height:125%;font-family:'Bitstream Vera Sans';fill:#cccccc;fill-opacity:1;stroke:none;stroke-width:0.20524678px;stroke-linecap:butt;stroke-linejoin:miter;stroke-opacity:1"
       d="m 34.176564,120.07018 h 0.320595 v -2.01064 h 0.759437 v -0.23964 h -1.839469 v 0.23964 h 0.759437 v 2.01064 m 1.364279,0 h 0.273794 v -1.83636 l 0.594478,1.83612 h 0.304945 l 0.619452,-1.82988 v 1.83012 h 0.298798 v -2.25031 h -0.395279 l -0.676973,1.92787 -0.577343,-1.92787 h -0.441961 v 2.25031"
       inkscape:connector-curvature="0" />
  </g>
</svg>
