<svg id="Calque_1" data-name="Calque 1" xmlns="http://www.w3.org/2000/svg" viewBox="0 0 500 500"><defs><style>.cls-1{fill:#00c1d5;}.cls-2,.cls-3{fill:#fff;}.cls-3{stroke:#fff;stroke-miterlimit:10;}</style></defs><rect class="cls-1" x="0.47" y="0.32" width="500" height="500" rx="20.02"/><polygon class="cls-2" points="182.54 137.07 244.06 96.64 244.06 177.5 182.54 137.07"/><path class="cls-2" d="M243.56,97.57v79l-60.11-39.5,60.11-39.5m1-1.85-1.55,1-60.11,39.5-1.27.84,1.27.84L243,177.41l1.55,1V95.72Z"/><path class="cls-3" d="M467.25,358.93l-60.11-39.5v27.11h-89.3a123,123,0,0,0-74-221.24v24.78A98.34,98.34,0,0,1,342,252.19c-2,51-43.29,92.29-94.27,94.27a98.23,98.23,0,0,1-62.13-177.25l-21.81-14.33a123,123,0,0,0,6.09,191.66H66a12.39,12.39,0,0,0,0,24.78H407.14v27.11Z"/></svg>