<?xml version="1.0" encoding="utf-8"?>
<!-- Generator: Adobe Illustrator 25.2.3, SVG Export Plug-In . SVG Version: 6.00 Build 0)  -->
<svg version="1.1" id="Layer_1" xmlns="http://www.w3.org/2000/svg" xmlns:xlink="http://www.w3.org/1999/xlink" x="0px" y="0px"
	 viewBox="0 0 46 46" style="enable-background:new 0 0 46 46;" xml:space="preserve">
<style type="text/css">
	.st0{fill:#FFFFFF;}
	.st1{fill:#17242C;}
</style>
<path class="st0" d="M3,0h40c1.7,0,3,1.3,3,3v40c0,1.7-1.3,3-3,3H3c-1.7,0-3-1.3-3-3V3C0,1.3,1.3,0,3,0z"/>
<g>
	<path class="st1" d="M22.5,7.9c1.8-0.1,3.6,0.3,5.1,1.3c0.7,0.5,1.1,1.3,1.2,2.2v8.2c0,1.1-0.9,2.1-2.1,2.1h-8.3
		c-1.4,0-2.6,0.8-3.2,2.1C15,24,15,24.3,14.9,24.5c0,0.2-0.1,0.5-0.1,0.7V28h-3.4c-0.9,0-1.8-0.4-2.4-1.2c-0.9-1.3-1.3-2.8-1.2-4.3
		C7.7,21,8.1,19.4,9,18.2c0.5-0.8,1.4-1.2,2.4-1.2h11.7v-2.4h-6.9v-3.1c0-0.9,0.5-1.7,1.2-2.2C18.9,8.2,20.7,7.7,22.5,7.9 M22.4,5.4
		c-2.4-0.1-4.7,0.5-6.6,1.9c-1.3,1-2.1,2.5-2.1,4.1v3h-2.3c-1.7,0-3.3,0.8-4.3,2.1c-1.2,1.7-1.8,3.8-1.7,5.9
		c-0.1,2.1,0.5,4.2,1.7,5.9c1,1.4,2.6,2.2,4.3,2.1h3.4c1.4,0,2.5-1.1,2.5-2.5v-2.8c0-0.1,0-0.1,0-0.2l0,0c0-0.1,0-0.1,0.1-0.2
		c0.2-0.4,0.5-0.6,0.9-0.6h8.3c2.5,0,4.6-2.1,4.6-4.6l0,0v-8.2c0-1.6-0.8-3.2-2.1-4.2C27.1,5.9,24.8,5.2,22.4,5.4L22.4,5.4z"/>
	<circle class="st1" cx="19.4" cy="11.8" r="1.4"/>
	<path class="st1" d="M34.5,18.1c0.9,0,1.8,0.4,2.4,1.2c0.9,1.3,1.3,2.8,1.2,4.4c0.1,1.5-0.3,3.1-1.2,4.3c-0.5,0.8-1.4,1.2-2.4,1.2
		H22.9v2.4h6.9v3.1c0,0.9-0.5,1.7-1.2,2.2c-1.5,1-3.3,1.5-5.1,1.3c-1.8,0.1-3.6-0.3-5.1-1.3c-0.7-0.5-1.1-1.3-1.2-2.2v-8.2
		c0-0.1,0-0.3,0-0.4c0.2-1,1-1.6,2-1.7h8.3c1.9,0,3.5-1.6,3.5-3.5v-2.8H34.5 M34.5,15.6h-3.4c-1.4,0-2.5,1.1-2.5,2.5v2.8
		c0,0.6-0.4,1-1,1h-8.3c-2.2,0-4,1.5-4.5,3.7c-0.1,0.3-0.1,0.6-0.1,0.9v8.2c0,1.6,0.8,3.2,2.1,4.1c1.9,1.4,4.3,2,6.6,1.9
		c2.4,0.1,4.7-0.5,6.6-1.9c1.3-1,2.1-2.5,2.1-4.1v-3h2.3c1.7,0,3.3-0.8,4.3-2.1c1.2-1.7,1.8-3.8,1.7-5.9c0.1-2.1-0.5-4.2-1.7-5.9
		C37.9,16.3,36.2,15.5,34.5,15.6L34.5,15.6z"/>
	<circle class="st1" cx="26.2" cy="33.8" r="1.4"/>
</g>
</svg>
