<svg xmlns="http://www.w3.org/2000/svg" viewBox="0 0 960 60">
  <rect width="960" height="60"/>
  <g>
    <path d="M592.58,13.25H426.32a17,17,0,1,0,0,34.09H592.58a17,17,0,1,0,0-34.09Zm15.28,17a15.29,15.29,0,0,1-15.28,15.28H426.32a15.28,15.28,0,0,1,0-30.55H592.58A15.29,15.29,0,0,1,607.86,30.29Z" style="fill: #fff"/>
    <path d="M429.33,28.54c-2.58-.61-3.19-1.07-3.19-2.1v0c0-.87.81-1.58,2.18-1.58a5.53,5.53,0,0,1,3.07,1,1.12,1.12,0,0,0,1.71-.91,1.05,1.05,0,0,0-.51-.94,7.36,7.36,0,0,0-4.23-1.24c-2.65,0-4.56,1.58-4.56,3.87v0c0,2.46,1.6,3.3,4.44,4,2.48.57,3,1.08,3,2v0c0,1-.92,1.68-2.37,1.68A5.78,5.78,0,0,1,425.15,33a1.13,1.13,0,0,0-1.79.88,1.08,1.08,0,0,0,.46.89,8.28,8.28,0,0,0,5,1.68c2.81,0,4.77-1.49,4.77-4v0C433.6,30.24,432.15,29.22,429.33,28.54Z" style="fill: #fff"/>
    <path d="M440.88,26a4,4,0,0,0-3.43,1.89v-.63a1.16,1.16,0,1,0-2.31,0v11a1.16,1.16,0,0,0,2.31,0V34.72a4.13,4.13,0,0,0,3.43,1.77c2.39,0,4.68-1.89,4.68-5.22v0C445.56,27.87,443.25,26,440.88,26Zm2.33,5.27a3,3,0,0,1-2.88,3.22,3,3,0,0,1-2.93-3.22v0A3,3,0,0,1,440.33,28a3,3,0,0,1,2.88,3.23Z" style="fill: #fff"/>
    <path d="M451.83,26.08a3.21,3.21,0,0,0-2.54,2.21v-1a1.15,1.15,0,0,0-1.16-1.16A1.13,1.13,0,0,0,447,27.26v8a1.14,1.14,0,0,0,1.14,1.15,1.15,1.15,0,0,0,1.16-1.15v-3c0-2.39,1.13-3.65,2.77-3.93a1.09,1.09,0,0,0,.91-1.11A1.07,1.07,0,0,0,451.83,26.08Z" style="fill: #fff"/>
    <path d="M455.19,22.38a1.18,1.18,0,0,0-1.32,1.12v.12a1.33,1.33,0,0,0,2.63,0V23.5A1.18,1.18,0,0,0,455.19,22.38Z" style="fill: #fff"/>
    <path d="M455.19,26.1A1.14,1.14,0,0,0,454,27.26v8a1.16,1.16,0,0,0,2.31,0v-8A1.15,1.15,0,0,0,455.19,26.1Z" style="fill: #fff"/>
    <path d="M463.86,26a3.62,3.62,0,0,0-3.14,1.76v-.5a1.16,1.16,0,0,0-1.17-1.16,1.13,1.13,0,0,0-1.14,1.16v8a1.14,1.14,0,0,0,1.14,1.15,1.15,1.15,0,0,0,1.17-1.15V30.6A2.24,2.24,0,0,1,463,28.1c1.37,0,2.15.9,2.15,2.46v4.67a1.15,1.15,0,0,0,1.16,1.15,1.13,1.13,0,0,0,1.15-1.15V29.85C467.45,27.53,466.13,26,463.86,26Z" style="fill: #fff"/>
    <path d="M478,26.1a1.14,1.14,0,0,0-1.14,1.14v.48A4.33,4.33,0,0,0,473.34,26a4.54,4.54,0,0,0-4.58,4.73v0a4.53,4.53,0,0,0,4.58,4.71,4.22,4.22,0,0,0,3.55-1.85v.78c0,2-1.13,3.09-3.19,3.09a6.23,6.23,0,0,1-3.09-.8.84.84,0,0,0-.42-.1,1,1,0,0,0-1,1,.94.94,0,0,0,.65.91,8.72,8.72,0,0,0,3.89.9A5.7,5.7,0,0,0,477.9,38a5.16,5.16,0,0,0,1.28-3.8v-7A1.16,1.16,0,0,0,478,26.1Zm-1.1,4.65a2.82,2.82,0,0,1-3,2.77,2.75,2.75,0,0,1-2.86-2.77v0A2.72,2.72,0,0,1,474,28a2.81,2.81,0,0,1,3,2.76Z" style="fill: #fff"/>
    <path d="M487.79,22.7a6.84,6.84,0,0,0-7,6.91v0a7,7,0,0,0,13.95,0v0A6.78,6.78,0,0,0,487.79,22.7Zm4.5,6.94a4.5,4.5,0,0,1-4.5,4.7,4.55,4.55,0,0,1-4.53-4.73v0a4.51,4.51,0,0,1,4.5-4.71,4.56,4.56,0,0,1,4.53,4.75Z" style="fill: #fff"/>
    <path d="M501.83,26a3.65,3.65,0,0,0-3.15,1.76v-.5a1.16,1.16,0,1,0-2.31,0v8a1.16,1.16,0,0,0,2.31,0V30.6A2.24,2.24,0,0,1,501,28.1c1.37,0,2.16.9,2.16,2.46v4.67a1.14,1.14,0,0,0,1.16,1.15,1.12,1.12,0,0,0,1.14-1.15V29.85C505.41,27.53,504.1,26,501.83,26Z" style="fill: #fff"/>
    <path d="M511.61,26a5,5,0,0,0-4.92,5.25v0a5,5,0,0,0,5.17,5.23,5.16,5.16,0,0,0,3.62-1.34,1,1,0,0,0,.31-.7.91.91,0,0,0-.92-.94.88.88,0,0,0-.59.21,3.59,3.59,0,0,1-2.38.88,2.81,2.81,0,0,1-2.9-2.55h6.31A1.08,1.08,0,0,0,516.4,31,4.76,4.76,0,0,0,511.61,26ZM509,30.54a2.73,2.73,0,0,1,2.61-2.65,2.62,2.62,0,0,1,2.56,2.65Z" style="fill: #fff"/>
    <path d="M528.11,22.93H524a1.17,1.17,0,0,0-1.19,1.18v11.1a1.18,1.18,0,0,0,2.35,0V32h2.65c2.94,0,5.34-1.56,5.34-4.56v0C533.18,24.71,531.23,22.93,528.11,22.93Zm2.68,4.56c0,1.39-1.1,2.38-2.88,2.38h-2.72v-4.8h2.72c1.76,0,2.88.82,2.88,2.38Z" style="fill: #fff"/>
    <path d="M535.64,22.26a1.14,1.14,0,0,0-1.15,1.15V35.23a1.16,1.16,0,0,0,2.31,0V23.41A1.15,1.15,0,0,0,535.64,22.26Z" style="fill: #fff"/>
    <path d="M542.87,26.08a8.73,8.73,0,0,0-3.25.59,1,1,0,0,0-.63.91,1,1,0,0,0,1,1,1.23,1.23,0,0,0,.36-.06,5.92,5.92,0,0,1,2.23-.4c1.62,0,2.5.76,2.5,2.19v.25a8.38,8.38,0,0,0-2.71-.42c-2.46,0-4.16,1.07-4.16,3.24v0c0,2,1.68,3.11,3.57,3.11A4.11,4.11,0,0,0,545,35v.38a1,1,0,0,0,1.12,1,1.11,1.11,0,0,0,1.13-1.11v-5a4.18,4.18,0,0,0-1.09-3.11A4.51,4.51,0,0,0,542.87,26.08Zm2.23,6.58c0,1.27-1.17,2.15-2.69,2.15-1.11,0-2-.55-2-1.52v0c0-1,.88-1.68,2.37-1.68a6.4,6.4,0,0,1,2.29.4Z" style="fill: #fff"/>
    <path d="M553.6,28.19a1,1,0,1,0,0-2h-1.81V24.5a1.16,1.16,0,0,0-2.31,0v1.71h-.38a1,1,0,0,0,0,2h.38V33.5c0,2.21,1.2,3,2.9,3a4.36,4.36,0,0,0,1.58-.27,1,1,0,0,0,.61-.89,1,1,0,0,0-1-.95c-.07,0-.3,0-.57,0a1.1,1.1,0,0,1-1.24-1.26V28.19Z" style="fill: #fff"/>
    <path d="M560.47,26.29h-1.8v-.55c0-1,.46-1.53,1.34-1.53a3.43,3.43,0,0,1,.47,0,1,1,0,0,0,.18-1.91,6.55,6.55,0,0,0-1.17-.09,3,3,0,0,0-2.27.8,3.41,3.41,0,0,0-.82,2.48v.74H556a1,1,0,0,0-1,1,1,1,0,0,0,1,1h.4v7a1.16,1.16,0,0,0,2.31,0v-7h1.76a1,1,0,1,0,0-1.9Z" style="fill: #fff"/>
    <path d="M566.74,26a5.27,5.27,0,0,0-5.38,5.27v0a5.37,5.37,0,0,0,10.74,0v0A5.22,5.22,0,0,0,566.74,26Zm3,5.3a3,3,0,0,1-3,3.19,3.11,3.11,0,0,1-3.07-3.22v0a3,3,0,0,1,3-3.21,3.12,3.12,0,0,1,3.09,3.25Z" style="fill: #fff"/>
    <path d="M578.33,26.08a3.18,3.18,0,0,0-2.53,2.21v-1a1.16,1.16,0,0,0-1.17-1.16,1.14,1.14,0,0,0-1.14,1.16v8a1.14,1.14,0,0,0,1.14,1.15,1.16,1.16,0,0,0,1.17-1.15v-3c0-2.39,1.12-3.65,2.76-3.93a1.09,1.09,0,0,0,.92-1.11A1.07,1.07,0,0,0,578.33,26.08Z" style="fill: #fff"/>
    <path d="M592.2,26a4.05,4.05,0,0,0-3.4,1.78,3.19,3.19,0,0,0-3-1.78,3.6,3.6,0,0,0-3.07,1.74v-.48a1.15,1.15,0,0,0-1.16-1.16,1.14,1.14,0,0,0-1.15,1.16v8a1.16,1.16,0,0,0,2.31,0V30.6a2.2,2.2,0,0,1,2.15-2.5c1.28,0,2,.88,2,2.44v4.69a1.15,1.15,0,0,0,1.17,1.15,1.14,1.14,0,0,0,1.14-1.15V30.6c0-1.62.9-2.5,2.16-2.5s2,.86,2,2.46v4.67a1.14,1.14,0,0,0,1.16,1.15,1.12,1.12,0,0,0,1.14-1.15V29.85C595.72,27.39,594.39,26,592.2,26Z" style="fill: #fff"/>
  </g>
  <g>
    <path d="M143.05,22.67h6.06c2.15,0,3.66,1.3,3.66,3.1A3,3,0,0,1,151,28.51a3.55,3.55,0,0,1,2.27,3.17c0,2-1.64,3.36-3.94,3.36h-6.3Zm5.52,5.06a1.58,1.58,0,1,0,0-3.11h-3.29v3.11Zm.33,5.37a1.79,1.79,0,1,0,0-3.53h-3.62V33.1Z" style="fill: #80ea6e"/>
    <path d="M163.92,25.73V35h-2.2V33.8a3.48,3.48,0,0,1-2.88,1.46,3.39,3.39,0,0,1-3.46-3.6V25.73h2.13v5.49a2,2,0,0,0,2,2.17,2.21,2.21,0,0,0,2.25-1.77V25.73Z" style="fill: #80ea6e"/>
    <path d="M166.27,23.07a1.25,1.25,0,0,1,2.5,0,1.25,1.25,0,1,1-2.5,0Zm.14,2.66h2.2V35h-2.2Z" style="fill: #80ea6e"/>
    <path d="M171.1,22.46h2.19V35H171.1Z" style="fill: #80ea6e"/>
    <path d="M185,22.46V35h-2.2V33.6a3.81,3.81,0,0,1-3.22,1.66c-2.47,0-4.27-2-4.27-4.88s1.8-4.86,4.27-4.86a3.82,3.82,0,0,1,3.22,1.65V22.46Zm-2.2,7.92a2.71,2.71,0,0,0-2.63-3,2.74,2.74,0,0,0-2.68,3,2.76,2.76,0,0,0,2.68,3A2.73,2.73,0,0,0,182.84,30.38Z" style="fill: #80ea6e"/>
    <path d="M192.45,37.8l.47-1.59a2.64,2.64,0,0,0,1.19.34,1.25,1.25,0,0,0,1.19-.61l.39-.83-3.94-9.38h2.32l2.72,7,2.56-6.95h2.27l-4,10c-.7,1.76-1.78,2.58-3.18,2.59A4.54,4.54,0,0,1,192.45,37.8Z" style="fill: #80ea6e"/>
    <path d="M202.3,30.38a5,5,0,1,1,5,4.88A5,5,0,0,1,202.3,30.38Zm7.81,0a2.84,2.84,0,1,0-2.82,3A2.95,2.95,0,0,0,210.11,30.38Z" style="fill: #80ea6e"/>
    <path d="M222.67,25.73V35h-2.2V33.8a3.46,3.46,0,0,1-2.88,1.46,3.39,3.39,0,0,1-3.45-3.6V25.73h2.12v5.49a2,2,0,0,0,2,2.17,2.2,2.2,0,0,0,2.25-1.77V25.73Z" style="fill: #80ea6e"/>
    <path d="M230.71,25.52v1.87c-2,0-3.33,1.19-3.33,2.95V35h-2.2V25.73h2.2v1.8A3.55,3.55,0,0,1,230.71,25.52Z" style="fill: #80ea6e"/>
    <path d="M247.18,30.38c0,2.86-1.8,4.88-4.27,4.88a3.82,3.82,0,0,1-3.24-1.69v4.57h-2.2V25.73h2.2v1.48a3.82,3.82,0,0,1,3.24-1.69C245.38,25.52,247.18,27.53,247.18,30.38Zm-2.18,0a2.74,2.74,0,0,0-2.68-3,2.71,2.71,0,0,0-2.63,3,2.73,2.73,0,0,0,2.63,3A2.76,2.76,0,0,0,245,30.38Z" style="fill: #80ea6e"/>
    <path d="M257.1,29.44V35H255V33.93A3.82,3.82,0,0,1,252,35.26c-2,0-3.48-1.17-3.48-3s1.71-3.1,3.8-3.1a7.5,7.5,0,0,1,2.61.5v-.25a2,2,0,0,0-2.28-2.12,5.61,5.61,0,0,0-2.52.7l-.76-1.53a8.34,8.34,0,0,1,3.71-1A3.7,3.7,0,0,1,257.1,29.44ZM255,32.13V31.08a7.17,7.17,0,0,0-2.28-.36c-1.1,0-2,.61-2,1.5s.77,1.44,1.81,1.44A2.42,2.42,0,0,0,255,32.13Z" style="fill: #80ea6e"/>
    <path d="M264.52,34.52a3.16,3.16,0,0,1-2,.74,2.55,2.55,0,0,1-2.63-2.68v-5h-1.35V25.73h1.35V23.18h2.14v2.55h2.11v1.82h-2.11v4.76a1,1,0,0,0,.92,1.08,1.33,1.33,0,0,0,.92-.35Z" style="fill: #80ea6e"/>
    <path d="M274.71,29.12V35h-2.13V29.55a2,2,0,0,0-2-2.16,2.16,2.16,0,0,0-2.27,2V35h-2.2V22.46h2.2V27a3.5,3.5,0,0,1,6.36,2.11Z" style="fill: #80ea6e"/>
    <path d="M277.08,33.82a1.42,1.42,0,1,1,1.44,1.44A1.41,1.41,0,0,1,277.08,33.82Z" style="fill: #80ea6e"/>
    <path d="M293.05,28.24h5.27v5a7.05,7.05,0,0,1-4.91,2,6.56,6.56,0,0,1-6.54-6.41,6.54,6.54,0,0,1,6.54-6.39,7,7,0,0,1,4.91,2L296.72,26a4.53,4.53,0,0,0-3.31-1.44,4.35,4.35,0,0,0,0,8.7,4.8,4.8,0,0,0,2.72-.89V30.07h-3.08Z" style="fill: #80ea6e"/>
    <path d="M307.55,32.38l1.39,1.44a5.66,5.66,0,0,1-3.78,1.44,4.8,4.8,0,0,1-4.86-4.9A4.7,4.7,0,0,1,305,25.52c2.89,0,4.56,2.18,4.56,5.61h-7a2.59,2.59,0,0,0,2.57,2.18A3.65,3.65,0,0,0,307.55,32.38Zm-5-2.92h4.89a2.31,2.31,0,0,0-2.36-2A2.57,2.57,0,0,0,302.59,29.46Z" style="fill: #80ea6e"/>
    <path d="M316.51,34.52a3.16,3.16,0,0,1-2,.74,2.55,2.55,0,0,1-2.63-2.68v-5h-1.35V25.73h1.35V23.18h2.15v2.55h2.1v1.82h-2.1v4.76a1,1,0,0,0,.91,1.08,1.33,1.33,0,0,0,.92-.35Z" style="fill: #80ea6e"/>
    <path d="M328.59,34.52a3.16,3.16,0,0,1-2,.74A2.55,2.55,0,0,1,324,32.58v-5h-1.35V25.73H324V23.18h2.14v2.55h2.11v1.82h-2.11v4.76a1,1,0,0,0,.92,1.08A1.33,1.33,0,0,0,328,33Z" style="fill: #80ea6e"/>
    <path d="M329.48,30.38a5,5,0,1,1,5,4.88A5,5,0,0,1,329.48,30.38Zm7.82,0a2.84,2.84,0,1,0-2.83,3A3,3,0,0,0,337.3,30.38Z" style="fill: #80ea6e"/>
    <path d="M356.22,30.38c0,2.86-1.8,4.88-4.27,4.88a3.82,3.82,0,0,1-3.24-1.69v4.57h-2.2V25.73h2.2v1.48A3.82,3.82,0,0,1,352,25.52C354.42,25.52,356.22,27.53,356.22,30.38Zm-2.18,0a2.68,2.68,0,1,0-5.32,0,2.68,2.68,0,1,0,5.32,0Z" style="fill: #80ea6e"/>
    <path d="M363.81,25.52v1.87c-2,0-3.33,1.19-3.33,2.95V35h-2.19V25.73h2.19v1.8A3.56,3.56,0,0,1,363.81,25.52Z" style="fill: #80ea6e"/>
    <path d="M364.61,30.38a5,5,0,1,1,5,4.88A5,5,0,0,1,364.61,30.38Zm7.82,0a2.84,2.84,0,1,0-2.83,3A3,3,0,0,0,372.43,30.38Z" style="fill: #80ea6e"/>
    <path d="M385.79,22.46V35h-2.2V33.6a3.8,3.8,0,0,1-3.22,1.66c-2.47,0-4.27-2-4.27-4.88s1.8-4.86,4.27-4.86a3.81,3.81,0,0,1,3.22,1.65V22.46Zm-2.2,7.92a2.71,2.71,0,0,0-2.62-3,2.74,2.74,0,0,0-2.69,3,2.76,2.76,0,0,0,2.69,3A2.73,2.73,0,0,0,383.59,30.38Z" style="fill: #80ea6e"/>
    <path d="M388.22,33.82a1.42,1.42,0,1,1,1.44,1.44A1.41,1.41,0,0,1,388.22,33.82Z" style="fill: #80ea6e"/>
  </g>
  <g>
    <path d="M628.41,33.42l1-1.15a3.52,3.52,0,0,0,2.4,1.13,1.62,1.62,0,0,0,1.78-1.58,1.58,1.58,0,0,0-1.78-1.52,3,3,0,0,0-1.82.63l-1.1-.47.13-4.74h5.72V27.2h-4.2l-.08,2.3a3.14,3.14,0,0,1,1.81-.55,2.77,2.77,0,0,1,2.95,2.81c0,1.85-1.39,3-3.43,3A4.4,4.4,0,0,1,628.41,33.42Z" style="fill: #80ea6e"/>
    <path d="M644.15,34.27a2.31,2.31,0,0,1-1.43.53,1.84,1.84,0,0,1-1.9-1.94V29.24h-1V27.93h1V26.08h1.55v1.85h1.52v1.31h-1.52v3.43a.71.71,0,0,0,.66.78,1,1,0,0,0,.67-.25Z" style="fill: #80ea6e"/>
    <path d="M649.37,27.77v1.35a2.15,2.15,0,0,0-2.4,2.13v3.4h-1.59V27.93H647v1.29A2.55,2.55,0,0,1,649.37,27.77Z" style="fill: #80ea6e"/>
    <path d="M656.14,30.6v4h-1.55v-.81a2.77,2.77,0,0,1-2.12,1A2.25,2.25,0,0,1,650,32.66c0-1.33,1.24-2.24,2.75-2.24a5.45,5.45,0,0,1,1.88.36V30.6a1.46,1.46,0,0,0-1.65-1.53,4.05,4.05,0,0,0-1.82.51l-.54-1.11a6,6,0,0,1,2.67-.7A2.68,2.68,0,0,1,656.14,30.6Zm-1.55,1.94v-.75a5.05,5.05,0,0,0-1.65-.26c-.79,0-1.43.44-1.43,1.08s.56,1,1.31,1A1.75,1.75,0,0,0,654.59,32.54Z" style="fill: #80ea6e"/>
    <path d="M657.5,31.28a3.61,3.61,0,0,1,3.62-3.51,3.55,3.55,0,0,1,2.55,1.09l-1.07.94a2,2,0,0,0-1.49-.68,2.17,2.17,0,0,0,0,4.33,2.08,2.08,0,0,0,1.53-.7l1.07.92a3.54,3.54,0,0,1-2.62,1.13A3.61,3.61,0,0,1,657.5,31.28Z" style="fill: #80ea6e"/>
    <path d="M668.49,30.93l2.67,3.72h-1.84L667.42,32l-.95,1v1.68h-1.59V25.56h1.59v5.55l2.91-3.18h1.87Z" style="fill: #80ea6e"/>
    <path d="M671.73,33.79l.72-1.11a3.8,3.8,0,0,0,2.25.78c.63,0,1.07-.27,1.07-.69s-.58-.68-1.35-.89c-1.45-.38-2.38-.8-2.39-2s1-2.12,2.54-2.12a4.79,4.79,0,0,1,2.57.8l-.66,1.16a3.75,3.75,0,0,0-1.91-.61c-.56,0-1,.22-1,.6s.35.56,1.38.86,2.35.7,2.35,2.1-1.07,2.12-2.64,2.12A4.82,4.82,0,0,1,671.73,33.79Z" style="fill: #80ea6e"/>
    <path d="M686.5,25h1.14V35.61H686.5Z" style="fill: #80ea6e"/>
    <path d="M697,30.17c0-2.7,1.63-4.61,3.93-4.61s3.9,1.91,3.9,4.61-1.61,4.63-3.9,4.63S697,32.89,697,30.17Zm6.18,0c0-1.84-.94-3.13-2.25-3.13s-2.26,1.29-2.26,3.13.93,3.15,2.26,3.15S703.14,32,703.14,30.17Z" style="fill: #80ea6e"/>
    <path d="M716.68,25.56v9.09H715.1v-1a2.76,2.76,0,0,1-2.33,1.19c-1.78,0-3.08-1.45-3.08-3.52s1.3-3.51,3.08-3.51A2.75,2.75,0,0,1,715.1,29V25.56Zm-1.58,5.72a2,2,0,0,0-1.9-2.16,2,2,0,0,0-1.94,2.16,2,2,0,0,0,1.94,2.17A2,2,0,0,0,715.1,31.28Z" style="fill: #80ea6e"/>
    <path d="M718.14,31.28a3.6,3.6,0,1,1,3.6,3.52A3.6,3.6,0,0,1,718.14,31.28Zm5.64,0a2.05,2.05,0,1,0-2,2.17A2.14,2.14,0,0,0,723.78,31.28Z" style="fill: #80ea6e"/>
    <path d="M726.76,25.56h1.59v9.09h-1.59Z" style="fill: #80ea6e"/>
    <path d="M730.15,25.56h1.59v9.09h-1.59Z" style="fill: #80ea6e"/>
    <path d="M739.32,30.6v4h-1.55v-.81a2.77,2.77,0,0,1-2.12,1,2.25,2.25,0,0,1-2.51-2.14c0-1.33,1.24-2.24,2.75-2.24a5.45,5.45,0,0,1,1.88.36V30.6a1.46,1.46,0,0,0-1.65-1.53,4.05,4.05,0,0,0-1.82.51l-.54-1.11a6,6,0,0,1,2.67-.7A2.67,2.67,0,0,1,739.32,30.6Zm-1.55,1.94v-.75a5.05,5.05,0,0,0-1.65-.26c-.79,0-1.43.44-1.43,1.08s.56,1,1.32,1A1.74,1.74,0,0,0,737.77,32.54Z" style="fill: #80ea6e"/>
    <path d="M745.11,27.77v1.35a2.15,2.15,0,0,0-2.4,2.13v3.4h-1.59V27.93h1.59v1.29A2.57,2.57,0,0,1,745.11,27.77Z" style="fill: #80ea6e"/>
    <path d="M745.79,33.79l.71-1.11a3.8,3.8,0,0,0,2.25.78c.64,0,1.08-.27,1.08-.69s-.59-.68-1.35-.89c-1.46-.38-2.38-.8-2.4-2s1-2.12,2.54-2.12a4.76,4.76,0,0,1,2.57.8l-.66,1.16a3.75,3.75,0,0,0-1.91-.61c-.56,0-1,.22-1,.6s.35.56,1.38.86,2.35.7,2.35,2.1-1.06,2.12-2.64,2.12A4.79,4.79,0,0,1,745.79,33.79Z" style="fill: #80ea6e"/>
    <path d="M760.55,25h1.15V35.61h-1.15Z" style="fill: #80ea6e"/>
    <path d="M770.78,33.35l.94-1.16a4.27,4.27,0,0,0,2.94,1.21c1.1,0,1.68-.55,1.68-1.18s-.64-1-2.07-1.33c-1.85-.43-3.13-1-3.13-2.64s1.32-2.7,3.21-2.7a5,5,0,0,1,3.38,1.24l-.89,1.2a3.92,3.92,0,0,0-2.56-1c-.9,0-1.51.54-1.51,1.17s.67,1,2.08,1.31c1.86.42,3.11,1,3.11,2.64s-1.22,2.73-3.35,2.73A5.48,5.48,0,0,1,770.78,33.35Z" style="fill: #80ea6e"/>
    <path d="M784.27,32.72l1,1a4,4,0,0,1-2.73,1A3.46,3.46,0,0,1,779,31.27a3.39,3.39,0,0,1,3.42-3.5c2.08,0,3.29,1.57,3.29,4.05h-5.07a1.88,1.88,0,0,0,1.86,1.58A2.64,2.64,0,0,0,784.27,32.72Zm-3.59-2.1h3.54a1.67,1.67,0,0,0-1.7-1.45A1.87,1.87,0,0,0,780.68,30.62Z" style="fill: #80ea6e"/>
    <path d="M794.19,31.28c0,2.07-1.3,3.52-3.08,3.52a2.75,2.75,0,0,1-2.34-1.22v3.3h-1.59v-9h1.59V29a2.75,2.75,0,0,1,2.34-1.22C792.89,27.77,794.19,29.22,794.19,31.28Zm-1.57,0a2,2,0,0,0-1.94-2.16,2,2,0,0,0-1.9,2.16,2,2,0,0,0,1.9,2.17A2,2,0,0,0,792.62,31.28Z" style="fill: #80ea6e"/>
    <path d="M799,33.32l3.29-2.63c1.13-.91,1.54-1.58,1.54-2.31A1.42,1.42,0,0,0,802.31,27a2.89,2.89,0,0,0-2.26,1.27l-1-1a4,4,0,0,1,3.37-1.74,2.87,2.87,0,0,1,3.12,2.78c0,1.18-.55,2.13-2.08,3.32l-1.88,1.5h4.05v1.49H799Z" style="fill: #80ea6e"/>
    <path d="M806.79,30.38h3.5v1.39h-3.5Z" style="fill: #80ea6e"/>
    <path d="M811,33.29l1-1.06a3.28,3.28,0,0,0,2.45,1.13c1.06,0,1.73-.53,1.73-1.31s-.67-1.21-1.93-1.21h-1v-1.4h1c1.06,0,1.74-.42,1.74-1.2s-.7-1.24-1.66-1.24a2.85,2.85,0,0,0-2.17,1.11l-1-1a4,4,0,0,1,3.27-1.57c1.9,0,3.16,1,3.16,2.43a2.14,2.14,0,0,1-1.69,2.07,2.22,2.22,0,0,1,1.89,2.12c0,1.53-1.31,2.62-3.33,2.62A4.39,4.39,0,0,1,811,33.29Z" style="fill: #80ea6e"/>
  </g>
</svg>
