<svg id="Layer_1" data-name="Layer 1" xmlns="http://www.w3.org/2000/svg" viewBox="0 0 961 61"><defs><style>.cls-1{stroke:#231f20;stroke-miterlimit:10;}.cls-2{fill:#fff;}.cls-3{fill:#80ea6e;}</style></defs><rect class="cls-1" x="0.5" y="0.5" width="960" height="60"/><g id="Layer_2" data-name="Layer 2"><g id="logos"><path class="cls-2" d="M532.46,7.62H418.6a21.8,21.8,0,0,0,0,43.59H532.46a21.8,21.8,0,1,0,.67-43.59Zm20.15,21.79a20.17,20.17,0,0,1-20.15,20.15H418.6a20.15,20.15,0,0,1,0-40.29H532.46A20.18,20.18,0,0,1,552.6,29.41Z" transform="translate(0.5 0.5)"/><path class="cls-2" d="M422.51,27.14c-3.35-.8-4.13-1.39-4.13-2.73v0c0-1.14,1-2.05,2.81-2.05a7.22,7.22,0,0,1,4,1.31,1.47,1.47,0,0,0,.79.22,1.42,1.42,0,0,0,1.44-1.39v0a1.39,1.39,0,0,0-.67-1.21,9.52,9.52,0,0,0-5.5-1.61c-3.44,0-5.91,2.05-5.91,5v.05c0,3.19,2.08,4.28,5.76,5.17,3.22.75,3.92,1.41,3.92,2.65v.05c0,1.29-1.19,2.18-3.08,2.18A7.63,7.63,0,0,1,417.08,33a1.44,1.44,0,1,0-1.72,2.3,10.67,10.67,0,0,0,6.5,2.18c3.62,0,6.18-1.94,6.18-5.18v-.07C428,29.34,426.17,28,422.51,27.14Z" transform="translate(0.5 0.5)"/><path class="cls-2" d="M437.5,23.84A5.25,5.25,0,0,0,433,26.3v-.82a1.5,1.5,0,0,0-1.46-1.54h0a1.49,1.49,0,0,0-1.49,1.47V39.78a1.5,1.5,0,0,0,3,0V35.17a5.34,5.34,0,0,0,4.46,2.3c3.07,0,6.06-2.45,6.06-6.78v-.05C443.56,26.27,440.57,23.84,437.5,23.84Zm3,6.82c0,2.56-1.69,4.18-3.74,4.18A3.92,3.92,0,0,1,433,30.66v-.05a3.94,3.94,0,0,1,3.81-4.18,3.87,3.87,0,0,1,3.74,4.18Z" transform="translate(0.5 0.5)"/><path class="cls-2" d="M451.7,24c-1.31,0-2.6,1.23-3.29,2.86V25.48a1.51,1.51,0,0,0-1.47-1.54h-.07a1.48,1.48,0,0,0-1.48,1.47V35.82a1.47,1.47,0,0,0,1.45,1.49h.06a1.49,1.49,0,0,0,1.53-1.45V32c0-3.07,1.45-4.73,3.58-5.12a1.47,1.47,0,0,0-.3-2.91Z" transform="translate(0.5 0.5)"/><path class="cls-2" d="M456.05,19.14a1.54,1.54,0,0,0-1.71,1.46v.15a1.73,1.73,0,0,0,3.42,0V20.6A1.54,1.54,0,0,0,456.05,19.14Z" transform="translate(0.5 0.5)"/><path class="cls-2" d="M456.05,24a1.47,1.47,0,0,0-1.48,1.47V35.82a1.5,1.5,0,0,0,3,0V25.48a1.5,1.5,0,0,0-1.5-1.51Z" transform="translate(0.5 0.5)"/><path class="cls-2" d="M467.31,23.84a4.76,4.76,0,0,0-4.1,2.28v-.64a1.5,1.5,0,0,0-1.46-1.54h0a1.49,1.49,0,0,0-1.49,1.47V35.82a1.5,1.5,0,1,0,3,0h0v-6c0-2,1.22-3.24,3-3.24S469,27.73,469,29.76v6.06a1.47,1.47,0,0,0,1.46,1.49h0A1.45,1.45,0,0,0,472,35.89v-7C472,25.82,470.25,23.84,467.31,23.84Z" transform="translate(0.5 0.5)"/><path class="cls-2" d="M485.67,24a1.49,1.49,0,0,0-1.49,1.48v.6a5.61,5.61,0,0,0-4.57-2.23,5.9,5.9,0,0,0-5.95,5.84c0,.1,0,.21,0,.31V30a5.86,5.86,0,0,0,5.62,6.1c.1,0,.21,0,.32,0a5.47,5.47,0,0,0,4.6-2.39v1c0,2.62-1.46,4-4.13,4a8.06,8.06,0,0,1-4-1,1.13,1.13,0,0,0-.54-.13,1.27,1.27,0,0,0-1.27,1.24A1.22,1.22,0,0,0,475.1,40a11.21,11.21,0,0,0,5,1.17,7.35,7.35,0,0,0,5.37-1.76,6.68,6.68,0,0,0,1.66-4.92v-9a1.51,1.51,0,0,0-1.5-1.51Zm-1.44,6a3.64,3.64,0,0,1-3.83,3.58,3.55,3.55,0,0,1-3.71-3.39V30a3.53,3.53,0,0,1,3.47-3.59h.24A3.64,3.64,0,0,1,484.23,30Z" transform="translate(0.5 0.5)"/><path class="cls-2" d="M498.36,19.56a8.89,8.89,0,0,0-9.08,8.67v.34a9.06,9.06,0,0,0,18.1-.05v-.05a8.79,8.79,0,0,0-8.67-8.91Zm5.84,9a5.82,5.82,0,0,1-5.84,6.08,5.91,5.91,0,0,1-5.89-6.14v-.05a5.85,5.85,0,0,1,5.84-6.11,5.93,5.93,0,0,1,5.89,6.14Z" transform="translate(0.5 0.5)"/><path class="cls-2" d="M516.56,23.84a4.75,4.75,0,0,0-4.09,2.28v-.64A1.51,1.51,0,0,0,511,23.94h0a1.49,1.49,0,0,0-1.49,1.47V35.82a1.5,1.5,0,0,0,3,0v-6c0-2,1.21-3.24,2.94-3.24s2.8,1.16,2.8,3.19v6.06a1.47,1.47,0,0,0,1.47,1.49h.05a1.45,1.45,0,0,0,1.49-1.42v-7C521.2,25.82,519.51,23.84,516.56,23.84Z" transform="translate(0.5 0.5)"/><path class="cls-2" d="M529.25,23.84c-3.73,0-6.37,3.07-6.37,6.81v.05a6.51,6.51,0,0,0,6.7,6.78,6.72,6.72,0,0,0,4.7-1.73,1.36,1.36,0,0,0,.4-.92,1.18,1.18,0,0,0-1.15-1.21h0a1.13,1.13,0,0,0-.77.27A4.67,4.67,0,0,1,529.65,35a3.64,3.64,0,0,1-3.76-3.32h8.19a1.4,1.4,0,0,0,1.41-1.39v0A6.22,6.22,0,0,0,529.25,23.84Zm-3.4,5.9c.27-2,1.53-3.44,3.38-3.44s3.12,1.53,3.32,3.44Z" transform="translate(0.5 0.5)"/></g></g><path class="cls-3" d="M178.84,36a7.74,7.74,0,0,1-2.77-2.74,7.2,7.2,0,0,1,0-7.42,7.79,7.79,0,0,1,2.77-2.73,7.35,7.35,0,0,1,3.76-1,7.44,7.44,0,0,1,3,.62,7.75,7.75,0,0,1,2.48,1.71l-1.87,1.74A5,5,0,0,0,184.57,25a4.64,4.64,0,0,0-2-.44,4.48,4.48,0,0,0-2.42.7,5.18,5.18,0,0,0-1.8,1.86,4.88,4.88,0,0,0-.67,2.5,5,5,0,0,0,.67,2.54,5.23,5.23,0,0,0,1.8,1.85,4.48,4.48,0,0,0,2.42.7,4.64,4.64,0,0,0,2-.44A5.35,5.35,0,0,0,186.22,33l1.84,1.72a7.47,7.47,0,0,1-5.46,2.35A7.35,7.35,0,0,1,178.84,36Z" transform="translate(0.5 0.5)"/><path class="cls-3" d="M192.45,36.29a5.87,5.87,0,0,1-2.13-2.07,5.52,5.52,0,0,1-.79-2.85,5.39,5.39,0,0,1,.79-2.83,5.9,5.9,0,0,1,5.05-2.84,5.83,5.83,0,0,1,5,2.84,5.38,5.38,0,0,1,.78,2.83,5.51,5.51,0,0,1-.78,2.85,5.74,5.74,0,0,1-2.11,2.07,5.66,5.66,0,0,1-2.91.77A5.72,5.72,0,0,1,192.45,36.29ZM197,34.4a3.47,3.47,0,0,0,1.21-1.28,3.64,3.64,0,0,0,0-3.49A3.43,3.43,0,0,0,197,28.36a3.09,3.09,0,0,0-3.31,0,3.6,3.6,0,0,0-1.21,1.27,3.47,3.47,0,0,0-.45,1.74,3.57,3.57,0,0,0,1.66,3,3.06,3.06,0,0,0,1.66.48A3,3,0,0,0,197,34.4Z" transform="translate(0.5 0.5)"/><path class="cls-3" d="M214.12,22.13V36.81h-2.56V35.09a4.39,4.39,0,0,1-1.6,1.46,4.62,4.62,0,0,1-2.16.51,4.72,4.72,0,0,1-2.57-.72,4.89,4.89,0,0,1-1.78-2,6.54,6.54,0,0,1-.64-2.94,6.47,6.47,0,0,1,.64-2.93,4.93,4.93,0,0,1,1.78-2,4.72,4.72,0,0,1,2.57-.72,4.62,4.62,0,0,1,2.16.51,4.51,4.51,0,0,1,1.6,1.44V22.13Zm-3.44,11.76a3.72,3.72,0,0,0,.86-2.52,3.68,3.68,0,0,0-.86-2.51,2.81,2.81,0,0,0-2.2-1,2.89,2.89,0,0,0-2.25,1,3.59,3.59,0,0,0-.88,2.51,3.64,3.64,0,0,0,.88,2.52,2.87,2.87,0,0,0,2.25,1A2.78,2.78,0,0,0,210.68,33.89Z" transform="translate(0.5 0.5)"/><path class="cls-3" d="M223.81,34.69a3.86,3.86,0,0,0,1.36-.82l1.47,1.51a5.13,5.13,0,0,1-1.95,1.21,7.09,7.09,0,0,1-2.46.47,5.78,5.78,0,0,1-2.87-.73,5.58,5.58,0,0,1-2.08-2,6.1,6.1,0,0,1,0-5.84,5.41,5.41,0,0,1,2-2,5.54,5.54,0,0,1,2.81-.74A4.8,4.8,0,0,1,226,27.42a7.23,7.23,0,0,1,1.42,4.71H219a3.53,3.53,0,0,0,1.06,2.09,3,3,0,0,0,2.09.78A4.72,4.72,0,0,0,223.81,34.69Zm-3.7-6.21A3.41,3.41,0,0,0,219,30.43h5.92a3.49,3.49,0,0,0-.91-1.94,2.6,2.6,0,0,0-1.93-.73A3,3,0,0,0,220.11,28.48Z" transform="translate(0.5 0.5)"/><path class="cls-3" d="M234.18,26h2.56L239,33.37,241.42,26h2.15L246,33.37,248.25,26h2.56l-3.67,10.86h-2.33l-2.31-7.43-2.31,7.43h-2.34Z" transform="translate(0.5 0.5)"/><path class="cls-3" d="M253,23.87a1.44,1.44,0,0,1-.43-1,1.39,1.39,0,0,1,.43-1,1.42,1.42,0,0,1,1-.43,1.47,1.47,0,0,1,1.45,1.44,1.4,1.4,0,0,1-.43,1,1.33,1.33,0,0,1-1,.44A1.39,1.39,0,0,1,253,23.87ZM252.74,26h2.57V36.81h-2.57Z" transform="translate(0.5 0.5)"/><path class="cls-3" d="M264.31,36.2a3.2,3.2,0,0,1-1.08.63,3.63,3.63,0,0,1-1.25.23,2.91,2.91,0,0,1-2.19-.88,3.1,3.1,0,0,1-.85-2.25V28.07h-1.58V26h1.58V23h2.48v3h2.45v2.12h-2.45v5.55a1.31,1.31,0,0,0,.31.9,1,1,0,0,0,.78.36,1.73,1.73,0,0,0,.6-.11,1.39,1.39,0,0,0,.47-.29Z" transform="translate(0.5 0.5)"/><path class="cls-3" d="M274.44,26.24a3.67,3.67,0,0,1,1.43,1.49,4.41,4.41,0,0,1,.52,2.17v6.91h-2.5V30.4a2.61,2.61,0,0,0-.63-1.81,2.11,2.11,0,0,0-1.64-.71,2.71,2.71,0,0,0-1.88.69,2.14,2.14,0,0,0-.76,1.67v6.57h-2.57V22.13H269v5.29a3.67,3.67,0,0,1,1.39-1.25,4.21,4.21,0,0,1,2-.47A4.1,4.1,0,0,1,274.44,26.24Z" transform="translate(0.5 0.5)"/><path class="cls-3" d="M290.9,36.2a3.41,3.41,0,0,1-1.08.63,3.68,3.68,0,0,1-1.25.23,2.92,2.92,0,0,1-2.2-.88,3.14,3.14,0,0,1-.85-2.25V28.07H284V26h1.57V23H288v3h2.46v2.12H288v5.55a1.32,1.32,0,0,0,.32.9,1,1,0,0,0,.77.36,1.73,1.73,0,0,0,.6-.11,1.29,1.29,0,0,0,.47-.29Z" transform="translate(0.5 0.5)"/><path class="cls-3" d="M301,26.24a3.63,3.63,0,0,1,1.44,1.49A4.52,4.52,0,0,1,303,29.9v6.91h-2.49V30.4a2.61,2.61,0,0,0-.63-1.81,2.11,2.11,0,0,0-1.64-.71,2.71,2.71,0,0,0-1.88.69,2.15,2.15,0,0,0-.77,1.67v6.57H293V22.13h2.56v5.29a3.7,3.7,0,0,1,1.4-1.25,4.17,4.17,0,0,1,2-.47A4.05,4.05,0,0,1,301,26.24Z" transform="translate(0.5 0.5)"/><path class="cls-3" d="M312.42,34.69a3.9,3.9,0,0,0,1.37-.82l1.47,1.51a5.13,5.13,0,0,1-1.95,1.21,7.09,7.09,0,0,1-2.46.47,5.78,5.78,0,0,1-2.87-.73,5.5,5.5,0,0,1-2.08-2,6.1,6.1,0,0,1,0-5.84,5.34,5.34,0,0,1,2-2,5.54,5.54,0,0,1,2.81-.74,4.8,4.8,0,0,1,3.92,1.72A7.23,7.23,0,0,1,316,32.13h-8.42a3.53,3.53,0,0,0,1.06,2.09,3,3,0,0,0,2.09.78A4.67,4.67,0,0,0,312.42,34.69Zm-3.69-6.21a3.35,3.35,0,0,0-1.09,1.95h5.92a3.49,3.49,0,0,0-.91-1.94,2.6,2.6,0,0,0-1.93-.73A3,3,0,0,0,308.73,28.48Z" transform="translate(0.5 0.5)"/><path class="cls-3" d="M327,26h2.46v2.12H327v8.74h-2.5V28.07H323V26h1.57V24.82a3.11,3.11,0,0,1,.86-2.25,3,3,0,0,1,2.21-.88,3.65,3.65,0,0,1,1.23.23,3.41,3.41,0,0,1,1.08.63l-.74,1.64a1.19,1.19,0,0,0-.47-.3,1.72,1.72,0,0,0-.6-.1,1,1,0,0,0-.77.36,1.34,1.34,0,0,0-.3.9Z" transform="translate(0.5 0.5)"/><path class="cls-3" d="M331.43,22.13H334V36.81h-2.56Z" transform="translate(0.5 0.5)"/><path class="cls-3" d="M339.26,36.29a5.87,5.87,0,0,1-2.13-2.07,5.52,5.52,0,0,1-.79-2.85,5.39,5.39,0,0,1,.79-2.83,5.9,5.9,0,0,1,5.05-2.84,5.83,5.83,0,0,1,5,2.84,5.38,5.38,0,0,1,.78,2.83,5.51,5.51,0,0,1-.78,2.85,5.74,5.74,0,0,1-2.11,2.07,5.66,5.66,0,0,1-2.91.77A5.72,5.72,0,0,1,339.26,36.29Zm4.56-1.89A3.47,3.47,0,0,0,345,33.12a3.64,3.64,0,0,0,0-3.49,3.43,3.43,0,0,0-1.21-1.27,3.09,3.09,0,0,0-3.31,0,3.6,3.6,0,0,0-1.21,1.27,3.47,3.47,0,0,0-.45,1.74,3.57,3.57,0,0,0,1.66,3,3.06,3.06,0,0,0,1.66.48A3,3,0,0,0,343.82,34.4Z" transform="translate(0.5 0.5)"/><path class="cls-3" d="M349.09,26h2.56l2.27,7.42L356.33,26h2.15l2.41,7.42L363.16,26h2.56l-3.67,10.86h-2.33l-2.31-7.43-2.31,7.43h-2.33Z" transform="translate(0.5 0.5)"/><path class="cls-3" d="M584.77,34.25l1.11-1.34a4.94,4.94,0,0,0,1.32,1,3.25,3.25,0,0,0,1.45.34,2.12,2.12,0,0,0,1.49-.52,1.69,1.69,0,0,0,.57-1.29,1.61,1.61,0,0,0-.57-1.28,2.29,2.29,0,0,0-1.49-.47,3.34,3.34,0,0,0-2.1.72l-1.27-.54.15-5.48H592v1.71h-4.83l-.09,2.66a3.6,3.6,0,0,1,2.09-.63,3.76,3.76,0,0,1,1.71.38,3,3,0,0,1,1.24,1.12,3.27,3.27,0,0,1,.45,1.74,3.4,3.4,0,0,1-.49,1.84,3.3,3.3,0,0,1-1.4,1.23,4.7,4.7,0,0,1-2.07.43A5.11,5.11,0,0,1,584.77,34.25Z" transform="translate(0.5 0.5)"/><path class="cls-3" d="M602.66,35.22a2.44,2.44,0,0,1-.77.45,2.5,2.5,0,0,1-.89.16,2.12,2.12,0,0,1-1.57-.62,2.25,2.25,0,0,1-.61-1.61V29.42H597.7V27.9h1.12V25.77h1.77V27.9h1.76v1.52h-1.76v4a1,1,0,0,0,.23.64.71.71,0,0,0,.55.26,1.22,1.22,0,0,0,.43-.08.89.89,0,0,0,.34-.21Z" transform="translate(0.5 0.5)"/><path class="cls-3" d="M607.1,28.16a3.23,3.23,0,0,1,1.67-.44v1.56a2.93,2.93,0,0,0-2,.68,2.26,2.26,0,0,0-.77,1.78v3.92h-1.83V27.9H606v1.47A2.88,2.88,0,0,1,607.1,28.16Z" transform="translate(0.5 0.5)"/><path class="cls-3" d="M616,28.61a3.21,3.21,0,0,1,.89,2.38v4.67h-1.78v-.92a2.83,2.83,0,0,1-1.08.8,3.22,3.22,0,0,1-1.35.29,3.53,3.53,0,0,1-1.48-.3,2.59,2.59,0,0,1-1-.87,2.3,2.3,0,0,1-.37-1.3,2.22,2.22,0,0,1,.42-1.33,2.74,2.74,0,0,1,1.14-.92,3.77,3.77,0,0,1,1.59-.33,6.61,6.61,0,0,1,2.16.4V31a1.8,1.8,0,0,0-.46-1.27,1.85,1.85,0,0,0-1.43-.5,4.8,4.8,0,0,0-2.1.59l-.63-1.28a7,7,0,0,1,3.09-.81A3.28,3.28,0,0,1,616,28.61Zm-1.62,5.55a1.44,1.44,0,0,0,.73-.94v-.88a6.23,6.23,0,0,0-1.89-.29,1.93,1.93,0,0,0-1.19.36,1.06,1.06,0,0,0-.48.89,1,1,0,0,0,.44.87,1.75,1.75,0,0,0,1.09.33A2.63,2.63,0,0,0,614.34,34.16Z" transform="translate(0.5 0.5)"/><path class="cls-3" d="M620.46,35.28a4.34,4.34,0,0,1-1.52-1.49,3.84,3.84,0,0,1-.57-2,3.78,3.78,0,0,1,.57-2,4.26,4.26,0,0,1,1.53-1.48,4.07,4.07,0,0,1,2.07-.56,3.83,3.83,0,0,1,1.62.34,4.19,4.19,0,0,1,1.32.92l-1.23,1.08a2.25,2.25,0,0,0-.78-.57,2.3,2.3,0,0,0-1-.21,2.13,2.13,0,0,0-1.17.34,2.4,2.4,0,0,0-.85.91,2.58,2.58,0,0,0,0,2.49,2.43,2.43,0,0,0,.85.92,2.21,2.21,0,0,0,1.17.34,2.37,2.37,0,0,0,1-.22,2.41,2.41,0,0,0,.8-.6l1.23,1.07a4.27,4.27,0,0,1-1.35,1,4,4,0,0,1-1.65.34A4,4,0,0,1,620.46,35.28Z" transform="translate(0.5 0.5)"/><path class="cls-3" d="M627,25.17h1.83v6.39l3.34-3.66h2.16l-3.18,3.47,3.09,4.29h-2.14l-2.18-3.09-1.09,1.14v1.95H627Z" transform="translate(0.5 0.5)"/><path class="cls-3" d="M636.52,35.53a5.75,5.75,0,0,1-1.61-.85l.78-1.2a5.66,5.66,0,0,0,1.33.7,4.12,4.12,0,0,0,1.33.24,1.72,1.72,0,0,0,1-.24.73.73,0,0,0,.35-.64.67.67,0,0,0-.4-.63,6.44,6.44,0,0,0-1.24-.44A10.42,10.42,0,0,1,636.5,32a2.23,2.23,0,0,1-.9-.7,1.79,1.79,0,0,1-.33-1.11,2.27,2.27,0,0,1,.37-1.26,2.4,2.4,0,0,1,1-.86,3.5,3.5,0,0,1,1.52-.31,4.81,4.81,0,0,1,1.53.25,5.93,5.93,0,0,1,1.44.68l-.72,1.23a5,5,0,0,0-1.14-.56,3.26,3.26,0,0,0-1.11-.2,1.49,1.49,0,0,0-.87.23A.71.71,0,0,0,637,30a.53.53,0,0,0,.17.41,1.51,1.51,0,0,0,.46.26c.2.07.54.19,1,.34a8.81,8.81,0,0,1,1.41.48,2.42,2.42,0,0,1,.94.7,1.84,1.84,0,0,1,.38,1.22,2.17,2.17,0,0,1-.84,1.78,3.4,3.4,0,0,1-2.2.67A5.66,5.66,0,0,1,636.52,35.53Z" transform="translate(0.5 0.5)"/><path class="cls-3" d="M651.8,24.51h1.31V36.76H651.8Z" transform="translate(0.5 0.5)"/><path class="cls-3" d="M666,35.15a4.48,4.48,0,0,1-1.6-1.9,6.21,6.21,0,0,1-.58-2.75,6.28,6.28,0,0,1,.58-2.76,4.64,4.64,0,0,1,1.6-1.89,4.33,4.33,0,0,1,4.66,0,4.59,4.59,0,0,1,1.61,1.89,6.43,6.43,0,0,1,.58,2.76,6.35,6.35,0,0,1-.58,2.75,4.43,4.43,0,0,1-1.61,1.9,4.33,4.33,0,0,1-4.66,0Zm3.68-1.49a3.06,3.06,0,0,0,.92-1.29,5,5,0,0,0,.33-1.87,5,5,0,0,0-.33-1.88,3,3,0,0,0-.92-1.28,2.21,2.21,0,0,0-2.7,0,2.9,2.9,0,0,0-.93,1.28,5,5,0,0,0-.33,1.88,5,5,0,0,0,.33,1.87,3,3,0,0,0,.93,1.29,2.21,2.21,0,0,0,2.7,0Z" transform="translate(0.5 0.5)"/><path class="cls-3" d="M686.39,25.17V35.66h-1.83V34.42a3.09,3.09,0,0,1-1.14,1,3.33,3.33,0,0,1-1.54.36,3.4,3.4,0,0,1-1.84-.51,3.54,3.54,0,0,1-1.28-1.45,4.76,4.76,0,0,1-.45-2.1,4.69,4.69,0,0,1,.45-2.09A3.45,3.45,0,0,1,680,28.24a3.32,3.32,0,0,1,1.84-.52,3.21,3.21,0,0,1,1.54.37,3.13,3.13,0,0,1,1.14,1V25.17Zm-2.46,8.4a2.64,2.64,0,0,0,.62-1.8,2.6,2.6,0,0,0-.62-1.79,2,2,0,0,0-1.57-.7,2.06,2.06,0,0,0-1.61.7,2.56,2.56,0,0,0-.63,1.79,2.6,2.6,0,0,0,.63,1.8,2.07,2.07,0,0,0,1.61.71A2,2,0,0,0,683.93,33.57Z" transform="translate(0.5 0.5)"/><path class="cls-3" d="M690.16,35.29a4.2,4.2,0,0,1-1.53-1.49,3.94,3.94,0,0,1,0-4,4.18,4.18,0,0,1,1.53-1.48,4.21,4.21,0,0,1,4.16,0,4.12,4.12,0,0,1,1.51,1.48,4,4,0,0,1,0,4,4.22,4.22,0,0,1-5.67,1.49Zm3.25-1.35a2.61,2.61,0,0,0,1.19-2.17,2.52,2.52,0,0,0-.32-1.24,2.43,2.43,0,0,0-.86-.91,2.18,2.18,0,0,0-1.18-.34,2.14,2.14,0,0,0-1.18.34,2.56,2.56,0,0,0-.87,3.4,2.56,2.56,0,0,0,.87.92,2.2,2.2,0,0,0,2.35,0Z" transform="translate(0.5 0.5)"/><path class="cls-3" d="M698.08,25.17h1.83V35.66h-1.83Z" transform="translate(0.5 0.5)"/><path class="cls-3" d="M702.19,25.17H704V35.66h-1.83Z" transform="translate(0.5 0.5)"/><path class="cls-3" d="M711.82,28.61a3.21,3.21,0,0,1,.9,2.38v4.67h-1.79v-.92a2.83,2.83,0,0,1-1.08.8,3.22,3.22,0,0,1-1.35.29,3.53,3.53,0,0,1-1.48-.3,2.56,2.56,0,0,1-1-.87,2.31,2.31,0,0,1-.38-1.3A2.22,2.22,0,0,1,706,32a2.74,2.74,0,0,1,1.14-.92,3.77,3.77,0,0,1,1.59-.33,6.61,6.61,0,0,1,2.16.4V31a1.8,1.8,0,0,0-.46-1.27,1.85,1.85,0,0,0-1.43-.5,4.8,4.8,0,0,0-2.1.59l-.63-1.28a7,7,0,0,1,3.09-.81A3.28,3.28,0,0,1,711.82,28.61Zm-1.62,5.55a1.44,1.44,0,0,0,.73-.94v-.88a6.23,6.23,0,0,0-1.89-.29,1.9,1.9,0,0,0-1.18.36,1.06,1.06,0,0,0-.48.89,1,1,0,0,0,.43.87,1.78,1.78,0,0,0,1.1.33A2.59,2.59,0,0,0,710.2,34.16Z" transform="translate(0.5 0.5)"/><path class="cls-3" d="M717.77,28.16a3.23,3.23,0,0,1,1.67-.44v1.56a2.93,2.93,0,0,0-2,.68,2.26,2.26,0,0,0-.77,1.78v3.92h-1.83V27.9h1.83v1.47A2.88,2.88,0,0,1,717.77,28.16Z" transform="translate(0.5 0.5)"/><path class="cls-3" d="M722,35.53a5.75,5.75,0,0,1-1.61-.85l.78-1.2a5.47,5.47,0,0,0,1.33.7,4.07,4.07,0,0,0,1.33.24,1.66,1.66,0,0,0,1-.24.72.72,0,0,0,.36-.64.69.69,0,0,0-.4-.63,6.44,6.44,0,0,0-1.24-.44A11,11,0,0,1,722,32a2.37,2.37,0,0,1-.9-.7,1.85,1.85,0,0,1-.32-1.11,2.19,2.19,0,0,1,.37-1.26,2.37,2.37,0,0,1,1-.86,3.58,3.58,0,0,1,1.53-.31,4.81,4.81,0,0,1,1.53.25,5.93,5.93,0,0,1,1.44.68l-.72,1.23a5,5,0,0,0-1.14-.56,3.26,3.26,0,0,0-1.11-.2,1.49,1.49,0,0,0-.87.23.71.71,0,0,0-.35.62.53.53,0,0,0,.17.41,1.51,1.51,0,0,0,.46.26c.2.07.54.19,1,.34a8.81,8.81,0,0,1,1.41.48,2.5,2.5,0,0,1,.94.7,1.89,1.89,0,0,1,.38,1.22,2.17,2.17,0,0,1-.84,1.78,3.4,3.4,0,0,1-2.2.67A5.66,5.66,0,0,1,722,35.53Z" transform="translate(0.5 0.5)"/><path class="cls-3" d="M737.27,24.51h1.31V36.76h-1.31Z" transform="translate(0.5 0.5)"/><path class="cls-3" d="M751.05,35.39a5.93,5.93,0,0,1-2-1.23l1.1-1.34a5,5,0,0,0,3.39,1.39,2.34,2.34,0,0,0,1.41-.38,1.19,1.19,0,0,0,.51-1,1,1,0,0,0-.25-.68,1.87,1.87,0,0,0-.74-.45,9.89,9.89,0,0,0-1.4-.4,12,12,0,0,1-2-.62,3,3,0,0,1-1.2-.92,2.41,2.41,0,0,1-.44-1.5,2.86,2.86,0,0,1,.47-1.6,3.13,3.13,0,0,1,1.32-1.11,4.31,4.31,0,0,1,1.9-.4,5.77,5.77,0,0,1,3.9,1.44l-1,1.37a5.3,5.3,0,0,0-1.42-.9,4.07,4.07,0,0,0-1.52-.3,1.93,1.93,0,0,0-1.25.39,1.15,1.15,0,0,0-.49.94,1,1,0,0,0,.25.68,1.78,1.78,0,0,0,.75.45,13.4,13.4,0,0,0,1.39.39,7.15,7.15,0,0,1,2.68,1.07,2.29,2.29,0,0,1,.9,2,2.91,2.91,0,0,1-1.78,2.75,4.93,4.93,0,0,1-2.09.4A6.59,6.59,0,0,1,751.05,35.39Z" transform="translate(0.5 0.5)"/><path class="cls-3" d="M763.82,34.14a2.84,2.84,0,0,0,1-.59l1.05,1.08a3.61,3.61,0,0,1-1.4.87,5.05,5.05,0,0,1-1.75.33,4.11,4.11,0,0,1-2.05-.52,3.91,3.91,0,0,1-1.49-1.45,4.12,4.12,0,0,1-.54-2.11,4.07,4.07,0,0,1,.52-2.06,3.83,3.83,0,0,1,1.44-1.44,4,4,0,0,1,2-.53,3.44,3.44,0,0,1,2.8,1.23,5.16,5.16,0,0,1,1,3.36h-6a2.51,2.51,0,0,0,.75,1.49,2.13,2.13,0,0,0,1.5.57A3.34,3.34,0,0,0,763.82,34.14Zm-2.64-4.43a2.41,2.41,0,0,0-.78,1.38h4.23a2.48,2.48,0,0,0-.65-1.37,1.85,1.85,0,0,0-1.37-.53A2.1,2.1,0,0,0,761.18,29.71Z" transform="translate(0.5 0.5)"/><path class="cls-3" d="M774.38,28.24a3.5,3.5,0,0,1,1.27,1.44,4.69,4.69,0,0,1,.46,2.09,4.76,4.76,0,0,1-.46,2.1,3.59,3.59,0,0,1-1.27,1.45,3.36,3.36,0,0,1-1.83.51,3.26,3.26,0,0,1-1.53-.36,3,3,0,0,1-1.15-1v3.77H768V27.9h1.83v1.2a3.13,3.13,0,0,1,1.15-1,3.46,3.46,0,0,1,3.36.16Zm-.72,5.33a2.6,2.6,0,0,0,.63-1.8,2.56,2.56,0,0,0-.63-1.79,2,2,0,0,0-1.6-.7,2,2,0,0,0-1.58.7,2.59,2.59,0,0,0-.61,1.79,2.64,2.64,0,0,0,.61,1.8,2,2,0,0,0,1.58.71A2.05,2.05,0,0,0,773.66,33.57Z" transform="translate(0.5 0.5)"/><path class="cls-3" d="M783.67,27.51l-1.77,1.13-.75-1.32,2.89-2h1.5V35.66h-1.87Z" transform="translate(0.5 0.5)"/><path class="cls-3" d="M788,30.75h7.14v1.58H788Z" transform="translate(0.5 0.5)"/><path class="cls-3" d="M796.87,34.12l3.79-3A6.29,6.29,0,0,0,802,29.7a2.4,2.4,0,0,0,.4-1.27,1.4,1.4,0,0,0-.52-1.14,1.84,1.84,0,0,0-1.24-.44,2.62,2.62,0,0,0-1.38.37,4.5,4.5,0,0,0-1.22,1.09l-1.22-1.13a4.7,4.7,0,0,1,3.89-2,4,4,0,0,1,1.83.41,3.11,3.11,0,0,1,1.29,1.14,3,3,0,0,1,.47,1.66,3.68,3.68,0,0,1-.54,1.93,7.89,7.89,0,0,1-1.85,1.9L799.78,34h4.66v1.71h-7.57Z" transform="translate(0.5 0.5)"/></svg>