<svg width="614" height="345" viewBox="0 0 614 345" fill="none" xmlns="http://www.w3.org/2000/svg">
<rect x="171" y="131" width="181" height="70" rx="19" fill="#FEFCCC" stroke="black" stroke-width="2"/>
<rect x="432" y="185" width="181" height="70" rx="19" fill="#FEFCCC" stroke="black" stroke-width="2"/>
<rect x="432" y="95" width="181" height="70" rx="19" fill="#FEFCCC" stroke="black" stroke-width="2"/>
<rect x="432" y="185" width="181" height="70" rx="19" fill="#FEFCCC" stroke="black" stroke-width="2"/>
<rect x="432" y="95" width="181" height="70" rx="19" fill="#FEFCCC" stroke="black" stroke-width="2" stroke-dasharray="9 5"/>
<text fill="black" xml:space="preserve" style="white-space: pre" font-family="sans-serif" font-size="16" letter-spacing="0em"><tspan x="179" y="154.969">f7884&#10;</tspan></text>
<text fill="black" xml:space="preserve" style="white-space: pre" font-family="sans-serif" font-size="16" font-weight="bold" letter-spacing="0em"><tspan x="179" y="173.969">Add overview page</tspan></text>
<text fill="black" xml:space="preserve" style="white-space: pre" font-family="sans-serif" font-size="16" letter-spacing="0em"><tspan x="441" y="208.969">3f9b9&#10;</tspan></text>
<text fill="black" xml:space="preserve" style="white-space: pre" font-family="sans-serif" font-size="16" font-weight="bold" letter-spacing="0em"><tspan x="441" y="227.969">Fix exceedingly long </tspan><tspan x="441" y="246.969">submissions to API</tspan></text>
<text fill="#777777" xml:space="preserve" style="white-space: pre" font-family="sans-serif" font-size="16" font-weight="bold" letter-spacing="0em"><tspan x="439" y="137.969">Add padding to header</tspan></text>
<text fill="#777777" xml:space="preserve" style="white-space: pre" font-family="sans-serif" font-size="16" letter-spacing="0em"><tspan x="439" y="118.969">c3673&#10;</tspan></text>
<path d="M431.154 223.988C431.699 223.903 432.073 223.392 431.988 222.846L430.605 213.953C430.52 213.408 430.009 213.034 429.463 213.119C428.917 213.204 428.544 213.715 428.629 214.261L429.858 222.166L421.953 223.395C421.408 223.48 421.034 223.991 421.119 224.537C421.204 225.083 421.715 225.456 422.261 225.371L431.154 223.988ZM352.41 166.807L430.41 223.807L431.59 222.193L353.59 165.193L352.41 166.807Z" fill="black"/>
<path d="M431.938 130.346C432.129 129.827 431.864 129.253 431.346 129.062L422.901 125.95C422.382 125.759 421.808 126.025 421.617 126.543C421.426 127.061 421.691 127.636 422.209 127.827L429.716 130.593L426.95 138.099C426.759 138.618 427.025 139.193 427.543 139.383C428.061 139.574 428.636 139.309 428.827 138.791L431.938 130.346ZM353.419 166.908L431.419 130.908L430.581 129.092L352.581 165.092L353.419 166.908Z" fill="black"/>
<path d="M171.707 166.707C172.098 166.317 172.098 165.683 171.707 165.293L165.343 158.929C164.953 158.538 164.319 158.538 163.929 158.929C163.538 159.319 163.538 159.953 163.929 160.343L169.586 166L163.929 171.657C163.538 172.047 163.538 172.681 163.929 173.071C164.319 173.462 164.953 173.462 165.343 173.071L171.707 166.707ZM93 167H171V165H93V167Z" fill="black"/>
<rect x="448" y="1" width="150" height="49" fill="#5E9AED" stroke="black" stroke-width="2"/>
<text fill="black" xml:space="preserve" style="white-space: pre" font-family="sans-serif" font-size="16" letter-spacing="0em"><tspan x="502.281" y="30.9688">HEAD</tspan></text>
<rect x="448" y="295" width="150" height="49" fill="#74CCD3" stroke="black" stroke-width="2"/>
<text fill="black" xml:space="preserve" style="white-space: pre" font-family="sans-serif" font-size="16" letter-spacing="0em"><tspan x="510.547" y="324.969">wip</tspan></text>
<line x1="522.935" y1="294.435" x2="522.935" y2="267.435" stroke="black"/>
<rect x="528.728" y="262.718" width="8.5" height="8.5" transform="rotate(135 528.728 262.718)" fill="white" stroke="black"/>
<line x1="522.5" y1="50" x2="522.5" y2="83" stroke="black"/>
<rect x="516.707" y="87.7175" width="8.5" height="8.5" transform="rotate(-45 516.707 87.7175)" fill="white" stroke="black"/>
<text fill="black" xml:space="preserve" style="white-space: pre" font-family="sans-serif" font-size="16" letter-spacing="0em"><tspan x="34.6719" y="183.969">...</tspan></text>
</svg>
