<svg xmlns="http://www.w3.org/2000/svg" xmlns:xlink="http://www.w3.org/1999/xlink" viewBox="0 0 564.07 530.5"><defs><style>.cls-1{fill:url(#linear-gradient);}</style><linearGradient id="linear-gradient" x1="4866.39" y1="-1332.14" x2="5150.92" y2="-1641.25" gradientTransform="matrix(-1.38, -0.55, 0.44, -1.38, 7840.06, 1021.69)" gradientUnits="userSpaceOnUse"><stop offset="0" stop-color="#f99135"/><stop offset="0.28" stop-color="#e3614d"/><stop offset="0.49" stop-color="#d13961"/><stop offset="0.8" stop-color="#9c3696"/><stop offset="1" stop-color="#7f35b2"/></linearGradient></defs><g id="Layer_2" data-name="Layer 2"><g id="Layer_2-2" data-name="Layer 2"><path class="cls-1" d="M174.91,120c23-15.3,74.72-84.55,109.93-110.56,33.93-25,108.45,4.8,120.14,28.8,17.77,36.47,34.42,70.08,66.74,94.36,22.16,16.65,87.13,51,91.5,97.84,7.81,83.92-39.89,83.86-62,142.63-12.31,32.72-3.41,51.39-36,91.86-24.88,30.91-110.29.92-189.73,36.73-75.82,34.18-108.3,33.46-165.19,20.79-18.12-4-27.73-6.33-43.91-14.37C-34,458.24,2.9,379.75,27.05,318.46c17.53-44.51-13.54-98.82,13.62-133C72.05,145.92,129.63,150.21,174.91,120Z"/></g></g></svg>