<svg xmlns="http://www.w3.org/2000/svg" xmlns:xlink="http://www.w3.org/1999/xlink" viewBox="0 0 648.68 610.07"><defs><style>.cls-1{opacity:0.5;fill:url(#linear-gradient);}</style><linearGradient id="linear-gradient" x1="4889.7" y1="-1259.39" x2="5216.91" y2="-1614.88" gradientTransform="matrix(-1.38, -0.55, 0.44, -1.38, 7919.33, 1158.8)" gradientUnits="userSpaceOnUse"><stop offset="0" stop-color="#f99135"/><stop offset="0.28" stop-color="#e3614d"/><stop offset="0.49" stop-color="#d13961"/><stop offset="0.8" stop-color="#9c3696"/><stop offset="1" stop-color="#7f35b2"/></linearGradient></defs><g id="Layer_2" data-name="Layer 2"><g id="Layer_2-2" data-name="Layer 2"><path class="cls-1" d="M201.15,138.05c26.41-17.6,85.92-97.24,126.41-127.14,39-28.82,124.72,5.51,138.17,33.12,20.44,41.94,39.58,80.59,76.75,108.51C568,171.68,642.68,211.19,647.7,265.05c9,96.51-45.87,96.44-71.31,164-14.16,37.63-3.92,59.11-41.38,105.65-28.61,35.54-126.83,1-218.18,42.23-87.2,39.31-124.55,38.48-190,23.91C106,596.22,95,593.59,76.35,584.34-39.14,527,3.34,436.71,31.11,366.23c20.16-51.18-15.58-113.64,15.66-153C82.86,167.81,149.08,172.74,201.15,138.05Z"/></g></g></svg>