<svg xmlns="http://www.w3.org/2000/svg" xmlns:xlink="http://www.w3.org/1999/xlink" viewBox="0 0 745.98 701.59"><defs><style>.cls-1{opacity:0.5;fill:url(#linear-gradient);}</style><linearGradient id="linear-gradient" x1="4916.37" y1="-1176.99" x2="5292.66" y2="-1585.8" gradientTransform="matrix(-1.38, -0.55, 0.44, -1.38, 8010.84, 1314.67)" gradientUnits="userSpaceOnUse"><stop offset="0" stop-color="#f99135"/><stop offset="0.28" stop-color="#e3614d"/><stop offset="0.49" stop-color="#d13961"/><stop offset="0.8" stop-color="#9c3696"/><stop offset="1" stop-color="#7f35b2"/></linearGradient></defs><g id="Layer_2" data-name="Layer 2"><g id="Layer_2-2" data-name="Layer 2"><path class="cls-1" d="M231.32,158.75C261.69,138.52,330.13,46.93,376.7,12.54c44.87-33.13,143.42,6.34,158.89,38.09,23.5,48.23,45.52,92.68,88.26,124.79,29.31,22,115.23,67.45,121,129.38,10.34,111-52.74,110.91-82,188.64-16.28,43.27-4.51,68-47.59,121.48-32.9,40.88-145.85,1.22-250.91,48.58C264.08,708.7,221.12,707.75,145.88,691c-24-5.33-36.67-8.37-58.07-19-132.82-66-84-169.77-52-250.83C59,362.3,17.86,290.47,53.79,245.24,95.29,193,171.44,198.66,231.32,158.75Z"/></g></g></svg>