<svg xmlns="http://www.w3.org/2000/svg" viewBox="0 0 265.86 80"><defs><style>.cls-1{fill:#fff;}</style></defs><g id="Layer_2" data-name="Layer 2"><g id="bcbbcfe1-3b0e-4f12-993d-2c789763094e"><g id="ac422508-cc3a-4009-a94e-8df1579ab3d9"><path class="cls-1" d="M187.15,15.66H173.53a.71.71,0,0,0-.71.71v8.19a.71.71,0,0,0,.71.71h13.62a.71.71,0,0,0,.71-.71V16.37a.71.71,0,0,0-.71-.71"/><path class="cls-1" d="M112.49,52.33c-2.39,0-3.65-1-3.65-3.71V39.47h7.64a.72.72,0,0,0,.72-.72V30.16l10,33.49a1,1,0,0,0,.91.69h11.11a1,1,0,0,0,.93-.68L145,48.82l2.42,7.75,2.21,7.08a1,1,0,0,0,.92.69h11.18a1,1,0,0,0,.92-.69l10.2-33.59V63.64a.71.71,0,0,0,.71.71h13.63a.71.71,0,0,0,.71-.71V28.57a.71.71,0,0,0-.71-.71H160a1,1,0,0,0-.9.69l-3.48,13.34-.18.69L151.2,28.41a1,1,0,0,0-.92-.68H139.7a1,1,0,0,0-.91.68l-4,13.36-.21.68-.17-.69-1.68-6.61-1.69-6.6a1,1,0,0,0-.88-.69H108.84V16.4a.72.72,0,0,0-.92-.68L94.64,19.86A1.21,1.21,0,0,0,93.79,21v6.84H90.25a.71.71,0,0,0-.71.71V38.75a.72.72,0,0,0,.71.72h3.54V51.93c0,8.82,4.77,12.94,13.66,12.94A22.45,22.45,0,0,0,116.63,63a.77.77,0,0,0,.43-.71v-10a.7.7,0,0,0-.7-.71.57.57,0,0,0-.26,0A10.12,10.12,0,0,1,112.49,52.33Z"/><path class="cls-1" d="M205.09,15.66a.71.71,0,0,1,.71.71V63.64a.71.71,0,0,1-.71.71H191.46a.71.71,0,0,1-.71-.71V16.37a.71.71,0,0,1,.71-.71Z"/><rect class="cls-1" x="208.67" y="15.66" width="15.06" height="9.62" rx="0.71"/><rect class="cls-1" x="208.67" y="27.86" width="15.06" height="36.49" rx="0.71"/><path class="cls-1" d="M245.56,27c-11.94,0-20.42,8.75-20.42,19v.14c0,10.21,8.42,18.83,20.29,18.83s20.43-8.75,20.43-19v-.13c0-10.21-8.43-18.83-20.3-18.83m5.84,19.1a6,6,0,0,1-5.69,6.29h-.15a6.19,6.19,0,0,1-6-6.39v-.18a6,6,0,0,1,5.69-6.29h.15a6.19,6.19,0,0,1,6,6.39v.18Z"/><path class="cls-1" d="M40,0A40,40,0,1,0,80,40h0A40,40,0,0,0,40,0m0,69.46A29.46,29.46,0,1,1,69.46,40,29.46,29.46,0,0,1,40,69.46h0"/><path class="cls-1" d="M41.64,30A8.32,8.32,0,1,1,50,38.35h0A8.32,8.32,0,0,1,41.64,30h0"/><path class="cls-1" d="M41.64,50A8.32,8.32,0,1,1,50,58.28h0A8.32,8.32,0,0,1,41.64,50h0"/><path class="cls-1" d="M21.72,50A8.32,8.32,0,1,1,30,58.28h0A8.31,8.31,0,0,1,21.72,50h0"/><path class="cls-1" d="M21.72,30A8.32,8.32,0,1,1,30,38.35h0A8.31,8.31,0,0,1,21.72,30h0"/></g></g></g></svg>