<svg xmlns="http://www.w3.org/2000/svg" viewBox="0 0 337.65 72"><defs><style>.cls-1{fill:#fff;}</style></defs><g id="Layer_2" data-name="Layer 2"><g id="MS-symbol"><path class="cls-1" d="M140.35,14.4V57.6h-7.5V23.74h-.12L119.32,57.6h-5L100.62,23.74h-.09V57.6H93.6V14.4h10.75l12.41,32h.18l13.11-32Zm6.28,3.28a4,4,0,0,1,1.31-3,4.65,4.65,0,0,1,6.31,0,4.1,4.1,0,0,1,1.26,3,3.9,3.9,0,0,1-1.29,3,4.47,4.47,0,0,1-3.17,1.21,4.39,4.39,0,0,1-3.14-1.22A3.91,3.91,0,0,1,146.63,17.68Zm8,9v31h-7.29v-31ZM176.78,52.3a9.94,9.94,0,0,0,3.59-.76,14.76,14.76,0,0,0,3.61-2v6.78a14.24,14.24,0,0,1-4,1.51,21.73,21.73,0,0,1-4.87.51A14.73,14.73,0,0,1,159.76,43a17.67,17.67,0,0,1,4.37-12.31q4.37-4.83,12.38-4.83a16.89,16.89,0,0,1,4.14.52A13.74,13.74,0,0,1,184,27.59v7a14.75,14.75,0,0,0-3.45-1.91,10,10,0,0,0-3.6-.68,9.17,9.17,0,0,0-7,2.8,10.59,10.59,0,0,0-2.65,7.56,10.07,10.07,0,0,0,2.55,7.33A9.2,9.2,0,0,0,176.78,52.3Zm28-26.18a9.16,9.16,0,0,1,1.56.12,6.49,6.49,0,0,1,1.18.3v7.38a6.35,6.35,0,0,0-1.67-.8,8.38,8.38,0,0,0-2.67-.38A5.66,5.66,0,0,0,198.61,35q-1.86,2.27-1.86,7V57.6h-7.29v-31h7.29v4.88h.12a8.54,8.54,0,0,1,3-4A8.11,8.11,0,0,1,204.74,26.12Zm3.13,16.45c0-5.13,1.45-9.18,4.34-12.18s6.91-4.48,12-4.48q7.26,0,11.34,4.32t4.09,11.67q0,7.53-4.34,12t-11.81,4.46q-7.2,0-11.43-4.23T207.87,42.57Zm7.6-.25q0,4.86,2.19,7.42A7.88,7.88,0,0,0,224,52.3,7.38,7.38,0,0,0,230,49.74q2.07-2.57,2.07-7.6c0-3.33-.71-5.85-2.15-7.54a7.48,7.48,0,0,0-6-2.55,7.64,7.64,0,0,0-6.22,2.67C216.2,36.49,215.47,39,215.47,42.32Zm35.06-7.56a3.1,3.1,0,0,0,1,2.46,16.85,16.85,0,0,0,4.39,2.24,14.93,14.93,0,0,1,6.13,3.93,8.14,8.14,0,0,1,1.77,5.29,8.51,8.51,0,0,1-3.36,7q-3.36,2.65-9.09,2.65a21.3,21.3,0,0,1-4.26-.47,18.49,18.49,0,0,1-4-1.19V49.52a17.69,17.69,0,0,0,4.28,2.2,12.33,12.33,0,0,0,4.16.82,7.29,7.29,0,0,0,3.64-.7,2.48,2.48,0,0,0,1.18-2.32A3.22,3.22,0,0,0,255.19,47a18.54,18.54,0,0,0-4.63-2.4,14.25,14.25,0,0,1-5.72-3.79,8.3,8.3,0,0,1-1.69-5.36,8.48,8.48,0,0,1,3.33-6.89,13.27,13.27,0,0,1,8.63-2.69,21.08,21.08,0,0,1,3.65.36,16.1,16.1,0,0,1,3.37.93v6.93a16,16,0,0,0-3.37-1.66,11.36,11.36,0,0,0-3.83-.69,5.58,5.58,0,0,0-3.24.81A2.6,2.6,0,0,0,250.53,34.76ZM267,42.57c0-5.13,1.44-9.18,4.34-12.18s6.91-4.48,12-4.48q7.26,0,11.34,4.32t4.08,11.67q0,7.53-4.34,12t-11.81,4.46q-7.2,0-11.43-4.23T267,42.57Zm7.59-.25q0,4.86,2.2,7.42A7.86,7.86,0,0,0,283,52.3a7.35,7.35,0,0,0,6-2.56q2.09-2.57,2.08-7.6c0-3.33-.72-5.85-2.15-7.54a7.48,7.48,0,0,0-6-2.55,7.64,7.64,0,0,0-6.23,2.67C275.28,36.49,274.54,39,274.54,42.32ZM323,32.59H312.09v25h-7.38v-25h-5.18v-6h5.18V22.32a10.73,10.73,0,0,1,3.18-8A11.14,11.14,0,0,1,316,11.2a18.22,18.22,0,0,1,2.35.14,9.21,9.21,0,0,1,1.8.41V18a7.47,7.47,0,0,0-1.26-.51,6.61,6.61,0,0,0-2.08-.3,4.43,4.43,0,0,0-3.53,1.43,6.34,6.34,0,0,0-1.23,4.23v3.74H323v-7l7.32-2.23v9.19h7.38v6h-7.38V47.08c0,1.91.34,3.26,1,4a4.16,4.16,0,0,0,3.27,1.18A4.7,4.7,0,0,0,336.1,52a7.18,7.18,0,0,0,1.55-.72v6a8.52,8.52,0,0,1-2.31.72,15.73,15.73,0,0,1-3.17.33c-3.08,0-5.38-.82-6.92-2.45s-2.3-4.11-2.3-7.4Z"/><rect class="cls-1" width="34.22" height="34.22"/><rect class="cls-1" x="37.78" width="34.22" height="34.22"/><rect class="cls-1" y="37.78" width="34.22" height="34.22"/><rect class="cls-1" x="37.78" y="37.78" width="34.22" height="34.22"/></g></g></svg>