<svg xmlns="http://www.w3.org/2000/svg" viewBox="0 0 538.91 128.25"><defs><style>.cls-1{fill:#fff;}</style></defs><g id="Layer_2" data-name="Layer 2"><g id="LOGO"><path class="cls-1" d="M93.18,102.28h7.25a13.86,13.86,0,0,1,3.45.41,7.88,7.88,0,0,1,2.84,1.33,6.62,6.62,0,0,1,2,2.32,7.49,7.49,0,0,1,.72,3.42v.14a7.74,7.74,0,0,1-.72,3.48,6.7,6.7,0,0,1-2,2.36,8.11,8.11,0,0,1-2.84,1.32,13.86,13.86,0,0,1-3.45.41H96.26v10.37h-3.1ZM100.7,115a6,6,0,0,0,4.18-1.3,4.87,4.87,0,0,0,1.43-3.77v-.15a4.5,4.5,0,0,0-1.5-3.84,6.72,6.72,0,0,0-4.11-1.13H96.33V115Z"/><path class="cls-1" d="M117.77,128.16a9.06,9.06,0,0,1-2.43-.32,5.38,5.38,0,0,1-2-1,4.73,4.73,0,0,1-1.32-1.72,5.82,5.82,0,0,1-.48-2.47,4.59,4.59,0,0,1,.78-2.71,5.73,5.73,0,0,1,2.09-1.79,10.6,10.6,0,0,1,3-1,19.33,19.33,0,0,1,3.48-.31h2.68V115.5a4.58,4.58,0,0,0-.87-3.16,4.09,4.09,0,0,0-3.07-1c-2.58,0-4,1.11-4.29,3.33h-3a6.36,6.36,0,0,1,.81-2.72,5.56,5.56,0,0,1,1.68-1.8,6.75,6.75,0,0,1,2.28-1,11.06,11.06,0,0,1,2.63-.31,10.57,10.57,0,0,1,2.57.31,5.34,5.34,0,0,1,2.19,1.07,5.67,5.67,0,0,1,1.5,2,8.1,8.1,0,0,1,.57,3.26v12.36h-3v-2.36a7,7,0,0,1-2.39,2A7.71,7.71,0,0,1,117.77,128.16Zm.28-2.36a7.49,7.49,0,0,0,2.2-.3,5.34,5.34,0,0,0,1.75-.88,4.06,4.06,0,0,0,1.59-3.32V119H121a16.05,16.05,0,0,0-2.59.2,7.58,7.58,0,0,0-2.08.63,3.42,3.42,0,0,0-1.35,1.12,3,3,0,0,0-.49,1.73,3.22,3.22,0,0,0,.79,2.31A3.66,3.66,0,0,0,118.05,125.8Z"/><path class="cls-1" d="M131.92,109.14h3v3.36a8.42,8.42,0,0,1,1-1.44,5.84,5.84,0,0,1,3-1.92,8.68,8.68,0,0,1,2.21-.32v2.79a13.53,13.53,0,0,0-2.53.36,4.73,4.73,0,0,0-2,1,4.36,4.36,0,0,0-1.24,1.81,8.06,8.06,0,0,0-.42,2.84v10.22h-3Z"/><path class="cls-1" d="M150.75,128.09a4.87,4.87,0,0,1-3.8-1.36,5.14,5.14,0,0,1-1.24-3.58v-11.5H143v-2.51h2.67v-4.25h3v4.25h4.36v2.51H148.7v11.22c0,1.81.77,2.72,2.32,2.72a6.53,6.53,0,0,0,1.25-.11,7.12,7.12,0,0,0,1-.29v2.5a5.73,5.73,0,0,1-1,.29A8.57,8.57,0,0,1,150.75,128.09Z"/><path class="cls-1" d="M173.63,128.16a9.29,9.29,0,0,1-3.68-.72,8.56,8.56,0,0,1-2.9-2,8.87,8.87,0,0,1-1.89-3,10.46,10.46,0,0,1-.68-3.79v-.31a10.19,10.19,0,0,1,.7-3.86,8.93,8.93,0,0,1,1.91-3,8.16,8.16,0,0,1,2.89-2,10,10,0,0,1,7.35,0,8.33,8.33,0,0,1,2.91,2,8.93,8.93,0,0,1,1.91,3,10.19,10.19,0,0,1,.7,3.86v.29a10.24,10.24,0,0,1-.7,3.87,8.83,8.83,0,0,1-1.93,3,8.6,8.6,0,0,1-2.91,2A9.49,9.49,0,0,1,173.63,128.16Zm0-2.5a6.33,6.33,0,0,0,2.54-.5,5.3,5.3,0,0,0,1.93-1.42,6.56,6.56,0,0,0,1.22-2.23,9.23,9.23,0,0,0,.43-2.86v-.25a9.54,9.54,0,0,0-.43-2.91,6.4,6.4,0,0,0-1.24-2.24,5.32,5.32,0,0,0-1.93-1.43,6.57,6.57,0,0,0-5,0,5.16,5.16,0,0,0-1.93,1.43,6.52,6.52,0,0,0-1.22,2.22,9.52,9.52,0,0,0-.43,2.9v.28a7.53,7.53,0,0,0,1.63,5.1,5.59,5.59,0,0,0,4.48,1.89Z"/><path class="cls-1" d="M187.64,111.65H185v-2.51h2.68v-3A6.48,6.48,0,0,1,189,101.7a5.34,5.34,0,0,1,4.18-1.57,5.81,5.81,0,0,1,1.18.09,8.68,8.68,0,0,1,1,.27V103a3.94,3.94,0,0,0-1-.29,6.42,6.42,0,0,0-1.16-.11,2.4,2.4,0,0,0-2.09.89,3.93,3.93,0,0,0-.62,2.31v3.34h4.57v2.51h-4.57v16.16h-3Z"/><path class="cls-1" d="M213.62,102.28h7.54l8.3,25.56h-6l-1.76-5.69h-9.26l-1.74,5.69h-5.44Zm0,15.76h6.75L217,107Z"/><path class="cls-1" d="M239.07,128.23a11.2,11.2,0,0,1-3.81-.63,8.36,8.36,0,0,1-5.07-4.82,10.43,10.43,0,0,1-.73-4.06v-.28a10.45,10.45,0,0,1,.75-4.06,8.71,8.71,0,0,1,5.14-5,10.49,10.49,0,0,1,3.76-.66,13.12,13.12,0,0,1,3.12.37,8,8,0,0,1,2.74,1.23,7.11,7.11,0,0,1,2,2.26,8.38,8.38,0,0,1,1,3.39h-4.9a3.67,3.67,0,0,0-1.19-2.39,4.5,4.5,0,0,0-5.85.65,6.22,6.22,0,0,0-1.21,4.12v.28a6.48,6.48,0,0,0,1.19,4.24,4.19,4.19,0,0,0,3.38,1.43,4.24,4.24,0,0,0,2.7-.89,3.71,3.71,0,0,0,1.3-2.69h4.69a8.55,8.55,0,0,1-.75,3.06,6.84,6.84,0,0,1-1.79,2.34,8,8,0,0,1-2.75,1.56A11.19,11.19,0,0,1,239.07,128.23Z"/><path class="cls-1" d="M258.37,128.23a11.18,11.18,0,0,1-3.8-.63,8.33,8.33,0,0,1-5.08-4.82,10.43,10.43,0,0,1-.73-4.06v-.28a10.45,10.45,0,0,1,.75-4.06,8.71,8.71,0,0,1,5.14-5,10.49,10.49,0,0,1,3.76-.66,13.12,13.12,0,0,1,3.12.37,8,8,0,0,1,2.74,1.23,7,7,0,0,1,2,2.26,8.38,8.38,0,0,1,1,3.39h-4.9a3.67,3.67,0,0,0-1.19-2.39,4.5,4.5,0,0,0-5.85.65,6.22,6.22,0,0,0-1.21,4.12v.28a6.48,6.48,0,0,0,1.19,4.24,4.19,4.19,0,0,0,3.38,1.43,4.24,4.24,0,0,0,2.7-.89,3.64,3.64,0,0,0,1.3-2.69h4.69a8.29,8.29,0,0,1-.75,3.06,6.84,6.84,0,0,1-1.79,2.34,8,8,0,0,1-2.75,1.56A11.19,11.19,0,0,1,258.37,128.23Z"/><path class="cls-1" d="M277.82,128.23a11.24,11.24,0,0,1-3.9-.64,8.89,8.89,0,0,1-5.13-4.86,10.32,10.32,0,0,1-.73-4v-.28a10.51,10.51,0,0,1,.73-4,8.88,8.88,0,0,1,2.06-3.07,9.17,9.17,0,0,1,3-2,10.22,10.22,0,0,1,3.79-.69,10.77,10.77,0,0,1,3.47.55,8.12,8.12,0,0,1,2.89,1.7,7.92,7.92,0,0,1,2,3,11.08,11.08,0,0,1,.75,4.3v1.43H273.31a5.48,5.48,0,0,0,1.31,3.63,5.25,5.25,0,0,0,6.07.55,3.07,3.07,0,0,0,1.16-1.89h4.9a6.66,6.66,0,0,1-2.77,4.66A10.47,10.47,0,0,1,277.82,128.23Zm3.93-11.76a4.71,4.71,0,0,0-1.18-3.16,4.49,4.49,0,0,0-5.78.07,5.2,5.2,0,0,0-1.41,3.09Z"/><path class="cls-1" d="M288.82,109.14H294v3a6.27,6.27,0,0,1,2.21-2.39,6.81,6.81,0,0,1,3.86-1,7.36,7.36,0,0,1,2.54.42,5.6,5.6,0,0,1,2,1.29,6.26,6.26,0,0,1,1.29,2.27,10.16,10.16,0,0,1,.46,3.24v11.9h-5.18V116.69a4.33,4.33,0,0,0-.79-2.85,3.14,3.14,0,0,0-2.5-.91A3.65,3.65,0,0,0,294,117v10.8h-5.19Z"/><path class="cls-1" d="M316.27,128.19a6.21,6.21,0,0,1-4.5-1.48,5.87,5.87,0,0,1-1.54-4.41v-9.47h-2.39v-3.69h2.39v-4h5.15v4h3.93v3.69h-3.93v9a2.32,2.32,0,0,0,.52,1.66,2,2,0,0,0,1.55.56,6.23,6.23,0,0,0,1.06-.09,4.76,4.76,0,0,0,.91-.27v4a9.83,9.83,0,0,1-1.32.34A9.36,9.36,0,0,1,316.27,128.19Z"/><path class="cls-1" d="M327.78,128.23a7.44,7.44,0,0,1-2.52-.41,5.34,5.34,0,0,1-2-1.27,5.8,5.8,0,0,1-1.34-2.2,9.44,9.44,0,0,1-.48-3.16v-12h5.15v11.33a4.18,4.18,0,0,0,.82,2.81,3.08,3.08,0,0,0,2.43,1,3.7,3.7,0,0,0,3.91-3.48,4.42,4.42,0,0,0,0-.63v-11h5.15v18.7H333.7v-2.93a6,6,0,0,1-2.16,2.37A6.7,6.7,0,0,1,327.78,128.23Z"/><path class="cls-1" d="M342.08,109.14h5.18v3.58a6.89,6.89,0,0,1,2.32-2.86,6.7,6.7,0,0,1,3.72-1v4.82a7.84,7.84,0,0,0-4.47,1,4.23,4.23,0,0,0-1.57,3.75v9.37h-5.18Z"/><path class="cls-1" d="M363.59,128.23a11.46,11.46,0,0,1-3.89-.64,8.89,8.89,0,0,1-5.13-4.86,10.32,10.32,0,0,1-.73-4v-.28a10.51,10.51,0,0,1,.73-4,8.88,8.88,0,0,1,2.06-3.07,9.17,9.17,0,0,1,3-2,10.22,10.22,0,0,1,3.79-.69,10.77,10.77,0,0,1,3.47.55,8.12,8.12,0,0,1,2.89,1.7,7.92,7.92,0,0,1,2,3,11.08,11.08,0,0,1,.75,4.3v1.43H359.09a5.48,5.48,0,0,0,1.31,3.63,5.25,5.25,0,0,0,6.07.55,3.07,3.07,0,0,0,1.16-1.89h4.9a6.66,6.66,0,0,1-2.77,4.66A10.43,10.43,0,0,1,363.59,128.23Zm3.94-11.76a4.71,4.71,0,0,0-1.18-3.16,4.49,4.49,0,0,0-5.78.07,5.2,5.2,0,0,0-1.41,3.09Z"/><path class="cls-1" d="M93.18,14.22h6.36V36.48h41.35V14.22h6.36V66.77h-6.36V42.12H99.54V66.77H93.18Z"/><path class="cls-1" d="M197.12,58.89c-3.9,4.12-7.66,9-20.53,9-12.72,0-21.4-8.68-21.4-20.24,0-12,9-19.88,20.68-19.88,12.07,0,22.63,6.29,22.34,21.25H161.05c.58,7.09,6.29,13.88,16.12,13.88s13-4.41,15.4-7.37Zm-5.28-14.82c-1.15-6.21-6.5-11.27-15.47-11.27-8.6,0-13.44,4.33-15.1,11.27Z"/><path class="cls-1" d="M243.61,60.92a29.45,29.45,0,0,0,.65,5.85H238.4a20.56,20.56,0,0,1-.72-4.55,34,34,0,0,1-18.87,5.71c-6.22,0-15.4-1.74-15.4-11.49,0-13.09,19.59-13.6,34.34-15.33V39.66c0-5.13-6.14-7.08-12.14-7.08-10.05,0-13.59,4.19-15.48,6.36l-4.41-3c2.17-2.67,6.3-8.09,19.45-8.09,8.6,0,18.44,2.53,18.44,12.22Zm-5.86-15C220.54,47.58,209,49.17,209,56.48c0,5.92,6.65,6.72,9.54,6.72,8.17,0,15.47-3.91,19.23-5.93Z"/><path class="cls-1" d="M296.09,14.22V59.69c0,1,.36,5.93.43,7.08h-5.27l-.73-5.93c-5.71,4.63-9.54,7.09-18.21,7.09-14.61,0-20.68-11.13-20.68-19.74s5.49-20.38,21.69-20.38c7.8,0,11.71,2.53,16.91,6.36v-20Zm-5.86,26c-3.47-3.61-8.38-7.44-16.55-7.44-7.81,0-16.19,4-16.19,15.54,0,7.81,6.07,14.6,16.33,14.6,6.29,0,12.8-4.12,16.41-8Z"/><path class="cls-1" d="M307.8,55c3.69,4.63,9.18,7.95,17.13,7.95,6.22,0,11.86-1.95,11.86-6.43,0-10.7-31.45-1.59-31.45-17.21,0-8.6,8.82-11.49,16.77-11.49,12.73,0,17.35,5.42,19.31,8.17l-4,3.61c-3.11-4-7.95-6.79-15.4-6.79-6.94,0-10.84,2.16-10.84,6.14,0,9.76,31.44.94,31.44,17.13,0,8.68-8.53,11.86-18.21,11.86-8.39,0-15.33-2.39-21-9Z"/><path class="cls-1" d="M351.1,29H357v5.72c5.42-4.41,9.25-6.87,17.93-6.87,14.6,0,20.67,11.13,20.67,19.73s-5.49,20.39-21.69,20.39c-7.81,0-11.71-2.53-16.91-6.36v18.5H351.1ZM357,55.5c3.47,3.61,8.38,7.44,16.55,7.44,7.81,0,16.19-4,16.19-15.54,0-7.81-6.07-14.6-16.33-14.6-6.29,0-12.8,4.12-16.41,8Z"/><path class="cls-1" d="M401.84,29h5.86v7.88c3.4-3.83,8.17-9,15.76-9a17.55,17.55,0,0,1,3.47.29V34a26.5,26.5,0,0,0-4.7-.5c-8.32,0-14.32,9.61-14.53,10.69V66.8h-5.86Z"/><path class="cls-1" d="M441.39,14.22v6.72H434.7V14.22ZM435.17,29H441V66.77h-5.86Z"/><path class="cls-1" d="M451.51,29h5.86v5.5c4-3.47,9.18-6.65,15.9-6.65,4.7,0,15.62,1.08,15.62,14V66.75H483V43c.15-9-6.36-10.19-10.48-10.19-6.44,0-11.78,4-15.18,7.59V66.77h-5.86Z"/><path class="cls-1" d="M538.7,32.87c-4.34,0-5.93.94-7.09,1.59a11.59,11.59,0,0,1,2.1,7.3c0,4.77-4.27,12.94-17.64,12.94-5.57,0-7.45-.51-10.92-1.81-1.8.65-2.67,1.67-2.67,3.11,0,2.53,1.45,3,14.75,3.11,14.24.14,21.68,1.23,21.68,9.33,0,10.12-14.24,11.63-24.36,11.63-7.81,0-20.24-1.44-20.24-10.62,0-2.75,1.45-5.21,6.43-6.94-2.09-1.16-4.12-2.24-4.12-5.28,0-3.47,3.26-5.42,5.21-6.58-3.13-2.82-5.13-5.2-5.13-9.54,0-9.62,8.67-13.3,18.07-13.3,6.43,0,10,.86,14.17,3.54,3.11-2.53,4.7-3.83,9.76-3.83ZM533.28,69c0-3.32-2.68-4-13.31-4.41-4.62-.14-9.18-.28-13.8-.5-4,1.44-6.22,2.89-6.22,5.42,0,4.41,7.73,5.78,14.53,5.78,9.82,0,18.79-1.52,18.79-6.29Zm-31-27.83c0,7.45,8.82,8.75,13,8.75,5.71,0,12.79-1.88,12.79-8.75,0-7.3-7.52-8.6-12.94-8.6s-12.81,1.59-12.81,8.6Z"/><polygon class="cls-1" points="76.42 32.05 63.77 32.05 63.77 28.08 51.45 28.08 51.45 23.36 40.89 23.36 40.89 33.92 50.56 33.92 50.56 35.5 40.89 35.5 40.89 46.07 50.56 46.07 50.56 47.65 40.89 47.65 40.89 58.21 51.45 58.21 51.45 53.42 63.77 53.42 63.77 48.55 76.42 48.55 76.42 32.05"/><rect class="cls-1" x="30.94" y="18.64" width="8.45" height="8.45"/><rect class="cls-1" x="30.94" y="30.84" width="8.45" height="8.45"/><rect class="cls-1" x="30.94" y="43.03" width="8.45" height="8.45"/><rect class="cls-1" x="30.94" y="55.23" width="8.45" height="8.45"/><rect class="cls-1" x="20.78" y="12.63" width="6.76" height="6.76"/><rect class="cls-1" x="20.78" y="25.5" width="6.76" height="6.76"/><rect class="cls-1" x="20.78" y="38.38" width="6.76" height="6.76"/><rect class="cls-1" x="20.78" y="51.25" width="6.76" height="6.76"/><rect class="cls-1" x="20.78" y="64.12" width="6.76" height="6.76"/><rect class="cls-1" x="10.46" y="6.05" width="5.41" height="5.41"/><rect class="cls-1" x="10.46" y="19.1" width="5.41" height="5.41"/><rect class="cls-1" x="10.46" y="32.16" width="5.41" height="5.41"/><rect class="cls-1" x="10.46" y="45.21" width="5.41" height="5.41"/><rect class="cls-1" x="10.46" y="58.27" width="5.41" height="5.41"/><rect class="cls-1" x="10.46" y="71.32" width="5.41" height="5.41"/><rect class="cls-1" width="4.33" height="4.33"/><rect class="cls-1" y="13.13" width="4.33" height="4.33"/><rect class="cls-1" y="26.26" width="4.33" height="4.33"/><rect class="cls-1" y="39.39" width="4.33" height="4.33"/><rect class="cls-1" y="52.52" width="4.33" height="4.33"/><rect class="cls-1" y="65.64" width="4.33" height="4.33"/><rect class="cls-1" y="78.77" width="4.33" height="4.33"/></g></g></svg>