<svg xmlns="http://www.w3.org/2000/svg" viewBox="0 0 94.98 22.15"><defs><style>.cls-1{fill:#fff;}</style></defs><g id="Layer_2" data-name="Layer 2"><g id="Layer_1-2" data-name="Layer 1"><path class="cls-1" d="M4.11,5.48,0,7.83l6.39,3.71v7.38l4.11-2.35a.76.76,0,0,0,.33-.59V9L4.77,5.48A.7.7,0,0,0,4.11,5.48Z"/><path class="cls-1" d="M4.44,17.78v-5.1L0,15.25ZM9.18.08a.7.7,0,0,0-.66,0L3.93,2.73l8.85,5.1V18.07l4.59-2.64a.76.76,0,0,0,.33-.59V5Z"/><path class="cls-1" d="M43.28,8.27A4.1,4.1,0,0,0,39.69,10a5.7,5.7,0,0,0-1,3.3c0,3.05,1.8,5,4.59,5,3.38,0,4.59-2.71,4.59-5.06a5.35,5.35,0,0,0-1.14-3.46A4.41,4.41,0,0,0,43.28,8.27Zm0,8.22c-1.54,0-2.53-1.24-2.53-3.23s1-3.26,2.53-3.26,2.54,1.24,2.54,3.23S44.83,16.49,43.28,16.49ZM27.46,5H22.65V18.07h2.13V12.93H27.5c2.94,0,4.55-1.43,4.55-4C32,7.76,31.57,5,27.46,5Zm-.26,6H24.78V7H27.5c1.58,0,2.35.66,2.35,2S29.08,11,27.2,11ZM37,8.34a2.56,2.56,0,0,0-1.91,1.29V8.45H33.19V18h2V13.92c0-1.91.15-3.52,2.17-3.52a1.93,1.93,0,0,1,.62.11l.26.07.37-1.94-.15-.08A3.42,3.42,0,0,0,37,8.34ZM90.2,12.79A19.48,19.48,0,0,0,88,12.16c-.37-.11-.7-.18-.92-.26-.74-.22-1.1-.51-1.1-1,0-.92,1.28-1,1.83-1s1.76.19,2,1.29l0,.14h1.91v-.18c-.14-1.95-1.47-2.86-4-2.86-1.87,0-3.75.88-3.75,2.79a2.49,2.49,0,0,0,1.91,2.31c.48.18,1.29.4,2.06.62.44.11.88.26,1.21.33.59.19.88.52.88,1,0,.88-1.06,1.21-2,1.21s-2-.26-2.28-1.43l0-.15H83.74l0,.22c.18,2,1.69,3,4.19,3,2.82,0,4.11-1.54,4.11-3.08A2.5,2.5,0,0,0,90.2,12.79ZM55.69,9.26a3.39,3.39,0,0,0-2.57-1c-2.9,0-4.22,2.57-4.22,5s1.32,4.92,4.22,4.92a3.37,3.37,0,0,0,2.46-1,8.23,8.23,0,0,1,0,1,2.15,2.15,0,0,1-2.39,2.31c-.84,0-1.8-.3-2-1.14l0-.18H49.2l0,.25c.22,1.69,1.69,2.76,3.89,2.76a4.12,4.12,0,0,0,4-2.1,6.58,6.58,0,0,0,.48-2.86V8.49H55.69Zm-2.42,7.09c-.7,0-2.31-.33-2.31-3.23,0-1.91.92-3.09,2.35-3.09,1.14,0,2.31.81,2.31,3.09C55.66,15.14,54.78,16.35,53.27,16.35ZM81,12.79a20.33,20.33,0,0,0-2.24-.63c-.37-.11-.7-.18-.92-.26-.74-.22-1.1-.51-1.1-1,0-.92,1.28-1,1.83-1s1.77.19,2,1.29l0,.14h1.9v-.18c-.14-1.95-1.46-2.86-4-2.86-1.87,0-3.75.88-3.75,2.79a2.49,2.49,0,0,0,1.91,2.31c.48.18,1.29.4,2.06.62.44.11.88.26,1.21.33.59.19.88.52.88,1,0,.88-1.06,1.21-2,1.21s-2-.26-2.28-1.43l0-.15H74.56l0,.22c.18,2,1.69,3,4.19,3,2.82,0,4.11-1.54,4.11-3.08A2.42,2.42,0,0,0,81,12.79Zm-7.31,0c-.11-2.68-1.84-4.48-4.37-4.48A4.21,4.21,0,0,0,65.86,10a5.63,5.63,0,0,0-1,3.34c0,3,1.83,5,4.58,5a3.91,3.91,0,0,0,4.12-3.05l.07-.22h-2l0,.11a2.11,2.11,0,0,1-2.17,1.43,2.51,2.51,0,0,1-2.57-2.61h6.8l0-.18a5,5,0,0,0,0-.77ZM67,12.2A2.31,2.31,0,0,1,69.35,10a2.24,2.24,0,0,1,2.31,2.17ZM63.11,8.34A2.56,2.56,0,0,0,61.2,9.63V8.45H59.33V18h2V13.92c0-1.91.15-3.52,2.17-3.52a1.93,1.93,0,0,1,.62.11l.26.07.37-1.94-.15-.08A3.42,3.42,0,0,0,63.11,8.34ZM94.24,7.9a.48.48,0,0,0-.51-.51h-.66V8.82h.4V8.38h.11l.3.44h.44L94,8.31a.4.4,0,0,0,.25-.41Zm-.55.15h-.22V7.72h.22a.17.17,0,0,1,.19.15C93.88,8,93.8,8.05,93.69,8.05Z"/><path class="cls-1" d="M93.62,6.76a1.35,1.35,0,0,0-1.36,1.36,1.33,1.33,0,0,0,1.36,1.36A1.36,1.36,0,0,0,95,8.12,1.34,1.34,0,0,0,93.62,6.76Zm0,2.5a1.09,1.09,0,0,1-1.1-1.14,1.1,1.1,0,1,1,2.2,0A1.11,1.11,0,0,1,93.62,9.26Z"/></g></g></svg>