<svg xmlns="http://www.w3.org/2000/svg" xmlns:xlink="http://www.w3.org/1999/xlink" viewBox="0 0 885.15 851.38"><defs><style>.cls-1{opacity:0.5;fill:url(#linear-gradient);}</style><linearGradient id="linear-gradient" x1="876.49" y1="336.53" x2="-93" y2="559.22" gradientUnits="userSpaceOnUse"><stop offset="0" stop-color="#f99135"/><stop offset="0.28" stop-color="#e3614d"/><stop offset="0.49" stop-color="#d13961"/><stop offset="0.8" stop-color="#9c3696"/><stop offset="1" stop-color="#7f35b2"/></linearGradient></defs><g id="Layer_2" data-name="Layer 2"><g id="Layer_2-2" data-name="Layer 2"><path class="cls-1" d="M63.62,503.63c4.42,40-35,162.61-31.82,226.31,3.06,61.38,130.29,116.85,177.7,107.49,72-14.21,138.69-27,210-13.53,48.88,9.23,171.63,49.81,243.09,10.91,128.07-69.69,73.67-123,131.93-202.67C826.92,587.78,863.57,580.28,884,506,899.5,449.3,759.67,381.78,720.07,259.43,682.28,142.66,644.27,107,561.5,55.19,535.15,38.7,521,30.09,491.1,19.5,305.92-46.23,236.53,68.45,177,152.75,133.77,214,21.27,230,3.63,292.33-16.75,364.37,54.91,424.77,63.62,503.63Z"/></g></g></svg>