<svg xmlns="http://www.w3.org/2000/svg" xmlns:xlink="http://www.w3.org/1999/xlink" viewBox="0 0 1017.92 979.08"><defs><style>.cls-1{opacity:0.5;fill:url(#linear-gradient);}</style><linearGradient id="linear-gradient" x1="943" y1="401.93" x2="-26.49" y2="624.63" gradientUnits="userSpaceOnUse"><stop offset="0" stop-color="#f99135"/><stop offset="0.28" stop-color="#e3614d"/><stop offset="0.49" stop-color="#d13961"/><stop offset="0.8" stop-color="#9c3696"/><stop offset="1" stop-color="#7f35b2"/></linearGradient></defs><g id="Layer_2" data-name="Layer 2"><g id="Layer_2-2" data-name="Layer 2"><path class="cls-1" d="M73.16,579.17c5.08,46-40.23,187-36.59,260.26C40.09,910,186.4,973.81,240.92,963.05c82.82-16.34,159.5-31,241.46-15.57,56.21,10.62,197.37,57.28,279.56,12.56C909.21,879.88,846.65,818.58,913.65,727c37.31-51,79.46-59.64,102.89-145,17.89-65.23-142.91-142.87-188.46-283.57-43.46-134.29-87.17-175.3-182.36-234.88-30.3-19-46.63-28.87-81-41C351.81-53.17,272,78.72,203.55,175.67,153.84,246.06,24.46,264.46,4.17,336.18-19.26,419,63.14,488.48,73.16,579.17Z"/></g></g></svg>