<svg xmlns="http://www.w3.org/2000/svg" xmlns:xlink="http://www.w3.org/1999/xlink" viewBox="0 0 769.69 740.33"><defs><style>.cls-1{fill:url(#linear-gradient);}</style><linearGradient id="linear-gradient" x1="820.26" y1="279.29" x2="-149.23" y2="501.98" gradientUnits="userSpaceOnUse"><stop offset="0" stop-color="#f99135"/><stop offset="0.28" stop-color="#e3614d"/><stop offset="0.49" stop-color="#d13961"/><stop offset="0.8" stop-color="#9c3696"/><stop offset="1" stop-color="#7f35b2"/></linearGradient></defs><g id="Layer_2" data-name="Layer 2"><g id="Layer_2-2" data-name="Layer 2"><path class="cls-1" d="M55.32,437.94c3.84,34.77-30.42,141.4-27.66,196.79C30.31,688.1,141,736.34,182.17,728.2c62.62-12.35,120.61-23.47,182.58-11.77,42.5,8,149.24,43.32,211.38,9.49C687.5,665.32,640.19,619,690.85,549.68c28.21-38.57,60.08-45.09,77.8-109.67,13.53-49.32-108.06-108-142.5-214.42C593.28,124.06,560.23,93,488.26,48,465.34,33.65,453,26.16,427.05,17,266-40.2,205.68,59.52,153.91,132.83,116.32,186.06,18.5,200,3.16,254.2-14.56,316.84,47.74,369.36,55.32,437.94Z"/></g></g></svg>