<svg xmlns="http://www.w3.org/2000/svg" viewBox="0 0 1545.83 433.64"><defs><style>.cls-1{fill:#fff;isolation:isolate;opacity:0.15;}</style></defs><g id="Layer_2" data-name="Layer 2"><g id="Layer_1-2" data-name="Layer 1"><g id="Layer_3" data-name="Layer 3"><circle class="cls-1" cx="88.44" cy="145.59" r="2.3"/><circle class="cls-1" cx="61.82" cy="240.38" r="2.3"/><circle class="cls-1" cx="159.01" cy="170.67" r="1.59"/><circle class="cls-1" cx="41.15" cy="99.51" r="1.15"/><circle class="cls-1" cx="313.63" cy="166.7" r="2.3"/><circle class="cls-1" cx="237.22" cy="191.02" r="2.3"/><circle class="cls-1" cx="698.58" cy="403.55" r="1.15"/><circle class="cls-1" cx="597.53" cy="198" r="2.3"/><circle class="cls-1" cx="453.64" cy="101.91" r="2.3"/><circle class="cls-1" cx="384.17" cy="163.44" r="1.15"/><circle class="cls-1" cx="543.19" cy="111.26" r="1.15"/><circle class="cls-1" cx="804.2" cy="135.49" r="2.3"/><circle class="cls-1" cx="766.64" cy="267.86" r="2.3"/><circle class="cls-1" cx="644.39" cy="98.44" r="2.3"/><circle class="cls-1" cx="749.38" cy="47.07" r="1.15"/><circle class="cls-1" cx="850.33" cy="222.87" r="1.59"/><circle class="cls-1" cx="714.6" cy="202.07" r="1.15"/><circle class="cls-1" cx="746.5" cy="331.79" r="1.15"/><circle class="cls-1" cx="722.46" cy="114.67" r="1.15"/><circle class="cls-1" cx="1023.1" cy="110.12" r="2.3"/><circle class="cls-1" cx="945.19" cy="226.97" r="2.3"/><circle class="cls-1" cx="858.88" cy="80.34" r="2.3"/><circle class="cls-1" cx="978.99" cy="1.15" r="1.15"/><circle class="cls-1" cx="1011.05" cy="176.95" r="1.59"/><circle class="cls-1" cx="830.43" cy="26.15" r="1.59"/><circle class="cls-1" cx="873.76" cy="282.46" r="1.15"/><circle class="cls-1" cx="909.68" cy="148.39" r="1.15"/><circle class="cls-1" cx="247.03" cy="310.05" r="2.3"/><circle class="cls-1" cx="99.97" cy="276.41" r="1.59"/><circle class="cls-1" cx="46.47" cy="367.25" r="1.59"/><circle class="cls-1" cx="317.52" cy="236.52" r="1.59"/><circle class="cls-1" cx="169.83" cy="242.68" r="1.15"/><circle class="cls-1" cx="135.62" cy="365.66" r="2.3"/><circle class="cls-1" cx="331.7" cy="317.97" r="2.3"/><circle class="cls-1" cx="197.44" cy="395.68" r="1.15"/><circle class="cls-1" cx="271.66" cy="393.62" r="1.59"/><circle class="cls-1" cx="98.38" cy="414.75" r="1.15"/><circle class="cls-1" cx="437.5" cy="431.34" r="2.3"/><circle class="cls-1" cx="640.18" cy="148.39" r="1.59"/><path class="cls-1" d="M449.31,202.51a2.3,2.3,0,1,1,4.24-1.76"/><circle class="cls-1" cx="421.26" cy="342.46" r="2.3"/><circle class="cls-1" cx="502.6" cy="401.96" r="1.59"/><circle class="cls-1" cx="356.03" cy="394.09" r="1.59"/><circle class="cls-1" cx="403.18" cy="257.84" r="1.15"/><circle class="cls-1" cx="522.19" cy="341.26" r="2.3"/><circle class="cls-1" cx="646.45" cy="322.91" r="2.3"/><circle class="cls-1" cx="581.22" cy="397.5" r="1.59"/><circle class="cls-1" cx="638.59" cy="255.54" r="1.15"/><circle class="cls-1" cx="1075.06" cy="250.42" r="1.59"/><circle class="cls-1" cx="949.79" cy="345.87" r="1.15"/><circle class="cls-1" cx="876.06" cy="345.87" r="2.3"/><circle class="cls-1" cx="805.69" cy="389.89" r="1.59"/><circle class="cls-1" cx="887.77" cy="429.05" r="1.59"/><circle class="cls-1" cx="529.62" cy="234.93" r="1.15"/><circle class="cls-1" cx="1202.23" cy="118" r="2.3"/><circle class="cls-1" cx="1165.62" cy="202.8" r="2.3"/><circle class="cls-1" cx="1088.34" cy="62.58" r="2.3"/><circle class="cls-1" cx="1101.16" cy="159.32" r="1.15"/><circle class="cls-1" cx="1246.86" cy="19.97" r="1.15"/><circle class="cls-1" cx="1154.94" cy="71.93" r="1.15"/><circle class="cls-1" cx="1313.53" cy="65.99" r="2.3"/><circle class="cls-1" cx="1387.05" cy="60.28" r="1.15"/><circle class="cls-1" cx="1474.5" cy="38.32" r="1.15"/><circle class="cls-1" cx="1036.65" cy="325.79" r="1.59"/><circle class="cls-1" cx="1285.92" cy="349.5" r="2.3"/><circle class="cls-1" cx="11.82" cy="170.38" r="2.3"/><circle class="cls-1" cx="1.15" cy="289.51" r="1.15"/><circle class="cls-1" cx="1543.53" cy="85.99" r="2.3"/></g></g></g></svg>