<?xml version="1.0" encoding="utf-8"?>
<!-- Generator: Adobe Illustrator 25.4.1, SVG Export Plug-In . SVG Version: 6.00 Build 0)  -->
<svg version="1.1" id="Layer_1" focusable="false" xmlns="http://www.w3.org/2000/svg" xmlns:xlink="http://www.w3.org/1999/xlink"
	 x="0px" y="0px" viewBox="0 0 640 512" style="enable-background:new 0 0 640 512;" xml:space="preserve">
<style type="text/css">
	.st0{fill:#1B2A32;}
</style>
<path class="st0" d="M34.5,36.5l211.1,211.1c4.7,4.7,4.7,12.3,0,17l-211.1,211c-4.7,4.7-12.3,4.7-17,0l-7.1-7.1
	c-4.7-4.7-4.7-12.3,0-17L205.9,256L10.5,60.5c-4.7-4.7-4.7-12.3,0-17l7.1-7.1C22.2,31.8,29.8,31.8,34.5,36.5z M640,468v-10
	c0-6.6-5.4-12-12-12H300c-6.6,0-12,5.4-12,12v10c0,6.6,5.4,12,12,12h328C634.6,480,640,474.6,640,468z"/>
</svg>
