<svg xmlns="http://www.w3.org/2000/svg" viewBox="0 0 400 400"><polygon points="186.22 7.68 186.22 25.43 65.02 83.8 51.1 72.74 186.22 7.68" fill="#00c1d5"/><polygon points="346.33 72.74 332.42 83.8 211.22 25.43 211.22 7.68 346.33 72.74" fill="#00c1d5"/><polygon points="390.13 215.87 373.72 215.87 348.03 103.33 361.92 92.29 390.13 215.87" fill="#1d428a"/><polygon points="49.4 103.33 19.47 234.5 2.15 238.5 35.52 92.3 49.4 103.33" fill="#1d428a"/><polygon points="108.9 364.09 101.21 380.11 7.71 262.87 25 258.88 108.9 364.09" fill="#78be20"/><polygon points="131.43 374.96 200.29 374.96 200.29 390.96 123.74 390.96 131.43 374.96" fill="#00c1d5"/><path d="M287.75,294.25v-1.62m25.31-30.76h-.78M273.7,310.25h.05v-.06Zm14.05-16v-1.62" fill="none"/><polygon points="344.03 215.87 327.62 215.87 309 134.35 309 134.34 305.89 120.7 293.49 114.73 211.22 75.1 198.72 69.08 186.22 75.1 103.94 114.73 91.54 120.7 88.43 134.34 68.13 223.29 65.07 236.68 73.81 247.64 130.63 318.88 139.24 329.68 200.29 329.68 200.29 345.68 131.53 345.68 122.93 334.9 56.52 251.62 47.75 240.63 50.8 227.28 74.53 123.3 77.65 109.63 90.03 103.67 186.22 57.35 198.72 51.33 211.22 57.35 307.41 103.67 319.78 109.63 322.9 123.3 344.03 215.87" fill="#0091da"/><path d="M354.52,305.93h-14V287.55H287.75v18.38H230.29v75.18H346.55V399.5h52.77V346.73H346.55v18.38H246.29V321.93h41.46v18.39h52.77V324.73h-.13l.13-.17v-2.63h58.8V245.87H283.06V227.48H230.29v52.77h52.77V261.87H383.32v44.06H355.38m-88.32-41.68H246.29V243.48h20.77Zm95.49,98.48h20.77V383.5H362.55Zm-88.8-52.48h-.05l.05-.06Zm50.77,14.07H303.75V303.55h20.77Z" fill="#1d428a"/><polygon points="273.75 310.19 273.75 310.25 273.7 310.25 273.75 310.19" fill="#1d428a"/><path d="M340.39,324.73h.13v-.17Z" fill="#1d428a"/></svg>