<svg xmlns="http://www.w3.org/2000/svg" viewBox="0 0 46 46">
  <rect width="46" height="46" rx="3" style="fill: #326de6"/>
  <g>
    <path d="M9.21,14l-2.9,12.5a2.59,2.59,0,0,0,.46,1.83l8.06,10a1.9,1.9,0,0,0,1.76.8H29.43a2.79,2.79,0,0,0,1.76-.8l8.06-10a2.38,2.38,0,0,0,.42-1.83L36.81,14a2.1,2.1,0,0,0-1.15-1.42L24,6.93a3.82,3.82,0,0,0-.95-.08,2.2,2.2,0,0,0-1,.19L10.44,12.62A2.47,2.47,0,0,0,9.21,14Z" style="fill: #fff"/>
    <path d="M11,26a.91.91,0,0,0-.69.8.84.84,0,0,0,.77.54.34.34,0,0,0,.19,0h0s0,0,.07,0a1.16,1.16,0,0,0,.16,0,2.27,2.27,0,0,0,.42-.2.55.55,0,0,0,.23-.07h0a6.12,6.12,0,0,1,1.22-.35h0a.41.41,0,0,1,.3.12,0,0,0,0,0,0,0h0l.31,0A9.41,9.41,0,0,0,18.23,32l-.11.3h0a0,0,0,0,1,0,0,.51.51,0,0,1,0,.38,4.68,4.68,0,0,1-.62,1.11v.08a.66.66,0,0,0-.15.19,1.53,1.53,0,0,0-.27.38s-.07.08-.07.11a0,0,0,0,0,0,0h0a1,1,0,0,0,0,.58.66.66,0,0,0,.34.42,1.25,1.25,0,0,0,.31.07.86.86,0,0,0,.73-.46h0a0,0,0,0,0,0,0s0-.08.08-.12a1.11,1.11,0,0,0,.15-.42l.08-.23v0a6.15,6.15,0,0,1,.5-1.18.56.56,0,0,1,.3-.23s0,0,0,0h0l.15-.27A11.68,11.68,0,0,0,21,33a7.61,7.61,0,0,0,2.06.26,9,9,0,0,0,3.32-.61l.16.31h0s0,0,0,0a.56.56,0,0,1,.3.23,6.85,6.85,0,0,1,.5,1.18h0l.07.23c0,.15.12.27.16.42a.19.19,0,0,1,.07.12s0,0,0,0h0a.86.86,0,0,0,.73.46,1,1,0,0,0,.27-.07.8.8,0,0,0,.3-1h0s0,0,0,0,0-.08-.07-.12-.19-.3-.27-.38a.59.59,0,0,1-.15-.19v0a6,6,0,0,1-.61-1.11.46.46,0,0,1,0-.38,0,0,0,0,0,0,0h0L27.71,32a6.33,6.33,0,0,0,1-.68,9.31,9.31,0,0,0,3.14-4.48l.34,0h0a0,0,0,0,1,0,0,.44.44,0,0,1,.3-.11h0a7.29,7.29,0,0,1,1.26.34h0a.53.53,0,0,1,.23.08,3.4,3.4,0,0,0,.42.15s.15,0,.15,0,0,0,0,0h0a.34.34,0,0,0,.19,0,.71.71,0,0,0,.77-.54h0a.74.74,0,0,0-.61-.87h0s0,0-.08,0-.12,0-.15,0-.31,0-.46,0a.47.47,0,0,0-.23,0h0a6.79,6.79,0,0,1-1.3-.23.57.57,0,0,1-.27-.26,0,0,0,0,1,0,0h0l-.3-.08a9.08,9.08,0,0,0-1.34-6.27,1.18,1.18,0,0,1-.11-.19L31,18.5h0v0a.36.36,0,0,1,.11-.34,5.49,5.49,0,0,1,1.07-.77h0l.23-.11c.15-.08.3-.15.42-.23S33,17,33,17s0,0,0,0h0a.83.83,0,0,0,.16-1.07.58.58,0,0,0-.54-.27.86.86,0,0,0-.53.19h0l0,0s-.08,0-.12.07l-.3.35s-.12.07-.16.15h0a6.69,6.69,0,0,1-.95.88.53.53,0,0,1-.23.08c-.08,0-.12,0-.15,0h0l-.23.15a9.09,9.09,0,0,0-4.7-2.67c-.46-.08-.88-.16-1.3-.2l0-.3h0v-.08a.54.54,0,0,1-.19-.3,6.88,6.88,0,0,1,.08-1.3v0a.61.61,0,0,1,0-.23,1.85,1.85,0,0,0,.08-.46v-.19h0a.75.75,0,0,0-.23-.53.74.74,0,0,0-.65-.27.76.76,0,0,0-.65.8h0V12c0,.15,0,.31.08.46s0,.15,0,.23v0A8.16,8.16,0,0,1,22.51,14a.47.47,0,0,1-.19.31v0h0l0,.31a9.75,9.75,0,0,0-5,2l-1,.91-.3-.19h0a.24.24,0,0,1-.16,0,.58.58,0,0,1-.23-.08,5.06,5.06,0,0,1-1-.84h0s-.12-.07-.15-.15a2,2,0,0,0-.31-.34s-.08,0-.11-.08l0,0h0a1,1,0,0,0-.54-.19.69.69,0,0,0-.53.27.75.75,0,0,0,.15,1.07h0s0,0,0,.07.08,0,.12.08l.42.23.22.11h0A6.65,6.65,0,0,1,15,18.2a.55.55,0,0,1,.11.34v0h0l.23.23A10.58,10.58,0,0,0,14,21.94a10.06,10.06,0,0,0-.15,3.37l-.31.07h0a.46.46,0,0,1-.26.27,8.66,8.66,0,0,1-1.3.23h0a.49.49,0,0,1-.23,0,1.79,1.79,0,0,0-.46,0c-.08,0-.15,0-.15,0s0,0-.08,0Zm10.78-2.29.72-.92h1.15l.73.92-.27,1.11-1,.49-1-.49Zm-5.05-3.63,2.87,2.6a.55.55,0,0,1,.15.27.62.62,0,0,1-.46.76h0l-3.63,1a7.29,7.29,0,0,1,.16-2.41A7.76,7.76,0,0,1,16.74,20.11Zm1.15-1.41a7.19,7.19,0,0,1,4.32-2.07L22,20.49a.34.34,0,0,1-.12.27.65.65,0,0,1-.84.15L17.89,18.7Zm10.47,0L25.19,21a.89.89,0,0,1-.31.08.64.64,0,0,1-.65-.62h0L24,16.59l.77.16A7.51,7.51,0,0,1,28.36,18.7Zm2.22,6.07L26.87,23.7a.47.47,0,0,1-.31-.19.61.61,0,0,1,.08-.88h0l2.83-2.52A8.08,8.08,0,0,1,30.58,24.77Zm-3.4,5.54L25.72,26.8h0a.49.49,0,0,1,0-.39.61.61,0,0,1,.64-.49l3.79.65A7.57,7.57,0,0,1,27.18,30.31Zm-6.46.84,1.83-3.32h0a1.87,1.87,0,0,1,.31-.27.59.59,0,0,1,.76.15l1.87,3.4a8.49,8.49,0,0,1-2.4.39,8.1,8.1,0,0,1-1.65-.19A5.57,5.57,0,0,0,20.72,31.15Zm-4.66-4.62,3.82-.65a1.05,1.05,0,0,1,.34.08.61.61,0,0,1,.34.72l-1.49,3.59A7.26,7.26,0,0,1,16.78,28,6,6,0,0,1,16.06,26.53Z" style="fill: #326de6"/>
  </g>
</svg>
