<?xml version="1.0" encoding="utf-8"?>
<!-- Generator: Adobe Illustrator 25.4.1, SVG Export Plug-In . SVG Version: 6.00 Build 0)  -->
<svg version="1.1" id="Layer_1" focusable="false" xmlns="http://www.w3.org/2000/svg" xmlns:xlink="http://www.w3.org/1999/xlink"
	 x="0px" y="0px" viewBox="0 0 384 512" style="enable-background:new 0 0 384 512;" xml:space="preserve">
<style type="text/css">
	.st0{fill:#22343C;}
</style>
<path class="st0" d="M368,32h4c6.6,0,12-5.4,12-12v-8c0-6.6-5.4-12-12-12H12C5.4,0,0,5.4,0,12v8c0,6.6,5.4,12,12,12h4
	c0,91.8,44.1,193.7,129.6,224C59.8,286.4,16,388.5,16,480h-4c-6.6,0-12,5.4-12,12v8c0,6.6,5.4,12,12,12h360c6.6,0,12-5.4,12-12v-8
	c0-6.6-5.4-12-12-12h-4c0-91.8-44.1-193.7-129.6-224C324.2,225.6,368,123.5,368,32z M48,32h288c0,110.5-64.5,200-144,200
	S48,142.5,48,32z M336,480H48c0-110.5,64.5-200,144-200S336,369.5,336,480z M269.7,146.9c-2.1,3-4.4,5.9-6.8,8.7
	c-2.3,2.7-5.7,4.3-9.2,4.3H130.4c-3.6,0-6.9-1.6-9.2-4.3c-2.4-2.8-4.6-5.7-6.8-8.7c-5.7-7.9,0.1-18.9,9.8-18.9h135.7
	C269.6,128,275.3,139,269.7,146.9L269.7,146.9z M98.4,416h187.2c5.4,0,10.2,3.7,11.6,8.9c0.7,2.8,1.4,5.6,2.1,8.4
	c1.7,7.5-4,14.7-11.7,14.7H96.4c-7.7,0-13.4-7.1-11.7-14.7c0.6-2.8,1.3-5.6,2.1-8.4C88.2,419.7,92.9,416,98.4,416z"/>
</svg>
