<?xml version="1.0" encoding="utf-8"?>
<!-- Generator: Adobe Illustrator 25.2.3, SVG Export Plug-In . SVG Version: 6.00 Build 0)  -->
<svg version="1.1" id="Layer_1" xmlns="http://www.w3.org/2000/svg" xmlns:xlink="http://www.w3.org/1999/xlink" x="0px" y="0px"
	 viewBox="0 0 46 46" style="enable-background:new 0 0 46 46;" xml:space="preserve">
<style type="text/css">
	.st0{fill:#FFFFFF;}
	.st1{fill:none;stroke:#17242C;stroke-width:2.5;stroke-miterlimit:10;}
</style>
<path class="st0" d="M3,0h40c1.7,0,3,1.3,3,3v40c0,1.7-1.3,3-3,3H3c-1.7,0-3-1.3-3-3V3C0,1.3,1.3,0,3,0z"/>
<g>
	<path class="st1" d="M5.8,15.3c4.3,0,4.3,6,8.6,6s4.3-6,8.6-6s4.3,6,8.6,6s4.3-6,8.6-6"/>
	<path class="st1" d="M5.8,26.7c4.3,0,4.3,6,8.6,6s4.3-6,8.6-6s4.3,6,8.6,6s4.3-6,8.6-6"/>
</g>
</svg>
