<?xml version="1.0" encoding="utf-8"?>
<!-- Generator: Adobe Illustrator 25.2.3, SVG Export Plug-In . SVG Version: 6.00 Build 0)  -->
<svg version="1.1" id="Layer_1" xmlns="http://www.w3.org/2000/svg" xmlns:xlink="http://www.w3.org/1999/xlink" x="0px" y="0px"
	 viewBox="0 0 46 46" style="enable-background:new 0 0 46 46;" xml:space="preserve">
<style type="text/css">
	.st0{fill:#FFFFFF;}
	.st1{fill:#17242C;}
	.st2{fill:none;stroke:#17242C;stroke-width:2.5;stroke-linejoin:round;}
</style>
<path class="st0" d="M3,0h40c1.7,0,3,1.3,3,3v40c0,1.7-1.3,3-3,3H3c-1.7,0-3-1.3-3-3V3C0,1.3,1.3,0,3,0z"/>
<g>
	<path class="st1" d="M23,24.1c-0.6,0-1.1-0.5-1.1-1.1c0-0.6,0.5-1.1,1.1-1.1c0.6,0,1.1,0.5,1.1,1.1S23.6,24.1,23,24.1
		C23,24.1,23,24.1,23,24.1z"/>
	<path class="st1" d="M23,20.6c-1.3,0-2.4,1.1-2.4,2.4s1.1,2.4,2.4,2.4c1.3,0,2.4-1.1,2.4-2.4C25.4,21.7,24.3,20.6,23,20.6
		C23,20.6,23,20.6,23,20.6z"/>
</g>
<path class="st2" d="M28.9,19.7c-0.4-0.4-0.8-0.9-1.3-1.3C20.3,11.1,12.4,7.3,9.9,9.9s1.3,10.5,8.5,17.7s15.2,11.1,17.7,8.5
	c2-2,0-7.4-4.5-13.1"/>
<path class="st2" d="M26.3,28.9c0.4-0.4,0.9-0.8,1.3-1.3c7.3-7.2,11.1-15.2,8.5-17.7s-10.5,1.3-17.7,8.5S7.3,33.6,9.9,36.1
	c2,2,7.4,0,13.1-4.5"/>
</svg>
