<?xml version="1.0" encoding="utf-8"?>
<!-- Generator: Adobe Illustrator 25.4.1, SVG Export Plug-In . SVG Version: 6.00 Build 0)  -->
<svg version="1.1" id="Layer_1" focusable="false" xmlns="http://www.w3.org/2000/svg" xmlns:xlink="http://www.w3.org/1999/xlink"
	 x="0px" y="0px" viewBox="0 0 512 512" style="enable-background:new 0 0 512 512;" xml:space="preserve">
<style type="text/css">
	.st0{fill:#1B2A32;}
</style>
<path class="st0" d="M32.4,224C14.7,224,0,238.3,0,256s14.7,32,32.4,32c17.7,0,32-14.3,32-32S50.1,224,32.4,224z M32.4,64
	C14.7,64,0,78.3,0,96s14.7,32,32.4,32c17.7,0,32-14.3,32-32S50.1,64,32.4,64z M32.4,384C14.7,384,0,398.3,0,416s14.7,32,32.4,32
	c17.7,0,32-14.3,32-32S50.1,384,32.4,384z M504,80H136c-4.4,0-8,3.6-8,8v16c0,4.4,3.6,8,8,8h368c4.4,0,8-3.6,8-8V88
	C512,83.6,508.4,80,504,80z M504,240H136c-4.4,0-8,3.6-8,8v16c0,4.4,3.6,8,8,8h368c4.4,0,8-3.6,8-8v-16C512,243.6,508.4,240,504,240
	z M504,400H136c-4.4,0-8,3.6-8,8v16c0,4.4,3.6,8,8,8h368c4.4,0,8-3.6,8-8v-16C512,403.6,508.4,400,504,400z"/>
</svg>
