<svg xmlns="http://www.w3.org/2000/svg" viewBox="0 0 400 400"><path d="M398.06,245.69a20.78,20.78,0,0,0-2.93-10.32.817.817,0,0,0-.12-.2c-3.13-5.31-9.14-10.91-20.05-15.94q-3.3-1.53-7.23-2.97a146.75,146.75,0,0,0-24.61-6.45c-5.42-.96-11.08-1.72-16.92-2.26-7.06-.65-14.37-.99-21.81-.99a232.954,232.954,0,0,0-27.33,1.59,180.8,180.8,0,0,0-23.95,4.39v16.59c.54-.16,1.08-.32,1.63-.47,3.8-1.06,7.83-1.99,12.05-2.78a205.186,205.186,0,0,1,37.6-3.32,214.626,214.626,0,0,1,25.57,1.48,168.154,168.154,0,0,1,17.07,2.86,119.577,119.577,0,0,1,15.19,4.38c9.3,3.41,15.12,7.26,17.9,10.54a10.158,10.158,0,0,1,1.44,2.17,5.754,5.754,0,0,1,.27.66,4.175,4.175,0,0,1,.24,1.34v36.5c0,3.7-6.14,9.68-19.85,14.71-15.32,5.62-35.86,8.72-57.83,8.72s-42.51-3.1-57.83-8.72c-13.71-5.03-19.85-11.01-19.85-14.71V269a82.11,82.11,0,0,0,14.34,6.73q3.585,1.32,7.48,2.46a159.511,159.511,0,0,0,18.99,4.3,214.287,214.287,0,0,0,23.52,2.56c4.38.25,8.84.37,13.35.37,2.31,0,4.61-.03,6.9-.11a220.352,220.352,0,0,0,29.89-2.82c3.25-.54,6.43-1.16,9.5-1.84V264.21c-2.93.74-5.98,1.39-9.13,1.97-5.35,1-11,1.78-16.84,2.31-6.57.62-13.39.93-20.32.93-.29,0-.59,0-.88-.01-21.64-.07-41.84-3.16-56.95-8.7a75.709,75.709,0,0,1-8.11-3.49c-6.86-3.51-10.55-7.11-11.49-9.87a4.1,4.1,0,0,1-.25-1.36h-16v72.99c0,.12,0,.24.01.36a20.007,20.007,0,0,0,1.45,7.19c2.01,5.14,6.5,10.77,15.45,16a83.74,83.74,0,0,0,13.43,6.18,133.511,133.511,0,0,0,15.87,4.66q5.1,1.185,10.54,2.1c6.17,1.03,12.63,1.81,19.3,2.3,1.28.09,2.57.18,3.87.25q6.78.39,13.76.39c2.16,0,4.32-.03,6.46-.09h.01a220.94,220.94,0,0,0,30.46-2.85,149.261,149.261,0,0,0,26.41-6.76,81.42,81.42,0,0,0,14.34-6.72v13.48c0,3.7-6.14,9.69-19.85,14.72-15.32,5.62-35.86,8.71-57.83,8.71-2.53,0-5.05-.04-7.54-.12-.75-.03-1.5-.05-2.24-.09-3.78-.16-7.5-.41-11.13-.76-.9-.08-1.8-.17-2.69-.27-4.52-.49-8.91-1.12-13.11-1.89a137.1,137.1,0,0,1-16.33-3.96c-1.65-.51-3.24-1.05-4.79-1.62-13.71-5.03-19.85-11.02-19.85-14.72h-16c0,4.72,1.63,10.53,7.37,16.34,4.6,4.66,11.83,9.31,22.97,13.4q3.81,1.4,7.96,2.6a174.039,174.039,0,0,0,27.04,5.4c2.26.28,4.56.52,6.88.73,6.95.63,14.14.96,21.46.96,23.8,0,46.3-3.44,63.34-9.69,24.79-9.09,30.22-20.97,30.33-29.44.01-.1.01-.2.01-.3V245.99C398.07,245.89,398.07,245.79,398.06,245.69Zm-15.99,73.29c0,3.7-6.14,9.68-19.85,14.71-10.58,3.88-23.66,6.56-37.98,7.85-6.4.58-13.06.87-19.85.87-.44,0-.87,0-1.3-.01h-.01a212.42,212.42,0,0,1-24.41-1.48c-3.6-.42-7.1-.95-10.48-1.56a131.241,131.241,0,0,1-20.54-5.28c-.37-.13-.73-.26-1.09-.39a58.155,58.155,0,0,1-14.17-7.16c-3.86-2.85-5.68-5.54-5.68-7.55V305.49a82.11,82.11,0,0,0,14.34,6.73c17.04,6.25,39.54,9.7,63.34,9.7s46.3-3.45,63.34-9.7a81.39,81.39,0,0,0,14.34-6.73Z" fill="#1d428a"/><polygon points="185.98 4.53 185.98 22.29 64.78 80.66 50.86 69.6 185.98 4.53" fill="#00c1d5"/><polygon points="346.1 69.6 332.18 80.66 210.98 22.29 210.98 4.53 346.1 69.6" fill="#00c1d5"/><path d="M384.69,189.96a167.956,167.956,0,0,0-17.64-5.4l-19.26-84.38,13.89-11.04Z" fill="#1d428a"/><polygon points="49.17 100.18 19.23 231.36 1.91 235.35 35.28 89.14 49.17 100.18" fill="#1d428a"/><path d="M361.42,269.45c-.07.02-.14.05-.22.07l.07-.09h.01Z" fill="#78be20"/><polygon points="108.67 360.95 100.97 376.97 7.47 259.72 24.76 255.74 108.67 360.95" fill="#78be20"/><path d="M180.84,371.81a42.388,42.388,0,0,0,8.18,16H123.5l7.69-16Z" fill="#00c1d5"/><path d="M336.13,179.16q-8.175-.885-16.71-1.31l-10.65-46.66-3.11-13.64-12.39-5.97L210.98,71.96l-12.5-6.02-12.5,6.02-82.29,39.62L91.3,117.55l-3.11,13.64-20.3,88.95-3.06,13.39,8.74,10.96,56.82,71.24,8.61,10.8h40.55v16H131.29l-8.59-10.78L56.28,248.47l-8.76-10.99,3.05-13.35L74.3,120.15l3.12-13.67,12.36-5.95,96.2-46.33,12.5-6.02,12.5,6.02,96.2,46.33,12.36,5.95,3.12,13.67Z" fill="#0091da"/><path d="M210.72,319.34h-.01v-.36C210.71,319.1,210.71,319.22,210.72,319.34Z" fill="#fff"/><path d="M361.28,269.43l.14.02c-.07.02-.14.05-.22.07l.07-.09Z" fill="#fff"/><path d="M398.06,355.77c.01-.1.01-.2.01-.3v.3Z" fill="#fff"/><path d="M398.07,355.47v.3h-.01C398.07,355.67,398.07,355.57,398.07,355.47Z" fill="#1d428a"/><path d="M361.42,269.45c-.07.02-.14.05-.22.07l.07-.09h.01Z" fill="#fff"/><path d="M210.72,319.34h-.01v-.36C210.71,319.1,210.71,319.22,210.72,319.34Z" fill="#1d428a"/></svg>