<svg xmlns="http://www.w3.org/2000/svg" viewBox="0 0 133.2 133.2"><defs><style>.cls-1{fill:#78be20;}.cls-2{fill:#1bc1d5;}.cls-3{fill:#1d428a;}.cls-4{fill:white;}</style></defs><g id="Layer_2" data-name="Layer 2"><g id="Layer_1-2" data-name="Layer 1"><path class="cls-1" d="M89.7,110,78.9,81.7a5.11,5.11,0,0,1,5.5-6.9l30.2,4.5Z"/><path class="cls-2" d="M103.9,33.8,79,50.5a5.19,5.19,0,0,1-8-3.9l-2.3-30Z"/><path class="cls-1" d="M54.1,81.7,43.3,110,18.8,79l29.9-4.2A5.08,5.08,0,0,1,54.1,81.7Z"/><path class="cls-3" d="M46.1,65.9,18,74.6l9.2-37.1,21,19.9A5.07,5.07,0,0,1,46.1,65.9Z"/><path class="cls-3" d="M115.6,74.8,87,66.2a5.15,5.15,0,0,1-2-8.7l21.7-20.2Z"/><path class="cls-2" d="M64.3,16.8,61.7,46.2a5.14,5.14,0,0,1-8,3.8L29.9,33.8Z"/><path class="cls-2" d="M47.4,111.9,62.2,86.2a5.07,5.07,0,0,1,8.8,0l14.8,25.7Z"/><path class="cls-4" d="M66.6,0a66.6,66.6,0,1,0,66.6,66.6A66.58,66.58,0,0,0,66.6,0Zm.2,124.4a58.1,58.1,0,1,1,58.1-58.1A58.08,58.08,0,0,1,66.8,124.4Z"/></g></g></svg>