<svg xmlns="http://www.w3.org/2000/svg" viewBox="0 0 46 46">
  <rect width="46" height="46" rx="3" style="fill: #78be20"/>
  <g>
    <path d="M22.45,7.87a8.06,8.06,0,0,1,5.06,1.32,2.81,2.81,0,0,1,1.17,2.21v8.23a2.08,2.08,0,0,1-2.08,2.08H18.3a3.48,3.48,0,0,0-3.18,2.12,2.75,2.75,0,0,0-.21.65,3.11,3.11,0,0,0-.07.69v2.77H11.45a2.91,2.91,0,0,1-2.36-1.19A7,7,0,0,1,7.92,22.4a7,7,0,0,1,1.17-4.34,2.88,2.88,0,0,1,2.36-1.19H23.14V14.51H16.23V11.4a2.83,2.83,0,0,1,1.16-2.19,8,8,0,0,1,5.06-1.34m0-2.5a10.39,10.39,0,0,0-6.62,1.89,5.35,5.35,0,0,0-2.1,4.14v3H11.45a5.34,5.34,0,0,0-4.32,2.14A9.34,9.34,0,0,0,5.42,22.4a9.32,9.32,0,0,0,1.71,5.89,5.35,5.35,0,0,0,4.32,2.15h3.39a2.5,2.5,0,0,0,2.5-2.5V25.17a.66.66,0,0,1,0-.19h0a.86.86,0,0,1,.06-.16,1,1,0,0,1,.88-.61h8.3a4.58,4.58,0,0,0,4.58-4.58V11.4a5.28,5.28,0,0,0-2.11-4.16,10.43,10.43,0,0,0-6.62-1.87Z" style="fill: #fff"/>
    <circle cx="19.36" cy="11.79" r="1.38" style="fill: #fff"/>
    <path d="M34.55,18.06a2.91,2.91,0,0,1,2.36,1.19,7,7,0,0,1,1.17,4.35,7,7,0,0,1-1.17,4.34,2.88,2.88,0,0,1-2.36,1.19H22.86v2.36h6.91V34.6a2.83,2.83,0,0,1-1.16,2.19,8,8,0,0,1-5.06,1.34,8,8,0,0,1-5.06-1.34,2.85,2.85,0,0,1-1.17-2.19V26.37a1.93,1.93,0,0,1,.05-.42,2.07,2.07,0,0,1,2-1.66h8.3a3.47,3.47,0,0,0,3.46-3.46V18.06h3.39m0-2.5H31.16a2.5,2.5,0,0,0-2.5,2.5v2.77a1,1,0,0,1-1,1H19.4a4.59,4.59,0,0,0-4.48,3.66,4.24,4.24,0,0,0-.1.92V34.6a5.36,5.36,0,0,0,2.11,4.14,10.39,10.39,0,0,0,6.62,1.89,10.39,10.39,0,0,0,6.62-1.89,5.35,5.35,0,0,0,2.1-4.14v-3h2.28a5.34,5.34,0,0,0,4.32-2.14,9.34,9.34,0,0,0,1.71-5.89,9.32,9.32,0,0,0-1.71-5.89,5.35,5.35,0,0,0-4.32-2.15Z" style="fill: #fff"/>
    <circle cx="26.19" cy="33.84" r="1.38" style="fill: #fff"/>
  </g>
</svg>
