<?xml version="1.0" encoding="utf-8"?>
<!-- Generator: Adobe Illustrator 25.2.3, SVG Export Plug-In . SVG Version: 6.00 Build 0)  -->
<svg version="1.1" id="Layer_1" xmlns="http://www.w3.org/2000/svg" xmlns:xlink="http://www.w3.org/1999/xlink" x="0px" y="0px"
	 viewBox="0 0 46 46" style="enable-background:new 0 0 46 46;" xml:space="preserve">
<style type="text/css">
	.st0{fill:#FFFFFF;}
	.st1{fill:#17242C;}
</style>
<path class="st0" d="M3,0h40c1.7,0,3,1.3,3,3v40c0,1.7-1.3,3-3,3H3c-1.7,0-3-1.3-3-3V3C0,1.3,1.3,0,3,0z"/>
<path class="st1" d="M36.6,8.4c-0.5,1.1-1.1,2.1-1.8,3.1C28.5,4.9,18,4.8,11.4,11.1s-6.7,16.8-0.4,23.4l0,0c0.2,0.2,0.4,0.5,0.7,0.7
	l0.6,0.5c7,5.9,17.4,5,23.3-2c2.3-2.7,3.6-6,3.8-9.5C40,20.1,38.7,14.8,36.6,8.4z M14.1,35.3c-0.5,0.6-1.4,0.7-2,0.2
	c-0.6-0.5-0.7-1.4-0.2-2c0.5-0.6,1.4-0.7,2-0.2C14.5,33.8,14.6,34.7,14.1,35.3z M36.5,30.3c-4.1,5.4-12.8,3.6-18.4,3.9
	c0,0-1,0.1-2,0.2c0,0,0.4-0.2,0.9-0.3c3.9-1.4,5.8-1.6,8.1-2.9c4.5-2.3,8.9-7.3,9.8-12.5c-1.7,5-6.9,9.3-11.6,11c-3,1-6,1.7-9.1,2.3
	L14.1,32c-3.9-2-4.1-10.6,3.1-13.4c3.2-1.2,6.2-0.5,9.6-1.4c3.6-0.9,7.9-3.6,9.6-7.2C38.3,15.9,40.7,24.8,36.5,30.3z"/>
</svg>
