<?xml version="1.0" encoding="utf-8"?>
<!-- Generator: Adobe Illustrator 25.2.3, SVG Export Plug-In . SVG Version: 6.00 Build 0)  -->
<svg version="1.1" id="Layer_1" xmlns="http://www.w3.org/2000/svg" xmlns:xlink="http://www.w3.org/1999/xlink" x="0px" y="0px"
	 viewBox="0 0 46 46" style="enable-background:new 0 0 46 46;" xml:space="preserve">
<style type="text/css">
	.st0{fill:#FFFFFF;}
	.st1{fill:#17242C;}
</style>
<path class="st0" d="M3,0h40c1.7,0,3,1.3,3,3v40c0,1.7-1.3,3-3,3H3c-1.7,0-3-1.3-3-3V3C0,1.3,1.3,0,3,0z"/>
<rect x="33.8" y="9.1" class="st1" width="3.1" height="3.1"/>
<rect x="25.6" y="9.1" class="st1" width="3.1" height="3.1"/>
<rect x="9.1" y="9.1" class="st1" width="3.1" height="3.1"/>
<rect x="32.6" y="16.1" class="st1" width="5.5" height="5.5"/>
<rect x="25.6" y="17.3" class="st1" width="3.1" height="3.1"/>
<rect x="9.1" y="17.3" class="st1" width="3.1" height="3.1"/>
<rect x="17.3" y="17.3" class="st1" width="3.1" height="3.1"/>
<rect x="33.8" y="25.5" class="st1" width="3.1" height="3.1"/>
<rect x="25.5" y="25.5" class="st1" width="3.1" height="3.1"/>
<rect x="17.3" y="25.5" class="st1" width="3.1" height="3.1"/>
<rect x="33.8" y="33.8" class="st1" width="3.1" height="3.1"/>
<rect x="25.7" y="33.8" class="st1" width="3.1" height="3.1"/>
<rect x="16.1" y="32.6" class="st1" width="5.5" height="5.5"/>
<rect x="16.2" y="7.9" class="st1" width="5.5" height="5.5"/>
<rect x="9.1" y="33.8" class="st1" width="3.1" height="3.1"/>
<rect x="7.9" y="24.3" class="st1" width="5.5" height="5.5"/>
</svg>
