<svg xmlns="http://www.w3.org/2000/svg" viewBox="0 0 400 400"><polygon points="185.798 4.891 185.798 22.651 64.658 81.051 50.748 69.991 185.798 4.891" fill="#00c1d5"/><polygon points="345.948 70.001 332.028 81.051 210.798 22.651 210.798 4.891 345.948 70.001" fill="#00c1d5"/><polygon points="394.868 235.701 377.548 231.711 347.638 100.581 361.528 89.541 394.868 235.701" fill="#1d428a"/><polygon points="49.048 100.581 19.058 231.711 1.728 235.701 35.158 89.541 49.048 100.581" fill="#1d428a"/><polygon points="108.498 361.291 100.798 377.301 7.298 260.081 24.598 256.101 108.498 361.291" fill="#78be20"/><path d="M260.848,388.151H123.328l7.69-16h121.43A74.381,74.381,0,0,1,260.848,388.151Z" fill="#00c1d5"/><polygon points="183.078 263.801 182.938 264.081 182.938 263.801 183.078 263.801" fill="#fff"/><polygon points="336.338 181.101 319.928 181.101 308.648 131.551 305.558 117.981 293.098 111.981 210.798 72.351 198.298 66.331 185.798 72.351 103.578 111.981 91.138 117.981 88.038 131.571 67.708 220.501 64.658 233.871 73.408 244.851 130.208 316.101 138.858 326.951 187.778 326.951 187.778 342.951 131.148 342.951 122.508 332.121 56.118 248.831 47.338 237.821 50.388 224.491 74.148 120.531 77.258 106.911 89.668 100.931 185.798 54.591 198.298 48.571 210.798 54.591 307.018 100.921 319.448 106.911 322.548 120.511 336.338 181.101" fill="#0091da"/><path d="M182.938,263.8v.28l.14-.28Z" fill="#fff"/><path d="M370.748,283.341a103.239,103.239,0,0,1-13.95-8.17,105.165,105.165,0,0,1-21.48-19.84,100.538,100.538,0,0,1-6.77-9.25c-.96-1.46-1.88-2.96-2.76-4.47a104.147,104.147,0,0,1-10.24-24.18c-.88-3.11-1.61-6.29-2.2-9.52h-19.4c-.26,1.46-.56,2.9-.88,4.34a103.566,103.566,0,0,1-8.5,23.7,105.151,105.151,0,0,1-59.39,52.1,103.028,103.028,0,0,1-15.51,4.07v19.36a103.419,103.419,0,0,1,32.37,11.67h.01c2.14,1.18,4.22,2.46,6.26,3.8a105.4,105.4,0,0,1,35.66,39.53,103.326,103.326,0,0,1,6.97,16.93c.63,2.02,1.19,4.06,1.7,6.12q.705,2.85,1.24,5.76h19.54a104.994,104.994,0,0,1,84.41-83.85v-19.28A103.942,103.942,0,0,1,370.748,283.341Zm-52.83,4.15a58.371,58.371,0,0,0,0,28.61,58.014,58.014,0,0,0-28.59.01c.35-1.37.65-2.74.89-4.13a58.033,58.033,0,0,0-.89-24.5,57.9,57.9,0,0,0,19.12,1.6A58.525,58.525,0,0,0,317.918,287.491Zm-17.37-47.86c1.11-2.39,2.15-4.83,3.1-7.31q1.755,4.545,3.86,8.91v.01a117.31,117.31,0,0,0,7.7,13.66,121.279,121.279,0,0,0,9.5,12.67,41.666,41.666,0,0,1-42.13,0A120.994,120.994,0,0,0,300.548,239.631Zm-36.19,79.14a120.356,120.356,0,0,0-30.19-16.97,121.425,121.425,0,0,0,35.24-21.06,41.575,41.575,0,0,1,.12,41.89,2.386,2.386,0,0,1-.12.22Q266.933,320.736,264.358,318.771Zm39.29,52.51c-.33-.85-.67-1.7-1.01-2.54a120.989,120.989,0,0,0-20.05-32.71,41.668,41.668,0,0,1,42.11,0,120.778,120.778,0,0,0-17.52,27.02C305.9,365.741,304.728,368.481,303.648,371.281Zm38.2-51.69h-.01l-.01.01q-2.01,1.59-3.96,3.26a40.787,40.787,0,0,1-5.53-17.02c-.13-1.33-.2-2.68-.2-4.04a41.21,41.21,0,0,1,5.73-21.07c2.86,2.46,5.85,4.79,8.94,6.97a121.706,121.706,0,0,0,26.31,14.1A121.039,121.039,0,0,0,341.848,319.591Z" fill="#1d428a"/></svg>