<?xml version="1.0" encoding="utf-8"?>
<!-- Generator: Adobe Illustrator 25.2.3, SVG Export Plug-In . SVG Version: 6.00 Build 0)  -->
<svg version="1.1" id="Layer_1" xmlns="http://www.w3.org/2000/svg" xmlns:xlink="http://www.w3.org/1999/xlink" x="0px" y="0px"
	 viewBox="0 0 46 46" style="enable-background:new 0 0 46 46;" xml:space="preserve">
<style type="text/css">
	.st0{fill:#FFFFFF;}
	.st1{fill:#17242C;}
</style>
<path class="st0" d="M3,0h40c1.7,0,3,1.3,3,3v40c0,1.7-1.3,3-3,3H3c-1.7,0-3-1.3-3-3V3C0,1.3,1.3,0,3,0z"/>
<g>
	<path class="st1" d="M16,30.5c-4.2-3.5-4.7-9.6-1.3-13.8c0.4-0.4,0.8-0.8,1.2-1.2l-1.6-1.9c-5,4.3-5.8,11.7-1.7,16.9H16z"/>
	<path class="st1" d="M37.2,28.4l-1.8,1.8l2.6,2.6h-5c-0.9,1-1.9,1.8-3,2.5h8.1l-2.6,2.6l1.8,1.8L43,34L37.2,28.4z"/>
	<path class="st1" d="M34.6,23c0-6.8-5.5-12.3-12.3-12.3h-0.9l2.2-2.2l0.5-0.4l-1.8-1.8l-2.2,2.1l-1.7,1.7L16.6,12l1.8,1.8l1.7,1.7
		l2.1,2.1l1.8-1.8l-0.2-0.2l-2.4-2.5h0.9c5.4,0,9.8,4.4,9.8,9.8s-4.4,9.8-9.8,9.8H6.1v2.5h16.2c1.3,0,2.6-0.2,3.9-0.6
		C31.2,33,34.6,28.3,34.6,23z"/>
</g>
</svg>
