<?xml version="1.0" encoding="utf-8"?>
<!-- Generator: Adobe Illustrator 25.2.3, SVG Export Plug-In . SVG Version: 6.00 Build 0)  -->
<svg version="1.1" id="Layer_1" xmlns="http://www.w3.org/2000/svg" xmlns:xlink="http://www.w3.org/1999/xlink" x="0px" y="0px"
	 viewBox="0 0 46 46" style="enable-background:new 0 0 46 46;" xml:space="preserve">
<style type="text/css">
	.st0{fill:#FFFFFF;}
	.st1{fill:#17242C;}
</style>
<path class="st0" d="M3,0h40c1.7,0,3,1.3,3,3v40c0,1.7-1.3,3-3,3H3c-1.7,0-3-1.3-3-3V3C0,1.3,1.3,0,3,0z"/>
<g>
	<path class="st1" d="M9.2,14L6.3,26.5c-0.1,0.6,0.1,1.3,0.5,1.8l8.1,10c0.4,0.6,1.1,0.9,1.8,0.8h12.8c0.7,0,1.3-0.3,1.8-0.8l8.1-10
		c0.4-0.5,0.5-1.2,0.4-1.8L36.8,14c-0.1-0.6-0.6-1.1-1.2-1.4L24,6.9c-0.3-0.1-0.6-0.1-1-0.1c-0.3,0-0.7,0-1,0.2l-11.6,5.6
		C9.9,12.9,9.4,13.4,9.2,14z"/>
	<path class="st0" d="M11,26c-0.4,0.1-0.7,0.4-0.7,0.8c0.1,0.3,0.4,0.5,0.8,0.5c0.1,0,0.1,0,0.2,0l0,0c0,0,0,0,0.1,0
		c0.1,0,0.1,0,0.2,0c0.1-0.1,0.3-0.1,0.4-0.2c0.1,0,0.2,0,0.2-0.1l0,0c0.4-0.2,0.8-0.3,1.2-0.4l0,0c0.1,0,0.2,0,0.3,0.1l0,0l0,0H14
		c0.7,2.2,2.2,4,4.2,5.2l-0.1,0.3l0,0l0,0c0,0.1,0,0.3,0,0.4c-0.2,0.4-0.4,0.8-0.6,1.1v0.1c-0.1,0.1-0.1,0.1-0.1,0.2
		c-0.1,0.1-0.2,0.2-0.3,0.4c0,0-0.1,0.1-0.1,0.1l0,0l0,0c-0.1,0.2-0.1,0.4,0,0.6c0,0.2,0.2,0.3,0.3,0.4c0.1,0,0.2,0.1,0.3,0.1
		c0.3,0,0.6-0.2,0.7-0.5l0,0l0,0c0,0,0-0.1,0.1-0.1c0.1-0.1,0.1-0.3,0.1-0.4l0.1-0.2l0,0c0.1-0.4,0.3-0.8,0.5-1.2
		c0.1-0.1,0.2-0.2,0.3-0.2l0,0l0,0l0.1-0.3c0.4,0.1,0.9,0.2,1.4,0.3c0.7,0.2,1.4,0.3,2.1,0.3c1.1,0,2.3-0.2,3.3-0.6l0.2,0.3l0,0l0,0
		c0.1,0,0.2,0.1,0.3,0.2c0.2,0.4,0.4,0.8,0.5,1.2l0,0l0.1,0.2c0,0.2,0.1,0.3,0.2,0.4c0,0,0.1,0.1,0.1,0.1l0,0l0,0
		c0.1,0.3,0.4,0.4,0.7,0.5c0.1,0,0.2,0,0.3-0.1c0.3-0.2,0.5-0.6,0.3-1l0,0l0,0c0,0,0-0.1-0.1-0.1s-0.2-0.3-0.3-0.4
		c-0.1-0.1-0.1-0.1-0.1-0.2l0,0c-0.2-0.3-0.4-0.7-0.6-1.1c-0.1-0.1-0.1-0.3,0-0.4l0,0l0,0L27.7,32c0.4-0.2,0.7-0.4,1-0.7
		c1.5-1.1,2.6-2.7,3.1-4.5h0.3l0,0l0,0c0.1-0.1,0.2-0.1,0.3-0.1l0,0c0.4,0.1,0.9,0.2,1.3,0.3l0,0c0.1,0,0.2,0,0.2,0.1
		c0.1,0.1,0.3,0.1,0.4,0.1h0.2l0,0l0,0c0.1,0,0.1,0,0.2,0c0.4,0,0.7-0.2,0.8-0.5l0,0c0.1-0.4-0.2-0.8-0.6-0.9c0,0,0,0,0,0l0,0
		c0,0,0,0-0.1,0s-0.1,0-0.2,0s-0.3,0-0.5,0c-0.1,0-0.2,0-0.2,0l0,0c-0.4,0-0.9-0.1-1.3-0.2c-0.1-0.1-0.2-0.1-0.3-0.3l0,0l0,0
		l-0.3-0.1c0.3-2.2-0.1-4.4-1.3-6.3c0-0.1-0.1-0.1-0.1-0.2l0.3-0.4l0,0l0,0c0-0.1,0-0.3,0.1-0.3c0.3-0.3,0.7-0.6,1.1-0.8l0,0
		l0.2-0.1c0.2-0.1,0.3-0.1,0.4-0.2s0.2,0,0.2,0l0,0l0,0c0.3-0.3,0.4-0.7,0.2-1.1c-0.1-0.2-0.3-0.3-0.5-0.3c-0.2,0-0.4,0.1-0.5,0.2
		l0,0l0,0c0,0-0.1,0-0.1,0.1l-0.3,0.3c0,0-0.1,0.1-0.2,0.1l0,0c-0.3,0.3-0.6,0.6-1,0.9c-0.1,0-0.1,0.1-0.2,0.1c-0.1,0-0.1,0-0.1,0
		l0,0L30,17.5c-1.3-1.3-2.9-2.3-4.7-2.7c-0.5-0.1-0.9-0.2-1.3-0.2v-0.3l0,0v-0.1c-0.1-0.1-0.2-0.2-0.2-0.3c0-0.4,0-0.9,0.1-1.3l0,0
		c0-0.1,0-0.2,0-0.2c0-0.1,0.1-0.3,0.1-0.5v-0.2l0,0c0-0.2-0.1-0.4-0.2-0.5C23.5,11.1,23.3,11,23,11c-0.4,0.1-0.7,0.4-0.6,0.8l0,0
		V12c0,0.1,0,0.3,0.1,0.5s0,0.1,0,0.2l0,0c0,0.4,0.1,0.9,0,1.3c0,0.1-0.1,0.2-0.2,0.3l0,0l0,0v0.3c-1.8,0.2-3.6,0.9-5,2l-1,0.9
		L16,17.3l0,0c-0.1,0-0.1,0-0.2,0c-0.1,0-0.2,0-0.2-0.1c-0.4-0.2-0.7-0.5-1-0.8l0,0c0,0-0.1-0.1-0.1-0.1c-0.1-0.1-0.2-0.2-0.3-0.3
		c0,0-0.1,0-0.1-0.1l0,0l0,0c-0.2-0.1-0.3-0.2-0.5-0.2c-0.2,0-0.4,0.1-0.5,0.3c-0.3,0.3-0.2,0.8,0.1,1.1c0,0,0,0,0,0l0,0
		c0,0,0,0,0,0.1s0.1,0,0.1,0.1l0.4,0.2l0.2,0.1l0,0c0.4,0.2,0.8,0.4,1.1,0.7c0.1,0.1,0.1,0.2,0.1,0.3l0,0l0,0l0.2,0.2
		c-0.6,1-1.1,2-1.3,3.2c-0.2,1.1-0.3,2.2-0.1,3.4l-0.3,0.1l0,0c0,0.1-0.1,0.2-0.3,0.3c-0.4,0.1-0.9,0.2-1.3,0.2l0,0
		c-0.1,0-0.2,0-0.2,0c-0.2,0-0.3,0-0.5,0c-0.1,0-0.1,0-0.1,0s0,0-0.1,0L11,26z M21.8,23.7l0.7-0.9h1.1l0.7,0.9l-0.3,1.1l-1,0.5
		l-1-0.5L21.8,23.7z M16.7,20.1l2.9,2.6c0.1,0.1,0.1,0.2,0.1,0.3c0.1,0.3-0.1,0.7-0.4,0.8c0,0,0,0,0,0l0,0l-3.6,1
		c-0.1-0.8,0-1.6,0.2-2.4C16,21.5,16.3,20.8,16.7,20.1L16.7,20.1z M17.9,18.7c1.2-1.2,2.7-1.9,4.3-2.1L22,20.5c0,0.1,0,0.2-0.1,0.3
		c-0.2,0.3-0.6,0.3-0.8,0.1L17.9,18.7L17.9,18.7z M28.3,18.7L25.2,21c-0.1,0-0.2,0.1-0.3,0.1c-0.3,0-0.6-0.3-0.6-0.6l0,0L24,16.6
		l0.8,0.2C26.1,17.1,27.4,17.7,28.3,18.7L28.3,18.7z M30.6,24.7l-3.7-1c-0.1,0-0.2-0.1-0.3-0.2c-0.2-0.3-0.2-0.6,0.1-0.9
		c0,0,0,0,0,0l0,0l2.8-2.5C30.3,21.5,30.7,23.1,30.6,24.7L30.6,24.7z M27.2,30.3l-1.4-3.5l0,0c-0.1-0.1-0.1-0.3,0-0.4
		c0.1-0.3,0.3-0.5,0.6-0.5l3.8,0.6C29.6,28.1,28.5,29.4,27.2,30.3L27.2,30.3z M20.7,31.1l1.8-3.3l0,0c0.1-0.1,0.2-0.2,0.3-0.3
		c0.3-0.1,0.6-0.1,0.8,0.1l1.9,3.4c-0.8,0.2-1.6,0.4-2.4,0.4c-0.6,0-1.1-0.1-1.6-0.2C21.2,31.2,21,31.2,20.7,31.1L20.7,31.1z
		 M16,26.5l3.8-0.6c0.1,0,0.2,0,0.3,0.1c0.3,0.1,0.4,0.4,0.3,0.7l-1.5,3.6c-0.9-0.6-1.7-1.3-2.3-2.2C16.5,27.5,16.2,27.1,16,26.5
		L16,26.5z"/>
</g>
</svg>
