<svg xmlns="http://www.w3.org/2000/svg" viewBox="0 0 46 46">
  <rect width="46" height="46" rx="3" style="fill: #6db33f"/>
  <path d="M36.61,8.41a14,14,0,0,1-1.77,3.1,16.53,16.53,0,0,0-23.78,23,6,6,0,0,0,.68.65l.61.54A16.52,16.52,0,0,0,39.47,24.2C40,20.07,38.69,14.75,36.61,8.41ZM14.13,35.29a1.41,1.41,0,1,1-.21-2A1.44,1.44,0,0,1,14.13,35.29Zm22.38-4.95c-4.06,5.43-12.8,3.58-18.36,3.86,0,0-1,.06-2,.2,0,0,.37-.17.85-.34,3.92-1.36,5.76-1.64,8.15-2.87,4.47-2.28,8.94-7.3,9.83-12.48-1.71,5-6.9,9.28-11.6,11a79.76,79.76,0,0,1-9.08,2.35L14.09,32C10.14,30,10,21.4,17.23,18.64c3.18-1.23,6.18-.54,9.62-1.36,3.65-.86,7.88-3.59,9.59-7.17C38.35,15.88,40.67,24.82,36.51,30.34Z" style="fill: #fff"/>
</svg>
