<svg xmlns="http://www.w3.org/2000/svg" viewBox="0 0 46 46">
  <rect y="-0.03" width="46" height="46" rx="3" style="fill: #0091da"/>
  <rect x="33.78" y="9.07" width="3.12" height="3.12" transform="translate(45.97 -24.71) rotate(90)" style="fill: #fff"/>
  <rect x="25.55" y="9.07" width="3.12" height="3.12" transform="translate(37.74 -16.48) rotate(90)" style="fill: #fff"/>
  <rect x="9.1" y="9.07" width="3.12" height="3.12" transform="translate(21.29 -0.03) rotate(90)" style="fill: #fff"/>
  <rect x="32.6" y="16.11" width="5.49" height="5.49" transform="translate(54.2 -16.48) rotate(90)" style="fill: #fff"/>
  <rect x="25.55" y="17.3" width="3.12" height="3.12" transform="translate(45.97 -8.26) rotate(90)" style="fill: #fff"/>
  <rect x="9.1" y="17.3" width="3.12" height="3.12" transform="translate(29.52 8.2) rotate(90)" style="fill: #fff"/>
  <rect x="17.33" y="17.3" width="3.12" height="3.12" transform="translate(37.74 -0.03) rotate(90)" style="fill: #fff"/>
  <rect x="33.78" y="25.53" width="3.12" height="3.12" transform="translate(62.43 -8.26) rotate(90)" style="fill: #fff"/>
  <rect x="25.55" y="25.53" width="3.12" height="3.12" transform="translate(54.2 -0.03) rotate(90)" style="fill: #fff"/>
  <rect x="17.33" y="25.53" width="3.12" height="3.12" transform="translate(45.97 8.2) rotate(90)" style="fill: #fff"/>
  <rect x="33.78" y="33.75" width="3.12" height="3.12" transform="translate(70.65 -0.03) rotate(90)" style="fill: #fff"/>
  <rect x="25.68" y="33.75" width="3.12" height="3.12" transform="translate(62.55 8.08) rotate(90)" style="fill: #fff"/>
  <rect x="16.14" y="32.57" width="5.49" height="5.49" transform="translate(54.2 16.43) rotate(90)" style="fill: #fff"/>
  <rect x="16.14" y="7.88" width="5.49" height="5.49" transform="translate(29.52 -8.26) rotate(90)" style="fill: #fff"/>
  <rect x="9.1" y="33.75" width="3.12" height="3.12" transform="translate(45.97 24.65) rotate(90)" style="fill: #fff"/>
  <rect x="7.91" y="24.34" width="5.49" height="5.49" transform="translate(37.74 16.43) rotate(90)" style="fill: #fff"/>
</svg>
