<?xml version="1.0" encoding="utf-8"?>
<!-- Generator: Adobe Illustrator 25.4.1, SVG Export Plug-In . SVG Version: 6.00 Build 0)  -->
<svg version="1.1" id="Layer_1" focusable="false" xmlns="http://www.w3.org/2000/svg" xmlns:xlink="http://www.w3.org/1999/xlink"
	 x="0px" y="0px" viewBox="0 0 448 512" style="enable-background:new 0 0 448 512;" xml:space="preserve">
<style type="text/css">
	.st0{fill:#1B2A32;}
</style>
<path class="st0" d="M356,160H188c-6.6,0-12-5.4-12-12v-8c0-6.6,5.4-12,12-12h168c6.6,0,12,5.4,12,12v8C368,154.6,362.6,160,356,160
	z M368,212v-8c0-6.6-5.4-12-12-12H188c-6.6,0-12,5.4-12,12v8c0,6.6,5.4,12,12,12h168C362.6,224,368,218.6,368,212z M432.7,480h3.3
	c6.6,0,12,5.4,12,12v8c0,6.6-5.4,12-12,12H80c-44.2,0-80-35.8-80-80V80C0,35.8,35.8,0,80,0h344c13.3,0,24,10.7,24,24v368
	c0,10-6.2,18.6-14.9,22.2C429.5,430.3,428.7,459.8,432.7,480z M128,384h288V32H128V384z M32,400c13.4-10,30-16,48-16h16V32H80
	c-26.5,0-48,21.5-48,48V400z M404.3,480c-3.1-20.4-2.9-45.2,0-64H80c-64,0-64,64,0,64H404.3z"/>
</svg>
