<svg id="Layer_1" data-name="Layer 1" xmlns="http://www.w3.org/2000/svg" viewBox="0 0 46 46"><defs><style>.cls-1{fill:#326de6;}.cls-2{fill:#fff;}</style></defs><path class="cls-1" d="M3,0H43a3,3,0,0,1,3,3V43a3,3,0,0,1-3,3H3a3,3,0,0,1-3-3V3A3,3,0,0,1,3,0Z"/><path class="cls-2" d="M14.57,30.6l-1.63,1.66H8.13v5.8h5.8V33.24l1.63-1.68Zm-2,6.07h-3v-3h3Z"/><path class="cls-2" d="M13.93,7.94H8.13v5.79h4.79l1.64,1.91,1-.91-1.68-2Zm-1.39,4.4h-3v-3h3Z"/><path class="cls-2" d="M31.44,15.64l1.65-1.91h4.78V7.94h-5.8V12.8l-1.68,1.95Zm2-6.31h3v3h-3Z"/><path class="cls-2" d="M33.06,32.26l-1.63-1.67-1,1,1.63,1.68v4.82h5.8v-5.8Zm3.42,4.41h-3v-3h3Z"/><path class="cls-2" d="M31.8,23.82V22.43H29.94a6.79,6.79,0,0,0-1.55-3.71l1.32-1.32-1-1-1.31,1.31a7,7,0,0,0-3.73-1.55V14.33H22.31v1.85a7,7,0,0,0-3.73,1.55l-1.31-1.31-1,1,1.32,1.32a6.79,6.79,0,0,0-1.55,3.71H14.2v1.39h1.86a6.82,6.82,0,0,0,1.55,3.72l-1.32,1.31,1,1,1.31-1.31a7,7,0,0,0,3.73,1.55v1.85h1.38V30.07a7,7,0,0,0,3.73-1.55l1.31,1.31,1-1-1.32-1.31a6.82,6.82,0,0,0,1.55-3.72ZM23,28.71a5.55,5.55,0,1,1,5.55-5.55A5.54,5.54,0,0,1,23,28.71Z"/><path class="cls-2" d="M23,20.55a2.58,2.58,0,1,0,2.58,2.57h0A2.58,2.58,0,0,0,23,20.55Zm0,3.76a1.19,1.19,0,1,1,1.19-1.19h0A1.18,1.18,0,0,1,23,24.31Z"/></svg>