<svg id="Layer_1" data-name="Layer 1" xmlns="http://www.w3.org/2000/svg" viewBox="0 0 46 46"><defs><style>.cls-1{fill:#326de6;}.cls-2{fill:none;stroke:#fff;stroke-linecap:round;stroke-linejoin:round;stroke-width:2px;}</style></defs><path class="cls-1" d="M3,0H43a3,3,0,0,1,3,3V43a3,3,0,0,1-3,3H3a3,3,0,0,1-3-3V3A3,3,0,0,1,3,0Z"/><path class="cls-2" d="M37,20.34A16.92,16.92,0,0,1,23,37,16.68,16.68,0,0,1,9,20.34V10.59H37.07v9.75Z"/><path class="cls-2" d="M28.07,18.72,21.2,25.59a1,1,0,0,1-.63.25.91.91,0,0,1-.62-.25l-2.13-2.12"/></svg>