<svg fill="none" height="22" viewBox="0 0 155 22" width="120" xmlns="http://www.w3.org/2000/svg"><path d="m4.10502 18.916c.48811 0 .8838-.3946.8838-.8814 0-.4867-.39569-.8813-.8838-.8813s-.88381.3946-.88381.8813c0 .4868.3957.8814.88381.8814z" fill="#fff"/><path d="m4.88487 16.6933s-2.13247-.5813-1.91435-3.826c0 0 0-4.45597 5.40286-5.10997 0 0 5.74242-.36333 6.90562-1.52533 0 0 2.3259-1.50133 3.3438-3.342 0 0 2.6167 6.27199 1.0179 11.1153 0 0-1.0419 3.4387-5.0153 3.8507 0 0-3.029.46-5.93652.1453 0 0-2.49532.024-2.73812.1453-.24279.1214.70238-.9686-1.06589-1.4533z" fill="#fff"/><g fill="#68bd45"><path d="m18.717 1.93203c-.2962.71866-.677 1.35266-1.0999 1.92333-1.861-1.90267-4.4624-3.107332-7.3386-3.107332-5.64697 0-10.2574124 4.587332-10.2574124 10.251972 0 2.9593 1.2686724 5.6227 3.2784024 7.504l.38087.338c1.77628 1.5007 4.0815 2.41 6.59884 2.41 5.3929 0 9.8345-4.2067 10.2147-9.512.2962-2.57865-.4862-5.87665-1.7762-9.80797zm-13.93739 16.65667c-.29616.3806-.84578.4226-1.22665.1266s-.42289-.8453-.12673-1.226c.29615-.3806.84578-.4226 1.22665-.1266.35952.296.42289.8453.12673 1.226zm13.87399-3.0654c-2.5166 3.3607-7.9308 2.2194-11.378 2.3887 0 0-.61366.042-1.22665.1267 0 0 .23279-.106.52895-.2114 2.43195-.8453 3.5739-1.0146 5.0547-1.7753 2.7708-1.416 5.5409-4.5233 6.0912-7.73665-1.0572 3.08595-4.2723 5.74935-7.1905 6.82735-2.00904.74-5.62562 1.4586-5.62562 1.4586l-.14808-.0846c-2.4533-1.2047-2.53801-6.53135 1.9457-8.24402 1.96704-.76066 3.828-.33799 5.9638-.84533 2.2632-.52866 4.8853-2.21933 5.9432-4.43866 1.1846 3.572 2.6227 9.11061.042 12.53461z"/><path d="m78.6753 8.27335c-.6343 0-1.1633-.52866-1.1633-1.16266s.529-1.16267 1.1633-1.16267 1.1633.52867 1.1633 1.16267-.5076 1.16266-1.1633 1.16266zm0-2.15599c-.5496 0-.9939.444-.9939.99333s.4443.99333.9939.99333.9939-.444.9939-.99333-.4443-.99333-.9939-.99333zm.3175 1.64866-.3382-.52866h-.2328v.52866h-.1901v-1.332h.5497c.2327 0 .4442.16934.4442.40134 0 .296-.2748.40133-.3382.40133l.3595.52866h-.2534zm-.2328-1.16266h-.3382v.46533h.3596c.106 0 .2327-.08467.2327-.23267s-.1267-.23266-.2534-.23266z"/><path d="m26.31 15.016c-.2534-.1267-.4229-.4227-.4229-.782 0-.5073.4016-.93.9305-.93.1901 0 .3596.0633.4863.1267.9518.634 1.967.9513 2.8548.9513.9732 0 1.5442-.4227 1.5442-1.078v-.042c0-.782-1.0572-1.036-2.2205-1.3953-1.4595-.4227-3.109-1.0147-3.109-2.91736v-.042c0-1.88133 1.5648-3.02266 3.5319-3.02266 1.0572 0 2.1571.296 3.1303.80333.3175.16933.5496.46533.5496.86666 0 .52867-.4229.93-.9518.93-.1901 0-.2962-.042-.4442-.106-.8038-.42266-1.6282-.67666-2.3266-.67666-.8885 0-1.3961.42266-1.3961.97266v.042c0 .74 1.0786 1.036 2.2419 1.41603 1.4594.444 3.0876 1.12 3.0876 2.896v.042c0 2.0926-1.6282 3.1286-3.6799 3.1286-1.2901 0-2.6648-.4013-3.8067-1.184z"/><path d="m34.6434 7.04736c0-.634.4863-1.14133 1.1206-1.14133.6344 0 1.142.50733 1.142 1.14133v.67667c.7404-1.036 1.7762-1.86 3.3838-1.86 2.3265 0 4.6104 1.83933 4.6104 5.15797v.042c0 3.2974-2.2632 5.158-4.6104 5.158-1.6496 0-2.6861-.8247-3.3838-1.7546v3.5086c0 .634-.5076 1.1413-1.142 1.1413-.6343 0-1.1206-.486-1.1206-1.1413zm7.9736 4.01604v-.042c0-1.92337-1.29-3.17071-2.8342-3.17071-1.5441 0-2.8975 1.28934-2.8975 3.17071v.042c0 1.9026 1.3534 3.1706 2.8975 3.1706 1.5442.0214 2.8342-1.2046 2.8342-3.1706z"/><path d="m45.7881 7.04736c0-.634.4863-1.14134 1.1206-1.14134s1.1419.50734 1.1419 1.14134v.54933c.1061-.84533 1.5015-1.69133 2.4954-1.69133.719 0 1.1206.46533 1.1206 1.12 0 .592-.4016.99333-.9092 1.09933-1.6282.27466-2.7281 1.69133-2.7281 3.65671v3.2766c0 .6133-.5076 1.12-1.1419 1.12-.6344 0-1.1206-.486-1.1206-1.12v-8.01064z"/><path d="m52.5775 7.06804c0-.634.4863-1.14133 1.1206-1.14133s1.142.50733 1.142 1.14133v8.01136c0 .634-.5077 1.12-1.142 1.12s-1.1206-.486-1.1206-1.12z"/><path d="m56.0037 7.06803c0-.634.4863-1.14134 1.1206-1.14134s1.142.50734 1.142 1.14134v.46533c.6343-.93 1.5648-1.62733 3.1089-1.62733 2.2419 0 3.5319 1.50066 3.5319 3.80466v5.34801c0 .634-.4863 1.12-1.1206 1.12s-1.1419-.486-1.1419-1.12v-4.6507c0-1.54331-.7611-2.43064-2.1358-2.43064-1.3748 0-2.2419.93-2.2419 2.47334v4.6293c0 .634-.5076 1.12-1.1419 1.12-.6344 0-1.1206-.486-1.1206-1.12v-8.01197z"/><path d="m74.9317 5.88471c-.6343 0-1.1419.50734-1.1419 1.14134v.67666c-.7404-1.036-1.7763-1.86-3.3838-1.86-2.3266 0-4.6105 1.83933-4.6105 5.15799v.042c0 3.2973 2.2632 5.158 4.6105 5.158 1.6495 0 2.6861-.8247 3.3838-1.7333-.1061 1.7966-1.2054 2.7266-3.1304 2.7266-1.1419 0-2.1358-.2746-3.0456-.782-.106-.0633-.2535-.0846-.4015-.0846-.529 0-.9732.4226-.9732.93 0 .444.2535.7606.6343.9086 1.2053.592 2.4533.888 3.8494.888 1.7976 0 3.1937-.4226 4.0815-1.332.8251-.8246 1.2687-2.0713 1.2687-3.7413v-6.93332c0-.65533-.5076-1.16267-1.142-1.16267zm-3.9975 8.34929c-1.5648 0-2.8341-1.226-2.8341-3.192v-.042c0-1.92329 1.29-3.17062 2.8341-3.17062 1.5442 0 2.8976 1.28933 2.8976 3.17062v.042c.0213 1.9027-1.3327 3.192-2.8976 3.192z"/><path d="m54.8614 3.17872c0 .634-.5076 1.14134-1.1419 1.14134-.6344 0-1.142-.50734-1.142-1.14134s.5076-1.14133 1.142-1.14133c.6136-.02133 1.1419.486 1.1419 1.14133z"/></g><g fill="#727175"><path d="m89.6952 13.804h-5.6777l-1.0232 2.3113h-1.26l4.4917-10.17928h1.26l4.4917 10.17928h-1.26l-1.0232-2.3113zm-.4743-1.0967-2.3572-5.34861-2.3719 5.34861z"/><path d="m94.9246 15.5747c-.8058-.4793-1.4455-1.1233-1.9197-1.934-.4743-.81-.7117-1.684-.7117-2.6227 0-.9386.2374-1.80996.7117-2.61529.4742-.80467 1.1139-1.44667 1.9197-1.926.805-.47933 1.6675-.71866 2.5867-.71866.6917 0 1.354.136 1.9863.40733.6324.272 1.1904.65466 1.6754 1.14866l-.786.8c-.375-.40533-.8127-.72066-1.3116-.948-.4989-.22733-1.0205-.34066-1.5641-.34066-.7218 0-1.3914.19066-2.0091.57066-.6177.38067-1.1119.894-1.4821 1.54133-.3702.64734-.5557 1.34063-.5557 2.08203 0 .7413.1855 1.4473.5557 2.0893.3708.642.8644 1.1553 1.4821 1.5407.6177.3853 1.2873.578 2.0091.578.5436 0 1.0652-.1134 1.5641-.3407s.9366-.5433 1.3116-.9487l.786.8c-.484.484-1.043.8647-1.6754 1.1407-.6323.2767-1.2946.4153-1.9863.4153-.9192 0-1.7817-.2393-2.5867-.7186z"/><path d="m109.872 13.804h-5.678l-1.023 2.3113h-1.26l4.492-10.17928h1.26l4.491 10.17928h-1.26l-1.023-2.3113zm-.474-1.0967-2.358-5.34861-2.371 5.34861z"/><path d="m113.654 5.93602h3.439c1.067 0 2.019.21734 2.854.652.835.43467 1.487 1.03733 1.957 1.80733.469.77067.704 1.64465.704 2.62265s-.235 1.8547-.704 2.63c-.47.776-1.122 1.3807-1.957 1.8153-.835.4347-1.787.652-2.854.652h-3.439zm3.439 9.12728c.84 0 1.589-.1726 2.246-.5186.657-.3454 1.171-.8247 1.542-1.4374.371-.6126.556-1.3086.556-2.0893 0-.7806-.186-1.47465-.556-2.08198-.371-.60733-.884-1.084-1.542-1.43-.657-.34533-1.406-.51866-2.246-.51866h-2.283v8.07534h2.283z"/><path d="m125.862 7.03269v3.34871h5.53v1.0966h-5.53v3.5413h6.138v1.0967h-7.308v-10.17998h7.308v1.09667z"/><path d="m133.977 5.93602h1.155l3.781 7.09728 3.781-7.09728h1.156v10.17928h-1.156v-7.69061l-3.781 7.09731-3.781-7.09731v7.69061h-1.155z"/><path d="m149.421 11.9667-4.107-6.03068h1.438l3.277 4.93398 3.306-4.93398h1.393l-4.092 6.03068v4.1493h-1.216v-4.1493z"/></g></svg>