<svg fill="none" height="31" viewBox="0 0 160 31" width="160" xmlns="http://www.w3.org/2000/svg" xmlns:xlink="http://www.w3.org/1999/xlink"><linearGradient id="a"><stop offset="0" stop-color="#0091da"/><stop offset="1" stop-color="#1d428a"/></linearGradient><linearGradient id="b" gradientUnits="userSpaceOnUse" x1="22.0428" x2="6.97838" xlink:href="#a" y1="28.435" y2="28.5426"/><linearGradient id="c" gradientUnits="userSpaceOnUse" x1="28.1789" x2="17.7413" xlink:href="#a" y1="17.7874" y2="30.9688"/><linearGradient id="d" gradientUnits="userSpaceOnUse" x1="26.6443" x2="23.3086" y1="21.9046" y2="8.45417"><stop offset="0" stop-color="#1d428a"/><stop offset="1" stop-color="#0091da"/></linearGradient><linearGradient id="e" gradientUnits="userSpaceOnUse" x1="11.4312" x2="1.20892" xlink:href="#a" y1="30.6338" y2="18.9051"/><linearGradient id="f" gradientUnits="userSpaceOnUse" x1="2.17599" x2="5.8345" xlink:href="#a" y1="23.6128" y2="7.04188"/><linearGradient id="g" gradientUnits="userSpaceOnUse" x1="2.15617" x2="17.382" xlink:href="#a" y1="11.8841" y2="4.19047"/><linearGradient id="h" gradientUnits="userSpaceOnUse" x1="12.5543" x2="26.0047" xlink:href="#a" y1="4.80307" y2="11.5283"/><g fill="#727175"><path d="m40.207 8.11349h-3.9101v-1.26388h9.1236v1.26388h-3.9101v10.38761h-1.3034z"/><path d="m51.3844 10.5226c.5925.6714.9084 1.5403.9084 2.6462v5.332h-1.2638v-1.3823c-.316.5134-.7505.8689-1.3034 1.1454-.553.2764-1.1454.3949-1.7774.3949-.9479 0-1.6983-.2369-2.2908-.7504-.5924-.5135-.9084-1.1849-.9084-2.0143 0-.553.158-1.0664.474-1.5009.316-.4344.7109-.7899 1.2639-1.0269.5134-.237 1.1059-.3555 1.6983-.3555.8689 0 1.8168.158 2.8438.474v-.316c0-.7109-.1975-1.3034-.553-1.8168-.3555-.474-.9874-.7504-1.8168-.7504-.395 0-.79.079-1.2244.1974-.395.158-.8689.3555-1.3429.5925l-.5135-1.0269c1.1454-.55297 2.1724-.82944 3.1598-.82944 1.1849 0 2.0538.31597 2.6462.98744zm-1.4219 6.5564c.553-.316.9085-.7505 1.0665-1.3429v-1.3429c-.869-.237-1.7379-.3555-2.6463-.3555-.6714 0-1.2244.158-1.6984.5135-.4739.3555-.7109.7504-.7109 1.3034 0 .5134.1975.9479.632 1.2639.3949.3159.9479.4739 1.5798.4739.632-.0395 1.2244-.1975 1.7773-.5134z"/><path d="m60.5479 9.96962c.5134.27648.8689.67148 1.1454 1.18488.2764.5135.3949 1.1059.3949 1.7773v5.569h-1.2639v-5.411c0-.7109-.1974-1.3033-.5924-1.7378s-.9479-.6714-1.5799-.6714c-.4739 0-.9479.1184-1.3428.3159-.395.1975-.7505.474-.9875.8294-.2369.3555-.3554.711-.3554 1.1059v5.569h-1.2639v-8.76816h1.2639v1.38236c.2765-.4739.6319-.8689 1.1849-1.14538.5134-.27648 1.1059-.43446 1.6983-.43446.632 0 1.1849.11849 1.6984.43446z"/><path d="m63.51 17.474 5.174-6.5564h-5.0555v-1.18493h6.7539v.98743l-5.174 6.5564h5.2135v1.1849h-6.9119z"/><path d="m79.2296 9.73267v8.72873h-1.2639v-1.3824c-.2765.474-.6319.8689-1.1849 1.1454-.5135.2765-1.1059.4345-1.6983.4345-.632 0-1.2244-.158-1.6984-.4345-.5134-.2765-.8689-.6714-1.1454-1.1849-.2765-.5134-.3949-1.1059-.3949-1.7773v-5.52953h1.2638v5.41103c0 .7109.1975 1.3034.5925 1.7378.395.4345.9479.6715 1.5798.6715.474 0 .948-.1185 1.3429-.316.4345-.1975.7505-.474.9874-.8294.237-.3555.3555-.711.3555-1.1059v-5.56903z"/><path d="m95.8181 15.8546h-6.4775l-1.1848 2.6463h-1.4219l5.1345-11.61198h1.4219l5.1345 11.61198h-1.4218zm-.553-1.2639-2.6857-6.12193-2.7253 6.12193z"/><path d="m101.308 18.0664c-.711-.4345-1.264-.9874-1.6587-1.6984-.395-.7109-.632-1.4613-.632-2.2908 0-.8294.1975-1.5798.632-2.2513.3947-.7109.9477-1.2638 1.6587-1.6588.711-.43446 1.461-.63194 2.251-.63194.593 0 1.146.11849 1.699.35546.553.23698 1.027.55298 1.422.94788l-.869.869c-.277-.316-.632-.553-1.027-.7505s-.79-.2764-1.225-.2764c-.592 0-1.105.1579-1.579.4739s-.869.7109-1.185 1.2639c-.277.5134-.435 1.1059-.435 1.6983 0 .632.158 1.1849.435 1.6984.276.5134.671.9479 1.185 1.2639.474.3159 1.026.4739 1.579.4739.435 0 .83-.079 1.225-.2764.395-.1975.75-.4345 1.066-.79l.869.8689c-.434.4345-.908.7505-1.461.9875-.553.2369-1.106.3554-1.699.3554-.829 0-1.579-.237-2.251-.6319z"/><path d="m114.224 10.5226c.592.6714.908 1.5403.908 2.6462v5.332h-1.264v-1.3823c-.316.5134-.75.8689-1.303 1.1454-.553.2764-1.146.3949-1.778.3949-.948 0-1.698-.2369-2.29-.7504-.593-.5135-.909-1.1849-.909-2.0143 0-.553.158-1.0664.474-1.5009.316-.4344.711-.7899 1.264-1.0269.513-.237 1.106-.3555 1.698-.3555.869 0 1.817.158 2.844.474v-.316c0-.7109-.197-1.3034-.553-1.8168-.355-.474-.987-.7504-1.817-.7504-.395 0-.79.079-1.224.1974-.395.158-.869.3555-1.343.5925l-.513-1.0269c1.145-.55297 2.172-.82944 3.159-.82944 1.185 0 2.054.31597 2.647.98744zm-1.422 6.5564c.553-.316.908-.7505 1.066-1.3429v-1.3429c-.869-.237-1.738-.3555-2.646-.3555-.672 0-1.225.158-1.699.5135s-.71.7504-.71 1.3034c0 .5134.197.9479.631 1.2639.395.3159.948.4739 1.58.4739.632-.0395 1.225-.1975 1.778-.5134z"/><path d="m125.401 6.65194v11.80946h-1.264v-1.6589c-.356.5925-.79 1.0269-1.343 1.3429s-1.145.474-1.856.474c-.751 0-1.422-.1975-2.054-.5925s-1.106-.9479-1.462-1.6193c-.355-.711-.513-1.5009-.513-2.3698 0-.869.158-1.6589.513-2.3698.356-.711.83-1.2244 1.462-1.6194.632-.39494 1.303-.59242 2.054-.59242.671 0 1.303.15799 1.856.47396.553.31596.987.78996 1.343 1.34286v-4.73955h1.264zm-2.686 10.46656c.434-.2765.79-.7109 1.066-1.2244.237-.5135.356-1.1059.356-1.7773 0-.6715-.119-1.2639-.356-1.7774-.237-.5134-.592-.9084-1.066-1.2244-.435-.2764-.948-.4344-1.54-.4344-.553 0-1.067.158-1.501.4344-.435.2765-.79.711-1.027 1.2244-.237.5135-.356 1.1059-.356 1.7774 0 .6714.119 1.2638.356 1.7773s.592.9479 1.027 1.2244c.434.2765.948.4345 1.501.4345.592 0 1.105-.158 1.54-.4345z"/><path d="m133.3 17.2369c.514-.1975.909-.4345 1.185-.7505l.79.8294c-.355.395-.908.7505-1.58.9875-.671.2369-1.303.3554-1.935.3554-.79 0-1.501-.1975-2.172-.5924-.672-.395-1.225-.9479-1.62-1.6589-.395-.7109-.632-1.5008-.632-2.3698 0-.8294.198-1.6193.593-2.3302.395-.711.908-1.2639 1.58-1.6589.671-.39496 1.382-.59245 2.172-.59245 1.303 0 2.33.47396 3.041 1.38235.711.9084 1.106 2.1328 1.106 3.6732h-7.149c.079.8689.435 1.5799.988 2.1328.553.553 1.264.8294 2.133.8294.473.079.987-.0395 1.5-.2369zm-3.633-5.806c-.553.5134-.909 1.1849-1.027 2.0143h5.885c-.079-.8294-.395-1.5009-.869-2.0143-.474-.5135-1.146-.7505-1.975-.7505-.79 0-1.461.237-2.014.7505z"/><path d="m148.664 9.96962c.474.27648.83.67148 1.106 1.18488.277.5135.395 1.1059.395 1.7379v5.5689h-1.264v-5.3715c0-.7109-.197-1.3033-.552-1.7378-.395-.4345-.869-.6714-1.462-.6714-.711 0-1.264.1974-1.698.6319-.435.4345-.672.9479-.672 1.6193v5.569h-1.264v-5.411c0-.7109-.197-1.3033-.552-1.7378-.395-.4345-.869-.6714-1.462-.6714-.711 0-1.264.1974-1.698.6319-.435.4345-.672.9479-.672 1.6193v5.569h-1.264v-8.76816h1.264v1.30336c.237-.4739.553-.8294.988-1.10588.434-.27647.948-.39496 1.54-.39496.672 0 1.304.19748 1.817.55294.513.3555.869.8689 1.106 1.5404.118-.632.434-1.1059.948-1.5009.513-.39496 1.106-.59244 1.777-.59244.593 0 1.146.11849 1.619.43446z"/><path d="m151.666 21.2262.316-1.0664c.277.158.632.237 1.027.237.276 0 .553-.0395.711-.158.197-.1185.355-.3159.553-.5924l.513-1.0664-3.791-8.76823h1.422l3.08 7.26733 2.883-7.26733h1.383l-3.989 9.71613c-.277.7109-.672 1.2244-1.067 1.5798-.395.3555-.948.474-1.58.5135-.592-.079-1.026-.1975-1.461-.395z"/><path d="m83.6926 7.28385c.2764.15799.4739.35547.6319.63195.158.27647.237.55295.237.82942 0 .27648-.079.59245-.237.82943-.158.27647-.3555.47395-.6319.63195-.2765.158-.553.237-.8295.237-.3159 0-.5924-.079-.8294-.237-.2765-.158-.4739-.35548-.6319-.63195-.158-.27648-.237-.55295-.237-.82943 0-.27647.079-.59245.237-.82942.158-.27648.3554-.47396.6319-.63195.2765-.15798.553-.23697.8294-.23697.316 0 .5925.07899.8295.23697zm-.1185 2.72525c.237-.11848.3949-.31596.5134-.51345.1185-.23698.1975-.47395.1975-.71093 0-.27648-.079-.51346-.1975-.71094-.1185-.23698-.3159-.39496-.5134-.51345-.237-.11849-.474-.19748-.711-.19748-.2764 0-.5134.07899-.7109.19748-.237.11849-.395.31597-.5134.51345-.1185.23698-.1975.47396-.1975.71094 0 .27647.079.51345.1975.71093.1184.23698.3159.39497.5134.51345.237.1185.474.1975.7109.1975.237 0 .5135-.079.711-.1975zm.079-1.14539c-.079.11849-.1975.19748-.316.23698l.474.67144h-.5135l-.4345-.63194h-.3159v.63194h-.5135v-2.05382h.9874c.237 0 .4345.079.553.19749.158.11849.1975.31597.1975.51345 0 .15799-.0395.31597-.1185.43446zm-1.1059-.19748h.3949c.079 0 .158 0 .1975-.0395.0395-.03949.079-.07899.079-.15798 0-.079-.0395-.11849-.079-.15799s-.1185-.0395-.1975-.0395h-.3949z"/><path d="m43.4455 23.7145c.316.1974.5529.4739.7109.7899.158.3555.2765.7109.2765 1.1454 0 .4344-.079.8294-.2765 1.1849-.158.3554-.3949.6319-.7109.7899-.316.1975-.6319.2765-1.0269.2765-.3555 0-.632-.079-.9084-.237-.2765-.158-.474-.395-.6715-.6714v.7899h-.6319v-5.7665h.6319v2.3303c.158-.2765.395-.5135.6715-.6714.2764-.158.5924-.237.9084-.237.395 0 .7109.079 1.0269.2765zm-.395 3.4361c.237-.1579.395-.3554.5135-.5924.1185-.2765.1975-.5529.1975-.8689s-.079-.632-.1975-.8689c-.1185-.237-.2765-.474-.5135-.5925s-.4739-.1975-.7504-.1975-.5135.079-.7504.1975c-.237.158-.395.3555-.5135.5925-.1185.2369-.1975.5529-.1975.8689s.079.6319.1975.8689c.1185.2765.2765.474.5135.5924.2369.158.4739.1975.7504.1975s.5529-.0395.7504-.1975z"/><path d="m44.9858 29.2048.158-.5529c.158.079.316.1185.5135.1185.158 0 .2765-.0395.3554-.079.079-.0395.1975-.158.2765-.316l.237-.553-1.8958-4.3051h.7109l1.5009 3.5942 1.4218-3.5942h.6715l-1.9748 4.7791c-.158.3555-.316.6319-.553.7899-.1975.158-.4739.237-.7899.237-.1975 0-.4345-.0395-.632-.1185z"/><path d="m57.2694 22.0952-2.5278 5.727h-.7109l-2.5278-5.727h.711l2.1723 4.9371 2.1723-4.9371z"/><path d="m58.2173 22.0952h.6319l2.1328 3.9892 2.1328-3.9892h.632v5.727h-.632v-4.3051l-2.1328 3.9891-2.0933-3.9891v4.3446h-.6319v-5.7665z"/><path d="m64.6948 23.5173h.6715l1.0664 3.4757 1.1849-3.4757h.5529l1.1849 3.4757 1.0664-3.4757h.6714l-1.4613 4.3051h-.5925l-1.1454-3.4361-1.1454 3.4361h-.5924z"/><path d="m74.6085 23.9121c.316.316.4345.7505.4345 1.3034v2.6068h-.632v-.6715c-.1579.237-.3554.4345-.6319.553s-.5529.1975-.8689.1975c-.474 0-.8294-.1185-1.1454-.3555-.2765-.237-.4345-.5924-.4345-.9874 0-.2765.079-.5135.237-.7504.158-.237.3555-.395.6319-.5135.2765-.1185.553-.1975.8295-.1975.4344 0 .9084.079 1.3823.237v-.158c0-.3554-.079-.6319-.2764-.8689-.1975-.237-.474-.3555-.9085-.3555-.1974 0-.3949.0395-.5924.1185s-.4345.158-.6714.2765l-.237-.5135c.5529-.2764 1.0664-.4344 1.5403-.4344.632.0395 1.0664.1975 1.3429.5134zm-.7109 3.2387c.2765-.1579.4344-.3949.5134-.6714v-.6714c-.4344-.1185-.8689-.158-1.3033-.158-.316 0-.5925.079-.8295.237-.2369.1579-.3554.3949-.3554.6319 0 .2765.1185.474.3159.6319.1975.158.474.237.79.237.3159 0 .5924-.079.8689-.237z"/><path d="m77.5705 23.675c.2765-.158.632-.237 1.0269-.237v.5529c-.3159 0-.5924.079-.8689.1975-.237.1185-.4344.2765-.5924.5135s-.1975.4739-.1975.7504v2.4093h-.632v-4.3446h.632v.8294c.1185-.2765.316-.5134.6319-.6714z"/><path d="m81.8754 27.2297c.2765-.1185.4344-.237.5924-.3555l.395.395c-.1975.1975-.4345.3555-.7899.474-.3555.1184-.632.1974-.948.1974-.3949 0-.7504-.079-1.0664-.2764-.3159-.1975-.5924-.474-.7899-.8295-.1975-.3554-.316-.7504-.316-1.1454 0-.4344.079-.7899.2765-1.1454.1975-.3554.4345-.6319.7899-.7899.316-.1975.6715-.2765 1.0664-.2765.632 0 1.1454.237 1.5009.6715.3555.4344.553 1.0664.553 1.8168h-3.5152c.0395.4345.1975.7899.4739 1.0664.2765.2765.632.395 1.0269.395.237-.0395.474-.1185.7505-.1975zm-1.8169-2.8832c-.2764.2369-.4344.5924-.5134.9874h2.8832c-.0395-.395-.1975-.7505-.4344-.9874-.237-.237-.553-.395-.9874-.395-.316.0395-.6715.158-.948.395z"/></g><path d="m18.5236 26.084h-8.0573l3.7917 4.7791h.4739 6.0825l3.8311-4.7791z" fill="url(#b)"/><path d="m27.3709 15.0251-3.7917 4.7791-5.0555 6.2799h6.1219l.2765-.3554 3.7917-4.7791z" fill="url(#c)"/><path d="m27.2128 14.3932-1.3034-5.76647-5.49-2.64626 1.3034 5.76643.0395.1975 1.8168 7.8598 3.7917-4.779z" fill="url(#d)"/><path d="m10.4663 26.0841-5.01605-6.2799-1.38238 5.9245.31597.3554 3.79166 4.7791h6.0824z" fill="url(#e)"/><path d="m1.73773 14.5511-.11848.474-1.342883 5.9244 3.791653 4.7791 1.38238-5.9245 1.77734-7.8598z" fill="url(#f)"/><path d="m9.00489 5.78296-.43446.19748-5.49 2.64626-1.34288 5.9245 5.49-2.6068 7.26735-3.51518z" fill="url(#g)"/><path d="m20.4193 5.98046-.4344-.19748-5.49-2.64626-5.49002 2.64626 5.49002 2.64626 7.2673 3.51516z" fill="url(#h)"/></svg>