<svg xmlns="http://www.w3.org/2000/svg" viewBox="0 0 400 400"><polygon points="186.827 8.552 186.827 26.302 65.627 84.682 51.707 73.622 186.827 8.552" fill="#00c1d5"/><polygon points="346.947 73.622 333.027 84.682 211.827 26.302 211.827 8.552 346.947 73.622" fill="#00c1d5"/><path d="M390.207,214.412a124.533,124.533,0,0,0-20.05-15.93l-21.52-94.28,13.89-11.04Z" fill="#1d428a"/><polygon points="50.017 104.212 20.077 235.382 2.757 239.372 36.127 93.172 50.017 104.212" fill="#1d428a"/><polygon points="109.507 364.962 101.817 380.982 8.317 263.742 25.607 259.752 109.507 364.962" fill="#78be20"/><path d="M203.317,375.832a123.759,123.759,0,0,0,13.88,16h-92.85l7.69-16Z" fill="#00c1d5"/><path d="M337.087,183.672a122.04,122.04,0,0,0-17.21-3.52l-10.26-44.94-3.11-13.64-12.4-5.97-82.28-39.62-12.5-6.02-12.5,6.02-82.28,39.62-12.4,5.97-3.11,13.64-20.3,88.95-3.06,13.39,8.74,10.96,56.82,71.24,8.61,10.8h42.88a121.528,121.528,0,0,0,4.8,16h-55.39l-8.6-10.78-66.41-83.28-8.76-10.99,3.05-13.35,23.72-103.98,3.12-13.67,12.37-5.96,96.2-46.32,12.5-6.02,12.5,6.02,96.19,46.33,12.37,5.95,3.12,13.67Z" fill="#0091da"/><path d="M352.833,223.3l-11.39,11.39h-.01l-42.34,42.35-22.74,22.73h16.7v15.6h-43.34v-43.33h15.61v16.69l60.58-60.58a78.129,78.129,0,0,0-99.08,89.34l-12.88,12.88A93.7,93.7,0,0,1,352.833,223.3Z" fill="#1d428a"/><path d="M397.243,302.982a93.6,93.6,0,0,1-144.09,78.98l11.36-11.36c.01.01.02.01.03.02l64.42-64.42h-16.98V290.6H355.6v43.62H340v-16.98l-60.17,60.17A78.169,78.169,0,0,0,379.9,286.5l12.7-12.69A93.075,93.075,0,0,1,397.243,302.982Z" fill="#1d428a"/></svg>