<svg xmlns="http://www.w3.org/2000/svg" xmlns:xlink="http://www.w3.org/1999/xlink" viewBox="0 0 1007.05 549.29"><defs><style>.cls-1,.cls-11,.cls-9{fill:none;}.cls-2{isolation:isolate;}.cls-3{fill:url(#linear-gradient);}.cls-4{fill:url(#linear-gradient-2);}.cls-5{fill:url(#linear-gradient-3);}.cls-6{fill-rule:evenodd;fill:url(#linear-gradient-4);}.cls-7{clip-path:url(#clip-path);}.cls-15,.cls-8{mix-blend-mode:soft-light;}.cls-8{opacity:0.7;fill:url(#linear-gradient-5);}.cls-9{stroke:#0091da;stroke-linecap:round;stroke-linejoin:round;stroke-width:2.61px;}.cls-10{fill:#07968c;mix-blend-mode:multiply;opacity:0.2;}.cls-11{stroke:#83c6ed;stroke-miterlimit:10;stroke-width:4px;opacity:0.4;}.cls-12{fill:url(#linear-gradient-6);}.cls-13{fill:url(#linear-gradient-7);}.cls-14{clip-path:url(#clip-path-2);}.cls-15{fill:url(#linear-gradient-8);}.cls-16{fill:url(#linear-gradient-9);}.cls-17{fill:#00c1d5;}.cls-18{fill:url(#linear-gradient-10);}.cls-19{fill:#78be20;}.cls-20{fill:url(#linear-gradient-11);}.cls-21{fill:#009289;}.cls-22{fill:#f7c22b;}.cls-23{fill:#0091da;}.cls-24{fill:#a02843;}.cls-25{fill:#abd037;}.cls-26{fill:#1d428a;}.cls-27{fill:url(#linear-gradient-12);}.cls-28{fill:url(#linear-gradient-13);}.cls-29,.cls-30{opacity:0.08;}.cls-29{fill:url(#linear-gradient-14);}.cls-30{fill:url(#linear-gradient-15);}</style><linearGradient id="linear-gradient" x1="503.53" y1="549.29" x2="503.53" gradientUnits="userSpaceOnUse"><stop offset="0" stop-color="#0091da" stop-opacity="0"/><stop offset="0.06" stop-color="#0091da" stop-opacity="0.05"/><stop offset="0.25" stop-color="#0091da" stop-opacity="0.19"/><stop offset="0.41" stop-color="#0091da" stop-opacity="0.27"/><stop offset="0.53" stop-color="#0091da" stop-opacity="0.3"/><stop offset="0.63" stop-color="#0091da" stop-opacity="0.27"/><stop offset="0.78" stop-color="#0091da" stop-opacity="0.19"/><stop offset="0.94" stop-color="#0091da" stop-opacity="0.06"/><stop offset="1" stop-color="#0091da" stop-opacity="0"/></linearGradient><linearGradient id="linear-gradient-2" x1="274.84" y1="91.2" x2="274.84" y2="457.73" gradientUnits="userSpaceOnUse"><stop offset="0" stop-color="#7f35b2" stop-opacity="0"/><stop offset="0.2" stop-color="#7f35b2" stop-opacity="0.16"/><stop offset="0.37" stop-color="#7f35b2" stop-opacity="0.26"/><stop offset="0.5" stop-color="#7f35b2" stop-opacity="0.3"/><stop offset="0.62" stop-color="#7f35b2" stop-opacity="0.26"/><stop offset="0.8" stop-color="#7f35b2" stop-opacity="0.16"/><stop offset="1" stop-color="#7f35b2" stop-opacity="0"/></linearGradient><linearGradient id="linear-gradient-3" x1="321.77" y1="415.74" x2="558.7" y2="178.81" gradientUnits="userSpaceOnUse"><stop offset="0" stop-color="#a0d2f1"/><stop offset="0.03" stop-color="#a5d4f2"/><stop offset="0.32" stop-color="#cce7f7"/><stop offset="0.59" stop-color="#e8f4fc"/><stop offset="0.83" stop-color="#f9fcfe"/><stop offset="1" stop-color="#fff"/></linearGradient><linearGradient id="linear-gradient-4" x1="299.75" y1="192.96" x2="614.31" y2="192.96" xlink:href="#linear-gradient-3"/><clipPath id="clip-path"><rect class="cls-1" x="299.75" y="183.77" width="314.56" height="193.42" rx="7.34"/></clipPath><linearGradient id="linear-gradient-5" x1="422.37" y1="167.35" x2="422.37" y2="424.82" gradientUnits="userSpaceOnUse"><stop offset="0.28" stop-color="#fff"/><stop offset="0.44" stop-color="#fff" stop-opacity="0.62"/><stop offset="0.6" stop-color="#fff" stop-opacity="0.28"/><stop offset="0.7" stop-color="#fff" stop-opacity="0.08"/><stop offset="0.75" stop-color="#fff" stop-opacity="0"/></linearGradient><linearGradient id="linear-gradient-6" x1="8055.83" y1="-9517.74" x2="7985.83" y2="-9587.74" gradientTransform="translate(-7745.56 9864.82)" gradientUnits="userSpaceOnUse"><stop offset="0.05" stop-color="#1d428a"/><stop offset="0.85" stop-color="#0091da"/></linearGradient><linearGradient id="linear-gradient-7" x1="8053.24" y1="-9520.33" x2="7991.83" y2="-9581.74" gradientTransform="translate(-7745.56 9864.82)" gradientUnits="userSpaceOnUse"><stop offset="0" stop-color="#a0d2f1"/><stop offset="0.01" stop-color="#a1d2f1"/><stop offset="0.68" stop-color="#e4f2fb"/><stop offset="1" stop-color="#fff"/></linearGradient><clipPath id="clip-path-2"><rect class="cls-1" x="219.87" y="286.23" width="138.61" height="79.51" rx="5.51" transform="translate(-36.81 615.15) rotate(-90)"/></clipPath><linearGradient id="linear-gradient-8" x1="294.17" y1="249.59" x2="294.17" y2="365.72" xlink:href="#linear-gradient-5"/><linearGradient id="linear-gradient-9" x1="445.63" y1="389.35" x2="518.53" y2="389.35" gradientUnits="userSpaceOnUse"><stop offset="0" stop-color="#7f35b2"/><stop offset="0.2" stop-color="#7b36b0"/><stop offset="0.4" stop-color="#6f37ab"/><stop offset="0.61" stop-color="#5a3aa3"/><stop offset="0.81" stop-color="#3e3e97"/><stop offset="1" stop-color="#1d428a"/></linearGradient><linearGradient id="linear-gradient-10" x1="564.17" y1="171.34" x2="699.75" y2="171.34" xlink:href="#linear-gradient-9"/><linearGradient id="linear-gradient-11" x1="182.43" y1="280.11" x2="261.65" y2="359.33" xlink:href="#linear-gradient-9"/><linearGradient id="linear-gradient-12" x1="503.21" y1="374.83" x2="705.43" y2="374.83" gradientUnits="userSpaceOnUse"><stop offset="0" stop-color="#abcf37"/><stop offset="0.73" stop-color="#35b787"/></linearGradient><linearGradient id="linear-gradient-13" x1="503.31" y1="374.83" x2="705.32" y2="374.83" xlink:href="#linear-gradient-12"/><linearGradient id="linear-gradient-14" x1="503.21" y1="361.36" x2="705.85" y2="361.36" gradientUnits="userSpaceOnUse"><stop offset="0" stop-color="#a0d1f1"/><stop offset="1" stop-color="#83c6ed" stop-opacity="0"/></linearGradient><linearGradient id="linear-gradient-15" x1="503.31" y1="361.29" x2="705.32" y2="361.29" xlink:href="#linear-gradient-14"/></defs><g class="cls-2"><g id="Layer_2" data-name="Layer 2"><g id="parallelograms"><polygon class="cls-3" points="0.01 549.29 549.3 0 1007.04 0 457.76 549.29 0.01 549.29"/><polygon class="cls-4" points="549.68 91.2 183.1 457.73 0 457.73 366.58 91.2 549.68 91.2"/></g><g id="desktop"><rect class="cls-5" x="299.75" y="183.77" width="314.56" height="193.42" rx="7.34"/><path class="cls-6" d="M299.75,202.15V190.78a7,7,0,0,1,7-7H607.3a7,7,0,0,1,7,7v11.37"/><g class="cls-7"><polygon class="cls-8" points="293.63 424.82 293.63 167.35 551.1 167.35 293.63 424.82"/></g><rect class="cls-9" x="309.92" y="190.79" width="7.2" height="7.2" rx="0.91"/><line class="cls-9" x1="323.62" y1="194.39" x2="346.11" y2="194.39"/><circle class="cls-10" cx="631.96" cy="181.98" r="67.79"/><circle class="cls-10" cx="222.35" cy="329.12" r="56.02"/><circle class="cls-10" cx="482.28" cy="395.47" r="36.45"/><line class="cls-11" x1="340.92" y1="225.7" x2="457.83" y2="225.7"/><line class="cls-11" x1="340.92" y1="244.65" x2="457.83" y2="244.85"/><line class="cls-11" x1="340.92" y1="339.9" x2="457.83" y2="340.1"/><line class="cls-11" x1="374.92" y1="263.7" x2="491.83" y2="263.9"/><line class="cls-11" x1="402.92" y1="282.75" x2="519.83" y2="282.95"/><line class="cls-11" x1="402.92" y1="301.8" x2="519.83" y2="302"/><line class="cls-11" x1="402.92" y1="320.85" x2="519.83" y2="321.05"/></g><g id="mobile"><rect class="cls-12" x="208.84" y="282.01" width="160.65" height="87.93" rx="6.24" transform="translate(-36.81 615.15) rotate(-90)"/><rect class="cls-13" x="219.87" y="286.23" width="138.61" height="79.51" rx="5.51" transform="translate(-36.81 615.15) rotate(-90)"/><g class="cls-14"><polygon class="cls-15" points="235.44 365.72 352.9 249.78 235.82 249.59 235.44 365.72"/></g></g><g id="symbols"><circle class="cls-16" cx="482.08" cy="389.35" r="36.45"/><path class="cls-17" d="M494,376.14l-9.18,10.8.08.26,13.52-2.73v8.59l-13.6-2.38-.09.26L494,401.39l-7.57,4.43-4.84-13.18-.17.08-4.94,13.1-7.31-4.43,9.1-10.62v-.17L465,393.06v-8.59l13.18,2.64.09-.17-9-10.71,7.57-4.34,4.76,13h.17l4.85-13Z"/><circle class="cls-18" cx="631.96" cy="171.34" r="67.79"/><path class="cls-17" d="M606.36,215.17,610,190.29H598.72V177.5H612.2l2.23-15.57H602.61V149h13.76l3.48-24.19h12.37L628.74,149h12.65L645,124.82h12.37L653.77,149h11.12v12.92H651.82L649.6,177.5h11.53v12.79H647.51L644,215.17H631.52L635,190.29H622.35l-3.47,24.88Zm30.86-37.67,2.23-15.57H626.8l-2.23,15.57Z"/><path class="cls-19" d="M331.87,161.35a6.42,6.42,0,0,1-3.1-2.7,9,9,0,0,1-.93-4.35v-7.05a4.9,4.9,0,0,0-1.12-3.6,5.32,5.32,0,0,0-3.78-1.1V139.8a5.22,5.22,0,0,0,3.78-1.12,5,5,0,0,0,1.12-3.63v-7a8.94,8.94,0,0,1,.93-4.37,6.43,6.43,0,0,1,3.1-2.68,20,20,0,0,1,6-1.4l.3,2.65a18.84,18.84,0,0,0-4.52,1.1,3.93,3.93,0,0,0-2,1.75,7.36,7.36,0,0,0-.55,3.15l.05,7.2a6.55,6.55,0,0,1-.92,3.68,5.37,5.37,0,0,1-2.83,2,5.62,5.62,0,0,1,2.83,2.08,6.52,6.52,0,0,1,.92,3.67l-.05,7.15a7.17,7.17,0,0,0,.58,3.23,3.85,3.85,0,0,0,2.05,1.75,20,20,0,0,0,4.47,1.07l-.3,2.65A19.7,19.7,0,0,1,331.87,161.35Z"/><path class="cls-19" d="M742.69,406.38a6.49,6.49,0,0,1,3.11,2.7,9.17,9.17,0,0,1,.92,4.35v7.05a4.87,4.87,0,0,0,1.13,3.6,5.24,5.24,0,0,0,3.77,1.1v2.75a5.2,5.2,0,0,0-3.77,1.13,5,5,0,0,0-1.13,3.62v7a9.13,9.13,0,0,1-.92,4.38,6.44,6.44,0,0,1-3.11,2.67,19.27,19.27,0,0,1-6,1.4l-.3-2.65a18.37,18.37,0,0,0,4.52-1.1,3.84,3.84,0,0,0,2-1.75,7.15,7.15,0,0,0,.55-3.15l-.05-7.2a6.46,6.46,0,0,1,.93-3.67,5.32,5.32,0,0,1,2.82-2,5.48,5.48,0,0,1-2.82-2.07,6.47,6.47,0,0,1-.93-3.68l.05-7.15a7.12,7.12,0,0,0-.58-3.22,3.86,3.86,0,0,0-2-1.75,19.62,19.62,0,0,0-4.48-1.08l.3-2.65A19.85,19.85,0,0,1,742.69,406.38Z"/><path class="cls-19" d="M372.45,411.21l2-7.85h-4.49l.57-2.32H375l1.72-6.82h2.51L377.52,401h5.72l1.71-6.82h2.51L385.75,401h4.31l-.58,2.32h-4.3l-2,7.85h4.34l-.57,2.33h-4.38l-1.72,6.86h-2.51l1.71-6.86h-5.71l-1.72,6.86h-2.51l1.71-6.86h-4.46l.58-2.33Zm2.52,0h5.71l2-7.85H377Z"/><path class="cls-19" d="M169.77,221.59a20.29,20.29,0,0,0-4.1,5.84,17.93,17.93,0,0,0,0,13.7,20.88,20.88,0,0,0,4.1,5.85l-1.29,1.36a19.21,19.21,0,0,1-5-6.32,18,18,0,0,1,0-15.48,19.18,19.18,0,0,1,5-6.34Z"/><path class="cls-19" d="M696.64,105a20.53,20.53,0,0,0,4.11-5.84,18.05,18.05,0,0,0,0-13.7,21.13,21.13,0,0,0-4.11-5.85l1.29-1.36a19.21,19.21,0,0,1,5,6.32,18,18,0,0,1,0,15.48,19.18,19.18,0,0,1-5,6.34Z"/><path class="cls-19" d="M645.83,259.61a1,1,0,0,1,.38.77,16.12,16.12,0,0,1-.2,2.43c-.13.85-.22,1.37-.25,1.57-.1.5-.22,1.25-.35,2.25.43-.3,1.05-.78,1.85-1.45a23,23,0,0,1,3.15-2.35,1,1,0,0,1,.5-.15,1.16,1.16,0,0,1,.6.18,1.32,1.32,0,0,1,.5.52,1.65,1.65,0,0,1,.2.65,1,1,0,0,1-.55,1,22.08,22.08,0,0,1-3.65,1.6l-2.15.85,2.15.85a23.9,23.9,0,0,1,3.65,1.6,1,1,0,0,1,.55.95,1.57,1.57,0,0,1-.2.65,1.35,1.35,0,0,1-.5.53,1.24,1.24,0,0,1-.6.17.8.8,0,0,1-.5-.15,21.42,21.42,0,0,1-3.15-2.35c-.8-.66-1.42-1.15-1.85-1.45.13,1,.25,1.75.35,2.25,0,.2.12.73.25,1.58a16.1,16.1,0,0,1,.2,2.42,1,1,0,0,1-.38.78,1.32,1.32,0,0,1-.87.32,1.34,1.34,0,0,1-.88-.32,1,1,0,0,1-.37-.78,16.1,16.1,0,0,1,.2-2.42c.13-.85.22-1.38.25-1.58.1-.5.22-1.25.35-2.25-.43.3-1,.79-1.85,1.45a21.42,21.42,0,0,1-3.15,2.35.8.8,0,0,1-.5.15,1.24,1.24,0,0,1-.6-.17,1.35,1.35,0,0,1-.5-.53,1.57,1.57,0,0,1-.2-.65,1,1,0,0,1,.55-.95,23.9,23.9,0,0,1,3.65-1.6l2.15-.85-2.15-.85a22.08,22.08,0,0,1-3.65-1.6,1,1,0,0,1-.55-1,1.65,1.65,0,0,1,.2-.65,1.32,1.32,0,0,1,.5-.52,1.16,1.16,0,0,1,.6-.18.8.8,0,0,1,.5.15,23,23,0,0,1,3.15,2.35c.8.67,1.42,1.15,1.85,1.45-.13-1-.25-1.75-.35-2.25,0-.2-.12-.72-.25-1.57a16.12,16.12,0,0,1-.2-2.43,1,1,0,0,1,.37-.77,1.3,1.3,0,0,1,.88-.33A1.28,1.28,0,0,1,645.83,259.61Z"/><circle class="cls-20" cx="222.04" cy="319.72" r="56.02"/><path class="cls-17" d="M188.41,315.83c5.77-.16,6.36-3.18,6.36-5.69a58.16,58.16,0,0,0-.51-6.53,61.19,61.19,0,0,1-.41-6.61c0-7.87,4.94-11.3,12.72-11.3h2.93v7.11H208c-3.76,0-5.1,2.26-5.1,5.95,0,1.5.25,3,.42,4.77a57,57,0,0,1,.41,5.69c.09,6.36-2.51,8.71-7.11,9.71v.17c4.6,1,7.2,3.43,7.11,9.79,0,2.18-.25,4.1-.41,5.86s-.42,3.27-.42,4.69c0,3.68,1.25,6,5.1,6h1.51v7h-3c-7.45,0-12.64-3-12.64-11.39a61.19,61.19,0,0,1,.41-6.61,58.16,58.16,0,0,0,.51-6.53c0-2.34-.59-5.52-6.36-5.69Z"/><path class="cls-17" d="M252.86,322.28c-5.69.17-6.36,3.35-6.36,5.69a60.52,60.52,0,0,0,.5,6.53,62,62,0,0,1,.5,6.61c0,8.38-5.19,11.39-12.72,11.39h-3v-7h1.51c3.85-.09,5.11-2.35,5.11-6a32.71,32.71,0,0,0-.42-4.69,57.53,57.53,0,0,1-.42-5.86c-.08-6.36,2.51-8.79,7.2-9.79v-.17c-4.69-1-7.28-3.35-7.2-9.71a54,54,0,0,1,.42-5.69,33.76,33.76,0,0,0,.42-4.77c0-3.69-1.34-5.86-5.11-5.95h-1.51V285.7h2.93c7.87,0,12.81,3.43,12.81,11.3a62,62,0,0,1-.5,6.61,60.52,60.52,0,0,0-.5,6.53c0,2.51.67,5.53,6.36,5.69Z"/></g><g id="controller"><path class="cls-21" d="M604.33,331.73a7.93,7.93,0,1,1,3.95-1.06,7.95,7.95,0,0,1-3.95,1.06Z"/><path class="cls-21" d="M600.42,317a7.82,7.82,0,1,0,10.68,2.86A7.82,7.82,0,0,0,600.42,317Z"/><path class="cls-22" d="M657.05,337.47a7.75,7.75,0,1,1,5.51-2.27A7.85,7.85,0,0,1,657.05,337.47Z"/><path class="cls-22" d="M657.05,337.37a7.69,7.69,0,0,0,5.47-13.09l0,0a7.7,7.7,0,1,0-5.43,13.14Z"/><path class="cls-23" d="M589.44,348.59a5.39,5.39,0,0,1-5.4-5.39,5.33,5.33,0,0,1,1.59-3.81,5.41,5.41,0,0,1,3.71-1.59l.1,0a5.4,5.4,0,0,1,3.82,1.59,5.53,5.53,0,0,1,1.58,3.84,5.41,5.41,0,0,1-5.4,5.4Zm0-8.95a3.59,3.59,0,0,0-2.5,1,3.52,3.52,0,0,0-1,2.5,3.59,3.59,0,0,0,1,2.5,3.49,3.49,0,0,0,2.5,1,3.55,3.55,0,0,0,2.51-1,3.53,3.53,0,0,0-2.51-6Z"/><path class="cls-23" d="M593.19,339.43a5.25,5.25,0,0,0-3.75-1.57v0a5.29,5.29,0,1,0,3.78,1.58ZM592,345.74a3.69,3.69,0,0,1-2.58,1.06,3.63,3.63,0,1,1,2.58-6.2l0,0a3.67,3.67,0,0,1,0,5.11Z"/><path class="cls-23" d="M619.19,348.56a5.4,5.4,0,0,1-3.82-9.2,5.44,5.44,0,0,1,3.82-1.6,5.39,5.39,0,0,1,3.83,1.59,5.44,5.44,0,0,1,1.6,3.82A5.38,5.38,0,0,1,623,347,5.54,5.54,0,0,1,619.19,348.56Zm0-8.92a3.61,3.61,0,0,0-2.51,1,3.51,3.51,0,0,0-1,2.5,3.54,3.54,0,0,0,1,2.5,3.55,3.55,0,0,0,5,0,3.54,3.54,0,0,0,1.06-2.53,3.59,3.59,0,0,0-1-2.5A3.48,3.48,0,0,0,619.21,339.64Z"/><path class="cls-23" d="M622.9,347l.05,0a5.25,5.25,0,0,0,0-7.49,5.24,5.24,0,0,0-3.74-1.57h0a5.33,5.33,0,0,0-5.29,5.31,5.33,5.33,0,0,0,1.55,3.75,5.31,5.31,0,0,0,7.45,0Zm-7.32-3.78a3.62,3.62,0,0,1,1-2.57,3.69,3.69,0,0,1,2.58-1.06,3.63,3.63,0,0,1,2.57,6.2l0,0a3.63,3.63,0,0,1-6.17-2.61Z"/><path class="cls-21" d="M551.44,356.47a13.41,13.41,0,0,1-.22-26.81l.22,0a13.42,13.42,0,0,1,0,26.83Z"/><path class="cls-21" d="M560.85,333.65a13.26,13.26,0,0,0-9.41-3.91h0a13.25,13.25,0,0,0-9.38,3.86l-.05,0a13.32,13.32,0,1,0,18.82,0Z"/><path class="cls-21" d="M574,392.7a2.61,2.61,0,0,1-2.61-2.61v-7.61h-7.62a2.61,2.61,0,0,1-2.6-2.61v-6.43a2.61,2.61,0,0,1,2.6-2.61h7.62v-7.62a2.61,2.61,0,0,1,2.61-2.6h6.43a2.61,2.61,0,0,1,2.61,2.6v7.62h7.62a2.61,2.61,0,0,1,2.6,2.61v6.43a2.61,2.61,0,0,1-2.6,2.61H583v7.61a2.61,2.61,0,0,1-2.61,2.61Z"/><path class="cls-21" d="M590.62,370.93H582.9v-7.72a2.51,2.51,0,0,0-2.51-2.5H574a2.51,2.51,0,0,0-2.51,2.5v7.72h-7.72a2.5,2.5,0,0,0-2.5,2.51v6.43a2.51,2.51,0,0,0,2.5,2.51h7.72v7.71A2.51,2.51,0,0,0,574,392.6h6.43a2.51,2.51,0,0,0,2.51-2.51v-7.71h7.72a2.51,2.51,0,0,0,2.5-2.51v-6.43A2.5,2.5,0,0,0,590.62,370.93Z"/><path class="cls-21" d="M631.27,387.38a13.69,13.69,0,0,1-3.48-.46,13.42,13.42,0,0,1,3.45-26.38,13.69,13.69,0,0,1,3.48.46A13.41,13.41,0,0,1,638,385.57a13.47,13.47,0,0,1-6.7,1.81Z"/><path class="cls-21" d="M634.69,361.1a13.32,13.32,0,1,0,8.09,6.2A13.25,13.25,0,0,0,634.69,361.1Z"/><path class="cls-24" d="M670.94,351.79a7.78,7.78,0,1,1,5.5-2.28A7.81,7.81,0,0,1,670.94,351.79Z"/><path class="cls-24" d="M670.94,336.32a7.66,7.66,0,1,0,5.43,2.24A7.7,7.7,0,0,0,670.94,336.32Z"/><path class="cls-25" d="M657.05,365.09a7.77,7.77,0,1,1,5.51-2.28A7.81,7.81,0,0,1,657.05,365.09Z"/><path class="cls-25" d="M662.48,351.85a7.71,7.71,0,1,0,2.25,5.45,7.66,7.66,0,0,0-2.25-5.45Z"/><path class="cls-26" d="M642.87,351.12a7.78,7.78,0,1,1,5.5-2.28A7.81,7.81,0,0,1,642.87,351.12Z"/><path class="cls-26" d="M648.3,337.89a7.7,7.7,0,1,0,2.25,5.44A7.69,7.69,0,0,0,648.3,337.89Z"/><path class="cls-26" d="M619.21,348.53a5.37,5.37,0,0,1-3.8-9.16,5.44,5.44,0,0,1,3.8-1.56,5.33,5.33,0,0,1,3.79,1.56,5.43,5.43,0,0,1,1.57,3.8,5.34,5.34,0,0,1-5.36,5.36Z"/><path class="cls-26" d="M622.89,346.94l0,0a5.26,5.26,0,0,0-3.72-9,5.28,5.28,0,0,0-3.73,9,5.3,5.3,0,0,0,7.41,0Z"/><path class="cls-27" d="M523.17,445.84c-5,0-10-4.24-13.27-7.79-10.69-11.59-5.52-39.62-4.9-42.78,1.44-7.25,14.12-60.82,24.7-71.61a28.72,28.72,0,0,1,3.9-3.3c-.05-.32,0-4,6.78-8.76,7.06-5,22.63-7.78,26.5-7.78h.44c1.83.12,3.52,1.22,5.16,2.29,1.45.95,2.82,1.85,4.07,1.85h55.52c1.24,0,2.62-.9,4.07-1.85,1.63-1.07,3.33-2.17,5.16-2.29h.44c3.87,0,19.44,2.76,26.5,7.78,6.75,4.8,6.83,8.44,6.82,8.84a25,25,0,0,1,3.86,3.22c10.58,10.79,23.26,64.36,24.69,71.61.63,3.15,5.85,31.16-4.89,42.78-3.28,3.55-8.25,7.78-13.27,7.78h0a9.2,9.2,0,0,1-6.69-3c-2-2.05-5-5.9-8.55-10.36-8-10.17-18-22.82-23.58-24.34-4.38-1.2-24.41-1.73-42.31-1.73s-37.94.53-42.33,1.73c-5.6,1.52-15.57,14.17-23.58,24.34-3.51,4.46-6.55,8.31-8.55,10.36A9.21,9.21,0,0,1,523.17,445.84ZM563.73,371a2.41,2.41,0,0,0-2.4,2.41v6.43a2.41,2.41,0,0,0,2.4,2.41h7.82v7.81A2.41,2.41,0,0,0,574,392.5h6.43a2.41,2.41,0,0,0,2.41-2.41v-7.81h7.82a2.41,2.41,0,0,0,2.4-2.41v-6.43a2.41,2.41,0,0,0-2.4-2.41H582.8v-7.82a2.41,2.41,0,0,0-2.41-2.4H574a2.41,2.41,0,0,0-2.41,2.4V371Zm67.51-10.29a13.22,13.22,0,0,0-3.39,26,13.6,13.6,0,0,0,3.42.45,13.28,13.28,0,0,0,6.6-1.78,13.22,13.22,0,0,0-6.63-24.66Zm25.81-11a7.6,7.6,0,1,0,5.4,2.27A7.59,7.59,0,0,0,657.05,349.7ZM551.46,329.85a11.68,11.68,0,1,0,.23,0h-.23Zm119.48,6.57a7.56,7.56,0,1,0,5.36,2.21A7.62,7.62,0,0,0,670.94,336.42Zm-28.07-.67a7.58,7.58,0,1,0,5.36,2.22A7.63,7.63,0,0,0,642.87,335.75ZM589.44,338a5.24,5.24,0,0,0-5.2,5.21,5.28,5.28,0,0,0,1.53,3.68,5.21,5.21,0,0,0,8.87-3.69,5.25,5.25,0,0,0-1.49-3.65,5.18,5.18,0,0,0-3.61-1.58v0Zm29.75,0a5.22,5.22,0,0,0-5.19,5.21,5.19,5.19,0,0,0,5.19,5.19,5.24,5.24,0,0,0,3.64-1.48,5.15,5.15,0,0,0,1.59-3.71,5.26,5.26,0,0,0-5.21-5.21Zm37.86-15.87a7.58,7.58,0,1,0,5.4,2.26A7.66,7.66,0,0,0,657.05,322.09Zm-52.73-6A7.72,7.72,0,1,0,611,320,7.79,7.79,0,0,0,604.32,316.09Z"/><path class="cls-28" d="M678.85,323.73a29,29,0,0,0-3.89-3.29c0-.49-.13-4-6.78-8.76-7.16-5.1-23.41-8-26.88-7.75s-6.58,4.14-9.23,4.14H576.55c-2.66,0-5.77-3.91-9.23-4.14s-19.72,2.65-26.89,7.75c-6.64,4.72-6.78,8.27-6.77,8.76a29,29,0,0,0-3.89,3.29c-10.42,10.63-23,63-24.67,71.56S500.48,427.69,510,438c5.36,5.8,13.32,11.4,19.82,4.74S553.84,410.2,562,408c8.5-2.31,76.22-2.31,84.7,0,8.12,2.21,25.68,28.09,32.17,34.73s14.46,1.06,19.82-4.74c9.51-10.29,6.58-34.13,4.87-42.69S689.27,334.36,678.85,323.73Zm-27.24.52a7.69,7.69,0,0,1,10.87,0l0,0a7.69,7.69,0,1,1-10.91,0ZM551.44,356.37A13.3,13.3,0,0,1,542,333.65l.05,0a13.25,13.25,0,0,1,9.38-3.86h0a13.32,13.32,0,0,1,0,26.63Zm41.68,23.5a2.51,2.51,0,0,1-2.5,2.51H582.9v7.71a2.51,2.51,0,0,1-2.51,2.51H574a2.51,2.51,0,0,1-2.51-2.51v-7.71h-7.72a2.51,2.51,0,0,1-2.5-2.51v-6.43a2.5,2.5,0,0,1,2.5-2.51h7.72v-7.72a2.51,2.51,0,0,1,2.51-2.5h6.43a2.51,2.51,0,0,1,2.51,2.5v7.72h7.72a2.5,2.5,0,0,1,2.5,2.51Zm.07-32.94a5.29,5.29,0,1,1-3.75-9v0a5.25,5.25,0,0,1,3.75,1.57l0,0a5.3,5.3,0,0,1,0,7.46Zm15-16.35a7.82,7.82,0,1,1,2.87-10.68A7.83,7.83,0,0,1,608.23,330.58Zm5.67,12.59a5.33,5.33,0,0,1,5.29-5.31h0a5.24,5.24,0,0,1,3.74,1.57,5.25,5.25,0,0,1,0,7.49l-.05,0a5.29,5.29,0,0,1-9-3.78Zm30.22,34.22a13.32,13.32,0,1,1-1.34-10.09A13.35,13.35,0,0,1,644.12,377.39ZM642.87,351a7.68,7.68,0,1,1,5.43-2.25A7.66,7.66,0,0,1,642.87,351Zm19.61,11.72a7.7,7.7,0,1,1,0-10.89l0,0a7.7,7.7,0,0,1,0,10.84Zm13.89-13.3a7.7,7.7,0,1,1,2.25-5.44A7.7,7.7,0,0,1,676.37,349.44Z"/><path class="cls-29" d="M503.38,418.68A96.68,96.68,0,0,1,505,395.27c1.44-7.25,14.12-60.82,24.7-71.61a28.72,28.72,0,0,1,3.9-3.3c-.05-.32,0-4,6.78-8.76,7.06-5,22.63-7.78,26.5-7.78h.44c1.83.12,3.52,1.22,5.16,2.29,1.45.95,2.82,1.85,4.07,1.85h37.77L606,316.25a12.28,12.28,0,0,0-1.74-.15,7.7,7.7,0,0,0-7.52,9.34L503.39,418.9Zm48.08-88.83a11.68,11.68,0,1,0,.23,0h-.23Z"/><path class="cls-30" d="M600.42,317a7.74,7.74,0,0,1,5.55-.86l8.11-8.11H576.55c-2.66,0-5.77-3.91-9.23-4.14s-19.72,2.65-26.89,7.75c-6.64,4.72-6.78,8.27-6.77,8.76a29,29,0,0,0-3.89,3.29c-10.42,10.63-23,63-24.67,71.56a97,97,0,0,0-1.63,23.38l93.22-93.21A7.81,7.81,0,0,1,600.42,317Zm-39.57,35.43A13.31,13.31,0,1,1,542,333.65l.05,0a13.25,13.25,0,0,1,9.38-3.86h0a13.31,13.31,0,0,1,9.41,22.73Z"/><path class="cls-26" d="M589.44,348.53a5.33,5.33,0,0,1-3.79-1.56,5.43,5.43,0,0,1-1.57-3.8,5.34,5.34,0,0,1,1.57-3.8,5.44,5.44,0,0,1,3.79-1.56,5.37,5.37,0,0,1,3.8,9.16A5.44,5.44,0,0,1,589.44,348.53Z"/><path class="cls-26" d="M593.17,339.44a5.27,5.27,0,1,0-3.73,9,5.22,5.22,0,0,0,5.26-5.26,5.23,5.23,0,0,0-1.48-3.68Z"/></g></g></g></svg>