<?xml version="1.0" encoding="UTF-8" standalone="no"?>
<svg
   xmlns:dc="http://purl.org/dc/elements/1.1/"
   xmlns:cc="http://creativecommons.org/ns#"
   xmlns:rdf="http://www.w3.org/1999/02/22-rdf-syntax-ns#"
   xmlns:svg="http://www.w3.org/2000/svg"
   xmlns="http://www.w3.org/2000/svg"
   xmlns:sodipodi="http://sodipodi.sourceforge.net/DTD/sodipodi-0.dtd"
   xmlns:inkscape="http://www.inkscape.org/namespaces/inkscape"
   version="1.1"
   id="svg2"
   xml:space="preserve"
   width="1920"
   height="600"
   viewBox="0 0 1920 600"
   sodipodi:docname="S1T_hero_1w1.ai"><metadata
     id="metadata8"><rdf:RDF><cc:Work
         rdf:about=""><dc:format>image/svg+xml</dc:format><dc:type
           rdf:resource="http://purl.org/dc/dcmitype/StillImage" /></cc:Work></rdf:RDF></metadata><defs
     id="defs6"><clipPath
       clipPathUnits="userSpaceOnUse"
       id="clipPath18"><path
         d="M 0,450 H 1440 V 0 H 0 Z"
         id="path16" /></clipPath><clipPath
       clipPathUnits="userSpaceOnUse"
       id="clipPath28"><path
         d="m 1187.49,210.462 h 306.66 V -79.416 h -306.66 z"
         id="path26" /></clipPath><clipPath
       clipPathUnits="userSpaceOnUse"
       id="clipPath44"><path
         d="m 1132.76,258.29 h 85.12 V -0.132156 h -85.12 z"
         id="path42" /></clipPath><clipPath
       clipPathUnits="userSpaceOnUse"
       id="clipPath60"><path
         d="M 997.011,243.631 H 1131.63 V 1.56175 H 997.011 Z"
         id="path58" /></clipPath><clipPath
       clipPathUnits="userSpaceOnUse"
       id="clipPath100"><path
         d="M 792.059,366.482 H 921.27 V -0.355286 H 792.059 Z"
         id="path98" /></clipPath><clipPath
       clipPathUnits="userSpaceOnUse"
       id="clipPath126"><path
         d="M 894.202,311.572 H 998.134 V -0.487167 H 894.202 Z"
         id="path124" /></clipPath><clipPath
       clipPathUnits="userSpaceOnUse"
       id="clipPath146"><path
         d="M 825.322,180.15 H 939.885 V -1.4675 H 825.322 Z"
         id="path144" /></clipPath><clipPath
       clipPathUnits="userSpaceOnUse"
       id="clipPath174"><path
         d="M 501.448,334.216 H 675.469 V -2.73604 H 501.448 Z"
         id="path172" /></clipPath><clipPath
       clipPathUnits="userSpaceOnUse"
       id="clipPath190"><path
         d="M 595.979,243.184 H 698.538 V -0.170563 H 595.979 Z"
         id="path188" /></clipPath><clipPath
       clipPathUnits="userSpaceOnUse"
       id="clipPath206"><path
         d="M 563.199,82.727 H 723.27 V -0.825607 H 563.199 Z"
         id="path204" /></clipPath><clipPath
       clipPathUnits="userSpaceOnUse"
       id="clipPath226"><path
         d="m 1113.57,178.454 h 71.38 V 1.49611 h -71.38 z"
         id="path224" /></clipPath><clipPath
       clipPathUnits="userSpaceOnUse"
       id="clipPath242"><path
         d="m 1073.38,379 h 66.94 V 0.864655 h -66.94 z"
         id="path240" /></clipPath><clipPath
       clipPathUnits="userSpaceOnUse"
       id="clipPath258"><path
         d="m 1004.59,71.7897 h 192.43 V 0.387344 h -192.43 z"
         id="path256" /></clipPath><clipPath
       clipPathUnits="userSpaceOnUse"
       id="clipPath274"><path
         d="m 955.048,169.195 h 85.922 V 0.0951233 h -85.922 z"
         id="path272" /></clipPath><clipPath
       clipPathUnits="userSpaceOnUse"
       id="clipPath300"><path
         d="M 0,450 H 1440 V 0 H 0 Z"
         id="path298" /></clipPath><clipPath
       clipPathUnits="userSpaceOnUse"
       id="clipPath308"><path
         d="m 1193.35,164.053 h 115.18 V 1.25278 h -115.18 z"
         id="path306" /></clipPath><clipPath
       clipPathUnits="userSpaceOnUse"
       id="clipPath324"><path
         d="M 477.335,309.453 H 739.628 V 205.121 H 477.335 Z"
         id="path322" /></clipPath><clipPath
       clipPathUnits="userSpaceOnUse"
       id="clipPath360"><path
         d="m 1186.59,250.29 h 197.87 v -85.106 h -197.87 z"
         id="path358" /></clipPath></defs><sodipodi:namedview
     pagecolor="#ffffff"
     bordercolor="#666666"
     borderopacity="1"
     objecttolerance="10"
     gridtolerance="10"
     guidetolerance="10"
     inkscape:pageopacity="0"
     inkscape:pageshadow="2"
     inkscape:window-width="640"
     inkscape:window-height="480"
     id="namedview4" /><g
     id="g10"
     inkscape:groupmode="layer"
     inkscape:label="S1T_hero_1w1"
     transform="matrix(1.3333333,0,0,-1.3333333,0,600)"><g
       id="g12"><g
         id="g14"
         clip-path="url(#clipPath18)"><path
           d="m 1350.473,276.931 h 2.726 v 7.473 h -2.726 z M 1276.494,90.79 h 26.866 v 16.983 h -1.558 v 3.397 h 1.558 v 7.473 h 5.451 v -7.473 h 1.558 v -3.397 h -1.558 V 90.79 h 19.079 2.726 v 95.108 h 2.336 v 52.31 h -1.558 v 8.832 h 3.505 v 11.548 c 0,4.756 2.336,8.832 5.061,8.832 v 0.679 c 0,5.435 2.337,8.832 5.062,8.832 h 3.504 v 7.473 h -1.557 v 6.114 c 0,2.038 1.168,3.397 2.336,3.397 h 1.558 v 17.662 h -1.947 v 2.038 h 1.947 v 4.756 h 1.947 v -4.756 h 1.946 v -2.038 h -1.946 v -17.662 h 1.557 c 1.168,0 1.947,-1.359 1.947,-3.397 v -6.114 h -1.168 v -7.473 h 3.115 c 3.115,0 5.061,-3.397 5.061,-8.832 v -0.679 h 0.39 c 2.725,0 5.062,-4.076 5.062,-8.832 V 247.04 h 3.115 v -8.832 h -1.558 v -52.31 h 2.726 V 90.79 h 1.557 20.247 v 16.983 h -1.557 v 3.397 h 1.557 v 7.473 h 5.451 v -7.473 h 1.558 v -3.397 h -1.558 V 90.79 h 5.062 V -0.242 h -128.88 z"
           style="fill:#97ebf3;fill-opacity:1;fill-rule:evenodd;stroke:none"
           id="path20" /><g
           id="g22"><g
             id="g24" /><g
             id="g36"><g
               clip-path="url(#clipPath28)"
               id="g34"><g
                 transform="translate(1200.7365,0.7807)"
                 id="g32"><path
                   d="m 0,0 289.264,-1.391 -0.04,36.447 V 60.9 h -1.397 l -1.396,19.558 h -0.699 v 8.033 h -1.746 v -8.033 h -1.048 l -1.746,-6.635 c -1.048,1.746 -2.794,3.143 -4.89,3.841 l -9.779,31.084 h -0.698 -0.699 -3.841 -0.699 -0.699 l -5.238,-16.066 h -17.463 v -5.239 h -0.698 l -7.335,10.827 h -0.698 -0.699 -3.841 -0.699 -0.698 l -7.335,-10.827 h -24.796 l -8.732,26.893 h -0.698 -0.699 -3.492 -1.048 -0.698 l -4.191,-13.621 -2.794,9.43 h -0.35 l -1.746,6.985 h -1.048 l -1.746,-6.985 h -0.698 l -4.89,-16.066 h -27.241 l -8.033,30.734 h -1.048 l -6.287,-23.4 -4.889,14.669 h -0.698 -3.493 -1.048 l -3.841,-12.224 v 27.591 h -1.397 v 23.05 h 2.095 v 2.794 c 0,1.397 -1.048,2.794 -2.445,2.794 h -2.444 v 6.287 c 0,2.095 -1.048,4.191 -2.794,5.239 v 16.764 h 1.746 l 1.086,0.57 0.66,1.176 v 2.445 h -3.492 c 0,2.095 -0.925,3.587 -2.672,4.635 0.699,0.349 0.576,0.953 0.576,1.651 v 2.445 h 2.096 v 4.191 c 0,2.095 -1.747,4.191 -3.842,4.191 h -0.699 -1.746 -0.698 c -2.096,0 -3.842,-2.096 -3.842,-4.191 v -4.191 h 2.095 v -2.445 c 0,-0.698 0,-1.397 0.699,-1.746 -1.746,-1.048 -2.794,-2.445 -2.794,-4.54 h -3.493 v -2.445 l 0.641,-1.176 1.106,-0.57 h 1.746 v -16.764 c -1.746,-1.048 -2.794,-3.144 -2.794,-5.239 v -6.287 h -2.445 c -1.397,0 -2.445,-1.397 -2.445,-2.794 v -2.794 h 2.096 v -23.05 H 76.182 V 103.16 H 74.436 V 87.443 H 71.991 L 64.657,97.921 63.958,98.27 H 58.719 58.021 L 50.687,87.443 H 48.94 v 5.938 H 32.176 l -6.286,15.017 -1.048,1.048 h -3.143 l -1.048,-1.048 -6.286,-15.017 h -0.35 v -1.048 -4.89 H 3.538 V 75.918 C 1.442,73.823 0.046,71.029 0.046,68.235 V 60.9 46.232 16.895 Z"
                   style="fill:#037c42;fill-opacity:1;fill-rule:nonzero;stroke:none"
                   id="path30" /></g></g></g></g><g
           id="g38"><g
             id="g40" /><g
             id="g52"><g
               clip-path="url(#clipPath44)"
               id="g50"><g
                 transform="translate(1217.8788,0.4512)"
                 id="g48"><path
                   d="m 0,0 v 206.829 c -4.436,0.946 -7.768,1.658 -12.047,2.571 v 31.082 c -4.135,0.65 -7.21,1.134 -10.084,1.586 -0.658,3.5 -1.203,6.398 -1.479,7.865 -6.963,3.203 -12.755,8.006 -18.446,7.904 -6.112,-0.108 -12.128,-4.825 -18.901,-7.85 -0.285,-2.099 -0.677,-4.991 -1.083,-7.987 -3.593,-0.534 -6.669,-0.991 -10.82,-1.608 v -31.308 c -4.441,-0.869 -7.795,-1.525 -12.257,-2.398 V -0.583"
                   style="fill:#02bc67;fill-opacity:1;fill-rule:nonzero;stroke:none"
                   id="path46" /></g></g></g></g><g
           id="g54"><g
             id="g56" /><g
             id="g92"><g
               clip-path="url(#clipPath60)"
               id="g90"><path
                 d="m 1118.857,1.562 h -110.055 v 220.667 h 110.055 z"
                 style="fill:#80ea6e;fill-opacity:1;fill-rule:nonzero;stroke:none"
                 id="path62" /><path
                 d="m 1060.554,191.404 h -43.237 v 51.318 h 43.237 z"
                 style="fill:#80ea6e;fill-opacity:1;fill-rule:nonzero;stroke:none"
                 id="path64" /><g
                 transform="translate(1109.3595,222.2292)"
                 id="g68"><path
                   d="m 0,0 c 0,-11.821 -8.945,-21.401 -19.981,-21.401 -11.034,0 -19.982,9.58 -19.982,21.401 0,11.818 8.948,21.401 19.982,21.401 C -8.945,21.401 0,11.818 0,0"
                   style="fill:#80ea6e;fill-opacity:1;fill-rule:nonzero;stroke:none"
                   id="path66" /></g><path
                 d="M 1131.632,200.828 H 997.011 v 4.035 h 134.621 z"
                 style="fill:#80ea6e;fill-opacity:1;fill-rule:nonzero;stroke:none"
                 id="path70" /><path
                 d="M 1131.632,182.894 H 997.011 v 4.035 h 134.621 z"
                 style="fill:#80ea6e;fill-opacity:1;fill-rule:nonzero;stroke:none"
                 id="path72" /><path
                 d="M 1131.632,164.96 H 997.011 v 4.035 h 134.621 z"
                 style="fill:#80ea6e;fill-opacity:1;fill-rule:nonzero;stroke:none"
                 id="path74" /><path
                 d="M 1131.632,147.028 H 997.011 v 4.032 h 134.621 z"
                 style="fill:#80ea6e;fill-opacity:1;fill-rule:nonzero;stroke:none"
                 id="path76" /><path
                 d="M 1131.632,129.094 H 997.011 v 4.033 h 134.621 z"
                 style="fill:#80ea6e;fill-opacity:1;fill-rule:nonzero;stroke:none"
                 id="path78" /><path
                 d="M 1131.632,111.16 H 997.011 v 4.035 h 134.621 z"
                 style="fill:#80ea6e;fill-opacity:1;fill-rule:nonzero;stroke:none"
                 id="path80" /><path
                 d="M 1131.632,93.228 H 997.011 v 4.033 h 134.621 z"
                 style="fill:#80ea6e;fill-opacity:1;fill-rule:nonzero;stroke:none"
                 id="path82" /><path
                 d="M 1131.632,75.294 H 997.011 v 4.035 h 134.621 z"
                 style="fill:#80ea6e;fill-opacity:1;fill-rule:nonzero;stroke:none"
                 id="path84" /><path
                 d="M 1131.632,57.363 H 997.011 v 4.032 h 134.621 z"
                 style="fill:#80ea6e;fill-opacity:1;fill-rule:nonzero;stroke:none"
                 id="path86" /><path
                 d="M 1131.632,39.429 H 997.011 v 4.033 h 134.621 z"
                 style="fill:#80ea6e;fill-opacity:1;fill-rule:nonzero;stroke:none"
                 id="path88" /></g></g></g><g
           id="g94"><g
             id="g96" /><g
             id="g114"><g
               clip-path="url(#clipPath100)"
               id="g112"><path
                 d="M 921.27,-0.355 H 792.059 V 266.31 H 921.27 Z"
                 style="fill:#02bc67;fill-opacity:1;fill-rule:nonzero;stroke:none"
                 id="path102" /><path
                 d="m 906.492,90.451 h -99.655 v 205.67 h 99.655 z"
                 style="fill:#02bc67;fill-opacity:1;fill-rule:nonzero;stroke:none"
                 id="path104" /><path
                 d="m 898.761,128.507 h -84.193 v 184.196 h 84.193 z"
                 style="fill:#02bc67;fill-opacity:1;fill-rule:nonzero;stroke:none"
                 id="path106" /><path
                 d="m 866.974,174.385 h -20.619 v 160.483 h 20.619 z"
                 style="fill:#02bc67;fill-opacity:1;fill-rule:nonzero;stroke:none"
                 id="path108" /><path
                 d="m 858.897,206.001 h -4.466 v 160.482 h 4.466 z"
                 style="fill:#02bc67;fill-opacity:1;fill-rule:nonzero;stroke:none"
                 id="path110" /></g></g></g><g
           id="g116"
           transform="translate(797.5927,215.9473)"><path
             d="m 0,0 v 54.904 h -19.867 v 20.903 h -10.629 v 17.559 h -3.73 v 30.101 H -35.19 V 93.366 h -3.73 V 75.807 H -49.549 V 54.904 H -69.265 V 0 h -4.098 v -99.681 h -30.568 v -113.631 h 30.568 30.569 46.74 L 3.946,0 Z"
             style="fill:#97ebf3;fill-opacity:1;fill-rule:nonzero;stroke:none"
             id="path118" /></g><g
           id="g120"><g
             id="g122" /><g
             id="g138"><g
               clip-path="url(#clipPath126)"
               id="g136"><g
                 transform="translate(975.4815,178.6055)"
                 id="g130"><path
                   d="m 0,0 c 0,0 5.005,2.348 7.598,6.157 2.593,3.809 5.835,7.699 5.348,8.751 -0.485,1.054 -1.458,2.432 -1.458,2.432 l 2.431,4.131 -1.216,1.135 H -0.099 l -5.51,-5.509 -2.917,-0.325 c 0,0 -3.403,11.911 -5.671,15.396 -2.269,3.484 -8.185,6.806 -8.185,6.806 0,0 -0.972,3.038 -0.566,4.821 0.404,1.783 0.242,4.417 -0.447,5.509 -0.398,0.633 -0.416,1.452 -0.361,2.033 0.682,0.927 1.226,1.968 1.599,3.094 1.53,-0.142 10.552,-1.035 10.552,-1.035 l -10.041,3.36 c 0.045,0.414 0.075,0.833 0.075,1.259 0,0.607 -0.06,1.197 -0.15,1.777 l 9.751,3.652 -10.325,-1.453 c -0.458,1.228 -1.12,2.345 -1.945,3.314 l 6.962,8.511 -8.856,-6.753 c -1.026,0.74 -2.184,1.29 -3.429,1.619 l -0.192,11.939 -2.473,-11.588 c -1.489,-0.006 -2.906,-0.334 -4.192,-0.914 l -7.272,8.938 5.381,-10.051 c -1.12,-0.824 -2.076,-1.865 -2.817,-3.068 l -4.671,0.762 4.02,-1.992 c -0.403,-0.885 -0.694,-1.831 -0.859,-2.825 -0.663,0.753 -1.906,2.238 -2.512,3.48 -0.852,1.743 -2.999,4.619 -2.796,6.037 0.202,1.418 -0.715,2.633 -0.986,7.278 -0.27,4.646 -2.646,8.751 -1.782,12.209 0.863,3.457 1.728,5.563 1.242,7.616 -0.486,2.053 -0.432,4.97 -0.432,4.97 0,0 3.674,1.89 3.457,7.076 -0.189,4.539 -3.028,7.133 -6.594,7.71 v 1.061 c 1.275,1.128 2.778,3.103 2.766,6.162 -0.021,5.303 -4.702,6.365 -5.139,9.484 0,0 -2.12,-4.305 -0.436,-8.423 0,0 -2.059,1.373 -2.183,3.993 0,0 -4.009,-7.094 1.317,-11.25 v -1.17 c -3.401,-0.851 -6.207,-3.775 -6.207,-8.54 0,-5.725 3.187,-5.725 3.187,-5.725 0,0 1.135,-7.778 2.107,-10.425 0.972,-2.648 0.27,-9.778 0.432,-12.587 0.161,-2.809 -0.431,-5.887 0.649,-10.101 1.079,-4.214 1.35,-6.591 1.35,-6.591 0,0 -6.59,-6.482 -6.105,-10.425 0.487,-3.943 3.944,-4.809 3.944,-4.809 0,0 -2.43,-4.969 -1.405,-7.4 1.028,-2.431 3.512,-3.403 3.512,-3.403 0,0 -0.379,-3.835 -1.134,-5.617 -0.757,-1.782 -0.378,-4.16 0.864,-5.402 1.242,-1.243 2.052,-1.675 2.052,-1.675 0,0 -3.727,-6.482 -4.05,-10.534 -0.325,-4.052 4.374,-9.884 4.374,-9.884 0,0 -3.51,-5.997 -2.43,-8.806 1.08,-2.809 2.754,-5.727 2.701,-10.966 -0.054,-5.24 -0.38,-10.75 -0.81,-13.667 -0.433,-2.916 0.054,-4.753 0.054,-4.753 0,0 -2.593,-9.077 -2.54,-13.021 0.046,-3.381 0.053,-10.584 0.054,-12.556 h -8.804 v -9.886 H 8.085 v 9.886 h -8.248 c -0.124,2.6 -0.353,8.75 0.065,12.341 0.54,4.648 -0.756,15.126 -0.756,15.126 0,0 1.836,3.566 2.16,5.834 0.324,2.268 -2.864,14.829 -2.62,16.855 C -1.071,-8.59 0,0 0,0"
                   style="fill:#ff877a;fill-opacity:1;fill-rule:nonzero;stroke:none"
                   id="path128" /></g><path
                 d="m 989.4,44.583 h -86.464 v 67.406 H 989.4 Z"
                 style="fill:#ff877a;fill-opacity:1;fill-rule:nonzero;stroke:none"
                 id="path132" /><path
                 d="M 998.134,-0.487 H 894.202 v 67.81 h 103.932 z"
                 style="fill:#ff877a;fill-opacity:1;fill-rule:nonzero;stroke:none"
                 id="path134" /></g></g></g><g
           id="g140"><g
             id="g142" /><g
             id="g166"><g
               clip-path="url(#clipPath146)"
               id="g164"><path
                 d="m 851.309,-1.467 h -25.988 v 128.829 h 25.988 z"
                 style="fill:#f9bc26;fill-opacity:1;fill-rule:nonzero;stroke:none"
                 id="path148" /><path
                 d="m 939.885,-0.42 h -25.988 v 127.781 h 25.988 z"
                 style="fill:#f9bc26;fill-opacity:1;fill-rule:nonzero;stroke:none"
                 id="path150" /><path
                 d="m 847.498,37.912 h -18.365 v 99.925 h 18.365 z"
                 style="fill:#f9bc26;fill-opacity:1;fill-rule:nonzero;stroke:none"
                 id="path152" /><path
                 d="m 914.552,-1.284 h -64.331 v 151.967 h 64.331 z"
                 style="fill:#f9bc26;fill-opacity:1;fill-rule:nonzero;stroke:none"
                 id="path154" /><path
                 d="m 906.2,141.324 h -47.628 v 20.674 H 906.2 Z"
                 style="fill:#f9bc26;fill-opacity:1;fill-rule:nonzero;stroke:none"
                 id="path156" /><g
                 transform="translate(900.0272,161.9982)"
                 id="g160"><path
                   d="m 0,0 c 0,-10.025 -7.898,-18.153 -17.642,-18.153 -9.743,0 -17.641,8.128 -17.641,18.153 0,10.025 7.898,18.152 17.641,18.152 C -7.898,18.152 0,10.025 0,0"
                   style="fill:#f9bc26;fill-opacity:1;fill-rule:nonzero;stroke:none"
                   id="path158" /></g><path
                 d="m 936.074,37.912 h -18.365 v 99.925 h 18.365 z"
                 style="fill:#f9bc26;fill-opacity:1;fill-rule:nonzero;stroke:none"
                 id="path162" /></g></g></g><g
           id="g168"><g
             id="g170" /><g
             id="g182"><g
               clip-path="url(#clipPath174)"
               id="g180"><g
                 transform="translate(501.448,-0.1829)"
                 id="g178"><path
                   d="m 0,0 1.352,12.474 c 2.86,42.446 6.013,84.876 8.356,127.35 2.135,38.691 3.411,77.43 4.969,116.152 0.169,4.213 0.414,7.922 4.281,10.854 1.581,1.199 2.442,4.242 2.466,6.459 0.194,17.976 0.112,35.955 0.114,53.932 0,2.159 0,4.317 0,6.476 0.548,-0.015 1.097,-0.03 1.645,-0.046 v -65.728 h 19.324 v 66.295 c 0.648,0.06 1.296,0.121 1.944,0.181 0.154,-2.012 0.438,-4.023 0.442,-6.035 0.034,-18.211 -0.155,-36.426 0.189,-54.631 0.057,-3.026 2.416,-5.993 3.634,-9.019 0.869,-2.16 2.21,-4.344 2.315,-6.566 1.986,-41.973 3.813,-83.953 5.688,-125.931 1.115,-24.954 2.252,-49.907 3.394,-74.86 0.085,-1.863 -0.064,-3.849 0.551,-5.539 0.436,-1.198 1.965,-2.732 3.027,-2.748 0.948,-0.015 2.687,1.794 2.761,2.887 0.378,5.581 0.095,11.208 0.495,16.786 0.404,5.623 1.338,11.209 3.615,16.826 0.952,-5.719 1.904,-11.438 3.099,-18.621 6.505,7.344 12.408,13.8 17.979,20.531 0.821,0.991 -0.019,3.289 0.076,4.973 0.057,1.025 0.328,2.078 0.735,3.018 0.116,0.268 1.505,0.324 1.531,0.239 0.328,-1.072 0.531,-2.185 0.731,-3.294 0.376,-2.087 0.034,-4.763 1.214,-6.169 5.236,-6.241 10.905,-12.12 16.418,-18.129 0.733,0.045 1.466,0.091 2.199,0.136 v 42.043 c 0.815,0.072 1.63,0.144 2.445,0.216 0.815,-1.616 1.63,-3.233 3.149,-6.246 3.695,19.994 7.136,38.613 10.105,54.679 1.024,-6.575 2.325,-15.837 3.94,-25.043 1.644,-9.374 3.598,-18.692 5.682,-29.404 1.328,2.809 2.095,4.43 2.862,6.051 0.761,-0.063 1.522,-0.126 2.283,-0.189 V 24.537 h 21.514 c 0.649,2.597 1.282,5.129 1.915,7.661 0.827,-0.021 1.654,-0.042 2.481,-0.063 0.703,-11.381 1.407,-22.763 2.112,-34.171 3.634,-1.247 -4.18,0.679 -0.694,-0.517 z"
                   style="fill:#02bc67;fill-opacity:1;fill-rule:nonzero;stroke:none"
                   id="path176" /></g></g></g></g><g
           id="g184"><g
             id="g186" /><g
             id="g198"><g
               clip-path="url(#clipPath190)"
               id="g196"><g
                 transform="translate(694.4694,26.8337)"
                 id="g194"><path
                   d="m 0,0 -0.446,-27.004 -97.995,2.509 c 0,18.858 0.002,37.478 0,56.099 -0.002,40.803 -0.207,81.608 0.234,122.406 0.059,5.353 2.307,11.479 5.468,15.856 10.927,15.132 22.707,29.649 35.78,46.484 v -32.101 c 4.637,-0.352 8.046,-0.611 13.141,-0.998 v 30.747 c 0.828,0.222 1.656,0.444 2.484,0.666 12.706,-16.409 25.626,-32.661 37.914,-49.377 2.09,-2.844 2.002,-7.676 2.024,-11.594 C -1.139,107.012 -1.071,60.33 -0.885,13.648 -0.869,9.568 -0.37,5.491 0,0 2.566,1.93 3.996,2.462 4.069,3.14"
                   style="fill:#80ea6e;fill-opacity:1;fill-rule:nonzero;stroke:none"
                   id="path192" /></g></g></g></g><g
           id="g200"><g
             id="g202" /><g
             id="g214"><g
               clip-path="url(#clipPath206)"
               id="g212"><g
                 transform="translate(722.3925,14.8428)"
                 id="g210"><path
                   d="m 0,0 c -3.394,-19.234 -26.524,-17.434 -38.468,-9.051 -14.524,10.194 -16.728,18.102 -40.73,18.102 -21.87,0 -25.267,-6.412 -39.599,-16.971 -14.332,-10.559 -36.205,-12.445 -39.599,7.92 -7.191,43.145 35.458,67.884 79.198,67.884 C -35.458,67.884 7.601,43.074 0,0"
                   style="fill:#f9bc26;fill-opacity:1;fill-rule:nonzero;stroke:none"
                   id="path208" /></g></g></g></g><g
           id="g216"
           transform="translate(826.8066,94.9494)"><path
             d="m 0,0 -16.93,7.816 c 2.407,5.285 3.841,11.103 4.077,17.223 L 5.752,24.434 C 5.442,15.874 3.473,7.606 0,0 m -13.136,-18.872 c -0.425,-0.425 -0.856,-0.843 -1.291,-1.255 l -12.74,13.596 c 4.127,3.92 7.528,8.597 9.983,13.804 l 16.932,-7.816 c -3.147,-6.726 -7.477,-12.922 -12.884,-18.329 m -13.496,-10.366 -8.897,16.4 c 2.852,1.682 5.507,3.663 7.923,5.899 l 12.743,-13.599 c -3.624,-3.37 -7.571,-6.279 -11.769,-8.7 m 32.004,-61.5 h -128.426 l 32.189,59.33 c 2.109,-1.163 4.278,-2.208 6.497,-3.131 l -2.271,-5.529 c -0.515,0.164 -1.063,0.253 -1.632,0.253 -2.978,0 -5.392,-2.414 -5.392,-5.392 0,-2.978 2.414,-5.391 5.392,-5.391 2.977,0 5.391,2.413 5.391,5.391 0,2.197 -1.314,4.085 -3.199,4.926 l 2.265,5.515 c 7.088,-2.873 14.683,-4.507 22.515,-4.79 l -0.184,-5.654 c -2.92,-0.066 -5.267,-2.453 -5.267,-5.388 0,-2.978 2.414,-5.392 5.392,-5.392 2.978,0 5.391,2.414 5.391,5.392 0,2.817 -2.162,5.129 -4.917,5.369 l 0.184,5.655 c 0.618,-0.017 1.238,-0.027 1.859,-0.027 7.541,0 14.89,1.249 21.812,3.647 l 1.937,-5.496 c -1.834,-0.861 -3.105,-2.723 -3.105,-4.883 0,-2.978 2.413,-5.392 5.391,-5.392 2.978,0 5.392,2.414 5.392,5.392 0,2.977 -2.414,5.391 -5.392,5.391 -0.605,0 -1.186,-0.101 -1.729,-0.285 l -1.929,5.472 c 3.325,1.186 6.55,2.639 9.647,4.347 z m -109.918,71.866 c -0.426,0.425 -0.844,0.856 -1.256,1.291 l 13.597,12.74 c 2.953,-3.109 6.337,-5.805 10.052,-7.997 l -8.898,-16.4 c -4.874,2.811 -9.41,6.281 -13.495,10.366 m -14.879,23.08 17.497,6.442 c 2.118,-5.621 5.306,-10.721 9.315,-15.052 l -13.599,-12.743 c -5.835,6.275 -10.291,13.516 -13.213,21.353 m -4.053,22.625 c 0,0.602 0.009,1.202 0.025,1.801 l 18.6,-0.605 c -0.01,-0.397 -0.015,-0.796 -0.015,-1.196 0,-5.481 0.965,-10.742 2.731,-15.621 L -119.631,4.77 c -2.528,6.979 -3.847,14.42 -3.847,22.063 m 5.795,26.833 16.931,-7.815 c -2.408,-5.286 -3.842,-11.103 -4.078,-17.223 l -18.604,0.604 c 0.31,8.56 2.279,16.829 5.751,24.434 m 13.137,18.872 c 0.425,0.426 0.856,0.844 1.291,1.256 l 12.74,-13.597 c -4.127,-3.92 -7.528,-8.597 -9.983,-13.804 l -16.933,7.817 c 3.148,6.725 7.478,12.921 12.885,18.328 m 23.925,15.188 6.198,-17.584 c -5.859,-2.114 -11.169,-5.385 -15.654,-9.537 l -12.742,13.599 c 6.499,6.045 14.036,10.609 22.198,13.522 m 21.78,3.744 c 0.601,0 1.201,-0.009 1.8,-0.025 l -0.604,-18.601 c -0.398,0.01 -0.796,0.016 -1.196,0.016 -5.256,0 -10.309,-0.888 -15.017,-2.518 l -6.197,17.582 c 6.732,2.332 13.879,3.546 21.214,3.546 m 24.29,-4.701 -7.084,-17.249 c -4.792,1.939 -9.983,3.092 -15.412,3.302 l 0.605,18.604 c 7.615,-0.276 14.999,-1.865 21.891,-4.657 m 21.415,-14.231 c 0.425,-0.425 0.843,-0.856 1.255,-1.291 l -13.596,-12.74 c -4.367,4.598 -9.671,8.296 -15.603,10.786 l 7.083,17.249 c 7.705,-3.206 14.782,-7.925 20.861,-14.004 M 1.743,49.458 -15.754,43.016 c -2.119,5.621 -5.306,10.722 -9.315,15.053 L -11.47,70.811 C -5.635,64.537 -1.18,57.295 1.743,49.458 m -45.002,-65.934 c 2.322,0.838 4.557,1.858 6.69,3.042 l 8.894,-16.393 c -3.013,-1.663 -6.151,-3.078 -9.387,-4.233 z m -16.778,-2.702 c 0.397,-0.01 0.796,-0.015 1.196,-0.015 5.256,0 10.308,0.888 15.017,2.517 l 6.197,-17.582 c -6.732,-2.332 -13.88,-3.546 -21.214,-3.546 -0.602,0 -1.202,0.009 -1.801,0.026 z m -16.011,3.324 c 4.793,-1.939 9.983,-3.092 15.412,-3.301 l -0.605,-18.605 c -7.614,0.276 -14.998,1.865 -21.89,4.657 z m -0.554,0.227 -7.083,-17.249 c -2.16,0.899 -4.27,1.916 -6.322,3.049 l 8.894,16.393 c 1.457,-0.809 2.962,-1.543 4.511,-2.193 m 21.167,41.218 c 0.096,0.262 0.161,0.539 0.194,0.825 l 41.49,-1.348 c -0.232,-5.997 -1.637,-11.697 -3.995,-16.876 z m 0.279,-2.253 -0.746,1.375 c 0.078,0.107 0.149,0.219 0.215,0.334 L -18,7.65 c -2.406,-5.102 -5.738,-9.684 -9.781,-13.526 z m 1.129,-2.08 25.807,-27.542 c -2.36,-2.184 -4.953,-4.119 -7.738,-5.764 z m -3.331,2.268 c 0.199,0.089 0.388,0.195 0.565,0.317 l 19.796,-36.487 c -2.092,-1.162 -4.283,-2.163 -6.561,-2.985 z m -1.483,-41.821 c -0.39,0 -0.779,0.005 -1.167,0.015 l 1.349,41.493 c 0.253,0.012 0.499,0.051 0.736,0.113 l 13.8,-39.154 c -4.615,-1.597 -9.567,-2.467 -14.718,-2.467 m -1.096,41.672 c 0.218,-0.069 0.445,-0.117 0.679,-0.144 l -1.349,-41.49 c -5.318,0.206 -10.404,1.335 -15.099,3.234 z m -0.953,0.466 c 0.128,-0.088 0.261,-0.167 0.4,-0.237 l -15.771,-38.402 c -1.519,0.638 -2.994,1.358 -4.424,2.152 z m -2.043,-1.254 -18.791,-34.637 c -3.631,2.145 -6.938,4.782 -9.826,7.821 z m 0.805,2.715 c 0.097,-0.209 0.214,-0.406 0.348,-0.591 l -0.247,-0.455 -29.931,-28.046 c -3.927,4.244 -7.051,9.241 -9.127,14.749 z m -0.119,2.772 c -0.096,-0.263 -0.162,-0.539 -0.194,-0.826 l -41.491,1.348 c 0.232,5.997 1.637,11.697 3.996,16.876 z m 0.717,1.188 c -0.178,-0.196 -0.333,-0.413 -0.465,-0.645 l -37.688,17.398 c 2.406,5.101 5.739,9.683 9.782,13.525 z m 1.206,0.876 c -0.277,-0.124 -0.534,-0.281 -0.768,-0.467 L -89.463,59.95 c 4.396,4.067 9.598,7.272 15.338,9.345 z m 1.301,0.313 c -0.253,-0.012 -0.5,-0.051 -0.737,-0.113 l -13.8,39.154 c 4.616,1.597 9.567,2.467 14.719,2.467 0.39,0 0.779,-0.005 1.167,-0.015 z m 1.277,-0.164 c -0.218,0.069 -0.445,0.118 -0.678,0.144 l 1.348,41.491 c 5.319,-0.206 10.404,-1.336 15.1,-3.235 z m 1.336,-0.767 c -0.235,0.212 -0.498,0.393 -0.782,0.539 l 15.77,38.401 c 5.813,-2.441 11.01,-6.065 15.29,-10.569 z m 0.409,-0.438 30.277,28.37 c 3.927,-4.244 7.05,-9.241 9.126,-14.748 L -55.555,28.362 c -0.12,0.259 -0.271,0.501 -0.446,0.722 M -103.955,28 -62.461,26.651 c 0.013,-0.271 0.057,-0.533 0.126,-0.785 l -38.958,-14.344 c -1.731,4.783 -2.676,9.938 -2.676,15.311 0,0.39 0.005,0.779 0.014,1.167 m 90.227,-2.334 -41.493,1.349 c -0.013,0.271 -0.057,0.533 -0.127,0.785 l 38.959,14.344 c 1.73,-4.783 2.676,-9.938 2.676,-15.311 0,-0.39 -0.005,-0.779 -0.015,-1.167 m 19.523,1.167 c 0,-0.601 -0.009,-1.201 -0.025,-1.8 l -18.6,0.604 c 0.01,0.398 0.015,0.796 0.015,1.196 0,5.482 -0.965,10.742 -2.731,15.622 L 1.949,48.896 C 4.477,41.917 5.795,34.476 5.795,26.833 m 13.457,2.875 c -2.825,0 -5.141,-2.173 -5.372,-4.939 l -6.314,0.205 c 0.017,0.619 0.027,1.238 0.027,1.859 0,7.859 -1.357,15.509 -3.957,22.684 l 5.276,1.942 c 0.828,-1.912 2.731,-3.25 4.948,-3.25 2.978,0 5.392,2.414 5.392,5.391 0,2.978 -2.414,5.392 -5.392,5.392 -2.977,0 -5.391,-2.414 -5.391,-5.392 0,-0.549 0.082,-1.079 0.235,-1.579 L 3.43,50.08 c -3.004,8.06 -7.587,15.507 -13.589,21.96 l 4.128,3.868 c 0.967,-0.925 2.278,-1.494 3.722,-1.494 2.978,0 5.391,2.414 5.391,5.392 0,2.977 -2.413,5.391 -5.391,5.391 -2.978,0 -5.392,-2.414 -5.392,-5.391 0,-1.318 0.474,-2.525 1.26,-3.462 l -4.128,-3.868 c -0.426,0.449 -0.857,0.894 -1.296,1.333 -6.25,6.25 -13.526,11.101 -21.449,14.396 l 2.271,5.529 c 0.515,-0.164 1.063,-0.252 1.632,-0.252 2.978,0 5.392,2.413 5.392,5.391 0,2.978 -2.414,5.392 -5.392,5.392 -2.978,0 -5.391,-2.414 -5.391,-5.392 0,-2.196 1.314,-4.085 3.199,-4.925 l -2.265,-5.516 c -7.089,2.873 -14.683,4.508 -22.515,4.791 l 0.245,7.556 c 0.057,-0.002 0.114,-0.004 0.171,-0.004 2.978,0 5.392,2.413 5.392,5.391 0,2.978 -2.414,5.392 -5.392,5.392 -2.977,0 -5.391,-2.414 -5.391,-5.392 0,-2.716 2.009,-4.963 4.622,-5.336 l -0.246,-7.589 c -0.619,0.017 -1.238,0.026 -1.859,0.026 -7.541,0 -14.891,-1.249 -21.812,-3.647 l -2.174,6.167 c 1.961,0.807 3.342,2.736 3.342,4.988 0,2.977 -2.414,5.391 -5.392,5.391 -2.977,0 -5.391,-2.414 -5.391,-5.391 0,-2.978 2.414,-5.392 5.391,-5.392 0.515,0 1.012,0.074 1.484,0.208 l 2.174,-6.169 c -8.394,-2.995 -16.145,-7.689 -22.829,-13.907 l -3.94,4.205 c 0.882,0.96 1.42,2.239 1.42,3.645 0,2.978 -2.413,5.392 -5.391,5.392 -2.978,0 -5.392,-2.414 -5.392,-5.392 0,-2.977 2.414,-5.391 5.392,-5.391 1.356,0 2.594,0.502 3.542,1.328 l 3.933,-4.197 c -0.449,-0.425 -0.894,-0.857 -1.333,-1.296 -5.559,-5.559 -10.011,-11.93 -13.246,-18.846 l -5.007,2.312 c 0.181,0.539 0.281,1.116 0.281,1.717 0,2.978 -2.414,5.392 -5.392,5.392 -2.977,0 -5.391,-2.414 -5.391,-5.392 0,-2.978 2.414,-5.392 5.391,-5.392 2.165,0 4.031,1.277 4.889,3.118 l 4.977,-2.298 c -3.573,-7.822 -5.598,-16.325 -5.916,-25.129 l -6.426,0.209 c -0.08,2.908 -2.461,5.241 -5.388,5.241 -2.978,0 -5.392,-2.413 -5.392,-5.391 0,-2.978 2.414,-5.391 5.392,-5.391 2.826,0 5.143,2.175 5.371,4.942 l 6.425,-0.209 c -0.017,-0.618 -0.026,-1.238 -0.026,-1.859 0,-7.859 1.356,-15.509 3.956,-22.684 l -5.275,-1.942 c -0.829,1.912 -2.732,3.25 -4.949,3.25 -2.977,0 -5.391,-2.414 -5.391,-5.391 0,-2.978 2.414,-5.392 5.391,-5.392 2.978,0 5.392,2.414 5.392,5.392 0,0.549 -0.083,1.079 -0.236,1.579 l 5.274,1.942 c 3.005,-8.061 7.587,-15.508 13.59,-21.961 l -4.128,-3.867 c -0.968,0.924 -2.278,1.493 -3.722,1.493 -2.978,0 -5.392,-2.414 -5.392,-5.392 0,-2.977 2.414,-5.391 5.392,-5.391 2.977,0 5.391,2.414 5.391,5.391 0,1.319 -0.473,2.526 -1.259,3.462 l 4.128,3.868 c 0.425,-0.449 0.857,-0.894 1.296,-1.333 4.209,-4.209 8.885,-7.783 13.909,-10.675 l -32.509,-59.92 h -5.835 v -1.713 h -2.857 v -3.403 H 15.427 v 3.403 h -2.858 v 1.713 H 6.735 l -32.509,59.92 c 4.331,2.493 8.402,5.492 12.139,8.969 l 5.268,-5.622 c -1.131,-0.988 -1.846,-2.44 -1.846,-4.06 0,-2.978 2.414,-5.392 5.391,-5.392 2.978,0 5.392,2.414 5.392,5.392 0,2.978 -2.414,5.391 -5.392,5.391 -1.141,0 -2.199,-0.355 -3.071,-0.961 l -5.305,5.662 c 0.449,0.426 0.893,0.857 1.333,1.296 5.559,5.559 10.01,11.931 13.246,18.846 L 7.248,-4.005 C 7.141,-4.428 7.084,-4.87 7.084,-5.326 c 0,-2.978 2.414,-5.391 5.392,-5.391 2.977,0 5.391,2.413 5.391,5.391 0,2.978 -2.414,5.392 -5.391,5.392 -2.31,0 -4.28,-1.453 -5.048,-3.495 L 1.633,-0.754 C 5.206,7.068 7.23,15.572 7.548,24.375 l 6.316,-0.205 c 0.077,-2.91 2.459,-5.245 5.388,-5.245 2.977,0 5.391,2.414 5.391,5.391 0,2.978 -2.414,5.392 -5.391,5.392"
             style="fill:#ff877a;fill-opacity:1;fill-rule:nonzero;stroke:none"
             id="path218" /></g><g
           id="g220"><g
             id="g222" /><g
             id="g234"><g
               clip-path="url(#clipPath226)"
               id="g232"><g
                 transform="translate(1113.5668,1.4961)"
                 id="g230"><path
                   d="m 0,0 h 4.164 v 90.088 h 3.569 v 49.548 H 5.354 v 8.365 h 5.354 v 10.94 c 0,4.504 3.569,8.365 7.733,8.365 v 1.287 c 0,4.504 3.569,8.365 7.733,8.365 h 5.354 2.974 4.164 2.975 4.759 c 4.164,0 7.733,-3.861 7.733,-8.365 v -1.287 h 0.595 c 4.164,0 7.733,-3.861 7.733,-8.365 v -10.94 h 4.759 v -8.365 H 64.84 V 90.088 h 4.164 V 0 h 2.38"
                   style="fill:#97ebf3;fill-opacity:1;fill-rule:evenodd;stroke:none"
                   id="path228" /></g></g></g></g><g
           id="g236"><g
             id="g238" /><g
             id="g250"><g
               clip-path="url(#clipPath242)"
               id="g248"><g
                 transform="translate(1140.3184,0.8647)"
                 id="g246"><path
                   d="m 0,0 v 12.889 c -1.958,0.001 -3.878,0.006 -5.798,0.015 -0.727,0.004 -1.453,0.19 -2.726,0.369 -9.281,70.255 -15.692,140.646 -15.105,211.146 2.618,1.728 5.448,3.598 6.254,5.811 1.611,4.43 1.494,7.752 0.862,11.917 -0.287,1.893 -3.116,5.069 -5.023,5.844 -5.328,2.165 -7.258,5.951 -7.299,10.848 -0.108,12.772 -0.122,25.546 0.023,38.317 0.029,2.513 1.408,5.047 1.32,7.518 -0.252,7.11 -1.93,7.451 -2.051,11.198 -0.615,18.964 -0.916,37.937 -1.353,56.906 -0.041,1.769 -0.263,3.534 -0.401,5.302 -0.643,0.018 -1.287,0.037 -1.93,0.055 -0.265,-1.675 -0.748,-3.349 -0.759,-5.025 -0.07,-11.176 0.435,-22.374 -0.17,-33.521 -0.642,-11.81 1.402,-20.827 -3.323,-32.297 -0.284,-0.692 -0.207,-4.746 0.036,-5.564 0.52,-1.749 1.617,-3.469 1.636,-5.209 0.142,-12.416 0.108,-24.835 0.054,-37.252 -0.023,-5.192 -2.281,-9.085 -7.69,-11.194 -1.301,-0.508 -2.56,-1.604 -3.325,-2.731 -4.169,-6.145 -0.704,-17.853 6.28,-21.122 C -40.902,153.66 -47.045,83.411 -56.329,13.271 H -66.935 V 0.184 Z"
                   style="fill:#ff877a;fill-opacity:1;fill-rule:nonzero;stroke:none"
                   id="path244" /></g></g></g></g><g
           id="g252"><g
             id="g254" /><g
             id="g266"><g
               clip-path="url(#clipPath258)"
               id="g264"><g
                 transform="translate(1197.0233,0.5695)"
                 id="g262"><path
                   d="m 0,0 v 29.518 c -6.259,-6.689 -6.436,-6.8 -8.7,-2.166 -8.368,17.122 -21.5,27.86 -37.284,34.056 -33.782,13.26 -67.831,13.092 -101.51,-0.574 -14.034,-5.696 -25.828,-15.473 -34.067,-29.99 -4.441,-7.824 -4.351,-7.89 -10.876,-1.115 V -0.182"
                   style="fill:#f9bc26;fill-opacity:1;fill-rule:nonzero;stroke:none"
                   id="path260" /></g></g></g></g><g
           id="g268"><g
             id="g270" /><g
             id="g284"><g
               clip-path="url(#clipPath274)"
               id="g282"><g
                 transform="translate(998.0082,169.1945)"
                 id="g278"><path
                   d="m 0,0 -42.96,-169.099 85.919,0.003 z"
                   style="fill:#97ebf3;fill-opacity:1;fill-rule:nonzero;stroke:none"
                   id="path276" /></g><path
                 d="m 1018.324,40.42 h -40.568 v 92.431 h 40.568 z"
                 style="fill:#97ebf3;fill-opacity:1;fill-rule:nonzero;stroke:none"
                 id="path280" /></g></g></g></g></g>
                 <!-- <text
       transform="matrix(1,0,0,-1,43.1924,283.9004)"
       style="font-variant:normal;font-weight:normal;font-stretch:normal;font-size:26.3415px;font-family:Metropolis;-inkscape-font-specification:Metropolis-Regular;writing-mode:lr-tb;fill:#000000;fill-opacity:1;fill-rule:nonzero;stroke:none"
       id="text292"><tspan
         x="0 14.619533 31.241018 41.408836 57.082031 80.657677 88.296707 94.223549 111.02942 124.0948 139.68898 163.26462 170.90366 187.70953 204.33101 210.31053 226.93202 237.09984 244.73888 257.80426 263.73111 273.47745 281.11649 296.21017 319.7858 335.45901 345.20535 352.15952"
         y="0"
         sodipodi:role="line"
         id="tspan286">Lorem ipsum dolor sit amet, </tspan><tspan
         x="0 13.987336 30.608824 46.202991 59.268375 74.941566 89.218658 98.965019 114.63821 124.38456 139.97873 155.65192 165.81975 173.45877 188.55246 205.35834 211.28517 228.09105 234.01788 247.08327 261.36035 267.2872 282.88138 299.63455 307.27359 322.94678 328.9263 334.85315 344.59952 351.55365"
         y="32.926876"
         sodipodi:role="line"
         id="tspan288">consectetuer adipiscing elit, </tspan><tspan
         x="0 13.065384 28.738577 45.544453 53.183487 69.989365 75.916206 91.00988 114.58553 122.22456 137.81873 154.44022 170.03438 185.62856 209.20419 232.77983 248.40034 256.03937 271.63354 277.56039 294.36627 309.96042 317.59946 333.27264 348.86682 354.79367"
         y="65.853752"
         sodipodi:role="line"
         id="tspan290">sed diam nonummy nibh euis</tspan></text> -->
         <g
       id="g294"><g
         id="g296"
         clip-path="url(#clipPath300)"><g
           id="g302"><g
             id="g304" /><g
             id="g316"><g
               clip-path="url(#clipPath308)"
               id="g314"><g
                 transform="translate(1294.1362,1.2528)"
                 id="g312"><path
                   d="m 0,0 v 44.299 h -11.075 l -4.429,12.183 v 15.505 l 21.041,-22.15 4.43,4.43 4.431,4.43 -29.902,25.472 v 12.182 l -21.043,13.29 1.108,1.107 h 1.107 l 46.515,43.192 -4.43,4.43 -5.538,4.43 -40.978,-48.729 1.108,-1.107 -1.108,-1.108 -4.429,2.215 -4.43,-3.323 -2.215,2.216 1.108,1.107 -43.193,46.514 -4.429,-4.429 -4.43,-5.538 48.729,-40.977 v 1.107 l 2.215,-1.107 -17.72,-15.505 v -7.752 l -31.01,-29.902 4.431,-4.43 4.43,-4.43 22.149,26.58 V 58.697 L -88.598,44.299 h -2.216 V 0"
                   style="fill:#ff877a;fill-opacity:1;fill-rule:nonzero;stroke:none"
                   id="path310" /></g></g></g></g><g
           id="g318"><g
             id="g320" /><g
             id="g352"><g
               clip-path="url(#clipPath324)"
               id="g350"><g
                 transform="translate(484.3641,226.094)"
                 id="g328"><path
                   d="m 0,0 c 26.576,29.798 94.207,37.669 129.093,26.533 37.683,-12.029 91.71,-8.502 121.213,25.775"
                   style="fill:none;stroke:#f9bc26;stroke-width:1.63;stroke-linecap:round;stroke-linejoin:round;stroke-miterlimit:10;stroke-dasharray:none;stroke-opacity:1"
                   id="path326" /></g><g
                 transform="translate(486.4357,216.0152)"
                 id="g332"><path
                   d="m 0,0 c 26.576,29.798 94.207,37.669 129.093,26.533 37.683,-12.029 91.71,-8.502 121.213,25.775"
                   style="fill:none;stroke:#f9bc26;stroke-width:1.63;stroke-linecap:round;stroke-linejoin:round;stroke-miterlimit:10;stroke-dasharray:none;stroke-opacity:1"
                   id="path330" /></g><g
                 transform="translate(488.5072,205.9363)"
                 id="g336"><path
                   d="m 0,0 c 26.576,29.798 94.207,37.669 129.093,26.533 37.683,-12.029 91.71,-8.502 121.213,25.775"
                   style="fill:none;stroke:#f9bc26;stroke-width:1.63;stroke-linecap:round;stroke-linejoin:round;stroke-miterlimit:10;stroke-dasharray:none;stroke-opacity:1"
                   id="path334" /></g><g
                 transform="translate(482.2926,236.1729)"
                 id="g340"><path
                   d="m 0,0 c 26.576,29.798 94.207,37.669 129.093,26.533 37.683,-12.029 91.71,-8.502 121.213,25.775"
                   style="fill:none;stroke:#f9bc26;stroke-width:1.63;stroke-linecap:round;stroke-linejoin:round;stroke-miterlimit:10;stroke-dasharray:none;stroke-opacity:1"
                   id="path338" /></g><g
                 transform="translate(480.2211,246.2517)"
                 id="g344"><path
                   d="m 0,0 c 26.576,29.798 94.207,37.669 129.093,26.533 37.683,-12.029 91.71,-8.502 121.213,25.775"
                   style="fill:none;stroke:#f9bc26;stroke-width:1.63;stroke-linecap:round;stroke-linejoin:round;stroke-miterlimit:10;stroke-dasharray:none;stroke-opacity:1"
                   id="path342" /></g><g
                 transform="translate(478.1495,256.3306)"
                 id="g348"><path
                   d="m 0,0 c 26.576,29.798 94.207,37.669 129.093,26.533 37.683,-12.029 91.71,-8.502 121.213,25.775"
                   style="fill:none;stroke:#f9bc26;stroke-width:1.63;stroke-linecap:round;stroke-linejoin:round;stroke-miterlimit:10;stroke-dasharray:none;stroke-opacity:1"
                   id="path346" /></g></g></g></g><g
           id="g354"><g
             id="g356" /><g
             id="g388"><g
               clip-path="url(#clipPath360)"
               id="g386"><g
                 transform="translate(1192.7404,183.6477)"
                 id="g364"><path
                   d="m 0,0 c 19.255,25.448 70.056,30.564 96.662,19.867 28.74,-11.555 69.395,-9.89 90.74,19.411"
                   style="fill:none;stroke:#f9bc26;stroke-width:1.325;stroke-linecap:round;stroke-linejoin:round;stroke-miterlimit:10;stroke-dasharray:none;stroke-opacity:1"
                   id="path362" /></g><g
                 transform="translate(1194.5697,174.7473)"
                 id="g368"><path
                   d="m 0,0 c 19.255,25.448 70.056,30.564 96.662,19.867 28.74,-11.555 69.395,-9.89 90.74,19.411"
                   style="fill:none;stroke:#f9bc26;stroke-width:1.325;stroke-linecap:round;stroke-linejoin:round;stroke-miterlimit:10;stroke-dasharray:none;stroke-opacity:1"
                   id="path366" /></g><g
                 transform="translate(1196.3989,165.8469)"
                 id="g372"><path
                   d="m 0,0 c 19.255,25.448 70.056,30.564 96.662,19.867 28.74,-11.555 69.395,-9.89 90.74,19.411"
                   style="fill:none;stroke:#f9bc26;stroke-width:1.325;stroke-linecap:round;stroke-linejoin:round;stroke-miterlimit:10;stroke-dasharray:none;stroke-opacity:1"
                   id="path370" /></g><g
                 transform="translate(1190.911,192.548)"
                 id="g376"><path
                   d="m 0,0 c 19.255,25.448 70.056,30.564 96.662,19.867 28.74,-11.555 69.395,-9.89 90.74,19.411"
                   style="fill:none;stroke:#f9bc26;stroke-width:1.325;stroke-linecap:round;stroke-linejoin:round;stroke-miterlimit:10;stroke-dasharray:none;stroke-opacity:1"
                   id="path374" /></g><g
                 transform="translate(1189.0817,201.4484)"
                 id="g380"><path
                   d="m 0,0 c 19.255,25.448 70.056,30.564 96.662,19.867 28.74,-11.555 69.395,-9.89 90.74,19.411"
                   style="fill:none;stroke:#f9bc26;stroke-width:1.325;stroke-linecap:round;stroke-linejoin:round;stroke-miterlimit:10;stroke-dasharray:none;stroke-opacity:1"
                   id="path378" /></g><g
                 transform="translate(1187.2524,210.3488)"
                 id="g384"><path
                   d="m 0,0 c 19.255,25.448 70.056,30.564 96.662,19.867 28.74,-11.555 69.395,-9.89 90.74,19.411"
                   style="fill:none;stroke:#f9bc26;stroke-width:1.325;stroke-linecap:round;stroke-linejoin:round;stroke-miterlimit:10;stroke-dasharray:none;stroke-opacity:1"
                   id="path382" /></g></g></g></g><g
           id="g390"
           transform="translate(66.5793,175.6669)"><path
             d="m 0,0 c -16.146,0 -29.281,-14.145 -29.281,-31.533 0,-17.387 13.135,-31.533 29.281,-31.533 h 249.628 c 16.146,0 29.281,14.146 29.281,31.533 C 278.909,-14.145 265.774,0 249.628,0 Z M 249.628,-64.692 H 0 c -16.977,0 -30.79,14.876 -30.79,33.159 0,18.283 13.813,33.158 30.79,33.158 h 249.628 c 16.977,0 30.79,-14.875 30.79,-33.158 0,-18.283 -13.813,-33.159 -30.79,-33.159 m -86.401,32.668 c -0.284,2.976 -1.914,5.305 -4.749,5.305 -2.623,0 -4.465,-2.176 -4.856,-5.305 z m -4.253,-11.947 c -5.422,0 -9.604,4.237 -9.604,10.457 v 0.077 c 0,5.763 3.791,10.495 9.143,10.495 5.954,0 8.895,-5.266 8.895,-9.922 0,-1.298 -0.921,-2.214 -2.019,-2.214 h -11.731 c 0.461,-3.282 2.623,-5.114 5.387,-5.114 1.807,0 3.225,0.687 4.43,1.755 0.319,0.268 0.603,0.42 1.098,0.42 0.958,0 1.702,-0.801 1.702,-1.87 0,-0.573 -0.249,-1.069 -0.567,-1.412 -1.701,-1.641 -3.828,-2.672 -6.734,-2.672 m -28.778,18.511 c 0,1.298 0.922,2.329 2.127,2.329 1.205,0 2.162,-1.031 2.162,-2.329 v -0.992 c 1.205,1.87 2.941,3.51 5.847,3.51 4.218,0 6.664,-3.053 6.664,-7.708 v -10.764 c 0,-1.297 -0.923,-2.29 -2.127,-2.29 -1.205,0 -2.162,0.993 -2.162,2.29 v 9.351 c 0,3.13 -1.453,4.924 -4.005,4.924 -2.481,0 -4.217,-1.871 -4.217,-5.001 v -9.274 c 0,-1.297 -0.957,-2.29 -2.162,-2.29 -1.17,0 -2.127,0.993 -2.127,2.29 z m -7.584,-4.771 v 0.077 c 0,5.19 -3.508,9.503 -8.435,9.503 -4.926,0 -8.363,-4.236 -8.363,-9.427 v -0.076 c 0,-5.191 3.509,-9.466 8.434,-9.466 4.926,0 8.364,4.199 8.364,9.389 m -21.37,0 v 0.077 c 0,7.518 5.387,13.816 13.006,13.816 7.62,0 12.937,-6.222 12.937,-13.74 v -0.076 c 0,-7.519 -5.388,-13.817 -13.008,-13.817 -7.619,0 -12.935,6.221 -12.935,13.74 m -7.229,-2.214 v 0.077 c 0,3.283 -2.517,5.534 -5.494,5.534 -2.977,0 -5.315,-2.214 -5.315,-5.534 v -0.077 c 0,-3.281 2.374,-5.533 5.315,-5.533 2.977,0 5.494,2.252 5.494,5.533 M 80.936,-47.902 c -0.746,0.305 -1.206,0.955 -1.206,1.832 0,1.03 0.815,1.908 1.807,1.908 0.32,0 0.567,-0.075 0.781,-0.191 1.701,-1.03 3.579,-1.602 5.741,-1.602 3.827,0 5.918,2.137 5.918,6.182 v 1.565 c -1.559,-2.175 -3.508,-3.702 -6.591,-3.702 -4.396,0 -8.506,3.511 -8.506,9.428 v 0.076 c 0,5.954 4.147,9.464 8.506,9.464 3.153,0 5.103,-1.563 6.556,-3.434 v 0.954 c 0,1.26 0.956,2.291 2.126,2.291 1.206,0 2.162,-1.031 2.162,-2.329 v -13.931 c 0,-3.397 -0.815,-5.915 -2.374,-7.595 -1.702,-1.831 -4.325,-2.709 -7.691,-2.709 -2.623,0 -4.961,0.61 -7.229,1.793 m -21.3,22.442 c 0,1.298 0.921,2.329 2.125,2.329 1.206,0 2.163,-1.031 2.163,-2.329 v -0.992 c 1.204,1.87 2.942,3.51 5.848,3.51 4.217,0 6.662,-3.053 6.662,-7.708 v -10.764 c 0,-1.297 -0.921,-2.29 -2.126,-2.29 -1.206,0 -2.162,0.993 -2.162,2.29 v 9.351 c 0,3.13 -1.453,4.924 -4.004,4.924 -2.482,0 -4.218,-1.871 -4.218,-5.001 v -9.274 c 0,-1.297 -0.957,-2.29 -2.163,-2.29 -1.169,0 -2.125,0.993 -2.125,2.29 z m -8.116,0 c 0,1.298 0.921,2.329 2.126,2.329 1.205,0 2.162,-1.031 2.162,-2.329 v -15.954 c 0,-1.297 -0.957,-2.29 -2.162,-2.29 -1.17,0 -2.126,0.993 -2.126,2.29 z m -0.319,7.518 c 0,1.375 1.063,2.253 2.445,2.253 1.382,0 2.446,-0.878 2.446,-2.253 v -0.229 c 0,-1.374 -1.064,-2.289 -2.446,-2.289 -1.382,0 -2.445,0.915 -2.445,2.289 z M 38.407,-25.46 c 0,1.298 0.922,2.329 2.127,2.329 1.204,0 2.162,-1.031 2.162,-2.329 v -2.061 c 0.992,2.518 2.835,4.427 4.713,4.427 1.346,0 2.126,-0.954 2.126,-2.289 0,-1.222 -0.744,-2.023 -1.701,-2.214 -3.047,-0.573 -5.138,-3.092 -5.138,-7.863 v -5.954 c 0,-1.259 -0.958,-2.29 -2.162,-2.29 -1.17,0 -2.127,0.993 -2.127,2.29 z m -7.016,-8.015 v 0.077 c 0,3.892 -2.446,6.45 -5.352,6.45 -2.906,0 -5.458,-2.596 -5.458,-6.45 v -0.077 c 0,-3.855 2.552,-6.45 5.458,-6.45 2.941,0 5.352,2.481 5.352,6.45 m -14.992,8.015 c 0,1.298 0.922,2.329 2.127,2.329 1.204,0 2.162,-1.031 2.162,-2.329 v -1.259 c 1.382,2.098 3.33,3.777 6.379,3.777 4.394,0 8.683,-3.74 8.683,-10.456 v -0.077 c 0,-6.679 -4.253,-10.457 -8.683,-10.457 -3.119,0 -5.069,1.679 -6.379,3.549 v -7.137 c 0,-1.297 -0.958,-2.29 -2.162,-2.29 -1.17,0 -2.127,0.993 -2.127,2.29 z M -4.652,-40.536 c -0.497,0.382 -0.851,1.031 -0.851,1.794 0,1.221 0.922,2.175 2.056,2.175 0.602,0 0.992,-0.19 1.275,-0.419 2.056,-1.756 4.253,-2.748 6.947,-2.748 2.693,0 4.394,1.374 4.394,3.358 v 0.077 c 0,1.908 -0.992,2.939 -5.6,4.084 -5.28,1.374 -8.257,3.053 -8.257,7.976 v 0.077 c 0,4.58 3.545,7.747 8.471,7.747 3.118,0 5.635,-0.878 7.868,-2.48 0.496,-0.306 0.956,-0.955 0.956,-1.87 0,-1.222 -0.921,-2.177 -2.056,-2.177 -0.424,0 -0.779,0.115 -1.133,0.344 -1.914,1.335 -3.757,2.024 -5.706,2.024 -2.552,0 -4.04,-1.413 -4.04,-3.169 v -0.075 c 0,-2.062 1.134,-2.978 5.918,-4.199 5.246,-1.374 7.939,-3.397 7.939,-7.824 v -0.076 c 0,-5 -3.651,-7.977 -8.86,-7.977 -3.368,0 -6.557,1.145 -9.321,3.358"
             style="fill:#000000;fill-opacity:1;fill-rule:nonzero;stroke:none"
             id="path392" /></g><g
           id="g394"
           transform="translate(254.1501,150.4081)"><path
             d="m 0,0 h -5.515 c -0.543,0 -1.005,0.468 -1.005,1.053 0,0.585 0.462,1.083 1.005,1.083 H 7.688 C 8.232,2.136 8.694,1.638 8.694,1.053 8.694,0.468 8.232,0 7.688,0 H 2.173 v -17.32 c 0,-0.643 -0.488,-1.17 -1.086,-1.17 -0.598,0 -1.087,0.527 -1.087,1.17 z"
             style="fill:#000000;fill-opacity:1;fill-rule:nonzero;stroke:none"
             id="path396" /></g><g
           id="g398"
           transform="translate(281.4796,142.2456)"><path
             d="m 0,0 v 0.058 c 0,4.653 -3.151,8.456 -7.498,8.456 -4.347,0 -7.444,-3.745 -7.444,-8.397 V 0.058 c 0,-4.652 3.151,-8.455 7.498,-8.455 C -3.097,-8.397 0,-4.652 0,0 m -17.17,0 v 0.058 c 0,5.647 3.94,10.592 9.726,10.592 5.787,0 9.672,-4.886 9.672,-10.533 V 0.058 c 0,-5.646 -3.939,-10.591 -9.726,-10.591 -5.787,0 -9.672,4.886 -9.672,10.533"
             style="fill:#000000;fill-opacity:1;fill-rule:nonzero;stroke:none"
             id="path400" /></g><g
           id="g402"
           transform="translate(287.6715,140.6367)"><path
             d="m 0,0 v 10.884 c 0,0.643 0.489,1.17 1.059,1.17 0.598,0 1.087,-0.527 1.087,-1.17 V 0.146 c 0,-4.418 2.201,-6.905 5.814,-6.905 3.504,0 5.732,2.282 5.732,6.759 v 10.884 c 0,0.643 0.49,1.17 1.087,1.17 0.571,0 1.06,-0.527 1.06,-1.17 V 0.175 c 0,-5.968 -3.179,-9.069 -7.933,-9.069 C 3.205,-8.894 0,-5.793 0,0"
             style="fill:#000000;fill-opacity:1;fill-rule:nonzero;stroke:none"
             id="path404" /></g><g
           id="g406"
           transform="translate(316.3043,142.0992)"><path
             d="m 0,0 c 2.852,0 4.89,1.58 4.89,4.213 v 0.059 c 0,2.516 -1.793,4.037 -4.863,4.037 h -5.869 l 0,-8.309 z m -7.988,9.275 c 0,0.644 0.49,1.17 1.06,1.17 H 0.19 c 2.337,0 4.211,-0.76 5.406,-2.048 C 6.52,7.402 7.064,5.968 7.064,4.359 V 4.301 c 0,-3.365 -2.12,-5.325 -5.081,-5.939 L 6.71,-8.192 c 0.218,-0.263 0.354,-0.526 0.354,-0.848 0,-0.614 -0.544,-1.141 -1.087,-1.141 -0.435,0 -0.761,0.263 -1.006,0.614 l -5.352,7.49 h -5.461 v -6.934 c 0,-0.643 -0.488,-1.17 -1.086,-1.17 -0.57,0 -1.06,0.527 -1.06,1.17 z"
             style="fill:#000000;fill-opacity:1;fill-rule:nonzero;stroke:none"
             id="path408" /></g></g></g><text
       transform="matrix(0.92858042,0,0,-1,179.9111,91.3535)"
       style="font-variant:normal;font-weight:300;font-stretch:normal;font-size:18.2681px;font-family:'Metropolis Light';-inkscape-font-specification:Metropolis-Light;writing-mode:lr-tb;fill:#000000;fill-opacity:1;fill-rule:nonzero;stroke:none"
       id="text412"><tspan
         x="0 10.911536 21.580107 26.877855 40.164246 55.270138 69.822502 80.14946 86.360619 97.230133 102.52789 112.08758 122.46751 132.69765 141.74036"
         y="0"
         sodipodi:role="line"
         id="tspan410">by VMware Tanzu</tspan></text></g></svg>
