<?xml version="1.0" encoding="utf-8"?>
<!-- Generator: Adobe Illustrator 26.5.0, SVG Export Plug-In . SVG Version: 6.00 Build 0)  -->
<svg version="1.1" id="Layer_2_00000098191897609619080580000005541754564883437214_"
	 xmlns="http://www.w3.org/2000/svg" xmlns:xlink="http://www.w3.org/1999/xlink" x="0px" y="0px" viewBox="0 0 621.5 100.7"
	 style="enable-background:new 0 0 621.5 100.7;" xml:space="preserve">
<style type="text/css">
	.st0{fill-rule:evenodd;clip-rule:evenodd;fill:#FFFFFF;}
</style>
<g id="Layer_1-2">
	<g>
		<polygon class="st0" points="37,30 0,30 0,16.2 90.3,16.2 90.3,30 53.2,30 53.2,98.8 37,98.8 37,30 37,30 		"/>
		<polygon class="st0" points="94.1,16.2 168.8,16.2 168.8,30 110.3,30 110.3,49.2 160.6,49.2 160.6,63.1 110.3,63.1 110.3,85 
			170.1,85 170.1,98.8 94.1,98.8 94.1,16.2 94.1,16.2 		"/>
		<path class="st0" d="M419.7,40.7c-2.6-7.5-9.3-13.9-28.9-13.9c-10.9,0-21.9,2.8-21.9,10.4c0,3.5,2,7.3,18.5,9.4l19.5,3
			c18.5,2.9,29.4,10.1,29.4,24.1c0,19.7-18.6,27-40.6,27c-35.4,0-44-17.7-45.9-24l15.5-4.9c3,6.1,9.1,14.9,30.8,14.9
			c13.1,0,24-4.3,24-11.6c0-5.4-6.1-8.9-17.9-10.4L382.5,62c-19-2.6-29.7-11-29.7-23.7c0-25,32.1-25,38.4-25
			c35.5,0,41.6,16.6,43.6,22.4L419.7,40.7L419.7,40.7L419.7,40.7z"/>
		<polygon class="st0" points="441.9,16.2 458.1,16.2 458.1,54.7 504.2,16.2 527.3,16.2 487.6,48.9 531.3,98.8 510,98.8 475.9,58.5 
			458.1,73.1 458.1,98.8 441.9,98.8 441.9,16.2 441.9,16.2 		"/>
		<polygon class="st0" points="564.5,65.7 523.7,16.2 543.7,16.2 572.6,51.2 601.5,16.2 621.5,16.2 580.8,65.7 580.8,98.8 
			564.5,98.8 564.5,65.7 564.5,65.7 		"/>
		<polyline class="st0" points="331.8,98.8 316.5,77.2 316.5,39 358.3,98.8 		"/>
		<path class="st0" d="M190.9,52.6V29.2H222c13.2,0,19.9,1.9,19.9,11.7s-6.7,11.8-19.9,11.8H190.9z M274.2,98.8l25.7-37l16.6-23.6V0
			L282,49.5l-28.2,40.6L235.1,65c12.2-0.7,23.1-9.2,23.1-24.5c0-20.4-14.1-24.8-33.6-24.8h-49.7v83.2H191V66.1h25.6l24,32.7"/>
	</g>
</g>
</svg>
