<?xml version="1.0" encoding="UTF-8"?><svg id="Layer_2" xmlns="http://www.w3.org/2000/svg" viewBox="0 0 774.03 509.06"><defs><style>.cls-1,.cls-2{fill:#fff;}.cls-2{fill-rule:evenodd;}</style></defs><g id="Layer_1-2"><g><g><polygon class="cls-2" points="346.19 212.1 305.38 282.8 387.01 282.8 468.65 282.8 427.83 212.1 387.01 141.4 346.19 212.1"/><polygon class="cls-2" points="305.38 282.8 346.19 212.1 305.38 141.4 223.74 141.4 264.55 212.1 305.38 282.8"/><polygon class="cls-2" points="305.38 141.4 346.19 70.7 305.38 0 264.55 70.7 223.74 141.4 305.38 141.4"/><polygon class="cls-2" points="305.38 0 346.19 70.7 387.01 141.4 427.83 70.7 468.65 0 387.01 0 305.38 0"/><polygon class="cls-2" points="468.65 0 427.83 70.7 468.65 141.4 550.29 141.4 509.47 70.7 468.65 0"/><polygon class="cls-2" points="550.29 141.4 468.65 141.4 427.83 212.1 468.65 282.8 509.47 212.1 550.29 141.4"/></g><g><path class="cls-1" d="M220.46,405.12v95.2c0,4.82-3.91,8.74-8.74,8.74h-9.16c-4.83,0-8.74-3.91-8.74-8.74v-95.2c0-4.82,3.91-8.74,8.74-8.74h9.16c4.82,0,8.74,3.91,8.74,8.74Z"/><path class="cls-1" d="M657.63,353.37h-9.15c-4.83,0-8.74,3.91-8.74,8.74v90.62c0,16.39-13.33,29.71-29.71,29.71s-29.71-13.33-29.71-29.71c0-17.54,15.12-31.66,33.25-29.49,2.49,.29,4.97-.48,6.84-2.14,1.87-1.65,2.94-4.03,2.94-6.53v-9.21c0-4.49-3.41-8.25-7.88-8.69-1.77-.17-3.6-.26-5.44-.26-31.07,0-56.34,25.27-56.34,56.34s25.27,56.34,56.34,56.34,56.33-25.27,56.34-56.33v-90.62c0-4.82-3.91-8.74-8.74-8.74Z"/><path class="cls-1" d="M408.8,396.38c-31.07,0-56.34,25.27-56.34,56.34s25.27,56.33,56.34,56.34h0c1.81,0,3.64-.09,5.41-.26,4.48-.43,7.89-4.2,7.89-8.69v-9.22c0-2.5-1.07-4.89-2.95-6.54-1.88-1.66-4.37-2.42-6.86-2.13-1.13,.14-2.31,.21-3.5,.21-16.38,0-29.71-13.33-29.71-29.71s13.33-29.71,29.71-29.71,29.71,13.33,29.71,29.71v47.6c0,4.82,3.91,8.74,8.74,8.74h9.15c4.82,0,8.74-3.91,8.74-8.74v-47.6c0-31.07-25.27-56.34-56.33-56.34Z"/><path class="cls-1" d="M170.29,405.1c0-4.82-3.92-8.72-8.74-8.72h-9.15c-2.32,0-4.55,.93-6.19,2.57s-2.56,3.87-2.55,6.19c.02,5.38,.05,10.32,.08,14.83l.02,2.8c.22,36.8,.05,44.83-6.29,51.95-4.19,4.71-9.97,7.31-16.23,7.32-6.36-.01-12.17-2.62-16.37-7.33-6.34-7.11-6.51-15.15-6.28-51.91l.09-17.67c0-2.32-.91-4.55-2.55-6.19s-3.87-2.57-6.19-2.57h-9.44c-2.32,0-4.55,.93-6.19,2.57-1.64,1.64-2.56,3.87-2.55,6.19l.09,17.61c.23,36.82,.05,44.86-6.3,51.98-4.19,4.71-9.96,7.31-16.22,7.32-6.35-.01-12.16-2.62-16.36-7.32-6.34-7.12-6.51-15.16-6.29-51.93l.09-17.67c0-2.32-.91-4.55-2.55-6.19s-3.87-2.57-6.19-2.57H8.89c-4.82,0-8.73,3.9-8.74,8.72-.02,12.86-.07,22.9-.11,30.96-.12,25.77-.14,29.08,1.22,34.48,6.4,28.25,29.89,38.4,48.18,38.51,11.77-.08,23.12-4.24,31.96-11.71l3.82-3.22,3.82,3.22c8.84,7.47,20.26,11.63,32.25,11.71,19.5-.13,41.81-11.93,47.77-38,1.48-5.96,1.46-9.37,1.34-35.2-.04-7.92-.08-17.93-.11-30.75Z"/><path class="cls-1" d="M331.66,482.43h-47.92l53.16-63.75c2.26-2.46,3.49-5.63,3.49-8.98,0-7.34-5.97-13.31-13.32-13.31h-76.28c-4.82,0-8.74,3.91-8.74,8.74v9.16c0,4.83,3.91,8.74,8.74,8.74h47.87l-53.23,63.9c-2.18,2.45-3.38,5.57-3.38,8.83,0,7.34,5.97,13.31,13.32,13.31h76.29c4.83,0,8.74-3.91,8.74-8.74v-9.16c0-4.82-3.91-8.74-8.74-8.74Z"/><path class="cls-1" d="M739.76,439.8h-20.01c-4.5,0-8.16-3.66-8.16-8.16s3.66-8.16,8.16-8.16h38.41c4.83,0,8.74-3.91,8.74-8.74v-8.99c0-4.82-3.91-8.74-8.74-8.74h-38.41c-19.09,0-34.63,15.53-34.63,34.62s15.4,34.44,34.42,34.63h19.86c4.5,0,8.16,3.66,8.16,8.16s-3.66,8.16-8.16,8.16h-42.82c-4.83,0-8.74,3.91-8.74,8.74v8.98c0,4.83,3.91,8.74,8.73,8.74h42.83c9.25,0,17.94-3.59,24.48-10.13,6.54-6.54,10.15-15.24,10.14-24.48,0-18.86-15.37-34.4-34.26-34.63Z"/><path class="cls-1" d="M530.72,397.57c-25.95,5.43-44.79,28.62-44.79,55.15v47.6c0,4.83,3.91,8.74,8.74,8.74h9.15c4.82,0,8.74-3.91,8.74-8.74v-47.6c0-13.49,9.12-25.31,22.17-28.74,3.84-1.01,6.51-4.48,6.51-8.45v-9.4c0-2.63-1.19-5.12-3.23-6.78-2.04-1.66-4.72-2.3-7.3-1.77Z"/><path class="cls-1" d="M409.91,440.34c-8.15,0-14.78,6.63-14.78,14.78s6.63,14.79,14.78,14.79,14.78-6.63,14.78-14.79-6.63-14.78-14.78-14.78Z"/></g></g></g></svg>