<?xml version="1.0" encoding="UTF-8"?><svg id="Layer_2" xmlns="http://www.w3.org/2000/svg" viewBox="0 0 650.99 262.91"><defs><style>.cls-1{fill:#fff;}</style></defs><g id="Layer_1-2"><polygon class="cls-1" points="363.74 0 391.53 91.33 354.37 91.31 326.18 0 363.74 0"/><g><path class="cls-1" d="M366.68,188.87c17.38-3.42,12.43-17.54,12.43-17.54l-5.2-16.89,247.26-.06c.23,1.5,.34,2.99,.34,4.51,0,16.56-13.43,29.99-29.98,29.99h-224.85Z"/><path class="cls-1" d="M358.78,164.82c2.9,16.28-5.29,22.58-23.08,24.07H24.78s-10.64-34.43-10.64-34.43H316.64L268.89,0h40.05l48.93,158.25c.59,2.08,.51,4.33,.91,6.57"/><path class="cls-1" d="M72.79,239.46l-2.59-8.38c-2.57-8.32-9.92-13.89-19.61-13.89-3.34,0-4.69,1.12-6.41,4.07l-.8-.26c-.23-.75-.42-2-.75-3.07h-8.58l9.85,31.9h8.77l-7.32-23.71c.35-.56,1.81-2.19,6.59-2.19,5.43,0,8.64,4.44,10.16,9.38l2.14,6.94c.58,1.88,.37,2.25-.73,2.94-2.29,1.5-6.09,0-8.95-1.01l2.07,6.7s2.3,.87,3.23,1.12c4.52,1.06,9.45,.5,11.98-2.13,2.39-2.43,1.53-6.51,.93-8.45"/></g><path class="cls-1" d="M81.02,211.87h-8.97l-.07,12.7h7.27l1.77-12.7Zm11.79,0h-8.97l-.07,12.7h7.27l1.77-12.7Z"/><g><path class="cls-1" d="M133.25,235.2l-5.33-17.26h-8.77l5.33,17.26c.99,3.19,.79,6.39-.87,8.2,0,0-14.97-22.21-16.96-25.46h-9.49l20.7,29.72-1.25,.62c-1.54,.75-2.47,1.13-4.23,1.57-1.57,.44-4.12,.88-4.12,.88l3.37,6.88c12.83-2.12,25.78-8.95,21.63-22.4"/><path class="cls-1" d="M177.68,249.84l-2.09-6.75h-4.98l-3.84-12.45c-2.68-8.69-8.54-13.45-18.88-13.45-4.52,0-8.06,1.25-11.35,3.32l2.95,7.63c3.22-3.13,6.3-4.19,9.51-4.19,5.3,0,7.54,1.94,8.97,6.57l3.88,12.57h-19.44l2.09,6.75h33.19Z"/><path class="cls-1" d="M219.92,243.09h-14.6l-5.28-17.08c.37-.49,1.78-2.06,6.89-2.06,3.99,0,7.92,2.75,9.97,9.38l3.01,9.76Zm10.86,6.75l-5.8-18.77c-2.65-8.56-10.96-13.89-18.49-13.89-3.73,0-6.57,.57-8.55,2l-.4-1.31h-8.77l9.87,31.96h32.14Z"/></g><polygon class="cls-1" points="244.35 236.14 238.72 217.94 229.95 217.94 236.31 238.52 244.35 236.14"/><g><path class="cls-1" d="M288.82,249.84l-2.09-6.75h-4.98l-3.84-12.45c-2.69-8.69-8.54-13.45-18.89-13.45-4.52,0-8.06,1.25-11.35,3.32l2.95,7.63c3.22-3.13,6.3-4.19,9.51-4.19,5.3,0,7.54,1.94,8.97,6.57l3.88,12.57h-19.44l2.09,6.75h33.19Z"/><path class="cls-1" d="M328.88,236.7l-5.8-18.76h-8.77l5.1,16.51c1.6,5.2-1.55,9.39-7.44,9.39-5.3,0-10.47-3.38-12.65-7.89,2.05,.94,4.04,1.19,6.26,1.19,5.3,0,7.14-5.07,5.97-8.88l-3.19-10.32h-8.77l3.03,9.83c.48,1.56-.48,2.69-2.32,2.69-3.01,0-3.83-3.32-4.38-5.07l-2.3-7.45h-8.77l5.79,18.76c2.8,9.08,13.98,13.89,22.68,13.89h1.44c8.71,0,16.91-4.81,14.11-13.89"/><path class="cls-1" d="M372.92,249.84l-5.93-19.2c-2.71-8.76-10.57-13.45-20.85-13.45-4.45,0-9.91,1.19-13.24,3.32l9.06,29.33h8.77l-7.86-25.45c1.6-.32,3.14-.44,4.38-.44,5.44,0,9.54,2.06,10.93,6.57l5.97,19.32h8.77Z"/><path class="cls-1" d="M410.16,239.46l-2.59-8.38c-2.57-8.32-9.92-13.89-19.61-13.89-3.34,0-4.69,1.12-6.4,4.07l-.8-.26c-.23-.75-.42-2-.75-3.07h-8.58l9.85,31.9h8.77l-7.32-23.71c.35-.56,1.81-2.19,6.59-2.19,5.43,0,8.64,4.44,10.16,9.38l2.14,6.94c.58,1.88,.37,2.25-.73,2.94-2.28,1.5-6.09,0-8.95-1.01l2.07,6.7s2.3,.87,3.22,1.12c4.52,1.06,9.45,.5,11.98-2.13,2.39-2.43,1.52-6.51,.93-8.45"/><path class="cls-1" d="M469.55,249.84l-5.94-19.2c-2.69-8.69-8.54-13.45-18.88-13.45-7.33,0-12.9,1.07-16.23,3.19l2.45,7.94c1.84-1.88,2.12-2.06,2.58-2.25l3.69,11.95c1.16,3.75,.14,5.13-1.49,5.13-1.11,0-1.59-.06-3.91-.38l1.88,6.94c2.23,.44,4.02,.5,5.33,.5,10.21,0,8.19-8.25,6.72-13.01l-4.04-13.07c1.34-.12,2.76-.18,4.13-.18,5.24,0,7.54,1.94,8.97,6.57l5.97,19.32h8.78Z"/><path class="cls-1" d="M504.46,249.84l-5.93-19.2c-2.69-8.69-8.54-13.45-18.88-13.45-4.45,0-9.98,1.19-13.31,3.32l2.88,7.63c3.18-3.07,8.2-4.19,11.54-4.19,5.3,0,7.54,1.94,8.97,6.57l5.97,19.32h8.77Z"/></g><polygon class="cls-1" points="522.23 249.84 512.38 217.94 503.61 217.94 513.46 249.84 522.23 249.84"/><g><path class="cls-1" d="M565.42,236.7l-5.8-18.76h-8.77l5.1,16.51c1.6,5.2-1.55,9.39-7.44,9.39-5.3,0-10.47-3.38-12.65-7.89,2.06,.94,4.03,1.19,6.26,1.19,5.3,0,7.14-5.07,5.96-8.88l-3.19-10.32h-8.77l3.03,9.83c.49,1.56-.48,2.69-2.31,2.69-3.01,0-3.84-3.32-4.38-5.07l-2.3-7.45h-8.77l5.79,18.76c2.8,9.08,13.98,13.89,22.68,13.89h1.44c8.71,0,16.91-4.81,14.11-13.89"/><path class="cls-1" d="M590.33,262.91l-10.55-34.15-7.98,2.56,9.75,31.59h8.78Zm12.81-34.4c-1.02-5.2-7.85-10.58-15.97-10.58h-20.29l2.13,6.89h20.29c1.51,0,4.41,.49,5.26,4.75l1.35,6.7c.47,2.37,.46,5.32-1.75,6.62-1.25,.82-4.48,.75-5.92,.75l2.12,6.88c4.32,0,9.06-.12,11.99-2.94,3.22-3.13,2.89-8.44,2.31-11.38l-1.52-7.69Z"/><path class="cls-1" d="M650.99,249.84l-5.93-19.2c-2.69-8.69-8.54-13.45-18.88-13.45-7.33,0-12.9,1.07-16.23,3.19l2.46,7.94c1.84-1.88,2.11-2.06,2.58-2.25l3.69,11.95c1.16,3.75,.14,5.13-1.49,5.13-1.11,0-1.59-.06-3.92-.38l1.88,6.94c2.23,.44,4.01,.5,5.32,.5,10.22,0,8.19-8.25,6.72-13.01l-4.04-13.07c1.34-.12,2.76-.18,4.13-.18,5.24,0,7.54,1.94,8.97,6.57l5.97,19.32h8.77Z"/><path class="cls-1" d="M0,108.72H119.72l-21.18-68.6-.79-2.54c-.64-2.43-.97-4.97-.97-7.6,0-16.56,13.42-29.99,29.98-29.99h107.68c10.29,.2,19,6.86,22.25,16.08l.49,1.58,38.27,122.68h-39.12l-26.48-90.05c-6.54-16.77-3.77-16.75-22.46-16.75h-72.62l24.58,78.74c6.23,23.06-8.71,28.06-23.94,28.06H9.77L0,108.72Z"/><path class="cls-1" d="M369.52,140.23l-10.73-34.7h145.11l-18.13-57.33c-5.14-13.52-4.09-14.9-16.8-15.05l-66.33-.03L392.4,0h100.37c11,0,20.07,6.98,23.21,16.63l27.8,88.89,62.3,.05,10.68,34.66h-247.24Z"/></g></g></svg>