<svg id="Layer_1" data-name="Layer 1" xmlns="http://www.w3.org/2000/svg" viewBox="0 0 576.17 531.51"><defs><style>.cls-1{fill:#02bc67;}.cls-2{fill:#80ea6e;}.cls-3{fill:#3ea82c;}.cls-4{fill:#97ebf3;}.cls-5{fill:#81d5dd;}.cls-6{fill:#3f939b;}.cls-7{fill:#f9bc26;}.cls-8{fill:#aa7a00;}.cls-9{fill:#f8bb25;}.cls-10{fill:#ffd262;}.cls-11{fill:#ff877a;}.cls-12{fill:#ffa298;}.cls-13{fill:#d0584b;}.cls-14{fill:#ffc1bb;}</style></defs><path class="cls-1" d="M299.4,96.52V79.11h6.34V96.52H299.4M304.84,0H300.3V11.08h-4.53v4.74h4.53V57h-3.63c-2.72,0-5.44,3.17-5.44,7.91V79.11h3.63V96.52H286.7c-6.35,0-11.79,7.91-11.79,20.57v1.58c-6.35,0-11.79,9.49-11.79,20.57v26.9H255V186.7h3.63V308.54h-5.44v35.8l5.59,16.79,10.41-38.75h1.74l13.3,50.9H329.3l8.1-26.61h1.15l2.89-11.56h1.74l2.89,11.56h.58l4.63,15.62L352,360V308.54h-6.34V227l-6.51-5.47,6.51-8.13V186.7h3.62V166.14H342v-26.9c0-11.08-5.44-20.57-11.79-20.57h-.91v-1.58c0-12.66-4.53-20.57-11.79-20.57h-7.25V79.11H313V64.87c0-4.74-1.82-7.91-4.54-7.91h-3.62V15.82h4.53V11.08h-4.53V0"/><path class="cls-2" d="M514.63,383.37v31.91l9.12,25.07h22.79v91h.86L547.33,471v-42.8H545l-1-13.91-9.37-9.86-.63,2.37a14.94,14.94,0,0,0-8.09-6.36l-2.45-7.76-8.86-9.33M366.1,339.73h-7.88L352,360v47.31l8.46-8.15,5.65-59.39M217.68,181.85h-5.21c-3.47,0-6.36,3.47-6.36,6.94v6.94h3.47v4.05c0,1.15,0,2.31,1.16,2.89-2.89,1.73-4.63,4.05-4.63,7.52h-5.78v4l1.06,2,1.83.95h2.89v27.76a10.18,10.18,0,0,0-4.62,8.67V264h-4.05c-2.32,0-4.05,2.32-4.05,4.63v4.63h3.47V311.4h-2.31v46.84h-2.9v26h-4l-12.15-17.35-1.16-.58h-9.83l-12.14,17.93h-2.89v-9.84H121.68l-10.42-24.86-1.73-1.74h-5.21l-1.73,1.74L92.18,374.43H91.6v9.84H74.25v19.08c-3.47,3.47-5.78,8.1-5.78,12.73V427C120.89,433.17,194,447.45,253.15,460V344.34l-2.5-7.5H242l-6.36,20.24V311.4h-2.32V273.23h3.47V268.6c0-2.31-1.73-4.63-4-4.63h-4.05V253.56a10.19,10.19,0,0,0-4.63-8.67V217.13h2.89l1.8-.95,1.09-2v-4H224a8.4,8.4,0,0,0-4.42-7.68c1.15-.58.95-1.58.95-2.73v-4.05H224v-6.94c0-3.47-2.89-6.94-6.36-6.94"/><path class="cls-3" d="M270.89,322.38h-1.74l-10.41,38.75-5.59-16.79V460c25.63,5.42,48.63,10.5,66.18,14.45h10.44V461.29h13.12V420.73h6.26l-5.45-5.45,8.29-8V360l-.71,2.33-4.63-15.62h-.58l-2.89-11.56h-1.74l-2.89,11.56H337.4l-8.1,26.61H284.19l-13.3-50.9"/><path class="cls-4" d="M374.5,251.29l-8.4,88.44h3.1l12.6,38.8,25.71-24.79V337.79l29.26-25.6-.85-9.25L374.5,251.29M403.73,91.5h-2.39A15.5,15.5,0,0,0,388.22,107l-11,115.44,56.92,61.31L418,107c0-8.35-6-14.31-14.31-15.5"/><polyline class="cls-5" points="369.2 339.73 368.05 339.73 366.89 339.73 366.1 339.73 360.45 399.12 381.8 378.53 369.2 339.73"/><path class="cls-4" d="M318.34,530.27q-.36.45-.69.81h42v-.61l-41.31-.2m89.17-151.46L403,384.27h4.55v-5.46"/><path class="cls-5" d="M407.51,384.27H403l-41,49.24-9.12-9.12-.82-.82V530.05H318.52l-.18.22,41.31.2V440.35h4.56l43.3-29.63V384.27"/><path class="cls-6" d="M349.15,420.73h-6.26v40.56H329.77v13.12H319.33c10.78,2.42,19.51,4.42,25.53,5.79l2.4,1c-6.81,17.6-22.43,41.1-28.74,48.82H352V423.57l-2.84-2.84"/><path class="cls-7" d="M26,423.94c-16.62,0-26.42,2.42-26,8.26,0,0,32.81,68.48,51.21,98.88h220.1v-1H253.15V530l-184.76-.89.08-28V427c-16.6-1.95-31.14-3.08-42.48-3.08"/><polyline class="cls-8" points="253.15 529.96 253.15 530.05 246.8 530.05 271.32 530.05 271.32 530.04 253.15 529.96"/><path class="cls-9" d="M68.47,427v74.07l-.08,28,184.76.89V460C194,447.45,120.89,433.17,68.47,427"/><path class="cls-8" d="M253.15,460v70l18.17.08V474.41h48c-17.55-4-40.55-9-66.18-14.45"/><path class="cls-10" d="M272.74,530.05h-1.42v1h46.33q.33-.36.69-.81l-45.6-.22"/><polyline class="cls-8" points="271.32 530.04 271.32 530.05 272.74 530.05 271.32 530.04"/><path class="cls-9" d="M318.52,530.05H272.74l45.6.22.18-.22"/><path class="cls-8" d="M319.33,474.41h-48V530h47.2c6.31-7.72,21.93-31.22,28.74-48.82l-2.4-1c-6-1.37-14.75-3.37-25.53-5.79"/><path class="cls-11" d="M487.52,531.08H359.65v.43H546.54v-.14l-59-.29m63.58-334.6L466.77,296.76l2.28,2.28-2.28,2.28-9.12-4.56-9.11,6.84L444,299l2.28-2.28-12.09-13,1.75,19.19,3.5,2.94V303.6l4.56,2.28-7.21,6.31,4.94,54.15h6.15L460,384.27h1.16v-8.68h28.92l8.67-26.6h11l13.75,43.71,11.17,11.75,2.26-8.62h1.74v-13.3h2.89v13.3h1.16L544,414.31,557.93,429l9.12-9.12,9.12-9.11L514.63,358.3V333.23l-43.3-27.35,2.28-2.28h2.27l95.73-88.89-9.12-9.11-11.39-9.12"/><path class="cls-12" d="M541.55,382.53h-2.89v13.3h-1.74l-2.26,8.62,9.37,9.86-1.32-18.48h-1.16v-13.3M509.74,349h-11l-8.67,26.6H461.16v8.68H460l-12.14-17.93h-6.15l5,54.39h16.7v40.56H475.3v13.12h60.84v56.67H487.52l59,.29v-91H523.75l-9.12-25.07V383.37l8.86,9.33L509.74,349"/><polyline class="cls-11" points="357.37 201.04 348.25 210.16 345.64 213.42 345.64 227.02 374.5 251.29 377.25 222.44 357.37 201.04"/><polyline class="cls-13" points="345.64 213.42 339.14 221.55 345.64 227.02 345.64 213.42"/><polyline class="cls-12" points="360.45 399.12 351.99 407.27 351.99 420.73 358.4 420.73 360.45 399.12"/><polyline class="cls-13" points="351.99 407.27 343.69 415.28 349.15 420.73 351.99 420.73 351.99 407.27"/><path class="cls-14" d="M359.65,530.47v.61H487.52l-127.87-.61m77.12-218.28-29.26,25.6v15.95L381.8,378.53l1.86,5.74H403l4.55-5.46v5.46h17.22l12.14-17.93h4.84l-4.94-54.15m-59.52-89.75-2.75,28.85,61.42,51.65-1.75-19.19-56.92-61.31"/><path class="cls-12" d="M381.8,378.53l-21.35,20.59-2.05,21.61H352v2.84l.82.82,9.12,9.12,41-49.24h-19.3l-1.86-5.74m59.91-12.19h-4.84l-12.14,17.93H407.51v26.45l-43.3,29.63h-4.56v90.12l127.87.61h48.62V474.41H475.3V461.29H463.37V420.73h-16.7l-5-54.39"/><polyline class="cls-13" points="351.99 420.73 349.15 420.73 351.99 423.57 351.99 420.73"/></svg>