<?xml version="1.0" encoding="utf-8"?>
<!-- Generator: Adobe Illustrator 26.0.2, SVG Export Plug-In . SVG Version: 6.00 Build 0)  -->
<svg version="1.1" id="Layer_1" xmlns="http://www.w3.org/2000/svg" xmlns:xlink="http://www.w3.org/1999/xlink" x="0px" y="0px"
     viewBox="0 0 801.69 450" style="enable-background:new 0 0 801.69 450;" xml:space="preserve">
<style type="text/css">
	.st0{fill:none;}
	.st1{fill:#02BC67;}
	.st2{fill:#80EA6E;}
	.st3{fill:#3EA82C;}
	.st4{fill:#F9BC26;}
	.st5{fill:#F8BB25;}
	.st6{fill:#AA7A00;}
	.st7{fill:#FF877A;}
	.st8{fill:#FFA49A;}
	.st9{fill:#3F939B;}
	.st10{fill:#81D5DD;}
	.st11{fill:#FFA298;}
	.st12{fill:#97EBF3;}
	.st13{fill:#6EC2CA;}
</style>
    <g>
	<path class="st0" d="M-0.1,448.21V-0.1h801.88v448.27h-7.32v-63.12h-7.27v-46.01h-10.65v-52.62h-10.02l0-6.81
		c0-5.46,0.01-10.78-0.01-16.11c-0.01-2.48,0-4.96,0.01-7.45c0.02-4.9,0.04-9.97-0.13-15.08h-9.84v-10.58h-9.84l-0.1-0.74
		c-0.05-0.39-0.09-0.69-0.13-0.99c-0.04-0.26-0.08-0.52-0.14-0.83l-0.1-0.59h-10.17v-5.87c-1.65-0.2-7.45-0.33-15.21-0.33
		c-3.31,0-6.77,0.03-9.97,0.07l-0.1,0v-23.48c-1.46-0.42-2.7-0.78-4.09-1.17l-0.07-0.02v-15.61c-1.11-1.04-1.73-2.19-1.77-3.28
		c-0.11-2.83-0.09-5.61-0.07-8.55c0.01-1.09,0.01-2.18,0.01-3.29l-8.82-5.89l-16.51-11.12c-3.3,2.23-17.02,11.54-17.02,11.54v-51.13
		c-1.52,0-2.99-0.01-4.43-0.02c-1.41-0.01-2.79-0.01-4.15-0.01c-2.03,0-3.87,0.02-5.62,0.07c-0.15,0.01-0.3,0.01-0.44,0.01
		c-2.6,0-4.92-0.64-7.29-2.01c-1.79-1.04-4.17-1.3-5.81-1.41c-1.28-0.08-2.64-0.12-4.26-0.12c-1.01,0-2.05,0.01-3.12,0.03
		c-1.14,0.02-2.33,0.03-3.57,0.03h-0.1l-0.02-73.11c0-0.34,0.01-0.69,0.01-1.03c0.02-0.91,0.04-1.86-0.08-2.76
		c-0.07-0.5-0.35-0.98-0.63-1.45c-0.11-0.19-0.22-0.38-0.32-0.57c-0.18,0.03-0.96,0.16-0.96,0.16v78.75h-0.1
		c-1.4,0-2.73,0.01-4.01,0.02c-1.2,0.01-2.35,0.01-3.48,0.01c-1.56,0-3.07-0.02-4.58-0.06c-0.23-0.01-0.46-0.01-0.69-0.01
		c-3.07,0-5.34,0.66-7.34,2.15c-2.08,1.55-4.46,2.27-7.47,2.27c-1.87,0-3.88-0.28-5.79-0.56l-0.08-0.01V96.96H571.3v37.29
		l-0.85-0.17l-3.33-7.61c-2.02-4.67-4.02-9.31-6-13.88l-0.96-0.22l-1.05-0.29c-1.89-4.06-1.95-8.22-2.01-12.23
		c-0.02-1.58-0.05-3.22-0.18-4.81l-0.81-0.56l-0.84-0.62c-1.9,1.23-1.9,1.25-1.97,3.06c-0.02,0.59-0.04,1.19-0.07,1.78
		c-0.06,1.57-0.13,3.19-0.1,4.78c0.04,3.11-0.85,5.98-1.82,8.62l-1.15,0.32l-1.03,0.24l-0.88,2.14c-2.8,6.49-5.58,12.93-8.3,19.22
		l-2,0.5l-0.95,0.22c-0.75,2.79-1.49,5.5-2.21,8.15l-0.02,0.07h-7.5v-13.05l-8.62-0.38v-18.02h-11.65V99.84l-8.98-0.4V80.72
		c-1.18-0.44-2.88-1.08-2.88-1.08l-0.03-0.28c-0.15-1.52-0.27-2.8-0.4-4.09c-2.12-0.14-3.96-0.26-6.11-0.38l-0.09-0.01v-0.09
		c0-0.72,0.01-1.4,0.02-2.06c0.02-1.4,0.04-2.72-0.05-4.01c-0.04-0.6,0.01-1.22,0.06-1.82c0.11-1.33,0.22-2.59-0.61-3.71l-0.36,0.06
		l-0.41,0.02v11.57l-5.06,0.57c-0.15,1.48-0.28,2.72-0.41,4.02l-0.01,0.06l-3.34,1.47v18.78h-8.87v11.94h-7.01l-0.01-0.08
		c-0.05-0.32-0.09-0.63-0.12-0.96c-0.12-1.17-0.1-2.38-0.07-3.55c0.01-0.5,0.02-1,0.03-1.51l-3.25-0.94l-1.58-6.8l-0.34-0.03
		c-0.36,1.38-1.83,7.16-1.83,7.16l-3.96-0.24v-12.3c-0.63-0.7-1.25-1.36-1.81-1.97c-1.06-1.15-1.97-2.13-2.64-3.25
		c-3.66-6.12-7.33-12.37-10.88-18.41c-3.28-5.58-6.56-11.16-9.88-16.72c-2.63-4.42-3.77-8.51-3.5-12.5
		c0.26-4.02-0.9-7.65-2.25-11.86c-0.15-0.46-0.3-0.93-0.45-1.41c-0.35,1.17-0.74,2.27-1.11,3.33c-1.01,2.89-1.89,5.38-1.75,8.26
		c0.25,5.16-0.66,9.45-2.79,13.1c-4.58,7.85-9.2,15.68-13.81,23.51c-2.42,4.1-4.83,8.2-7.25,12.3l-0.22,0.38
		c-1.08,1.84-2.19,3.75-4.88,4.21v13.59l-0.11-0.01c-1.41-0.1-2.44-0.17-3.5-0.24l-0.07,0c0,0-1.16-4.63-1.87-7.49l-1.99,7.47
		l-1.37,0.46l-1.63,0.49c0.13,3.41-0.29,6.8-0.7,10.08c-0.47,3.74-0.95,7.61-0.59,11.47c0.17,1.78,0.12,3.62,0.07,5.39
		c-0.02,0.66-0.04,1.32-0.05,1.97c0,0.13,0,0.28,0,0.43c0.01,0.75,0.02,1.53-0.34,1.75c-1.82,1.1-1.7,2.72-1.57,4.29
		c0.03,0.4,0.06,0.8,0.06,1.18c-0.01,8.34-0.01,16.67-0.01,25l-9.3,18.76l-9.63,19.42c-10.36,20.87-20.73,41.76-31.1,62.63
		l-0.16,0.33l-0.35-4.96c-3.17-0.79-3.25-0.88-3.98-4.03c-0.31-1.35-0.59-2.71-0.86-4.07c-0.58-2.87-1.17-5.84-2.17-8.61
		c-0.94-2.63-0.83-5.21-0.72-7.72c0.03-0.74,0.07-1.48,0.07-2.23c0-0.43,0.62-0.8,1.12-1.1c0.13-0.08,0.25-0.15,0.33-0.21
		l-2.53-4.85l-1.79,4.6c0.11,0.2,0.24,0.46,0.38,0.73c0.29,0.59,0.6,1.2,0.65,1.83c0.49,6.2-1.13,12.14-2.7,17.88
		c-0.5,1.84-1.02,3.74-1.46,5.62c-0.14,0.59-0.89,1.02-1.83,1.55c-0.5,0.28-1.06,0.6-1.61,0.99c0.04,0.2,0.09,0.57,0.15,1
		c0.15,1.16,0.35,2.75-0.24,3.94c-1.39,2.77-1.36,5.65-1.34,8.43c0.01,1.05,0.02,2.13-0.05,3.19c-0.01,0.17-0.02,0.35-0.02,0.54
		c-0.04,1.04-0.08,2.22-0.62,2.53c-1.7,0.95-1.63,2.3-1.56,3.74c0.02,0.35,0.03,0.7,0.02,1.04c-0.06,2.12-0.04,4.24-0.03,6.29
		c0.01,0.87,0.01,1.72,0.01,2.56v0.08l-0.07,0.02c-1.07,0.31-2.08,0.46-3.07,0.46c-1.8,0-3.49-0.52-5.47-1.68
		c-6.11-3.6-12.38-7.2-18.44-10.67c-2.48-1.42-4.96-2.85-7.44-4.28c-0.35,0.24-0.79,0.46-1.22,0.69c-0.82,0.42-1.61,0.83-2.38,1.27
		c-2.29,1.32-4.58,2.65-6.88,3.98c-5.04,2.92-10.25,5.94-15.4,8.87c-1.09,0.62-2.26,1.06-3.62,1.57c-0.67,0.25-1.38,0.52-2.14,0.83
		l-0.14,0.06v-13.33c-1.21-1.17-2.38-2.53-2.54-3.99c-0.47-4.37-0.77-8.65-1.1-13.19c-0.12-1.62-0.23-3.24-0.35-4.88
		c-0.41,0.11-0.79,0.16-1.13,0.16c-1.68,0-2.24-1.34-2.56-2.65c-0.29-1.19-0.61-2.38-0.93-3.57c-0.61-2.27-1.24-4.62-1.64-6.97
		c-0.57-3.35-0.96-7.08-1.22-11.72c-0.04-0.76,0.39-1.53,0.77-2.21c0.15-0.26,0.29-0.51,0.38-0.73l-0.93-2.01l-1.26-2.84l-2.13,5.26
		c1.32,1.66,1.32,1.66,1.33,4.58c0.02,6.13-3.38,19.83-5.68,22.89l-0.04,0.05l-0.06-0.02c-0.37-0.09-0.74-0.18-1.16-0.28l-0.76-0.18
		c0.01,0.72,0.07,1.44,0.14,2.13c0.14,1.53,0.28,2.98-0.29,4.06c-1.42,2.67-1.38,5.45-1.35,8.14c0.01,1.14,0.03,2.31-0.07,3.47
		c-0.02,0.22-0.03,0.46-0.04,0.71c-0.05,1.01-0.1,2.06-0.61,2.35c-1.61,0.92-1.56,2.2-1.52,3.56c0.01,0.27,0.02,0.53,0.02,0.8
		c-0.05,4.29-0.09,8.57-0.13,12.86c-0.06,7.54-0.13,15.33-0.29,22.98c-0.03,1.29-0.09,2.62-0.2,4.05l-0.02,0.32l-0.16-0.27
		c-2.68-4.52-6.54-7.68-11.78-9.67l-0.06-0.02v-5.96c-0.87-0.31-2.93-1.04-2.93-1.04l0.01-0.08c0.26-1.81,0.18-3.67,0.1-5.47
		c-0.13-3.12-0.26-6.35,1.3-9.52c-0.19-0.23-0.38-0.46-0.57-0.69c-0.47-0.59-0.96-1.19-1.52-1.71c-2.91-2.67-3.28-5.28-1.12-7.98
		c-1.03-2.43-1.24-4.24-0.72-6.25c0.59-2.34-0.06-4.4-1.95-6.13c-0.16,0.42-0.33,0.8-0.49,1.16c-0.33,0.76-0.61,1.41-0.73,2.08
		c-0.21,1.21-0.11,2.48-0.01,3.7c0.15,1.84,0.31,3.74-0.57,5.57c-0.1,0.21,0.18,0.69,0.4,1.08c0.07,0.12,0.14,0.23,0.19,0.34
		c1.03,1.93,0.73,3.6-0.94,5.26c-0.87,0.86-1.65,1.81-2.33,2.65c-0.27,0.33-0.53,0.64-0.77,0.92c1.64,3.58,1.49,6.97,1.34,10.26
		c-0.07,1.63-0.14,3.18,0,4.73l0.01,0.08l-3.08,1.19v5.41c-0.94,0.66-1.82,1.18-2.65,1.67c-1.64,0.97-3.19,1.88-4.5,3.04
		c-5.46,4.82-8.31,11.18-8.24,18.38c0.03,3.85-1.21,7.17-3.88,10.44c-1.59,1.95-1.86,4.37-0.77,6.81c0.66,1.45,0.96,2.82,0.97,4.45
		c0.03,4.54,0.02,9.01,0,12.79c-0.01,0.95-0.11,1.89-0.21,2.68c-0.18,1.49-0.41,3.01-0.63,4.47c-0.46,3.05-0.94,6.2-0.98,9.31
		c-0.14,13.71-0.12,27.66-0.1,41.15c0.01,5.03,0.02,10.05,0.02,15.08v0.25H-0.1z"/>
        <path class="st0" d="M0,0v448.11h164.03c0-0.05,0-0.1,0-0.15c0-18.74-0.11-37.49,0.08-56.23c0.05-4.6,1.06-9.19,1.61-13.79
		c0.11-0.89,0.2-1.78,0.21-2.67c0.02-4.27,0.03-8.53,0-12.79c-0.01-1.52-0.27-2.89-0.96-4.41c-0.95-2.11-1.07-4.64,0.78-6.91
		c2.42-2.96,3.89-6.23,3.86-10.38c-0.07-7.26,2.77-13.6,8.27-18.46c1.97-1.74,4.43-2.9,7.12-4.63c0-1.34,0-3.34,0-5.48
		c1.04-0.4,1.92-0.75,3.07-1.19c-0.43-4.77,1.1-9.7-1.36-15.02c0.86-1,1.92-2.4,3.15-3.63c1.56-1.55,1.96-3.18,0.92-5.14
		c-0.26-0.49-0.76-1.18-0.6-1.51c1.46-3.03,0.04-6.2,0.57-9.24c0.18-1.04,0.74-2.01,1.27-3.4c2.23,1.98,2.62,4.24,2.09,6.33
		c-0.58,2.25-0.15,4.16,0.74,6.24c-2.42,2.99-1.5,5.54,1.07,7.89c0.81,0.74,1.45,1.65,2.14,2.46c-2.49,5.01-0.72,10.06-1.42,15.02
		c1.12,0.4,1.93,0.69,2.92,1.04c0,2,0,4,0,5.96c5.48,2.08,9.28,5.42,11.83,9.71c0.1-1.35,0.17-2.69,0.2-4.04
		c0.26-11.94,0.27-23.89,0.42-35.84c0.02-1.6-0.44-3.31,1.55-4.44c0.58-0.33,0.51-1.94,0.6-2.98c0.32-3.89-0.6-7.82,1.43-11.65
		c0.82-1.55,0.14-3.9,0.14-6.27c0.83,0.2,1.44,0.34,2.04,0.49c2.3-3.06,5.68-16.72,5.66-22.83c-0.01-2.89-0.01-2.89-1.32-4.62
		c0.71-1.75,1.36-3.36,2.22-5.48c0.84,1.9,1.54,3.47,2.28,5.14c-0.33,0.77-1.21,1.86-1.15,2.89c0.22,3.91,0.56,7.84,1.22,11.71
		c0.61,3.56,1.72,7.03,2.57,10.54c0.36,1.47,0.94,2.57,2.46,2.57c0.35,0,0.76-0.06,1.22-0.19c0.47,6.17,0.82,12.19,1.46,18.18
		c0.15,1.42,1.28,2.74,2.54,4c0,4.1,0,8.21,0,13.18c2.29-0.94,4.13-1.48,5.75-2.4c7.46-4.23,14.85-8.56,22.28-12.85
		c1.18-0.68,2.42-1.28,3.7-1.96c8.66,4.99,17.31,9.9,25.88,14.95c1.72,1.01,3.41,1.67,5.42,1.67c0.94,0,1.94-0.14,3.04-0.46
		c0-2.83-0.06-5.84,0.02-8.85c0.05-1.72-0.59-3.64,1.59-4.86c0.58-0.33,0.53-1.95,0.59-2.99c0.24-3.9-0.52-7.83,1.4-11.66
		c0.8-1.59,0.13-3.91,0.13-4.97c1.58-1.11,3.21-1.63,3.41-2.48c1.82-7.75,4.81-15.31,4.16-23.48c-0.07-0.9-0.67-1.75-1.02-2.61
		c0.56-1.43,1.17-3.01,1.87-4.81c0.96,1.84,1.78,3.42,2.67,5.12c-0.31,0.26-1.48,0.76-1.48,1.28c-0.03,3.3-0.57,6.54,0.64,9.91
		c1.46,4.07,2.04,8.45,3.03,12.69c0.73,3.15,0.79,3.18,3.98,3.97c0.11,1.55,0.22,3.11,0.33,4.67c10.37-20.87,20.74-41.76,31.1-62.63
		c6.31-12.71,12.61-25.42,18.92-38.13c0-8.33,0-16.66,0.01-25c0-1.93-0.78-4.15,1.56-5.56c0.38-0.23,0.28-1.37,0.29-2.1
		c0.03-2.45,0.21-4.92-0.02-7.35c-0.68-7.26,1.58-14.28,1.28-21.63c1.08-0.32,1.96-0.59,3-0.9c0.6-2.26,1.23-4.6,2.09-7.84
		c0.76,3.05,1.32,5.29,1.95,7.8c1.06,0.07,2.09,0.14,3.5,0.24c0-4.65,0-9.02,0-13.57c2.89-0.45,3.94-2.55,5.12-4.55
		c7.02-11.94,14.08-23.85,21.06-35.81c2.34-4.01,3-8.49,2.78-13.04c-0.2-4.08,1.66-7.49,2.95-11.94c1.57,5,3.1,9.04,2.8,13.62
		c-0.3,4.45,1.19,8.57,3.49,12.44c6.96,11.68,13.78,23.45,20.76,35.13c1.01,1.68,2.55,3.04,4.46,5.27c0,3.27,0,7.54,0,12.21
		c1.35,0.08,2.48,0.15,3.78,0.23c0.66-2.58,1.24-4.87,1.83-7.16c0.17,0.02,0.34,0.03,0.5,0.05c0.51,2.2,1.02,4.41,1.58,6.81
		c1,0.29,1.99,0.57,3.27,0.94c0,1.74-0.14,3.45,0.04,5.13c0.03,0.32,0.07,0.63,0.12,0.95c2.21,0,4.41,0,6.82,0
		c0-4.04,0-7.79,0-11.94c3.2,0,5.84,0,8.87,0c0-6.5,0-12.6,0-18.75c1.32-0.58,2.31-1.01,3.35-1.47c0.14-1.32,0.27-2.58,0.42-4.1
		c1.5-0.17,2.99-0.34,5.05-0.57c0-3.84,0-7.71,0-11.58c0.32-0.01,0.64-0.03,0.95-0.04c1.25,1.68,0.43,3.72,0.57,5.58
		c0.14,1.9,0.03,3.82,0.03,6.08c2.17,0.13,4.04,0.25,6.19,0.39c0.14,1.38,0.27,2.74,0.43,4.39c0.77,0.29,1.68,0.63,2.89,1.08
		c0,6.07,0,12.2,0,18.69c3.07,0.14,5.84,0.26,8.98,0.4c0,3.85,0,7.52,0,11.68c4.02,0,7.66,0,11.65,0c0,6.22,0,11.95,0,18.02
		c2.97,0.13,5.6,0.25,8.62,0.38c0,4.36,0,8.54,0,13.05c2.56,0,4.85,0,7.32,0c0.73-2.67,1.47-5.4,2.23-8.21
		c0.91-0.21,1.77-0.41,2.94-0.68c3.03-7,6.13-14.19,9.25-21.42c0.71-0.17,1.4-0.33,2.11-0.5c1.04-2.83,1.85-5.6,1.81-8.58
		c-0.03-2.19,0.1-4.38,0.17-6.57c0.07-1.89,0.08-1.89,2.07-3.18c0.55,0.41,1.13,0.83,1.75,1.29c0.47,5.62-0.42,11.39,2.12,16.96
		c0.5,0.14,1.17,0.32,2.08,0.57c3.04,7.02,6.14,14.21,9.26,21.43c0.25,0.05,0.49,0.1,0.73,0.15c0-12.34,0-24.71,0-37.27
		c5.83,0,11.16,0,17.02,0c0,4.22,0,8.28,0,12.54c2.01,0.3,3.94,0.56,5.77,0.56c2.64,0,5.11-0.54,7.41-2.25
		c2.25-1.67,4.72-2.17,7.4-2.17c0.23,0,0.46,0,0.69,0.01c1.51,0.04,3.02,0.06,4.58,0.06c2.34,0,4.79-0.03,7.49-0.03
		c0-26.53,0-52.63,0-78.73c0.37-0.06,0.74-0.13,1.12-0.19c0.35,0.7,0.89,1.37,0.99,2.11c0.17,1.25,0.07,2.54,0.07,3.81
		c0.01,22.43,0.01,44.87,0.02,67.3c0,1.7,0,3.4,0,5.71c2.4,0,4.59-0.06,6.69-0.06c1.45,0,2.86,0.03,4.27,0.12
		c1.99,0.13,4.18,0.45,5.85,1.42c2.33,1.35,4.62,2,7.24,2c0.14,0,0.29,0,0.44-0.01c1.86-0.05,3.72-0.07,5.62-0.07
		c2.78,0,5.64,0.03,8.68,0.03c0,17.02,0,34.04,0,51.04c5.52-3.74,11.13-7.55,16.92-11.47c8.4,5.66,16.82,11.33,25.43,17.13
		c0,4.02-0.09,7.93,0.06,11.83c0.04,1.16,0.75,2.29,1.77,3.28c0,5.14,0,10.28,0,15.53c1.41,0.4,2.67,0.76,4.16,1.19
		c0,7.79,0,15.58,0,23.45c3.2-0.04,6.66-0.07,9.97-0.07c7.16,0,13.63,0.11,15.31,0.34c0,1.83,0,3.71,0,5.86c3.52,0,6.78,0,10.16,0
		c0.11,0.67,0.19,1.09,0.25,1.51c0.07,0.44,0.12,0.89,0.22,1.65c3.2,0,6.36,0,9.85,0c0,3.65,0,6.99,0,10.58c3.39,0,6.46,0,9.84,0
		c0.26,7.71,0.08,15.18,0.12,22.63c0.03,7.49,0.01,14.97,0.01,22.82c3.4,0,6.55,0,10.02,0c0,17.68,0,35.01,0,52.62
		c3.67,0,7.01,0,10.65,0c0,15.43,0,30.57,0,46.01c2.54,0,4.78,0,7.27,0c0,21.17,0,42.06,0,63.12h7.12V0H0z"/>
        <path class="st1" d="M380.94,448.24l0-8.09c0-5.26,0-10.48,0-15.69l0.05-53.93c0-8.62,0.01-17.23,0.02-25.85l0.09-83.26
		c0.02-8.64,0.04-17.28,0.05-25.92c0.01-4.45,0.02-8.91,0.02-13.36c0-4.46,0.01-8.93,0.02-13.39c0.01-2.66,0.02-5.33,0.03-7.99
		c0.02-6.29,0.05-12.79,0.01-19.19c-0.01-2.2,0-4.39,0.01-6.59c0.03-6.35,0.07-12.91-0.51-19.38c-1,1.16-1.63,2.37-2.2,3.5
		c0,0-3.16,6.37-4.06,8.18l-0.19-0.04c0.01-8.34,0.01-16.67,0.01-25c0-0.38-0.03-0.78-0.06-1.17c-0.13-1.63-0.26-3.31,1.67-4.47
		c0.26-0.16,0.25-0.98,0.24-1.58c0-0.15,0-0.3,0-0.43c0.01-0.66,0.03-1.32,0.05-1.98c0.05-1.77,0.1-3.59-0.07-5.36
		c-0.36-3.88,0.12-7.76,0.59-11.52c0.41-3.29,0.83-6.7,0.69-10.12l0-0.08l3.07-0.92l0.77-3.06l1.26-4.71l0.19,0
		c0.75,3.02,1.31,5.25,1.93,7.73c0,0,2.54,0.18,3.32,0.23V91.23l0.08-0.01c2.66-0.4,3.71-2.21,4.82-4.11l0.23-0.39
		c2.41-4.11,4.83-8.21,7.25-12.31c4.61-7.83,9.23-15.65,13.81-23.5c2.11-3.61,3.01-7.86,2.77-12.98c-0.14-2.91,0.78-5.55,1.76-8.33
		c0.41-1.16,0.82-2.35,1.2-3.64l0.09-0.32c0,0,0.48,1.51,0.66,2.09c1.35,4.21,2.51,7.84,2.24,11.88c-0.27,3.97,0.87,8.02,3.48,12.38
		c3.3,5.54,6.57,11.11,9.85,16.67c3.56,6.06,7.25,12.32,10.91,18.46c0.66,1.11,1.58,2.1,2.64,3.25c0.56,0.6,1.16,1.25,1.81,2
		l0.02,12.18l3.6,0.22l1.83-7.17l0.66,0.07c0,0,1.28,5.5,1.58,6.82c0.74,0.21,1.48,0.42,2.34,0.67l0.95,0.27v0.08
		c0,0.53-0.01,1.06-0.03,1.58c-0.03,1.17-0.06,2.38,0.07,3.54c0.03,0.32,0.07,0.63,0.12,0.95l0.02,0.12h-4.43v18.04h-8.97v13.51
		h-8.9c-0.08,0.2-0.14,0.34-0.19,0.44c-0.06,0.13-0.09,0.19-0.09,0.24l-0.03,95.8l-1.26,0.03c-1.35,0.04-2.71,0.08-4.08,0.08
		c-3.35,0-5.95-0.26-8.41-0.83c0.51,3.4-1.27,5.94-3,8.39l-0.48,0.69c-0.67,0.97-1.31,1.97-1.95,2.97c-0.5,0.79-1.01,1.57-1.53,2.35
		c-1.32,1.98-2.66,3.96-4,5.95l-1.66,2.46c0,0-1.52-1.21-2.15-1.73c-0.37,1.09-1.88,5.61-1.88,5.61c-0.55,0.32-1.02,0.45-1.45,0.45
		c-1.18,0-1.88-0.96-2.69-2.08c-0.28-0.39-0.58-0.79-0.91-1.18c-1.5,4.56-1.36,9.09-1.22,13.48c0.1,3.08,0.19,5.98-0.24,8.92
		c-2.37,1.2-4.68,2.32-7.37,3.65v159.3H380.94z"/>
        <path class="st1" d="M403.07,285.28c1.06-7.28-1.09-14.83,1.52-22.58c1.34,1.5,2.06,3.36,3.64,3.36c0.39,0,0.84-0.11,1.36-0.38
		c0.61-1.81,1.22-3.65,1.93-5.75c0.84,0.68,1.38,1.11,2.18,1.75c1.88-2.79,3.75-5.55,5.6-8.32c1.18-1.76,2.28-3.58,3.48-5.32
		c1.91-2.76,4.07-5.41,3.44-9.16c2.89,0.69,5.73,0.86,8.53,0.86c1.37,0,2.73-0.04,4.08-0.08c0.39-0.01,0.77-0.02,1.16-0.03
		c0.01-31.9,0.02-63.81,0.03-95.7c0-0.12,0.09-0.23,0.31-0.78c2.68,0,5.56,0,8.87,0c0-4.59,0-8.77,0-13.51c3.14,0,5.87,0,8.97,0
		c0-6.29,0-12.01,0-18.04c1.51,0,2.96,0,4.41,0c-0.05-0.32-0.09-0.63-0.12-0.95c-0.18-1.68-0.04-3.4-0.04-5.13
		c-1.28-0.37-2.27-0.66-3.27-0.94c-0.55-2.4-1.07-4.6-1.58-6.81c-0.17-0.02-0.34-0.03-0.5-0.05c-0.59,2.29-1.17,4.58-1.83,7.16
		c-1.31-0.08-2.43-0.15-3.78-0.23c0-4.66,0-8.93,0-12.21c-1.91-2.22-3.46-3.58-4.46-5.27c-6.98-11.68-13.8-23.45-20.76-35.13
		c-2.31-3.87-3.79-7.98-3.49-12.44c0.31-4.58-1.23-8.62-2.8-13.62c-1.29,4.45-3.15,7.87-2.95,11.94c0.22,4.56-0.44,9.03-2.78,13.04
		c-6.98,11.96-14.04,23.87-21.06,35.81c-1.18,2-2.23,4.11-5.12,4.55c0,4.55,0,8.92,0,13.57c-1.41-0.09-2.44-0.17-3.5-0.24
		c-0.63-2.51-1.19-4.75-1.95-7.8c-0.86,3.24-1.49,5.58-2.09,7.84c-1.04,0.31-1.93,0.58-3,0.9c0.3,7.35-1.96,14.37-1.28,21.63
		c0.23,2.43,0.05,4.9,0.02,7.35c-0.01,0.72,0.09,1.87-0.29,2.1c-2.35,1.41-1.56,3.63-1.56,5.56c0,8.33,0,16.66-0.01,25
		c1.35-2.73,2.71-5.46,4.06-8.18c0.63-1.26,1.3-2.5,2.37-3.7c0.8,8.75,0.47,17.49,0.52,26.21c0.05,9.06-0.02,18.12-0.04,27.18
		c-0.02,8.92-0.02,17.83-0.04,26.75c-0.01,9.06-0.03,18.12-0.05,27.18c-0.01,8.91-0.02,17.83-0.03,26.75
		c-0.01,9.06-0.02,18.12-0.03,27.18c-0.01,8.92-0.02,17.83-0.03,26.75c-0.01,9.06-0.02,18.12-0.02,27.18
		c-0.01,8.92-0.01,17.83-0.02,26.75c-0.01,9.06-0.02,18.12-0.03,27.18c-0.01,7.83,0,15.68,0,23.68h14.66c0-53.33,0-106.42,0-159.26
		C398.41,287.54,400.74,286.41,403.07,285.28z"/>
        <path class="st1" d="M662.45,448.2V160.09c5.56-3.82,11.18-7.63,16.96-11.55l0.06-0.04l25.49,17.17c0.04,1.19,0.04,2.29,0.03,3.38
		c-0.02,2.93-0.04,5.71,0.07,8.53c0.04,1.04,0.65,2.15,1.74,3.21l0.03,15.53l4.16,1.19v23.62l-0.1,0
		c-7.26,0.1-11.91,0.28-12.85,0.51v193.84l0.01,5.21c0.01,4.11,0.01,8.23-0.02,12.35c-0.01,1.66,0,3.33,0.01,4.99
		c0.02,3.3,0.04,6.71-0.1,10.07l0,0.1H662.45z"/>
        <path class="st1" d="M697.93,433.04c0.04-5.86,0.01-11.71,0.01-17.56c0-5.95,0-11.89,0-17.84c0-5.86,0-11.71,0-17.57
		c0-5.85,0-11.71,0-17.56c0-5.86,0-11.71,0-17.57c0-5.95,0-11.89,0-17.84c0-5.86,0-11.71,0-17.57c0-5.86,0-11.71,0-17.56
		c0-5.86,0-11.71,0-17.57c0-5.95,0-11.89,0-17.84c0-5.86,0-11.71,0-17.57c0-5.84,0-11.68,0-17.43c0.84-0.26,6.35-0.44,12.95-0.53
		c0-7.87,0-15.66,0-23.45c-1.49-0.42-2.75-0.79-4.16-1.19c0-5.25,0-10.39,0-15.53c-1.02-0.99-1.72-2.12-1.77-3.28
		c-0.15-3.9-0.06-7.81-0.06-11.83c-8.61-5.8-17.03-11.47-25.43-17.13c-5.78,3.92-11.4,7.73-16.92,11.47c0,96.14,0,192.02,0,288.01
		h35.29C698.04,443.07,697.9,438.05,697.93,433.04z"/>
        <path class="st2" d="M344.54,448.22l0-12.7c0-7.25,0.01-14.51,0-21.76c0-0.52,0.01-1.04,0.03-1.55c0.08-2.75,0.16-5.6-2.39-7.72
		c-0.33-0.28-0.42-0.9-0.47-1.35c-0.11-1.1-0.22-2.2-0.34-3.3c-0.35-3.36-0.71-6.84-0.91-10.27c-0.1-1.72-0.08-3.46-0.05-5.15
		c0.03-1.78,0.05-3.62-0.07-5.42c-0.14-1.98-0.73-3.79-1.61-4.98c-1.53-2.05-2.19-4.32-2.16-7.35c0.08-7,0.08-14.27,0.01-21.6
		c-0.01-1.3-0.2-2.61-0.38-3.88c-0.08-0.57-0.16-1.14-0.23-1.71c-1.87-0.21-3.44-0.39-5.05-0.56l-1.53-0.17l-0.01-0.08
		c-1.68-14.04-1.68-28.03-1.68-41.57c0-3.92,0-7.81-0.04-11.67c-0.32-0.51-0.68-1-1.02-1.47c-0.67-0.92-1.24-1.72-1.33-2.57
		c-0.45-4.36-0.75-8.65-1.07-13.39c6.19-12.48,12.36-24.92,18.53-37.35l31.5-63.46l0.19,0.04c-0.02,93.57-0.02,187.15-0.01,280.73
		v0.25H344.54z"/>
        <path class="st2" d="M374.36,167.24c-6.31,12.71-12.61,25.42-18.92,38.13c-10.37,20.88-20.73,41.76-31.1,62.63
		c0.3,4.46,0.61,8.93,1.07,13.39c0.13,1.25,1.35,2.39,2.35,4.05c0.18,17.28-0.44,35.16,1.72,53.23c2.18,0.24,4.12,0.45,6.58,0.73
		c0.21,1.86,0.6,3.76,0.62,5.68c0.07,7.2,0.07,14.4-0.01,21.6c-0.03,2.69,0.46,5.03,2.14,7.29c1.01,1.35,1.51,3.31,1.63,5.03
		c0.24,3.51-0.09,7.05,0.12,10.57c0.26,4.53,0.8,9.04,1.25,13.56c0.04,0.44,0.13,1.03,0.43,1.28c3.07,2.55,2.39,6.04,2.4,9.35
		c0.02,10.88,0,21.76,0,32.63c0,0.57,0,1.15,0,1.73h29.71c0-0.05,0-0.1,0-0.15C374.34,354.39,374.34,260.81,374.36,167.24z"/>
        <path class="st3" d="M374.25,448.18v-0.25c0-93.57,0-187.15,0.02-280.72l1.33-2.7c0.91-1.84,1.83-3.68,2.74-5.52
		c0.59-1.2,1.29-2.48,2.38-3.72l0.15-0.17l0.02,0.23c0.6,6.55,0.56,13.21,0.53,19.64c-0.01,2.19-0.02,4.39-0.01,6.58
		c0.04,6.4,0.01,12.9-0.01,19.19c-0.01,2.67-0.02,5.33-0.03,8c-0.01,4.46-0.02,8.91-0.02,13.36c0,4.46-0.01,8.92-0.02,13.39
		c-0.02,9.06-0.04,18.12-0.05,27.18l-0.09,80.68l-0.04,53.93l-0.03,27.18c-0.01,7.82,0,15.67,0.01,23.64v0.1H374.25z"/>
        <path class="st3" d="M381.03,424.44c0.01-9.06,0.02-18.12,0.03-27.18c0.01-8.92,0.01-17.83,0.02-26.75
		c0.01-9.06,0.01-18.12,0.02-27.18c0.01-8.92,0.02-17.83,0.03-26.75c0.01-9.06,0.02-18.12,0.03-27.18
		c0.01-8.92,0.02-17.83,0.03-26.75c0.01-9.06,0.03-18.12,0.05-27.18c0.02-8.92,0.02-17.83,0.04-26.75
		c0.02-9.06,0.09-18.12,0.04-27.18c-0.05-8.72,0.28-17.46-0.52-26.21c-1.07,1.21-1.75,2.44-2.37,3.7c-1.35,2.73-2.71,5.46-4.06,8.18
		c-0.02,93.57-0.02,187.15-0.02,280.72c0,0.05,0,0.1,0,0.15h6.69C381.03,440.11,381.02,432.26,381.03,424.44z"/>
        <path class="st2" d="M492.28,448.22V288.57c-0.54-0.21-1.03-0.38-1.49-0.55c-0.98-0.36-1.82-0.67-2.62-1.04
		c-0.77-0.37-1.51-0.83-2.23-1.27c-0.35-0.21-0.69-0.43-1.05-0.63l-0.05-17.25c0-1.52,0-3.09-1.56-4.3l0,0.01
		c-0.88,1.32-1.8,2.69-3.14,2.69c-0.48,0-1.01-0.19-1.57-0.57l-0.92-2.98l-0.69-2.29l-2.41,1.33l-2.04-3.07
		c-2-3-3.89-5.84-5.75-8.75c-0.44-0.69-0.92-1.36-1.39-2.03l-0.02-0.03l-0.06-0.11V142.49c0-0.3,0.01-0.6,0.01-0.9
		c0.01-0.67,0.03-1.36-0.03-2.03c-0.06-0.67-0.15-1.69-0.52-1.9c-1.26-0.7-1.21-1.73-1.15-2.72c0.01-0.21,0.02-0.41,0.02-0.62
		c-0.03-3.07-0.02-6.14-0.02-9.21c0-1.84,0.01-3.67,0.01-5.51c0-1.03-0.07-2.01-0.21-2.89c-0.13-0.82-0.29-1.64-0.45-2.46
		c-0.17-0.88-0.34-1.75-0.47-2.63l-0.02-0.11h6.84V99.56h8.87V80.84l3.36-1.47c0.13-1.29,0.26-2.54,0.41-4.04l0.01-0.08
		c0,0,3.51-0.4,5.04-0.57V63.09l1.05-0.04c0.96,1.22,0.84,2.58,0.73,3.89c-0.05,0.59-0.1,1.21-0.06,1.79
		c0.1,1.3,0.07,2.63,0.05,4.04c-0.01,0.63-0.02,1.28-0.02,1.95c2.13,0.14,3.97,0.26,6.1,0.38l0.08,0l0.01,0.08
		c0.11,1.11,0.22,2.2,0.34,3.44l0.09,0.89l2.9,1.08v18.66c1.91,0.08,3.7,0.16,5.55,0.25l3.43,0.15v11.68h11.65v18.02l8.62,0.38
		v13.05h7.35L534,146c-1.05,0.39-1.81,0.64-2.51,0.88l-0.86,2.06l-1.79,4.1l-0.57,0.14c-0.86,0.14-1.61,0.26-2.53,0.41v5.57
		l-4.75,0.38v60.25l-0.07,0.02c-1.89,0.56-3.57,1.07-5.43,1.64v226.79H492.28z"/>
        <path class="st2" d="M520.88,219.7c0-20.06,0-40.04,0-60.27c1.62-0.13,3.03-0.24,4.75-0.38c0-1.84,0-3.62,0-5.56
		c1.14-0.18,2-0.32,3.11-0.5c0.85-1.94,1.75-4.01,2.71-6.21c0.71-0.24,1.47-0.49,2.45-0.81c0.28-1.02,0.56-2.04,0.84-3.08
		c-2.46,0-4.76,0-7.32,0c0-4.51,0-8.68,0-13.05c-3.03-0.13-5.66-0.25-8.62-0.38c0-6.07,0-11.8,0-18.02c-3.99,0-7.63,0-11.65,0
		c0-4.16,0-7.83,0-11.68c-3.15-0.14-5.91-0.27-8.98-0.4c0-6.49,0-12.62,0-18.69c-1.21-0.45-2.11-0.79-2.89-1.08
		c-0.16-1.65-0.29-3.01-0.43-4.39c-2.16-0.13-4.02-0.25-6.19-0.39c0-2.26,0.11-4.18-0.03-6.08c-0.14-1.86,0.68-3.9-0.57-5.58
		c-0.32,0.01-0.64,0.03-0.95,0.04c0,3.87,0,7.74,0,11.58c-2.07,0.23-3.55,0.4-5.05,0.57c-0.16,1.52-0.29,2.79-0.42,4.1
		c-1.04,0.46-2.03,0.89-3.35,1.47c0,6.15,0,12.25,0,18.75c-3.03,0-5.67,0-8.87,0c0,4.15,0,7.9,0,11.94c-2.41,0-4.62,0-6.82,0
		c0.25,1.7,0.66,3.39,0.92,5.09c0.15,0.96,0.21,1.94,0.21,2.91c0.01,4.91-0.04,9.81,0.01,14.72c0.01,1.14-0.39,2.43,1.08,3.25
		c0.43,0.24,0.51,1.29,0.57,1.98c0.09,0.97,0.02,1.96,0.02,2.94c0,35.08,0,70.16,0,105.24c0.49,0.69,0.99,1.39,1.45,2.11
		c2.48,3.88,5.06,7.7,7.74,11.74c0.74-0.41,1.41-0.78,2.44-1.35c0.53,1.78,1.02,3.39,1.6,5.34c0.56,0.38,1.06,0.55,1.51,0.55
		c1.32,0,2.23-1.41,3.12-2.74c1.67,1.24,1.68,2.84,1.68,4.44c0,5.74,0,11.47,0,17.16c1.11,0.65,2.15,1.36,3.27,1.9
		c1.18,0.56,2.44,0.96,4.16,1.62c0,52.97,0,106.2,0,159.62h23c0-75.61,0-151.12,0-226.76C517.27,220.78,518.97,220.27,520.88,219.7z
		"/>
        <path class="st3" d="M465.31,247.79l0.08-0.06l-0.11,0.02c-1.85-2.6-3.6-5.05-3.41-8.17c-1.88,0.02-3.72,0.05-5.55,0.08
		c-2.65,0.04-5.26,0.08-7.86,0.08c-1.43,0-2.85-0.02-4.27-0.05c-0.43-0.01-0.87-0.01-1.3-0.01c-0.97,0-1.94,0.02-2.91,0.05l-0.1,0
		l0.03-95.8c0-0.09,0.03-0.16,0.11-0.33c0.05-0.11,0.12-0.26,0.21-0.49l0.03-0.06h8.84v-13.51h8.97c0-6.25,0-11.95,0.01-17.94v-0.1
		h4.6l0.01,0.09c0.13,0.91,0.31,1.81,0.49,2.71c0.15,0.79,0.31,1.58,0.43,2.37c0.14,0.89,0.21,1.88,0.21,2.93c0,1.88,0,3.76,0,5.65
		c-0.01,3.02-0.01,6.05,0.01,9.07c0,0.21-0.01,0.43-0.02,0.65c-0.05,0.97-0.09,1.88,1.05,2.52c0.46,0.26,0.55,1.26,0.62,2
		c0.07,0.74,0.05,1.44,0.04,2.11c-0.01,0.3-0.01,0.6-0.01,0.9v105.55L465.31,247.79z"/>
        <path class="st3" d="M458.16,129.64c-3.1,0-5.83,0-8.97,0c0,4.74,0,8.92,0,13.51c-3.31,0-6.19,0-8.87,0
		c-0.22,0.55-0.31,0.66-0.31,0.78c-0.01,31.9-0.02,63.81-0.03,95.7c0.97-0.03,1.94-0.05,2.91-0.05c0.43,0,0.87,0,1.3,0.01
		c1.42,0.03,2.84,0.05,4.27,0.05c4.42,0,8.88-0.12,13.52-0.16c-0.24,3.15,1.57,5.67,3.41,8.25c0-35.08,0-70.16,0-105.24
		c0-0.98,0.07-1.97-0.02-2.94c-0.06-0.69-0.14-1.74-0.57-1.98c-1.46-0.82-1.06-2.11-1.08-3.25c-0.04-4.91,0-9.81-0.01-14.72
		c0-0.97-0.06-1.95-0.21-2.91c-0.27-1.7-0.67-3.39-0.92-5.09c-1.45,0-2.9,0-4.41,0C458.16,117.62,458.16,123.35,458.16,129.64z"/>
        <path class="st4" d="M220.56,448.24v-0.35c-0.01-18.74-0.01-37.49-0.01-56.23c0-0.3,0.02-0.61,0.05-0.92
		c0.05-0.72,0.11-1.47-0.15-2.04c-1.17-2.57-1.22-5.31-1.27-7.96c-0.03-1.6-0.06-3.26-0.34-4.86c-0.61-3.51-0.44-7.2-0.28-10.77
		c0.06-1.24,0.11-2.47,0.14-3.7c0.03-1.01,0.5-2.06,1.01-3.04c0.93-1.81,0.62-5.32-0.61-6.84c-2.21-2.73-4.68-6.5-4.05-11.42
		c0.12-0.99-0.06-2.05-0.26-2.97c-0.74-3.57-1.91-6.7-3.48-9.33c0.09-1.46,0.16-2.81,0.19-4.09c0.18-7.96,0.25-16.05,0.31-23.88
		c0.03-3.99,0.06-7.97,0.11-11.96c0-0.26-0.01-0.53-0.02-0.79c-0.05-1.36-0.1-2.77,1.62-3.73c0.42-0.24,0.47-1.35,0.51-2.25
		c0.01-0.23,0.02-0.45,0.04-0.65c0.09-1.15,0.08-2.32,0.07-3.45c-0.03-2.72-0.07-5.52,1.38-8.24c0.55-1.02,0.41-2.44,0.27-3.94
		c-0.07-0.74-0.14-1.51-0.14-2.28v-0.13c0,0,1.75,0.42,2.1,0.5c2.29-3.17,5.62-16.67,5.6-22.72c-0.01-2.86-0.01-2.86-1.3-4.56
		l1.02-2.65l1.27-3.15l0.1,0.22c0.84,1.9,1.54,3.48,2.28,5.14c-0.1,0.31-0.24,0.56-0.39,0.83c-0.37,0.65-0.79,1.39-0.75,2.1
		c0.26,4.64,0.65,8.36,1.22,11.7c0.4,2.32,1.02,4.65,1.63,6.91c0.32,1.21,0.65,2.41,0.94,3.62c0.3,1.23,0.81,2.49,2.36,2.49
		c0.35,0,0.75-0.06,1.19-0.19l0.12-0.03l0.01,0.12c0.13,1.68,0.25,3.36,0.37,5.02c0.32,4.53,0.63,8.8,1.09,13.15
		c0.14,1.31,1.1,2.52,2.51,3.94l0.03,13.1c0.71-0.29,1.38-0.54,2.01-0.78c1.35-0.51,2.52-0.95,3.59-1.56
		c4.82-2.73,9.7-5.56,14.41-8.29c2.62-1.52,5.24-3.04,7.87-4.56c0.77-0.44,1.57-0.85,2.38-1.28c0.43-0.22,0.87-0.45,1.32-0.69
		c2.39,1.32,4.69,2.64,6.98,3.95c6.25,3.58,12.71,7.29,19,11c1.94,1.15,3.6,1.66,5.37,1.66c0.93,0,1.92-0.15,2.94-0.44
		c0-0.83-0.01-1.67-0.01-2.52c-0.01-2.04-0.03-4.15,0.03-6.26c0.01-0.33-0.01-0.68-0.02-1.02c-0.07-1.43-0.14-2.9,1.66-3.92
		c0.44-0.25,0.48-1.42,0.52-2.36c0.01-0.19,0.01-0.38,0.02-0.55c0.06-1.06,0.06-2.14,0.05-3.18c-0.02-2.81-0.05-5.71,1.36-8.52
		c0.56-1.13,0.37-2.68,0.22-3.81c-0.06-0.44-0.1-0.82-0.1-1.11c0.6-0.47,1.16-0.78,1.65-1.06c0.92-0.52,1.64-0.92,1.76-1.44
		c0.45-1.91,0.97-3.83,1.48-5.69c1.56-5.71,3.17-11.61,2.68-17.76c-0.05-0.6-0.35-1.19-0.63-1.76c-0.14-0.27-0.27-0.54-0.38-0.82
		c0.35-0.97,0.72-1.93,1.12-2.96l0.83-2.13l2.81,5.39l-0.06,0.05c-0.09,0.07-0.24,0.17-0.42,0.27c-0.41,0.24-1.02,0.61-1.02,0.93
		c0,0.77-0.04,1.53-0.07,2.29c-0.11,2.47-0.22,5.01,0.71,7.58c1,2.79,1.6,5.76,2.17,8.64c0.27,1.36,0.55,2.72,0.86,4.07
		c0.72,3.11,0.72,3.11,3.91,3.9l0.07,0.02l0.01,0.07c0.08,1.05,0.15,2.11,0.23,3.17l0.1,1.5l-8.74,17.61
		c-7.62,15.32-15.24,30.64-22.87,45.95c-1.29,2.61-1.89,5.21-1.89,8.21c0.01,35.5-0.05,71.61-0.11,106.53
		c0,0.65-0.03,1.26-0.06,1.86l0,0.09H220.56z"/>
        <path class="st4" d="M290.83,339.76c0-2.96,0.58-5.58,1.9-8.25c10.55-21.16,21.07-42.34,31.6-63.51c-0.11-1.56-0.21-3.12-0.33-4.67
		c-3.2-0.79-3.25-0.82-3.98-3.97c-0.99-4.24-1.57-8.62-3.03-12.69c-1.21-3.37-0.66-6.61-0.64-9.91c0-0.52,1.17-1.02,1.48-1.28
		c-0.89-1.7-1.71-3.28-2.67-5.12c-0.7,1.8-1.31,3.38-1.87,4.81c0.35,0.86,0.94,1.71,1.02,2.61c0.65,8.17-2.35,15.73-4.16,23.48
		c-0.2,0.86-1.83,1.38-3.41,2.48c0,1.07,0.66,3.39-0.13,4.97c-1.92,3.83-1.16,7.76-1.4,11.66c-0.06,1.04-0.01,2.66-0.59,2.99
		c-2.18,1.23-1.54,3.14-1.59,4.86c-0.09,3.01-0.02,6.02-0.02,8.85c-1.1,0.32-2.11,0.46-3.04,0.46c-2.01,0-3.71-0.66-5.42-1.67
		c-8.56-5.05-17.21-9.96-25.88-14.95c-1.28,0.68-2.52,1.28-3.7,1.96c-7.43,4.28-14.82,8.62-22.28,12.85
		c-1.62,0.92-3.46,1.46-5.75,2.4c0-4.97,0-9.08,0-13.18c-1.25-1.26-2.39-2.58-2.54-4c-0.64-5.99-0.99-12.01-1.46-18.18
		c-0.46,0.13-0.87,0.19-1.22,0.19c-1.52,0-2.11-1.11-2.46-2.57c-0.85-3.52-1.96-6.99-2.57-10.54c-0.66-3.86-1-7.79-1.22-11.71
		c-0.06-1.03,0.82-2.12,1.15-2.89c-0.74-1.66-1.44-3.24-2.28-5.14c-0.86,2.12-1.51,3.73-2.22,5.48c1.31,1.73,1.31,1.73,1.32,4.62
		c0.02,6.1-3.37,19.76-5.66,22.83c-0.6-0.15-1.21-0.29-2.04-0.49c0,2.37,0.69,4.72-0.14,6.27c-2.03,3.82-1.11,7.76-1.43,11.65
		c-0.08,1.04-0.02,2.65-0.6,2.98c-1.99,1.12-1.53,2.83-1.55,4.44c-0.14,11.95-0.15,23.89-0.42,35.84c-0.03,1.34-0.1,2.69-0.2,4.04
		c1.64,2.75,2.77,5.9,3.49,9.36c0.21,0.98,0.38,2.02,0.26,3c-0.57,4.48,1.35,8.03,4.03,11.34c1.3,1.61,1.54,5.16,0.62,6.95
		c-0.48,0.93-0.97,1.99-1,3c-0.1,4.82-0.68,9.76,0.14,14.45c0.74,4.25-0.26,8.7,1.6,12.8c0.38,0.84,0.11,1.99,0.11,3
		c0,18.74,0,37.49,0.01,56.23c0,0.08,0,0.17,0,0.25h70c0.03-0.6,0.06-1.2,0.06-1.8C290.78,410.8,290.84,375.28,290.83,339.76z"/>
        <path class="st5" d="M290.56,448.2l0-0.1c0.03-0.62,0.06-1.21,0.06-1.79c0.06-34.8,0.12-70.78,0.11-106.55
		c-0.01-3.03,0.6-5.67,1.91-8.29c10.55-21.16,21.08-42.33,31.6-63.51l0.16-0.33l0.03,0.48c0.29,4.35,0.6,8.85,1.06,13.27
		c0.08,0.8,0.64,1.58,1.29,2.47c0.35,0.48,0.7,0.97,1.04,1.54c0.05,3.91,0.06,7.81,0.06,11.72c0,13.5,0,27.47,1.67,41.47l6.58,0.73
		l0.01,0.08c0.07,0.59,0.15,1.19,0.24,1.79c0.18,1.28,0.37,2.59,0.38,3.9c0.07,6.9,0.06,13.97-0.01,21.6
		c-0.03,2.98,0.62,5.21,2.12,7.23c0.91,1.23,1.51,3.08,1.65,5.08c0.13,1.84,0.1,3.72,0.08,5.53c-0.03,1.65-0.05,3.37,0.04,5.04
		c0.2,3.42,0.56,6.88,0.91,10.24c0.12,1.11,0.23,2.21,0.34,3.32c0.02,0.24,0.09,0.96,0.39,1.21c2.64,2.18,2.55,5.07,2.47,7.87
		c-0.02,0.52-0.03,1.04-0.03,1.56c0.01,7.25,0.01,14.5,0,21.75l0,12.7H290.56z"/>
        <path class="st5" d="M344.63,413.75c-0.01-3.3,0.68-6.8-2.4-9.35c-0.3-0.25-0.39-0.84-0.43-1.28c-0.45-4.52-0.99-9.03-1.25-13.56
		c-0.2-3.51,0.13-7.06-0.12-10.57c-0.12-1.73-0.63-3.68-1.63-5.03c-1.68-2.26-2.17-4.6-2.14-7.29c0.07-7.2,0.08-14.4,0.01-21.6
		c-0.02-1.91-0.41-3.82-0.62-5.68c-2.47-0.27-4.4-0.49-6.58-0.73c-2.16-18.07-1.54-35.95-1.72-53.23c-1-1.66-2.22-2.8-2.35-4.05
		c-0.47-4.46-0.77-8.94-1.07-13.39c-10.52,21.18-21.05,42.35-31.6,63.51c-1.33,2.66-1.91,5.29-1.9,8.25
		c0.01,35.52-0.05,71.03-0.11,106.55c0,0.6-0.03,1.2-0.06,1.8h53.97c0-0.58,0-1.16,0-1.73C344.63,435.5,344.65,424.62,344.63,413.75
		z"/>
        <path class="st4" d="M717.67,448.22l0-19.53c0-21.96-0.01-43.92,0.03-65.88c0.01-3.22-0.42-5.63-1.38-7.81
		c-1.43-3.23-1.63-6.64-1.63-9.55c0.04-29.39,0.04-58.79,0.03-88.19l0-28.76c-0.97-0.2-1.8-0.37-2.67-0.55l-1.25-0.26v-6.75l0.1,0
		c2.98-0.05,6.33-0.07,9.97-0.07c8.22,0,13.81,0.12,15.32,0.34l0.08,0.01v5.85h10.15l0.13,0.76c0.05,0.32,0.1,0.58,0.14,0.84
		c0.06,0.42,0.12,0.86,0.21,1.56h9.86v10.58h9.84l0,0.1c0.18,5.26,0.16,10.47,0.13,15.51c-0.01,2.38-0.02,4.75-0.01,7.12
		c0.03,5.21,0.02,10.42,0.02,15.75l-0.01,6.97h10.02v52.62h10.65v46.01c2.5,0,4.71,0,7.17,0.01h0.1v63.32H717.67z"/>
        <path class="st4" d="M787.3,384.99c0-15.44,0-30.58,0-46.01c-3.64,0-6.98,0-10.65,0c0-17.61,0-34.94,0-52.62
		c-3.47,0-6.62,0-10.02,0c0-7.85,0.03-15.33-0.01-22.82c-0.03-7.46,0.15-14.92-0.12-22.63c-3.37,0-6.44,0-9.84,0
		c0-3.59,0-6.93,0-10.58c-3.49,0-6.65,0-9.85,0c-0.1-0.76-0.16-1.21-0.22-1.65c-0.06-0.42-0.14-0.84-0.25-1.51
		c-3.39,0-6.64,0-10.16,0c0-2.15,0-4.03,0-5.86c-1.68-0.24-8.15-0.34-15.31-0.34c-3.31,0-6.77,0.02-9.97,0.07c0,2.18,0,4.37,0,6.57
		c1.35,0.28,2.49,0.52,3.92,0.81c0,1.36,0,2.68,0,4.01c0,37.67,0.02,75.35-0.03,113.02c0,3.3,0.27,6.47,1.62,9.51
		c1.11,2.5,1.4,5.12,1.39,7.85c-0.05,28.14-0.03,56.29-0.03,84.43c0,0.29,0,0.58,0,0.88h76.8c0-21.06,0-41.95,0-63.12
		C792.08,384.99,789.84,384.99,787.3,384.99z"/>
        <path class="st6" d="M697.76,448.22l0-0.1c0.12-3.24,0.1-6.51,0.08-9.68c-0.01-1.8-0.02-3.6,0-5.39c0.03-4.09,0.02-8.18,0.01-12.27
		l0-5.28V221.49l0.07-0.02c1.09-0.34,9.44-0.49,12.98-0.53l0.1,0v6.59l3.92,0.81l0,28.95c0,29.39,0.01,58.77-0.03,88.17
		c0,2.89,0.19,6.27,1.61,9.47c0.97,2.17,1.4,4.6,1.4,7.89c-0.04,21.96-0.04,43.92-0.03,65.88l0,19.54H697.76z"/>
        <path class="st6" d="M717.8,362.8c0-2.74-0.28-5.36-1.39-7.85c-1.35-3.04-1.62-6.21-1.62-9.51c0.05-37.68,0.03-75.35,0.03-113.02
		c0-1.32,0-2.65,0-4.01c-1.43-0.3-2.58-0.53-3.92-0.81c0-2.2,0-4.39,0-6.57c-6.6,0.09-12.11,0.27-12.95,0.53c0,5.75,0,11.59,0,17.43
		c0,5.86,0,11.71,0,17.57c0,5.95,0,11.89,0,17.84c0,5.86,0,11.71,0,17.57c0,5.85,0,11.71,0,17.56c0,5.86,0,11.71,0,17.57
		c0,5.95,0,11.89,0,17.84c0,5.86,0,11.71,0,17.57c0,5.86,0,11.71,0,17.56c0,5.86,0,11.71,0,17.57c0,5.95,0,11.89,0,17.84
		c0,5.85,0.03,11.71-0.01,17.56c-0.04,5.01,0.11,10.03-0.08,15.08h19.91c0-0.29,0-0.59,0-0.88
		C717.77,419.09,717.75,390.95,717.8,362.8z"/>
        <path class="st7" d="M163.92,448.21v-0.25c0-5.03-0.01-10.06-0.02-15.08c-0.02-13.49-0.04-27.43,0.1-41.15
		c0.03-3.12,0.51-6.27,0.98-9.33c0.22-1.47,0.45-2.98,0.63-4.47c0.11-0.89,0.21-1.77,0.21-2.66c0.02-3.81,0.03-8.3,0-12.79
		c-0.01-1.6-0.3-2.94-0.95-4.37c-0.66-1.45-1.44-4.29,0.79-7.01c2.65-3.23,3.87-6.51,3.84-10.32c-0.07-7.26,2.8-13.67,8.3-18.54
		c1.34-1.19,2.93-2.13,4.62-3.12c0.81-0.47,1.65-0.97,2.51-1.52l-0.05-5.46l3.06-1.19c-0.13-1.55-0.07-3.08,0.01-4.69
		c0.14-3.28,0.29-6.66-1.35-10.22l-0.03-0.06l0.04-0.05c0.23-0.28,0.48-0.58,0.75-0.9c0.71-0.86,1.51-1.84,2.41-2.73
		c1.59-1.58,1.88-3.18,0.9-5.02c-0.06-0.1-0.12-0.22-0.19-0.33c-0.28-0.47-0.56-0.96-0.41-1.27c0.86-1.78,0.7-3.64,0.55-5.45
		c-0.1-1.24-0.21-2.52,0.01-3.77c0.13-0.7,0.41-1.36,0.74-2.13c0.17-0.39,0.35-0.82,0.53-1.29l0.05-0.13l0.11,0.09
		c2.02,1.77,2.75,4,2.12,6.43c-0.51,1.97-0.3,3.76,0.73,6.18l0.02,0.05l-0.04,0.05c-2.15,2.66-1.82,5.12,1.06,7.75
		c0.57,0.52,1.06,1.13,1.54,1.72c0.2,0.25,0.41,0.51,0.61,0.75l0.04,0.05l-0.03,0.06c-1.57,3.14-1.44,6.37-1.31,9.48
		c0.07,1.78,0.15,3.62-0.09,5.42l2.91,1.04v5.96c5.24,2.01,9.11,5.19,11.82,9.73c-0.13,2.03-0.32,3.99-0.52,6.05
		c-0.15,1.58-0.31,3.18-0.45,4.82l-0.01,0.08l-0.08,0.01c-2.28,0.33-4.32,0.61-6.72,0.95c-0.05,0.57-0.12,1.13-0.18,1.69
		c-0.15,1.25-0.28,2.43-0.29,3.64c-0.02,2.97-0.01,5.94-0.01,8.91c0.01,4.46,0.02,9.07-0.06,13.61c-0.02,1.3-0.24,3.71-1.41,5.17
		c-1.88,2.31-2.64,4.92-2.47,8.45c0.12,2.27,0.22,5.27,0,8.28c-0.35,4.67-0.91,9.41-1.45,14c-0.08,0.71-0.42,1.62-0.99,2.08
		c-1.91,1.52-1.89,3.51-1.88,5.62l0,0.61c0.01,11.64,0.01,23.29-0.01,34.93c0,0.5-0.03,1-0.06,1.5l-0.01,0.09l-0.1,0.02H163.92z"/>
        <path class="st7" d="M194.86,411.66c0-2.29-0.23-4.61,1.91-6.31c0.53-0.42,0.87-1.3,0.95-2.01c0.55-4.66,1.1-9.32,1.45-13.99
		c0.2-2.74,0.14-5.52,0-8.27c-0.15-3.16,0.38-5.92,2.49-8.52c1.02-1.27,1.36-3.37,1.39-5.11c0.14-7.5,0.02-15.01,0.07-22.52
		c0.01-1.79,0.31-3.57,0.48-5.42c2.44-0.34,4.5-0.63,6.8-0.96c0.31-3.75,0.73-7.31,0.98-10.82c-2.56-4.29-6.36-7.63-11.83-9.71
		c0-1.96,0-3.96,0-5.96c-0.99-0.35-1.79-0.64-2.92-1.04c0.7-4.96-1.08-10.02,1.42-15.02c-0.69-0.81-1.33-1.73-2.14-2.46
		c-2.57-2.35-3.49-4.9-1.07-7.89c-0.89-2.08-1.32-3.99-0.74-6.24c0.54-2.09,0.15-4.36-2.09-6.33c-0.53,1.39-1.08,2.36-1.27,3.4
		c-0.54,3.04,0.89,6.21-0.57,9.24c-0.16,0.33,0.34,1.02,0.6,1.51c1.04,1.97,0.63,3.6-0.92,5.14c-1.23,1.22-2.29,2.62-3.15,3.63
		c2.46,5.32,0.93,10.24,1.36,15.02c-1.15,0.45-2.04,0.79-3.07,1.19c0,2.14,0,4.14,0,5.48c-2.7,1.72-5.16,2.89-7.12,4.63
		c-5.5,4.86-8.34,11.2-8.27,18.46c0.04,4.15-1.43,7.42-3.86,10.38c-1.85,2.26-1.74,4.8-0.78,6.91c0.69,1.52,0.95,2.89,0.96,4.41
		c0.03,4.26,0.02,8.53,0,12.79c0,0.89-0.1,1.78-0.21,2.67c-0.55,4.6-1.56,9.19-1.61,13.79c-0.19,18.74-0.08,37.48-0.08,56.23
		c0,0.05,0,0.1,0,0.15h30.77c0.03-0.51,0.06-1.02,0.06-1.52C194.87,434.95,194.87,423.3,194.86,411.66z"/>
        <path class="st8" d="M194.7,448.22l0.01-0.11c0.03-0.5,0.06-1.01,0.06-1.51c0.02-8.7,0.01-17.4,0.01-26.09l0-9.45
		c-0.02-2.06-0.04-4.2,1.95-5.78c0.52-0.42,0.84-1.3,0.91-1.94c0.54-4.58,1.1-9.32,1.45-13.99c0.21-2.86,0.12-5.78,0-8.26
		c-0.17-3.59,0.6-6.24,2.51-8.59c1.14-1.42,1.35-3.77,1.37-5.05c0.08-4.53,0.07-9.14,0.06-13.6c-0.01-2.97-0.01-5.94,0.01-8.92
		c0.01-1.22,0.14-2.41,0.29-3.66c0.07-0.58,0.14-1.17,0.19-1.77l0.01-0.08l0.08-0.01c2.41-0.35,4.45-0.63,6.72-0.95
		c0.13-1.61,0.29-3.19,0.44-4.75c0.2-2.07,0.39-4.02,0.53-5.99l0.02-0.32l0.16,0.28c1.57,2.64,2.75,5.8,3.5,9.39
		c0.2,0.93,0.39,2.02,0.26,3.03c-0.6,4.8,1.69,8.39,4.01,11.27c1.29,1.58,1.6,5.14,0.63,7.06c-0.49,0.96-0.97,1.98-0.99,2.96
		c-0.03,1.23-0.08,2.46-0.14,3.7c-0.16,3.56-0.33,7.25,0.28,10.74c0.28,1.61,0.31,3.27,0.34,4.87c0.05,2.64,0.1,5.37,1.26,7.91
		c0.28,0.62,0.22,1.39,0.17,2.14c-0.02,0.31-0.05,0.61-0.05,0.9c0,18.74,0,37.48,0.02,56.23v0.35H194.7z"/>
        <path class="st8" d="M220.65,391.64c0-1.01,0.27-2.16-0.11-3c-1.87-4.1-0.87-8.54-1.6-12.8c-0.81-4.69-0.24-9.62-0.14-14.45
		c0.02-1.01,0.52-2.06,1-3c0.91-1.79,0.68-5.35-0.62-6.95c-2.67-3.31-4.59-6.86-4.03-11.34c0.12-0.97-0.05-2.02-0.26-3
		c-0.73-3.46-1.86-6.61-3.49-9.36c-0.25,3.51-0.67,7.07-0.98,10.82c-2.3,0.32-4.36,0.61-6.8,0.96c-0.17,1.85-0.47,3.63-0.48,5.42
		c-0.05,7.51,0.07,15.02-0.07,22.52c-0.03,1.74-0.37,3.84-1.39,5.11c-2.11,2.6-2.64,5.36-2.49,8.52c0.13,2.75,0.2,5.53,0,8.27
		c-0.35,4.67-0.9,9.33-1.45,13.99c-0.08,0.71-0.43,1.59-0.95,2.01c-2.14,1.7-1.91,4.01-1.91,6.31c0,11.64,0.01,23.29-0.01,34.93
		c0,0.51-0.03,1.02-0.06,1.52h25.86c0-0.08,0-0.17,0-0.25C220.65,429.12,220.65,410.38,220.65,391.64z"/>
        <path class="st9" d="M395.58,448.22V288.8l7.44-3.61c0.37-2.84,0.28-5.74,0.18-8.81c-0.14-4.45-0.28-9.06,1.29-13.71l0.05-0.16
		l0.12,0.13c0.38,0.43,0.71,0.88,1.03,1.32c0.78,1.08,1.46,2.01,2.54,2.01c0.39,0,0.82-0.12,1.32-0.37l0.58-1.83
		c0.41-1.22,0.84-2.48,1.3-3.87l0.04-0.14c0,0,1.63,1.3,2.21,1.77l1.53-2.26c1.34-1.99,2.68-3.98,4.01-5.96
		c0.47-0.71,0.93-1.42,1.38-2.14c0.67-1.05,1.37-2.14,2.1-3.18l0.49-0.7c1.72-2.46,3.51-5,2.94-8.39l-0.03-0.15l0.15,0.04
		c2.47,0.59,5.1,0.86,8.51,0.86c1.37,0,2.73-0.04,4.08-0.08l1.24-0.03L440,448.22H395.58z"/>
        <path class="st9" d="M438.82,239.66c-1.35,0.04-2.71,0.08-4.08,0.08c-2.81,0-5.65-0.17-8.53-0.86c0.63,3.75-1.53,6.4-3.44,9.16
		c-1.21,1.74-2.31,3.56-3.48,5.32c-1.85,2.77-3.72,5.53-5.6,8.32c-0.79-0.64-1.33-1.07-2.18-1.75c-0.7,2.1-1.32,3.93-1.93,5.75
		c-0.52,0.26-0.96,0.38-1.36,0.38c-1.58,0-2.3-1.85-3.64-3.36c-2.61,7.75-0.46,15.3-1.52,22.58c-2.33,1.13-4.66,2.26-7.38,3.58
		c0,52.84,0,105.93,0,159.26h44.22c0.02-69.5,0.04-138.99,0.06-208.49C439.59,239.64,439.2,239.65,438.82,239.66z"/>
        <path class="st10" d="M465.28,448.2V247.41l0.18,0.25c0.5,0.7,0.99,1.4,1.45,2.11c1.74,2.7,3.49,5.33,5.34,8.12
		c0.78,1.17,1.56,2.34,2.35,3.54c0.47-0.26,2.47-1.37,2.47-1.37l1.64,5.46c0.47,0.3,0.96,0.48,1.41,0.48c1.25,0,2.13-1.34,2.99-2.63
		l0.06-0.09l0.13,0c1.72,1.28,1.72,2.93,1.72,4.52v17.16c0.31,0.12,0.65,0.34,1,0.55c0.75,0.46,1.46,0.9,2.21,1.26
		c0.8,0.39,1.65,0.69,2.63,1.05c0.46,0.17,0.96,0.35,1.51,0.56l0.06,0.02V448.2H465.28z"/>
        <path class="st10" d="M488.19,286.87c-1.12-0.54-2.16-1.25-3.27-1.9c0-5.69,0-11.42,0-17.16c0-1.6-0.01-3.2-1.68-4.44
		c-0.89,1.34-1.8,2.74-3.12,2.74c-0.45,0-0.95-0.16-1.51-0.55c-0.58-1.95-1.07-3.56-1.6-5.34c-1.03,0.57-1.69,0.94-2.44,1.35
		c-2.67-4.04-5.25-7.86-7.74-11.74c-0.46-0.71-0.95-1.41-1.45-2.11c0,66.46,0,132.92,0,199.37c0,0.33,0,0.68,0,1.01h26.96
		c0-53.42,0-106.66,0-159.62C490.63,287.83,489.37,287.44,488.19,286.87z"/>
        <path class="st9" d="M439.81,448.22l0.06-208.69l0.1,0c0.97-0.03,1.94-0.05,2.91-0.05c0.43,0,0.87,0,1.3,0.01
		c1.42,0.04,2.84,0.05,4.27,0.05c2.6,0,5.21-0.04,7.86-0.08c1.86-0.03,3.75-0.06,5.66-0.08l0.11,0l-0.01,0.11
		c-0.24,3.1,1.51,5.55,3.37,8.15l0.02,0.03l0.03,0.07v200.49H439.81z"/>
        <path class="st9" d="M465.38,247.73c-1.84-2.58-3.65-5.1-3.41-8.25c-4.64,0.04-9.1,0.16-13.52,0.16c-1.43,0-2.85-0.01-4.27-0.05
		c-0.43-0.01-0.87-0.01-1.3-0.01c-0.97,0-1.94,0.02-2.91,0.05c-0.02,69.5-0.04,138.99-0.06,208.49h25.47c0-0.34,0-0.68,0-1.01
		C465.38,380.64,465.38,314.18,465.38,247.73z"/>
        <path class="st7" d="M536.45,448.22V143h-1.86l0.03-0.13c0.53-1.95,1.07-3.94,1.62-5.96l0.62-2.3l3-0.69
		c1.7-4.05,3.5-8.22,5.32-12.42l3.86-8.94l1.13-0.31l1.05-0.25c0.89-2.53,1.78-5.36,1.73-8.48c-0.03-1.69,0.04-3.41,0.11-5.07
		l0.06-1.5c0.07-1.95,0.11-1.97,2.09-3.25l0.06-0.04l0.08,0.03l1.75,1.29c0.18,1.69,0.2,3.34,0.23,4.94
		c0.06,3.98,0.12,8.1,1.92,12.06c0.38,0.06,0.96,0.22,1.71,0.43l0.31,0.08l6.79,15.62l2.54,5.87l0.66,0.09l0.08,0.02l0,240.39
		c0,11.1,0,22.19-0.01,33.29l0,9.84c0,10.17,0,20.34-0.01,30.52v0.1H536.45z"/>
        <path class="st7" d="M571.24,363.37c0-14.8,0-29.59,0-44.39c0-14.8,0-29.59,0-44.39c0-14.8,0-29.59,0-44.39s0-29.59,0-44.39
		s0-29.59,0-44.39c0-2.42,0-4.84,0-7.26c-0.24-0.05-0.48-0.1-0.73-0.15c-3.12-7.22-6.23-14.41-9.26-21.43
		c-0.9-0.25-1.58-0.44-2.08-0.57c-2.54-5.57-1.64-11.34-2.12-16.96c-0.62-0.46-1.2-0.88-1.75-1.29c-1.99,1.28-2,1.28-2.07,3.18
		c-0.08,2.19-0.21,4.38-0.17,6.57c0.04,2.98-0.76,5.75-1.81,8.58c-0.71,0.17-1.4,0.33-2.11,0.5c-3.12,7.23-6.23,14.41-9.25,21.42
		c-1.16,0.27-2.03,0.47-2.94,0.68c-0.76,2.8-1.5,5.54-2.23,8.21c0.6,0,1.21,0,1.83,0c0,101.87,0,203.4,0,305.22h34.67
		c0.02-13.47,0.01-26.92,0.01-40.36C571.25,392.96,571.24,378.17,571.24,363.37z"/>
        <path class="st11" d="M515.24,448.22V221.29l5.53-1.66v-60.29l4.75-0.38v-5.55l3.19-0.51c0.47-1.21,1.05-2.53,1.66-3.91l0.98-2.24
		c0.77-0.29,1.53-0.54,2.51-0.86c0.22-0.96,0.5-1.97,0.78-3.01l0.02-0.07h0.08c0.6,0,1.21,0,1.82,0.01l0.1,0v305.42H515.24z"/>
        <path class="st11" d="M534.73,142.89c-0.28,1.04-0.56,2.06-0.84,3.08c-0.98,0.32-1.74,0.57-2.45,0.81
		c-0.96,2.2-1.87,4.27-2.71,6.21c-1.11,0.18-1.97,0.32-3.11,0.5c0,1.94,0,3.71,0,5.56c-1.71,0.14-3.12,0.25-4.75,0.38
		c0,20.24,0,40.21,0,60.27c-1.9,0.57-3.61,1.08-5.53,1.66c0,75.64,0,151.15,0,226.76h21.21c0-101.83,0-203.36,0-305.22
		C535.94,142.89,535.33,142.89,534.73,142.89z"/>
        <path class="st12" d="M594.74,448.22v-226.9c-1.92-0.56-3.55-1.04-5.4-1.57l-0.07-0.02v-60.29c-1.66-0.09-3.06-0.17-4.7-0.27
		l-0.09-0.01v-5.63l-0.33-0.05c-0.94-0.15-1.72-0.27-2.53-0.39l-1.69-3.8l-1.08-2.5c-0.47-0.1-0.96-0.25-1.43-0.4l-0.98-0.3
		l-0.62-2.13l-2.47-9.25c-0.78-0.16-1.46-0.3-2.14-0.44l-0.08-0.02V96.81h17.22v12.55c1.87,0.28,3.84,0.55,5.67,0.55
		c2.97,0,5.3-0.71,7.35-2.23c2.01-1.49,4.38-2.19,7.46-2.19c0.23,0,0.46,0,0.69,0.01c1.6,0.05,3.21,0.06,4.58,0.06
		c1.13,0,2.29-0.01,3.48-0.01c1.25-0.01,2.54-0.02,3.91-0.02V26.81l1.28-0.22l0.03,0.07c0.1,0.21,0.23,0.42,0.35,0.62
		c0.28,0.49,0.58,0.99,0.65,1.52c0.12,0.92,0.11,1.87,0.08,2.79c-0.01,0.35-0.01,0.69-0.01,1.03l0.02,72.91
		c1.2,0,2.35-0.02,3.47-0.03c1.07-0.01,2.11-0.03,3.12-0.03c1.64,0,3,0.04,4.28,0.12c2.57,0.15,4.5,0.62,5.89,1.43
		c2.34,1.35,4.62,1.99,7.19,1.99l0.44-0.01c1.75-0.05,3.59-0.07,5.62-0.07c1.36,0,2.74,0.01,4.15,0.01
		c1.47,0.01,2.98,0.02,4.53,0.02h0.1v51.14l-0.27,0.24l-8.33,5.65l0.05,3.03c0,2.87,0.01,5.53-0.02,8.18v0.36
		c0,0.87,0,1.86-0.47,2.25c-1.12,0.93-1.08,2.02-1.03,3.18c0.01,0.25,0.02,0.49,0.02,0.74c-0.02,3.02-0.02,6.04-0.01,9.06l0,3.71
		c0,0-2.92,0.8-4.56,1.25v29.98c0,0-2.96,0.65-3.59,0.79v19.46c0,32.57,0,65.14,0.04,97.72c0.01,3.38-0.43,5.92-1.44,8.23
		c-1.29,2.98-1.86,6.19-1.85,10.43c0.07,23.65,0.05,47.7,0.03,70.96l-0.01,12.88H594.74z"/>
        <path class="st12" d="M641.1,364.37c-0.01-3.66,0.41-7.13,1.86-10.47c1.14-2.61,1.44-5.34,1.43-8.19
		c-0.05-37.9-0.04-75.8-0.04-113.7c0-1.12,0-2.24,0-3.56c1.11-0.25,2.14-0.47,3.59-0.79c0-9.96,0-19.98,0-29.98
		c1.67-0.46,2.95-0.81,4.56-1.25c0-4.24-0.02-8.47,0.01-12.7c0.01-1.38-0.36-2.82,1.05-3.99c0.5-0.42,0.42-1.66,0.43-2.54
		c0.04-3.58,0.02-7.17,0.02-11.29c2.83-1.92,5.68-3.85,8.56-5.8c0-17,0-34.02,0-51.04c-3.04,0-5.9-0.03-8.68-0.03
		c-1.9,0-3.76,0.02-5.62,0.07c-0.15,0-0.29,0.01-0.44,0.01c-2.62,0-4.91-0.65-7.24-2c-1.67-0.97-3.86-1.3-5.85-1.42
		c-1.41-0.09-2.81-0.12-4.27-0.12c-2.1,0-4.29,0.06-6.69,0.06c0-2.31,0-4.01,0-5.71c-0.01-22.43-0.01-44.87-0.02-67.3
		c0-1.27,0.1-2.56-0.07-3.81c-0.1-0.73-0.64-1.41-0.99-2.11c-0.37,0.06-0.75,0.13-1.12,0.19c0,26.1,0,52.2,0,78.73
		c-2.7,0-5.14,0.03-7.49,0.03c-1.56,0-3.07-0.01-4.58-0.06c-0.23-0.01-0.46-0.01-0.69-0.01c-2.68,0-5.15,0.5-7.4,2.17
		c-2.3,1.71-4.77,2.25-7.41,2.25c-1.83,0-3.76-0.26-5.77-0.56c0-4.26,0-8.31,0-12.54c-5.86,0-11.19,0-17.02,0
		c0,12.57,0,24.94,0,37.27c0.7,0.14,1.39,0.28,2.2,0.45c1,3.75,2.01,7.52,3.04,11.37c0.8,0.24,1.57,0.48,2.48,0.75
		c0.87,2.02,1.77,4.1,2.69,6.24c0.93,0.14,1.81,0.28,2.95,0.46c0,1.8,0,3.6,0,5.62c1.67,0.1,3.09,0.18,4.79,0.27
		c0,20.13,0,40.17,0,60.31c1.87,0.54,3.52,1.02,5.47,1.59c0,75.51,0,151.11,0,226.88h46.28c0-0.22,0-0.44,0-0.66
		C641.14,419.76,641.18,392.06,641.1,364.37z"/>
        <path class="st9" d="M641.05,448.21l0-18.31c0-21.48,0.01-43.69-0.05-65.54c-0.02-4.2,0.57-7.54,1.87-10.51
		c0.98-2.27,1.42-4.78,1.42-8.15c-0.04-32.56-0.04-65.11-0.04-97.67l0-19.67l3.59-0.79v-29.98l4.56-1.25l0-3.75
		c-0.01-2.96-0.01-5.92,0.02-8.87c0-0.24-0.01-0.49-0.02-0.73c-0.05-1.15-0.1-2.34,1.1-3.34c0.4-0.33,0.4-1.31,0.39-2.1l0-0.36
		c0.03-2.65,0.03-5.3,0.02-8.17l0-3.12c1.44-1.03,2.85-1.98,4.26-2.94c1.44-0.98,4.51-3.05,4.51-3.05v288.3H641.05z"/>
        <path class="st9" d="M654.01,165.9c0,4.13,0.02,7.71-0.02,11.29c-0.01,0.87,0.07,2.12-0.43,2.54c-1.41,1.17-1.04,2.6-1.05,3.99
		c-0.04,4.23-0.01,8.46-0.01,12.7c-1.61,0.44-2.88,0.79-4.56,1.25c0,9.99,0,20.02,0,29.98c-1.45,0.32-2.48,0.55-3.59,0.79
		c0,1.33,0,2.45,0,3.56c0,37.9-0.01,75.8,0.04,113.7c0,2.85-0.3,5.58-1.43,8.19c-1.46,3.34-1.88,6.81-1.86,10.47
		c0.08,27.7,0.05,55.39,0.05,83.09c0,0.22,0,0.44,0,0.66h21.43c0-95.99,0-191.87,0-288.01C659.69,162.05,656.84,163.99,654.01,165.9
		z"/>
        <path class="st13" d="M571.14,448.23l0-0.1c0.01-10.11,0.01-20.2,0.01-30.28l0-283.8c0,0,1.67,0.34,2.32,0.48l0.06,0.01l3.06,11.43
		l0.17,0c0.72,0.21,1.42,0.43,2.25,0.68l1.1,2.47l1.65,3.83c0.84,0.08,1.73,0.22,2.87,0.4l0.08,0.01v5.61
		c1.62,0.09,3.03,0.17,4.7,0.27l0.09,0.01v60.33l1.85,0.54c1.15,0.34,2.29,0.67,3.56,1.05l0.07,0.02v227.05H571.14z"/>
        <path class="st13" d="M589.4,219.64c0-20.14,0-40.18,0-60.31c-1.7-0.1-3.13-0.18-4.79-0.27c0-2.02,0-3.81,0-5.62
		c-1.14-0.18-2.03-0.32-2.95-0.46c-0.92-2.14-1.82-4.22-2.69-6.24c-0.91-0.28-1.68-0.51-2.48-0.75c-1.03-3.85-2.04-7.62-3.04-11.37
		c-0.81-0.17-1.51-0.31-2.2-0.45c0,2.42,0,4.84,0,7.26c0,14.8,0,29.59,0,44.39s0,29.59,0,44.39s0,29.59,0,44.39s0,29.59,0,44.39
		c0,14.8,0,29.59,0,44.39s0,29.59,0,44.39c0,13.44,0.01,26.88-0.01,40.36h23.64c0-75.78,0-151.38,0-226.88
		C592.91,220.66,591.27,220.19,589.4,219.64z"/>
</g>
</svg>