<svg id="Layer_1" data-name="Layer 1" xmlns="http://www.w3.org/2000/svg" viewBox="0 0 694.53 433.55"><defs><style>.cls-1{fill:#f9bc26;}.cls-2{fill:#80ea6e;}.cls-3{fill:#97ebf3;}.cls-4{fill:#81d5dd;}.cls-5{fill:#02bc67;}.cls-6{fill:#44fea9;}.cls-7{fill:#82ffc6;}.cls-8{fill:#ff877a;}.cls-9{fill:#d0584b;}.cls-10{fill:#6ec2ca;}.cls-11{fill:#aa7a00;}.cls-12{fill:#f8bb25;}.cls-13{fill:#e5a812;}.cls-14{fill:#ffd262;}.cls-15{fill:#81eb6f;}.cls-16{fill:#3ea82c;}</style></defs><polyline class="cls-1" points="585.91 432.98 568.72 432.98 568.72 433.1 621.86 433.1 585.91 433.1 585.91 432.98"/><path class="cls-1" d="M691.79,290.49H637.13v8.6H607v88h15V433H585.91v.11H691.79V290.49"/><polyline class="cls-1" points="694.53 285.02 676.55 285.02 676.55 287.75 667.96 287.75 667.96 285.02 660.15 285.02 660.15 287.75 652.33 287.75 652.33 285.02 637.13 285.02 637.13 290.49 694.53 290.49 694.53 285.02"/><path class="cls-1" d="M637.13,270.17H607v28.91h30.14V270.17"/><polyline class="cls-1" points="660.15 270.17 652.33 270.17 652.33 285.02 652.33 287.75 660.15 287.75 660.15 285.02 660.15 270.17"/><polyline class="cls-1" points="676.55 270.17 667.96 270.17 667.96 285.02 667.96 287.75 676.55 287.75 676.55 285.02 676.55 270.17"/><path class="cls-2" d="M355.56,433.33h0M307.32,161.58c0,11.25.31,25.49.31,37.65-6.07-.22-9.91-.22-14.7-.22,0-12-.11-23.76-.11-37.1-14.74,19-28,35.35-40.34,52.41a33.17,33.17,0,0,0-6.16,17.88c-.27,24.9-.33,49.8-.32,74.7q1.25,27.45,2.5,54.9c.1,2.22-.08,4.6.66,6.61.52,1.43,2.35,3.26,3.61,3.28h0c1.14,0,3.2-2.15,3.28-3.45.45-6.66.11-13.38.59-20A64.67,64.67,0,0,1,261,328.11c1.14,6.83,2.27,13.66,3.7,22.23,7.77-8.77,14.81-16.48,21.47-24.51,1-1.18,0-3.93.09-5.94a10.69,10.69,0,0,1,.88-3.6c.1-.23,1-.33,1.48-.33a.78.78,0,0,1,.34,0,34.85,34.85,0,0,1,.87,3.93c.45,2.49,0,5.69,1.45,7.37,6.25,7.45,13,14.47,19.6,21.65l.92-.06V286.62H323.7c3.07-16.62,5.95-32.17,8.52-46.11,1.22,7.85,2.78,18.91,4.7,29.9.94,5.36,2,10.7,3.05,16.21H351v-70c-13.22-17.71-27.18-33.88-40.83-51.18l-.15-.15c-.44-.61-1.27-1.74-2.73-3.68"/><path class="cls-3" d="M401.3,0h-1.24V38.66h-4.79V61.22H381.62V88.07H356.29v70.52H351v58c.72,1,1.43,1.92,2.14,2.89,2.36,3.21,2.26,8.65,2.28,13.07.29,52.63.37,105.26.58,157.89,0,3.32,0,6.62,0,10.55h19.47c.77-3.1,1.53-6.12,2.29-9.15l3,.07c.82,13.34,5,27.27,6,40.66H445V215.67l5.32-1v-56h-5.07V88.06H419.74V61.22H406.09V38.67H401.3V0"/><path class="cls-4" d="M323.7,286.62H311.77V348.9l1.71-.11v-50.2l2.92-.26,3.76,7.46q1.8-9.78,3.54-19.17m27.33-70v70H340c1.18,6,2.44,12.23,3.74,18.9,1.59-3.35,2.5-5.29,3.42-7.23l2.73.23V401h6.21c0-3.93,0-7.22,0-10.55-.21-52.63-.29-105.26-.58-157.89,0-4.42.07-9.87-2.28-13.07L351,216.59"/><path class="cls-5" d="M386.76,432.57H355.57v.76h31.25c0-.25,0-.51-.05-.76M189,411V433.3H176.42v0h69.63v-4.88a26.18,26.18,0,0,1-15.12,4.25,43,43,0,0,1-23.68-7.4c-7.82-5.48-12.74-10.43-18.26-14.26M204,30.79h-1.55v8.8c0,21.46.1,42.93-.14,64.39,0,2.65-1.06,6.28-2.94,7.71-4.62,3.5-4.91,7.93-5.11,13-1.69,42-3.1,84-5.25,125.89v83.7c24.16,5.66,45.36,17.82,57,35.6q0-31.49-.06-63-.78-17.24-1.55-34.47-3.36-75.18-6.79-150.35c-.13-2.65-1.73-5.26-2.76-7.84-2.06-3.52-5-6.69-5.06-10.3-.41-21.74,0-70.56,0-73.13h-2.31V110.4H204.41V30.8H204"/><path class="cls-6" d="M246,306.9q0,31.49.06,63c8,12.21,11.58,27.07,8.53,44.3-1.18,6.71-4.32,11.33-8.53,14.29v4.88H355.57v-.76H311.77V348.89l-.92.06c-6.58-7.18-13.35-14.19-19.6-21.65-1.41-1.68-1-4.87-1.45-7.37a34.85,34.85,0,0,0-.87-3.93s-.15,0-.34,0c-.5,0-1.39.1-1.48.33a10.69,10.69,0,0,0-.88,3.6c-.11,2,.89,4.75-.09,5.94-6.65,8-13.7,15.74-21.47,24.51-1.43-8.58-2.56-15.4-3.7-22.23a65,65,0,0,0-4.32,20.09c-.48,6.66-.14,13.38-.59,20-.09,1.3-2.15,3.45-3.28,3.45h0c-1.27,0-3.09-1.85-3.61-3.28-.73-2-.56-4.39-.66-6.61q-1.27-27.45-2.51-54.9m86.23-66.39c-2.58,13.94-5.45,29.49-8.52,46.11H340c-1.09-5.51-2.11-10.86-3.05-16.21-1.93-11-3.48-22.05-4.7-29.9"/><path class="cls-7" d="M377.82,391.84c-.76,3-1.51,6.05-2.29,9.15H356.06v4.84l-.49,26.75h31.19c-.95-13.39-5.16-27.32-6-40.66l-3-.08"/><path class="cls-6" d="M340,286.62H323.7Q322,296,320.16,305.79l-3.76-7.46-2.92.26v50.2l-1.71.11v83.68h43.81l.49-26.75V401h-6.21V298.52l-2.73-.23-3.42,7.23c-1.3-6.67-2.56-12.89-3.74-18.9"/><path class="cls-5" d="M490.31,162.08h-.19c-6.4.11-12.71,5.06-19.8,8.22-.3,2.2-.71,5.23-1.13,8.37l-11.34,1.68v32.8l-7.52,1.47V432.56H445v.26l73.55-.5V323.89c1-.06,2-.08,3-.08,1.59,0,3.14.06,4.7.12s3.14.12,4.8.12c1,0,2.06,0,3.14-.08V215.52l-12.62-2.69V180.27L511,178.61l-1.55-8.24c-7.22-3.32-13.24-8.29-19.14-8.29"/><path class="cls-7" d="M450.33,214.64l-5.32,1v216.9h5.32V214.64"/><path class="cls-8" d="M73.93,432.29v1h5a24,24,0,0,1-5-1M157.11,403c-26.91,0-31.1,7.89-48.73,20.89a52.22,52.22,0,0,1-11.63,6.46v2.85H89.43v-.61a38.11,38.11,0,0,1-4.54.7h91.54l1.91-17.91c.21-3.16.43-6.32.64-9.48-5.4-1.86-12.2-2.9-21.87-2.9M189,229.16H175.47V331.8c2.86.37,5.7.83,8.5,1.38q2.35-34.9,4.34-69.84.34-6.39.68-12.78v-21.4"/><path class="cls-9" d="M179,405.91q-.33,4.74-.64,9.48l-1.91,17.91H189V411a40,40,0,0,0-10-5.13m10-155.35q-.33,6.39-.68,12.78c-1.28,23.29-2.77,46.57-4.34,69.84q2.53.49,5,1.08v-83.7"/><polyline class="cls-8" points="84.31 229.16 70.79 229.16 70.79 276.55 74.56 276.55 74.56 274.38 74.69 274.25 74.83 274.38 74.83 276.55 75.92 276.55 75.92 278.42 84.31 278.42 84.31 229.16"/><path class="cls-8" d="M175.47,206.34H84.31v72.08H96.75v66.45c17.31-9.33,38.73-14.25,60.37-14.25a142,142,0,0,1,18.36,1.19V206.34"/><polyline class="cls-3" points="69.16 274.25 69.02 274.38 69.02 276.55 67.75 276.55 67.75 278.42 46.93 278.42 46.93 285.93 70.79 285.93 70.79 276.55 69.29 276.55 69.29 274.38 69.16 274.25"/><path class="cls-10" d="M96.74,430.36a46.91,46.91,0,0,1-7.32,2.24v.61h7.32v-2.85m-22-156.11-.13.13v2.16H70.79v9.39h3.14v76.66a74.68,74.68,0,0,1,10.37-9.68V278.42H75.91v-1.87H74.82v-2.16l-.13-.14"/><path class="cls-10" d="M96.74,278.42H84.3v74.49a89.52,89.52,0,0,1,12.44-8V278.42"/><path class="cls-3" d="M46.93,285.93H0V433.55H73.93v-.25H70.79V431a19,19,0,0,1-3.26-2.09H54.25v4.29H46.93V285.93"/><path class="cls-10" d="M70.79,431v2.28h3.14v-1A20,20,0,0,1,70.79,431"/><path class="cls-3" d="M70.79,285.93H46.93V433.22h7.32v-4.29H67.53c-3.89-3.1-6.74-7.91-7.88-14.77-3.15-18.89,1.47-34.92,11.15-47.72V285.93"/><path class="cls-10" d="M73.93,285.93H70.79v80.51c1-1.32,2-2.6,3.14-3.85V285.93"/><path class="cls-1" d="M84.88,433.3h-6a28.13,28.13,0,0,0,2.92.14c1,0,2-.05,3-.14"/><path class="cls-11" d="M189,334.26v76.79c5.52,3.83,10.44,8.77,18.25,14.26a43,43,0,0,0,23.68,7.4A26.18,26.18,0,0,0,246,428.46V369.87c-11.69-17.8-32.89-29.95-57-35.61"/><path class="cls-12" d="M246,369.86v58.59c4.22-3,7.35-7.58,8.53-14.29,3.05-17.24-.5-32.1-8.53-44.3"/><path class="cls-13" d="M89.42,428.93H73.93v3.37a25.37,25.37,0,0,0,5,1h6a38.11,38.11,0,0,0,4.54-.7v-3.68m86.05-97.13v32H96.74v66.58a52.22,52.22,0,0,0,11.63-6.46C126,410.91,130.19,403,157.1,403c9.67,0,16.47,1,21.86,2.89,1.65-24.24,3.36-48.48,5-72.73q-4.2-.8-8.49-1.37"/><path class="cls-11" d="M184,333.18c-1.63,24.24-3.34,48.48-5,72.73A39.77,39.77,0,0,1,189,411V334.25c-1.65-.38-3.33-.74-5-1.07"/><path class="cls-13" d="M157.11,330.62c-21.64,0-43.06,4.92-60.37,14.25v18.92h78.73v-32a142,142,0,0,0-18.36-1.19"/><path class="cls-13" d="M84.31,352.91a74.68,74.68,0,0,0-10.37,9.68v66.34H89.43v3.67a45.86,45.86,0,0,0,7.32-2.24V363.78H84.31V352.91"/><path class="cls-13" d="M96.74,344.87a91.06,91.06,0,0,0-12.44,8v10.87H96.74V344.87"/><path class="cls-14" d="M70.79,428.93H67.53A19,19,0,0,0,70.79,431v-2.09"/><path class="cls-13" d="M73.93,428.93H70.79V431a21.52,21.52,0,0,0,3.14,1.28v-3.37"/><path class="cls-14" d="M70.79,366.44c-9.68,12.81-14.29,28.83-11.15,47.72,1.14,6.86,4,11.67,7.88,14.77h3.26V366.44"/><path class="cls-13" d="M73.93,362.59q-1.65,1.88-3.14,3.85v62.49h3.14V362.59"/><path class="cls-2" d="M577.52,27h-2c-.18,1.59-1.21,49.69-1.21,49.69s-5.24-.08-9.18-.08c-2,0-3.61,0-4.11.08-.21,4.26-.2,9.2-.42,13.65H534.37V324h-.19V432.21l-15.62.11V433h50.16V321h17.19V290.49h-6.18V285H590.6V270.17H607V244H588.52c0-56,.34-112.09.34-167.32H578V27h-.43"/><polyline class="cls-15" points="585.91 320.96 568.72 320.96 568.72 432.98 585.91 432.98 585.91 320.96"/><path class="cls-15" d="M590.6,290.49h-4.69V433H622V387.12H607v-88H590.6v-8.6"/><polyline class="cls-15" points="590.6 285.02 579.73 285.02 579.73 290.49 590.6 290.49 590.6 285.02"/><path class="cls-15" d="M607,270.17H590.6v28.92H607V270.17"/><path class="cls-16" d="M521.54,323.82c-1,0-2,0-3,.08V432.33l15.62-.11V324c-1.09.06-2.13.08-3.14.08-1.66,0-3.24-.06-4.8-.12s-3.11-.12-4.7-.12"/><path class="cls-8" d="M483,278.81a6.63,6.63,0,0,0-6.61,6.08l-7.77-.25c0-.76,0-1.52,0-2.29a81.83,81.83,0,0,0-4.87-27.92l6.49-2.39a6.64,6.64,0,1,0-.55-2.64,6.5,6.5,0,0,0,.29,1.94l-6.49,2.39a81.61,81.61,0,0,0-16.72-27l5.08-4.76a6.58,6.58,0,1,0-.51-.54l-5.08,4.76c-.52-.55-1.05-1.1-1.59-1.64a81.74,81.74,0,0,0-26.4-17.72l2.79-6.8a6.74,6.74,0,1,0-.69-.27l-2.79,6.79a81.41,81.41,0,0,0-27.71-5.9l.3-9.3h.21a6.65,6.65,0,1,0-.95-.07l-.3,9.34c-.76,0-1.52,0-2.29,0A81.86,81.86,0,0,0,360,205.06l-2.68-7.59a6.64,6.64,0,1,0-2.53.5,6.53,6.53,0,0,0,1.83-.26l2.68,7.59a81.47,81.47,0,0,0-28.1,17.11l-4.85-5.17a6.76,6.76,0,1,0-.53.51l4.84,5.17c-.55.52-1.1,1.05-1.64,1.59a81.77,81.77,0,0,0-16.3,23.19l-6.16-2.84a6.58,6.58,0,1,0-.27.69l6.13,2.83a81.29,81.29,0,0,0-7.28,30.93l-7.91-.26a6.63,6.63,0,1,0,0,.75l7.91.26c0,.76,0,1.52,0,2.29A81.83,81.83,0,0,0,310,310.27l-6.49,2.39a6.58,6.58,0,1,0,.57,2.62,6.5,6.5,0,0,0-.29-1.94l6.49-2.39A81.5,81.5,0,0,0,327,338l-5.08,4.76a6.58,6.58,0,1,0,.51.54l5.08-4.76c.52.55,1.05,1.1,1.59,1.64a82.06,82.06,0,0,0,17.12,13.14l-40,73.74H299v2.11h-3.52v4.19h182.8v-4.19h-3.52V427h-7.18l-40-73.74a82,82,0,0,0,14.94-11l6.48,6.92a6.63,6.63,0,1,0,.59-.46l-6.53-7c.55-.52,1.1-1.05,1.64-1.59A81.77,81.77,0,0,0,461,317l7.22,3.33a6.72,6.72,0,1,0,.23-.71l-7.13-3.29a81.29,81.29,0,0,0,7.28-30.93l7.77.25a6.64,6.64,0,1,0,6.62-6.81Zm-16.56,3.53q0,1.11,0,2.22l-22.89-.74c0-.49,0-1,0-1.47a56.4,56.4,0,0,0-3.36-19.22l21.53-7.93A79.54,79.54,0,0,1,466.4,282.34Zm-24,1.44-51.06-1.66a4.47,4.47,0,0,0-.16-1l47.95-17.65a55.28,55.28,0,0,1,3.29,18.84C442.4,282.82,442.39,283.3,442.38,283.78Zm-111-2.87,51.06,1.66a4.47,4.47,0,0,0,.16,1l-47.95,17.65a55.28,55.28,0,0,1-3.29-18.84C331.32,281.86,331.33,281.39,331.34,280.91Zm59-1.34,37.26-34.91a55.54,55.54,0,0,1,11.23,18.15L390.9,280.46A4.54,4.54,0,0,0,390.35,279.57Zm-.5-.53a4.55,4.55,0,0,0-1-.66l19.41-47.26a55.69,55.69,0,0,1,18.82,13Zm-1.64-1a4.64,4.64,0,0,0-.84-.18L389,226.85a55,55,0,0,1,18.58,4Zm-1.58-.2a4.66,4.66,0,0,0-.91.14l-17-48.19a55.15,55.15,0,0,1,18.11-3l1.44,0Zm-1.6.38a4.45,4.45,0,0,0-.94.57l-34.91-37.26a55.51,55.51,0,0,1,18.88-11.5Zm-1.48,1.08a4.4,4.4,0,0,0-.57.79L336.6,258.73a55.77,55.77,0,0,1,12-16.65Zm-.88,1.46a4.22,4.22,0,0,0-.24,1l-51.06-1.66a55.14,55.14,0,0,1,4.92-20.77Zm.14,3.42a4.11,4.11,0,0,0,.43.73l-.3.56L346.11,320a55.54,55.54,0,0,1-11.23-18.15Zm-1,3.34L358.69,330.2a55.52,55.52,0,0,1-12.09-9.63Zm2.52-1.55a4.85,4.85,0,0,0,.49.29l-19.41,47.26a54.68,54.68,0,0,1-5.44-2.65Zm1.17.58a4.64,4.64,0,0,0,.84.18l-1.66,51.06a55,55,0,0,1-18.58-4Zm1.35,51.28-1.44,0,1.66-51.06a4.66,4.66,0,0,0,.91-.14l17,48.19A55.41,55.41,0,0,1,386.86,337.88Zm1.82-51.47a4.8,4.8,0,0,0,.7-.39l24.36,44.9a55,55,0,0,1-8.07,3.67Zm4.1,2.8,31.76,33.89a55.55,55.55,0,0,1-9.52,7.09Zm-1.39-2.57-.92-1.69a3.54,3.54,0,0,0,.26-.41L437.11,306a55.6,55.6,0,0,1-12,16.64Zm-.34-2.77a4.22,4.22,0,0,0,.24-1l51.06,1.66a55.14,55.14,0,0,1-4.92,20.77ZM365,334.6l-8.72,21.23a80.61,80.61,0,0,1-7.78-3.75l10.95-20.17A59.2,59.2,0,0,0,365,334.6Zm.68.28a56.27,56.27,0,0,0,19,4.06l-.74,22.9A79.43,79.43,0,0,1,357,356.11ZM385.39,339l1.47,0a56.25,56.25,0,0,0,18.48-3.1L413,357.53a79.66,79.66,0,0,1-26.11,4.36l-2.22,0ZM406,335.64a56.64,56.64,0,0,0,8.23-3.74l10.95,20.17a78.22,78.22,0,0,1-11.55,5.21Zm55.39-81.14-21.53,7.93a56.8,56.8,0,0,0-11.46-18.52l16.74-15.68A79.26,79.26,0,0,1,461.42,254.5Zm-18.31-28.4c.52.52,1,1.05,1.54,1.59l-16.73,15.68a56.71,56.71,0,0,0-19.2-13.27l8.72-21.23A79.56,79.56,0,0,1,443.11,226.1Zm-26.36-17.52L408,229.81a56,56,0,0,0-19-4.06l.74-22.9A79.44,79.44,0,0,1,416.75,208.58Zm-29.89-5.78q1.11,0,2.22,0l-.74,22.89-1.47,0a56.25,56.25,0,0,0-18.48,3.1l-7.63-21.64A79.55,79.55,0,0,1,386.86,202.8Zm-26.81,4.61,7.63,21.64a56.67,56.67,0,0,0-19.26,11.74l-15.68-16.74A79,79,0,0,1,360.05,207.41ZM330.61,226.1c.52-.52,1.05-1,1.59-1.54l15.68,16.73a56.84,56.84,0,0,0-12.29,17l-20.84-9.62A79.73,79.73,0,0,1,330.61,226.1Zm-16.17,23.22,20.84,9.62a56.27,56.27,0,0,0-5,21.2l-22.9-.74A79.41,79.41,0,0,1,314.44,249.32Zm-7.13,33q0-1.11,0-2.22l22.89.74c0,.49,0,1,0,1.47a56.4,56.4,0,0,0,3.36,19.22L312,309.48A79.46,79.46,0,0,1,307.31,282.34Zm5,27.85,21.53-7.93a56.8,56.8,0,0,0,11.46,18.52l-16.74,15.68A79.36,79.36,0,0,1,312.3,310.19Zm18.31,28.4c-.52-.52-1-1-1.54-1.59l16.73-15.68a57,57,0,0,0,12.37,9.84l-10.95,20.18A79.6,79.6,0,0,1,330.61,338.59ZM465.88,427h-158l39.61-73a80.32,80.32,0,0,0,8,3.85l-2.79,6.8a6.74,6.74,0,1,0,.69.27l2.79-6.79a81.41,81.41,0,0,0,27.71,5.9l-.23,7a6.6,6.6,0,1,0,.75,0l.23-7c.76,0,1.52,0,2.29,0a81.9,81.9,0,0,0,26.84-4.49l2.38,6.76a6.64,6.64,0,1,0,2.82-.63,6.56,6.56,0,0,0-2.13.35l-2.37-6.73A81,81,0,0,0,426.28,354ZM426.5,351.35l-10.95-20.18a56.92,56.92,0,0,0,9.75-7.26L441,340.65A80.35,80.35,0,0,1,426.5,351.35Zm16.61-12.76c-.52.52-1.05,1-1.59,1.54L425.84,323.4a56.84,56.84,0,0,0,12.29-17L459,316A79.73,79.73,0,0,1,443.11,338.59Zm16.16-23.22-20.84-9.62a56.27,56.27,0,0,0,5-21.2l22.9.74A79,79,0,0,1,459.27,315.37Z"/></svg>