<?xml version="1.0" encoding="utf-8"?>
<!-- Generator: Adobe Illustrator 26.0.3, SVG Export Plug-In . SVG Version: 6.00 Build 0)  -->
<svg version="1.1" id="Layer_1" xmlns="http://www.w3.org/2000/svg" xmlns:xlink="http://www.w3.org/1999/xlink" x="0px" y="0px"
     viewBox="0 0 694.7 433.8" style="enable-background:new 0 0 694.7 433.8;" xml:space="preserve">
<style type="text/css">
	.st0{fill:#F9BC26;}
	.st1{fill:#80EA6E;}
	.st2{fill:#97EBF3;}
	.st3{fill:#81D5DD;}
	.st4{fill:#02BC67;}
	.st5{fill:#44FEA9;}
	.st6{fill:#82FFC6;}
	.st7{fill:#FF877A;}
	.st8{fill:#D0584B;}
	.st9{fill:#6EC2CA;}
	.st10{fill:#AA7A00;}
	.st11{fill:#F8BB25;}
	.st12{fill:#E5A812;}
	.st13{fill:#FFD262;}
	.st14{fill:#81EB6F;}
	.st15{fill:#3EA82C;}
</style>
    <polygon class="st0" points="568.5,433.5 568.5,432.8 586.3,432.8 586.3,432.9 622.2,432.9 622.2,433.5 "/>
    <polygon class="st0" points="622,433.3 568.7,433.3 568.7,433 586.1,433 586.1,433.1 622,433.1 "/>
    <polygon class="st0" points="622,433.4 568.6,433.4 568.6,432.9 586.2,432.9 586.2,433 622,433 "/>
    <polyline class="st0" points="586,433.1 568.8,433.1 568.8,433.2 622,433.2 586,433.2 586,433.1 "/>
    <path class="st0" d="M585.7,433.5v-0.7h36.1v-45.3h-15v-88.6h30.1v-8.6h55.3v143.2H585.7z M691.6,432.9v-142h-54.1v8.6h-30.1v87.4
	h15l0,46H691.6z"/>
    <path class="st0" d="M692,433.3H585.9V433H622v-45.7h-15v-88.2h30.1v-8.6H692V433.3z M622.2,433.1h69.6V290.7h-54.5v8.6h-30.1v87.8
	h15L622.2,433.1z"/>
    <path class="st0" d="M692.1,433.4H585.8v-0.5h36.1v-45.5h-15V299H637v-8.6h55.1V433.4z M622.3,433h69.4V290.8h-54.3v8.6h-30.1V387
	h15V433z"/>
    <path class="st0" d="M691.9,290.6h-54.7v8.6h-30.1v88h15V433H586v0.1h105.9V290.6"/>
    <path class="st0" d="M636.9,290.9v-6.1h15.8v2.7h7.2v-2.7h8.4v2.7h8v-2.7h18.6l0,6.1H636.9z M694.3,290.3v-4.9H677v2.8h-9.2v-2.7
	h-7.2v2.7h-8.4v-2.7h-14.6l-0.1,4.8H694.3z"/>
    <path class="st0" d="M694.7,290.7h-57.6V285h15.4v2.7h7.6V285h8v2.7h8.4V285h18.2L694.7,290.7z M637.3,290.5h57.2v-5.3h-17.8v2.8
	H668v-2.7h-7.6v2.7h-8v-2.7h-15L637.3,290.5z"/>
    <path class="st0" d="M694.8,290.8H637v-5.9h15.6v2.7h7.4v-2.7h8.2v2.7h8.2v-2.7h18.4V290.8z M637.4,290.4h57v-5.1h-17.6v2.7h-9v-2.7
	h-7.4v2.7h-8.2v-2.7h-14.8V290.4z"/>
    <polyline class="st0" points="694.6,285.1 676.7,285.1 676.7,287.9 668.1,287.9 668.1,285.1 660.2,285.1 660.2,287.9 652.4,287.9
	652.4,285.1 637.2,285.1 637.2,290.6 694.6,290.6 694.6,285.1 "/>
    <path class="st0" d="M606.8,299.5V270h30.7l0,29.5H606.8z M636.9,298.9v-28.3h-29.5v28.3H636.9z"/>
    <path class="st0" d="M637.3,299.3H607v-29.1h30.3L637.3,299.3z M607.2,299.1h29.9v-28.7h-29.9V299.1z"/>
    <path class="st0" d="M637.4,299.4h-30.5v-29.3h30.5V299.4z M607.3,299H637v-28.5h-29.7V299z"/>
    <path class="st0" d="M637.2,270.3h-30.1v28.9h30.1L637.2,270.3"/>
    <path class="st0" d="M652.1,288.2V270h8.4v18.2H652.1z M660,287.6v-17h-7.2v17H660z"/>
    <path class="st0" d="M660.3,288h-8v-17.8h8V288z M652.5,287.8h7.6v-17.4h-7.6V287.8z"/>
    <path class="st0" d="M660.5,288h-8.2v-18h8.2V288z M652.6,287.6h7.4v-17.2h-7.4V287.6z"/>
    <polyline class="st0" points="660.2,270.3 652.4,270.3 652.4,285.1 652.4,287.9 660.2,287.9 660.2,285.1 660.2,270.3 "/>
    <path class="st0" d="M667.8,288.2V270h9.2l0,18.2H667.8z M676.3,287.6v-17h-8v17H676.3z"/>
    <path class="st0" d="M676.8,288H668v-17.8h8.8L676.8,288z M668.2,287.8h8.4v-17.4h-8.4V287.8z"/>
    <path class="st0" d="M676.9,288h-9v-18h9V288z M668.3,287.6h8.2v-17.2h-8.2V287.6z"/>
    <polyline class="st0" points="676.7,270.3 668.1,270.3 668.1,285.1 668.1,287.9 676.7,287.9 676.7,285.1 676.7,270.3 "/>
    <path class="st1" d="M246,433.7v-0.2l-0.2,0v-0.4h110.1v0.6H246z M252.8,372.1c-1.4,0-3.3-1.9-3.9-3.5c-0.5-1.7-0.7-3.4-0.6-5.1
	l0-1.6c-0.8-18.3-1.7-36.6-2.5-54.9c0-31.4,0.1-53.7,0.3-74.7c0.3-6.5,2.4-12.8,6.2-18.1c9-12.4,18.8-24.9,28.2-36.9l0.3-0.3
	c3.9-4.9,7.8-9.9,11.9-15.2l0.5-0.7v0.9c0,6.8,0,13.3,0.1,19.5c0,3,0,5.9,0,8.8c0,2.8,0,5.6,0,8.5c4.6,0,8.3,0,14.1,0.2
	c0-6.4-0.1-13.5-0.2-19.2c-0.1-7-0.1-12.7-0.1-18.1v-0.9l0.5,0.7c1.5,1.9,2.3,3.1,2.7,3.7l0.1,0.1c5.3,6.7,10.6,13.2,15.7,19.5
	c8.3,10.2,16.9,20.7,25.1,31.7l0,0.1V287h-11.6v-0.2c-1.2-6.3-2.2-11.5-3-16.3c-1.4-8-2.6-16.2-3.6-22.7c-0.3-1.9-0.6-3.7-0.8-5.4
	c-1.9,10.2-8.2,44.4-8.2,44.4v0.2l-0.2,0h-11.7v62.2l-1.3,0.1c0,0-1.6-1.7-2.3-2.5c-1.1-1.1-2.1-2.2-3.1-3.4
	c-4.2-4.6-9.5-10.2-14.3-15.9c-1-1.2-1.1-3-1.3-5c0-0.9-0.1-1.7-0.3-2.6c-0.2-1.3-0.5-2.5-0.8-3.7h-0.1c-0.1,0-0.2,0-0.2,0
	c-0.3,0-0.7,0.1-1,0.2c-0.5,1.1-0.7,2.2-0.8,3.4c0,0.8,0,1.5,0.2,2.3c0.2,1.5,0.4,3-0.3,3.8c-4.6,5.6-9.4,11-14.5,16.7l-1.4,1.6
	c-1.4,1.5-2.8,3.1-4.2,4.7l-1.5,1.7l-0.3,0.3l-3.7-21.7c-2.3,6.1-3.6,12.5-3.9,19c-0.2,3.3-0.3,6.5-0.3,10.2c0,3.4-0.1,6.6-0.3,9.9
	C256.3,369.8,254.2,372.1,252.8,372.1L252.8,372.1z"/>
    <path class="st1" d="M246,433.5v-0.2h109.7v0.2L246,433.5L246,433.5z M252.8,371.9c-1.3,0-3.2-1.9-3.7-3.4c-0.5-1.6-0.7-3.4-0.6-5.1
	c0-0.5,0-1.1,0-1.6c-0.8-18.3-1.7-36.6-2.5-54.9c0-30.1,0.1-53.2,0.3-74.7c0.3-6.5,2.4-12.7,6.2-17.9c8.9-12.2,18.2-24.2,28.2-36.9
	c3.9-5,8-10.1,12.1-15.5l0.2-0.2v0.3c0,6.8,0,13.3,0.1,19.5c0,5.9,0,11.7,0,17.5c4.8,0,8.5,0,14.5,0.2c0-6.2-0.1-12.9-0.2-19.4
	s-0.1-12.6-0.1-18.1v-0.3l0.2,0.2c1.5,1.9,2.3,3.1,2.7,3.7l0.1,0.1c5.2,6.6,10.5,13.1,15.7,19.4c8.3,10.2,17,20.8,25.1,31.7v70.2
	H340v-0.1c-1.2-6.3-2.2-11.5-3-16.2c-1.4-8-2.6-15.8-3.6-22.7c-0.4-2.4-0.7-4.6-1-6.6c-1.5,8.4-8.4,45.5-8.4,45.5v0.1H312v62.3
	l-1,0.1c-1.9-2-3.6-3.9-5.4-5.8c-4.8-5.1-9.7-10.4-14.3-15.9c-1-1.2-1.1-3-1.2-4.9c0-0.8-0.1-1.7-0.3-2.5c-0.2-1.3-0.5-2.6-0.9-3.9
	c0,0,0,0-0.1,0h-0.2c-0.5,0-1,0-1.4,0.3c-0.5,1.1-0.8,2.3-0.9,3.6c0,0.8,0,1.6,0.2,2.4c0.2,1.5,0.4,2.9-0.3,3.6
	c-5,6.1-10.3,12-15.9,18.3c-1.8,2-3.7,4.1-5.6,6.2l-0.1,0.1l-3.8-22.1c-2.4,6.3-3.8,13-4.2,19.7c-0.2,3.4-0.3,6.9-0.3,10.2
	s-0.1,6.6-0.3,9.8C256.2,369.7,254.1,371.9,252.8,371.9L252.8,371.9z"/>
    <path class="st1" d="M252.9,372c-1.4,0-3.3-1.9-3.8-3.4c-0.6-1.6-0.6-3.4-0.6-5.1c0-0.5,0-1.1,0-1.6l-2.5-54.9
	c0-30.1,0.1-53.2,0.3-74.7c0.3-6.5,2.4-12.7,6.2-18c8.8-12.1,18.1-24,27.9-36.5c4-5.1,8.2-10.4,12.4-15.9l0.4-0.5v0.6
	c0,6.8,0,13.3,0.1,19.5c0,5.9,0.1,11.6,0.1,17.4c4.7,0,8.4,0,14.3,0.2c0-6.1-0.1-12.8-0.2-19.3c-0.1-6.5-0.2-12.6-0.2-18.1v-0.6
	l0.4,0.5c1.5,1.9,2.3,3.1,2.7,3.7c0,0,0.1,0.1,0.1,0.1c5,6.3,10.1,12.6,15.1,18.6c8.5,10.5,17.4,21.3,25.8,32.6l0,0.1v70.3h-11.4
	l-0.8-4.4c-0.8-4.1-1.5-8-2.2-12c-1.4-7.9-2.6-15.8-3.6-22.7c-0.3-2.2-0.6-4.2-0.9-6.1c-1.5,8.3-8.3,44.9-8.3,44.9l0,0.2h-11.9v62.3
	l-1.2,0.1l-0.1-0.1c-1.6-1.8-3.3-3.6-4.9-5.3c-4.9-5.3-10-10.7-14.7-16.3c-1-1.2-1.1-3.1-1.2-4.9c-0.1-0.9-0.1-1.7-0.2-2.5
	c-0.2-1.3-0.5-2.5-0.8-3.8c0,0,0,0,0,0c0,0-0.1,0-0.1,0c-0.6,0-1.3,0.1-1.3,0.2c-0.5,1.1-0.8,2.3-0.9,3.5c0,0.7,0.1,1.5,0.2,2.3
	c0.2,1.5,0.4,2.9-0.3,3.8c-5,6.1-10.3,12-15.9,18.2c-1.8,2-3.7,4.1-5.6,6.3l-0.3,0.3L261,329c-2.3,6.2-3.7,12.7-4,19.3
	c-0.2,3.4-0.3,6.8-0.3,10.2c0,3.2-0.1,6.6-0.3,9.8C256.3,369.7,254.1,372,252.9,372L252.9,372z"/>
    <path class="st1" d="M355.7,433.4L355.7,433.4 M307.4,161.7c0,11.2,0.3,25.5,0.3,37.6c-6.1-0.2-9.9-0.2-14.7-0.2
	c0-12-0.1-23.8-0.1-37.1c-14.7,19-28,35.4-40.3,52.4c-3.7,5.2-5.9,11.4-6.2,17.9c-0.3,24.9-0.3,49.8-0.3,74.7
	c0.8,18.3,1.7,36.6,2.5,54.9c0.1,2.2-0.1,4.6,0.7,6.6c0.5,1.4,2.4,3.3,3.6,3.3l0,0c1.1,0,3.2-2.1,3.3-3.5c0.5-6.7,0.1-13.4,0.6-20
	c0.4-6.9,1.8-13.7,4.3-20.1c1.1,6.8,2.3,13.7,3.7,22.2c7.8-8.8,14.8-16.5,21.5-24.5c1-1.2,0-3.9,0.1-5.9c0.1-1.2,0.4-2.5,0.9-3.6
	c0.1-0.2,1-0.3,1.5-0.3c0.1,0,0.2,0,0.3,0c0.4,1.3,0.7,2.6,0.9,3.9c0.5,2.5,0,5.7,1.5,7.4c6.2,7.5,13,14.5,19.6,21.6l0.9-0.1v-62.3
	h11.9c3.1-16.6,6-32.2,8.5-46.1c1.2,7.9,2.8,18.9,4.7,29.9c0.9,5.4,2,10.7,3,16.2h11.1v-70c-13.2-17.7-27.1-33.9-40.8-51.2
	c0-0.1-0.1-0.1-0.1-0.1C309.7,164.8,308.9,163.6,307.4,161.7"/>
    <path class="st2" d="M386.6,433v-0.2c-0.6-6.8-1.6-13.5-3-20c-1.4-6.7-2.4-13.6-3-20.5h-1.2l-1.2-0.1l-0.4,1.8
	c-0.6,2.4-1.2,4.7-1.8,7.1v0.2l-0.2,0h-19.9v-10.9c-0.1-19.1-0.1-38.5-0.2-57.3l0-7.7c-0.1-30.5-0.2-62-0.4-93V232
	c0-4.4,0-9.3-2.2-12.3c-0.4-0.5-0.7-1-1.1-1.5c-0.4-0.5-0.7-1-1-1.4l0-0.1v-58.4h5.3V87.9h25.3V61h13.7V38.5h4.8V-0.2h1.8v38.7h4.8
	V61h13.7v26.8h25.5v70.5h5.1V215h-0.2l-1.9,0.4l-3.2,0.6l0,217H386.6z M444.8,432.4V215.5h0.2l3.5-0.7l1.6-0.3V159H445V88.5h-25.5
	V61.6h-13.7V39.1h-4.8V0.4h-0.6v38.7h-4.8v22.6H382v26.9h-25.3V159h-5.3v57.6c0.7,0.9,1.3,1.8,2.1,2.8c2.3,3.1,2.3,8.1,2.3,12.5
	l0,0.7c0.2,30.9,0.3,62.3,0.4,92.7l0,8c0.1,18.8,0.1,38.2,0.2,57.2v10.3h18.9c0.6-2.3,1.2-4.6,1.7-6.9l0.6-2.2h3.5v0.4
	c0.6,6.9,1.6,13.9,3,20.7c1.4,6.5,2.4,13.1,3,19.7H444.8z"/>
    <path class="st2" d="M445.2,432.8h-58.4v-0.1c-0.6-6.7-1.6-13.4-3-20c-1.4-6.8-2.4-13.7-3-20.6h-1.4L378,392l-0.5,1.9
	c-0.6,2.4-1.2,4.7-1.8,7.1v0.1h-19.7V401c0-2.8,0-5.3,0-7.7v-2.9c-0.1-20.1-0.1-40.6-0.2-60.3c-0.1-32-0.2-65-0.4-97.6V232
	c0-4.4,0-9.4-2.3-12.4c-0.8-1-1.5-2-2.1-2.9l0,0v-58.1h5.3V88.1h25.3V61.2h13.6V38.7h4.8V0h1.4v38.7h4.8v22.6H420v26.8h25.5v70.5
	h5.1v56.2h-0.1l-1.9,0.4l-3.4,0.7L445.2,432.8z M386.9,432.6H445V215.7h0.1l3.5-0.7l1.8-0.4v-55.9h-5.1V88.3h-25.5V61.4h-13.6V38.9
	h-4.8V0.2h-1v38.7h-4.8v22.6h-13.7v26.8h-25.3v70.5h-5.3v57.9c0.7,0.9,1.4,1.8,2.1,2.9c2.3,3.1,2.3,8.1,2.3,12.5v0.6
	c0.2,32.5,0.3,65.6,0.4,97.6c0.1,19.8,0.1,40.2,0.2,60.3v2.9c0,2.4,0,4.8,0,7.6h19.3c0.6-2.4,1.2-4.7,1.8-7.1l0.5-2.1h0.1h1.5h1.5
	h0.2v0.2c0.6,7,1.6,13.9,3,20.7C385.4,419.3,386.4,425.9,386.9,432.6L386.9,432.6z"/>
    <path class="st2" d="M445.3,432.9h-58.6l0-0.2c-0.5-6.5-1.7-13.3-3-19.8c-1.3-6.8-2.6-13.9-3-20.7l-2.7-0.1l-0.4,1.6
	c-0.6,2.4-1.2,4.9-1.8,7.4l0,0.2h-19.8v-10.8c-0.1-20.1-0.1-40.2-0.2-60.3c-0.1-32-0.2-65-0.4-97.5l0-0.6c0-4.4,0-9.3-2.2-12.3
	c-0.3-0.4-0.6-0.8-0.9-1.2c-0.4-0.5-0.8-1.1-1.2-1.7l0-0.1v-58.3h5.3V88h25.3V61.1h13.7V38.6h4.8V-0.1h1.6v38.7h4.8v22.5H420V88
	h25.5v70.6h5.1v56.4l-5.3,1V432.9z M387.1,432.5h57.9V215.6l5.3-1V159h-5.1V88.4h-25.5V61.5H406V39h-4.8V0.3h-0.8V39h-4.8v22.6
	h-13.7v26.9h-25.3v70.5h-5.3v57.7c0.4,0.6,0.8,1.1,1.2,1.6c0.3,0.4,0.6,0.8,0.9,1.2c2.3,3.1,2.3,8.1,2.3,12.6l0,0.6
	c0.2,32.5,0.3,65.6,0.4,97.5c0.1,20.1,0.1,40.2,0.2,60.3v10.4h19.1c0.6-2.4,1.2-4.8,1.8-7.2l0.5-1.9l3.3,0.1l0,0.2
	c0.4,6.8,1.7,14,3,20.8C385.3,419.3,386.6,426,387.1,432.5z"/>
    <path class="st2" d="M401.4,0.1h-1.2v38.7h-4.8v22.6h-13.6v26.8h-25.3v70.5h-5.3v58c0.7,1,1.4,1.9,2.1,2.9c2.4,3.2,2.3,8.6,2.3,13.1
	c0.3,52.6,0.4,105.3,0.6,157.9c0,3.3,0,6.6,0,10.5h19.5c0.8-3.1,1.5-6.1,2.3-9.1l3,0.1c0.8,13.3,5,27.3,6,40.7h58.2V215.8l5.3-1v-56
	h-5.1V88.2h-25.6V61.3h-13.6V38.8h-4.8V0.1"/>
    <path class="st3" d="M349.7,401.4V298.9l-2.2-0.2l-3.7,7.9l-0.2-0.9c-0.7-3.7-1.4-7.3-2.1-10.8c-0.3-1.4-1.6-8.1-1.6-8.1l0-0.4h11
	v-70.6l2.7,3.6c2.3,3.1,2.3,8.2,2.3,12.6v0.6c0.2,31.6,0.3,63.7,0.4,94.8l0,2.8c0.1,20.1,0.1,40.2,0.2,60.3v10.9H349.7z
	 M311.6,286.4h12.6v0.3c-1.2,6.3-2.3,12.7-3.5,19.2l-0.2,0.9l-4.1-8.1l-2.4,0.2v50.2l-2.3,0.2L311.6,286.4z"/>
    <path class="st3" d="M349.9,401.2V298.7l-2.6-0.2l-3.5,7.4l-0.1-0.3c-0.7-3.7-1.4-7.3-2.1-10.8c-0.5-2.8-1.1-5.4-1.6-8.1v-0.1h11
	v-70.2l2.3,3.1c2.3,3.1,2.3,8.1,2.3,12.5v0.6c0.2,32.5,0.3,65.6,0.4,97.6c0.1,20.1,0.1,40.2,0.2,60.3v10.6H349.9z M311.8,286.6h12.1
	v0.1c-1.2,6.3-2.3,12.6-3.5,19.2l-0.1,0.3l-3.9-7.7l-2.8,0.2V349l-1.9,0.1L311.8,286.6z"/>
    <path class="st3" d="M349.8,401.3V298.8l-2.4-0.2l-3.6,7.7l-0.1-0.6c-0.8-3.9-1.5-7.6-2.2-11.2c-0.5-2.6-1-5.2-1.5-7.7l0-0.2h11.1
	v-69.9l0.2-0.2l0.2,0.2l2.1,2.9c2.3,3.2,2.3,8.5,2.3,12.8v0.4c0.2,32.5,0.3,65.6,0.4,97.5c0.1,20.1,0.1,40.2,0.2,60.3v10.8H349.8z
	 M311.7,286.5H324l0,0.2c-1.2,6.3-2.3,12.7-3.5,19.2l-0.1,0.6l-4-7.9l-2.6,0.2v50.2l-2.1,0.1V286.5z"/>
    <path class="st3" d="M323.8,286.7h-11.9V349l1.7-0.1v-50.2l2.9-0.3l3.8,7.5C321.5,299.4,322.6,293,323.8,286.7 M351.1,216.7v70
	h-11.1c1.2,6,2.4,12.2,3.7,18.9c1.6-3.4,2.5-5.3,3.4-7.2l2.7,0.2v102.5h6.2c0-3.9,0-7.2,0-10.5c-0.2-52.6-0.3-105.3-0.6-157.9
	c0-4.4,0.1-9.9-2.3-13.1L351.1,216.7"/>
    <path class="st4" d="M355.4,432.3h31.8v0.2c0,0.3,0,0.6,0,0.8l0,0.3l-31.9,0V432.3z M176.2,433.7v-0.6h12.6v-22.5l0.5,0.3
	c2.4,1.7,4.7,3.6,7.1,5.6l0.5,0.4c2.8,2.4,6.4,5.3,10.6,8.3c7,4.7,15.1,7.2,23.5,7.3c5.9,0,11-1.5,14.9-4.2l0.5-0.3v5.7H176.2z
	 M245.9,370.1c-11.1-16.8-31.3-29.4-56.9-35.4h-0.2l0-0.2v-83.8c1.6-30.5,2.8-61.5,3.9-91.4c0.4-11.5,0.9-23,1.4-34.5
	c0.2-4.7,0.4-9.5,5.2-13.2c1.7-1.3,2.8-4.8,2.8-7.5c0.2-16.6,0.2-33.5,0.2-49.8V30.6h2.6v79.6h22.5V30.6h2.9v2.3
	c-0.3,40.9-0.1,61.2,0,71.1c0,2.5,1.5,4.7,3.1,7.1l0.2,0.3c0.6,0.9,1.2,1.8,1.7,2.7c0.3,0.6,0.5,1.3,0.9,2.1c1,1.8,1.6,3.8,1.9,5.8
	c1.8,38.6,3.6,78.8,5.2,114.2c0.5,12.1,1.1,24.1,1.6,36.2c0.5,11.5,1,23,1.6,34.5l0,63.3l-0.4,0.1L245.9,370.1z"/>
    <path class="st4" d="M355.6,433.5v-1H387v0.1c0,0.3,0,0.5,0,0.8v0.1L355.6,433.5z M176.4,433.5v-0.2h0.1H189V411l0.2,0.1
	c2.6,1.8,5,3.8,7.6,6c3,2.5,6.4,5.3,10.6,8.3c7,4.7,15.2,7.2,23.6,7.3c5.9,0,11.1-1.5,15.1-4.2l0.2-0.1v5.2L176.4,433.5z M246.1,370
	c-11.1-16.9-31.4-29.5-57-35.5H189v-83.8c1.6-30.4,2.8-61.4,3.9-91.4c0.4-11.5,0.9-23,1.4-34.5c0.2-4.6,0.4-9.4,5.1-13
	c1.8-1.4,2.9-5,2.9-7.6c0.2-16.6,0.2-33.5,0.1-49.8c0-4.9,0-9.8,0-14.6v-8.9h2.2v79.6h22.9V30.8h2.5v2.1c-0.3,42.6-0.1,62.1,0,71.1
	c0,2.6,1.6,5,3.3,7.6c0.6,0.9,1.2,1.8,1.7,2.7c0.3,0.7,0.6,1.4,0.9,2.1c1,1.8,1.6,3.7,1.8,5.8c1.8,38,3.5,76.7,5.2,114.1
	c0.5,12.1,1.1,24.1,1.6,36.2c0.5,11.5,1,23,1.6,34.5c0,9.3,0,18.6,0,27.9C246.2,346.6,246.2,358.3,246.1,370l0.1,0.3L246.1,370z"/>
    <path class="st4" d="M355.5,433.6v-1.2H387l0,0.2c0.1,0.3,0.1,0.5,0.1,0.8v0.2H355.5z M176.5,433.6v-0.4h12.4v-21.9l-0.5-0.3h0.5
	v-0.2l0.2,0.2h0.1l0,0.1c2.5,1.8,5,3.8,7.5,5.9c3,2.5,6.4,5.3,10.6,8.3c7,4.7,15.1,7.3,23.6,7.4c0.3,0,0.5,0,0.8,0
	c5.1,0,10-1.5,14.3-4.3l0.3-0.2v5.5H176.5z M245.9,370.1c-11.1-16.9-31.3-29.5-56.9-35.5l-0.2,0v-83.9c1.6-30.4,2.8-61.5,3.9-91.5
	c0.4-11.5,0.9-23,1.3-34.4c0.2-4.7,0.4-9.5,5.2-13.2c1.8-1.4,2.9-4.9,2.9-7.6c0.2-16.6,0.2-33.4,0.2-49.7c0-4.9,0-9.8,0-14.6v-9h1.8
	l0.1,0l0.3,0h0.2v79.6h22.6V30.7h2.7c0,0,0,2,0,4.1c-0.1,12.5-0.3,50.7,0,69.2c0,2.6,1.6,5,3.3,7.5c0.6,0.9,1.2,1.8,1.7,2.7
	c0.3,0.7,0.6,1.4,0.9,2.1c0.9,1.9,1.8,3.8,1.9,5.8c2.3,50.3,4.6,100.9,6.8,150.4c0.5,11.5,1,23,1.5,34.5c0,21,0.1,42,0.1,63v0.7
	L245.9,370.1z"/>
    <path class="st4" d="M386.9,432.7h-31.2v0.8h31.2C386.9,433.2,386.9,432.9,386.9,432.7 M189.1,411.1v22.3h-12.6l0,0h69.6v-4.9
	c-4.5,2.9-9.8,4.4-15.1,4.3c-8.4-0.1-16.7-2.7-23.7-7.4C199.5,419.9,194.6,415,189.1,411.1 M204.1,30.9h-1.6v8.8
	c0,21.5,0.1,42.9-0.1,64.4c0,2.7-1.1,6.3-2.9,7.7c-4.6,3.5-4.9,7.9-5.1,13c-1.7,42-3.1,84-5.2,125.9v83.7
	c24.2,5.7,45.4,17.8,57,35.6c0-21,0-42-0.1-63c-0.5-11.5-1-23-1.6-34.5c-2.2-50.1-4.5-100.2-6.8-150.4c-0.1-2.7-1.7-5.3-2.8-7.8
	c-2.1-3.5-5-6.7-5.1-10.3c-0.4-21.7,0-70.6,0-73.1h-2.3v79.6h-23V30.9L204.1,30.9"/>
    <path class="st5" d="M245.8,433.7v-5.3l0.1-0.1c4.5-3.2,7.4-8,8.4-14.2c2.9-16.3,0-31.1-8.5-44.1l0,0v-63.3h0.6l0,0.2
	c0.8,18.3,1.7,36.6,2.5,54.9l0,1.6c-0.1,1.7,0.1,3.3,0.6,4.9c0.5,1.3,2.2,3,3.3,3.1c1.1,0,2.9-2.1,3-3.2c0.2-3.2,0.2-6.6,0.3-9.8
	c0-3,0.1-6.7,0.3-10.2c0.4-6.9,1.8-13.7,4.3-20.1l0.4-1l3.8,22.7c1.8-2,3.6-4,5.3-5.9l0.1-0.2c5.5-6.2,10.7-12,15.6-17.9
	c0.6-0.7,0.4-2,0.2-3.3c-0.1-0.8-0.2-1.6-0.2-2.4c0.1-1.3,0.4-2.5,0.9-3.7c0.2-0.5,1.4-0.5,1.8-0.5c0.3,0,0.6,0,0.6,0.3
	c0.4,1.3,0.6,2.6,0.9,3.9c0.1,0.9,0.2,1.8,0.3,2.6c0.1,1.8,0.2,3.6,1.1,4.7c4.5,5.4,9.4,10.7,14.2,15.8l0.4,0.5
	c1.6,1.8,3.3,3.5,4.9,5.3l0.3,0l0.8,0v83.7H356v1.4L245.8,433.7z M323.4,287l8.6-46.6h0.5l0,0.2c0.2,1.3,0.4,2.6,0.6,4l0.5,3.2
	c1.2,8.1,2.4,15.8,3.6,22.6c0.9,5,1.8,10.2,3,16.2l0,0.4H323.4z"/>
    <path class="st5" d="M246.1,433.5v-5c4.6-3.3,7.4-8,8.5-14.3c2.9-16.4,0-31.2-8.5-44.2c0-9.4,0-18.6,0-27.9c0-11.7,0-23.4,0-35.1
	h0.2c0.8,18.3,1.7,36.6,2.5,54.9c0,0.5,0,1,0,1.6c-0.1,1.7,0.1,3.4,0.6,5c0.5,1.4,2.3,3.2,3.5,3.2s3.1-2.1,3.2-3.4
	c0.2-3.3,0.2-6.6,0.3-9.8s0.1-6.8,0.3-10.2c0.4-6.9,1.8-13.7,4.3-20.1l0.1-0.3l3.7,22.4c1.9-2.1,3.8-4.2,5.6-6.2
	c5.5-6.2,10.8-12.1,15.8-18.1c0.6-0.7,0.4-2.1,0.2-3.5c-0.1-0.8-0.2-1.6-0.2-2.4c0.1-1.3,0.4-2.5,0.9-3.6c0.1-0.4,1.6-0.4,1.6-0.4
	c0.3,0,0.4,0,0.4,0.1c0.4,1.3,0.6,2.6,0.9,3.9c0.1,0.9,0.2,1.7,0.3,2.6c0.1,1.8,0.2,3.6,1.2,4.8c4.5,5.4,9.5,10.7,14.2,15.8
	c1.8,1.9,3.6,3.9,5.4,5.8l0.4-0.1h0.6v83.7h43.8v1L246.1,433.5z M323.7,286.8l8.5-46.2h0.2c0.3,2.2,0.7,4.6,1.1,7.2
	c1,6.9,2.2,14.7,3.6,22.7c0.8,4.8,1.8,10,3,16.2v0.1H323.7z"/>
    <path class="st5" d="M245.9,433.7v-5.2l0.1-0.1c4.5-3.2,7.4-7.9,8.4-14.2c2.9-16.3,0-31.1-8.5-44.2l0,0l0-0.1c0-21-0.1-42-0.1-63
	v-0.5l0.4,0.4l0,0.1c0.8,18.3,1.7,36.6,2.5,54.9c0,0.5,0,1,0,1.6c0,1.7,0.1,3.5,0.6,5c0.5,1.4,2.2,3.1,3.4,3.1c1,0,3-2.1,3.1-3.3
	c0.2-3.2,0.3-6.6,0.3-9.8c0-3.4,0.1-6.8,0.3-10.2c0.4-6.9,1.8-13.7,4.3-20.1l0.3-0.7l3.8,22.5c1.8-2,3.5-3.9,5.2-5.8
	c5.6-6.3,10.9-12.3,16-18.4c0.6-0.7,0.4-2,0.2-3.4c-0.1-0.8-0.2-1.7-0.2-2.4c0.1-1.3,0.4-2.5,0.9-3.7c0.2-0.4,1.5-0.5,1.7-0.5h0.5
	l0,0.1c0.4,1.3,0.7,2.6,0.9,4c0.1,0.8,0.2,1.7,0.3,2.6c0.1,1.8,0.2,3.6,1.1,4.7c4.6,5.4,9.5,10.7,14.2,15.8c1.8,1.9,3.5,3.8,5.3,5.7
	l1-0.1v83.7h43.8v1.2H245.9z M323.6,286.9c0,0,6.6-35.5,8.5-46.3l0.1,0l-0.1,0l0-0.3l0.5,0.2l0,0.2l-0.1,0l0.1,0
	c0.3,2,0.7,4.3,1,6.7c1.1,7,2.2,15,3.7,23.1c1,5.2,2,10.7,3.1,16.2l0,0.2H323.6z"/>
    <path class="st5" d="M246.1,307c0,21,0,42,0.1,63c8,12.2,11.6,27.1,8.5,44.3c-1.2,6.7-4.3,11.3-8.5,14.3v4.9h109.5v-0.8h-43.8V349
	l-0.9,0.1c-6.6-7.2-13.4-14.2-19.6-21.6c-1.4-1.7-1-4.9-1.5-7.4c-0.2-1.3-0.5-2.6-0.9-3.9c0,0-0.1,0-0.3,0c-0.5,0-1.4,0.1-1.5,0.3
	c-0.5,1.1-0.8,2.4-0.9,3.6c-0.1,2,0.9,4.8-0.1,5.9c-6.6,8-13.7,15.7-21.5,24.5c-1.4-8.6-2.6-15.4-3.7-22.2c-2.5,6.4-4,13.2-4.3,20.1
	c-0.5,6.7-0.1,13.4-0.6,20c-0.1,1.3-2.1,3.5-3.3,3.5l0,0c-1.3,0-3.1-1.9-3.6-3.3c-0.7-2-0.6-4.4-0.7-6.6
	C247.8,343.6,246.9,325.3,246.1,307 M332.3,240.6c-2.6,13.9-5.5,29.5-8.5,46.1h16.3c-1.1-5.5-2.1-10.9-3.1-16.2
	C335.1,259.5,333.5,248.5,332.3,240.6"/>
    <path class="st6" d="M355.4,433v-0.3l0.5-26.8v-5.1h19.5l1.4-5.5c0.3-1.2,0.6-2.3,0.9-3.4v-0.2l0.2,0l3.3,0.1l0.1,0.2
	c0.6,7,1.6,13.9,3,20.7c1.4,6.6,2.4,13.3,3,20l0,0.3H355.4z M386.6,432.4c-0.6-6.6-1.6-13.2-3-19.6c-1.4-6.7-2.4-13.6-3-20.5
	l-2.5-0.1c-0.2,0.8-1.1,4.2-1.1,4.2c-0.4,1.5-0.8,3.1-1.2,4.7v0.2l-0.2,0h-19.3v4.5l-0.5,26.5H386.6z"/>
    <path class="st6" d="M387,432.8h-31.4v-0.1l0.5-26.8V401h19.5c0.4-1.6,0.8-3.1,1.2-4.6s0.7-3,1.1-4.4v-0.1h0.1l3,0.1h0.1v0.1
	c0.6,7,1.6,13.9,3,20.7C385.4,419.3,386.4,426,387,432.8L387,432.8z M355.8,432.6h31c-0.6-6.7-1.6-13.3-3-19.9
	c-1.4-6.8-2.4-13.7-3-20.6L378,392c-0.4,1.5-0.7,2.9-1.1,4.4s-0.8,3.1-1.2,4.7v0.1h-19.5v4.7L355.8,432.6z"/>
    <path class="st6" d="M387.1,432.9h-31.6l0.5-27v-5h19.5c0.3-1.3,0.7-2.7,1-4c0.4-1.7,0.8-3.4,1.3-5l0.1,0l0-0.2l3.2,0.1l0,0.2
	c0.4,6.8,1.7,13.8,3,20.6c1.2,6.6,2.5,13.4,3,20L387.1,432.9z M355.9,432.5h30.8c-0.5-6.5-1.7-13.3-3-19.8c-1.3-6.8-2.6-13.7-3-20.5
	l-2.6-0.1c-0.4,1.6-0.8,3.2-1.2,4.9c-0.3,1.4-0.7,2.7-1,4.1l0,0.2h-19.4v4.6L355.9,432.5z"/>
    <path class="st6" d="M377.9,391.9c-0.8,3-1.5,6-2.3,9.1h-19.5v4.8l-0.5,26.8h31.2c-1-13.4-5.2-27.3-6-40.7L377.9,391.9"/>
    <path class="st5" d="M311.6,433v-84.3h1.2l0.6,0v-50.3h0.2l1.5-0.1l1.7-0.1l0.1,0.2l0.4,0.8c0.2,0.5,0.5,1,0.8,1.5
	c0.5,1,1.1,2.2,1.9,3.8l0.3,0.5c0.5-2.9,1-5.7,1.6-8.5c0.6-3.3,1.2-6.5,1.8-9.8v-0.2l0.2,0h16.6v0.2c0.5,2.7,1,5.4,1.6,8.1
	c0.6,3.2,1.3,6.5,2,9.9l3-6.4v-0.2l1.7,0.1l1.5,0.1l0.1,0.2v102.3h6.2v5.1l-0.4,27H311.6z M355.4,432.4l0.5-26.5v-4.5h-6.2V298.9
	l-2.2-0.2l-3.7,7.9l-0.2-0.9c-0.7-3.7-1.4-7.3-2.1-10.8l-0.2-0.9c-0.5-2.3-0.9-4.6-1.4-6.9H324c-0.4,2.1-0.8,4.2-1.2,6.3
	c0,0-2,10.8-2.3,12.6l-0.2,0.9l-0.4-0.8c-1.1-2.2-1.9-3.8-2.5-5.1l-1.1-2.2l-2.4,0.2v50.2h-0.2l-0.9,0.1l-0.6,0v83.1H355.4z"/>
    <path class="st5" d="M355.8,432.8h-44v-83.9h0.1h0.9l0.8,0v-50.3h0.1l1.5-0.1l1.5-0.1h0.1v0.1c0.4,0.8,0.8,1.5,1.2,2.4
	c0.6,1.3,1.4,2.8,2.4,4.8c0.6-3.1,1.1-6.1,1.7-9.1c0.6-3.3,1.2-6.5,1.8-9.8v-0.1h16.4v0.1c0.5,2.7,1.1,5.4,1.6,8.1
	c0.7,3.4,1.4,6.9,2.1,10.5l1.6-3.4l1.7-3.5v-0.1h0.1l1.4,0.1l1.3,0.1h0.1V401h6.2v4.9L355.8,432.8z M312,432.6h43.6l0.5-26.6v-4.7
	h-6.2V298.7l-1.2-0.1l-1.4-0.1l-1.6,3.5l-1.9,4l-0.1-0.3c-0.7-3.7-1.4-7.3-2.1-10.8c-0.5-2.7-1.1-5.4-1.6-8h-16.1
	c-0.6,3.2-1.2,6.4-1.8,9.7s-1.2,6.2-1.7,9.4l-0.1,0.3l-0.1-0.3c-1.1-2.2-1.9-3.8-2.5-5.1l-1.2-2.3l-1.4,0.1l-1.4,0.1V349h-0.1
	l-0.9,0.1H312L312,432.6z"/>
    <path class="st5" d="M355.9,432.9h-44.2v-84.1l1.7-0.1v-50.2l3.2-0.3l3.6,7.1c1.2-6.3,2.3-12.5,3.4-18.6l0-0.2h16.4v0.2l0.2,0
	c0.5,2.6,1,5.3,1.6,8c0.7,3.3,1.3,6.8,2,10.3l3.2-6.8l3.1,0.3v102.5h6.2v5L355.9,432.9z M312.1,432.5h43.4l0.5-26.6v-4.6h-6.2V298.8
	l-2.4-0.2l-3.6,7.7l-0.1-0.6c-0.7-3.8-1.5-7.4-2.2-10.9c-0.5-2.7-1-5.3-1.6-7.8h-16c-1.1,6.2-2.3,12.5-3.5,19l-0.1,0.6l-4-7.9
	l-2.6,0.2v50.2l-1.7,0.1V432.5z"/>
    <path class="st5" d="M340.1,286.7h-16.3c-1.2,6.3-2.3,12.6-3.5,19.2l-3.8-7.5l-2.9,0.3v50.2l-1.7,0.1v83.7h43.8l0.5-26.8v-4.8H350
	V298.6l-2.7-0.2l-3.4,7.2C342.5,298.9,341.3,292.7,340.1,286.7"/>
    <path class="st4" d="M444.8,432.3h5.3V214.4h0.2l7.3-1.4v-32.9h0.2c4.3-0.6,7.5-1.1,11.2-1.6c0,0,0.9-6.7,1.1-8.1v-0.2l0.2,0
	c2.1-1,4.2-2.1,6.4-3.2c4.6-2.5,9-4.9,13.5-5l0.2,0c4.1,0,8.5,2.5,12.7,4.8c2,1.1,4.2,2.4,6.6,3.5h0.2l0,0.1l1.5,8L522,180v32.6
	l12.4,2.6h0.2l0,0.2v108.9h-0.2c-1.2,0.1-2.2,0.1-3.2,0.1c-1.7,0-3.4-0.1-4.8-0.1c-1.6-0.1-3.1-0.1-4.7-0.1c-0.9,0-1.9,0-2.7,0.1
	v108.5l-74.2,0.5V432.3z M450.7,432.6l67.6-0.5V323.7h0.2c1.1-0.1,2.1-0.1,3.1-0.1c1.5,0,3,0.1,4.6,0.1c1.6,0.1,3.2,0.1,4.9,0.1
	c1,0,2,0,2.8-0.1V215.9l-5.3-1.1l-7-1.5h-0.2l0-0.2v-32.4l-4.6-0.7L511,179h-0.2l0-0.2l-1.5-8.1c-2.2-1-4.4-2.2-6.5-3.4
	c-4.3-2.4-8.4-4.8-12.4-4.8h-0.2c-4.3,0.1-8.7,2.4-13.2,4.9c-2.1,1.1-4.2,2.3-6.3,3.2c-0.2,1.3-1.1,8.2-1.1,8.2v0.2l-0.2,0.1
	l-0.1-0.2l0,0.2l-11.1,1.6v32.8l-7.5,1.5V432.6z"/>
    <path class="st4" d="M445,433v-0.5h5.3V214.6h0.1l7-1.4l0.5-0.1v-32.8h0.1c4.3-0.6,7.5-1.1,11.3-1.7c0.4-3.1,0.8-6.1,1.1-8.3v-0.1h0
	c2.2-1,4.4-2.1,6.4-3.3c4.6-2.5,9-4.9,13.4-5h0.2c4,0,8.2,2.3,12.6,4.8c2.1,1.2,4.3,2.4,6.6,3.5h0l0,0l1.5,8.2l5.7,0.9l4.9,0.8v32.6
	l7,1.5l5.5,1.2h0.1v108.7h-0.1c-1,0-2,0.1-3.2,0.1c-1.7,0-3.3-0.1-4.8-0.1h-0.1c-1.5-0.1-3-0.1-4.6-0.1c-1,0-2,0-2.9,0.1v108.4h-0.1
	L445,433z M445.2,432.7L445.2,432.7l73.3-0.4V323.9h0.1c0.9,0,1.9-0.1,3-0.1c1.6,0,3.1,0.1,4.6,0.1h0.1c1.5,0.1,3.1,0.1,4.8,0.1
	c1.1,0,2.1,0,3-0.1V215.7l-5.5-1.2l-7-1.5h-0.1v-32.5l-4.7-0.8l-5.8-0.9H511v-0.1l-1.5-8.2c-2.3-1.1-4.5-2.3-6.6-3.5
	c-4.4-2.5-8.5-4.8-12.5-4.8h-0.2c-4.4,0.1-8.7,2.4-13.3,4.9c-2.1,1.1-4.2,2.3-6.4,3.3c-0.3,2.2-0.7,5.2-1.1,8.3v0.1h-0.1l-11.2,1.7
	v32.8l-0.6,0.1l-6.9,1.4v218L445.2,432.7z"/>
    <path class="st4" d="M445,433.1v-0.7h5.3V214.6l7.5-1.5v-32.8l11.3-1.7c0.4-3.1,0.8-6.1,1.1-8.2l0-0.1l0.1,0c2.2-1,4.3-2.1,6.4-3.3
	c4.6-2.5,9-4.9,13.5-5h0.2v0.4h-0.2c-4.4,0.1-8.7,2.4-13.3,4.9c-2,1.1-4.2,2.3-6.3,3.2c-0.3,2.2-0.7,5.2-1.1,8.3l0,0.1l-11.3,1.7
	v32.8l-7.5,1.5v217.8l67.8-0.5V323.8l0.2,0c0.9-0.1,1.9-0.1,3-0.1c1.6,0,3.1,0.1,4.6,0.1l0.1,0c2.4,0.1,5,0.2,7.7,0.1V215.8
	l-12.6-2.7v-32.6l-10.5-1.7l0-0.1l-1.5-8.1c-2.3-1.1-4.5-2.3-6.6-3.5c-4.4-2.5-8.5-4.8-12.4-4.8V162c4.1,0,8.2,2.3,12.6,4.8
	c2.1,1.2,4.3,2.4,6.6,3.5l0.1,0l0,0.1l1.5,8.1l10.6,1.7v32.6l12.6,2.7v108.8l-0.2,0c-1.1,0.1-2.1,0.1-3.2,0.1
	c-1.7,0-3.3-0.1-4.8-0.1l-0.1,0c-1.5-0.1-3-0.1-4.6-0.1c-1,0-2,0-2.8,0.1v108.4l-0.2,0L445,433.1z"/>
    <path class="st4" d="M490.4,162.2h-0.2c-6.4,0.1-12.7,5.1-19.8,8.2c-0.3,2.2-0.7,5.2-1.1,8.4l-11.3,1.7v32.8l-7.5,1.5v217.9h-5.3
	v0.3l73.6-0.5V324c1-0.1,2-0.1,3-0.1c1.6,0,3.1,0.1,4.7,0.1s3.1,0.1,4.8,0.1c1,0,2.1,0,3.1-0.1V215.6l-12.6-2.7v-32.6l-10.6-1.7
	l-1.5-8.2C502.4,167.1,496.4,162.2,490.4,162.2"/>
    <path class="st6" d="M444.8,433V215.5h0.2l4.4-0.8l1.3-0.3l0,218.6H444.8z M450.1,432.4V215.1l-4.7,0.9v216.4H450.1z"/>
    <path class="st6" d="M450.5,432.8H445V215.7h0.1l4.4-0.9l1.1-0.2L450.5,432.8z M445.2,432.6h5.1V214.9l-0.8,0.2l-4.3,0.8V432.6z"/>
    <path class="st6" d="M450.6,432.8h-5.7V215.6l5.7-1.1V432.8z M445.3,432.4h4.9V215l-4.9,0.9V432.4z"/>
    <path class="st6" d="M450.4,214.7l-5.3,1v216.9h5.3V214.7"/>
    <path class="st7" d="M84.8,433.1l0.2,0c1.5-0.1,3-0.4,4.5-0.7l0.4,0v0.6h6.7v-2.8h0.2c4.1-1.6,8-3.8,11.6-6.4
	c2.8-2.1,5.4-4.1,7.7-5.9l0.6-0.5c11.5-9.1,18.4-14.6,40.6-14.6c9.2,0,16.2,0.9,22,2.9h0.2l0,0.2l-0.6,9.6l-1.9,18.2l-92,0V433.1z
	 M73.7,433.7V432l0.4,0.2c1.6,0.5,3.3,0.8,4.9,1l0.2,0v0.6H73.7z M184,333.6c-2.6-0.5-5.4-1-8.5-1.4h-0.2l-0.1-0.2V229h14.1v21.7
	c-0.2,4.3-0.4,8.5-0.7,12.8c-1.2,21-2.5,43.2-4.3,69.8l0,0.3L184,333.6z"/>
    <path class="st7" d="M85,433.5v-0.2c1.5-0.1,3-0.4,4.5-0.7h0.1v0.6h7.1v-2.8h0.1c4.1-1.6,8-3.8,11.6-6.5c3.1-2.3,5.8-4.5,8.3-6.4
	c11.4-9.1,18.3-14.6,40.5-14.6c9.2,0,16.1,0.9,21.9,2.9h0.1l-0.6,9.6l-1.9,18L85,433.5z M73.9,433.5v-1.2l0.1,0c1.6,0.5,3.3,0.8,5,1
	v0.2H73.9z M184.1,333.4c-2.8-0.5-5.6-1-8.5-1.4h-0.1V229.2h13.7v21.5c-0.2,4.3-0.4,8.5-0.7,12.8c-1.2,21-2.5,43.2-4.3,69.8v0.1
	L184.1,333.4z"/>
    <path class="st7" d="M85,433.6l0-0.4c1.5-0.1,3-0.4,4.5-0.7l0.2-0.1v0.7h6.9v-2.8l0.1,0c4.1-1.6,8-3.8,11.6-6.4
	c3.1-2.3,5.8-4.5,8.3-6.4c11.4-9.1,18.3-14.5,40.6-14.5c9.2,0,16.2,0.9,22,2.9l0.1,0l-0.6,9.6l-1.9,18.1H85z M73.8,433.6v-1.5
	l0.3,0.1c1.6,0.5,3.3,0.8,5,1l0,0.4H73.8z M184,333.5c-2.8-0.5-5.6-1-8.5-1.4l-0.2,0v-103h13.9v21.6l-0.7,12.8
	c-1.3,23.2-2.8,46.7-4.3,69.8l0,0.2L184,333.5z"/>
    <path class="st7" d="M74,432.4v1h5C77.3,433.2,75.6,432.9,74,432.4 M157.2,403.1c-26.9,0-31.1,7.9-48.7,20.9
	c-3.6,2.6-7.5,4.8-11.6,6.5v2.9h-7.3v-0.6c-1.5,0.3-3,0.6-4.5,0.7h91.5l1.9-17.9c0.2-3.2,0.4-6.3,0.6-9.5
	C173.7,404.2,166.9,403.1,157.2,403.1 M189.1,229.3h-13.5v102.6c2.9,0.4,5.7,0.8,8.5,1.4c1.6-23.3,3-46.5,4.3-69.8
	c0.2-4.3,0.5-8.5,0.7-12.8L189.1,229.3"/>
    <path class="st8" d="M176.2,433.7l1.9-18.2c0.2-3.2,0.4-6.3,0.6-9.5l0-0.4l0.4,0.2c3.6,1.2,7,3,10.1,5.2l0.1,0.1v22.7L176.2,433.7z
	 M189,334.7c-1.5-0.4-3.2-0.7-5-1.1h-0.2l-0.1-0.2l0-0.1c1.9-27.5,3.2-49.6,4.3-69.8l0.7-13h0.6v84.3L189,334.7z"/>
    <path class="st8" d="M176.4,433.5l1.9-18c0.2-3.2,0.4-6.3,0.6-9.5v-0.1l0.1,0c3.6,1.2,7,3,10.1,5.1v22.4L176.4,433.5z M189.1,334.5
	c-1.7-0.4-3.4-0.8-5-1.1H184v-0.1c1.9-27.4,3.2-49.6,4.3-69.8c0.2-4.3,0.5-8.5,0.7-12.8h0.2v83.8L189.1,334.5z"/>
    <path class="st8" d="M176.3,433.6l1.9-18.1c0.2-3.2,0.4-6.3,0.6-9.5l0-0.3l0.3,0.1c3.6,1.2,7,3,10,5.2l0.1,0.1v22.6H176.3z
	 M189,334.6c-1.6-0.4-3.3-0.7-5-1.1l-0.2,0l0-0.2c1.8-27.3,3.2-49.5,4.3-69.8c0.2-4.1,0.4-8.3,0.7-12.4v-0.6h0.4l0,0.2l0,0.4v83.6
	L189,334.6z"/>
    <path class="st8" d="M179.1,406c-0.2,3.2-0.4,6.3-0.6,9.5l-1.9,17.9h12.6v-22.2C186,409,182.6,407.2,179.1,406 M189.1,250.7
	c-0.2,4.3-0.4,8.5-0.7,12.8c-1.3,23.3-2.8,46.6-4.3,69.8c1.7,0.3,3.4,0.7,5,1.1L189.1,250.7"/>
    <path class="st7" d="M75.7,278.8V277h-5.1v-48h14.1v49.9H75.7z M84.1,278.2v-48.7H71.2v46.8h3.2v-2l0.4-0.4l0.4,0.4v2h1.1l0,1.9
	H84.1z"/>
    <path class="st7" d="M84.5,278.6h-8.6v-1.9h-1.1v-2.2l0,0l0,0v2.2h-4v-47.6h13.7V278.6z M76.1,278.4h8.2v-49.1H71v47.2h3.6v-2.1
	l0.2-0.2l0.2,0.2v2.1h1.1L76.1,278.4z"/>
    <path class="st7" d="M84.6,278.7h-8.8v-1.9h-5.1v-47.8h13.9V278.7z M76.2,278.3h8v-48.9H71.1v47h3.4v-2.1l0.3-0.3l0.3,0.3v2.1h1.1
	V278.3z"/>
    <polyline class="st7" points="84.4,229.3 70.9,229.3 70.9,276.6 74.7,276.6 74.7,274.5 74.8,274.4 74.9,274.5 74.9,276.6 76,276.6
	76,278.5 84.4,278.5 84.4,229.3 "/>
    <path class="st7" d="M96.5,278.8H84.1v-72.7h91.7v0.1h0.1v126h-0.3c-6.1-0.8-12.2-1.2-18.3-1.2c-21.8,0-43.2,5-60.2,14.2l-0.4,0.3
	V278.8z M97.2,278.2v66.2c17-9.1,38.3-14,60.1-14c6,0,12.1,0.4,18.1,1.2V206.7H84.7l0,71.5H97.2z"/>
    <path class="st7" d="M96.8,345.1v-66.5H84.3v-72.3h91.3v0.1h0.1V332h-0.1c-6.1-0.8-12.2-1.2-18.4-1.2c-21.9,0-43.3,5.1-60.3,14.2
	L96.8,345.1z M84.5,278.4H97v66.4c17-9.1,38.4-14.2,60.3-14.2c6.1,0,12.2,0.4,18.3,1.2V206.5h-91L84.5,278.4z"/>
    <path class="st7" d="M96.6,345.3v-66.6H84.2v-72.5h91.4v0.2h0.2v125.7l-0.2,0c-6-0.8-12.2-1.2-18.3-1.2c0,0,0,0,0,0
	c-21.8,0-43.3,5.1-60.3,14.2L96.6,345.3z M84.6,278.3h12.4v66.3c17-9.1,38.4-14.1,60.2-14.1c0,0,0,0,0,0c6,0,12.1,0.4,18.1,1.2
	V206.6H84.6V278.3z"/>
    <path class="st7" d="M175.6,206.4H84.4v72.1h12.4V345c17.3-9.3,38.7-14.2,60.4-14.2c6.1,0,12.3,0.4,18.4,1.2L175.6,206.4"/>
    <path class="st2" d="M46.7,286.3v-8.1h20.8v-1.9h1.2v-2l0.4-0.4l0.4,0.4v2h1.5v10H46.7z M70.6,285.7V277h-2.4v1.9H47.3l0,6.9H70.6z"
    />
    <path class="st2" d="M71,286.1H46.9v-7.7h20.8v-1.9H69v-2.1l0.2-0.2l0.2,0.2v2.1H71V286.1z M47.1,285.9h23.7v-9.2h-1.5v-2.2l0,0l0,0
	v2.2H68v1.9H47.1L47.1,285.9z"/>
    <path class="st2" d="M71.1,286.2H46.8v-7.9h20.8v-1.9h1.3v-2.1l0.3-0.3l0.3,0.3v2.1h1.5V286.2z M47.2,285.8h23.5v-9h-2.6v1.9H47.2
	V285.8z"/>
    <polyline class="st2" points="69.3,274.4 69.1,274.5 69.1,276.6 67.8,276.6 67.8,278.5 47,278.5 47,286 70.9,286 70.9,276.6
	69.4,276.6 69.4,274.5 69.3,274.4 "/>
    <path class="st9" d="M89.2,433.6v-1.2h0.2c2.5-0.5,5-1.3,7.3-2.2l0.4-0.2v3.6L89.2,433.6z M73.7,286.3h-3.1v-10h3.8v-1.9l0.2-0.3
	l0.2-0.2l0.4,0.4v2h1.1v1.9h8.4v74.9l-0.1,0.1c-3.7,2.9-7.2,6.2-10.4,9.7l-0.5,0.6V286.3z"/>
    <path class="st9" d="M89.4,433.4v-0.8h0.1c2.5-0.5,4.9-1.3,7.3-2.2l0.1-0.1v3.1L89.4,433.4z M73.9,286.1h-3.1v-9.6h3.8v-2.1l0.2-0.2
	l0.1-0.1l0.2,0.2v2.1h1.1v1.9h8.4V353c-3.8,2.9-7.2,6.2-10.4,9.8l-0.2,0.2V286.1z"/>
    <path class="st9" d="M89.3,433.5v-1l0.2,0c2.5-0.5,4.9-1.3,7.3-2.2l0.3-0.1v3.3H89.3z M73.8,286.2h-3.1v-9.8h3.8v-2l0,0l-0.2-0.2
	h0.4l0.1-0.1l0.1,0.1h0.4l-0.2,0.2l0,0v2h1.1v1.9h8.4v74.8l-0.1,0.1c-3.7,2.9-7.2,6.1-10.4,9.6l-0.3,0.4V286.2z"/>
    <path class="st9" d="M96.8,430.5c-2.4,0.9-4.8,1.7-7.3,2.2v0.6h7.3V430.5 M74.8,274.3l-0.1,0.1v2.2h-3.8v9.4H74v76.7
	c3.2-3.5,6.6-6.8,10.4-9.7v-74.5H76v-1.9h-1.1v-2.2L74.8,274.3"/>
    <path class="st9" d="M84.1,278.2h13v66.9l-0.1,0.1c-4.3,2.3-8.5,5-12.4,8l-0.5,0.5V278.2z M84.7,352.4c3.7-2.8,7.7-5.4,11.8-7.6v-66
	H84.7V352.4z"/>
    <path class="st9" d="M84.3,353.2v-74.8h12.6V345l0,0c-4.4,2.3-8.5,5-12.4,8L84.3,353.2z M84.5,278.6v74.2c3.9-3,8-5.6,12.2-7.9
	v-66.3H84.5z"/>
    <path class="st9" d="M84.2,353.4v-75.1H97v66.8l-0.1,0.1c-4.3,2.3-8.5,5-12.4,8L84.2,353.4z M84.6,278.7v73.9
	c3.8-2.9,7.8-5.5,12-7.7v-66.2H84.6z"/>
    <path class="st9" d="M96.8,278.5H84.4V353c3.9-3,8.1-5.7,12.4-8L96.8,278.5"/>
    <path class="st2" d="M-0.2,434V285.7h47.5V433H54v-4.3h13.7l0.1,0c1,0.8,2.1,1.5,3.2,2l0.1,0.1v2.2h3.1l0.1,0.9H-0.2z M70.6,433.3
	v-2c-1.1-0.6-2.1-1.2-3.1-2H54.7v4H70.6z M46.7,433.3v-147H0.4v147H46.7z"/>
    <path class="st2" d="M74.1,433.8H0V285.9h47.1v147.3h7.1v-4.3h13.4l0,0c1,0.8,2.1,1.5,3.3,2.1l0,0v2.2h3.1L74.1,433.8z M0.2,433.5
	h73.7v0h-3.1v-2.3c-1.1-0.6-2.2-1.3-3.2-2H54.5v4.3h-7.5V286.1H0.2V433.5z"/>
    <path class="st2" d="M74.2,433.9H-0.1V285.8h47.3v147.3h6.9v-4.3h13.6l0.1,0c1,0.8,2.1,1.5,3.2,2.1l0.1,0.1v2.2h3.1V433.9z
	 M54.6,433.5h16.1v-2.2c-1.1-0.6-2.2-1.3-3.1-2h-13V433.5z M0.3,433.5h46.5V286.2H0.3V433.5z"/>
    <path class="st2" d="M47,286H0.1v147.6H74v-0.2h-3.1v-2.3c-1.2-0.6-2.2-1.3-3.3-2.1H54.3v4.3H47V286"/>
    <path class="st9" d="M70.6,433.7v-3l0.4,0.2c1,0.5,2,0.9,3.1,1.2h0.2l0,0.2v1.4H70.6z M73.7,433.1v-0.5c-0.9-0.3-1.7-0.6-2.5-1v1.5
	H73.7z"/>
    <path class="st9" d="M74.1,433.5h-3.3V431l0.2,0.1c1,0.5,2,0.9,3.1,1.3h0.1L74.1,433.5z M71,433.3h2.9v-0.8c-1-0.3-2-0.7-2.9-1.2
	V433.3z"/>
    <path class="st9" d="M74.2,433.6h-3.5v-2.5h0.2L71,431c1,0.5,2,0.9,3.1,1.3l0.1,0V433.6z M71.1,433.2h2.7v-0.7
	c-0.9-0.3-1.8-0.7-2.7-1.1V433.2z"/>
    <path class="st9" d="M70.9,431.1v2.3H74v-1C72.9,432.1,71.9,431.6,70.9,431.1"/>
    <path class="st2" d="M46.7,433.6V285.7h24.4v0.1l0.1,0.2v80.6l0,0.1c-4.9,6.4-8.4,13.6-10.3,21.5c-2,8.6-2.3,17.3-0.8,26
	c1.1,6.4,3.7,11.3,7.8,14.6l0.7,0.5H54.7v4.3H46.7z M54,433v-4.3h12.8c-3.8-3.4-6.3-8.2-7.4-14.4c-1.6-8.8-1.3-17.6,0.8-26.3
	c2-7.9,5.5-15.1,10.4-21.6v-80.1H47.3V433H54z"/>
    <path class="st2" d="M54.5,433.4h-7.5V285.9h24v0.1H71v80.5l0,0c-4.9,6.4-8.4,13.7-10.4,21.5c-2,8.6-2.3,17.4-0.8,26.1
	c1.1,6.5,3.7,11.4,7.8,14.7l0.2,0.2H54.5V433.4z M47.1,433.2h7.1v-4.3h13.1c-4-3.3-6.6-8.2-7.7-14.6c-1.5-8.7-1.3-17.6,0.8-26.2
	c2-7.8,5.5-15.2,10.4-21.6v-80.4H47.1V433.2z"/>
    <path class="st2" d="M54.5,433.5h-7.7V285.8h24.1v0.2h0.2v80.6l0,0.1c-10.4,13.7-14.1,29.7-11.1,47.6c1.1,6.4,3.7,11.4,7.8,14.6
	l0.4,0.4H54.5V433.5z M47.2,433.1h6.9v-4.3h13c-3.9-3.3-6.5-8.2-7.5-14.5c-3-18,0.8-34.1,11.1-47.8v-80.2H47.2V433.1z"/>
    <path class="st2" d="M70.9,286H47v147.3h7.3V429h13.3c-3.9-3.1-6.7-7.9-7.9-14.8c-3.2-18.9,1.5-34.9,11.1-47.7L70.9,286"/>
    <path class="st9" d="M70.6,285.7h3.7v77.1l-0.1,0.1c-1.1,1.2-2.1,2.5-3.1,3.9l-0.6,0.7V285.7z M71.2,365.7c0.9-1.1,1.7-2.1,2.5-3.1
	v-76.2h-2.5V365.7z"/>
    <path class="st9" d="M70.8,366.8v-80.9h3.3v76.8l0,0c-1.1,1.3-2.1,2.5-3.1,3.9L70.8,366.8z M71,286.1v80.1c1-1.3,1.9-2.4,2.9-3.6
	v-76.5H71z"/>
    <path class="st9" d="M70.7,367.1v-81.3H74v0.2h0.2v76.7l-0.1,0.1c-1.1,1.2-2,2.4-3.1,3.8L70.7,367.1z M71.1,286.2v79.7
	c0.9-1.2,1.8-2.3,2.7-3.3v-76.4H71.1z"/>
    <path class="st9" d="M74,286h-3.1v80.5c1-1.3,2-2.6,3.1-3.9L74,286"/>
    <path class="st0" d="M81.9,433.8c-1,0-1.9,0-2.9-0.1l-0.2,0v-0.6h6.4v0.6l-0.2,0C83.9,433.8,82.9,433.8,81.9,433.8L81.9,433.8z"/>
    <path class="st0" d="M81.9,433.6c-1,0-2,0-2.9-0.1v-0.2h6v0.2C83.9,433.6,82.9,433.6,81.9,433.6z"/>
    <path class="st0" d="M81.8,433.7c-0.9,0-1.9,0-2.8-0.1l0-0.4h6v0.4h-0.1C83.9,433.7,82.8,433.7,81.8,433.7z"/>
    <path class="st0" d="M85,433.4h-6c1,0.1,1.9,0.1,2.9,0.1C82.9,433.5,83.9,433.5,85,433.4"/>
    <path class="st10" d="M231,433.1c-8.5-0.1-16.8-2.7-23.8-7.5c-4.1-2.9-7.5-5.7-10.5-8.2l-0.1-0.1c-2.5-2.1-5-4.2-7.6-6l-0.1-0.1V334
	h0.3c25.8,6,46.1,18.7,57.3,35.8l0,0v58.8l-0.1,0.1C242.3,431.6,237,433.1,231,433.1L231,433.1z M189.4,411c2.4,1.7,4.7,3.6,7.2,5.6
	l0.5,0.4c3,2.5,6.3,5.3,10.4,8.1c7,4.7,15.1,7.2,23.5,7.3c5.8,0,10.9-1.4,14.8-4.1v-58.3c-11.1-16.8-31.1-29.3-56.4-35.3L189.4,411z
	"/>
    <path class="st10" d="M231,432.9c-8.5-0.1-16.7-2.7-23.7-7.4c-4.2-2.9-7.6-5.8-10.6-8.2c-2.6-2.2-5.1-4.2-7.7-6l0,0v-77h0.1
	c25.7,6,46,18.7,57.1,35.7l0,0v58.7l0,0C242.2,431.4,237,432.9,231,432.9z M189.2,411.1c2.6,1.8,5,3.8,7.6,6c3,2.5,6.4,5.3,10.6,8.2
	c7,4.7,15.2,7.3,23.6,7.4c5.9,0,11.1-1.5,15-4.2V370c-11.1-16.9-31.3-29.5-56.9-35.5L189.2,411.1z"/>
    <path class="st10" d="M231.8,433c-0.3,0-0.5,0-0.8,0c-8.5-0.1-16.7-2.7-23.8-7.4c-4.2-2.9-7.6-5.8-10.6-8.3c-2.6-2.2-5.1-4.2-7.7-6
	l-0.1-0.1v-76.9h0.3l0-0.2c25.6,6,45.9,18.6,57.1,35.7l0,0v58.7l-0.1,0.1C241.9,431.5,237,433,231.8,433z M189.3,411
	c2.5,1.8,5,3.8,7.6,6c3,2.5,6.4,5.3,10.6,8.2c7,4.7,15.1,7.3,23.6,7.4c5.3,0.2,10.5-1.3,14.9-4.2v-58.4
	c-11.1-16.9-31.2-29.5-56.6-35.4V411z"/>
    <path class="st10" d="M189.1,334.4v76.8c5.5,3.8,10.4,8.8,18.2,14.3c7,4.7,15.2,7.3,23.7,7.4c5.4,0.2,10.6-1.3,15.1-4.2V370
	C234.4,352.2,213.2,340,189.1,334.4"/>
    <path class="st11" d="M245.8,368.9l0.5,0.9c8.6,13,11.5,28,8.6,44.5c-1.1,6.4-4,11.2-8.7,14.5l-0.5,0.3V368.9z M246.4,428
	c4.2-3.1,6.9-7.8,7.9-13.8c2.9-16,0.2-30.5-7.9-43.3V428z"/>
    <path class="st11" d="M246,428.7v-59.1l0.2,0.3c8.6,13,11.5,28,8.6,44.4c-1.1,6.3-4,11.1-8.6,14.4L246,428.7z M246.2,370.3v58.1
	c4.4-3.2,7.2-7.9,8.3-14.1C257.5,398,254.6,383.2,246.2,370.3L246.2,370.3z"/>
    <path class="st11" d="M245.9,429v-59.6l0.4,0.6c8.6,13,11.5,28,8.6,44.4c-1.1,6.3-4,11.1-8.6,14.4L245.9,429z M246.3,370.7v57.5
	c4.3-3.2,7.1-7.9,8.1-13.9C257.3,398.2,254.6,383.5,246.3,370.7z"/>
    <path class="st11" d="M246.1,370v58.6c4.2-3,7.4-7.6,8.5-14.3C257.7,397.1,254.2,382.2,246.1,370"/>
    <path class="st12" d="M78.8,433.7L78.8,433.7c-1.6-0.2-3.3-0.5-4.9-1h-0.2l0-0.2v-3.7h16.1v4.3h-0.2c-1.5,0.3-3.1,0.6-4.6,0.7l0,0
	H78.8z M96.5,363.6h78.7v-32h0.3c2.8,0.4,5.7,0.8,8.5,1.4h0.2l0.1,0.2l0,0.1c-0.9,13.1-1.8,26.2-2.7,39.4
	c-0.8,11.1-1.5,22.2-2.3,33.4l0,0.3H179c-5.7-2-12.6-2.9-21.8-2.9c-22.1,0-28.9,5.4-40.2,14.4c-2.5,2-5.2,4.2-8.3,6.4
	c-3.6,2.7-7.5,4.8-11.7,6.5l-0.4,0.2L96.5,363.6z"/>
    <path class="st12" d="M79,433.5c-1.7-0.2-3.4-0.5-5-1h-0.1V429h15.7v3.9h-0.1c-1.5,0.3-3,0.6-4.6,0.7L79,433.5L79,433.5z
	 M96.7,363.8h78.7v-32h0.1c2.8,0.4,5.6,0.8,8.5,1.4h0.1v0.1c-0.9,13.1-1.8,26.2-2.7,39.4c-0.8,11.1-1.5,22.2-2.3,33.4v0.1H179
	c-5.7-2-12.7-2.9-21.8-2.9c-22.1,0-29,5.4-40.4,14.5c-2.4,1.9-5.2,4.1-8.3,6.4c-3.6,2.6-7.5,4.8-11.7,6.5l-0.1,0.1L96.7,363.8z"/>
    <path class="st12" d="M79,433.6c-1.7-0.2-3.4-0.5-5.1-1l-0.1,0v-3.7h15.9l0,0.2v3.8l-0.2,0c-1.5,0.3-3,0.6-4.6,0.7l0,0H79z
	 M96.6,363.7h78.8v-31.6l-0.1,0l0.1-0.2v-0.1l0.1,0l0.3-0.5l0,0.5c2.8,0.4,5.6,0.8,8.3,1.3l0.2,0l0,0.2c-0.9,13.1-1.8,26.2-2.7,39.3
	c-0.8,11.2-1.5,22.3-2.3,33.5l0,0.3l-0.2-0.1c-5.6-2-12.5-2.9-21.8-2.9c-22.1,0-28.9,5.4-40.3,14.5c-2.4,1.9-5.2,4.1-8.3,6.4
	c-3.6,2.6-7.5,4.8-11.7,6.5l-0.3,0.1V363.7z"/>
    <path class="st12" d="M89.5,429H74v3.4c1.6,0.5,3.3,0.8,5,1h6c1.5-0.1,3-0.4,4.5-0.7L89.5,429 M175.6,331.9v32H96.8v66.6
	c4.1-1.6,8-3.8,11.6-6.5c17.6-13,21.8-20.9,48.7-20.9c9.7,0,16.5,1,21.9,2.9c1.6-24.2,3.4-48.5,5-72.7
	C181.3,332.7,178.4,332.3,175.6,331.9"/>
    <path class="st10" d="M188.9,411.4c-3.1-2.2-6.4-3.9-10-5.1h-0.2l0-0.3c0.7-9.4,1.3-18.7,1.9-28.1c0.4-5.5,0.8-11,1.1-16.6
	c0.6-9.3,1.3-18.7,1.9-28l0-0.3h0.3c1.7,0.3,3.4,0.7,5,1.1h0.2l0,0.2l0,77.5L188.9,411.4z M179.4,405.8c3.3,1.2,6.5,2.8,9.4,4.8v-76
	c-1.8-0.4-3.2-0.7-4.4-0.9l-1,14.7c-0.7,9.9-1.3,19.9-2,29.6C180.7,387.2,180,396.5,179.4,405.8z"/>
    <path class="st10" d="M189.2,411.3l-0.2-0.1c-3.1-2.2-6.4-3.9-10-5.1h-0.1V406c0.7-9.4,1.3-18.7,1.9-28.1c1-14.6,2.1-29.7,3.1-44.6
	v-0.1h0.1c1.6,0.3,3.3,0.7,5,1.1h0.1L189.2,411.3z M179.2,405.9c3.5,1.2,6.8,2.9,9.8,5v-76.5c-1.6-0.4-3.2-0.7-4.8-1
	c-1,14.8-2,29.9-3,44.5C180.5,387.3,179.8,396.6,179.2,405.9L179.2,405.9z"/>
    <path class="st10" d="M189.3,411.5l-0.3-0.2c-3.1-2.2-6.4-3.9-9.9-5.1l-0.1-0.1l0-0.2c0.6-9.4,1.3-18.8,1.9-28.1
	c1-14.6,2.1-29.7,3.1-44.6l0-0.2l0.2,0c1.7,0.3,3.4,0.7,5,1.1l0.2,0V411.5z M179.3,405.9c3.4,1.2,6.6,2.8,9.6,4.9v-76.2
	c-1.5-0.3-3.1-0.7-4.6-1c-1,14.8-2,29.8-3,44.4C180.6,387.2,179.9,396.5,179.3,405.9z"/>
    <path class="st10" d="M184.1,333.3c-1.6,24.2-3.3,48.5-5,72.7c3.6,1.2,6.9,3,10,5.1v-76.8C187.4,334,185.7,333.6,184.1,333.3"/>
    <path class="st12" d="M96.5,364.2v-19.5h0.2c17.1-9.2,38.6-14.3,60.5-14.3c6.1,0,12.3,0.4,18.4,1.2h0.2l0.1,0.2v32.4H96.5z
	 M175.3,363.6v-31.4c-6-0.8-12-1.2-18.1-1.2c-21.8,0-43.1,5-60.1,14.1v18.5H175.3z"/>
    <path class="st12" d="M175.7,364H96.7v-19.1h0.1c17.1-9.2,38.5-14.3,60.4-14.3c6.1,0,12.3,0.4,18.4,1.2h0.1L175.7,364z M96.9,363.8
	h78.5V332c-6.1-0.8-12.2-1.2-18.3-1.2c-21.8,0-43.2,5-60.3,14.2L96.9,363.8z"/>
    <path class="st12" d="M175.8,364.1H96.6v-19.2l0.1-0.1c17.1-9.2,38.6-14.3,60.5-14.3v0c0,0,0,0,0,0c6.1,0,12.3,0.4,18.4,1.2l0.2,0
	V364.1z M97,363.7h78.3v-31.6c-6-0.8-12.1-1.2-18.1-1.2c0,0,0,0,0,0v-0.2v0.2c-21.8,0-43.2,5-60.2,14.2V363.7z"/>
    <path class="st12" d="M157.2,330.7c-21.6,0-43.1,4.9-60.4,14.2v18.9h78.7v-32C169.5,331.1,163.3,330.7,157.2,330.7"/>
    <path class="st12" d="M89.2,433v-3.7H73.7v-66.8l0.1-0.1c3.2-3.6,6.7-6.8,10.4-9.7l0.5-0.4v11.2h12.5v67.2H97
	c-2.4,0.9-4.8,1.7-7.4,2.2l0,0L89.2,433z M89.8,428.7v3.6c2.3-0.5,4.5-1.2,6.7-2.1v-66.1H84.1v-10.6c-3.5,2.8-6.8,5.8-9.8,9.2v65.9
	H89.8z"/>
    <path class="st12" d="M89.4,432.8v-3.7H73.9v-66.5l0,0c3.2-3.6,6.6-6.8,10.4-9.7l0.2-0.1v11H97v66.8h-0.1c-2.4,1-4.8,1.7-7.3,2.2
	L89.4,432.8z M74.1,428.9h15.5v3.6c2.4-0.5,4.8-1.3,7.1-2.2V364H84.3v-10.8c-3.7,2.8-7.1,6-10.2,9.5V428.9z"/>
    <path class="st12" d="M89.3,432.9v-3.7H73.8v-66.6l0.1-0.1c3.2-3.6,6.7-6.8,10.4-9.7l0.3-0.2v11.1h12.4v66.9l-0.1,0
	c-2.4,1-4.9,1.7-7.4,2.2L89.3,432.9z M74.2,428.8h15.5v3.6c2.3-0.5,4.7-1.2,6.9-2.1v-66.2H84.2v-10.7c-3.6,2.8-7,5.9-10,9.4V428.8z"
    />
    <path class="st12" d="M84.4,353c-3.8,2.9-7.3,6.1-10.4,9.7V429h15.5v3.7c2.5-0.5,4.9-1.3,7.3-2.2v-66.6H84.4V353"/>
    <path class="st12" d="M84.1,364.2v-11.3l0.1-0.1c3.9-3,8.1-5.7,12.5-8.1l0.4-0.2l0,19.7H84.1z M96.5,363.6v-18.1
	c-4.1,2.2-8.1,4.8-11.8,7.7v10.4H96.5z"/>
    <path class="st12" d="M96.9,364H84.3v-11l0,0c3.9-3,8.1-5.7,12.4-8l0.2-0.1L96.9,364z M84.5,363.8h12.2v-18.7
	c-4.3,2.3-8.4,5-12.2,7.9V363.8z"/>
    <path class="st12" d="M97,364.1H84.2v-11.2l0.1-0.1c3.9-3,8.1-5.7,12.5-8l0.3-0.2V364.1z M84.6,363.7h12v-18.3
	c-4.2,2.3-8.3,4.9-12,7.8V363.7z"/>
    <path class="st12" d="M96.8,345c-4.4,2.3-8.5,5-12.4,8v10.9h12.4V345"/>
    <path class="st13" d="M70.8,431.4c-1.2-0.6-2.3-1.3-3.3-2.1l-0.7-0.5h4.4v2.9L70.8,431.4z M68.5,429.3c0.7,0.5,1.3,0.9,2.1,1.3v-1.3
	L68.5,429.3z"/>
    <path class="st13" d="M71,431.3l-0.1-0.1c-1.2-0.6-2.3-1.3-3.3-2.1l-0.2-0.2H71V431.3z M67.9,429.1c0.9,0.7,1.9,1.3,2.9,1.9v-1.8
	L67.9,429.1z"/>
    <path class="st13" d="M71.1,431.4l-0.3-0.1c-1.2-0.6-2.3-1.3-3.3-2.1l-0.4-0.4h4V431.4z M68.2,429.2c0.8,0.6,1.6,1.1,2.5,1.6v-1.6
	H68.2z"/>
    <path class="st13" d="M70.9,429h-3.3c1,0.8,2.1,1.5,3.3,2.1V429"/>
    <path class="st12" d="M74,432.7c-1.1-0.4-2.2-0.8-3.2-1.3h-0.2l0-0.2v-2.5h3.7v3.9H74z M71.2,430.9c0.8,0.4,1.7,0.8,2.5,1v-2.7h-2.5
	V430.9z"/>
    <path class="st12" d="M74.1,432.5H74c-1.1-0.4-2.1-0.8-3.2-1.3h-0.1V429h3.3V432.5z M71,431.1c0.9,0.5,1.9,0.9,2.9,1.2v-3.1H71
	V431.1z"/>
    <path class="st12" d="M74.2,432.7l-0.3-0.1c-1.1-0.4-2.1-0.8-3.1-1.3l-0.1-0.1v-2.4h3.5V432.7z M71.1,431c0.9,0.4,1.8,0.8,2.7,1.2
	v-2.9h-2.7V431z"/>
    <path class="st12" d="M74,429h-3.1v2.1c1,0.5,2,1,3.1,1.3V429"/>
    <path class="st13" d="M67.5,429.3L67.5,429.3c-4.3-3.4-6.9-8.4-8-15c-1.5-8.8-1.3-17.6,0.8-26.3c2-7.9,5.5-15.2,10.4-21.7l0.1-0.2
	l0.2,0.1h0.2l0,0.2v62.8H67.5z M70.6,428.7v-61.3c-4.6,6.2-7.9,13.2-9.8,20.7c-2,8.6-2.3,17.3-0.8,26c1.1,6.4,3.6,11.3,7.7,14.5
	H70.6z"/>
    <path class="st13" d="M71,429.1h-3.4l0,0c-4.2-3.3-6.8-8.3-7.9-14.8c-1.5-8.7-1.3-17.6,0.8-26.2c2-7.8,5.5-15.2,10.4-21.6l0.1,0.1
	H71V429.1z M67.7,428.9h3.1v-62.1c-4.8,6.3-8.3,13.6-10.2,21.3c-2,8.6-2.3,17.4-0.8,26.1C60.9,420.7,63.5,425.6,67.7,428.9
	L67.7,428.9z"/>
    <path class="st13" d="M71.1,429.2h-3.5l-0.1,0c-4.2-3.3-6.9-8.4-8-14.9c-3-18,0.8-34.1,11.2-47.9l0.2,0.1h0.2V429.2z M67.7,428.8h3
	v-61.7c-10.1,13.6-13.7,29.4-10.7,47.1C61,420.6,63.6,425.5,67.7,428.8z"/>
    <path class="st13" d="M70.9,366.5c-9.7,12.8-14.3,28.8-11.2,47.7c1.1,6.9,4,11.7,7.9,14.8h3.3L70.9,366.5"/>
    <path class="st12" d="M70.6,429.3v-62.9l0.4-0.6c0.9-1.1,1.8-2.2,2.8-3.4l0.5-0.6l0,67.4H70.6z M73.7,428.7v-65.2
	c-0.8,0.9-1.6,1.9-2.3,2.8l-0.2,0.3v62H73.7z"/>
    <path class="st12" d="M74.1,429.1h-3.3v-62.6l0,0c1-1.3,2-2.6,3.2-3.9l0.2-0.2L74.1,429.1z M71,428.9h2.9V363
	c-1.1,1.2-2,2.4-2.9,3.6V428.9z"/>
    <path class="st12" d="M74.2,429.2h-3.5v-62.7l0-0.1c1-1.3,2.1-2.6,3.1-3.9l0.4-0.4V429.2z M71.1,428.8h2.7v-65.6
	c-1,1.1-1.9,2.2-2.7,3.4V428.8z"/>
    <path class="st12" d="M74,362.7c-1.1,1.3-2.1,2.5-3.1,3.9V429H74V362.7"/>
    <path class="st1" d="M518.4,433.4v-1.2L534,432V323.8h0.2V90.1h26.3c0.1-1.7,0.1-3.6,0.2-5.4l0.1-2.9c0-1.8,0.1-3.5,0.2-5.1l0-0.2
	l0.2-0.1c0.2,0,0.4,0,0.7,0c0.7,0,1.9-0.1,3.5-0.1c3.3,0,7.5,0.1,8.8,0.1l0.1,0l0.1-3c0.2-11.1,1-45,1.1-46.4v-0.2l0.2-0.1h2.7
	l0.1,0.2v49.5h10.9v0.3c0,25.5-0.1,51.7-0.2,77l0,12.2c-0.1,25.5-0.2,51.9-0.2,77.8h18.5v26.8H591v14.8h-10.9v4.9h10.8v0.6h-4.6
	v30.5h-17.2v112H518.4z M568.6,432.8v-112h17.2v-29.9h-6.2v-6.1h10.8V270h16.4v-25.6h-18.5v-0.2c0-25.9,0.1-52.1,0.2-77.5l0-14.3
	c0.1-24.8,0.1-50.4,0.1-75.3h-10.9V27.4H576c-0.2,4.2-1.2,48.9-1.2,49.4V77h-0.3c-0.1,0-5.3-0.1-9.2-0.1c-1.9,0-3.2,0-3.8,0.1
	c-0.1,2.1-0.2,4.4-0.2,6.4c0,1.8-0.1,4.5-0.2,7l0,0.2l-0.2,0.1h-26.1v233.7h-0.2v108.2h-0.2l-0.1-0.2l0,0.2l-15.3,0.1v0.1H568.6z"/>
    <path class="st1" d="M568.9,433.2h-50.4v-0.9h0.1l15.5-0.1V324h0.2V90.3h26.2c0.1-2.2,0.2-4.6,0.2-6.9s0.1-4.6,0.2-6.7v-0.1h0.1
	c0.4,0,1.8-0.1,4.1-0.1c3.6,0,8.3,0.1,9.1,0.1c0.1-3.1,1-48,1.2-49.6V27h1.3c0.5,0,1,0,1.2,0h0.1v49.7h10.9v0.1
	c0,27.5-0.1,55.8-0.2,83.1c-0.1,27.6-0.2,56.1-0.2,84.1h18.5v26.4h-16.4v14.9h-10.9v5.3h10.8v0.2h-4.6v30.5h-17.2V433.2z M518.8,433
	h50V321H586v-30.3h-6.2V285h10.8v-14.8H607v-26h-18.5v-0.1c0-28.1,0.1-56.6,0.2-84.2c0.1-27.3,0.2-55.5,0.2-83H578V27.1h-2.2
	c-0.2,2.8-1.2,49.1-1.2,49.6v0.1h-0.1c0,0-5.3-0.1-9.2-0.1c-2.2,0-3.5,0-4,0.1c-0.1,2.1-0.2,4.4-0.2,6.6s-0.1,4.7-0.2,7v0.1h-26.3
	v233.7h-0.2v108.2h-0.1l-15.5,0.1V433z"/>
    <path class="st1" d="M569,433.3h-50.6v-1l0.2,0l15.4-0.1V323.9h0.2V90.2h26.2c0.1-2.2,0.2-4.5,0.2-6.8c0-2.2,0.1-4.6,0.2-6.7l0-0.2
	l0.2,0c0.5-0.1,2.1-0.1,4.1-0.1c3.5,0,8,0.1,9,0.1c0.1-3.8,1-48,1.2-49.5l0-0.2l2.8,0v49.7h10.9v0.2c0,27.5-0.1,55.8-0.2,83.1
	c-0.1,27.5-0.2,56-0.2,84h18.5v26.6h-16.4v14.9H580v5.1h6.2v30.9H569V433.3z M518.9,432.9h49.8v-112h17.2v-30.1h-6.2v-5.9h10.9
	v-14.9h16.4v-25.8h-18.5v-0.2c0-28.1,0.1-56.6,0.2-84.2c0.1-27.2,0.2-55.4,0.2-82.9h-10.9V27.3l-2,0c-0.2,3.5-1.2,49-1.2,49.5l0,0.2
	l-0.2,0c-0.1,0-5.3-0.1-9.2-0.1c-1.8,0-3.3,0-3.9,0.1c-0.1,2.1-0.1,4.3-0.2,6.5c-0.1,2.3-0.1,4.7-0.2,7l0,0.2h-26.2v233.7h-0.2
	v108.2l-0.2,0l-15.4,0.1V432.9z"/>
    <path class="st1" d="M577.6,27h-2c-0.2,1.6-1.2,49.7-1.2,49.7s-5.2-0.1-9.2-0.1c-2,0-3.6,0-4.1,0.1c-0.2,4.3-0.2,9.2-0.4,13.7h-26.2
	v233.7h-0.2v108.2l-15.6,0.1v0.6h50.2v-112H586v-30.5h-6.2v-5.5h10.9v-14.9h16.4v-26.2h-18.5c0-56,0.3-112.1,0.3-167.3H578V27.1
	L577.6,27"/>
    <path class="st14" d="M568.5,433.4V320.8h17.8v112.6H568.5z M585.7,432.8V321.4h-16.6v111.4H585.7z"/>
    <path class="st14" d="M586.1,433.2h-17.4V321h17.4V433.2z M568.9,433h17V321.2h-17V433z"/>
    <path class="st14" d="M586.2,433.3h-17.6V320.9h17.6V433.3z M569,432.9h16.8V321.3H569V432.9z"/>
    <polyline class="st14" points="586,321.1 568.8,321.1 568.8,433.1 586,433.1 586,321.1 "/>
    <path class="st14" d="M585.7,433.4V290.3h5.3v8.6h16.4v88h15l0,46.5H585.7z M621.8,432.8v-45.3h-15v-88h-16.4v-8.6h-4.1v141.9H621.8
	z"/>
    <path class="st14" d="M622.2,433.2h-36.3V290.5h4.9v8.6h16.4v88h15L622.2,433.2z M586.1,433H622v-45.7h-15v-88h-16.4v-8.6h-4.5V433z
	"/>
    <path class="st14" d="M622.3,433.3h-36.5V290.4h4.9v0.2h0.2v8.4h16.4v88h15V433.3z M586.2,432.9h35.7v-45.5h-15v-88h-16.4v-8.6h-4.3
	V432.9z"/>
    <path class="st14" d="M590.7,290.6H586v142.5h36.1v-45.9h-15v-88h-16.4V290.6"/>
    <path class="st14" d="M579.5,290.9v-6.1H591v6.1H579.5z M590.4,290.3v-4.9h-10.3v4.9H590.4z"/>
    <path class="st14" d="M590.8,290.7h-11.1V285h11.1V290.7z M579.9,290.5h10.7v-5.3h-10.7V290.5z"/>
    <path class="st14" d="M590.9,290.8h-11.3v-5.9h11.3V290.8z M580,290.4h10.5v-5.1H580V290.4z"/>
    <polyline class="st14" points="590.7,285.1 579.8,285.1 579.8,290.6 590.7,290.6 590.7,285.1 "/>
    <path class="st14" d="M590.4,299.5V270h17v29.5H590.4z M606.8,298.9v-28.3H591v28.3H606.8z"/>
    <path class="st14" d="M607.2,299.3h-16.6v-29.1h16.6V299.3z M590.8,299.1H607v-28.7h-16.2V299.1z"/>
    <path class="st14" d="M607.3,299.4h-16.8v-29.3h16.8V299.4z M590.9,299h16v-28.5h-16V299z"/>
    <path class="st14" d="M607.1,270.3h-16.4v28.9h16.4V270.3"/>
    <path class="st15" d="M518.4,323.7h0.2c0.5,0,1,0,1.4,0c0.5,0,1.1,0,1.6,0c1.5,0,3,0.1,4.7,0.1c1.4,0.1,3.1,0.1,4.8,0.1
	c1.1,0,2.1,0,3.1-0.1l0.3,0v108.8l-16.2,0.1V323.7z M519,432.1l15-0.1V324.4c-0.9,0-1.8,0.1-2.8,0.1c-1.7,0-3.3-0.1-4.8-0.1
	c-1.4-0.1-3.1-0.1-4.7-0.1c-0.5,0-0.9,0-1.3,0c-0.5,0-1,0-1.4,0.1V432.1z"/>
    <path class="st15" d="M518.6,432.5V323.9h0.1c0.9,0,1.9-0.1,3-0.1c1.6,0,3.2,0.1,4.7,0.1l0,0c1.5,0.1,3.1,0.1,4.8,0.1
	c1.2,0,2.2,0,3.1-0.1h0.1v108.4h-0.1L518.6,432.5z M518.8,324.1v108.2l15.4-0.1v-108c-1,0-1.9,0.1-3,0.1c-1.7,0-3.3-0.1-4.8-0.1l0,0
	c-1.5-0.1-3.1-0.1-4.7-0.1C520.6,324,519.7,324,518.8,324.1z"/>
    <path class="st15" d="M518.4,432.6V323.8l0.2,0c1-0.1,2-0.1,3-0.1l0,0c0,0,0,0,0,0c1.6,0,3.1,0.1,4.6,0.1l0.1,0
	c1.6,0.1,3.1,0.1,4.8,0.1c1.1,0,2.1,0,3.1-0.1l0.2,0v108.6l-0.2,0L518.4,432.6z M518.8,324.2v108l15.2-0.1V324.3
	c-0.9,0-1.9,0.1-2.9,0.1c-1.7,0-3.3-0.1-4.8-0.1l-0.1,0c-1.5-0.1-3-0.1-4.6-0.1C520.7,324.1,519.8,324.1,518.8,324.2z"/>
    <path class="st15" d="M521.6,323.9c-1,0-2,0-3,0.1v108.4l15.6-0.1V324.1c-1.1,0.1-2.1,0.1-3.1,0.1c-1.7,0-3.2-0.1-4.8-0.1
	S523.2,323.9,521.6,323.9"/>
    <path class="st7" d="M295.3,429h3.5v-2.2h7.3l39.8-73.3c-6.2-3.6-11.9-8-16.9-13c-0.5-0.5-0.9-0.9-1.4-1.4l-4.7,4.4
	c2.3,3,1.8,7.3-1.1,9.7c-1.2,1-2.8,1.6-4.4,1.6c-2.1,0-4.1-0.9-5.4-2.6c-1.2-1.4-1.7-3.3-1.5-5.1c0.2-1.9,1.1-3.5,2.5-4.7
	c1.2-1,2.8-1.6,4.4-1.6c1.7,0,3.3,0.6,4.6,1.7l4.7-4.4c-7.2-7.8-12.7-16.7-16.5-26.6l-5.9,2.2c0.2,0.6,0.2,1.2,0.2,1.8
	c0.1,3.9-3.1,7-6.9,7.1c0,0,0,0,0,0c-3.9,0-7-3.1-7.1-6.9c-0.1-3.9,3.1-7.1,6.9-7.1c0,0,0,0,0,0c2.8,0,5.2,1.5,6.4,3.9l6-2.2
	c-3.2-8.9-4.8-18.3-4.8-27.7v-2l-7.3-0.2c-0.3,3.5-3.3,6.2-6.9,6.2c0,0,0,0,0,0c-0.2,0-0.3,0-0.5,0c-1.8-0.1-3.5-1-4.7-2.4
	s-1.8-3.2-1.7-5c0.3-3.6,3.3-6.4,6.9-6.4c0.2,0,0.3,0,0.5,0c3.3,0.2,6.1,2.9,6.4,6.2l7.3,0.2c0.4-10.6,2.8-20.8,7.2-30.5l-5.6-2.6
	c-1.2,2.3-3.6,3.7-6.2,3.7c-1,0-2.1-0.2-3-0.7c-1.7-0.8-2.9-2.2-3.5-4c-0.6-1.8-0.5-3.6,0.3-5.3c1.2-2.4,3.6-3.9,6.3-3.9
	c1,0,2.1,0.2,3,0.7c2.4,1.1,3.9,3.6,3.9,6.2c0,0.7-0.1,1.3-0.3,2l5.7,2.6c4-8.6,9.5-16.3,16.2-23c0.5-0.5,0.9-0.9,1.4-1.4l-4.4-4.7
	c-1.2,0.9-2.7,1.4-4.2,1.4c-2,0-3.9-0.9-5.2-2.5c-1.2-1.4-1.7-3.2-1.5-5c0.2-1.8,1-3.4,2.4-4.6c1.2-1,2.8-1.6,4.3-1.6
	c2,0,3.9,0.9,5.2,2.5c2.1,2.5,2.1,6.3-0.1,8.8l4.4,4.7c8.1-7.5,17.4-13.1,27.7-16.8l-2.5-7c-0.5,0.1-1.1,0.2-1.6,0.2
	c-1.9,0-3.6-0.7-4.9-2c-1.3-1.3-2-3.1-2-4.9c0-3.8,3.1-6.9,6.9-6.9c1.9,0,3.6,0.7,4.9,2s2,3.1,2,4.9c0,2.7-1.6,5.1-4,6.3l2.5,7
	c8.6-2.9,17.5-4.4,26.5-4.4h2.1l0.3-8.8c-3.7-0.7-6.2-4.2-5.6-7.9c0.5-3.4,3.4-5.9,6.9-5.9c0.4,0,0.7,0,1.1,0.1
	c3.8,0.6,6.4,4.1,5.8,7.9c-0.5,3.4-3.4,5.8-6.8,5.9l-0.3,8.7c9.4,0.4,18.5,2.3,27.2,5.8l2.6-6.3c-1.6-0.8-2.7-2.1-3.3-3.8
	c-0.6-1.7-0.5-3.6,0.2-5.2c1.1-2.4,3.5-3.9,6.2-3.9c1,0,2,0.2,2.9,0.7c1.6,0.8,2.9,2.1,3.5,3.9c0.6,1.7,0.5,3.6-0.2,5.2
	c-1.1,2.4-3.5,3.9-6.2,3.9c-0.6,0-1.2-0.1-1.8-0.2l-2.6,6.3c9.9,4.1,18.7,10.1,26.2,17.7c0.5,0.5,0.9,0.9,1.4,1.4l4.7-4.4
	c-1.1-1.4-1.6-3.2-1.4-5c0.2-1.9,1.1-3.5,2.5-4.7c1.2-1,2.8-1.6,4.4-1.6c2.1,0,4.1,0.9,5.4,2.6c2.4,3,2,7.4-1,9.8
	c-1.2,1-2.8,1.6-4.4,1.6c-1.7,0-3.3-0.6-4.6-1.7l-4.7,4.4c7.2,7.8,12.7,16.7,16.5,26.6l6-2.2c-0.2-0.6-0.2-1.2-0.2-1.8
	c0-1.9,0.7-3.6,2-4.9c1.3-1.3,3.1-2,4.9-2c3.8,0,7,3.1,7,6.9c0,3.8-3.1,7-6.9,7c-2.7,0-5.1-1.5-6.3-3.9l-5.9,2.2
	c3.2,8.9,4.8,18.3,4.8,27.7v2l7.2,0.2c0.3-3.6,3.4-6.3,6.9-6.3c0.2,0,0.3,0,0.5,0c3.8,0.3,6.7,3.6,6.5,7.4c-0.2,3.6-3.3,6.5-7,6.5
	c-0.2,0-0.3,0-0.5,0c-3.4-0.2-6.1-2.9-6.5-6.3l-7.2-0.2c-0.4,10.6-2.8,20.8-7.2,30.5l6.6,3c1.2-2.4,3.6-3.9,6.2-3.9
	c1,0,2,0.2,2.9,0.6c1.7,0.8,3,2.1,3.6,3.9c0.6,1.7,0.6,3.6-0.2,5.3c-1.1,2.5-3.6,4-6.3,4c-1,0-2-0.2-2.9-0.6c-2.6-1.2-4.2-3.8-4-6.6
	c0-0.5,0-1,0.1-1.4l-6.7-3.1c-4.1,8.6-9.5,16.3-16.2,23c-0.5,0.5-0.9,0.9-1.4,1.4l6.1,6.6c1.1-0.7,2.4-1.1,3.8-1.1
	c2.3,0,4.5,1.1,5.8,3.1c1,1.5,1.4,3.4,1.1,5.2s-1.4,3.4-2.9,4.4c-1.2,0.8-2.5,1.2-3.9,1.2c-2.3,0-4.5-1.1-5.8-3.1
	c-1.9-2.8-1.5-6.6,1-8.9l-6.1-6.5c-4.4,4.1-9.3,7.7-14.5,10.7l39.8,73.3h7.3v2.1h3.5v4.8l-183.4,0V429z M465.5,426.8l-39.2-72.3
	c-3.6,2-7.5,3.7-11.4,5.1l2.2,6.2c0.6-0.2,1.3-0.3,1.9-0.3c3.8,0,7,3.1,7,6.9c0,1.9-0.7,3.6-2,4.9c-1.3,1.3-3.1,2-4.9,2
	c-3.8,0-7-3.1-7-6.9c0-2.6,1.5-5,3.8-6.2l-2.2-6.2c-8.6,2.9-17.5,4.4-26.6,4.4h-2l-0.2,6.4c3.7,0.5,6.4,3.8,6,7.6
	c-0.4,3.6-3.3,6.2-6.9,6.2c-0.2,0-0.5,0-0.7,0c-3.6-0.4-6.2-3.3-6.2-6.9c0-3.7,2.8-6.7,6.5-6.9l0.2-6.4c-9.4-0.4-18.5-2.3-27.2-5.8
	l-2.6,6.3c3.3,1.7,4.7,5.6,3.1,9c-1.1,2.4-3.5,3.9-6.2,3.9c-1,0-2-0.2-2.9-0.7c-1.6-0.8-2.9-2.1-3.5-3.9s-0.5-3.6,0.2-5.2
	c1.1-2.4,3.5-3.9,6.2-3.9c0.6,0,1.2,0.1,1.8,0.2l2.6-6.3c-2.5-1.1-5.1-2.3-7.5-3.6l-39.2,72.3H465.5z M387.1,361.6
	c8.7,0,17.3-1.4,25.6-4.2l-7.4-21.1c-5.9,2-12,3.1-18.2,3.1h-1.2l-0.8,22.2H387.1z M357.4,356c8.4,3.4,17.2,5.2,26.3,5.6l0.7-22.3
	c-6.4-0.3-12.6-1.6-18.5-3.9L357.4,356z M413.9,357c3.8-1.4,7.4-3,11-4.9l-10.7-19.6c-2.5,1.4-5.1,2.5-7.7,3.5L413.9,357z M349,352
	c2.3,1.3,4.8,2.4,7.2,3.5l8.5-20.6c-1.6-0.7-3.3-1.5-5-2.4L349,352z M329.6,337.1c0.2,0.2,0.4,0.4,0.6,0.6c0.3,0.3,0.5,0.5,0.8,0.8
	c4.9,4.9,10.3,9.1,16.3,12.5l10.7-19.6c-4.4-2.6-8.4-5.8-12-9.5L329.6,337.1z M426.7,351c5-2.9,9.7-6.4,13.9-10.3l-15.3-16.3
	c-2.9,2.6-6,5-9.3,7L426.7,351z M441.6,339.8c0.2-0.2,0.4-0.4,0.6-0.6c0.3-0.3,0.5-0.5,0.8-0.8c6.5-6.5,11.7-13.9,15.7-22.2
	l-20.3-9.4c-3,6.2-7,11.8-12,16.6L441.6,339.8z M387,337.7c6.1,0,12-1,17.7-2.9l-16.8-47.6c-0.1,0-0.3,0-0.4,0.1l-1.7,50.5H387z
	 M366.6,333.8c5.7,2.3,11.7,3.6,17.9,3.8l1.6-50.5c-0.1,0-0.2,0-0.4-0.1L366.6,333.8z M312.8,310.5c3.6,9.5,9,18.2,15.9,25.7
	l16.3-15.3c-4.9-5.3-8.6-11.4-11.2-18.1L312.8,310.5z M406,334.3c2.6-0.9,5.1-2.1,7.5-3.4l-24.1-44.4c-0.1,0-0.1,0.1-0.2,0.1
	L406,334.3z M360.5,330.9c1.6,0.9,3.2,1.7,4.9,2.4l19.2-46.7L360.5,330.9z M347.1,320.7c3.4,3.6,7.3,6.7,11.5,9.2l22.1-40.7
	L347.1,320.7z M415.2,329.9c3.2-1.9,6.2-4.2,9-6.7l-30-31.9L415.2,329.9z M391.8,286.6l33.4,35.7c4.8-4.6,8.8-10,11.6-16.1L391,285
	c0,0,0,0,0,0L391.8,286.6z M335.4,302.2c2.5,6.5,6.1,12.4,10.9,17.5l36.6-34.3l0.2-0.3c-0.1-0.1-0.2-0.3-0.2-0.4L335.4,302.2z
	 M459.2,315.1c4.2-9.3,6.5-19.2,6.9-29.4l-22.3-0.7c-0.3,7.2-2,14.2-4.9,20.7L459.2,315.1z M307.7,282.5c0,9.1,1.5,18.1,4.6,26.7
	l21-7.7c-2.2-6.1-3.3-12.5-3.3-19v-1.2l-22.3-0.7V282.5z M437.4,305c2.9-6.4,4.5-13.1,4.8-20.1l-50.5-1.6c0,0.2-0.1,0.4-0.1,0.6
	L437.4,305z M331.7,282.5c0,6.3,1.1,12.5,3.2,18.5l47.4-17.4c0-0.2-0.1-0.3-0.1-0.5l-50.5-1.6L331.7,282.5z M466.2,284.4v-1.9
	c0-9.1-1.5-18.1-4.6-26.7l-21,7.7c2.2,6.1,3.3,12.5,3.3,19v1.2L466.2,284.4z M442.2,283.6v-1.1c0-6.3-1.1-12.5-3.2-18.5l-47.4,17.4
	c0,0.2,0.1,0.3,0.1,0.5L442.2,283.6z M382.3,281.7c0-0.2,0.1-0.4,0.1-0.6l-45.9-21.2c-2.9,6.4-4.5,13.1-4.8,20.1L382.3,281.7z
	 M390.8,279.7c0.1,0.2,0.2,0.3,0.3,0.5l47.4-17.5c-2.5-6.5-6.1-12.4-10.9-17.6L390.8,279.7z M330.1,280c0.3-7.2,2-14.2,4.9-20.7
	l-20.3-9.4c-4.2,9.3-6.5,19.2-6.9,29.4L330.1,280z M383,279.9c0.1-0.1,0.2-0.3,0.3-0.4l-34.5-36.9c-4.8,4.6-8.7,10-11.6,16.1
	L383,279.9z M389.4,278.4c0.2,0.1,0.4,0.3,0.6,0.4l36.9-34.5c-5.2-5.4-11.3-9.7-18.2-12.6L389.4,278.4z M384.2,278.6
	c0.2-0.1,0.3-0.2,0.5-0.3L368,230.6c-6.8,2.5-12.9,6.2-18.3,11.1L384.2,278.6z M387.8,277.8c0.1,0,0.2,0,0.4,0.1l19.2-46.8
	c-5.7-2.3-11.7-3.6-17.9-3.8L387.8,277.8z M386,277.8c0.1,0,0.3,0,0.4-0.1l1.7-50.6h-1.1c-6,0-12,1-17.7,2.9L386,277.8z
	 M428.9,244.1c4.9,5.3,8.6,11.4,11.2,18.1l21-7.7c-3.6-9.5-8.9-18.2-15.9-25.7L428.9,244.1z M335.6,258c3-6.2,7-11.8,12-16.6
	l-15.3-16.4c-0.2,0.2-0.4,0.4-0.5,0.5c-0.3,0.3-0.5,0.5-0.8,0.8c-6.5,6.5-11.7,13.9-15.6,22.2L335.6,258z M409.3,230
	c7.1,3,13.4,7.4,18.7,13l16.3-15.3c-0.2-0.2-0.4-0.4-0.5-0.6c-0.3-0.3-0.5-0.5-0.8-0.8c-7.3-7.3-15.8-13-25.3-17L409.3,230z
	 M348.6,240.5c5.5-5.1,11.8-8.9,18.9-11.5l-7.4-21.1c-10,3.6-19,9.1-26.7,16.3L348.6,240.5z M389.5,225.6c6.4,0.3,12.6,1.6,18.5,3.9
	l8.5-20.6c-8.4-3.4-17.3-5.3-26.3-5.6L389.5,225.6z M368.7,228.5c5.9-2,12-3,18.2-3h1.3l0.7-22.3l-2.1,0c-8.7,0-17.3,1.4-25.6,4.2
	L368.7,228.5z"/>
    <path class="st7" d="M295.5,433.5v-4.4h3.5V427h7.2l39.9-73.6c-6.2-3.6-12-8-17.1-13.1c-0.5-0.5-1-1-1.5-1.6l-4.9,4.6
	c2.4,2.9,1.9,7.2-1,9.6c-2.9,2.4-7.2,1.9-9.6-1c-2.4-2.9-1.9-7.2,1-9.6c2.6-2.1,6.4-2,8.9,0.3l4.9-4.6c-7.3-7.8-12.9-16.9-16.6-26.9
	l-6.3,2.4c0.2,0.6,0.3,1.2,0.3,1.9c0,3.8-3,6.8-6.7,6.9c-3.8,0-6.8-3-6.9-6.7c0-3.8,3-6.8,6.7-6.9c2.7,0,5.2,1.5,6.3,4l6.3-2.3
	c-3.2-8.9-4.9-18.4-4.8-27.9c0-0.7,0-1.5,0-2.2l-7.7-0.3c-0.3,3.7-3.5,6.5-7.2,6.2c-3.7-0.3-6.5-3.5-6.2-7.2
	c0.3-3.7,3.5-6.5,7.2-6.2c3.3,0.2,6,2.9,6.2,6.2l7.7,0.3c0.4-10.6,2.8-21.1,7.2-30.8l-6-2.8c-1.6,3.4-5.6,4.8-9,3.1s-4.8-5.6-3.1-9
	c1.6-3.4,5.6-4.8,9-3.1c2.3,1.1,3.8,3.5,3.8,6.1c0,0.7-0.1,1.4-0.3,2.1l6,2.8c4-8.6,9.5-16.4,16.2-23.1c0.5-0.5,1-1,1.6-1.5l-4.7-5
	c-2.8,2.3-7,1.9-9.3-0.9c-2.3-2.8-1.9-7,0.9-9.3c2.8-2.3,7-1.9,9.3,0.9c2.1,2.5,2,6.2-0.2,8.6l4.7,5c8.1-7.5,17.6-13.3,28-17
	l-2.6-7.4c-0.6,0.2-1.2,0.2-1.8,0.2c-3.7,0-6.7-3-6.7-6.7s3-6.7,6.7-6.7c3.7,0,6.7,3,6.7,6.7c0,2.7-1.6,5.1-4.1,6.2l2.6,7.4
	c8.6-3,17.7-4.5,26.8-4.5c0.7,0,1.5,0,2.2,0l0.3-9.1c-3.7-0.6-6.2-4-5.6-7.7c0.6-3.7,4-6.2,7.7-5.6c3.7,0.6,6.2,4,5.6,7.7
	c-0.5,3.3-3.3,5.7-6.7,5.7h-0.1l-0.3,9.1c9.5,0.3,18.8,2.3,27.6,5.9l2.7-6.6c-3.3-1.6-4.7-5.5-3.2-8.8c1.6-3.3,5.5-4.7,8.8-3.2
	c3.3,1.6,4.7,5.5,3.2,8.8c-1.4,3-4.8,4.5-7.9,3.5l-2.7,6.6c9.9,4.1,18.8,10.1,26.3,17.7c0.5,0.5,1,1,1.5,1.6l4.9-4.6
	c-2.4-2.9-1.9-7.2,1-9.6c2.9-2.4,7.2-1.9,9.6,1c2.4,2.9,1.9,7.2-1,9.6c-2.6,2.1-6.4,2-8.9-0.3l-4.9,4.6c7.3,7.8,12.9,16.9,16.6,26.9
	l6.3-2.3c-0.2-0.6-0.3-1.2-0.3-1.9c0-3.7,3-6.8,6.7-6.8c3.7,0,6.8,3,6.8,6.7c0,3.7-3,6.8-6.7,6.8c-2.7,0-5.1-1.5-6.2-4l-6.3,2.3
	c3.2,8.9,4.9,18.4,4.8,27.9c0,0.7,0,1.5,0,2.2l7.6,0.2c0.3-3.7,3.5-6.6,7.2-6.3c3.7,0.3,6.6,3.5,6.3,7.2s-3.5,6.6-7.2,6.3
	c-3.4-0.2-6.1-2.9-6.3-6.3l-7.6-0.2c-0.4,10.6-2.8,21.1-7.2,30.8l7,3.2c1.5-3.4,5.5-4.9,8.9-3.3c3.4,1.5,4.9,5.5,3.3,8.9
	s-5.5,4.9-8.9,3.3c-2.5-1.1-4.1-3.7-3.9-6.5c0-0.5,0.1-1.1,0.2-1.6l-7-3.3c-4,8.6-9.6,16.4-16.3,23.1c-0.5,0.5-1,1-1.6,1.5l6.4,6.8
	c3.1-2.1,7.3-1.3,9.4,1.8c2.1,3.1,1.3,7.3-1.8,9.4c-3.1,2.1-7.3,1.3-9.4-1.8c-1.9-2.8-1.4-6.5,1.1-8.8l-6.4-6.8
	c-4.5,4.2-9.5,7.9-14.8,10.9l39.9,73.6h7.2v2.1h3.5v4.4L295.5,433.5z M465.8,427l-39.5-72.8c-3.8,2.1-7.7,3.8-11.7,5.3l2.3,6.5
	c0.7-0.2,1.4-0.3,2.1-0.3c3.7,0,6.8,3,6.8,6.7c0,3.7-3,6.8-6.7,6.8c-3.7,0-6.8-3-6.8-6.7c0-2.6,1.5-5,3.8-6.1l-2.3-6.6
	c-8.6,3-17.6,4.5-26.7,4.5c-0.7,0-1.5,0-2.2,0l-0.2,6.8c3.7,0.4,6.4,3.7,6,7.4c-0.4,3.7-3.7,6.4-7.4,6c-3.4-0.4-6.1-3.3-6.1-6.7
	c0-3.6,2.8-6.6,6.5-6.8l0.2-6.8c-9.5-0.3-18.8-2.3-27.5-5.9l-2.7,6.6c3.3,1.6,4.7,5.5,3.2,8.8c-1.6,3.3-5.5,4.7-8.8,3.2
	c-3.3-1.6-4.7-5.5-3.2-8.8c1.4-3,4.8-4.5,7.9-3.5l2.7-6.7c-2.7-1.1-5.3-2.4-7.8-3.8L308.1,427H465.8z M384.8,361.8
	c0.7,0,1.4,0,2.1,0c8.8,0,17.6-1.4,26-4.3l-7.6-21.5c-5.9,2.1-12.1,3.1-18.4,3.1h-1.4l0,0L384.8,361.8z M357.2,356.1
	c8.5,3.4,17.5,5.3,26.7,5.7l0.7-22.7c-6.5-0.2-12.8-1.6-18.8-4L357.2,356.1z M413.8,357.2c3.9-1.4,7.7-3.1,11.4-5.1l-10.9-20
	c-2.6,1.4-5.3,2.6-8.1,3.7L413.8,357.2z M348.7,352.1c2.5,1.4,5,2.6,7.6,3.7l8.7-21c-1.7-0.7-3.5-1.6-5.4-2.6L348.7,352.1z
	 M426.6,351.3c5.1-3,9.9-6.5,14.3-10.6l-15.5-16.6c-2.9,2.7-6.2,5.1-9.6,7.2L426.6,351.3z M329.3,337.1c0.5,0.5,1,1,1.5,1.5
	c4.9,4.9,10.5,9.2,16.5,12.7l10.9-20c-4.5-2.7-8.6-5.9-12.2-9.7L329.3,337.1z M441.6,340.1c0.5-0.5,1-1,1.5-1.5
	c6.5-6.5,11.9-14.1,15.8-22.4l-20.7-9.5c-3,6.3-7.1,12-12.2,16.9L441.6,340.1z M385.6,337.9h1.3c6.1,0,12.2-1,18-3l-16.9-48
	c-0.2,0.1-0.5,0.1-0.8,0.1L385.6,337.9z M366.3,333.9c5.8,2.3,12.1,3.7,18.4,3.9l1.7-50.8c-0.2,0-0.5-0.1-0.7-0.1L366.3,333.9z
	 M312.5,310.4c3.6,9.7,9.1,18.5,16.1,26.1l16.6-15.5c-4.9-5.3-8.8-11.6-11.4-18.4L312.5,310.4z M405.8,334.6c2.7-1,5.4-2.2,7.9-3.6
	l-24.3-44.7c-0.2,0.1-0.4,0.2-0.5,0.3L405.8,334.6z M360.2,331c1.7,0.9,3.5,1.8,5.3,2.6l19.3-47.1l-0.3-0.2L360.2,331z M346.8,320.7
	c3.5,3.7,7.5,6.9,11.9,9.5l22.8-42L346.8,320.7z M415.2,330.2c3.4-2,6.5-4.3,9.3-7L393.3,290L415.2,330.2z M391.6,286.7l33.6,35.9
	c5-4.7,9-10.3,11.9-16.5l-46.2-21.3c-0.1,0.1-0.1,0.2-0.2,0.3L391.6,286.7z M335.1,302.1c2.5,6.6,6.3,12.7,11.1,17.9l36.8-34.5
	l0.2-0.5c-0.1-0.2-0.3-0.4-0.4-0.6L335.1,302.1z M459.3,315.4c4.3-9.4,6.6-19.5,7-29.9l-22.7-0.7c-0.3,7.3-2,14.4-5,21L459.3,315.4z
	 M307.5,280.4c0,0.7,0,1.4,0,2.1c0,9.2,1.6,18.3,4.7,27l21.3-7.9c-2.2-6.1-3.3-12.6-3.3-19.2c0-0.5,0-0.9,0-1.4L307.5,280.4z
	 M437.5,305.3c2.9-6.5,4.6-13.4,4.9-20.5l-50.9-1.7c0,0.3-0.1,0.6-0.2,0.9L437.5,305.3z M331.5,281.2c0,0.4,0,0.9,0,1.3
	c0,6.4,1.1,12.7,3.2,18.7l47.8-17.6c-0.1-0.3-0.1-0.5-0.1-0.8L331.5,281.2L331.5,281.2z M466.4,284.6c0-0.7,0-1.4,0-2.1
	c0-9.2-1.6-18.3-4.7-27l-21.3,7.9c2.2,6.1,3.3,12.6,3.3,19.2c0,0.5,0,0.9,0,1.4l0,0L466.4,284.6z M442.4,283.8c0-0.5,0-0.9,0-1.3
	c0-6.4-1.1-12.7-3.2-18.7l-47.8,17.6c0.1,0.3,0.1,0.5,0.1,0.8L442.4,283.8z M382.4,281.9c0-0.3,0.1-0.6,0.2-0.9l-46.2-21.3
	c-2.9,6.5-4.6,13.4-4.9,20.5L382.4,281.9z M390.6,279.7c0.2,0.2,0.3,0.5,0.5,0.8l47.8-17.6c-2.5-6.7-6.3-12.8-11.1-18L390.6,279.7z
	 M330.2,280.2c0.3-7.3,2-14.4,5-21l-20.7-9.5c-4.3,9.4-6.6,19.5-7,29.8L330.2,280.2z M383,280.2c0.1-0.2,0.3-0.5,0.5-0.7l-34.8-37.1
	c-4.9,4.7-9,10.3-11.9,16.5L383,280.2z M389.1,278.5c0.3,0.2,0.6,0.4,0.8,0.6l37.1-34.8c-5.3-5.5-11.6-9.9-18.6-12.9L389.1,278.5z
	 M384.2,278.9c0.2-0.2,0.5-0.4,0.8-0.5l-16.9-48c-6.9,2.5-13.3,6.4-18.7,11.4L384.2,278.9z M387.6,278c0.2,0,0.5,0.1,0.7,0.1
	l19.3-47.1c-5.8-2.3-12.1-3.7-18.4-3.9L387.6,278z M385.9,278.1c0.2-0.1,0.5-0.1,0.8-0.1l1.7-51H387c-6.1,0-12.2,1-18,3L385.9,278.1
	z M428.7,244.1c4.9,5.3,8.8,11.6,11.4,18.4l21.3-7.9c-3.6-9.7-9.1-18.5-16.1-26.1L428.7,244.1z M335.7,258.3c3-6.3,7.1-12,12.2-16.9
	l-15.6-16.6c-0.5,0.5-1,1-1.5,1.5c-6.5,6.5-11.9,14.1-15.8,22.4L335.7,258.3z M409,230.1c7.2,3,13.6,7.5,19,13.2l16.6-15.6
	c-0.5-0.5-1-1-1.5-1.5c-7.3-7.3-16-13.2-25.5-17.2L409,230.1z M348.6,240.8c5.5-5.1,12-9.1,19.1-11.7l-7.6-21.4
	c-10.1,3.6-19.3,9.2-27.1,16.5L348.6,240.8z M389.3,225.8c6.5,0.2,12.8,1.6,18.8,4l8.6-21c-8.5-3.4-17.6-5.4-26.8-5.7L389.3,225.8z
	 M368.6,228.8c5.9-2,12.1-3.1,18.4-3.1h1.4l0.7-22.7c-0.7,0-1.4,0-2.1,0c-8.8,0-17.6,1.4-26,4.3L368.6,228.8z"/>
    <path class="st7" d="M295.4,433.6V429h3.5v-2.1h7.3l39.9-73.5c-6.2-3.6-11.9-8-17-13.1c-0.5-0.5-1-1-1.5-1.5l-4.8,4.5
	c2.1,2.6,1.9,6.4-0.4,8.9c-1.3,1.4-3,2.1-4.9,2.1c-1.7,0-3.4-0.7-4.7-1.9c-1.3-1.2-2.1-2.9-2.1-4.7c-0.1-1.8,0.6-3.5,1.9-4.8
	c1.3-1.4,3-2.1,4.9-2.1c1.7,0,3.3,0.6,4.5,1.7l4.8-4.5c-7.2-7.8-12.8-16.8-16.6-26.7l-6.1,2.3c0.2,0.6,0.2,1.2,0.2,1.8
	c0,2.7-1.6,5.2-4,6.3c-0.9,0.4-1.8,0.6-2.8,0.6c-2.7,0-5.1-1.6-6.2-4c-0.7-1.7-0.8-3.5-0.1-5.2c0.6-1.7,1.9-3,3.6-3.8
	c0.9-0.4,1.8-0.6,2.8-0.6c2.6,0,5,1.5,6.1,3.9l6.1-2.3c-3.2-8.9-4.8-18.3-4.8-27.8v-2.1l-7.5-0.2c-0.3,3.4-3,6-6.4,6.2
	c-0.1,0-0.3,0-0.4,0c-3.6,0-6.6-2.8-6.8-6.4c-0.2-3.8,2.7-7,6.4-7.2c0.1,0,0.3,0,0.4,0c3.6,0,6.5,2.7,6.8,6.3l7.5,0.2
	c0.4-10.6,2.8-20.9,7.2-30.6l-5.8-2.7c-1.1,2.3-3.5,3.8-6.1,3.8c-0.7,0-1.4-0.1-2.1-0.3c-3.6-1.2-5.5-5-4.3-8.6
	c0.9-2.8,3.5-4.7,6.4-4.7c0.7,0,1.4,0.1,2.1,0.3c1.7,0.6,3.1,1.8,3.9,3.4c0.8,1.6,0.9,3.3,0.4,5l5.7,2.7c4.1-8.6,9.5-16.4,16.3-23.1
	c0.4-0.4,0.8-0.8,1.2-1.2l0.3-0.2l-4.6-4.9c-1.2,1-2.8,1.6-4.4,1.6c-1.8,0-3.5-0.7-4.7-1.9c-1.4-1.3-2.1-3-2.2-4.8
	c-0.1-1.9,0.6-3.6,1.9-5c1.3-1.4,3.2-2.2,5.1-2.2c1.8,0,3.5,0.7,4.7,1.9c1.4,1.3,2.1,3,2.2,4.8c0.1,1.8-0.6,3.5-1.7,4.9l4.6,4.9
	c8.1-7.5,17.5-13.2,27.8-16.9l-2.6-7.2c-0.6,0.1-1.1,0.2-1.7,0.2c-2.8,0-5.3-1.7-6.3-4.2c-1.4-3.5,0.2-7.5,3.7-8.9
	c0.8-0.3,1.7-0.5,2.6-0.5c2.8,0,5.3,1.7,6.3,4.2c1.4,3.4-0.2,7.4-3.5,8.9l2.6,7.2c8.6-2.9,17.5-4.4,26.6-4.4h2.2l0.3-9
	c-3.3-0.6-5.7-3.4-5.7-6.7c0-1.8,0.7-3.6,2-4.9c1.3-1.3,3-2,4.8-2c3.8,0,6.9,3.1,6.9,6.8c0,3.8-3,6.9-6.8,6.9h0l-0.3,8.9
	c9.4,0.4,18.6,2.3,27.4,5.8l2.6-6.4c-3.1-1.5-4.6-5.1-3.5-8.4c0.9-2.9,3.6-4.8,6.6-4.8c0.7,0,1.5,0.1,2.2,0.3
	c3.6,1.2,5.6,5.1,4.4,8.8c-0.9,2.9-3.6,4.8-6.6,4.8c-0.7,0-1.3-0.1-2-0.3l-2.6,6.4c9.9,4.1,18.7,10.1,26.3,17.7c0.5,0.5,1,1,1.5,1.5
	l4.8-4.5c-2.1-2.6-1.9-6.4,0.4-8.9c1.3-1.4,3-2.1,4.9-2.1c1.7,0,3.4,0.7,4.7,1.9c1.3,1.2,2.1,2.9,2.1,4.7c0,1.8-0.6,3.5-1.9,4.8
	c-1.3,1.4-3,2.1-4.9,2.1c-1.7,0-3.3-0.6-4.5-1.7l-4.8,4.5c7.2,7.8,12.8,16.8,16.6,26.7l6.1-2.3c-0.2-0.6-0.2-1.2-0.2-1.8
	c0-2.7,1.6-5.2,4.1-6.3c0.9-0.4,1.8-0.6,2.7-0.6c2.7,0,5.2,1.6,6.3,4.1c0.7,1.7,0.8,3.5,0.1,5.2c-0.7,1.7-2,3-3.6,3.8
	c-0.9,0.4-1.8,0.6-2.7,0.6c-2.7,0-5.1-1.5-6.2-3.9l-6.1,2.3c3.2,8.9,4.8,18.3,4.8,27.8v2.1l7.4,0.2c0.4-3.4,3.3-6.1,6.8-6.1
	c3.8,0,6.8,2.9,6.9,6.7c0.1,3.8-2.9,6.9-6.7,7l-0.2,0c-3.7,0-6.6-2.8-6.8-6.5l-7.4-0.2c-0.4,10.6-2.8,20.9-7.2,30.6l6.8,3.1
	c1.1-2.5,3.6-4.2,6.4-4.2c0.6,0,1.2,0.1,1.8,0.2c3.7,1,5.9,4.8,4.9,8.5c-0.8,3-3.5,5.2-6.7,5.2c-0.6,0-1.2-0.1-1.8-0.2
	c-3.6-1-5.8-4.7-5-8.3l-6.9-3.2c-4.1,8.6-9.5,16.4-16.3,23.1c-0.5,0.5-1,1-1.5,1.5l6.3,6.7c1.1-0.7,2.4-1.1,3.7-1.1
	c2,0,3.8,0.9,5.1,2.3c2.5,2.8,2.2,7.2-0.6,9.6c-1.2,1.1-2.8,1.7-4.5,1.7c-2,0-3.8-0.9-5.1-2.3c-1.2-1.4-1.8-3.1-1.7-5
	c0.1-1.8,0.9-3.4,2.2-4.5l-6.2-6.6c-4.5,4.1-9.4,7.8-14.7,10.8l39.9,73.5h7.3v2.1h3.5v4.6H295.4z M465.7,426.9l-39.3-72.6
	c-3.7,2-7.6,3.8-11.5,5.2l2.2,6.4c0.6-0.2,1.3-0.3,2-0.3c2.7,0,5.1,1.5,6.2,3.9c1.6,3.4,0.1,7.5-3.3,9.1c-0.9,0.4-1.9,0.7-2.9,0.7
	c-2.6,0-5.1-1.5-6.2-3.9c-1.6-3.4-0.2-7.4,3.1-9l-2.3-6.4c-8.6,2.9-17.5,4.4-26.6,4.4H385l-0.2,6.6c3.4,0.3,6,3,6.2,6.4
	c0.2,3.7-2.7,7-6.4,7.2c-0.1,0-0.3,0-0.4,0c-3.6,0-6.6-2.8-6.8-6.4c-0.1-1.8,0.5-3.6,1.7-4.9c1.2-1.3,2.8-2.1,4.5-2.2l0.2-6.6
	c-9.4-0.4-18.6-2.3-27.4-5.8l-2.6,6.4c3.1,1.5,4.6,5.1,3.5,8.4c-0.9,2.9-3.6,4.8-6.6,4.8c-0.7,0-1.5-0.1-2.2-0.3
	c-1.8-0.6-3.2-1.8-4-3.5c-0.8-1.7-1-3.5-0.4-5.3c0.9-2.9,3.6-4.8,6.6-4.8c0.7,0,1.3,0.1,2,0.3l2.6-6.4c-2.6-1.1-5.2-2.3-7.7-3.7
	l-39.4,72.5H465.7z M387.1,361.8c8.8,0,17.5-1.4,25.8-4.3l-7.5-21.3c-5.9,2-12.1,3-18.3,3h-1.3l-0.8,22.5H387.1z M357.5,356.1
	c8.5,3.4,17.4,5.3,26.5,5.6l0.7-22.5c-6.4-0.3-12.7-1.6-18.7-4L357.5,356.1z M414,357.1c3.8-1.4,7.6-3.1,11.2-5l-10.8-19.8
	c-2.5,1.4-5.2,2.6-7.9,3.6L414,357.1z M349,352.1c2.4,1.3,4.9,2.5,7.4,3.6l8.6-20.8c-1.8-0.8-3.6-1.6-5.3-2.6L349,352.1z
	 M426.7,351.2c5.1-3,9.8-6.5,14.1-10.4l-15.4-16.4c-2.9,2.7-6.1,5-9.5,7.1L426.7,351.2z M331,338.6c4.9,4.9,10.4,9.1,16.3,12.5
	l10.8-19.8c-4.5-2.6-8.5-5.9-12.1-9.6l-16.4,15.4c0.2,0.2,0.4,0.4,0.6,0.7c0.2,0.3,0.5,0.5,0.8,0.8L331,338.6L331,338.6z
	 M441.6,339.9c0.5-0.5,1-0.9,1.4-1.4c6.5-6.5,11.8-14,15.7-22.3l-20.5-9.5c-3,6.3-7.1,11.9-12.1,16.7L441.6,339.9z M387.1,337.8
	c6.1,0,12-1,17.8-2.9L388,287c-0.2,0-0.4,0.1-0.6,0.1l-1.6,50.7H387.1z M366.5,333.8c5.8,2.3,11.9,3.6,18.1,3.9l1.6-50.7
	c-0.2,0-0.3-0.1-0.5-0.1L366.5,333.8z M312.7,310.4c3.6,9.6,9,18.3,16,25.9l16.4-15.4c-4.9-5.3-8.7-11.5-11.3-18.3L312.7,310.4z
	 M405.9,334.4c2.6-1,5.2-2.1,7.7-3.5l-24.1-44.5c-0.1,0.1-0.2,0.1-0.4,0.2L405.9,334.4z M360.4,330.9c1.6,0.9,3.3,1.7,5.1,2.5
	l19.3-46.9c-0.1,0-0.1-0.1-0.2-0.1L360.4,330.9z M415.2,330c3.3-2,6.4-4.2,9.2-6.8l-30.6-32.6L415.2,330z M347,320.7
	c3.5,3.6,7.4,6.8,11.7,9.3l22.5-41.4L347,320.7z M391.7,286.7l33.6,35.8c4.9-4.7,8.8-10.1,11.7-16.3l-46-21.2c0,0.1-0.1,0.1-0.1,0.2
	L391.7,286.7z M335.3,302.1c2.5,6.6,6.2,12.6,11,17.7l36.7-34.4l0.2-0.4c-0.1-0.2-0.2-0.3-0.3-0.5L335.3,302.1z M459.3,315.2
	c4.2-9.4,6.6-19.3,7-29.6l-22.5-0.7c-0.3,7.3-2,14.3-4.9,20.9L459.3,315.2z M307.6,282.4c0,9.2,1.5,18.2,4.6,26.9l21.2-7.8
	c-2.2-6.1-3.3-12.6-3.3-19.1v-1.3l-22.5-0.7V282.4z M437.5,305.2c2.9-6.4,4.5-13.3,4.8-20.3l-50.7-1.6c0,0.2-0.1,0.5-0.2,0.7
	L437.5,305.2z M331.6,281.2c0,0.4,0,0.9,0,1.3c0,6.4,1.1,12.6,3.2,18.6l47.6-17.5c-0.1-0.2-0.1-0.5-0.1-0.7L331.6,281.2z
	 M466.3,284.5v-2c0-9.2-1.5-18.2-4.6-26.9l-21.2,7.8c2.2,6.1,3.3,12.6,3.3,19.1v1.3L466.3,284.5z M442.3,283.7c0-0.4,0-0.8,0-1.3
	c0-6.3-1.1-12.6-3.2-18.6l-47.6,17.5c0.1,0.2,0.1,0.5,0.1,0.7L442.3,283.7z M382.4,281.7c0-0.2,0.1-0.5,0.2-0.7l-46-21.3
	c-2.9,6.4-4.5,13.3-4.8,20.3L382.4,281.7z M390.7,279.7c0.1,0.2,0.3,0.4,0.4,0.6l47.6-17.5c-2.5-6.6-6.2-12.6-11-17.7L390.7,279.7z
	 M330.2,280c0.3-7.2,2-14.3,4.9-20.9l-20.5-9.4c-4.2,9.4-6.6,19.3-7,29.6L330.2,280z M383,280c0.1-0.2,0.2-0.4,0.4-0.5l-34.7-37
	c-4.9,4.7-8.8,10.2-11.7,16.3L383,280z M389.3,278.4c0.3,0.1,0.5,0.3,0.7,0.5l37-34.7c-5.2-5.5-11.4-9.8-18.4-12.7L389.3,278.4z
	 M384.3,278.7c0.2-0.2,0.4-0.3,0.7-0.4l-16.8-47.8c-6.9,2.5-13.1,6.3-18.5,11.3L384.3,278.7z M387.7,277.8c0.2,0,0.3,0.1,0.5,0.1
	l19.2-46.8c-5.8-2.3-11.9-3.6-18.1-3.9L387.7,277.8z M386,277.9c0.2,0,0.4-0.1,0.6-0.1l1.6-50.7h-1.4c-6,0-12,1-17.7,2.9L386,277.9z
	 M428.8,244c4.9,5.3,8.7,11.5,11.3,18.3l21.2-7.7c-3.6-9.6-9-18.4-16-25.9L428.8,244z M335.6,258.1c3-6.3,7.1-11.9,12.1-16.7
	l-15.4-16.4c-0.2,0.2-0.4,0.4-0.7,0.6c-0.3,0.2-0.5,0.5-0.8,0.8c-6.5,6.5-11.8,14-15.7,22.3L335.6,258.1z M409.1,230.1
	c7.2,3,13.6,7.4,18.9,13.1l16.5-15.4c-0.2-0.2-0.4-0.4-0.6-0.7c-0.2-0.2-0.5-0.5-0.7-0.7l-0.1-0.1c-7.3-7.3-15.9-13.1-25.4-17.1
	L409.1,230.1z M348.6,240.6c5.5-5.1,11.9-9,19-11.6l-7.5-21.3c-10,3.6-19.1,9.1-26.9,16.4L348.6,240.6z M389.4,225.7
	c6.4,0.3,12.7,1.6,18.7,4l8.6-20.8c-8.5-3.4-17.4-5.3-26.5-5.6L389.4,225.7z M368.7,228.6c5.9-2,12.1-3,18.3-3h1.3l0.7-22.5l-2.2,0
	c-8.8,0-17.4,1.4-25.7,4.3L368.7,228.6z"/>
    <path class="st7" d="M483.1,278.9c-3.4,0-6.3,2.6-6.6,6.1l-7.8-0.2c0-0.8,0-1.5,0-2.3c0-9.5-1.6-19-4.9-27.9l6.5-2.4
	c1.5,3.4,5.4,4.9,8.7,3.4c3.4-1.5,4.9-5.4,3.4-8.7c-1.5-3.4-5.4-4.9-8.7-3.4c-2.4,1.1-4,3.4-4,6.1c0,0.7,0.1,1.3,0.3,1.9l-6.5,2.4
	c-3.8-10-9.4-19.2-16.7-27l5.1-4.8c2.6,2.5,6.8,2.4,9.3-0.3c2.5-2.6,2.4-6.8-0.3-9.3c-2.6-2.5-6.8-2.4-9.3,0.3
	c-2.3,2.4-2.4,6.2-0.3,8.8l-5.1,4.8c-0.5-0.6-1-1.1-1.6-1.6c-7.6-7.6-16.5-13.6-26.4-17.7l2.8-6.8c3.5,1.2,7.3-0.8,8.5-4.3
	c1.2-3.5-0.8-7.3-4.3-8.5s-7.3,0.8-8.5,4.3c-1.1,3.3,0.5,6.8,3.6,8.2l-2.8,6.8c-8.8-3.6-18.2-5.6-27.7-5.9l0.3-9.3h0.2
	c3.7,0,6.6-3,6.6-6.7c0-3.7-3-6.6-6.7-6.6s-6.6,3-6.6,6.7c0,3.3,2.4,6.1,5.7,6.5l-0.3,9.3c-0.8,0-1.5,0-2.3,0
	c-9.1,0-18.2,1.5-26.8,4.5l-2.7-7.6c3.4-1.4,5-5.3,3.6-8.7c-1.4-3.4-5.3-5-8.7-3.6s-5,5.3-3.6,8.7c1,2.5,3.4,4.1,6.1,4.1
	c0.6,0,1.2-0.1,1.8-0.3l2.7,7.6c-10.4,3.7-20,9.6-28.1,17.1l-4.9-5.2c2.5-2.7,2.4-7-0.3-9.6c-2.7-2.5-7-2.4-9.6,0.3
	c-2.5,2.7-2.4,7,0.3,9.6c2.5,2.4,6.4,2.4,9,0.2l4.8,5.2c-0.5,0.5-1.1,1-1.6,1.6c-6.7,6.7-12.3,14.6-16.3,23.2l-6.1-2.8
	c1.1-3.5-0.8-7.2-4.2-8.3s-7.2,0.8-8.3,4.2c-1.1,3.5,0.8,7.2,4.2,8.3c3.2,1,6.6-0.5,8-3.5l6.1,2.8c-4.4,9.7-6.9,20.2-7.3,30.9
	l-7.9-0.3c-0.2-3.7-3.3-6.5-7-6.2c-3.7,0.2-6.5,3.3-6.2,7c0.2,3.7,3.3,6.5,7,6.2c3.4-0.2,6.1-2.9,6.2-6.2l7.9,0.3c0,0.8,0,1.5,0,2.3
	c0,9.5,1.6,19,4.9,27.9l-6.5,2.4c-1.5-3.3-5.4-4.8-8.7-3.3c-3.3,1.5-4.8,5.4-3.3,8.7c1.5,3.3,5.4,4.8,8.7,3.3
	c2.4-1.1,3.9-3.5,3.9-6.1c0-0.7-0.1-1.3-0.3-1.9l6.5-2.4c3.7,10,9.4,19.2,16.7,27l-5.1,4.7c-2.6-2.5-6.8-2.4-9.3,0.3
	c-2.5,2.6-2.4,6.8,0.3,9.3c2.6,2.5,6.8,2.4,9.3-0.3c2.3-2.4,2.4-6.2,0.3-8.8l5.1-4.8c0.5,0.5,1,1.1,1.6,1.6
	c5.1,5.1,10.9,9.5,17.1,13.1l-40,73.7h-7.2v2.1h-3.5v4.2h182.8v-4.2h-3.5v-2.1h-7.2l-40-73.7c5.4-3.1,10.4-6.8,14.9-11l6.5,6.9
	c-2.8,2.4-3,6.6-0.6,9.4c2.4,2.8,6.6,3,9.4,0.6c2.8-2.4,3-6.6,0.6-9.4c-2.2-2.5-6-3-8.8-1.1l-6.5-7c0.5-0.5,1.1-1,1.6-1.6
	c6.7-6.7,12.3-14.6,16.3-23.2l7.2,3.3c-0.9,3.6,1.2,7.3,4.8,8.2c3.6,0.9,7.3-1.2,8.2-4.8c0.9-3.6-1.2-7.3-4.8-8.2
	c-3.3-0.9-6.7,0.9-8,4.1l-7.1-3.3c4.4-9.7,6.9-20.2,7.3-30.9l7.8,0.2c0.1,3.7,3.1,6.6,6.8,6.5c3.7-0.1,6.6-3.1,6.5-6.8
	C489.7,281.8,486.7,278.9,483.1,278.9L483.1,278.9z M466.5,282.4c0,0.7,0,1.5,0,2.2l-22.9-0.7c0-0.5,0-1,0-1.5
	c0-6.6-1.1-13.1-3.4-19.2l21.5-7.9C464.9,264,466.5,273.2,466.5,282.4z M442.5,283.9l-51.1-1.7c0-0.3-0.1-0.7-0.2-1l48-17.6
	c2.2,6,3.3,12.4,3.3,18.8C442.5,282.9,442.5,283.4,442.5,283.9L442.5,283.9z M331.5,281l51.1,1.7c0,0.3,0.1,0.7,0.2,1l-48,17.6
	c-2.2-6-3.3-12.4-3.3-18.8C331.4,282,331.4,281.5,331.5,281L331.5,281z M390.5,279.7l37.3-34.9c4.9,5.3,8.7,11.4,11.2,18.1l-48,17.6
	C390.9,280.2,390.7,279.9,390.5,279.7L390.5,279.7z M390,279.1c-0.3-0.3-0.6-0.5-1-0.7l19.4-47.3c7.1,3,13.5,7.4,18.8,13L390,279.1z
	 M388.4,278.2c-0.3-0.1-0.6-0.1-0.8-0.2l1.6-51c6.4,0.2,12.7,1.6,18.6,4L388.4,278.2z M386.8,278c-0.3,0-0.6,0.1-0.9,0.1l-17-48.2
	c5.8-2,11.9-3,18.1-3h1.4L386.8,278z M385.2,278.4c-0.3,0.2-0.7,0.3-0.9,0.6l-34.9-37.3c5.5-5.1,11.9-9,18.9-11.5L385.2,278.4z
	 M383.7,279.4c-0.2,0.2-0.4,0.5-0.6,0.8l-46.4-21.4c2.9-6.2,7-11.9,12-16.6L383.7,279.4z M382.8,280.9c-0.1,0.3-0.2,0.7-0.2,1
	l-51.1-1.7c0.3-7.2,1.9-14.2,4.9-20.8L382.8,280.9z M383,284.3c0.1,0.3,0.3,0.5,0.4,0.7l-0.3,0.6l-36.8,34.5
	c-4.9-5.3-8.7-11.4-11.3-18.1L383,284.3z M382,287.7l-23.2,42.6c-4.5-2.6-8.5-5.9-12.1-9.6L382,287.7z M384.5,286.1
	c0.2,0.1,0.3,0.2,0.5,0.3l-19.4,47.3c-1.9-0.8-3.7-1.7-5.4-2.6L384.5,286.1z M385.6,286.7c0.3,0.1,0.6,0.1,0.8,0.2l-1.7,51.1
	c-6.4-0.2-12.7-1.6-18.6-4L385.6,286.7z M387,338h-1.4l1.7-51.1c0.3,0,0.6-0.1,0.9-0.1l17,48.2C399.3,337,393.2,338,387,338z
	 M388.8,286.5c0.2-0.1,0.5-0.2,0.7-0.4l24.3,44.9c-2.6,1.4-5.3,2.7-8.1,3.7L388.8,286.5z M392.9,289.3l31.8,33.9
	c-2.9,2.7-6.1,5.1-9.5,7.1L392.9,289.3z M391.5,286.8l-0.9-1.7c0.1-0.1,0.2-0.3,0.3-0.4l46.4,21.4c-2.9,6.2-7,11.9-12,16.6
	L391.5,286.8z M391.2,284c0.1-0.3,0.2-0.7,0.2-1l51.1,1.7c-0.3,7.2-1.9,14.2-4.9,20.8L391.2,284z M365.2,334.7l-8.7,21.2
	c-2.7-1.1-5.3-2.4-7.8-3.8l10.9-20.2C361.4,333,363.2,333.9,365.2,334.7L365.2,334.7z M365.9,335c6.1,2.4,12.5,3.8,19,4.1l-0.7,22.9
	c-9.2-0.3-18.4-2.3-26.9-5.7L365.9,335z M385.6,339.1h1.5c6.3,0,12.5-1,18.5-3.1l7.6,21.6c-8.4,2.9-17.3,4.4-26.2,4.4
	c-0.7,0-1.5,0-2.2,0L385.6,339.1z M406.2,335.8c2.8-1,5.6-2.3,8.2-3.7l11,20.2c-3.7,2-7.6,3.8-11.5,5.2L406.2,335.8z M461.6,254.6
	l-21.6,7.9c-2.6-6.9-6.5-13.2-11.5-18.5l16.7-15.7C452.4,235.9,457.9,244.9,461.6,254.6L461.6,254.6z M443.3,226.2
	c0.5,0.5,1,1.1,1.5,1.6L428,243.5c-5.4-5.7-11.9-10.2-19.2-13.3l8.7-21.2C427.1,213,435.9,218.8,443.3,226.2L443.3,226.2z
	 M416.9,208.7l-8.7,21.2c-6-2.5-12.5-3.8-19-4.1L390,203C399.2,203.3,408.3,205.2,416.9,208.7L416.9,208.7z M387,202.9
	c0.7,0,1.5,0,2.2,0l-0.7,22.9H387c-6.3,0-12.5,1-18.5,3.1l-7.6-21.6C369.3,204.4,378.1,202.9,387,202.9z M360.2,207.5l7.6,21.6
	c-7.1,2.6-13.7,6.6-19.3,11.7l-15.7-16.7C340.7,216.8,350,211.1,360.2,207.5L360.2,207.5z M330.7,226.2c0.5-0.5,1-1,1.6-1.5
	l15.7,16.7c-5.1,4.9-9.3,10.6-12.3,17l-20.8-9.6C318.8,240.4,324.2,232.7,330.7,226.2z M314.5,249.4l20.8,9.6
	c-3,6.7-4.7,13.9-5,21.2l-22.9-0.7C307.8,269.1,310.2,258.9,314.5,249.4L314.5,249.4z M307.4,282.4c0-0.7,0-1.5,0-2.2l22.9,0.7
	c0,0.5,0,1,0,1.5c0,6.6,1.1,13.1,3.4,19.2l-21.5,7.9C309,300.9,307.4,291.7,307.4,282.4L307.4,282.4z M312.4,310.3l21.5-7.9
	c2.6,6.9,6.5,13.1,11.5,18.5l-16.7,15.7C321.6,328.9,316,320,312.4,310.3L312.4,310.3z M330.7,338.7c-0.5-0.5-1-1-1.5-1.6l16.7-15.7
	c3.6,3.8,7.8,7.2,12.4,9.8l-11,20.2C341.3,347.9,335.7,343.6,330.7,338.7L330.7,338.7z M466,427.1H308l39.6-73
	c2.6,1.4,5.3,2.7,8,3.9l-2.8,6.8c-3.5-1.2-7.3,0.8-8.5,4.3c-1.2,3.5,0.8,7.3,4.3,8.5c3.5,1.2,7.3-0.8,8.5-4.3
	c1.1-3.3-0.5-6.8-3.6-8.2l2.8-6.8c8.8,3.6,18.2,5.6,27.7,5.9l-0.2,7c-3.6,0.2-6.4,3.3-6.2,7c0.2,3.6,3.3,6.4,7,6.2
	c3.6-0.2,6.4-3.3,6.2-7c-0.2-3.3-2.9-6-6.2-6.2l0.2-7c0.8,0,1.5,0,2.3,0c9.1,0,18.2-1.5,26.8-4.5l2.4,6.8c-3.3,1.6-4.7,5.5-3.2,8.8
	c1.6,3.3,5.5,4.7,8.8,3.2c3.3-1.6,4.7-5.5,3.2-8.8c-1.1-2.3-3.4-3.8-6-3.8c-0.7,0-1.4,0.1-2.1,0.4l-2.4-6.7
	c4.1-1.5,8.1-3.3,11.9-5.4L466,427.1z M426.6,351.5l-11-20.2c3.5-2.1,6.8-4.5,9.8-7.3l15.7,16.7
	C436.7,344.8,431.8,348.4,426.6,351.5z M443.2,338.7c-0.5,0.5-1,1-1.6,1.5l-15.7-16.7c5.1-4.9,9.3-10.6,12.3-17l20.8,9.6
	C455.1,324.5,449.8,332.1,443.2,338.7L443.2,338.7z M459.4,315.5l-20.8-9.6c3-6.7,4.7-13.9,5-21.2l22.9,0.7
	C466.1,295.8,463.7,306,459.4,315.5L459.4,315.5z"/>
</svg>