<svg id="Layer_1" data-name="Layer 1" xmlns="http://www.w3.org/2000/svg" viewBox="0 0 1015.44 403.38"><defs><style>.cls-1{fill:#02bc67;}.cls-2{fill:#80ea6e;}.cls-3{fill:#44fea9;}.cls-4{fill:#97ebf3;}.cls-5{fill:#3f939b;}.cls-6{fill:#ff877a;}.cls-7{fill:#d0584b;}.cls-8{fill:#f9bc26;}.cls-9{fill:#aa7a00;}.cls-10{fill:#ffd262;}.cls-11{fill:#ffa298;}.cls-12{fill:#6dd75b;}.cls-13{fill:#6ec2ca;}.cls-14{fill:#3ea82c;}.cls-15{fill:#98ff86;}.cls-16{fill:#81eb6f;}.cls-17{fill:#81d5dd;}.cls-18{fill:#fac33b;}.cls-19{fill:#9a800a;}.cls-20{fill:#e8a51c;}.cls-21{fill:#ae7707;}.cls-22{fill:#ecc02c;}.cls-23{fill:#d9ad19;}.cls-24{fill:#f5d470;}.cls-25{fill:#ecbe37;}.cls-26{fill:#f5d666;}.cls-27{fill:#ffc1bb;}.cls-28{fill:#82d6de;}</style></defs><path class="cls-1" d="M72.62,380.68c-18.38,0-22.39,5-33.2,13.33l-.83,9.37h51V383.11c-4.12-1.55-9.32-2.43-17-2.43m2.49-230.46-1.52.37v35.79h-16V155.57l-1.17.44c-.05,8.81-.06,17.61-.16,26.42,0,1.77-.73,4.2-2,5.16-3.19,2.34-3.39,5.3-3.53,8.67-1.29,30.93-2.34,61.88-4.1,92.79q-1.22,21.15-2.69,42.29a101.79,101.79,0,0,1,28.71-4.07,105.8,105.8,0,0,1,14.38,1q-.8-16.72-1.58-33.47-2.34-50.3-4.73-100.6c-.09-1.77-1.21-3.52-1.93-5.24-1.44-2.36-3.49-4.48-3.54-6.9-.15-7.89-.15-21.11-.11-31.83m-17.52-5.5-1.08.4c0,3-.06,6.09-.08,9.14l1.16-.43v-9.11m17.57-5.08-1.57.37v8.9l1.53-.37c0-3.35,0-6.41,0-8.9m-17.57-5.72-1,.35v5.07c0,1.35-.05,2.69-.06,4l1.06-.38v-9.07m17.4-.8h-1.4v5.2l1.58-.36c0-2.71,0-4.48,0-4.85H75" transform="translate(0 0)"/><path class="cls-2" d="M866.86,200.38h-1.11a7.19,7.19,0,0,0-6.1,7.16L848.74,321.61l1.18,3.53,5-18.76h.6l6.27,24h20.89l1.6-5.25-10.8-117.59c0-3.85-2.78-6.61-6.66-7.16" transform="translate(0 0)"/><path class="cls-1" d="M432.59,87.38h-2v40H417l-.33.62,1.49,2.2L417,134.38h-6.61c-.11,1.21-.24,2.06-.26,2.92q-.8,30.38-1.57,60.75c-.18,7-.42,14-.63,21-.4,13.08-.83,26.16-1.19,39.24-.4,14.34-.7,28.68-1.11,43-.49,17-1.06,34.1-1.56,51.15a8.08,8.08,0,0,0,3.17-5.93c.24-3.76.05-7.55.38-11.24.43-2.91,1-5.8,1.26-8.72.43-4.68.66-9.39,1-13.93l2-2.12c.69-7.64,1.37-15.14,2.07-22.88.41,1.67.78,3.17,1.16,4.68l.51-.08V272.13l2,1.09c2.39-21.93,4.77-43.69,7.14-65.45h.83c2.38,21.85,4.77,43.69,7.21,66.07l1.16-1.39c1.29,3.43.55,6.83.68,10.13a70,70,0,0,0,.62,9.95c.28-1.14.56-2.28.83-3.42h.58v13.23s.67.31,1,.42v8.07c.52.27,1.29.77,1.88,1.15.42,3.11.87,6,1.16,8.84a34.83,34.83,0,0,1,0,4.9c-.13,3.43.1,6.77,2.07,9.39a22.92,22.92,0,0,0,0,12.35c1.3,4.62,2.42,9.22,2,14.06,0,.46-.15,1.08.09,1.37,2.24,2.75,1.2,5.89,1.19,8.92,0,6.87-.1,13.75,0,20.62,0,2.13.32,5.7.54,8.18V350.38h3v-1h4v-33h3.62l-.48-17.29c-.53-19.53-1-39.06-1.55-58.6-.54-19.21-1.16-38.43-1.71-57.64-.43-15-.79-29.93-1.19-44.9,0-1.08-.18-2.15-.3-3.57h-7l-.9-3.45,1.12-2-.33-.55H432.59v-41" transform="translate(0 0)"/><path class="cls-1" d="M225.7,345.08v1.44c.14-.09.28-.18.41-.28l-.41-1.16M228,330.63c-.77.42-1.56.83-2.35,1.21,0,3.88,0,7.75,0,11.64l.87,2.46a72.32,72.32,0,0,1,7.43-4.33l-6-11m-2.36-4.35V331q1-.48,2-1l-2-3.65m10.29-1.4a41.19,41.19,0,0,1-7,5.22l6,11q2.34-1.14,4.76-2.13c2.34-.95,4.67-1.83,7-2.66L236,324.88m-10.31-11c0,3.39,0,6.78,0,10.17l2.9,5.35a40.23,40.23,0,0,0,6.85-5.1l-9.77-10.42m19.53-1.57a40.88,40.88,0,0,1-8.83,12.21l10.91,11.64,1.18-.4.32-.32a57.51,57.51,0,0,0,11.4-16.22l-15-6.91m-19.54-9c0,3.27,0,6.54,0,9.82l10.15,10.83a40.16,40.16,0,0,0,8.66-12l-18.82-8.69m23.37-6.7a40.48,40.48,0,0,1-3.61,15.24l15,6.91a57,57,0,0,0,5.09-21.61L249,296.59m-23.38-.76q0,3.44,0,6.87l19,8.8a39.74,39.74,0,0,0,3.54-14.93l-22.59-.74m20.25-14.37-20.26,7.46c0,2.13,0,4.25,0,6.38l22.61.74c0-.35,0-.69,0-1a39.74,39.74,0,0,0-2.37-13.54m16.22-6-15.47,5.69A40.64,40.64,0,0,1,249.05,295c0,.36,0,.71,0,1.06l16.46.54c0-.53,0-1.06,0-1.6a57.08,57.08,0,0,0-3.41-19.51m-24.48-7.57-12,11.25q0,4.59,0,9.19l20.08-7.4a39.91,39.91,0,0,0-8.08-13m-12-8.91q0,9.72,0,19.44l11.65-10.92A40.2,40.2,0,0,0,225.6,259m24.64-2.91-12,11.27a40.69,40.69,0,0,1,8.24,13.32l15.48-5.7a56.72,56.72,0,0,0-11.69-18.89m-19.93-13.92-4.72,11.5c0,1.48,0,3,0,4.45A40.94,40.94,0,0,1,237.85,267l12-11.27q-.54-.57-1.11-1.14a57.13,57.13,0,0,0-18.46-12.39m-4.72-1.72v11.82l4.23-10.3c-1.39-.56-2.8-1.07-4.23-1.52m5.11-12.23-5.11,1v9.54c1.64.5,3.25,1.08,4.84,1.72l2-4.88a4.77,4.77,0,0,1-1.73-7.4m32.89-62.85h-4v4h-3v6h3v11.14c-4.51.83-9,4.15-14,6.37-.24,1.76-.57,4.18-.91,6.69l-9.08,1.35v25.73a4.77,4.77,0,0,1-1.22,9.38,4.87,4.87,0,0,1-1.44-.22l-2,4.89a58.73,58.73,0,0,1,19,12.74c.39.39.77.78,1.15,1.18l3.65-3.43a4.69,4.69,0,1,1,.36.39L251.4,255a58.39,58.39,0,0,1,12,19.43l4.67-1.72a4.94,4.94,0,0,1-.21-1.4,4.76,4.76,0,1,1,.39,1.9l-4.66,1.72a58.75,58.75,0,0,1,3.5,20.06q0,.83,0,1.65l5.59.18a4.73,4.73,0,1,1,0,.53l-5.58-.18a58.28,58.28,0,0,1-5.24,22.23l5.13,2.37a4.77,4.77,0,1,1-.3,1.67,4.91,4.91,0,0,1,.14-1.16l-5.19-2.4a58.78,58.78,0,0,1-9.93,14.81,139,139,0,0,1,41.95-6.58l3.06,0c.07-33.11.16-66.23.16-99L286.59,227v-26l-8.47-1.33c-.55-2.94-1-5.37-1.24-6.6-5-2.28-9.2-5.52-13.29-6.4V175.38h3v-6h-3v-4" transform="translate(0 0)"/><path class="cls-1" d="M889.25,312.38h-.75l-1.25,5h-.57l-2.36,7.75,2.5,27.25h7.77v18h5v6h10v-17h2.19L932.59,345V329.48l-1.47,1.77-2.79,4.13h-.61l-17,20.68-4.38-4.43-4.38-4.43L914,335.38h-5.86l-6.81-21h-5.11l-3,9.75-2-6.75h-.76l-1.25-5m-61.25-71a2.65,2.65,0,0,0-2.41,3v3h2v2.07s-.56,1.07,0,1.34a3.92,3.92,0,0,0-2.15,3.59h-2.83v1.8l.63.91.85.29h1.52v12.94a4.85,4.85,0,0,0-2,4v5h-2.12a1.89,1.89,0,0,0-1.88,1.89v2.11h2v18h-2v22h-1v12h-1.92l-5.76-7.74-.54-.26h-4.66l-5.75,8h-1.37v-5H786.06l-4.69-11.21-.78-.79v85h129v-1h-104v-26h27v-6h6v-18h7.2l3-30.77L846,313.38h-3.66l-2.75,9.55V301.38h-1v-18h1v-1.87c.11-1.08-1.78-2.13-1.78-2.13h-2.22v-4.89a4.9,4.9,0,0,0-2-4.07v-13h1.53l.83-.29.64-.91v-1.8h-2.82a4,4,0,0,0-2.06-3.66c.54-.27-.12-1.27-.12-1.27v-2.07h2v-3c.18-1.62-2.78-3-2.78-3h-2.43a2.43,2.43,0,0,0-.38,0" transform="translate(0 0)"/><polyline class="cls-3" points="855.56 306.38 854.96 306.38 849.92 325.14 848.74 321.61 845.79 352.38 838.59 352.38 838.59 370.38 832.59 370.38 832.59 376.38 812.18 376.38 811.59 376.38 810.53 376.38 807.23 376.38 805.59 376.38 805.59 402.38 811.59 402.38 909.59 402.38 909.59 376.38 899.59 376.38 899.59 370.38 894.59 370.38 894.59 352.38 886.82 352.38 884.32 325.13 882.72 330.38 861.83 330.38 855.56 306.38"/><path class="cls-4" d="M180,346.9,161.3,381.38h14.94l1.57-6.05,2,.05c.5,7.86,2.85,16,3.82,24h9.18c-.09-6.54-.26-19.61-.26-27.75a34,34,0,0,0,5,4.7V353.17a58.89,58.89,0,0,1-11.35-3.3l-2,4.88a4.77,4.77,0,0,1-1.17,9.06,5.09,5.09,0,0,1-.77.06,4.77,4.77,0,0,1-1-9.45,5.26,5.26,0,0,1,1-.09,4.57,4.57,0,0,1,1.44.23l2-4.89A60.6,60.6,0,0,1,180,346.9m-14.38-11.52L162,338.8a4.78,4.78,0,0,1-3.39,7.83v34.75h1.07L179.08,346a58.94,58.94,0,0,1-12.3-9.45c-.39-.39-.77-.78-1.15-1.18m27.48-2.61L186.85,348a56.41,56.41,0,0,0,10.74,3.15v-16.9a40.64,40.64,0,0,1-4.48-1.51m-4.48-2.14-7.87,14.5a58.8,58.8,0,0,0,5.6,2.7l6.26-15.26a43.22,43.22,0,0,1-4-1.94m-30-4.3V337.1a4.81,4.81,0,0,1,3,1.32l3.65-3.42a58.76,58.76,0,0,1-6.68-8.67M178.82,323l-12,11.28,1.11,1.14a58,58,0,0,0,11.94,9.17l7.87-14.51a40.86,40.86,0,0,1-8.89-7.08m18.77-1.14L193.42,332a36.53,36.53,0,0,0,4.17,1.42V321.88m-41.41-7.39-1.44.53c.17.45.34.9.52,1.34l.92-1.87m41.41-.37L189,329.93a39.35,39.35,0,0,0,3.92,1.9l4.66-11.35v-6.36m-27.37-4.8-11.78,4.34.15,0v9.55a57.32,57.32,0,0,0,7.84,10.67l12-11.27a40.69,40.69,0,0,1-8.24-13.32m27.37-3.88-18.19,17a40.16,40.16,0,0,0,8.69,6.92l9.5-17.5v-6.46m0-6.2L171,309.05a39.91,39.91,0,0,0,8.08,13l18.55-17.38v-5.47M168.43,294c0,.35,0,.69,0,1a39.75,39.75,0,0,0,2.37,13.55l26.81-9.87v-3.76L168.43,294m-17.25-.56q0,.79,0,1.59a57.09,57.09,0,0,0,3.41,19.52l1.95-.72c.09-.18.18-.35.26-.53l.73.17L170,308.82A40.55,40.55,0,0,1,167.62,295c0-.35,0-.7,0-1.05l-16.45-.54m-1.76-.06.15.87c0-.28,0-.57,0-.86h-.17M172,278.51a39.55,39.55,0,0,0-3.53,14.93l29.14.95v-4.06L172,278.51m-15.7-7.24a57,57,0,0,0-5.09,21.61l16.46.54a40.48,40.48,0,0,1,3.61-15.24l-15-6.91m24.58-5.2a40,40,0,0,0-8.65,12l25.38,11.72v-5.83l-16.73-17.85m14-8.63a39.81,39.81,0,0,0-13.57,8.27l16.34,17.43V265.3l-2.77-7.86m2.77-.89c-.77.22-1.53.46-2.27.71l2.27,6.45v-7.16m-28.54-3.09c-.39.37-.77.73-1.15,1.11a57.37,57.37,0,0,0-11.4,16.22l15,6.91a40.91,40.91,0,0,1,8.84-12.21l-11.27-12m20-12.32a56.74,56.74,0,0,0-19.64,12l11.27,12a40.87,40.87,0,0,1,13.85-8.44l-5.48-15.55m8.52-2.31a56,56,0,0,0-8,2.13l5.48,15.55c.83-.28,1.68-.55,2.54-.78v-16.9m-73-93.36v43.91h-4v100h-31v39.27a93.31,93.31,0,0,1,21.22,6.07c1.26-1.39,2.49-2.78,3.7-4.19.68-.79,0-2.62.06-4a7.19,7.19,0,0,1,.61-2.41c.07-.15.69-.22,1-.22.14,0,.23,0,.24,0a23.86,23.86,0,0,1,.61,2.63c.31,1.67,0,3.81,1,4.93,4.5,5.14,9.38,10,14.11,14.94l1.4-.55V313.86l2-.48,2.62,5,4.24-22.12a4.72,4.72,0,0,1-3.27,1.3,4.77,4.77,0,1,1,4.32-6.79c1.05-5.47,2.05-10.69,3-15.61.76,4.69,1.7,11.11,2.85,17.67h.28a58.65,58.65,0,0,1,5.24-22.23l-4.41-2a4.8,4.8,0,1,1,.2-.5l4.43,2.05a58.57,58.57,0,0,1,11.72-16.67L168,252.3l-3.48-3.71a4.75,4.75,0,1,1,.38-.37l3.48,3.72a58.54,58.54,0,0,1,20.2-12.31l-1.92-5.45a4.84,4.84,0,1,1,.5-.18l1.92,5.46a57.8,57.8,0,0,1,8.55-2.25V190.38h-4v-34a138.94,138.94,0,0,1-40.6-6.31,113,113,0,0,0-28.4-4.61m0-10v8.33a114.13,114.13,0,0,1,28.89,4.69,137.32,137.32,0,0,0,40.11,6.23v-8.44h-.9A139,139,0,0,1,150.92,140a109.77,109.77,0,0,0-26.33-4.49m69-1.13h-11c2.66.15,5.34.23,8,.23h0l3,0v-.2m-50-5.93v5.93H130.85a103.5,103.5,0,0,1,20.56,4.07,137.63,137.63,0,0,0,41.27,6.24h.91v-8.48l-3,0a139,139,0,0,1-41.77-6.32c-1.67-.53-3.43-1-5.25-1.47m0-9.55v7.87c2,.48,3.92,1,5.75,1.6a132.58,132.58,0,0,0,24.25,5.21v-8.2a135,135,0,0,1-26.82-5.54c-1-.33-2.09-.64-3.18-.94m11-6.43v1.91h-11v2.83c1.26.34,2.49.7,3.68,1.08a132.92,132.92,0,0,0,26.32,5.45V115.5c-3.08-.28-6.13-.65-9.12-1.12h-1.88v-.3q-4.08-.69-8-1.61m0-9.61v7.94c2.61.61,5.28,1.16,8,1.62v-8.09c-2.71-.41-5.38-.91-8-1.47m5-36.48h-1v30h-4v4.81q3.91.86,8,1.49v-6.3h-3v-30" transform="translate(0 0)"/><path class="cls-5" d="M177.81,375.33l-1.57,6.05H161.3l-9.77,18h32.14c-1-8-3.32-16.14-3.82-24l-2-.05m-19.37-61.67-2.26.83-.92,1.87a55.86,55.86,0,0,0,3.33,6.88v-9.55l-.15,0m-1.67-.39c-.08.18-.17.35-.26.53l1-.36-.73-.17M143.9,293.18a4.74,4.74,0,0,1-1.48,3.07l-4.24,22.12-2.62-5-2,.48v32.05l-1.4.55c-4.73-5-9.61-9.8-14.11-14.94-1-1.12-.7-3.26-1-4.93a23.86,23.86,0,0,0-.61-2.63s-.1,0-.24,0c-.35,0-1,.07-1,.22a7.19,7.19,0,0,0-.61,2.41c-.08,1.35.62,3.18-.06,4-1.21,1.41-2.44,2.8-3.7,4.19,22.64,9.62,38.28,28.25,33.7,54.18-1.75,9.91-9.28,13.67-17.45,13.67a31.71,31.71,0,0,1-17.47-5.46c-8.56-6-12.4-11.14-20-14v20.27h53v-3h3v-2h4.73l9.34-17h-1.07V346.63h-.27a4.77,4.77,0,0,1,0-9.54h.27V326.33a57.66,57.66,0,0,1-5.34-10.76l-4.67,1.72a4.59,4.59,0,0,1,.21,1.39,4.77,4.77,0,1,1-.39-1.89l4.66-1.72a58.8,58.8,0,0,1-3.5-20.07c0-.26,0-.52,0-.78l-.15-.87-5.52-.17m2.57-18c-.95,4.92-1.95,10.14-3,15.61a4.73,4.73,0,0,1,.45,1.89l5.4.17c-1.15-6.56-2.09-13-2.85-17.67" transform="translate(0 0)"/><path class="cls-6" d="M523.54,350.38h-.95v1h.8l.15-1M466.65,160.86a8.48,8.48,0,0,0-.36,6.55,4.17,4.17,0,0,1-1.78-3.1s-3.27,5.51,1.08,8.74V174a6.47,6.47,0,0,0-5.07,6.63c0,4.45,2.6,4.45,2.6,4.45a63.76,63.76,0,0,0,1.72,8.1c.79,2.05.22,7.59.35,9.78s-.35,4.57.53,7.84a40.8,40.8,0,0,1,1.1,5.12s-5.38,5-5,8.1a4.46,4.46,0,0,0,3.22,3.74s-2,3.86-1.15,5.75a5.54,5.54,0,0,0,2.87,2.64,19.74,19.74,0,0,1-.93,4.37,3.92,3.92,0,0,0,.71,4.19,8,8,0,0,0,1.68,1.31s-3.05,5-3.31,8.18,3.57,7.68,3.57,7.68-2.87,4.66-2,6.84,2.24,4.45,2.2,8.52a88.31,88.31,0,0,1-.66,10.62,9.68,9.68,0,0,0,0,3.69S466,298.56,466,301.63c0,2.62,0,8.22,0,9.75h-6.48v5h-2.38l.93,32.33v.67h1.44v2h9v-2h9v2h39v-1h4v-34h-5v-5h-6.46a74,74,0,0,1,.05-9.62c.41-3.62-.58-11.79-.58-11.79a19.72,19.72,0,0,0,1.65-4.55c.25-1.77-2.19-11.56-2-13.14s1-8.27,1-8.27a16.6,16.6,0,0,0,5.83-4.8c2-3,4.47-6,4.1-6.83a14.65,14.65,0,0,0-1.12-1.89l1.86-3.22-.93-.89h-9.81l-4.23,4.3-2.24.25s-2.6-9.29-4.34-12-6.28-5.31-6.28-5.31a9.62,9.62,0,0,1-.43-3.76,7.21,7.21,0,0,0-.34-4.29A2.62,2.62,0,0,1,491,224a8.55,8.55,0,0,0,1.22-2.41l8.09.81-7.69-2.62c0-.32,0-.65,0-1a9,9,0,0,0-.11-1.39l7.47-2.84-7.91,1.13a8.75,8.75,0,0,0-1.49-2.59l5.33-6.63-6.79,5.26a8,8,0,0,0-2.62-1.26l-.15-9.31-1.9,9a7.69,7.69,0,0,0-3.21.71l-5.58-7,4.13,7.84a8.39,8.39,0,0,0-2.16,2.39l-3.58-.59,3.08,1.55a9,9,0,0,0-.66,2.2,13.8,13.8,0,0,1-1.92-2.71c-.66-1.36-2.3-3.6-2.15-4.71s-.55-2.05-.75-5.67-2-6.82-1.37-9.52,1.32-4.34.95-5.94a19.53,19.53,0,0,1-.33-3.87,5.83,5.83,0,0,0,2.65-5.52,5.9,5.9,0,0,0-5.05-6V173a6.09,6.09,0,0,0,2.25-4.79c0-4.12-3.83-4.94-4.19-7.37" transform="translate(0 0)"/><path class="cls-7" d="M449.58,350.38h-3v50.24c.14,1.61.25,2.76.25,2.76h2.49l.25-53m7.63-34h-3.62v33h4.56v-.67l-.93-32.33" transform="translate(0 0)"/><path class="cls-8" d="M43.91,331.34C16.48,339.45-4.18,359.45.72,388.9c1.7,10.16,8.46,14.22,16.37,14.22,6.48,0,13.72-2.72,19.58-7,1-.72,1.88-1.41,2.75-2.08l.28-3.23c1.38-19.81,2.84-39.63,4.21-59.44M87,328.26q.61,13.17,1.25,26.34a14.64,14.64,0,0,0,.46,4.42,3.87,3.87,0,0,0,.88,1.28V328.65c-.86-.14-1.73-.27-2.59-.39" transform="translate(0 0)"/><path class="cls-9" d="M72.62,327.27a101.79,101.79,0,0,0-28.71,4.07c-1.37,19.81-2.83,39.63-4.21,59.44L39.42,394c10.81-8.34,14.82-13.33,33.2-13.33,7.65,0,12.85.88,17,2.43V360.3a3.87,3.87,0,0,1-.88-1.28,14.64,14.64,0,0,1-.46-4.42q-.63-13.17-1.25-26.34a105.8,105.8,0,0,0-14.38-1" transform="translate(0 0)"/><path class="cls-10" d="M89.59,328.65V360.3a2.79,2.79,0,0,0,1.64.92h0a3.33,3.33,0,0,0,2.29-2.31c.31-4.46.08-9,.41-13.41a42.07,42.07,0,0,1,3-13.44c.8,4.57,1.59,9.14,2.58,14.88,4-4.34,7.74-8.29,11.28-12.22a93.31,93.31,0,0,0-21.22-6.07" transform="translate(0 0)"/><path class="cls-9" d="M97,332.06a42.07,42.07,0,0,0-3,13.44c-.33,4.46-.1,8.95-.41,13.41a3.33,3.33,0,0,1-2.29,2.31h0a2.79,2.79,0,0,1-1.64-.92v22.81c7.6,2.86,11.44,8,20,14a31.71,31.71,0,0,0,17.47,5.46c8.17,0,15.7-3.76,17.45-13.67,4.58-25.93-11.06-44.56-33.7-54.18-3.54,3.93-7.27,7.88-11.28,12.22-1-5.74-1.78-10.31-2.58-14.88" transform="translate(0 0)"/><path class="cls-6" d="M987.64,360.47l-.54-1.89.54,1.89m15-119.85-41,48.73,1.11,1.11-1.11,1.11-4.43-2.22-4.43,3.33-2.21-2.22,1.1-1.11-43.19-46.51-4.43,4.43-4.43,5.54,48.94,41v-1.1l2,1.1-18,15.51v8L914,335.38h13.68l3.4-4.13,2.63-3.87h4.9l5.42,8h.52v-4h14.13l4.24-13h4l7.6,24.18a7,7,0,0,1,3.8,3l1.36-5.16h.82v-6h1v6h.85l1.07,15h1.08v20.45l-.82,27.55h16.82v-44H989.16l-4.57-12.1v-15.4l21.71,22,4.57-4.4,4.57-4.4-30.85-25.3v-12.1l-21.72-13.2,1.14-1.1h2.09l46.52-43.9-4.43-4.43-5.54-4.43" transform="translate(0 0)"/><polyline class="cls-7" points="987.1 358.58 987.64 360.47 987.1 358.58"/><path class="cls-7" d="M927.72,335.38H914L901.92,347.2l4.38,4.43,4.38,4.43,17-20.68m40-17H963l-4.24,13H944.59v4h-.52l-5.42-8h-4.9l-2.63,3.87,1.47-1.77V345l-20.81,14.39h-2.19v17h18v26h-18v1h74.18l.82-27.55V355.38h-1.08l-1.07-15h-.85v-6h-1v6h-.82l-1.36,5.16a7,7,0,0,0-3.8-3L967,318.38h.75" transform="translate(0 0)"/><polyline class="cls-11" points="927.59 376.38 909.59 376.38 909.59 402.38 927.59 402.38 927.59 376.38"/><path class="cls-8" d="M112.76,123.51a179.33,179.33,0,0,0-52.24,7.74c-16.67,5.21-31.5,13.09-41.13,23.88a.82.82,0,0,0,.07,1.16.84.84,0,0,0,.54.2.82.82,0,0,0,.61-.27c8.48-9.52,21.32-16.83,36-21.95v-.82h1v.47c1.12-.38,2.26-.76,3.41-1.11a177.73,177.73,0,0,1,51.76-7.67h0a132,132,0,0,1,30.81,3.31v-1.68a134.23,134.23,0,0,0-30.83-3.26m157.55-21a.81.81,0,0,0-.62.29c-18.82,21.87-47.8,31.14-76.1,31.74v1.63c28.63-.6,58.09-10,77.33-32.31a.81.81,0,0,0-.08-1.15.85.85,0,0,0-.53-.2" transform="translate(0 0)"/><path class="cls-9" d="M57.37,133.45h-.78v.82l1-.35v-.47h-.22" transform="translate(0 0)"/><path class="cls-8" d="M173.59,133.58v.8h9c-3-.17-6-.44-9-.8" transform="translate(0 0)"/><path class="cls-10" d="M143.59,126.77v1.68c1.82.44,3.58.94,5.25,1.47a139,139,0,0,0,41.77,6.32l3,0v-1.63l-3,0h0c-2.68,0-5.36-.08-8-.23h-9v-.8a132.58,132.58,0,0,1-24.25-5.21c-1.83-.59-3.76-1.12-5.75-1.6" transform="translate(0 0)"/><path class="cls-8" d="M56.53,143.37c-14.18,5.15-26.62,12.38-35.07,21.84a.81.81,0,0,0,.07,1.15.81.81,0,0,0,1.15-.06c8.07-9.06,20.06-16.11,33.83-21.18,0-.58,0-1.17,0-1.75m17.06-5c-3.73.88-7.41,1.88-11,3q-2.54.79-5,1.66v1.73c1.8-.64,3.63-1.26,5.48-1.83,3.43-1.08,6.95-2,10.52-2.88v-1.68m41.24-4.74A183.85,183.85,0,0,0,75.17,138c0,.52,0,1.08,0,1.67a182,182,0,0,1,39.67-4.42h0c3.31,0,6.56.09,9.74.29v-1.13h6.26a156,156,0,0,0-16-.79m157.55-21a.81.81,0,0,0-.62.29c-19.27,22.4-49.22,31.58-78.17,31.77v1.63c29.27-.19,59.7-9.46,79.41-32.34a.82.82,0,0,0-.62-1.35" transform="translate(0 0)"/><path class="cls-9" d="M57.59,143l-1.06.38c0,.58,0,1.17,0,1.75l1.08-.4V143m17.58-5-1.58.36V140l1.57-.37c0-.59,0-1.15,0-1.67" transform="translate(0 0)"/><path class="cls-10" d="M130.85,134.38h-6.26v1.13A109.77,109.77,0,0,1,150.92,140a139,139,0,0,0,41.77,6.32h.9v-1.63h-.91a137.63,137.63,0,0,1-41.27-6.24,103.5,103.5,0,0,0-20.56-4.07" transform="translate(0 0)"/><path class="cls-8" d="M56.43,154.26c-13.27,5.09-24.88,12.05-32.89,21a.82.82,0,0,0,.6,1.36.8.8,0,0,0,.61-.27C32.4,167.8,43.56,161,56.42,156c0-.58,0-1.16,0-1.75m17.16-5.35Q69,150,64.66,151.41c-2.4.75-4.76,1.55-7.07,2.42v1.74c2.46-.94,5-1.8,7.55-2.61q4.15-1.29,8.45-2.37v-1.68m43.31-5.25a184,184,0,0,0-41.78,4.88c0,.55,0,1.11,0,1.68a181.25,181.25,0,0,1,41.79-4.93h0c2.6,0,5.15.06,7.67.18v-1.63c-2.52-.12-5.09-.17-7.69-.18m157.55-21a.81.81,0,0,0-.62.29c-19.47,22.63-49.84,31.77-79.07,31.77h-1.17v1.63h1.17c29.54,0,60.4-9.22,80.31-32.34a.82.82,0,0,0-.62-1.35" transform="translate(0 0)"/><path class="cls-9" d="M57.59,153.83l-1.16.43c0,.59,0,1.17,0,1.75l1.17-.44v-1.74m17.53-5.29-1.53.37v1.68l1.52-.37c0-.57,0-1.13,0-1.68" transform="translate(0 0)"/><path class="cls-10" d="M124.59,143.84v1.63a113,113,0,0,1,28.4,4.61,138.94,138.94,0,0,0,40.6,6.31v-1.63a137.32,137.32,0,0,1-40.11-6.23,114.13,114.13,0,0,0-28.89-4.69" transform="translate(0 0)"/><path class="cls-8" d="M110.69,113.43a179.44,179.44,0,0,0-52.25,7.74c-16.66,5.21-31.49,13.1-41.12,23.89a.81.81,0,0,0,.07,1.15.79.79,0,0,0,.54.2.82.82,0,0,0,.61-.27c9.33-10.47,23.9-18.26,40.39-23.41a177.63,177.63,0,0,1,51.76-7.67h0c12.15,0,23.53,1.3,32.88,3.84v-1.69c-9.45-2.51-20.81-3.78-32.9-3.78m157.54-21a.8.8,0,0,0-.61.28c-19.48,22.63-49.85,31.77-79.08,31.77h0a142,142,0,0,1-14.95-.79v1.64a144.84,144.84,0,0,0,14.95.78c29.55,0,60.41-9.22,80.31-32.34a.81.81,0,0,0-.08-1.15.85.85,0,0,0-.54-.19" transform="translate(0 0)"/><path class="cls-10" d="M143.59,117.21v1.69c1.09.3,2.15.61,3.18.94a135,135,0,0,0,26.82,5.54v-1.64a132.92,132.92,0,0,1-26.32-5.45c-1.19-.38-2.42-.74-3.68-1.08" transform="translate(0 0)"/><path class="cls-8" d="M108.62,103.35a179.44,179.44,0,0,0-52.25,7.74c-16.66,5.22-31.49,13.1-41.12,23.89a.8.8,0,0,0,.61,1.35.84.84,0,0,0,.61-.27c9.32-10.46,23.9-18.26,40.39-23.41A177.63,177.63,0,0,1,108.62,105h0c13.57,0,26.18,1.63,36.06,4.78q4.78,1.53,9.89,2.71V110.8q-4.84-1.14-9.39-2.59c-10.11-3.23-22.87-4.86-36.58-4.86M266.16,82.4a.78.78,0,0,0-.61.28c-19.48,22.64-49.85,31.77-79.08,31.77h0a141.71,141.71,0,0,1-23.88-2v1.66l1.88.3h9.12v1.12c4.24.38,8.55.58,12.88.58,29.55,0,60.4-9.22,80.31-32.34a.81.81,0,0,0-.09-1.15.8.8,0,0,0-.53-.19" transform="translate(0 0)"/><path class="cls-10" d="M173.59,114.38h-9.12c3,.47,6,.84,9.12,1.12v-1.12m-19-3.58v1.67q3.91.91,8,1.61v-1.66c-2.72-.46-5.39-1-8-1.62" transform="translate(0 0)"/><path class="cls-8" d="M106.55,93.27A179.44,179.44,0,0,0,54.3,101c-16.67,5.22-31.49,13.1-41.12,23.89a.82.82,0,0,0,.61,1.36.81.81,0,0,0,.6-.28c9.33-10.46,23.91-18.26,40.4-23.41a178,178,0,0,1,51.76-7.67h0c13.57,0,26.19,1.63,36.07,4.78,3.83,1.23,7.83,2.29,12,3.18v-1.67c-4-.86-7.79-1.89-11.46-3.06-10.12-3.22-22.88-4.86-36.58-4.86m157.54-21a.8.8,0,0,0-.62.28C244,95.24,213.63,104.38,184.4,104.37h0a140.7,140.7,0,0,1-21.81-1.69v1.65A143.42,143.42,0,0,0,184.4,106c29.55,0,60.4-9.22,80.31-32.34a.81.81,0,0,0-.09-1.14.76.76,0,0,0-.53-.2" transform="translate(0 0)"/><path class="cls-10" d="M154.59,101.19v1.67c2.62.56,5.29,1.06,8,1.47v-1.65q-4.08-.63-8-1.49" transform="translate(0 0)"/><path class="cls-8" d="M989,164.59a.66.66,0,0,0-.53.28,59.81,59.81,0,0,1-24.92,19.8,77.17,77.17,0,0,1-30.62,6h0a93.57,93.57,0,0,1-34.42-6.62c-8.71-3.5-19.91-5.31-31.75-5.31a112.72,112.72,0,0,0-37.16,6.15c-11.66,4.16-21.9,10.49-28.53,19.25a.66.66,0,0,0,.13.92.67.67,0,0,0,.4.14.65.65,0,0,0,.53-.27c6.41-8.47,16.42-14.7,27.91-18.79a111.53,111.53,0,0,1,36.72-6.07h0c11.7,0,22.76,1.8,31.25,5.21A94.66,94.66,0,0,0,932.92,192a78.59,78.59,0,0,0,31.15-6.11,61.27,61.27,0,0,0,25.46-20.24.67.67,0,0,0-.54-1.06" transform="translate(0 0)"/><path class="cls-8" d="M990.82,173.49a.66.66,0,0,0-.53.28,59.81,59.81,0,0,1-24.92,19.8,77.17,77.17,0,0,1-30.62,6h0A93.57,93.57,0,0,1,900.33,193c-8.71-3.5-19.91-5.31-31.76-5.31a112.7,112.7,0,0,0-37.15,6.15c-11.66,4.16-21.9,10.49-28.53,19.25a.66.66,0,0,0,.13.92.66.66,0,0,0,.93-.12h0c6.4-8.47,16.42-14.7,27.91-18.8A111.52,111.52,0,0,1,868.57,189h0c11.7,0,22.76,1.8,31.25,5.21a94.66,94.66,0,0,0,34.91,6.72,78.59,78.59,0,0,0,31.15-6.11,61.27,61.27,0,0,0,25.46-20.24.67.67,0,0,0-.54-1.06" transform="translate(0 0)"/><path class="cls-8" d="M992.65,182.4a.65.65,0,0,0-.53.27,59.81,59.81,0,0,1-24.92,19.8,77.17,77.17,0,0,1-30.62,6h0a93.57,93.57,0,0,1-34.42-6.62c-8.71-3.5-19.91-5.31-31.76-5.31a112.7,112.7,0,0,0-37.15,6.15c-11.66,4.16-21.9,10.49-28.53,19.25a.66.66,0,0,0,.13.92.66.66,0,0,0,.93-.12c6.4-8.47,16.42-14.7,27.91-18.8a111.52,111.52,0,0,1,36.71-6.07h0c11.7,0,22.76,1.8,31.25,5.21a94.66,94.66,0,0,0,34.91,6.72,78.51,78.51,0,0,0,31.14-6.11,61.23,61.23,0,0,0,25.47-20.24.67.67,0,0,0-.15-.93.69.69,0,0,0-.39-.12" transform="translate(0 0)"/><path class="cls-8" d="M987.16,155.69a.66.66,0,0,0-.53.28,59.89,59.89,0,0,1-24.92,19.8,77.15,77.15,0,0,1-30.61,6h0a93.57,93.57,0,0,1-34.42-6.62c-8.71-3.5-19.91-5.31-31.75-5.31A112.72,112.72,0,0,0,827.76,176c-11.66,4.16-21.9,10.49-28.53,19.24a.67.67,0,0,0,.53,1.07.65.65,0,0,0,.53-.27h0c6.41-8.47,16.42-14.7,27.91-18.79a111.27,111.27,0,0,1,36.72-6.07h0c11.7,0,22.76,1.8,31.25,5.21a94.71,94.71,0,0,0,34.92,6.72A78.54,78.54,0,0,0,962.24,177a61.21,61.21,0,0,0,25.46-20.24.66.66,0,0,0-.15-.93.68.68,0,0,0-.39-.13" transform="translate(0 0)"/><path class="cls-8" d="M985.34,146.79a.66.66,0,0,0-.54.28,59.89,59.89,0,0,1-24.92,19.8,77.15,77.15,0,0,1-30.61,6h0a93.57,93.57,0,0,1-34.42-6.62c-8.71-3.5-19.91-5.31-31.75-5.31a112.72,112.72,0,0,0-37.16,6.15c-11.66,4.16-21.9,10.49-28.53,19.24a.67.67,0,0,0,.53,1.07.65.65,0,0,0,.53-.27c6.41-8.47,16.42-14.7,27.92-18.8a111.42,111.42,0,0,1,36.71-6.06h0c11.7,0,22.76,1.8,31.25,5.21a94.71,94.71,0,0,0,34.92,6.72,78.54,78.54,0,0,0,31.14-6.11,61.21,61.21,0,0,0,25.46-20.24.67.67,0,0,0-.14-.93.65.65,0,0,0-.39-.13" transform="translate(0 0)"/><path class="cls-8" d="M983.51,137.89a.66.66,0,0,0-.54.28A59.89,59.89,0,0,1,958.05,158a77.15,77.15,0,0,1-30.61,6h0A93.57,93.57,0,0,1,893,157.35c-8.71-3.5-19.91-5.31-31.75-5.31a112.72,112.72,0,0,0-37.16,6.15c-11.66,4.16-21.9,10.49-28.52,19.24a.66.66,0,0,0,.12.93.67.67,0,0,0,.4.14.65.65,0,0,0,.53-.27c6.41-8.47,16.42-14.7,27.92-18.8a111.16,111.16,0,0,1,36.71-6.06h0c11.7,0,22.76,1.8,31.25,5.21a94.75,94.75,0,0,0,34.92,6.72,78.54,78.54,0,0,0,31.14-6.11A61.21,61.21,0,0,0,984,139a.67.67,0,0,0-.14-.93.65.65,0,0,0-.39-.13" transform="translate(0 0)"/><path class="cls-8" d="M321.13,0c-.23,0-.73.49-.81.81a8.72,8.72,0,0,0-.07,1.85c-.23,10.2-.42,20.41-.7,30.61-.25,8.61,0,17.19-.75,25.83-.89,10.65-.21,21.42-.21,32.13v3c-1.84,0-2.61.66-1.91,2.46a9.18,9.18,0,0,1,.87,3.1q.07,22.59,0,45.2v2.31l-3,.61v6.66h-3.78c-3.33,0-4.17.84-4.2,4.08,0,.62,0,1.24,0,1.86,0,1.38.26,2.86-1.94,2.86h-.16c.35,1.82.66,3.41,1,5,.41,2.16,1.14,4.32,1.14,6.48,0,2.78,1.29,4.63,4.15,4.75.54,0,1.09,0,1.64,0l2.91,0c-1.53,40.06-3.87,101.31-5.72,149.46a142.89,142.89,0,0,1,23.65,4.9q-3.06-77.34-6.11-154.75c1.17,0,2.2,0,3.17,0,.6,0,1.17,0,1.74,0a4,4,0,0,0,4-4.71,6.4,6.4,0,0,1,.22-1.93c.65-3.1,1.31-6.2,2-9.53-2.28,0-2.28-1.41-2.2-2.87.05-.85,0-1.71,0-2.56-.08-2.37-1.08-3.34-3.56-3.41-.6,0-1.2,0-1.81,0h-3.16v-6.71l-2.37-.58a2.35,2.35,0,0,1-.09-.39q0-24.12-.05-48.23c0-.45,0-1.08.24-1.32,2.26-2,.82-2.78-1.24-3.34,0-.42-.09-.8-.11-1.18-.56-12.87.26-25.73-.74-38.64-1.21-15.49-.7-31.11-.93-46.67,0-1.63,0-3.27,0-4.9a3.33,3.33,0,0,0-.06-1.38A1.81,1.81,0,0,0,321.16,0h0" transform="translate(0 0)"/><path class="cls-6" d="M709,104.59c-.9,3.14-2.2,5.55-2,8.43a16.36,16.36,0,0,1-1.93,9.2c-4.89,8.44-9.83,16.86-14.75,25.29-.82,1.41-1.56,2.9-3.59,3.22l0,9.56-2.47-.16-1.4-5.49c-.6,2.29-1,3.94-1.45,5.53l-2.12.65c.23,5.18-1.34,10.13-.84,15.25.16,1.71,0,3.45,0,5.18,0,.51.07,1.31-.2,1.48-1.65,1-1.1,2.56-1.09,3.92l.12,35.21,3.26-6.63a9.88,9.88,0,0,1,1.53-2.4c.54,5.67.35,11.34.4,17,0,5.88,0,11.76,0,17.64s0,11.57,0,17.35l0,17.63q0,8.69,0,17.36t0,17.63q0,8.69.05,17.36,0,8.29,0,16.58h8.81v-2h9.77l.23,53.91,29.22-.1q0-78.7.05-157.41a1.93,1.93,0,0,1,.15-.4h4.58v-7h5v-9h.88q-.08-21.4-.16-42.8a20.39,20.39,0,0,0,0-2.07c0-.49-.1-1.23-.41-1.4-1-.57-.75-1.48-.76-2.29,0-3.45,0-6.89,0-10.34a12.49,12.49,0,0,0-.11-1.83c-.23-1.5-.63-3-.79-4.5a33.54,33.54,0,0,1,0-3.62l-2.31-.66-1.14-4.82h-.34l-1.28,5L731.4,160l0-8.61a31.49,31.49,0,0,1-3.15-3.7c-5-8.21-9.79-16.48-14.73-24.7a15.09,15.09,0,0,1-2.49-8.76c.2-3.22-.89-6.07-2-9.59" transform="translate(0 0)"/><path class="cls-2" d="M677.29,221.86q-5.77,11.73-11.54,23.48-17.58,35.71-35.16,71.43v32.61h1v1h3v1h39v-2h4.16q-.22-63.76-.46-127.52" transform="translate(0 0)"/><path class="cls-12" d="M682.08,212.83a9.88,9.88,0,0,0-1.53,2.4l-3.26,6.63q.23,63.75.46,127.52h4.84v2h.19q0-8.29,0-16.58,0-8.69-.05-17.36t0-17.63q0-8.69,0-17.36l0-17.63q0-8.67,0-17.35c0-5.88,0-11.76,0-17.64-.05-5.66.14-11.33-.4-17" transform="translate(0 0)"/><path class="cls-4" d="M755.59,204.5v5.56s-2.55.2-3.32.29c-.08.78-.14,1.43-.22,2.11-.53.23-1.46.75-1.46.75v10.17h-5v6h-4.12q.33,85.94.64,171.88c0,.61,0,1.24,0,1.88l-11.31.05v.19h29.78l1-13.54V350.23c-.31-2.16.77-4.31,3-5.93v-8.92h7v-5h1.17l4.7-11.21.78-.79h2.35v-73h-5v-6.63l-4-.2v-9.17h-6v-6l-5-.2V213.09l-1.53-.56c-.08-.85-.15-1.55-.22-2.26l-3.18-.2c0-1.15.06-2.14,0-3.12a8.73,8.73,0,0,0-.06-2.45m-.23-.4a2.05,2.05,0,0,1,.23.4v-.39h-.23m0,0h0" transform="translate(0 0)"/><path class="cls-5" d="M780.59,318.38h-2.35l-.78.79-4.7,11.21h-1.17v5h-7v8.92c-2.23,1.62-3.31,3.77-3,5.93v39.61l-1,13.54h20v-85" transform="translate(0 0)"/><path class="cls-13" d="M741.47,229.38h-.88v9h-5v7H731a1.93,1.93,0,0,0-.15.4q0,78.71-.05,157.41l11.31-.05c0-.64,0-1.27,0-1.88q-.32-85.93-.64-171.88" transform="translate(0 0)"/><path class="cls-2" d="M225.71,351.55a57.78,57.78,0,0,1-8.59,1.94,71.67,71.67,0,0,0-7,7.78,4.77,4.77,0,0,1-4,7.37h0a4.62,4.62,0,0,1-1-.11c-.38.64-.76,1.28-1.13,1.93-2.42,4.27-3.56,6.33-5.06,6.33a2.56,2.56,0,0,1-1.34-.46v23.05h28.15q0-23.91,0-47.83m0-5a72.43,72.43,0,0,0-5.86,4.51,55.54,55.54,0,0,0,5.87-1.52c0-1,0-2,0-3M333.25,334q.58,15.15,1.19,30.3a6.69,6.69,0,0,1,.67-.89c.19-.21.12-.68.08-1-.59-5.2,1-10.09,2.34-15,1-3.73.78-7.52,0-11.89l.07-.1c-1.46-.48-2.92-.94-4.38-1.37m-36.56-5.82c-.06,25.13-.1,50.26-.1,75.23H333l.09-1H306.79s1.22-31.78,2.81-73.31q-6.45-.76-12.91-.92" transform="translate(0 0)"/><path class="cls-14" d="M236.67,346.9a58.36,58.36,0,0,1-8.54,3.84l1.71,4.84a4.81,4.81,0,0,1,1.53-.25,5.09,5.09,0,0,1,1.42.21,4.71,4.71,0,0,1,3.19,3.31,4.78,4.78,0,0,1-4.61,6,5.12,5.12,0,0,1-.78-.06,4.77,4.77,0,0,1-1.24-9l-1.72-4.86c-.63.22-1.28.43-1.92.63q0,23.93,0,47.83h39.4L236.67,346.9m-10.56-.66c-.13.1-.27.19-.41.28,0,1,0,2,0,3l1.39-.46-1-2.81m7.89-4.63a72.32,72.32,0,0,0-7.43,4.33l1,2.93a56.31,56.31,0,0,0,8.31-3.74L234,341.61m12.72-5.26c-2.34.83-4.67,1.71-7,2.66q-2.42,1-4.76,2.13l1.88,3.47a57.29,57.29,0,0,0,10.41-7.7l-.52-.56m1.73-.59-1.18.4.36.39.82-.79m45.18-7.64a139,139,0,0,0-41.95,6.58c-.58.63-1.18,1.25-1.79,1.86l-1.18,1.15,4.7,5a4.69,4.69,0,0,1,2.71-.85A4.75,4.75,0,1,1,253,343l-4.66-5A59.14,59.14,0,0,1,237.59,346l28.76,52.37h5.24v2h2v3h23c0-25,0-50.1.1-75.23l-3.06,0" transform="translate(0 0)"/><path class="cls-15" d="M192.59,371.63c0,8.14.17,21.21.26,27.75h4.74V376.33a34,34,0,0,1-5-4.7" transform="translate(0 0)"/><path class="cls-16" d="M309.6,329.07c-1.59,41.53-2.81,73.31-2.81,73.31h26.32c.28-3.32.66-6.6.72-9.89.14-6.72,0-13.46.06-20.19,0-2.69-1-5.5.55-8q-.6-15.15-1.19-30.3a142.89,142.89,0,0,0-23.65-4.9" transform="translate(0 0)"/><path class="cls-4" d="M612.59,198.38h-1v4h-1v1h-26v-1h-1v-4h-1v5.7l-7.53,9.3h-1.47v4h-1v-1h-2v10h-4v9h-1v76h-1v21.67a107.06,107.06,0,0,1,11.5-.56c23.22,0,28.5,5.76,28.5,5.76v6.13h2v7h6v-1h6v1h2v-1h3.63q0-8.83-.07-17.68a11.48,11.48,0,0,1,1.22-5.36l5.22-10.57v-5.39h-1v-76h-1v-9h-4v-10h-2v1h-1v-4H620.2l-7.61-9.3v-5.7" transform="translate(0 0)"/><path class="cls-17" d="M624.29,403.38h0m6.3-86.61-5.22,10.57a11.48,11.48,0,0,0-1.22,5.36q0,8.83.07,17.68h2.37v1h2v-1h3v-1h-1V316.77" transform="translate(0 0)"/><path class="cls-2" d="M532.24,326.48q1.54-13.55,2.79-27.1h3.56v26.46l-6.35.64m25.69,0-6.34-.64V299.38h3.55q1.23,13.58,2.79,27.1m-22.36-33.1q.76-8.94,1.37-17.89c.8-12,1.4-24,1.65-36v53.89h-3m16,0V239.49c.24,12,.84,24,1.64,36q.6,9,1.38,17.89h-3m-13-76.81q-.09-3.72-.22-7.44a290.57,290.57,0,0,0-3-33A152.27,152.27,0,0,0,532,159.8a92.27,92.27,0,0,0-4.14-12.24c3.87.33,7.68.48,10.73.54v68.47m13,0V148.1c3-.06,6.85-.2,10.72-.54a92.27,92.27,0,0,0-4.14,12.24,154.76,154.76,0,0,0-3.38,16.31,290.57,290.57,0,0,0-3,33q-.13,3.72-.21,7.44m-7-138.7-.16-.49h.18v.41l0,.08m0,0v-.49h.17l-.16.49m.66-1.81c-.09,0-.16.08-.23.32h-.44v1h-.65l-.21-.19,0,.23.35,1.07.19.17.18,0-.18,2.36v.05L544,83.7v0h0L543.86,86v.06l-.58,7.62v.06l-.15,1.89s0,0,.46,0h0l-.73,3.62v0l-.22,3h-.49l-.12,0-.14.14-.52,2.44-.77,0v-.77l-.08-.2-.19-.06-3.63.23a.24.24,0,0,0-.21.14l-.52,1.08c-.93.11-1.49.19-1.5.2a2.24,2.24,0,0,0-1.63.79,2.3,2.3,0,0,0-.42,1.58c0,.87-.43.93-.47.93a23,23,0,0,0-2.39.72c-.52.19-.8.46-.85.8-.09.59.57,1.09.64,1.14l2.85,2.3a1.4,1.4,0,0,1,.65,1.12c-.06.62-.8,1-.8,1.06l-20.66,7.09c-2.82,1-4.35,1.94-4.56,2.68a.5.5,0,0,0,0,.37l.51,2.73c-6.83,1.73-7.55,3-7.49,3.83.18,2.45,10.11,3.63,11.91,3.83l1,2.76a21.57,21.57,0,0,0-4.19,1.86.25.25,0,0,0-.08.32c1.51,3.15,8.18,4.82,15.4,5.7a85.77,85.77,0,0,1,4.57,13.47,153,153,0,0,1,3.14,16,288.72,288.72,0,0,1,2.6,32.63,630.94,630.94,0,0,1-2.1,65.63q-.72,9.12-1.61,18.23c0,.17,0,.35,0,.52-.16,1.66-.33,3.33-.5,5,0,.17,0,.35,0,.52q-2.11,20.59-4.92,41.12-.69,5.06-1.41,10.1h4.77q.72-4.9,1.39-9.82c.38-2.72.74-5.45,1.1-8.18h7.79v16.78L537,350.38h1.62v1h6v-7h3v-6.13a11.73,11.73,0,0,1,4-2.31v-3.56h7.78l.18,1.38c1.21-.22,2.52-.42,4-.59q-2.18-16.82-3.93-33.67c0-.17,0-.35-.05-.52-.16-1.67-.33-3.34-.49-5,0-.17,0-.35,0-.52q-.88-9.1-1.6-18.24a629.73,629.73,0,0,1-2.11-65.71,287.3,287.3,0,0,1,2.6-32.67,153.83,153.83,0,0,1,3.14-16,87.63,87.63,0,0,1,4.57-13.48c7.23-.88,13.91-2.56,15.43-5.71a.24.24,0,0,0-.09-.32,21.18,21.18,0,0,0-4.19-1.86l.95-2.76c1.8-.2,11.75-1.38,11.93-3.84,0-.82-.67-2.1-7.5-3.83l.51-2.74a.56.56,0,0,0,0-.37c-.2-.73-1.74-1.64-4.57-2.68l-20.63-7.09s-.78-.45-.84-1.07a1.37,1.37,0,0,1,.65-1.12l2.84-2.3c.08,0,.74-.55.66-1.14-.06-.35-.34-.61-.85-.8a22,22,0,0,0-2.43-.73s-.39-.06-.45-.92a2.06,2.06,0,0,0-2-2.38s-3-.46-6.92-.66l-.52-2.45a.26.26,0,0,0-.26-.2h-.21l-.22-2.86v0l-.26-3.6h0v-.05l-.14-1.88h0v-.06l-.57-7.57h0v0L545.69,84h0v0l-.19-2.56v0L545.31,79l.18,0,.19-.17.35-1.06,0-.23-.21-.11h-.19V76.19a1.21,1.21,0,0,0-.33-.13" transform="translate(0 0)"/><path class="cls-12" d="M524.59,350.38h-1.05l-.15,1h1.2v-1" transform="translate(0 0)"/><path class="cls-2" d="M544.3,76.06s.05.08.13.32h.16v-.19a1.15,1.15,0,0,1-.29-.13" transform="translate(0 0)"/><path class="cls-18" d="M701.59,403.29l-23.63.09h23.63v-.09M678,403.18l-46.36.18v0H678v-.2m-139.36-20.8h-11v21H539a4.41,4.41,0,0,1-.26-1h-.18v.42a2.46,2.46,0,0,0-.45.13c0,.17-.08.22-.11.22l0-.09.15-.13a4,4,0,0,0,.11-.55h.34v-20m25,0h-12v19.51a.25.25,0,0,1,0,.49h-.91a7.74,7.74,0,0,0-.26,1h13.17l0-21m-26.65-32h-4.38v1h-2v-1h-2.28l-.72,5v13.94l3-.76.15-.36A.28.28,0,0,1,531,368s3-.2,7.63-.32v-7.83L536.66,358l-.07-.19v-7l.1-.21.28-.21m22.58-16.62a40.42,40.42,0,0,0-8,2.18v13.22l1.89,1.43.11.21v7l-.08.19-1.92,1.88v7.83c4.63.12,7.58.31,7.62.32a.28.28,0,0,1,.25.17l.15.36,4,1v-7.18q-1.68-10.89-3.18-21.81c-.31-2.27-.62-4.53-.92-6.8m5-.71-1.09.12q.5,3.75,1,7.5l.09.62v-8.24" transform="translate(0 0)"/><polyline class="cls-19" points="453.59 349.38 449.59 349.38 449.58 350.38 453.59 350.38 453.59 349.38"/><path class="cls-20" d="M527.59,382.38h-3c-1.06,6.84-2.16,13.66-3.35,20.49a.25.25,0,0,1,.22.25.26.26,0,0,1-.26.26h6.42v-21m0-27q-1.08,7.26-2.24,14.5l2.24-.56V355.35m-50-6h-9v2h-9v-2h-1.44q.71,24.94,1.42,49.89c0,1.35.17,2.69.27,4.11H515s-.26-.18-.26-.32a3.24,3.24,0,0,1,.26-.68h-.18c1.41-7.63,2.73-15.31,4-23a2.75,2.75,0,0,1-1.64-1.7l.05-.21.2-.1h.19v-1.23a.43.43,0,0,1,.22-.07c.12,0,.25.06.32.3h.25l-.46-2h-1.28a1.17,1.17,0,0,0-.22-.56v-.25l.37-.64.15-.11,3.36-.93q1.62-10.25,3.09-20.51h-.8v-1h-6v1h-39v-2" transform="translate(0 0)"/><path class="cls-21" d="M458.15,349.38h-4.56v1h-4l-.25,53h10.51c-.1-1.42-.23-2.76-.27-4.11q-.72-24.94-1.42-49.89" transform="translate(0 0)"/><path class="cls-20" d="M701.36,349.38h-9.77v2h-8.81v1.05q0,8.69.05,17.36t0,17.63c0,5.2,0,10.42.06,15.74l-5,0v.2l23.63-.09-.23-53.91" transform="translate(0 0)"/><path class="cls-22" d="M677.75,349.38h-4.16v2h-39v-1h-3v53l46.36-.18q-.09-26.9-.2-53.8" transform="translate(0 0)"/><path class="cls-23" d="M682.59,349.38h-4.84q.11,26.91.2,53.8l5,0c0-5.32,0-10.54-.06-15.74q0-8.82,0-17.63t-.05-17.36v-1.05h-.19v-2" transform="translate(0 0)"/><path class="cls-24" d="M631.59,403.36l-7.3,0h7.3v0m-55.5-70.87a107.06,107.06,0,0,0-11.5.56v8.24q2.11,15.54,4.56,31l3.36.94.16.11.36.63v.26a.22.22,0,0,1-.22.13h-1.28l-.48,2h.27a.26.26,0,0,1,.26.27v.73h.19l.2.1,0,.21a2.75,2.75,0,0,1-1.64,1.7c1.26,7.68,2.58,15.36,4,23h.1a3.24,3.24,0,0,1,.26.68h0l-.25-.69h-6.3a.25.25,0,0,1,0-.49q-1.68-9.75-3.18-19.51h-1.33l0,21h60.7c0-.51.05-1,.05-1.55q-.06-25.72-.12-51.45h-3.63v1h-2v-1h-6v1h-6v-7h-2v-6.13s-5.28-5.76-28.5-5.76" transform="translate(0 0)"/><path class="cls-25" d="M631.59,350.38h-3v1h-2v-1h-2.37q.07,25.72.12,51.45c0,.52,0,1-.05,1.55l7.3,0v-53" transform="translate(0 0)"/><path class="cls-24" d="M563.65,362.37v7.18l1.18.3q-.6-3.74-1.17-7.48" transform="translate(0 0)"/><path class="cls-22" d="M528.31,350.38h-.72v5l.72-5m23.28-14.44a11.73,11.73,0,0,0-4,2.31v6.13h-3v7h-6v-1H537l-.28.21-.1.21v7l.07.19,1.93,1.88v7.83c-4.63.12-7.59.31-7.63.32a.28.28,0,0,0-.25.17l-.15.36-3,.76v13.09h11v20h.18a4.41,4.41,0,0,0,.26,1h11.39a7.74,7.74,0,0,1,.26-1h.91a.25.25,0,0,0,0-.49V382.38h12l0-12.83-4-1-.15-.36a.28.28,0,0,0-.25-.17s-3-.2-7.62-.32v-7.83l1.92-1.88.08-.19v-7l-.11-.21-1.89-1.43V335.94m11.91-2.77c-1.43.17-2.74.37-4,.59.3,2.27.61,4.53.92,6.8q1.5,10.92,3.18,21.81l0-13h.92v-8.09l-.09-.62q-.51-3.75-1-7.5" transform="translate(0 0)"/><path class="cls-23" d="M527.59,350.38h-3v1h-1.2q-1.47,10.26-3.09,20.51l-3.36.93-.15.11-.37.64v.25a1.17,1.17,0,0,1,.22.56h1.28l.46,2h-.25c-.07-.24-.2-.3-.32-.3a.43.43,0,0,0-.22.07v1.23h-.19l-.2.1-.05.21a2.75,2.75,0,0,0,1.64,1.7c-1.26,7.68-2.58,15.36-4,23H515a3.24,3.24,0,0,0-.26.68c0,.14.26.32.26.32h6.19a.26.26,0,0,0,.26-.26.25.25,0,0,0-.22-.25c1.19-6.83,2.29-13.65,3.35-20.49h3V369.29l-2.24.56q1.15-7.25,2.24-14.5v-5" transform="translate(0 0)"/><path class="cls-22" d="M538.14,402.93l-.15.13,0,.09s.07,0,.11-.22m.45-.55h-.34a4,4,0,0,1-.11.55,2.46,2.46,0,0,1,.45-.13v-.42" transform="translate(0 0)"/><path class="cls-26" d="M564.59,341.29v8.09h-.92l0,13q.57,3.75,1.17,7.48l-1.18-.3,0,12.83H565q1.5,9.76,3.18,19.51a.25.25,0,0,0,0,.49h6.3l.25.69h0a3.24,3.24,0,0,0-.26-.68h-.1c-1.41-7.63-2.73-15.31-4-23a2.75,2.75,0,0,0,1.64-1.7l0-.21-.2-.1h-.19v-.73a.26.26,0,0,0-.26-.27h-.27l.48-2h1.28a.22.22,0,0,0,.22-.13V374l-.36-.63-.16-.11-3.36-.94q-2.45-15.48-4.56-31" transform="translate(0 0)"/><path class="cls-6" d="M234.37,226.5a4.76,4.76,0,0,0-3.67,1.73l4.89-1v-.59a4.92,4.92,0,0,0-1.22-.16m-26,108.43-1,0,1.2-36.7a3.52,3.52,0,0,0,.65-.1l12.21,34.63a39.62,39.62,0,0,1-13,2.19m1-43a2.91,2.91,0,0,0-.6-.13l1.2-36.71A39.93,39.93,0,0,1,223.26,258l-14,34m1.58-71.9a4.77,4.77,0,0,0-.68,9.49l-.22,6.72c-.55,0-1.09,0-1.64,0a59,59,0,0,0-10.75,1v1.62a57.18,57.18,0,0,1,10.75-1l1.59,0-.54,16.45h-1a40.54,40.54,0,0,0-10.75,1.44v.82a40.09,40.09,0,0,1,10.75-1.47h1l-1.2,36.71a3.52,3.52,0,0,0-.65.1l-9.93-28.19v1.59L207,292.08a3.62,3.62,0,0,0-.68.41l-8.75-9.35v.78l8.37,8.93a3.15,3.15,0,0,0-.41.57l-8-3.67v.58l7.73,3.58a3.38,3.38,0,0,0-.17.73l-7.56-.25v.53l7.54.25a3.22,3.22,0,0,0,.12.69l-7.66,2.82v.56l7.84-2.88a2.75,2.75,0,0,0,.31.52l-.22.4-7.93,7.43v.73l7.13-6.68-7.13,13.14v2.22l8.93-16.47a2.6,2.6,0,0,0,.36.21l-9.29,22.62v1.4l9.78-23.82a2.91,2.91,0,0,0,.6.13l-1.2,36.7a39.18,39.18,0,0,1-9.18-1.44v.83a40.62,40.62,0,0,0,9.16,1.41l-.54,16.46a57.28,57.28,0,0,1-8.62-1v2a59.43,59.43,0,0,0,8.57.93l-.16,5a4.76,4.76,0,0,0-4.66,4.77,4.86,4.86,0,0,0,3.78,4.65,73.71,73.71,0,0,1,5-7.26,4.78,4.78,0,0,0-3.58-2.15l.16-5c.55,0,1.1,0,1.65,0a59.51,59.51,0,0,0,8.78-.65c.89-.84,1.8-1.66,2.72-2.46a57,57,0,0,1-11.5,1.16c-.54,0-1.07,0-1.6,0l.54-16.45h1.06a40.28,40.28,0,0,0,13.28-2.23l4.08,11.59v-1.6l-3.58-10.16c1.22-.44,2.41-.94,3.57-1.48V331a36.77,36.77,0,0,1-3.82,1.62l-12.21-34.64a3.53,3.53,0,0,0,.5-.28l15.53,28.63v-2.23l-13.09-24.11,13.07,13.94v-.77l-14.06-15-.66-1.22c.06-.09.13-.19.19-.3l14.52,6.71v-.59l-14.3-6.6a3.38,3.38,0,0,0,.17-.73l14.12.46v-.53l-14.1-.46a3.11,3.11,0,0,0-.11-.69l14.2-5.23v-.56l-14.39,5.29a3.22,3.22,0,0,0-.39-.64l14.77-13.84v-.72l-15.13,14.18a3.28,3.28,0,0,0-.69-.48l13.95-34c.62.26,1.24.54,1.85.83v-.88c-.51-.24-1-.47-1.55-.69l1.54-3.76v-1.4l-2,5a40.69,40.69,0,0,0-13.64-2.92l.54-16.46a57.19,57.19,0,0,1,15.13,2.6v-1.67a59,59,0,0,0-15.08-2.52l.22-6.68h.15a4.77,4.77,0,1,0,0-9.54" transform="translate(0 0)"/><path class="cls-7" d="M225.7,343.48v1.6l.41,1.16.46-.3-.87-2.46m34.69-24.74-15-6.91A40.48,40.48,0,0,0,249,296.59l16.46.54a57,57,0,0,1-5.09,21.61m5.11-22.14L249,296.06c0-.35,0-.7,0-1.06a40.64,40.64,0,0,0-2.41-13.82l15.47-5.69A57.08,57.08,0,0,1,265.52,295c0,.54,0,1.07,0,1.6m-19.05-15.91a40.69,40.69,0,0,0-8.24-13.32l12-11.27A56.72,56.72,0,0,1,261.93,275l-15.48,5.7m-10.86-54v.59l-4.89,1a4.77,4.77,0,0,0,1.73,7.4l-2,4.88c-1.59-.64-3.2-1.22-4.84-1.72v1.67c1.43.45,2.84,1,4.23,1.52l-4.23,10.3v1.4l4.72-11.5a57.13,57.13,0,0,1,18.46,12.39q.57.57,1.11,1.14l-12,11.27a40.94,40.94,0,0,0-12.25-8.85V259a40.2,40.2,0,0,1,11.67,8.52l-11.65,10.92v.72l12-11.25a39.91,39.91,0,0,1,8.08,13l-20.08,7.4v.56l20.26-7.46A39.74,39.74,0,0,1,248.26,295c0,.35,0,.69,0,1l-22.61-.74v.53l22.59.74a39.74,39.74,0,0,1-3.54,14.93l-19-8.8v.59L244.47,312a40.16,40.16,0,0,1-8.66,12l-10.15-10.83v.77l9.77,10.42a40.23,40.23,0,0,1-6.85,5.1l-2.9-5.35v2.23l2,3.65q-1,.54-2,1v.89c.79-.38,1.58-.79,2.35-1.21l6,11,.95-.47-6-11a41.19,41.19,0,0,0,7-5.22l10.75,11.47.55-.19-10.91-11.64a40.88,40.88,0,0,0,8.83-12.21l15,6.91a57.51,57.51,0,0,1-11.4,16.22l-.32.32c1.07-.37,2.15-.72,3.23-1.06a58.78,58.78,0,0,0,9.93-14.81l5.19,2.4a4.91,4.91,0,0,0-.14,1.16,4.76,4.76,0,1,0,.3-1.67l-5.13-2.37a58.28,58.28,0,0,0,5.24-22.23l5.58.18a4.82,4.82,0,1,0,0-.53l-5.59-.18q0-.82,0-1.65a58.75,58.75,0,0,0-3.5-20.06l4.66-1.72a4.78,4.78,0,1,0-.39-1.9,4.94,4.94,0,0,0,.21,1.4l-4.67,1.72a58.39,58.39,0,0,0-12-19.43l3.65-3.42a4.84,4.84,0,1,0-.36-.39L251,254.63c-.38-.4-.76-.79-1.15-1.18a58.73,58.73,0,0,0-19-12.74l2-4.89a4.87,4.87,0,0,0,1.44.22,4.77,4.77,0,0,0,1.22-9.38" transform="translate(0 0)"/><path class="cls-27" d="M192.85,399.38h-9.18c.14,1.14.25,2.28.32,3.41,0,0-.16.59-3.14.59h12.06s0-1.53-.06-4M139.15,288a4.77,4.77,0,1,0,0,9.54,4.72,4.72,0,0,0,3.27-1.3c.36-1.85.71-3.69,1.05-5.49a4.76,4.76,0,0,0-4.32-2.75m47.21,59.82a58.8,58.8,0,0,1-5.6-2.7l7.87-14.5a43.22,43.22,0,0,0,4,1.94l-6.26,15.26m-6.52-3.22a58,58,0,0,1-11.94-9.17l-1.11-1.14,12-11.28a40.86,40.86,0,0,0,8.89,7.08l-7.87,14.51m-12.19-51.19-16.46-.54a57,57,0,0,1,5.09-21.61l15,6.91a40.48,40.48,0,0,0-3.61,15.24m3.83-15.72-15-6.91a57.37,57.37,0,0,1,11.4-16.22c.38-.38.76-.74,1.15-1.11l11.27,12a40.91,40.91,0,0,0-8.84,12.21m9.22-12.57-11.27-12a56.74,56.74,0,0,1,19.64-12l5.48,15.55a40.87,40.87,0,0,0-13.85,8.44m4.6-40.31a4.77,4.77,0,1,0,1.32,9.36l1.92,5.45a58.54,58.54,0,0,0-20.2,12.31l-3.48-3.72a4.76,4.76,0,1,0-.38.37L168,252.3l-1.18,1.15a58.57,58.57,0,0,0-11.72,16.67l-4.43-2.05a4.7,4.7,0,0,0,.25-1.52,4.77,4.77,0,1,0-.45,2l4.41,2a58.65,58.65,0,0,0-5.24,22.23h-.28c0,.18.06.36.1.53h.17c0,.29,0,.58,0,.86s.09.48.13.72c1.35,7.41,3,14.78,4.66,23.24.34-.69.64-1.28.9-1.82-.18-.44-.35-.89-.52-1.34l1.44-.53.33-.69-1.95.72A57.09,57.09,0,0,1,151.15,295q0-.79,0-1.59l16.45.54c0,.35,0,.7,0,1.05A40.55,40.55,0,0,0,170,308.82l-12.53,4.62.94.22,11.78-4.34a40.69,40.69,0,0,0,8.24,13.32l-12,11.27a57.32,57.32,0,0,1-7.84-10.67v3.09a58.76,58.76,0,0,0,6.68,8.67l-3.65,3.42a4.81,4.81,0,0,0-3-1.32v9.53A4.78,4.78,0,0,0,162,338.8l3.65-3.42c.38.4.76.79,1.15,1.18a58.94,58.94,0,0,0,12.3,9.45l-19.42,35.37h1.64L180,346.9a60.6,60.6,0,0,0,5.74,2.77l-2,4.89a4.57,4.57,0,0,0-1.44-.23,5.26,5.26,0,0,0-1,.09,4.77,4.77,0,0,0,1,9.45,5.09,5.09,0,0,0,.77-.06,4.77,4.77,0,0,0,1.17-9.06l2-4.88a58.89,58.89,0,0,0,11.35,3.3v-2A56.41,56.41,0,0,1,186.85,348l6.26-15.26a40.64,40.64,0,0,0,4.48,1.51v-.83a36.53,36.53,0,0,1-4.17-1.42l4.17-10.15v-1.4l-4.66,11.35a39.35,39.35,0,0,1-3.92-1.9l8.58-15.81V311.9l-9.5,17.5a40.16,40.16,0,0,1-8.69-6.92l18.19-17v-.73L179,322.09a39.91,39.91,0,0,1-8.08-13l26.63-9.81v-.56l-26.81,9.87A39.75,39.75,0,0,1,168.41,295c0-.34,0-.68,0-1l29.16.95v-.53l-29.14-.95A39.55,39.55,0,0,1,172,278.51l25.61,11.82v-.58L172.21,278a40,40,0,0,1,8.65-12l16.73,17.85v-.78l-16.34-17.43a39.81,39.81,0,0,1,13.57-8.27l2.77,7.86v-1.59l-2.27-6.45c.74-.25,1.5-.49,2.27-.71v-.82c-.86.23-1.71.5-2.54.78L189.57,241a56,56,0,0,1,8-2.13v-1.62a57.8,57.8,0,0,0-8.55,2.25L187.12,234a4.77,4.77,0,0,0-1.82-9.18" transform="translate(0 0)"/><path class="cls-7" d="M161.3,381.38h-1.64l-9.34,17h-4.73v2h-3v3h38.26c3,0,3.14-.59,3.14-.59-.07-1.13-.18-2.27-.32-3.41H151.53l9.77-18m-3-44.28a4.77,4.77,0,0,0,0,9.54h.27V337.1h-.27m-.82-23.66-1,.36-.33.69,2.26-.83-.94-.22m-7.93-19.22c0,.26,0,.52,0,.78a58.8,58.8,0,0,0,3.5,20.07l-4.66,1.72a4.77,4.77,0,1,0,.39,1.89,4.59,4.59,0,0,0-.21-1.39l4.67-1.72a57.66,57.66,0,0,0,5.34,10.76v-3.09a55.86,55.86,0,0,1-3.33-6.88c-.26.54-.56,1.13-.9,1.82-1.71-8.46-3.31-15.83-4.66-23.24,0-.24-.09-.48-.13-.72m-6.1-3.46c-.34,1.8-.69,3.64-1.05,5.49a4.74,4.74,0,0,0,1.48-3.07l5.52.17c0-.17-.07-.35-.1-.53l-5.4-.17a4.73,4.73,0,0,0-.45-1.89" transform="translate(0 0)"/><path class="cls-11" d="M225.74,399.38H197.59v4h28.15v-4m-15.63-38.11a73.71,73.71,0,0,0-5,7.26,4.62,4.62,0,0,0,1,.11h0a4.77,4.77,0,0,0,4-7.37m15.6-11.76a55.54,55.54,0,0,1-5.87,1.52c-.92.8-1.83,1.62-2.72,2.46a57.78,57.78,0,0,0,8.59-1.94v-2" transform="translate(0 0)"/><path class="cls-7" d="M251.68,334.7c-1.08.34-2.16.69-3.23,1.06l-.82.79-.36-.39-.55.19.52.56a57.29,57.29,0,0,1-10.41,7.7L235,341.14l-.95.47,1.91,3.52a56.31,56.31,0,0,1-8.31,3.74l-1-2.93-.46.3,1,2.81-1.39.46v2c.64-.2,1.29-.41,1.92-.63l1.72,4.86a4.77,4.77,0,0,0,1.24,9,5.12,5.12,0,0,0,.78.06,4.78,4.78,0,0,0,4.61-6,4.71,4.71,0,0,0-3.19-3.31,5.09,5.09,0,0,0-1.42-.21,4.81,4.81,0,0,0-1.53.25l-1.71-4.84a58.36,58.36,0,0,0,8.54-3.84l28.47,52.48h-39.4v4h47.85v-3h-2v-2h-5.24L237.59,346a59.14,59.14,0,0,0,10.74-7.94l4.66,5a4.77,4.77,0,1,0,3.13-1.17,4.69,4.69,0,0,0-2.71.85l-4.7-5,1.18-1.15c.61-.61,1.21-1.23,1.79-1.86" transform="translate(0 0)"/><path class="cls-27" d="M197.59,399.38h-4.74c0,2.47.06,4,.06,4h4.68v-4" transform="translate(0 0)"/><path class="cls-4" d="M355.93,209.36l-.63.08q-3.45,31.51-6.89,63l-.58,0-.51-1.86-.73.07v21.91l-.83,0-.63-3.61c-1.46,4.71-.67,9.55-1.13,14.35h-1.41V311l-2.23,2.44c-.26,4.15-.68,8.18-.7,12.21,0,3.59,0,7.1-2,9.66q4.28,1.4,8.53,3.07c16.55,6.5,30.32,17.76,39.09,35.71,1.07,2.18,1.7,3.36,2.66,3.36,1.17,0,2.85-1.77,6.47-5.63,0,10.83.21,31.53.21,31.53h8c.1-1,.24-2,.26-3,.37-14.18.68-28.37,1.09-42.55l.15-5.34a16,16,0,0,1-2.84,1.84c-3.24-5.65-6.76-11.07-9.5-16.87a8.83,8.83,0,0,1,.39-8.49l-1.44-2.71c-.57,1-1.12,1.9-1.51,2.55a9.88,9.88,0,0,1,.39,8.68c-2.76,5.79-6.23,11.24-9.8,17.51-1.91-2.26-4-3.82-4.82-5.88-1.76-4.46-1.34-9.23-.72-13.68-.62-2-1.53-3.83-1.68-5.72-.45-5.71-.6-11.45-.84-16.79l-2.14-2.43V303s-1.54-.25-1.55-.4c-.34-5.07-.64-10.16-1-16.05-.58,2.36-.95,3.91-1.33,5.46-.26,0-1.13-.13-1.13-.13V270.53l-1,1.77-.62-.11q-3.27-29.82-6.55-59.65l.68-.11c-.4-1-.79-2.05-1.19-3.07" transform="translate(0 0)"/><path class="cls-5" d="M425.51,207.77h-.83c-2.37,21.76-4.75,43.52-7.14,65.45l-2-1.09v20.15l-.51.08c-.38-1.51-.75-3-1.16-4.68-.7,7.74-1.38,15.24-2.07,22.88l-2,2.12c-.3,4.54-.53,9.25-1,13.93-.26,2.92-.83,5.81-1.26,8.72-.33,3.69-.14,7.48-.38,11.24a8.08,8.08,0,0,1-3.17,5.93l-.15,5.34c-.41,14.18-.72,28.37-1.09,42.55,0,1-.16,1.95-.26,3h44v-2.76c-.22-2.48-.5-6.05-.54-8.18-.13-6.87-.06-13.75,0-20.62,0-3,1.05-6.17-1.19-8.92-.24-.29-.13-.91-.09-1.37.38-4.84-.74-9.44-2-14.06a22.92,22.92,0,0,1,0-12.35c-2-2.62-2.2-6-2.07-9.39a34.83,34.83,0,0,0,0-4.9c-.29-2.87-.74-5.73-1.16-8.84-.59-.38-1.36-.88-1.88-1.15v-8.07c-.33-.11-1-.42-1-.42V289.12H436c-.27,1.14-.55,2.28-.83,3.42a70,70,0,0,1-.62-9.95c-.13-3.3.61-6.7-.68-10.13l-1.16,1.39c-2.44-22.38-4.83-44.22-7.21-66.07" transform="translate(0 0)"/><path class="cls-5" d="M446.59,400.62v2.76h.25s-.11-1.15-.25-2.76" transform="translate(0 0)"/><path class="cls-17" d="M337.63,335.34l-.07.1c.75,4.37,1,8.16,0,11.89-1.35,4.94-2.93,9.83-2.34,15,0,.34.11.81-.08,1a6.69,6.69,0,0,0-.67.89q.75,19.05,1.51,38.11h-2.84l-.09,1h61.57s-.21-20.7-.21-31.53c-3.62,3.86-5.3,5.63-6.47,5.63-1,0-1.59-1.18-2.66-3.36-8.77-17.95-22.54-29.21-39.09-35.71q-4.26-1.68-8.53-3.07" transform="translate(0 0)"/><path class="cls-28" d="M334.44,364.27c-1.54,2.53-.54,5.34-.55,8,0,6.73.08,13.47-.06,20.19-.06,3.29-.44,6.57-.72,9.89H336q-.76-19-1.51-38.11" transform="translate(0 0)"/></svg>