<svg xmlns="http://www.w3.org/2000/svg" viewBox="0 0 1014.83 403.37"><defs><style>.cls-1{isolation:isolate;}.cls-2,.cls-5{fill:#02bc67;}.cls-12,.cls-2,.cls-3,.cls-4,.cls-6,.cls-7,.cls-8{mix-blend-mode:color;}.cls-3{fill:#80ea6e;}.cls-6{fill:#97ebf3;}.cls-7{fill:#ff877a;}.cls-11,.cls-12,.cls-8{fill:#f9bc26;}.cls-10,.cls-9{fill:none;stroke:#f9bc26;stroke-linecap:round;stroke-linejoin:round;}.cls-9{stroke-width:1.63px;}.cls-10{stroke-width:1.33px;}.cls-12{opacity:0.9;}</style></defs><g class="cls-1"><g id="Layer_1" data-name="Layer 1"><path class="cls-2" d="M38.59,403l1.11-12.6c2.36-33.91,5-67.8,6.9-101.74,1.76-30.91,2.81-61.85,4.1-92.79.14-3.36.34-6.33,3.53-8.67,1.3-.95,2-3.39,2-5.16.16-14.36.09-28.72.1-43.08v-5.89c.45,0,.9,0,1.35,0v53.26H73.65V133.08c.58,0,1,0,1.61,0,0,1.72-.27,34.39,0,48.93,0,2.42,2.07,4.54,3.49,6.89.72,1.73,1.83,3.47,1.91,5.25q2.46,50.3,4.7,100.6,1.38,29.91,2.79,59.8a15,15,0,0,0,.46,4.43,3.71,3.71,0,0,0,2.5,2.2,3.3,3.3,0,0,0,2.27-2.31c.32-4.46.08-9,.41-13.41a42.5,42.5,0,0,1,3-13.44c.79,4.57,1.58,9.13,2.56,14.87,5.37-5.86,10.24-11,14.83-16.4.68-.79,0-2.63.06-4a7,7,0,0,1,.61-2.41c.1-.22,1.24-.26,1.26-.19a22.84,22.84,0,0,1,.61,2.63c.31,1.67,0,3.8,1,4.93,4.32,5,9,9.68,13.54,14.48l1.81-.11V312.25l2-.17c.67,1.29,1.35,2.58,2.6,5,3.05-16,5.89-30.85,8.33-43.68.85,5.25,1.92,12.65,3.25,20s3,14.93,4.69,23.48c1.1-2.24,1.73-3.53,2.36-4.83l1.89.15v68.56H176c.54-2.07,1.06-4.09,1.58-6.12l2.05.05c.58,9.1,3.58,18.6,4.17,27.71,0,0-.17.6-3.16.6Z"/><path class="cls-3" d="M805.25,402.56H927.59V376.38H899.48v-6.06H894V351.58h-7.71L873,206.65c0-3.86-2.75-6.61-6.61-7.16h-1.1a7.17,7.17,0,0,0-6.07,7.16L845.48,351.58h-7.17v18.74h-6.06v6.06h-27Z"/><path class="cls-2" d="M459.84,402.77c-.1-1.42-.24-2.77-.28-4.11q-.72-25.26-1.43-50.51-.7-24.78-1.4-49.57c-.53-19.51-1-39-1.55-58.54-.54-19.2-1.16-38.39-1.71-57.59-.43-14.95-.78-29.9-1.19-44.85,0-1.08-.17-2.15-.3-3.57h-6.89c-.41-1.6-.75-2.88-1-3.83.52-.94.89-1.6,1.27-2.27l-.38-.55H432.12V86.65h-1.78v40.77H417.28l-.27.63,1.41,2.09-1.1,4h-6.9c-.11,1.21-.24,2.06-.26,2.91q-.8,30.34-1.57,60.67c-.19,7-.42,14-.64,21-.39,13.06-.82,26.12-1.18,39.18-.4,14.32-.7,28.64-1.11,43-.54,18.8-1.17,37.61-1.71,56.41-.4,14.16-.71,28.33-1.08,42.49,0,1-.16,1.94-.26,3Z"/><path class="cls-2" d="M286.74,226.57v-26l-8.44-1.33c-.55-2.93-1-5.35-1.24-6.58-4.94-2.28-9.18-5.5-13.26-6.38V175.07h2.95v-5.51H263.8v-4.37h-4.05v4.37h-2.88v5.51h2.88v11.14c-4.49.83-9,4.15-14,6.37-.24,1.76-.57,4.18-.91,6.69l-9.06,1.35v26.21l-10.26,2c0,57.91.16,116.09.16,174.13h70.85c0-57.89.26-116.58.26-174.25Z"/><g class="cls-4"><line class="cls-5" x1="987.1" y1="358.2" x2="987.64" y2="360.08"/><path class="cls-5" d="M760.59,403h223l.81-27.56V355.5h-1.08l-1.07-15.09h-.54v-6.19h-1.35v6.19h-.81l-1.35,5.12a7,7,0,0,0-3.77-3l-7.54-24h-5.12l-4,12.39H944.25v4h-.54l-5.66-8.35h-5.12L927.27,335H908.14l-6.73-20.75h-5.12l-3.24,10.51-2.15-7.27h-.27l-1.35-5.39h-.81l-1.35,5.39h-.53l-3.78,12.39h-21l-6.19-23.71h-.81l-4.85,18.05-3.78-11.31h-4l-3,9.43V301.07h-1.08V283.29h1.62v-2.16a2.09,2.09,0,0,0-1.89-2.16h-1.88v-4.85a4.76,4.76,0,0,0-2.16-4V257.15h1.35l.83-.44.51-.91v-1.89h-2.69a3.9,3.9,0,0,0-2.06-3.57c.54-.27.44-.74.44-1.28v-1.88h1.62v-3.24a3.24,3.24,0,0,0-3-3.23h-2.43a3.23,3.23,0,0,0-3,3.23v3.24H827v1.88c0,.54,0,1.08.54,1.35a3.88,3.88,0,0,0-2.15,3.5h-2.7v1.89l.5.91.85.44h1.35v12.93a4.76,4.76,0,0,0-2.16,4V279h-1.89a2.09,2.09,0,0,0-1.88,2.16v2.16h1.61v17.78H820V322.9h-1.35V335h-1.89l-5.66-8.08-.53-.27H806L800.36,335H799v-4.58H786.07l-4.85-11.58-.81-.81H778l-.81.81-4.85,11.58h-.27V335H764v8.9a8.63,8.63,0,0,0-2.7,5.92v39.62Zm.43.37"/></g><polygon class="cls-6" points="193.77 189.35 193.77 134.45 173.9 134.45 173.9 113.54 163.27 113.54 163.27 95.98 159.54 95.98 159.54 65.88 158.58 65.88 158.58 95.98 154.85 95.98 154.85 113.54 144.22 113.54 144.22 134.45 124.5 134.45 124.5 189.35 120.4 189.35 120.4 289.03 89.83 289.03 89.83 402.66 120.4 402.66 150.97 402.66 197.71 402.66 197.71 189.35 193.77 189.35"/><path class="cls-7" d="M520.8,350.19v-34.7h-4.53V311h-6.41a73.51,73.51,0,0,1,.05-9.59c.42-3.61-.59-11.75-.59-11.75a19.19,19.19,0,0,0,1.68-4.53c.25-1.77-2.22-11.52-2-13.1s1-8.25,1-8.25a16.78,16.78,0,0,0,5.9-4.78c2-3,4.53-6,4.15-6.8a14.23,14.23,0,0,0-1.13-1.89l1.89-3.21-.94-.88h-9.95l-4.28,4.28-2.27.25s-2.64-9.25-4.4-12-6.36-5.29-6.36-5.29a9.28,9.28,0,0,1-.44-3.74,7,7,0,0,0-.35-4.28,2.6,2.6,0,0,1-.28-1.58,8.68,8.68,0,0,0,1.24-2.4l8.2.8-7.8-2.61c0-.32.06-.65.06-1a9,9,0,0,0-.12-1.38l7.58-2.84-8,1.13a8.49,8.49,0,0,0-1.51-2.57l5.41-6.61-6.88,5.24a8.25,8.25,0,0,0-2.66-1.26l-.15-9.27-1.92,9a8.08,8.08,0,0,0-3.26.71L476,203.87l4.18,7.81a8.59,8.59,0,0,0-2.19,2.38l-3.63-.59,3.13,1.55a8.44,8.44,0,0,0-.67,2.19,14.05,14.05,0,0,1-1.95-2.7c-.66-1.36-2.33-3.59-2.17-4.69s-.56-2-.77-5.66-2.06-6.8-1.39-9.48,1.35-4.33,1-5.92a19,19,0,0,1-.34-3.86,5.79,5.79,0,0,0,2.69-5.5,5.92,5.92,0,0,0-5.12-6v-.82a6.2,6.2,0,0,0,2.15-4.79c0-4.12-3.66-5-4-7.37a8.86,8.86,0,0,0-.34,6.54,4.15,4.15,0,0,1-1.69-3.1s-3.12,5.51,1,8.74v.91a6.42,6.42,0,0,0-4.82,6.64c0,4.44,2.48,4.44,2.48,4.44a66.21,66.21,0,0,0,1.63,8.1c.76,2.06.21,7.6.34,9.78s-.34,4.58.5,7.85a42.07,42.07,0,0,1,1.05,5.12s-5.12,5-4.74,8.1a4.38,4.38,0,0,0,3.06,3.74s-1.89,3.86-1.09,5.75a5.41,5.41,0,0,0,2.73,2.64,21,21,0,0,1-.88,4.36,4,4,0,0,0,.67,4.2,7.45,7.45,0,0,0,1.59,1.3s-2.89,5-3.14,8.19,3.4,7.68,3.4,7.68-2.73,4.65-1.89,6.84,2.14,4.45,2.1,8.52a95.88,95.88,0,0,1-.63,10.61,10,10,0,0,0,0,3.7s-2,7.05-2,10.11c0,2.63,0,8.23,0,9.76h-6.84v4.54h-5.93v34.7h-6.78v52.69h80.75V350.19Z"/><path class="cls-8" d="M144.51,388.51c-3.08,17.46-24.08,15.83-34.92,8.22-13.18-9.25-15.18-16.43-37-16.43-19.86,0-22.94,5.82-35.95,15.4S3.81,407,.72,388.51c-6.52-39.16,32.19-61.62,71.9-61.62S151.41,349.41,144.51,388.51Z"/><polyline class="cls-7" points="1000.43 403.04 1000.43 358.74 989.36 358.74 984.93 346.56 984.93 331.06 1005.97 353.21 1010.4 348.78 1014.83 344.35 984.93 318.87 984.93 306.69 963.89 293.4 964.99 292.29 966.1 292.29 1012.62 249.1 1008.19 244.67 1002.65 240.24 961.67 288.97 962.78 290.08 961.67 291.19 957.24 288.97 952.81 292.29 950.6 290.08 951.7 288.97 908.51 242.46 904.08 246.89 899.65 252.43 948.38 293.4 948.38 292.29 950.6 293.4 932.88 308.91 932.88 316.66 901.87 346.56 906.3 350.99 910.73 355.42 932.88 328.84 932.88 344.35 911.84 358.74 909.62 358.74 909.62 403.04"/><g class="cls-4"><path class="cls-9" d="M20,155.29c26.58-29.79,94.21-37.66,129.09-26.53,37.69,12,91.71,8.5,121.22-25.77"/><path class="cls-9" d="M22.07,165.37c26.58-29.79,94.21-37.67,129.09-26.53,37.69,12,91.71,8.5,121.22-25.77"/><path class="cls-9" d="M24.14,175.45c26.58-29.8,94.21-37.67,129.1-26.53,37.68,12,91.71,8.5,121.21-25.78"/><path class="cls-9" d="M17.93,145.22c26.57-29.8,94.21-37.67,129.09-26.54,37.68,12,91.71,8.5,121.21-25.77"/><path class="cls-9" d="M15.86,135.14c26.57-29.8,94.2-37.67,129.09-26.54,37.68,12,91.71,8.51,121.21-25.77"/><path class="cls-9" d="M13.79,125.06C40.36,95.26,108,87.39,142.88,98.53c37.68,12,91.71,8.5,121.21-25.78"/></g><g class="cls-4"><path class="cls-10" d="M801.59,204.15c19.26-25.45,70.06-30.56,96.66-19.86,28.74,11.55,69.4,9.89,90.74-19.42"/><path class="cls-10" d="M803.42,213.05c19.26-25.45,70.06-30.56,96.66-19.86,28.74,11.55,69.4,9.89,90.74-19.42"/><path class="cls-10" d="M805.25,222c19.26-25.45,70.06-30.56,96.66-19.86,28.74,11.55,69.4,9.89,90.74-19.41"/><path class="cls-10" d="M799.76,195.25c19.26-25.45,70.06-30.56,96.66-19.87,28.74,11.56,69.4,9.89,90.74-19.41"/><path class="cls-10" d="M797.93,186.35c19.26-25.45,70.06-30.56,96.67-19.87,28.74,11.56,69.39,9.89,90.73-19.41"/><path class="cls-10" d="M796.1,177.45c19.26-25.45,70.06-30.56,96.67-19.87,28.74,11.56,69.39,9.89,90.74-19.41"/></g><g class="cls-4"><path class="cls-11" d="M335.21,402.38H306.79Q311,291,315.32,179.23c-1.66,0-3.11.05-4.55,0-2.86-.12-4.16-2-4.16-4.75,0-2.16-.72-4.33-1.13-6.49-.3-1.58-.61-3.17-1-5,2.37.07,2.13-1.45,2.1-2.86,0-.62,0-1.24,0-1.86,0-3.24.87-4.06,4.2-4.08h3.95v-6.66l2.57-.61v-2.31c0-15.07,0-30.14,0-45.21a8.44,8.44,0,0,0-.92-3.09c-.75-1.81.07-2.45,2-2.46V91.23c0-10.71-.66-21.48.2-32.13.7-8.64.49-17.22.73-25.83.28-10.2.46-20.41.68-30.61a9.46,9.46,0,0,1,.07-1.85c.08-.34.6-.86.81-.81a1.76,1.76,0,0,1,1,.85A3.51,3.51,0,0,1,322,2.23c0,1.63,0,3.27,0,4.9.22,15.56-.27,31.18.89,46.67,1,12.91.18,25.77.72,38.64,0,.38.07.76.11,1.18,2,.56,3.39,1.32,1.2,3.34-.26.24-.23.87-.23,1.32q0,24.12.05,48.23a2.6,2.6,0,0,0,.09.4l2.29.57v6.71c1.77,0,3.29,0,4.82,0,2.4.07,3.37,1,3.44,3.41,0,.85.05,1.71,0,2.56-.08,1.46-.07,2.83,2.13,2.87-.68,3.33-1.33,6.43-1.95,9.53a6.4,6.4,0,0,0-.22,1.93,3.94,3.94,0,0,1-3.9,4.71c-1.46.09-2.93,0-4.76,0Q331,291,335.21,402.38Z"/></g><path class="cls-7" d="M678,401.61v1.28l64.16-.24v-1.89q-.39-107.34-.8-214.68a20.42,20.42,0,0,0,0-2.07c0-.49-.1-1.23-.41-1.39-1-.58-.75-1.49-.76-2.29,0-3.46,0-6.91,0-10.37a12.69,12.69,0,0,0-.15-2.05c-.23-1.43-.6-2.83-.75-4.26a33.33,33.33,0,0,1,0-3.61l-2.31-.66c-.4-1.69-.76-3.24-1.13-4.79l-.35,0-1.28,5-2.66-.15,0-8.6a32.32,32.32,0,0,1-3.15-3.7c-5-8.21-9.79-16.49-14.73-24.7a15.09,15.09,0,0,1-2.49-8.76c.2-3.23-.89-6.07-2-9.59-.9,3.14-2.2,5.55-2,8.42a16.36,16.36,0,0,1-1.93,9.2c-4.89,8.45-9.83,16.86-14.75,25.29-.82,1.42-1.56,2.9-3.59,3.23l0,9.56-2.47-.16-1.4-5.49-1.45,5.53-2.12.64c.23,5.18-1.34,10.14-.84,15.25.16,1.71,0,3.46,0,5.18,0,.51.07,1.32-.2,1.48-1.65,1-1.1,2.56-1.09,3.92Q677.53,293.88,678,401.61Z"/><path class="cls-3" d="M682.94,402.64c0-5.32,0-10.54-.06-15.74q0-8.82,0-17.64,0-8.67-.05-17.35t0-17.63q0-8.68-.05-17.36t0-17.63q0-8.69,0-17.36l0-17.63q0-8.69,0-17.36c0-5.87,0-11.75,0-17.63-.05-5.66.14-11.33-.4-17a10.12,10.12,0,0,0-1.53,2.41q-7.41,15.06-14.8,30.11-20.18,41-40.38,82a11.47,11.47,0,0,0-1.22,5.35q.15,34.57.19,69.14c0,.52,0,1-.05,1.55Z"/><path class="cls-6" d="M780.27,402.86V244.66h-4.7V238l-4.42-.19v-9.26h-6v-6l-4.61-.21v-9.6l-1.49-.55c-.08-.85-.15-1.55-.22-2.26l-3.18-.2c0-1.16.06-2.14,0-3.12s.35-2-.29-2.86l-.49,0v5.94l-2.6.3c-.08.78-.15,1.43-.22,2.11l-1.72.75v9.63h-4.55v6.13H740v9.27H735.4v6.93h-4.56a1.93,1.93,0,0,0-.15.4q0,78.78-.05,157.54v.13Z"/><path class="cls-3" d="M394.59,403c0-10.34-.21-20.67-.21-31.52-6.58,7-6.76,7.14-9.14,2.27-8.79-18-22.58-29.26-39.16-35.76-35.48-13.93-71.24-13.76-106.61.6a71,71,0,0,0-35.78,31.5c-4.67,8.21-4.57,8.28-11.43,1.17,0,11.23.33,21.57.33,31.74"/><polygon class="cls-6" points="631.59 349.68 631.59 403 563.59 403 563.67 349.68 564.64 349.68 564.64 311.31 565.4 311.31 565.4 235.5 565.99 235.5 565.99 226.16 570.62 226.16 570.62 216.65 572.3 216.65 572.3 216.99 573.37 216.99 573.37 213.69 575.05 213.69 582.96 203.7 582.96 198.28 583.69 198.28 583.69 202.63 584.3 202.63 584.3 200.13 584.84 200.13 584.84 202.66 610.41 202.66 610.41 200.13 610.95 200.13 610.95 202.63 611.57 202.63 611.57 198.28 612.29 198.28 612.29 203.7 620.2 213.69 621.89 213.69 621.89 216.99 622.95 216.99 622.95 216.65 624.63 216.65 624.63 226.16 629.26 226.16 629.26 235.5 629.85 235.5 629.85 311.31 630.61 311.31 630.61 349.68 631.59 349.68"/><path class="cls-3" d="M582.1,128.5l.51-2.74a.53.53,0,0,0,0-.36c-.21-.74-1.74-1.64-4.57-2.69l-20.6-7.07s-.79-.45-.85-1.07a1.39,1.39,0,0,1,.65-1.12l2.84-2.3c.08-.05.74-.55.66-1.14-.06-.35-.34-.61-.85-.8a18.43,18.43,0,0,0-2.43-.72s-.39-.07-.44-.93a2.27,2.27,0,0,0-.42-1.59,2.21,2.21,0,0,0-1.61-.78s-3-.46-6.92-.66l-.52-2.44a.27.27,0,0,0-.25-.21h-.5L546.6,99v0l-.27-3.62h0s0,0,0,0l-.14-1.89h0v-.06l-.57-7.62h0s0,0,0,0l-.17-2.26h0s0,0,0,0l-.19-2.58v0L545,78.33l.18,0a.25.25,0,0,0,.19-.17l.35-1.07a.26.26,0,0,0,0-.23.28.28,0,0,0-.22-.11h-.23v-.89a.26.26,0,0,0-.25-.26h-.61a.26.26,0,0,0-.25.26v.89h-.23a.26.26,0,0,0-.21.11.26.26,0,0,0,0,.23l.35,1.07a.25.25,0,0,0,.19.17l.18,0-.18,2.36v0L544,83.32a.06.06,0,0,0,0,0h0l-.17,2.27v0l-.58,7.63v.05l-.15,1.9v0h0L542.86,99a.07.07,0,0,0,0,0l-.22,2.88h-.49a.28.28,0,0,0-.26.21l-.52,2.44-.77,0v-.78a.27.27,0,0,0-.08-.19.26.26,0,0,0-.19-.06l-3.63.22a.31.31,0,0,0-.22.15L536,105c-.93.11-1.49.19-1.5.2a2.23,2.23,0,0,0-1.63.78,2.33,2.33,0,0,0-.42,1.59c0,.86-.43.93-.47.93a20.32,20.32,0,0,0-2.39.72c-.52.19-.8.45-.85.8-.09.59.57,1.09.64,1.14l2.85,2.29a1.42,1.42,0,0,1,.65,1.13c-.06.61-.8,1.05-.8,1.05l-20.66,7.09c-2.82,1.05-4.35,2-4.56,2.69a.47.47,0,0,0,0,.36l.51,2.74c-6.83,1.72-7.55,3-7.49,3.83.17,2.45,10.11,3.63,11.91,3.83l1,2.76a22,22,0,0,0-4.19,1.85.26.26,0,0,0-.08.33c1.51,3.14,8.18,4.82,15.4,5.7a85.65,85.65,0,0,1,4.57,13.46,153.65,153.65,0,0,1,3.14,16,288.73,288.73,0,0,1,2.6,32.62,631.13,631.13,0,0,1-2.1,65.64q-.72,9.12-1.61,18.23c0,.17,0,.34,0,.51-.17,1.67-.33,3.34-.5,5,0,.17,0,.34,0,.51q-2.11,20.6-4.92,41.13-2.16,15.83-4.65,31.61l-3.36.93a.27.27,0,0,0-.15.11l-.37.63a.3.3,0,0,0,0,.26.24.24,0,0,0,.22.13h1.28l.46,1.94h-.25a.25.25,0,0,0-.26.26V377h-.19a.26.26,0,0,0-.2.1.25.25,0,0,0-.05.22,2.77,2.77,0,0,0,1.66,1.73q-1.92,11.73-4.06,23.39h0a.26.26,0,0,0-.26.26.26.26,0,0,0,.26.26h6a.26.26,0,0,0,.26-.26.27.27,0,0,0-.22-.25c1.18-6.77,2.27-13.53,3.32-20.3h13.9v20.29a.26.26,0,0,0-.26.26.26.26,0,0,0,.26.26h.52a.26.26,0,0,0,.26-.26h11.39a.26.26,0,0,0,.26.26h.52a.26.26,0,0,0,.26-.26.26.26,0,0,0-.26-.26V382.12h13.91q1.56,10.15,3.31,20.3a.27.27,0,0,0-.22.25.26.26,0,0,0,.26.26h6a.26.26,0,0,0,.26-.26.26.26,0,0,0-.26-.26h-.05q-2.14-11.64-4.06-23.39a2.82,2.82,0,0,0,1.67-1.73.3.3,0,0,0-.06-.22.26.26,0,0,0-.2-.1h-.19v-1.2a.25.25,0,0,0-.25-.26h-.26l.46-1.94h1.28a.24.24,0,0,0,.22-.13.24.24,0,0,0,0-.26l-.37-.63a.24.24,0,0,0-.15-.11l-3.36-.93q-2.49-15.78-4.64-31.61-2.79-20.53-4.93-41.13c0-.17,0-.34-.05-.51-.16-1.67-.33-3.34-.49-5,0-.17,0-.34,0-.51q-.88-9.11-1.6-18.23a631.14,631.14,0,0,1-2.11-65.64,286.44,286.44,0,0,1,2.61-32.62,151,151,0,0,1,3.13-16,86.69,86.69,0,0,1,4.57-13.46c7.22-.88,13.89-2.56,15.41-5.7a.26.26,0,0,0-.09-.33,22,22,0,0,0-4.19-1.85l.95-2.76c1.8-.2,11.74-1.38,11.91-3.83C589.64,131.51,588.92,130.22,582.1,128.5ZM538.25,349.17l-1.73,1.44a.25.25,0,0,0-.09.2v7a.26.26,0,0,0,.07.18l1.75,1.89v7.82c-4.22.12-6.92.32-7,.32a.28.28,0,0,0-.23.17l-.14.37-4.75,1.32q2.13-14.62,4-29.29c.34-2.73.67-5.45,1-8.18h7.1Zm0-23.94-6.34.64q1.55-13.55,2.79-27.1h3.55Zm0-32.49h-3q.76-9,1.38-17.9c.8-12,1.4-24,1.64-36Zm0-76.55q-.07-3.72-.22-7.45a290.76,290.76,0,0,0-3-33,157.87,157.87,0,0,0-3.38-16.31,94.75,94.75,0,0,0-4.14-12.24c3.87.34,7.68.49,10.72.55ZM545,77.59v-.37h.18l-.17.49v-.12Zm-.68-.37h.17v.37h0v.11Zm6.9,161.63c.24,12,.84,24,1.64,36q.61,9,1.38,17.9h-3Zm8.1,101.73q1.83,14.66,4,29.29l-4.75-1.32-.14-.37a.28.28,0,0,0-.22-.17s-2.74-.2-7-.32v-7.82L553,358a.3.3,0,0,0,.06-.18v-7a.25.25,0,0,0-.09-.2l-1.73-1.44V332.4h7.1C558.63,335.13,559,337.85,559.3,340.58Zm-1.76-14.71-6.34-.64V298.77h3.55Q556,312.35,557.54,325.87Zm.24-166.46a155.24,155.24,0,0,0-3.37,16.31,288.5,288.5,0,0,0-3,33q-.15,3.73-.22,7.45V147.72c3-.06,6.85-.2,10.72-.55A94.75,94.75,0,0,0,557.78,159.41Z"/><path class="cls-12" d="M691.2,349.38v1.75h-8.62v-1.75h-8.77v1.75H634v-.81h-5.66v.81H626v-.81h-5.66v.81H618v-.81h-5.66v.81h-6v-7.38h-2.16v-6.13s-5.27-5.76-28.51-5.76-28.52,5.76-28.52,5.76v6.13h-2.15v7.38h-6v-.81h-5.66v.81h-2.35v-.81h-5.65v.81h-2.35v-.81h-5.66v.81H477.39v-1.75h-8.78v1.75H460v-1.75H449.84L449.59,403h252l-.23-53.62Z"/><path class="cls-7" d="M277.42,292.08a4.76,4.76,0,0,0-4.75,4.37l-5.59-.18q0-.82,0-1.65a58.84,58.84,0,0,0-3.5-20.07l4.66-1.71a4.78,4.78,0,1,0-.39-1.9,4.94,4.94,0,0,0,.21,1.4l-4.67,1.72a58.39,58.39,0,0,0-12-19.43l3.65-3.42a4.84,4.84,0,1,0-.36-.39L251,254.24c-.38-.39-.76-.79-1.15-1.18a58.7,58.7,0,0,0-19-12.73l2-4.89a4.87,4.87,0,0,0,1.44.22,4.76,4.76,0,1,0-1.94-.41l-2,4.88a58.6,58.6,0,0,0-19.92-4.24l.22-6.68h.15a4.78,4.78,0,1,0-.68-.05l-.22,6.71-1.64,0a58.87,58.87,0,0,0-19.3,3.23l-1.92-5.46a5,5,0,1,0-.5.17l1.92,5.46a58.51,58.51,0,0,0-20.2,12.3l-3.48-3.71a4.95,4.95,0,1,0-.38.36l3.48,3.72c-.4.37-.79.76-1.18,1.14a58.76,58.76,0,0,0-11.72,16.68l-4.43-2.05a4.83,4.83,0,1,0-.2.49l4.41,2a58.65,58.65,0,0,0-5.24,22.23l-5.68-.19a4.82,4.82,0,1,0,0,.53l5.69.19c0,.54,0,1.09,0,1.64a58.84,58.84,0,0,0,3.5,20.07l-4.66,1.72a4.77,4.77,0,1,0,.39,1.89,4.7,4.7,0,0,0-.21-1.4l4.67-1.71a58.24,58.24,0,0,0,12,19.42L161.62,338a4.69,4.69,0,1,0,.36.38l3.65-3.42c.38.4.76.79,1.15,1.18a59.24,59.24,0,0,0,12.3,9.44l-28.76,53h-5.16v1.52h-2.53v3H274v-3h-2.53v-1.52h-5.16l-28.76-53a59.08,59.08,0,0,0,10.74-7.93l4.66,5a4.72,4.72,0,1,0,.42-.33l-4.7-5,1.18-1.15a58.85,58.85,0,0,0,11.72-16.67l5.19,2.39a5.06,5.06,0,0,0-.14,1.17,4.75,4.75,0,1,0,.3-1.68L261.83,319a58.32,58.32,0,0,0,5.24-22.23l5.58.18a4.77,4.77,0,1,0,4.77-4.9Zm-11.9,2.54q0,.79,0,1.59L249,295.68c0-.35,0-.7,0-1.06a40.6,40.6,0,0,0-2.41-13.82l15.47-5.7A57.18,57.18,0,0,1,265.52,294.62Zm-17.27,1-36.71-1.19a3.11,3.11,0,0,0-.11-.69l34.46-12.69a39.74,39.74,0,0,1,2.37,13.54C248.26,295,248.25,295.31,248.25,295.65Zm-79.82-2.06,36.7,1.19a2.78,2.78,0,0,0,.12.7l-34.47,12.69a39.79,39.79,0,0,1-2.37-13.55C168.41,294.28,168.42,293.93,168.43,293.59Zm42.42-1,26.78-25.1a40.06,40.06,0,0,1,8.08,13.05l-34.47,12.69A3.22,3.22,0,0,0,210.85,292.63Zm-.36-.39a3.43,3.43,0,0,0-.7-.47l14-34a40.1,40.1,0,0,1,13.52,9.35Zm-1.19-.68a2.9,2.9,0,0,0-.6-.12l1.2-36.71a39.68,39.68,0,0,1,13.36,2.86Zm-1.13-.14a2.84,2.84,0,0,0-.65.1l-12.21-34.64a39.89,39.89,0,0,1,13-2.18h1Zm-1.15.28a3.16,3.16,0,0,0-.68.41l-25.09-26.79a39.94,39.94,0,0,1,13.57-8.26Zm-1.06.77a2.84,2.84,0,0,0-.41.57l-33.34-15.39a39.83,39.83,0,0,1,8.65-12Zm-.64,1a3.53,3.53,0,0,0-.17.73l-36.7-1.19A39.5,39.5,0,0,1,172,278.13Zm.11,2.45a2.82,2.82,0,0,0,.31.53l-.22.4L179,321.71a39.85,39.85,0,0,1-8.08-13Zm-.71,2.41L188.09,329a40.16,40.16,0,0,1-8.69-6.92Zm1.8-1.11.36.21-13.95,34a41.68,41.68,0,0,1-3.92-1.9Zm.85.41a3.75,3.75,0,0,0,.6.13l-1.2,36.7a39.57,39.57,0,0,1-13.35-2.86Zm1,36.86h-1l1.2-36.71a2.84,2.84,0,0,0,.65-.1l12.21,34.64A39.88,39.88,0,0,1,208.34,334.54Zm1.31-37a4.91,4.91,0,0,0,.5-.28l17.51,32.28a41.05,41.05,0,0,1-5.8,2.64Zm2.94,2,22.84,24.37a40.77,40.77,0,0,1-6.85,5.1Zm-1-1.84-.66-1.21.19-.3,33.34,15.39a40.07,40.07,0,0,1-8.66,12Zm-.25-2a3.53,3.53,0,0,0,.17-.73l36.71,1.19a39.65,39.65,0,0,1-3.54,14.93Zm-18.73,36.46-6.26,15.26a56.4,56.4,0,0,1-5.6-2.69l7.87-14.51A38.65,38.65,0,0,0,192.62,332.18Zm.49.21a40.74,40.74,0,0,0,13.64,2.92l-.54,16.45a56.86,56.86,0,0,1-19.36-4.12Zm14.17,2.94h1.06a40.54,40.54,0,0,0,13.28-2.23l5.48,15.56a57.29,57.29,0,0,1-18.76,3.13c-.54,0-1.07,0-1.6,0Zm14.84-2.39a41.15,41.15,0,0,0,5.92-2.7l7.87,14.51a56.31,56.31,0,0,1-8.31,3.74Zm39.81-58.33-15.48,5.7A40.59,40.59,0,0,0,238.21,267l12-11.27A56.62,56.62,0,0,1,261.93,274.61Zm-13.16-20.42c.38.37.75.76,1.11,1.14l-12,11.27a40.72,40.72,0,0,0-13.8-9.54l6.26-15.26A57.13,57.13,0,0,1,248.77,254.19Zm-19-12.59-6.26,15.26a40.21,40.21,0,0,0-13.64-2.92l.54-16.46A56.86,56.86,0,0,1,229.82,241.6Zm-21.48-4.16,1.59,0-.54,16.46-1,0a40.64,40.64,0,0,0-13.29,2.23l-5.48-15.55A57.06,57.06,0,0,1,208.34,237.44Zm-19.27,3.31,5.48,15.56a40.72,40.72,0,0,0-13.85,8.44l-11.27-12A57,57,0,0,1,189.07,240.75ZM167.9,254.19q.57-.57,1.14-1.11l11.28,12a40.79,40.79,0,0,0-8.84,12.21l-15-6.92A57.32,57.32,0,0,1,167.9,254.19Zm-11.62,16.69,15,6.92A40.43,40.43,0,0,0,167.65,293l-16.46-.53A57.09,57.09,0,0,1,156.28,270.88Zm-5.13,23.74q0-.8,0-1.59l16.45.53c0,.36,0,.71,0,1.06A40.6,40.6,0,0,0,170,308.44l-15.47,5.7A57.14,57.14,0,0,1,151.15,294.62Zm3.59,20,15.48-5.7a40.65,40.65,0,0,0,8.24,13.31l-12,11.28A57,57,0,0,1,154.74,314.64Zm13.16,20.41-1.11-1.14,12-11.27a41.16,41.16,0,0,0,8.89,7.08l-7.87,14.51A57.68,57.68,0,0,1,167.9,335.05Zm97.24,63.58H151.53L180,346.14a58.34,58.34,0,0,0,5.74,2.78l-2,4.89a4.57,4.57,0,0,0-1.44-.23,4.79,4.79,0,1,0,1.94.42l2-4.88a58.59,58.59,0,0,0,19.92,4.23l-.16,5a4.7,4.7,0,1,0,.53,0l.16-5,1.65,0a58.84,58.84,0,0,0,19.29-3.22l1.72,4.86a4.77,4.77,0,1,0,2-.45,4.81,4.81,0,0,0-1.53.25L228.13,350a57.38,57.38,0,0,0,8.54-3.85Zm-28.31-54.4L229,329.72a41.19,41.19,0,0,0,7-5.22l11.27,12A57.76,57.76,0,0,1,236.83,344.23Zm11.94-9.18-1.14,1.12-11.27-12a41,41,0,0,0,8.83-12.21l15,6.91A57.32,57.32,0,0,1,248.77,335.05Zm11.62-16.69-15-6.91A40.52,40.52,0,0,0,249,296.21l16.46.53A57,57,0,0,1,260.39,318.36Z"/><path class="cls-6" d="M334.56,371.59c0,6.76.07,13.52-.06,20.28-.06,3.63-.48,7.26-.75,10.94H446.84c-.29-3.73-.73-7.24-.79-10.75-.13-6.87-.06-13.75,0-20.63,0-3,1.05-6.16-1.19-8.91-.24-.29-.13-.91-.09-1.37.38-4.85-.74-9.44-2-14.06a22.92,22.92,0,0,1,0-12.35c-2-2.63-2.2-6-2.07-9.4a34.69,34.69,0,0,0,0-4.89c-.29-2.87-.74-5.73-1.16-8.84l-1.79-1.16v-8.07l-1.61-.41V288.18h-.57c-.27,1.12-.54,2.25-.82,3.37a71.08,71.08,0,0,1-.61-9.81c-.13-3.25.61-6.6-.67-10l-1.15,1.37c-2.4-22-4.74-43.53-7.09-65h-.83c-2.34,21.42-4.67,42.84-7,64.43l-1.93-1.07v20.19l-.51.09c-.37-1.52-.75-3-1.16-4.72l-2.1,23.08c-.56.61-1.17,1.27-2,2.15-.3,4.58-.53,9.33-1,14.06-.27,2.94-.84,5.86-1.27,8.79-.33,3.73-.14,7.55-.39,11.35s-2.6,6-6.06,7.84c-3.28-5.7-6.83-11.17-9.59-17a8.93,8.93,0,0,1,.39-8.57l-1.45-2.74c-.57,1-1.14,1.92-1.52,2.58a9.93,9.93,0,0,1,.38,8.75c-2.78,5.85-6.28,11.35-9.88,17.67-1.93-2.27-4.05-3.85-4.87-5.93-1.77-4.5-1.35-9.31-.72-13.8-.62-2-1.55-3.87-1.7-5.77-.45-5.77-.6-11.56-.85-16.95L369,310v-7.4c-.35-.15-.9-.26-.91-.4-.34-5.08-.64-10.16-1-16.05-.58,2.36-.95,3.91-1.33,5.46l-.79-.13V270.85c-.56,1-.78,1.41-1,1.81l-.63-.1-6.72-61.21.7-.1c-.4-1.05-.81-2.09-1.21-3.14l-.66,0q-3.54,32.34-7.07,64.69l-.59,0c-.18-.63-.35-1.27-.53-1.91l-.75.08v20.53h-.77c-.2-1.2-.4-2.41-.59-3.62-1.37,4.72-.63,9.59-1.07,14.41h-1.32v7.68l-2.09,2.45c-.24,4.17-.63,8.22-.65,12.27,0,3.65,0,7.22-2,9.8.7,4.39.93,8.19,0,11.94-1.26,5-2.74,9.88-2.19,15.1,0,.34.1.81-.08,1C333.39,365.38,334.57,368.57,334.56,371.59Z"/></g></g></svg>