<svg xmlns="http://www.w3.org/2000/svg" viewBox="0 0 1458.36 458.42">
    <defs>
        <style>
            .cls-1{isolation:isolate;}
            .cls-13,.cls-2,.cls-8{fill:#97ebf3;}
            .cls-13,.cls-2{fill-rule:evenodd;}
            .cls-11,.cls-12,.cls-13,.cls-14,.cls-3,.cls-5{mix-blend-mode:color;}
            .cls-4{fill:#037c42;}
            .cls-5,.cls-7{fill:#02bc67;}
            .cls-11,.cls-6{fill:#80ea6e;}
            .cls-14,.cls-9{fill:#ff877a;}
            .cls-10,.cls-12{fill:#f9bc26;}
            .cls-15,.cls-16{fill:none;stroke:#f9bc26;stroke-linecap:round;stroke-linejoin:round;}
            .cls-15{stroke-width:1.63px;}
            .cls-16{stroke-width:1.33px;}
            .logo-by{font-size:18.27px;font-family:Metropolis-Light,Metropolis;font-weight:300;letter-spacing:-0.02em;fill:#fff}
            .logo {fill: #fff}
        </style>
    </defs>
    <g class="cls-1">
        <g id="Layer_1" data-name="Layer 1">
            <path class="cls-2"
                  d="M1276.49,359.21h26.87v-17h-1.56v-3.4h1.56v-7.47h5.45v7.47h1.56v3.4h-1.56v17h21.81V264.1H1333V211.79h-1.56V203h3.51V191.41c0-4.75,2.33-8.83,5.06-8.83h0v-.68c0-5.43,2.34-8.83,5.06-8.83h3.51V165.6H1347v-6.12c0-2,1.17-3.39,2.34-3.39h1.55V138.42h-1.94v-2h1.94v-4.75h2v4.75h2v2h-2v17.67h1.56c1.17,0,1.94,1.35,1.94,3.39v6.12h-1.16v7.47h3.11c3.12,0,5.06,3.4,5.06,8.83v.68h.39c2.73,0,5.06,4.08,5.06,8.83V203h3.12v8.83h-1.56V264.1h2.73v95.11h21.8v-17h-1.56v-3.4h1.56v-7.47h5.45v7.47h1.56v3.4h-1.56v17h5.06v91H1276.49Zm74-193.61v7.47h2.73V165.6Z"
                  transform="translate(-35.79 -71)"/>
            <g class="cls-3">
                <line class="cls-4" x1="1457.66" y1="320.81" x2="1458.36" y2="323.26"/>
                <path class="cls-4"
                      d="M1200.74,449.22,1490,450.61l0-36.45V388.32h-1.4l-1.39-19.56h-.7v-8h-1.75v8h-1l-1.74,6.64a9.07,9.07,0,0,0-4.89-3.85l-9.78-31.08h-6.64l-5.23,16.07h-17.47v5.24h-.7L1429.89,351h-6.64l-7.33,10.83h-24.8l-8.73-26.9h-6.63l-4.19,13.62-2.8-9.43h-.35l-1.74-7h-1l-1.75,7h-.7l-4.89,16.07h-27.24l-8-30.73h-1l-6.29,23.4-4.88-14.67h-5.24l-3.84,12.22V317.77h-1.4v-23h2.09v-2.79a2.7,2.7,0,0,0-2.44-2.8h-2.45v-6.28a6.13,6.13,0,0,0-2.79-5.24V260.84h1.75l1.08-.57.66-1.17v-2.45h-3.49a5,5,0,0,0-2.67-4.63c.7-.35.57-1,.57-1.65v-2.45h2.1v-4.19a4.19,4.19,0,0,0-3.84-4.19h-3.14a4.19,4.19,0,0,0-3.85,4.19v4.19h2.1v2.45c0,.69,0,1.39.7,1.74a5,5,0,0,0-2.8,4.54h-3.49v2.45l.64,1.17,1.11.57h1.74v16.77a6.16,6.16,0,0,0-2.79,5.24v6.28h-2.45a2.7,2.7,0,0,0-2.44,2.8v2.79h2.1v23h-1.4v28.29h-1.75v15.72h-2.44l-7.34-10.48-.7-.35h-5.93l-7.34,10.83h-1.74v-5.94h-16.77l-6.28-15-1.05-1.05h-3.14l-1,1.05-6.29,15h-.35v5.94h-10.48V373.3a11.25,11.25,0,0,0-3.49,7.68v51.34Zm-13.25,80.2"
                      transform="translate(-35.79 -71)"/>
            </g>
            <path class="cls-5"
                  d="M1217.88,449.55V242.72l-12.05-2.57V209.07l-10.08-1.59c-.66-3.5-1.21-6.4-1.48-7.86-7-3.21-12.76-8-18.45-7.91-6.11.11-12.13,4.83-18.9,7.85-.28,2.1-.67,5-1.08,8L1145,209.16v31.31l-12.26,2.39V450.13"
                  transform="translate(-35.79 -71)"/>
            <g class="cls-3">
                <rect class="cls-6" x="973.01" y="156.77" width="110.05" height="220.67"/>
                <rect class="cls-6" x="981.53" y="136.28" width="43.24" height="51.32"/>
                <ellipse class="cls-6" cx="1053.59" cy="156.77" rx="19.98" ry="21.4"/>
                <rect class="cls-6" x="961.22" y="174.14" width="134.62" height="4.03"/>
                <rect class="cls-6" x="961.22" y="192.07" width="134.62" height="4.03"/>
                <rect class="cls-6" x="961.22" y="210.01" width="134.62" height="4.03"/>
                <rect class="cls-6" x="961.22" y="227.94" width="134.62" height="4.03"/>
                <rect class="cls-6" x="961.22" y="245.87" width="134.62" height="4.03"/>
                <rect class="cls-6" x="961.22" y="263.81" width="134.62" height="4.03"/>
                <rect class="cls-6" x="961.22" y="281.74" width="134.62" height="4.03"/>
                <rect class="cls-6" x="961.22" y="299.67" width="134.62" height="4.03"/>
                <rect class="cls-6" x="961.22" y="317.6" width="134.62" height="4.03"/>
                <rect class="cls-6" x="961.22" y="335.54" width="134.62" height="4.03"/>
            </g>
            <g class="cls-3">
                <rect class="cls-7" x="756.27" y="112.69" width="129.21" height="266.66"/>
                <rect class="cls-7" x="771.05" y="82.88" width="99.66" height="205.67"/>
                <rect class="cls-7" x="778.78" y="66.3" width="84.19" height="184.2"/>
                <rect class="cls-7" x="810.57" y="44.13" width="20.62" height="160.48"/>
                <rect class="cls-7" x="818.64" y="12.52" width="4.47" height="160.48"/>
            </g>
            <polygon class="cls-8"
                     points="761.8 163.05 761.8 108.15 741.94 108.15 741.94 87.25 731.31 87.25 731.31 69.69 727.58 69.69 727.58 39.59 726.61 39.59 726.61 69.69 722.88 69.69 722.88 87.25 712.25 87.25 712.25 108.15 692.54 108.15 692.54 163.05 688.44 163.05 688.44 262.73 657.87 262.73 657.87 376.37 688.44 376.37 719.01 376.37 765.75 376.37 765.75 163.05 761.8 163.05"/>
            <g class="cls-3">
                <path class="cls-9"
                      d="M975.48,271.39s5-2.34,7.6-6.15,5.83-7.7,5.35-8.75a19.76,19.76,0,0,0-1.46-2.44l2.43-4.13-1.22-1.13h-12.8l-5.51,5.51-2.91.32s-3.41-11.91-5.68-15.39-8.18-6.81-8.18-6.81-1-3-.57-4.82.25-4.42-.44-5.51a3.27,3.27,0,0,1-.36-2,11.09,11.09,0,0,0,1.59-3.1l10.56,1-10-3.36c0-.42.07-.83.07-1.26a11.55,11.55,0,0,0-.15-1.78l9.75-3.65-10.32,1.45a11.12,11.12,0,0,0-2-3.31l7-8.51-8.85,6.75a10.5,10.5,0,0,0-3.43-1.62l-.19-11.94-2.48,11.59a10.34,10.34,0,0,0-4.19.92l-7.27-8.94,5.38,10a10.76,10.76,0,0,0-2.82,3.07l-4.67-.77,4,2a11.54,11.54,0,0,0-.86,2.82,18.74,18.74,0,0,1-2.51-3.48c-.85-1.74-3-4.62-2.79-6s-.72-2.63-1-7.27-2.65-8.75-1.78-12.21,1.73-5.57,1.24-7.62a24.09,24.09,0,0,1-.43-5s3.67-1.89,3.45-7.07c-.18-4.54-3-7.14-6.59-7.71v-1.07a8,8,0,0,0,2.77-6.16c0-5.3-4.71-6.36-5.14-9.48,0,0-2.12,4.3-.44,8.42a5.37,5.37,0,0,1-2.18-4s-4,7.09,1.32,11.25v1.17c-3.41.85-6.21,3.77-6.21,8.54,0,5.72,3.19,5.72,3.19,5.72s1.13,7.78,2.1,10.43.27,9.78.43,12.59-.43,5.88.65,10.1a54.26,54.26,0,0,1,1.35,6.59s-6.59,6.48-6.1,10.42a5.61,5.61,0,0,0,3.94,4.81s-2.43,5-1.4,7.4a6.91,6.91,0,0,0,3.51,3.4,26.83,26.83,0,0,1-1.13,5.62,5.22,5.22,0,0,0,.86,5.4,9.82,9.82,0,0,0,2,1.68s-3.73,6.48-4,10.53,4.38,9.89,4.38,9.89-3.51,6-2.43,8.8,2.75,5.73,2.7,11a121.54,121.54,0,0,1-.81,13.67,12.76,12.76,0,0,0,.05,4.75s-2.59,9.08-2.54,13c.05,3.38.05,10.58.05,12.56h-8.8v9.88h73v-9.88h-8.25a94.76,94.76,0,0,1,.06-12.35c.54-4.64-.75-15.12-.75-15.12a25.17,25.17,0,0,0,2.16-5.84c.32-2.26-2.87-14.82-2.62-16.85S975.48,271.39,975.48,271.39Z"
                      transform="translate(-35.79 -71)"/>
                <rect class="cls-9" x="867.15" y="267.01" width="86.46" height="67.41"/>
                <rect class="cls-9" x="858.41" y="311.68" width="103.93" height="67.81"/>
            </g>
            <g class="cls-3">
                <rect class="cls-10" x="789.53" y="251.64" width="25.99" height="128.83"/>
                <rect class="cls-10" x="878.11" y="251.64" width="25.99" height="127.78"/>
                <rect class="cls-10" x="793.34" y="241.16" width="18.37" height="99.93"/>
                <rect class="cls-10" x="814.43" y="228.32" width="64.33" height="151.97"/>
                <rect class="cls-10" x="822.78" y="217" width="47.63" height="20.67"/>
                <path class="cls-10" d="M900,288a17.65,17.65,0,1,1-17.64-18.15A17.9,17.9,0,0,1,900,288Z"
                      transform="translate(-35.79 -71)"/>
                <rect class="cls-10" x="881.92" y="241.16" width="18.37" height="99.93"/>
            </g>
            <path class="cls-5"
                  d="M501.45,450.18l1.35-12.47c2.86-42.45,6-84.88,8.36-127.35,2.13-38.69,3.41-77.43,5-116.15.17-4.22.42-7.93,4.29-10.86,1.58-1.2,2.44-4.24,2.46-6.46.2-18,.11-35.95.12-53.93v-6.47l1.64,0v65.73H544V116l1.94-.19c.15,2,.44,4,.44,6,0,18.21-.15,36.42.19,54.63.06,3,2.42,6,3.63,9,.87,2.16,2.21,4.34,2.32,6.57,2,42,3.81,84,5.69,125.93q1.67,37.42,3.39,74.86c.09,1.86-.06,3.84.55,5.53.44,1.2,2,2.74,3,2.75s2.69-1.79,2.76-2.88c.38-5.59.09-11.21.5-16.79A54.06,54.06,0,0,1,572,364.61c1,5.72,1.9,11.44,3.1,18.62,6.5-7.34,12.41-13.8,18-20.53.82-1,0-3.29.07-5a9,9,0,0,1,.74-3c.11-.26,1.5-.32,1.53-.24a28.57,28.57,0,0,1,.73,3.3c.38,2.09,0,4.76,1.21,6.17,5.24,6.24,10.91,12.12,16.42,18.13l2.2-.14v-42l2.45-.22c.81,1.62,1.63,3.23,3.15,6.25,3.69-20,7.13-38.62,10.1-54.68,1,6.57,2.33,15.83,3.94,25,1.64,9.37,3.6,18.69,5.68,29.4,1.33-2.8,2.1-4.43,2.86-6.05l2.29.19v85.83H668c.65-2.6,1.28-5.13,1.92-7.66l2.48.06q1.05,17.07,2.11,34.17c3.63,1.25-4.18-.68-.69.52Z"
                  transform="translate(-35.79 -71)"/>
            <path class="cls-11"
                  d="M694.47,423.17l-.45,27-98-2.51v-56.1c0-40.8-.21-81.61.23-122.4a29.48,29.48,0,0,1,5.47-15.86c10.93-15.13,22.71-29.65,35.78-46.48v32.1l13.14,1V209.17l2.49-.67c12.7,16.41,25.62,32.66,37.91,49.38,2.09,2.84,2,7.67,2,11.59.26,46.68.33,93.37.51,140,0,4.08.52,8.16.89,13.65,2.57-1.93,4-2.47,4.07-3.14"
                  transform="translate(-35.79 -71)"/>
            <path class="cls-12"
                  d="M722.39,435.16c-3.39,19.23-26.52,17.43-38.47,9-14.52-10.2-16.72-18.1-40.73-18.1-21.87,0-25.26,6.41-39.59,17s-36.21,12.44-39.6-7.92c-7.19-43.15,35.45-67.89,79.19-67.89S730,392.08,722.39,435.16Z"
                  transform="translate(-35.79 -71)"/>
            <path class="cls-9"
                  d="M846.06,325.34a5.39,5.39,0,0,0-5.37,4.94l-6.32-.2q0-.93,0-1.86a66.53,66.53,0,0,0-4-22.69l5.28-1.94a5.4,5.4,0,1,0-.44-2.14,5.49,5.49,0,0,0,.23,1.58L830.24,305a66.22,66.22,0,0,0-13.59-22l4.13-3.87a5.32,5.32,0,0,0,3.72,1.5,5.4,5.4,0,1,0-4.13-1.93l-4.13,3.86c-.43-.44-.86-.89-1.3-1.33a66.16,66.16,0,0,0-21.45-14.39l2.27-5.53a5.57,5.57,0,0,0,1.64.25,5.4,5.4,0,1,0-2.2-.47l-2.26,5.52a66.2,66.2,0,0,0-22.52-4.79l.25-7.56h.17a5.43,5.43,0,1,0-.77-.06l-.25,7.59c-.61,0-1.23,0-1.85,0a66.53,66.53,0,0,0-21.82,3.65L744,259.26a5.38,5.38,0,1,0-2.05.41,5.57,5.57,0,0,0,1.48-.21l2.18,6.17a65.89,65.89,0,0,0-22.83,13.91l-3.94-4.21a5.39,5.39,0,1,0-.43.42l3.93,4.2c-.45.42-.89.85-1.33,1.29a66.53,66.53,0,0,0-13.25,18.85l-5-2.31a5.4,5.4,0,1,0-5.11,3.67,5.38,5.38,0,0,0,4.88-3.12l5,2.3a66,66,0,0,0-5.91,25.13l-6.43-.21a5.42,5.42,0,1,0,0,.6l6.43.21q0,.93,0,1.86a66.43,66.43,0,0,0,4,22.68l-5.28,1.94a5.38,5.38,0,1,0,.45,2.14,5.48,5.48,0,0,0-.24-1.57l5.27-2a66.22,66.22,0,0,0,13.59,22l-4.12,3.87a5.4,5.4,0,1,0,.41.44l4.12-3.87c.43.45.86.89,1.3,1.33a66.58,66.58,0,0,0,13.91,10.68l-32.51,59.92h-5.84v1.71H693.7v3.4H842.23v-3.4h-2.85v-1.71h-5.84L801,385.87a66.44,66.44,0,0,0,12.14-9l5.27,5.62a5.31,5.31,0,1,0,.47-.37l-5.3-5.66,1.33-1.3a66.62,66.62,0,0,0,13.25-18.84l5.86,2.71a5.68,5.68,0,0,0-.16,1.32,5.38,5.38,0,1,0,.34-1.9l-5.79-2.68a66,66,0,0,0,5.91-25.12l6.32.2a5.39,5.39,0,1,0,5.39-5.54Zm-13.46,2.88c0,.6,0,1.2,0,1.8l-18.6-.61c0-.39,0-.79,0-1.19a45.72,45.72,0,0,0-2.73-15.62l17.5-6.45A64.88,64.88,0,0,1,832.6,328.22Zm-19.52,1.16L771.59,328a4,4,0,0,0-.13-.79l39-14.34a44.87,44.87,0,0,1,2.67,15.31C813.09,328.61,813.09,329,813.08,329.38Zm-90.23-2.33,41.5,1.35a3.34,3.34,0,0,0,.12.78l-39,14.35a44.92,44.92,0,0,1-2.67-15.31C722.84,327.83,722.84,327.44,722.85,327.05Zm48-1.08,30.27-28.37a45.23,45.23,0,0,1,9.13,14.74l-39,14.35A3.75,3.75,0,0,0,770.81,326Zm-.41-.44a3.94,3.94,0,0,0-.79-.54l15.77-38.4a45.15,45.15,0,0,1,15.29,10.57Zm-1.34-.77a3,3,0,0,0-.68-.14l1.35-41.49a44.68,44.68,0,0,1,15.1,3.23Zm-1.28-.16a3.47,3.47,0,0,0-.73.11l-13.8-39.15A44.8,44.8,0,0,1,768,283.09h1.16Zm-1.3.31a3.61,3.61,0,0,0-.77.47L737.34,295.1a45.15,45.15,0,0,1,15.34-9.34Zm-1.2.88a3.3,3.3,0,0,0-.47.64L727.12,309a45.31,45.31,0,0,1,9.79-13.52Zm-.72,1.18a3.34,3.34,0,0,0-.19.83l-41.49-1.35a44.76,44.76,0,0,1,4-16.87Zm.12,2.78a3.53,3.53,0,0,0,.35.59l-.25.45-29.93,28a45.27,45.27,0,0,1-9.13-14.75Zm-.81,2.71L745.08,367.1a45.37,45.37,0,0,1-9.82-7.82Zm2-1.25a3.85,3.85,0,0,0,.4.24l-15.77,38.4a44.22,44.22,0,0,1-4.43-2.16Zm1,.46a3.73,3.73,0,0,0,.68.15l-1.35,41.49a44.93,44.93,0,0,1-15.1-3.24Zm1.1,41.68-1.17,0,1.35-41.49a2.93,2.93,0,0,0,.73-.12l13.8,39.16A44.78,44.78,0,0,1,768,373.35Zm1.48-41.83a2.77,2.77,0,0,0,.56-.31l19.8,36.48a43.68,43.68,0,0,1-6.56,3Zm3.33,2.27,25.81,27.54a45.55,45.55,0,0,1-7.74,5.77Zm-1.13-2.08-.75-1.37a4,4,0,0,0,.22-.34l37.69,17.4A45.63,45.63,0,0,1,799,360.93Zm-.28-2.25a3.73,3.73,0,0,0,.2-.83L813.06,330a45,45,0,0,1-4,16.88ZM750.2,370.68l-7.08,17.25a64.43,64.43,0,0,1-6.32-3.05l8.89-16.4A47,47,0,0,0,750.2,370.68Zm.56.22a45.69,45.69,0,0,0,15.41,3.31l-.6,18.6a64.29,64.29,0,0,1-21.89-4.66Zm16,3.33H768a45.81,45.81,0,0,0,15-2.51l6.2,17.58A64.75,64.75,0,0,1,768,392.85c-.61,0-1.21,0-1.81,0Zm16.78-2.7a45.43,45.43,0,0,0,6.69-3l8.89,16.4a63.65,63.65,0,0,1-9.38,4.23Zm45-65.94L811.05,312a46.09,46.09,0,0,0-9.31-15l13.6-12.74A64.37,64.37,0,0,1,828.55,305.59Zm-14.88-23.08c.43.43.84.86,1.26,1.29l-13.6,12.74a46.33,46.33,0,0,0-15.6-10.78l7.08-17.25A64.48,64.48,0,0,1,813.67,282.51Zm-21.41-14.23-7.09,17.25a45.68,45.68,0,0,0-15.41-3.3l.6-18.61A64.64,64.64,0,0,1,792.26,268.28ZM768,263.58q.9,0,1.8,0l-.61,18.6-1.19,0a45.83,45.83,0,0,0-15,2.52l-6.2-17.58A64.51,64.51,0,0,1,768,263.58Zm-21.78,3.74,6.19,17.59a45.82,45.82,0,0,0-15.65,9.54L724,280.85A64.27,64.27,0,0,1,746.19,267.32Zm-23.93,15.19,1.29-1.25,12.74,13.59a46.1,46.1,0,0,0-10,13.81l-16.93-7.82A64.57,64.57,0,0,1,722.26,282.51Zm-13.14,18.87,16.93,7.82A45.75,45.75,0,0,0,722,326.42l-18.61-.6A64.41,64.41,0,0,1,709.12,301.38Zm-5.79,26.84c0-.6,0-1.2,0-1.8l18.6.6c0,.4,0,.8,0,1.2a45.72,45.72,0,0,0,2.73,15.62l-17.49,6.44A64.63,64.63,0,0,1,703.33,328.22Zm4,22.62,17.5-6.44a46.09,46.09,0,0,0,9.31,15.05l-13.6,12.75A64.42,64.42,0,0,1,707.38,350.84Zm14.88,23.08c-.43-.42-.84-.85-1.25-1.29l13.59-12.74a46.32,46.32,0,0,0,10,8l-8.89,16.4A64.83,64.83,0,0,1,722.26,373.92Zm109.92,71.87H703.75l32.19-59.33a65.78,65.78,0,0,0,6.5,3.13l-2.27,5.53a5.24,5.24,0,0,0-1.63-.25,5.38,5.38,0,1,0,2.19.46l2.26-5.51a66.49,66.49,0,0,0,22.52,4.79l-.19,5.65a5.4,5.4,0,1,0,.6,0l.19-5.65,1.86,0A66.47,66.47,0,0,0,789.78,391l1.93,5.5A5.39,5.39,0,1,0,794,396a5.23,5.23,0,0,0-1.73.29l-1.93-5.47a65.79,65.79,0,0,0,9.65-4.35Zm-32-61.5-8.89-16.4a46.19,46.19,0,0,0,7.92-5.9l12.74,13.6A64.61,64.61,0,0,1,800.17,384.29Zm13.5-10.37c-.42.43-.86.85-1.29,1.26l-12.74-13.6a46.19,46.19,0,0,0,10-13.8l16.93,7.81A64.29,64.29,0,0,1,813.67,373.92Zm13.14-18.87-16.93-7.81A45.8,45.8,0,0,0,814,330l18.61.61A64.36,64.36,0,0,1,826.81,355.05Z"
                  transform="translate(-35.79 -71)"/>
            <path class="cls-13"
                  d="M1113.57,448.5h4.16V358.42h3.57V308.87h-2.38V300.5h5.35V289.56c0-4.5,3.57-8.36,7.74-8.36h0v-1.29c0-4.5,3.57-8.36,7.73-8.36H1160c4.16,0,7.73,3.86,7.73,8.36v1.29h.59c4.17,0,7.74,3.86,7.74,8.36V300.5h4.76v8.37h-2.38v49.55h4.16V448.5H1185"
                  transform="translate(-35.79 -71)"/>
            <path class="cls-14"
                  d="M1140.32,449.14V436.25l-5.8,0a23.65,23.65,0,0,1-2.73-.37c-9.28-70.25-15.69-140.64-15.1-211.14,2.62-1.73,5.45-3.6,6.25-5.81,1.61-4.43,1.5-7.76.87-11.92-.29-1.89-3.12-5.07-5-5.85-5.33-2.16-7.26-5.95-7.3-10.84-.1-12.78-.12-25.55,0-38.32,0-2.51,1.4-5,1.32-7.52-.26-7.11-1.93-7.45-2-11.2-.62-19-.92-37.93-1.36-56.9,0-1.77-.26-3.54-.4-5.3l-1.93-.06a34.94,34.94,0,0,0-.76,5c-.07,11.17.44,22.37-.17,33.52-.64,11.81,1.4,20.82-3.32,32.29a19.64,19.64,0,0,0,0,5.57c.52,1.75,1.61,3.47,1.63,5.21.14,12.41.11,24.83.06,37.25,0,5.19-2.29,9.08-7.69,11.19a7.74,7.74,0,0,0-3.33,2.73c-4.17,6.15-.7,17.86,6.28,21.13-.41,70.56-6.56,140.8-15.84,210.94h-10.61V449Z"
                  transform="translate(-35.79 -71)"/>
            <path class="cls-12"
                  d="M1197,449.43V419.91c-6.26,6.69-6.43,6.8-8.7,2.17C1180,405,1166.82,394.22,1151,388c-33.78-13.26-67.83-13.09-101.51.58a67.57,67.57,0,0,0-34.07,30c-4.44,7.82-4.35,7.89-10.87,1.11v29.91"
                  transform="translate(-35.79 -71)"/>
            <g class="cls-3">
                <polygon class="cls-8" points="962.22 209.81 919.26 378.9 1005.18 378.9 962.22 209.81"/>
                <rect class="cls-8" x="941.97" y="246.15" width="40.57" height="92.43"/>
            </g>
            <polyline class="cls-14"
                      points="1258.35 377.75 1258.35 333.45 1247.27 333.45 1242.84 321.27 1242.84 305.76 1263.88 327.91 1268.31 323.48 1272.74 319.05 1242.84 293.58 1242.84 281.4 1221.8 268.11 1222.91 267 1224.02 267 1270.53 223.81 1266.1 219.38 1260.56 214.95 1219.58 263.68 1220.69 264.78 1219.58 265.89 1215.15 263.68 1210.72 267 1208.51 264.78 1209.62 263.68 1166.42 217.16 1162 221.59 1157.57 227.13 1206.3 268.11 1206.3 267 1208.51 268.11 1190.79 283.61 1190.79 291.36 1159.78 321.27 1164.21 325.7 1168.64 330.13 1190.79 303.55 1190.79 319.05 1169.75 333.45 1167.53 333.45 1167.53 377.75"/>
            <g class="cls-3">
                <path class="cls-15"
                      d="M484.36,223.91c26.58-29.8,94.21-37.67,129.1-26.54,37.68,12,91.71,8.5,121.21-25.77"
                      transform="translate(-35.79 -71)"/>
                <path class="cls-15" d="M486.44,234c26.57-29.79,94.2-37.66,129.09-26.53,37.68,12,91.71,8.5,121.21-25.77"
                      transform="translate(-35.79 -71)"/>
                <path class="cls-15"
                      d="M488.51,244.06c26.57-29.79,94.2-37.66,129.09-26.53,37.68,12,91.71,8.5,121.21-25.77"
                      transform="translate(-35.79 -71)"/>
                <path class="cls-15"
                      d="M482.29,213.83c26.58-29.8,94.21-37.67,129.1-26.54,37.68,12,91.71,8.51,121.21-25.77"
                      transform="translate(-35.79 -71)"/>
                <path class="cls-15"
                      d="M480.22,203.75c26.58-29.8,94.21-37.67,129.09-26.53,37.69,12,91.71,8.5,121.22-25.78"
                      transform="translate(-35.79 -71)"/>
                <path class="cls-15"
                      d="M478.15,193.67c26.58-29.8,94.21-37.67,129.09-26.53,37.69,12,91.71,8.5,121.22-25.78"
                      transform="translate(-35.79 -71)"/>
            </g>
            <g class="cls-3">
                <path class="cls-16"
                      d="M1192.74,266.35c19.26-25.45,70.06-30.56,96.66-19.86,28.74,11.55,69.4,9.89,90.74-19.42"
                      transform="translate(-35.79 -71)"/>
                <path class="cls-16"
                      d="M1194.57,275.25c19.25-25.45,70.06-30.56,96.66-19.86,28.74,11.55,69.4,9.89,90.74-19.42"
                      transform="translate(-35.79 -71)"/>
                <path class="cls-16"
                      d="M1196.4,284.15c19.25-25.45,70-30.56,96.66-19.86,28.74,11.55,69.4,9.89,90.74-19.41"
                      transform="translate(-35.79 -71)"/>
                <path class="cls-16"
                      d="M1190.91,257.45c19.26-25.45,70.06-30.56,96.66-19.87,28.74,11.56,69.4,9.89,90.74-19.41"
                      transform="translate(-35.79 -71)"/>
                <path class="cls-16"
                      d="M1189.08,248.55c19.26-25.45,70.06-30.56,96.66-19.87,28.74,11.56,69.4,9.89,90.74-19.41"
                      transform="translate(-35.79 -71)"/>
                <path class="cls-16"
                      d="M1187.25,239.65c19.26-25.45,70.06-30.56,96.66-19.87,28.74,11.56,69.4,9.89,90.74-19.41"
                      transform="translate(-35.79 -71)"/>
            </g>
            <path class="logo"
                  d="M63.94,314.87a2.21,2.21,0,0,1-.91-1.8,2.18,2.18,0,0,1,2.21-2.17,2.14,2.14,0,0,1,1.37.42,11.66,11.66,0,0,0,7.49,2.75c2.9,0,4.73-1.38,4.73-3.36v-.08c0-1.91-1.07-2.94-6-4.08-5.69-1.38-8.9-3.05-8.9-8v-.07c0-4.58,3.82-7.75,9.13-7.75a14.7,14.7,0,0,1,8.47,2.48,2.1,2.1,0,0,1,1,1.87,2.18,2.18,0,0,1-2.21,2.17,2.25,2.25,0,0,1-1.22-.34,11.17,11.17,0,0,0-6.15-2c-2.75,0-4.35,1.41-4.35,3.17v.07c0,2.06,1.22,3,6.38,4.2,5.65,1.37,8.55,3.4,8.55,7.82v.08c0,5-3.94,8-9.55,8A16.68,16.68,0,0,1,63.94,314.87Zm22.68-15.08a2.29,2.29,0,0,1,2.29-2.33,2.32,2.32,0,0,1,2.33,2.33v1.26a8.06,8.06,0,0,1,6.87-3.78c4.73,0,9.35,3.74,9.35,10.46v.08c0,6.68-4.58,10.46-9.35,10.46a8.23,8.23,0,0,1-6.87-3.55v7.13a2.31,2.31,0,0,1-4.62,0Zm16.15,8v-.08c0-3.89-2.64-6.45-5.77-6.45s-5.88,2.6-5.88,6.45v.08c0,3.85,2.75,6.45,5.88,6.45S102.77,311.78,102.77,307.81Zm7.55-8a2.29,2.29,0,0,1,2.29-2.33,2.32,2.32,0,0,1,2.33,2.33v2.06c1.07-2.51,3.06-4.42,5.08-4.42a2.27,2.27,0,0,1,.46,4.5c-3.29.57-5.54,3.09-5.54,7.86v6a2.3,2.3,0,0,1-2.33,2.29,2.28,2.28,0,0,1-2.29-2.29Zm13.78-7.51a2.67,2.67,0,0,1,5.27,0v.22a2.66,2.66,0,0,1-5.27,0Zm.35,7.51a2.29,2.29,0,0,1,2.29-2.33,2.32,2.32,0,0,1,2.33,2.33v16a2.31,2.31,0,0,1-4.62,0Zm8.74,0a2.29,2.29,0,0,1,2.29-2.33,2.32,2.32,0,0,1,2.33,2.33v1a7.31,7.31,0,0,1,6.3-3.51c4.54,0,7.17,3.06,7.17,7.71v10.77A2.25,2.25,0,0,1,149,318a2.29,2.29,0,0,1-2.33-2.29V306.4c0-3.13-1.56-4.93-4.31-4.93s-4.54,1.87-4.54,5v9.28a2.31,2.31,0,0,1-4.62,0Zm22.94,22.44a1.89,1.89,0,0,1-1.3-1.83,2,2,0,0,1,1.95-1.91,1.77,1.77,0,0,1,.84.2,12.33,12.33,0,0,0,6.18,1.6c4.13,0,6.38-2.14,6.38-6.18v-1.57a8.43,8.43,0,0,1-7.1,3.7,9.05,9.05,0,0,1-9.16-9.42v-.08a9.09,9.09,0,0,1,9.16-9.47,8.69,8.69,0,0,1,7.06,3.44v-.95a2.31,2.31,0,1,1,4.62,0v13.93c0,3.4-.88,5.92-2.56,7.6s-4.66,2.71-8.28,2.71A17.32,17.32,0,0,1,156.13,322.23Zm14.09-15.45v-.08a5.63,5.63,0,0,0-5.92-5.53,5.44,5.44,0,0,0-5.73,5.53v.08a5.49,5.49,0,0,0,5.73,5.53A5.63,5.63,0,0,0,170.22,306.78Zm7.78-2.22v-.07a14,14,0,0,1,27.95-.08v.08a14,14,0,0,1-27.95.07Zm23,0v-.07c0-5.19-3.78-9.51-9.08-9.51s-9,4.24-9,9.43v.08c0,5.19,3.78,9.46,9.08,9.46S201,309.75,201,304.56Zm8.17-4.77a2.29,2.29,0,0,1,2.29-2.33,2.32,2.32,0,0,1,2.33,2.33v1a7.31,7.31,0,0,1,6.3-3.51c4.54,0,7.18,3.06,7.18,7.71v10.77A2.26,2.26,0,0,1,225,318a2.29,2.29,0,0,1-2.33-2.29V306.4c0-3.13-1.57-4.93-4.32-4.93s-4.54,1.87-4.54,5v9.28a2.31,2.31,0,0,1-4.62,0Zm31,18.51a10.05,10.05,0,0,1-10.35-10.45v-.08c0-5.76,4.09-10.5,9.85-10.5,6.42,0,9.58,5.27,9.58,9.93a2.16,2.16,0,0,1-2.17,2.21H234.46a5.64,5.64,0,0,0,5.81,5.12,7.25,7.25,0,0,0,4.77-1.76,1.7,1.7,0,0,1,1.18-.42,1.82,1.82,0,0,1,1.83,1.87,2,2,0,0,1-.61,1.41A10.34,10.34,0,0,1,240.19,318.3Zm4.58-11.94c-.31-3-2.06-5.31-5.12-5.31-2.82,0-4.81,2.18-5.23,5.31ZM337.84,339H69a33.16,33.16,0,1,1,0-66.31H337.84a33.16,33.16,0,1,1,0,66.31ZM69,274.33a31.54,31.54,0,1,0,0,63.07H337.84a31.54,31.54,0,0,0,0-63.07Z"
                  transform="translate(-35.79 -71)"/>
            <path class="logo"
                  d="M271,299.59h-5.94a1.08,1.08,0,0,1-1.08-1,1.1,1.1,0,0,1,1.08-1.08h14.22a1.1,1.1,0,0,1,1.09,1.08,1.08,1.08,0,0,1-1.09,1h-5.94v17.32a1.17,1.17,0,1,1-2.34,0Z"
                  transform="translate(-35.79 -71)"/>
            <path class="logo"
                  d="M281.93,307.75v-.05a10.45,10.45,0,1,1,20.9-.06v.06a10.45,10.45,0,1,1-20.9.05Zm18.5,0v-.05a8.15,8.15,0,0,0-8.08-8.46c-4.68,0-8,3.75-8,8.4v.06a8.14,8.14,0,0,0,8.08,8.45C297.09,316.15,300.43,312.41,300.43,307.75Z"
                  transform="translate(-35.79 -71)"/>
            <path class="logo"
                  d="M307.1,309.36V298.48a1.16,1.16,0,1,1,2.31,0v10.74c0,4.42,2.37,6.9,6.26,6.9s6.18-2.28,6.18-6.76V298.48a1.16,1.16,0,1,1,2.31,0v10.71c0,6-3.42,9.07-8.55,9.07S307.1,315.16,307.1,309.36Z"
                  transform="translate(-35.79 -71)"/>
            <path class="logo"
                  d="M329.34,298.63a1.16,1.16,0,0,1,1.14-1.17h7.66a8.12,8.12,0,0,1,5.83,2,5.69,5.69,0,0,1,1.58,4v.06c0,3.36-2.29,5.32-5.48,5.94l5.1,6.55a1.3,1.3,0,0,1,.38.85,1.21,1.21,0,0,1-1.17,1.14,1.37,1.37,0,0,1-1.09-.61L337.53,310h-5.88v6.93a1.17,1.17,0,0,1-1.17,1.17,1.16,1.16,0,0,1-1.14-1.17Zm8.6,9.27c3.07,0,5.27-1.58,5.27-4.21v-.06c0-2.52-1.94-4-5.24-4h-6.32v8.31Z"
                  transform="translate(-35.79 -71)"/>
            <text class="logo-by" transform="translate(158.6 287.65)">
                <tspan>by VMware Tanzu</tspan>
            </text>
        </g>
    </g>
</svg>
