<svg xmlns="http://www.w3.org/2000/svg" viewBox="0 0 1016.82 458.42"><defs><style>.cls-1{isolation:isolate;}.cls-13,.cls-2,.cls-8{fill:#97ebf3;}.cls-13,.cls-2{fill-rule:evenodd;}.cls-11,.cls-12,.cls-13,.cls-14,.cls-3,.cls-5{mix-blend-mode:color;}.cls-4{fill:#037c42;}.cls-5,.cls-7{fill:#02bc67;}.cls-11,.cls-6{fill:#80ea6e;}.cls-14,.cls-9{fill:#ff877a;}.cls-10,.cls-12{fill:#f9bc26;}.cls-15,.cls-16{fill:none;stroke:#f9bc26;stroke-linecap:round;stroke-linejoin:round;}.cls-15{stroke-width:1.63px;}.cls-16{stroke-width:1.33px;}</style></defs><g class="cls-1"><g id="Layer_1" data-name="Layer 1"><path class="cls-2" d="M799.16,288.21H826v-17h-1.56v-3.4H826v-7.47h5.45v7.47H833v3.4h-1.55v17h21.8V193.1h2.34V140.79h-1.56V132h3.5V120.41c0-4.75,2.34-8.83,5.07-8.83h0v-.68c0-5.43,2.33-8.83,5.06-8.83h3.5V94.6h-1.56V88.48c0-2,1.17-3.39,2.34-3.39h1.56V67.42h-1.95v-2h1.95V60.63h1.94v4.75h1.95v2h-1.95V85.09H877c1.17,0,2,1.35,2,3.39V94.6h-1.17v7.47h3.12c3.11,0,5.06,3.4,5.06,8.83v.68h.39c2.72,0,5.06,4.08,5.06,8.83V132h3.11v8.83H893V193.1h2.72v95.11h21.81v-17H916v-3.4h1.56v-7.47H923v7.47h1.56v3.4H923v17H928v91H799.16Zm74-193.61v7.47h2.72V94.6Z"/><g class="cls-3"><line class="cls-4" x1="1016.12" y1="320.81" x2="1016.82" y2="323.26"/><path class="cls-4" d="M723.4,378.22l289.27,1.39,0-36.45V317.32h-1.4l-1.4-19.56h-.7v-8h-1.74v8h-1l-1.75,6.64a9,9,0,0,0-4.89-3.85l-9.77-31.08h-6.64l-5.24,16.07H960.59v5.24h-.7L952.56,280h-6.64l-7.33,10.83h-24.8l-8.73-26.9h-6.64l-4.19,13.62-2.79-9.43h-.35l-1.75-7h-1.05l-1.74,7h-.7L881,284.14H853.72l-8-30.73h-1l-6.29,23.4-4.89-14.67h-5.24l-3.84,12.22V246.77H823V223.72h2.1v-2.79a2.7,2.7,0,0,0-2.45-2.8h-2.44v-6.28a6.16,6.16,0,0,0-2.79-5.24V189.84h1.74l1.09-.57.66-1.17v-2.45H817.4a5.06,5.06,0,0,0-2.68-4.63c.7-.35.58-1,.58-1.65v-2.45h2.1v-4.19a4.19,4.19,0,0,0-3.85-4.19h-3.14a4.18,4.18,0,0,0-3.84,4.19v4.19h2.09v2.45c0,.69,0,1.39.7,1.74a5,5,0,0,0-2.79,4.54h-3.49v2.45l.64,1.17,1.1.57h1.75v16.77a6.14,6.14,0,0,0-2.8,5.24v6.28h-2.44a2.7,2.7,0,0,0-2.44,2.8v2.79H801v23.05h-1.4v28.29h-1.74v15.72h-2.45l-7.33-10.48-.7-.35h-5.94l-7.33,10.83h-1.75v-5.94H755.58l-6.29-15-1-1.05H745.1l-1.05,1.05-6.28,15h-.35v5.94H726.94V302.3a11.2,11.2,0,0,0-3.49,7.68v51.34Zm-13.25,80.2"/></g><path class="cls-5" d="M740.54,378.55V171.72l-12-2.57V138.07l-10.09-1.59c-.65-3.5-1.2-6.4-1.48-7.86-7-3.21-12.75-8-18.44-7.91-6.11.11-12.13,4.83-18.9,7.85-.29,2.1-.68,5-1.09,8l-10.82,1.61v31.31l-12.25,2.39V379.13"/><g class="cls-3"><rect class="cls-6" x="531.47" y="156.77" width="110.05" height="220.67"/><rect class="cls-6" x="539.98" y="136.28" width="43.24" height="51.32"/><ellipse class="cls-6" cx="612.04" cy="156.77" rx="19.98" ry="21.4"/><rect class="cls-6" x="519.68" y="174.14" width="134.62" height="4.03"/><rect class="cls-6" x="519.68" y="192.07" width="134.62" height="4.03"/><rect class="cls-6" x="519.68" y="210.01" width="134.62" height="4.03"/><rect class="cls-6" x="519.68" y="227.94" width="134.62" height="4.03"/><rect class="cls-6" x="519.68" y="245.87" width="134.62" height="4.03"/><rect class="cls-6" x="519.68" y="263.81" width="134.62" height="4.03"/><rect class="cls-6" x="519.68" y="281.74" width="134.62" height="4.03"/><rect class="cls-6" x="519.68" y="299.67" width="134.62" height="4.03"/><rect class="cls-6" x="519.68" y="317.6" width="134.62" height="4.03"/><rect class="cls-6" x="519.68" y="335.54" width="134.62" height="4.03"/></g><g class="cls-3"><rect class="cls-7" x="314.72" y="112.69" width="129.21" height="266.66"/><rect class="cls-7" x="329.5" y="82.88" width="99.66" height="205.67"/><rect class="cls-7" x="337.23" y="66.3" width="84.19" height="184.2"/><rect class="cls-7" x="369.02" y="44.13" width="20.62" height="160.48"/><rect class="cls-7" x="377.1" y="12.52" width="4.47" height="160.48"/></g><polygon class="cls-8" points="320.26 163.05 320.26 108.15 300.39 108.15 300.39 87.25 289.76 87.25 289.76 69.69 286.03 69.69 286.03 39.59 285.07 39.59 285.07 69.69 281.34 69.69 281.34 87.25 270.71 87.25 270.71 108.15 250.99 108.15 250.99 163.05 246.9 163.05 246.9 262.73 216.33 262.73 216.33 376.37 246.9 376.37 277.46 376.37 324.2 376.37 324.2 163.05 320.26 163.05"/><g class="cls-3"><path class="cls-9" d="M498.15,200.39s5-2.34,7.59-6.15,5.84-7.7,5.35-8.75a18.5,18.5,0,0,0-1.46-2.44l2.44-4.13-1.22-1.13h-12.8l-5.51,5.51-2.92.32s-3.4-11.91-5.67-15.39-8.19-6.81-8.19-6.81-1-3-.56-4.82.24-4.42-.45-5.51a3.34,3.34,0,0,1-.36-2A11.12,11.12,0,0,0,476,146l10.55,1-10-3.36a10.52,10.52,0,0,0,.08-1.26,11.55,11.55,0,0,0-.15-1.78l9.75-3.65-10.33,1.45a11.31,11.31,0,0,0-1.94-3.31l7-8.51L472,133.33a10.32,10.32,0,0,0-3.43-1.62l-.19-11.94-2.47,11.59a10.3,10.3,0,0,0-4.19.92l-7.27-8.94,5.38,10a10.76,10.76,0,0,0-2.82,3.07l-4.67-.77,4,2a10.73,10.73,0,0,0-.86,2.82A18.29,18.29,0,0,1,453,137c-.85-1.74-3-4.62-2.8-6s-.71-2.63-1-7.27-2.64-8.75-1.78-12.21,1.73-5.57,1.24-7.62a24.88,24.88,0,0,1-.43-5,7.44,7.44,0,0,0,3.46-7.07c-.19-4.54-3-7.14-6.59-7.71V83.07a8,8,0,0,0,2.76-6.16c0-5.3-4.7-6.36-5.14-9.48,0,0-2.12,4.3-.43,8.42a5.4,5.4,0,0,1-2.19-4s-4,7.09,1.32,11.25v1.17c-3.4.85-6.21,3.77-6.21,8.54,0,5.72,3.19,5.72,3.19,5.72s1.14,7.78,2.11,10.43.27,9.78.43,12.59-.43,5.88.65,10.1a54.26,54.26,0,0,1,1.35,6.59s-6.59,6.48-6.11,10.42a5.61,5.61,0,0,0,4,4.81s-2.43,5-1.41,7.4a6.91,6.91,0,0,0,3.51,3.4,26.16,26.16,0,0,1-1.13,5.62,5.22,5.22,0,0,0,.86,5.4,10,10,0,0,0,2.06,1.68s-3.73,6.48-4.05,10.53S445,197.4,445,197.4s-3.51,6-2.43,8.8,2.76,5.73,2.7,11a119.2,119.2,0,0,1-.81,13.67,12.86,12.86,0,0,0,.06,4.75s-2.6,9.08-2.54,13c0,3.38,0,10.58,0,12.56h-8.8v9.88h73v-9.88H498a94.9,94.9,0,0,1,.07-12.35c.54-4.64-.76-15.12-.76-15.12a24.69,24.69,0,0,0,2.16-5.84c.33-2.26-2.86-14.82-2.62-16.85S498.15,200.39,498.15,200.39Z"/><rect class="cls-9" x="425.6" y="267.01" width="86.46" height="67.41"/><rect class="cls-9" x="416.87" y="311.68" width="103.93" height="67.81"/></g><g class="cls-3"><rect class="cls-10" x="347.99" y="251.64" width="25.99" height="128.83"/><rect class="cls-10" x="436.56" y="251.64" width="25.99" height="127.78"/><rect class="cls-10" x="351.8" y="241.16" width="18.37" height="99.93"/><rect class="cls-10" x="372.89" y="228.32" width="64.33" height="151.97"/><rect class="cls-10" x="381.24" y="217" width="47.63" height="20.67"/><path class="cls-10" d="M422.69,217a17.65,17.65,0,1,1-17.64-18.15A17.9,17.9,0,0,1,422.69,217Z"/><rect class="cls-10" x="440.37" y="241.16" width="18.37" height="99.93"/></g><path class="cls-5" d="M24.11,379.18l1.36-12.47c2.85-42.45,6-84.88,8.35-127.35,2.14-38.69,3.41-77.43,5-116.15.17-4.22.41-7.93,4.28-10.86,1.58-1.2,2.44-4.24,2.47-6.46.19-18,.11-35.95.11-53.93V45.49l1.65,0v65.73H66.62V45l1.94-.19c.16,2,.44,4,.45,6,0,18.21-.16,36.42.18,54.63.06,3,2.42,6,3.64,9,.87,2.16,2.21,4.34,2.31,6.57q3,63,5.69,125.93,1.68,37.43,3.4,74.86c.08,1.86-.07,3.84.55,5.53.43,1.2,2,2.74,3,2.75s2.69-1.79,2.77-2.88c.37-5.59.09-11.21.49-16.79a54.08,54.08,0,0,1,3.62-16.83l3.09,18.62c6.51-7.34,12.41-13.8,18-20.53.82-1,0-3.29.08-5a9.28,9.28,0,0,1,.73-3c.12-.26,1.51-.32,1.54-.24a30.82,30.82,0,0,1,.73,3.3c.37,2.09,0,4.76,1.21,6.17,5.24,6.24,10.91,12.12,16.42,18.13l2.2-.14v-42l2.44-.22,3.15,6.25c3.7-20,7.14-38.62,10.11-54.68,1,6.57,2.32,15.83,3.94,25,1.64,9.37,3.59,18.69,5.68,29.4,1.33-2.8,2.09-4.43,2.86-6.05l2.28.19v85.83h21.52l1.91-7.66,2.48.06q1.07,17.07,2.12,34.17c3.63,1.25-4.18-.68-.7.52Z"/><path class="cls-11" d="M217.13,352.17l-.44,27-98-2.51c0-18.86,0-37.48,0-56.1,0-40.8-.2-81.61.24-122.4a29.39,29.39,0,0,1,5.47-15.86c10.92-15.13,22.7-29.65,35.78-46.48v32.1l13.14,1V138.17l2.48-.67c12.71,16.41,25.63,32.66,37.91,49.38,2.09,2.84,2,7.67,2,11.59.26,46.68.32,93.37.51,140,0,4.08.51,8.16.88,13.65,2.57-1.93,4-2.47,4.07-3.14"/><path class="cls-12" d="M245.06,364.16c-3.4,19.23-26.53,17.43-38.47,9-14.52-10.2-16.73-18.1-40.73-18.1-21.87,0-25.27,6.41-39.6,17s-36.2,12.44-39.6-7.92c-7.19-43.15,35.46-67.89,79.2-67.89S252.66,321.08,245.06,364.16Z"/><path class="cls-9" d="M368.72,254.34a5.4,5.4,0,0,0-5.37,4.94l-6.31-.2c0-.62,0-1.24,0-1.86a66.52,66.52,0,0,0-3.95-22.69l5.27-1.94a5.4,5.4,0,1,0-.44-2.14,5.17,5.17,0,0,0,.24,1.58L352.9,234a65.89,65.89,0,0,0-13.59-22l4.13-3.87a5.28,5.28,0,1,0-.41-.43l-4.13,3.86c-.42-.44-.85-.89-1.29-1.33a66.26,66.26,0,0,0-21.45-14.39l2.27-5.53a5.45,5.45,0,0,0,1.63.25,5.4,5.4,0,1,0-2.19-.47l-2.27,5.52a66.15,66.15,0,0,0-22.51-4.79l.24-7.56h.18a5.44,5.44,0,1,0-.77-.06l-.25,7.59q-.93,0-1.86,0a66.47,66.47,0,0,0-21.81,3.65l-2.17-6.17a5.39,5.39,0,1,0-2,.41,5.57,5.57,0,0,0,1.48-.21l2.17,6.17a66.08,66.08,0,0,0-22.83,13.91l-3.94-4.21a5.33,5.33,0,0,0,1.42-3.64,5.39,5.39,0,1,0-5.39,5.39,5.33,5.33,0,0,0,3.54-1.33L245,209c-.45.42-.9.85-1.34,1.29a66.49,66.49,0,0,0-13.24,18.85l-5-2.31a5.4,5.4,0,1,0-.22.55l5,2.3a66,66,0,0,0-5.92,25.13l-6.43-.21a5.33,5.33,0,1,0,0,.6l6.42.21c0,.62,0,1.24,0,1.86a66.42,66.42,0,0,0,4,22.68l-5.27,1.94a5.4,5.4,0,1,0,.44,2.14,5.47,5.47,0,0,0-.23-1.57l5.27-2a66.05,66.05,0,0,0,13.59,22l-4.13,3.87a5.44,5.44,0,1,0,.41.44l4.13-3.87c.42.45.86.89,1.29,1.33a66.84,66.84,0,0,0,13.91,10.68l-32.51,59.92h-5.83v1.71h-2.86v3.4H364.9v-3.4H362v-1.71h-5.83L323.7,314.87a66.44,66.44,0,0,0,12.14-9l5.27,5.62a5.31,5.31,0,1,0,.47-.37l-5.31-5.66c.45-.43.9-.86,1.34-1.3a66.39,66.39,0,0,0,13.24-18.84l5.87,2.71a5.19,5.19,0,0,0-.16,1.32,5.38,5.38,0,1,0,.34-1.9l-5.8-2.68A66,66,0,0,0,357,259.68l6.32.2a5.39,5.39,0,1,0,5.38-5.54Zm-13.45,2.88q0,.9,0,1.8l-18.6-.61c0-.39,0-.79,0-1.19a46,46,0,0,0-2.73-15.62l17.49-6.45A64.65,64.65,0,0,1,355.27,257.22Zm-19.53,1.16L294.25,257a3.35,3.35,0,0,0-.13-.79l39-14.34a44.88,44.88,0,0,1,2.68,15.31C335.76,257.61,335.75,258,335.74,258.38Zm-90.22-2.33L287,257.4a3.35,3.35,0,0,0,.13.78l-39,14.35a44.92,44.92,0,0,1-2.68-15.31C245.5,256.83,245.51,256.44,245.52,256.05Zm48-1.08,30.28-28.37a45.2,45.2,0,0,1,9.12,14.74l-38.95,14.35A3.35,3.35,0,0,0,293.47,255Zm-.41-.44a3.87,3.87,0,0,0-.78-.54l15.77-38.4a45.25,45.25,0,0,1,15.29,10.57Zm-1.33-.77a3.16,3.16,0,0,0-.68-.14l1.35-41.49a44.73,44.73,0,0,1,15.1,3.23Zm-1.28-.16a3.67,3.67,0,0,0-.74.11l-13.8-39.15a44.89,44.89,0,0,1,14.72-2.47h1.17Zm-1.3.31a3.18,3.18,0,0,0-.77.47L260,224.1a45.06,45.06,0,0,1,15.34-9.34Zm-1.21.88a3.25,3.25,0,0,0-.46.64L249.79,238a45.46,45.46,0,0,1,9.78-13.52Zm-.72,1.18a3.85,3.85,0,0,0-.19.83l-41.49-1.35a44.76,44.76,0,0,1,4-16.87Zm.12,2.78a4.36,4.36,0,0,0,.35.59l-.25.45-29.93,28a45.25,45.25,0,0,1-9.12-14.75Zm-.8,2.71L267.75,296.1a45.67,45.67,0,0,1-9.83-7.82Zm2-1.25c.13.09.26.16.4.24l-15.77,38.4a44.05,44.05,0,0,1-4.42-2.16Zm1,.46a3.63,3.63,0,0,0,.67.15l-1.34,41.49a44.88,44.88,0,0,1-15.1-3.24Zm1.09,41.68-1.17,0,1.35-41.49a3,3,0,0,0,.74-.12l13.8,39.16A44.89,44.89,0,0,1,290.63,302.35Zm1.48-41.83a3.15,3.15,0,0,0,.57-.31l19.79,36.48a43.68,43.68,0,0,1-6.56,3Zm3.33,2.27,25.81,27.54a45.16,45.16,0,0,1-7.74,5.77Zm-1.12-2.08-.75-1.37a2.39,2.39,0,0,0,.21-.34l37.69,17.4a45.45,45.45,0,0,1-9.78,13.53Zm-.28-2.25a3.72,3.72,0,0,0,.19-.83L335.72,259a45,45,0,0,1-4,16.88Zm-21.17,41.22-7.08,17.25a65.72,65.72,0,0,1-6.33-3.05l8.9-16.4A45.83,45.83,0,0,0,272.87,299.68Zm.55.22a45.8,45.8,0,0,0,15.42,3.31l-.61,18.6a64.34,64.34,0,0,1-21.89-4.66Zm16,3.33h1.2a45.82,45.82,0,0,0,15-2.51l6.19,17.58a64.7,64.7,0,0,1-21.21,3.54c-.6,0-1.2,0-1.8,0Zm16.78-2.7a45,45,0,0,0,6.69-3l8.9,16.4a63.77,63.77,0,0,1-9.39,4.23Zm45-65.94L333.72,241A46.12,46.12,0,0,0,324.4,226L338,213.24A64.21,64.21,0,0,1,351.21,234.59Zm-14.87-23.08,1.25,1.29L324,225.54a46.23,46.23,0,0,0-15.6-10.78l7.08-17.25A64.41,64.41,0,0,1,336.34,211.51Zm-21.42-14.23-7.08,17.25a45.79,45.79,0,0,0-15.41-3.3l.6-18.61A64.58,64.58,0,0,1,314.92,197.28Zm-24.29-4.7q.9,0,1.8,0l-.6,18.6-1.2,0a45.83,45.83,0,0,0-15,2.52l-6.19-17.58A64.49,64.49,0,0,1,290.63,192.58Zm-21.78,3.74,6.2,17.59a45.82,45.82,0,0,0-15.65,9.54l-12.75-13.6A64.37,64.37,0,0,1,268.85,196.32Zm-23.92,15.19c.42-.42.85-.84,1.29-1.25L259,223.85a46.31,46.31,0,0,0-10,13.81L232,229.84A64.81,64.81,0,0,1,244.93,211.51Zm-13.14,18.87,16.93,7.82a45.75,45.75,0,0,0-4.08,17.22l-18.6-.6A64.41,64.41,0,0,1,231.79,230.38ZM226,257.22q0-.9,0-1.8l18.6.6c0,.4,0,.8,0,1.2a45.72,45.72,0,0,0,2.74,15.62l-17.5,6.44A64.63,64.63,0,0,1,226,257.22Zm4.06,22.62,17.49-6.44a46.12,46.12,0,0,0,9.32,15.05l-13.6,12.75A64.25,64.25,0,0,1,230.05,279.84Zm14.88,23.08q-.65-.63-1.26-1.29l13.6-12.74a46.08,46.08,0,0,0,10.05,8l-8.9,16.4A64.77,64.77,0,0,1,244.93,302.92Zm109.91,71.87H226.42l32.19-59.33a65.61,65.61,0,0,0,6.49,3.13l-2.27,5.53a5.15,5.15,0,0,0-1.63-.25,5.38,5.38,0,1,0,2.19.46l2.27-5.51a66.44,66.44,0,0,0,22.51,4.79l-.18,5.65a5.4,5.4,0,1,0,.6,0l.18-5.65,1.86,0A66.47,66.47,0,0,0,312.44,320l1.94,5.5a5.39,5.39,0,1,0,2.29-.51,5.19,5.19,0,0,0-1.73.29L313,319.81a65.68,65.68,0,0,0,9.64-4.35Zm-32-61.5-8.9-16.4a46.26,46.26,0,0,0,7.93-5.9l12.74,13.6A65,65,0,0,1,322.84,313.29Zm13.5-10.37c-.43.43-.86.85-1.3,1.26l-12.74-13.6a46.39,46.39,0,0,0,10-13.8l16.93,7.81A64.69,64.69,0,0,1,336.34,302.92Zm13.13-18.87-16.93-7.81A45.81,45.81,0,0,0,336.62,259l18.6.61A64.36,64.36,0,0,1,349.47,284.05Z"/><path class="cls-13" d="M636.23,377.5h4.17V287.42H644V237.87h-2.38V229.5h5.35V218.56c0-4.5,3.57-8.36,7.73-8.36h0v-1.29c0-4.5,3.57-8.36,7.74-8.36h20.22c4.17,0,7.73,3.86,7.73,8.36v1.29h.6c4.16,0,7.73,3.86,7.73,8.36V229.5h4.76v8.37h-2.38v49.55h4.17V377.5h2.38"/><path class="cls-14" d="M663,378.14V365.25l-5.79,0a23.37,23.37,0,0,1-2.73-.37c-9.28-70.25-15.69-140.64-15.1-211.14,2.61-1.73,5.44-3.6,6.25-5.81,1.61-4.43,1.49-7.76.86-11.92-.29-1.89-3.12-5.07-5-5.85-5.33-2.16-7.26-5.95-7.3-10.84q-.17-19.17,0-38.32c0-2.51,1.41-5,1.32-7.52-.25-7.11-1.93-7.45-2-11.2-.61-19-.92-37.93-1.35-56.9,0-1.77-.27-3.54-.4-5.3L629.76,0A33.6,33.6,0,0,0,629,5c-.07,11.17.43,22.37-.17,33.52-.64,11.81,1.4,20.82-3.32,32.29a19.63,19.63,0,0,0,0,5.57c.52,1.75,1.62,3.47,1.64,5.21.14,12.41.11,24.83.05,37.25,0,5.19-2.28,9.08-7.69,11.19a7.72,7.72,0,0,0-3.32,2.73c-4.17,6.15-.71,17.86,6.28,21.13-.42,70.56-6.56,140.8-15.85,210.94h-10.6V378Z"/><path class="cls-12" d="M719.69,378.43V348.91c-6.26,6.69-6.44,6.8-8.7,2.17C702.62,334,689.49,323.22,673.7,317c-33.78-13.26-67.83-13.09-101.51.58a67.59,67.59,0,0,0-34.06,30c-4.44,7.82-4.35,7.89-10.88,1.11v29.91"/><g class="cls-3"><polygon class="cls-8" points="520.67 209.81 477.71 378.9 563.63 378.9 520.67 209.81"/><rect class="cls-8" x="500.42" y="246.15" width="40.57" height="92.43"/></g><polyline class="cls-14" points="816.8 377.75 816.8 333.45 805.73 333.45 801.3 321.27 801.3 305.76 822.34 327.91 826.77 323.48 831.2 319.05 801.3 293.58 801.3 281.4 780.25 268.11 781.36 267 782.47 267 828.99 223.81 824.55 219.38 819.02 214.95 778.04 263.68 779.15 264.78 778.04 265.89 773.61 263.68 769.18 267 766.97 264.78 768.07 263.68 724.88 217.16 720.45 221.59 716.02 227.13 764.75 268.11 764.75 267 766.97 268.11 749.25 283.61 749.25 291.36 718.24 321.27 722.66 325.7 727.1 330.13 749.25 303.55 749.25 319.05 728.2 333.45 725.99 333.45 725.99 377.75"/><g class="cls-3"><path class="cls-15" d="M7,152.91c26.58-29.8,94.21-37.67,129.09-26.54,37.69,12,91.71,8.5,121.22-25.77"/><path class="cls-15" d="M9.1,163c26.58-29.79,94.21-37.66,129.09-26.53,37.69,12,91.71,8.5,121.22-25.77"/><path class="cls-15" d="M11.17,173.06c26.58-29.79,94.21-37.66,129.1-26.53,37.68,12,91.71,8.5,121.21-25.77"/><path class="cls-15" d="M5,142.83c26.57-29.8,94.21-37.67,129.09-26.54,37.68,12,91.71,8.51,121.21-25.77"/><path class="cls-15" d="M2.89,132.75C29.46,103,97.09,95.08,132,106.22c37.68,12,91.71,8.5,121.21-25.78"/><path class="cls-15" d="M.81,122.67C27.39,92.87,95,85,129.91,96.14c37.68,12,91.71,8.5,121.21-25.78"/></g><g class="cls-3"><path class="cls-16" d="M715.41,195.35c19.25-25.45,70.05-30.56,96.66-19.86,28.74,11.55,69.39,9.89,90.74-19.42"/><path class="cls-16" d="M717.24,204.25c19.25-25.45,70-30.56,96.66-19.86,28.74,11.55,69.39,9.89,90.74-19.42"/><path class="cls-16" d="M719.06,213.15c19.26-25.45,70.06-30.56,96.67-19.86,28.74,11.55,69.39,9.89,90.74-19.41"/><path class="cls-16" d="M713.58,186.45c19.25-25.45,70-30.56,96.66-19.87,28.74,11.56,69.39,9.89,90.74-19.41"/><path class="cls-16" d="M711.75,177.55c19.25-25.45,70-30.56,96.66-19.87,28.74,11.56,69.39,9.89,90.74-19.41"/><path class="cls-16" d="M709.92,168.65c19.25-25.45,70.05-30.56,96.66-19.87,28.74,11.56,69.4,9.89,90.74-19.41"/></g></g></g></svg>