<svg id="Layer_1" data-name="Layer 1" xmlns="http://www.w3.org/2000/svg" viewBox="0 0 311.21 108.25"><defs><style>.cls-1{font-size:18.27px;font-family:Metropolis-Light, Metropolis;font-weight:300;}.cls-2{letter-spacing:-0.02em;}.cls-3{letter-spacing:-0.01em;}.cls-4{letter-spacing:-0.02em;}.cls-5{letter-spacing:-0.02em;}.cls-6{letter-spacing:-0.01em;}.cls-7{letter-spacing:-0.04em;}.cls-8{letter-spacing:-0.08em;}.cls-9{letter-spacing:-0.01em;}.cls-10{letter-spacing:-0.02em;}</style></defs><path d="M26.14,42.16a2.24,2.24,0,0,1-.85-1.79,2.11,2.11,0,0,1,2.05-2.18,1.93,1.93,0,0,1,1.28.42,10.28,10.28,0,0,0,7,2.75C38.26,41.36,40,40,40,38v-.08c0-1.9-1-2.93-5.6-4.08-5.28-1.37-8.26-3.05-8.26-8v-.07c0-4.58,3.55-7.75,8.47-7.75a13,13,0,0,1,7.87,2.48,2.16,2.16,0,0,1,1,1.87,2.11,2.11,0,0,1-2.06,2.18,2,2,0,0,1-1.13-.35,9.89,9.89,0,0,0-5.71-2c-2.55,0-4,1.41-4,3.17v.07c0,2.07,1.14,3,5.92,4.2,5.25,1.38,7.94,3.4,7.94,7.83v.07c0,5-3.65,8-8.86,8A14.74,14.74,0,0,1,26.14,42.16Zm21-15.07a2.21,2.21,0,0,1,2.13-2.33,2.24,2.24,0,0,1,2.16,2.33v1.25a7.4,7.4,0,0,1,6.38-3.77c4.39,0,8.68,3.74,8.68,10.45v.08c0,6.68-4.25,10.46-8.68,10.46A7.51,7.51,0,0,1,51.48,42v7.14a2.15,2.15,0,1,1-4.29,0Zm15,8V35c0-3.89-2.44-6.45-5.35-6.45s-5.46,2.6-5.46,6.45v.08c0,3.86,2.55,6.45,5.46,6.45S62.18,39.07,62.18,35.1Zm7-8a2.21,2.21,0,0,1,2.12-2.33,2.24,2.24,0,0,1,2.17,2.33v2.06c1-2.52,2.83-4.43,4.71-4.43A2.07,2.07,0,0,1,80.33,27a2.13,2.13,0,0,1-1.71,2.21c-3,.58-5.13,3.09-5.13,7.87V43a2.23,2.23,0,0,1-2.17,2.29A2.19,2.19,0,0,1,69.2,43ZM82,19.57a2.45,2.45,0,0,1,4.89,0v.23a2.45,2.45,0,0,1-4.89,0Zm.32,7.52a2.21,2.21,0,0,1,2.13-2.33,2.24,2.24,0,0,1,2.16,2.33V43a2.15,2.15,0,1,1-4.29,0Zm8.12,0a2.21,2.21,0,0,1,2.12-2.33,2.23,2.23,0,0,1,2.16,2.33v1a6.72,6.72,0,0,1,5.85-3.51c4.22,0,6.66,3.05,6.66,7.71V43a2.17,2.17,0,0,1-2.12,2.29A2.2,2.2,0,0,1,102.94,43V33.69c0-3.13-1.46-4.93-4-4.93s-4.22,1.88-4.22,5V43a2.14,2.14,0,1,1-4.28,0Zm21.3,22.44a1.94,1.94,0,0,1,.6-3.74,1.55,1.55,0,0,1,.78.19,10.81,10.81,0,0,0,5.74,1.6c3.83,0,5.92-2.14,5.92-6.18V39.83c-1.56,2.18-3.51,3.71-6.59,3.71-4.4,0-8.51-3.52-8.51-9.43V34c0-6,4.15-9.46,8.51-9.46A7.88,7.88,0,0,1,124.73,28v-.95a2.15,2.15,0,1,1,4.29,0V41c0,3.39-.82,5.91-2.37,7.59-1.71,1.83-4.33,2.71-7.7,2.71A15.2,15.2,0,0,1,111.73,49.53ZM124.8,34.07V34a5.4,5.4,0,0,0-5.49-5.53A5.24,5.24,0,0,0,114,34v.08a5.29,5.29,0,0,0,5.32,5.53A5.4,5.4,0,0,0,124.8,34.07ZM132,31.86v-.08C132,24.26,137.42,18,145,18S158,24.19,158,31.7v.08c0,7.52-5.38,13.82-13,13.82S132,39.37,132,31.86Zm21.37,0v-.08c0-5.19-3.51-9.5-8.43-9.5s-8.37,4.23-8.37,9.42v.08c0,5.19,3.51,9.46,8.44,9.46S153.4,37.05,153.4,31.86ZM161,27.09a2.21,2.21,0,0,1,2.12-2.33,2.24,2.24,0,0,1,2.17,2.33v1a6.69,6.69,0,0,1,5.84-3.51c4.22,0,6.67,3.05,6.67,7.71V43a2.15,2.15,0,1,1-4.29,0V33.69c0-3.13-1.46-4.93-4-4.93s-4.21,1.88-4.21,5V43A2.15,2.15,0,1,1,161,43ZM189.76,45.6c-5.42,0-9.6-4.24-9.6-10.46v-.08c0-5.76,3.79-10.49,9.14-10.49,6,0,8.9,5.26,8.9,9.92a2.08,2.08,0,0,1-2,2.21H184.45c.46,3.29,2.62,5.12,5.38,5.12a6.43,6.43,0,0,0,4.43-1.76,1.53,1.53,0,0,1,1.1-.42,1.75,1.75,0,0,1,1.7,1.87,2.06,2.06,0,0,1-.56,1.41A9.2,9.2,0,0,1,189.76,45.6Zm4.26-12c-.29-3-1.92-5.31-4.75-5.31-2.62,0-4.47,2.18-4.86,5.31Zm86.4,32.67H30.79C13.81,66.32,0,51.44,0,33.16S13.81,0,30.79,0H280.42c17,0,30.79,14.88,30.79,33.16S297.4,66.32,280.42,66.32ZM30.79,1.63C14.64,1.63,1.51,15.77,1.51,33.16S14.64,64.69,30.79,64.69H280.42c16.14,0,29.28-14.14,29.28-31.53S296.56,1.63,280.42,1.63Z"/><path d="M218.36,26.88h-5.51a1,1,0,0,1-1-1.05,1.06,1.06,0,0,1,1-1.08h13.2a1.06,1.06,0,0,1,1,1.08,1,1,0,0,1-1,1.05h-5.52V44.2a1.09,1.09,0,1,1-2.17,0Z"/><path d="M228.52,35.05V35c0-5.65,3.94-10.59,9.73-10.59s9.67,4.88,9.67,10.53V35c0,5.64-3.94,10.59-9.73,10.59S228.52,40.69,228.52,35.05Zm17.17,0V35c0-4.65-3.15-8.46-7.5-8.46s-7.44,3.75-7.44,8.4V35c0,4.65,3.15,8.45,7.5,8.45S245.69,39.7,245.69,35.05Z"/><path d="M251.88,36.66V25.77a1.08,1.08,0,1,1,2.15,0V36.51c0,4.42,2.2,6.9,5.81,6.9s5.73-2.28,5.73-6.75V25.77a1.08,1.08,0,1,1,2.15,0V36.48c0,6-3.18,9.07-7.93,9.07S251.88,42.45,251.88,36.66Z"/><path d="M272.53,25.92a1.13,1.13,0,0,1,1.06-1.17h7.11a7.18,7.18,0,0,1,5.41,2.05,5.84,5.84,0,0,1,1.47,4v.06c0,3.37-2.12,5.33-5.08,5.94l4.73,6.56a1.31,1.31,0,0,1,.35.84,1.16,1.16,0,0,1-1.09,1.14,1.22,1.22,0,0,1-1-.61l-5.36-7.49h-5.46V44.2a1.07,1.07,0,1,1-2.14,0Zm8,9.27c2.85,0,4.89-1.58,4.89-4.21v-.06c0-2.51-1.8-4-4.87-4h-5.87v8.31Z"/><text class="cls-1" transform="translate(147.18 85.94) scale(0.93 1)"><tspan class="cls-2">b</tspan><tspan x="11.07" y="0">y </tspan><tspan class="cls-3" x="25.7" y="0">V</tspan><tspan class="cls-4" x="38.59" y="0">M</tspan><tspan class="cls-5" x="54.38" y="0">w</tspan><tspan class="cls-6" x="68.44" y="0">a</tspan><tspan class="cls-7" x="78.33" y="0">r</tspan><tspan x="84.62" y="0">e </tspan><tspan class="cls-8" x="100.36" y="0">T</tspan><tspan class="cls-9" x="109.34" y="0">an</tspan><tspan class="cls-10" x="129.84" y="0">z</tspan><tspan x="138.12" y="0">u</tspan></text></svg>