<svg id="Layer_1" data-name="Layer 1" xmlns="http://www.w3.org/2000/svg" viewBox="0 0 357.14 128.46">
    <defs>
        <style>.cls-1{fill:#adbbc4;}</style>
    </defs>
    <path class="cls-1"
          d="M327.22,71.07c-2.12.87-3,.34-2.92-3.15,0-.75,3.42-18.26,9.92-21.44,1.84-.9,3.7-.86,5,.58,2.45,2.72,1.8,6.91,0,10.73-2.67,5.55-9.06,12.09-12,13.28M174.35,55.73a12.11,12.11,0,0,1-2.43,6.21c-1,1.3-1.36,1.81-2.28.87a28,28,0,0,1-4-10.26c-.22-2,.34-4.93,2.05-5.61a4,4,0,0,1,4.89,1.28c2,2.62,2,5,1.75,7.51m-42.12-1.57a16.32,16.32,0,0,1-2.61,7.77c-1,1.75-2.05.44-2.65-.42-.87-1.24-5.32-12-1.92-14.25a4.44,4.44,0,0,1,4.22-.22,5.25,5.25,0,0,1,2.57,3.12,8.9,8.9,0,0,1,.39,4M357.12,75a6,6,0,0,0-.35-1.47c-1.2-3.09-6.62-.21-8.46.57-3.34,1.39-7.14,3.23-10.83,2.17-1-.29-.72-1.16,0-1.6A28.39,28.39,0,0,0,350.1,57.3c4.45-19-9.23-24.23-14.63-24.87s-11.61.19-14.19,1.23c-7.31,2.93-9.22,9.45-9.73,13.36-.69,5.37-.77,14.74-1.44,19-.43,2.77-2.5,7-6.59,6.59-7.87-.78-11.48-3.79-11.24-8.75a92.29,92.29,0,0,1,1.23-11.89c.94-6.61,1.54-8.19,1.54-9.7,0-4.34-5.84-5.21-7.79-3.26-1.5,1.5-1.88,4.58-2.26,9.77a102.83,102.83,0,0,1-2.07,15.09c-1.5,6-2.11,6.47-3.48,8.2-2.86,3.58-8.13,2.46-10.7,0-1.52-1.43-1.72-2.71-1.43-6.93s1-11.58,2-19.26c.84-6.71.26-7.72-1.8-9.6s-9.28-1.49-12.69-1.49c-5.27,0-5,2.5-5.3,11-.16,3.73-.33,9.39-.7,13.77-.61,7.13-14.24,12.5-20.51,12.18-6.49-.34-7.12-12.44-7.53-15.26s-.58-27.11.13-27.93c.49-.58,4.4-1,8.86-1.89,9.87-1.93,11.28-3.19,11.3-6.28,0-1.51-.09-3.63-1.77-4.2a49.53,49.53,0,0,0-6.93-1.11c-9.77-1.14-11.15-.79-11.2-2-.09-2.16.11-6.33-.06-8-.43-4-5.16-5.39-10.5-5-1.05.07-2.51.41-2.63,1.82s-.1,2.5-.27,4.88c-.38,5.3-.49,5.88-2.55,5.87-1.83,0-17.09-1.36-20-.42s-2.81,2.93-3.05,3.93.3,7,.59,9.56.86,6.09,1.21,6.62,1.45,2,4.52,1.64a180.19,180.19,0,0,0,18.75-3.22c1.41-.35,1.57-.53,1.58.59,0,.63.27,13.31.32,17.08.07,6.44,1.16,25.1-16.23,28-7.24,1.2-14-.91-17.1-4.3-1.75-1.92-.9-2.18-.12-3.43,1.17-1.9,10.94-13.37,2.75-25.25-4.83-7-16.41-7.57-20.62-5.75-3.26,1.41-5.89,5.78-6.4,11.11A37.46,37.46,0,0,0,159.53,76c.44.75-1.21,3.17-7,4-7.72,1.12-19.58-8.17-19.27-9.38.14-.58,5.39-9.17,5.52-17.46A22.93,22.93,0,0,0,136,42.91c-1.93-3.76-8-9.55-14.62-8.28-15.52,3-13.75,18.29-12.67,22.47,2.22,8.64,7.45,16.26,8.31,17.79,1.16,2.07-32.84,15.54-34.16,2.93s17.28-39.45,15.82-49.91C97.35,18.5,91,16.52,85.48,16.43c-5.36-.1-6.77.75-8.59,1.81-1,.6-2.55,1.81-4.63-.18-1.39-1.32-2.31-2.24-3.77-3.41A7.89,7.89,0,0,0,64.56,13a12.81,12.81,0,0,0-6.22.71,16.8,16.8,0,0,0-4.28,3.11c-1.35,1.17-4.77,5-8,3.59-1.38-.61-6.07-3-9.45-4.42-6.53-2.82-15.94,1.75-19.33,7.78-5,9-15,44.19-16.51,48.83C-2.57,83,5.09,91.54,15.44,91.05c4.37-.21,7.28-1.81,10-6.83,1.59-2.9,16.58-42.06,17.7-43.94.81-1.36,3.51-3.16,5.79-2s2.75,3.62,2.41,5.92C50.83,48,40.26,71.84,39.85,74.54c-.69,4.6,1.5,7.15,6.27,7.4,3.27.18,6.52-1,9.11-5.88,1.45-2.73,18.12-36.12,19.6-38.35,1.62-2.45,2.92-3.25,4.57-3.17,1.28.07,3.33.4,2.82,4.24S68.31,67.05,66.9,73.05C64.77,82.15,70.61,94.39,86.24,95c7.77.28,25.75-3.11,35.88-10.79,3.68-2.78,2.7-3,5-1,3.3,2.92,9.42,7,15.44,7,13.69,0,23.68-8.54,24.14-8.85a.35.35,0,0,1,.46.06c.83.9,9.32,5.62,15.26,5.82a32,32,0,0,0,25.71-11.09A69.81,69.81,0,0,0,213,69.76a.5.5,0,0,1,.79-.05c.85.92,7.23,12.65,19.91,11,7.07-.91,17.59-6.87,18.33-7.68a.32.32,0,0,1,.54.11A21.93,21.93,0,0,0,261,84.54c5.31,3.75,15.54,4.5,20.08,2a29.13,29.13,0,0,0,7.91-6,5.94,5.94,0,0,1,6-1.62c3.48.74,12.66,2.36,13.25,2.64s.76,1.51.56,2.76c-.31,2-1.05,8.88-1.82,15.34s-3.2,28,2.58,28.77c3.48.48,6.51-2.82,7.31-6,2-8.08,2.38-17.18,3.7-25,1.57-9.29,2.2-11.89,2.76-12.93.47-.86.48-.66,7-.1,4.5.38,8.16,1,13.59.25,4.49-.63,13.72-4,13.23-9.56"/>
</svg>