<svg id="Layer_1" data-name="Layer 1" xmlns="http://www.w3.org/2000/svg" viewBox="0 0 510.75 558.16"><defs><style>.cls-1{fill:#02bc67;}.cls-2{fill:#80ea6e;}.cls-3{fill:#97ebf3;}.cls-4{fill:#81d5dd;}.cls-5{fill:#ff877a;}.cls-6{fill:#d0584b;}.cls-7{fill:#ffa298;}.cls-8{fill:#f9bc26;}.cls-9{fill:#aa7a00;}</style></defs><path class="cls-1" d="M193.12,557.42H131.58c0,.14,0,.28,0,.42h61.58v-.42m-14-509.28h-2.86v65.74H155.2l-.45,1,2.28,3.37c-.52,1.9-1.08,3.94-1.78,6.47H144.13c-.18,2-.39,3.32-.43,4.7q-1.27,48.92-2.52,97.82c-.3,11.29-.68,22.58-1,33.87-.64,21.06-1.33,42.12-1.91,63.18-.64,23.09-1.12,46.18-1.78,69.27l0,1,3.49-3.74c1.25-13.84,2.48-27.45,3.76-41.49.74,3,1.42,5.76,2.09,8.49l.92-.15V321.35l3.46,1.92c4.24-38.79,8.44-77.29,12.64-115.79h1.49c4.22,38.65,8.43,77.29,12.74,116.89l2.07-2.48c2.29,6.08,1,12.1,1.2,18s0,11.64,1.1,17.62q.74-3,1.48-6.06l1,0v24.79l2.89.73v14.51l3.23,2.07c.75,5.59,1.56,10.73,2.07,15.9a64.3,64.3,0,0,1,.07,8.78c-.24,6.17.17,12.17,3.71,16.89-.16.59-.3,1.19-.43,1.78h13.32V357h9.19q-.8-30.75-1.63-61.52c-.87-30.95-1.87-61.9-2.76-92.86-.68-24.1-1.26-48.21-1.91-72.31,0-1.74-.29-3.48-.48-5.75H200q-1-3.9-1.61-6.18l2-3.67-.61-.89H179.11V48.14"/><path class="cls-2" d="M392.17,63.28c-.81,15.17-1.62,30.34-2.43,45.69l-3.6,2.48c-.29,5.52-.64,11.42-.9,17.32-.11,2.32.08,4.65,0,7-.52,10.54-1.1,21.08-1.67,31.78l-4.45,1.3-1.8,7.32L370,177.52V190l-4.39-2.57v10c-.83.73-1.54,1.36-2.28,2l0,0L362,201.87v15l-4.17,1.9-.67.94V263l-7.26.72v82.86H353V357h10.43v79.9H379v121h51.16V284.35H435V263.56l-7.14-.67v-44L423,216.7V200.23l-2.82-2.52c-.19-3.52-.36-6.79-.56-10.52l-4.28,2.91c-.28-4.68-.51-8.71-.74-12.55L407.86,176c-.65-2.78-1.2-5.11-1.68-7.12l-3.88-1.29c-.76-6.11-1.9-11.68-2.06-17.28-.31-11.11-.09-22.24-.09-33.36l-.3.1c-.52-2.13-1-4.25-1.56-6.44l-2.7-1.6c-.83-15.29-1.65-30.48-2.48-45.67l-.94,0"/><path class="cls-3" d="M451.82,216.26v68.09H435V462.44l8.87.51v28.43l3.25,2.72v15.71h12.72v48H430.18V558h80.57c-1.45-96.35-2.9-192.38-4.33-287.28l-54.6-54.49"/><path class="cls-4" d="M435,284.35h-4.83V557.84h29.67v-48H447.13V494.1l-3.25-2.72V463l-8.87-.51V284.35"/><path class="cls-5" d="M239.38,0s-3.79,7.7-.78,15.07a9.66,9.66,0,0,1-3.9-7.15s-7.17,12.69,2.35,20.13v2.09C231,31.66,226,36.89,226,45.41c0,10.24,5.7,10.24,5.7,10.24s2,13.92,3.77,18.65.48,17.49.77,22.51-.77,10.54,1.16,18.07a98.78,98.78,0,0,1,2.42,11.79S228,138.26,228.85,145.32a10,10,0,0,0,7.05,8.6s-4.34,8.89-2.51,13.24a12.38,12.38,0,0,0,6.28,6.08s-.68,6.86-2,10-.67,7.44,1.55,9.66a18.13,18.13,0,0,0,3.67,3s-6.67,11.59-7.25,18.84,7.83,17.68,7.83,17.68-6.28,10.72-4.35,15.75,4.93,10.24,4.83,19.61a213.07,213.07,0,0,1-1.45,24.45,23.11,23.11,0,0,0,.1,8.5S237.93,317,238,324.07c.08,6.05.09,18.93.09,22.46H222.38V357h-4.45q.42,16.44.87,32.87,1.08,40,2.26,79.93,1.16,40.73,2.31,81.44c.06,2.17.28,4.33.44,6.62H193.12v.32H379v-.32H325.14V510.23h12.93V494.62l3.51-3.33V463l8.28-.5v-116H338.21c-.23-4.65-.63-15.65.11-22.08,1-8.31-1.35-27.05-1.35-27.05s3.28-6.38,3.86-10.44-5.12-26.52-4.68-30.14,2.35-19,2.35-19,8.95-4.2,13.59-11c1.65-2.42,3.44-4.86,5-7.09v-.63l.67-.31c2.55-3.6,4.38-6.51,3.87-7.63a34.77,34.77,0,0,0-2.61-4.34l2.91-4.95v-1.22l1.41-1.25-2.15-2h-22.9l-9.85,9.85-5.22.58s-6.09-21.3-10.15-27.54-14.64-12.17-14.64-12.17-1.73-5.44-1-8.62.44-7.9-.8-9.86A5.93,5.93,0,0,1,296,146a19.94,19.94,0,0,0,2.86-5.54l18.87,1.85-18-6a18.56,18.56,0,0,0-.13-5.43l17.44-6.53L298.62,127a19.8,19.8,0,0,0-3.48-5.93l12.45-15.22-15.84,12.08a18.41,18.41,0,0,0-6.13-2.9l-.34-21.35-4.43,20.72a18.45,18.45,0,0,0-7.49,1.64l-13-16L270,118a19.42,19.42,0,0,0-5,5.49l-8.36-1.37,7.19,3.57a20.28,20.28,0,0,0-1.54,5,33.21,33.21,0,0,1-4.49-6.22c-1.52-3.12-5.36-8.27-5-10.8s-1.28-4.71-1.76-13S246.24,85,247.79,78.84s3.09-10,2.22-13.62a43.63,43.63,0,0,1-.77-8.89s6.57-3.38,6.18-12.66c-.34-8.11-5.41-12.76-11.79-13.79V28a14.21,14.21,0,0,0,4.94-11c0-9.48-8.41-11.38-9.19-17"/><path class="cls-6" d="M217.93,357h-9.19v79.9H195.42a40.66,40.66,0,0,0,.37,20.41c2.35,8.3,4.35,16.56,3.67,25.27-.06.83-.26,1.94.17,2.46,4,4.94,2.16,10.58,2.14,16-.05,12.36-.18,24.72,0,37.07.12,6.31.9,12.62,1.42,19.31H193.12v.42h30.69c-.16-2.29-.38-4.45-.44-6.62q-1.19-40.72-2.31-81.44-1.12-40-2.26-79.93-.45-16.43-.87-32.87"/><path class="cls-7" d="M353,346.53h-3.1v116l-8.28.5v28.29l-3.51,3.33v15.61H325.14v47.61H379v-121H363.39V357H353V346.53m4.83-127.74-.67.31v.63l.67-.94m5.58-19.39L362,200.65v1.22l1.43-2.44,0,0"/><path class="cls-8" d="M40.09,207.54l-1.18.05q-6.34,58.13-12.7,116.26l-1.06.07c-.32-1.14-.64-2.28-.95-3.43l-1.35.14v36.88l-1.39,0q-.54-3.26-1.06-6.51c-2.46,8.48-1.14,17.24-1.91,25.9H16.11v13.79l-3.75,4.41c-.43,7.49-1.14,14.76-1.18,22,0,6.57-.06,13-3.54,17.61,1.27,7.89,1.68,14.73,0,21.47C5.32,465.18,2.66,474,3.65,483.38c.07.62.19,1.46-.13,1.85-4.15,4.94-2,10.67-2.06,16.1-.05,12.15.13,24.3-.1,36.44-.12,6.53-.87,13-1.36,19.65H131.58c.15-1.52.34-3,.37-4.39.59-22.84,1.09-45.68,1.75-68.52.85-30,1.87-60,2.73-90l-.11.12c-.54,8.23-1,16.76-1.73,25.26-.48,5.29-1.5,10.54-2.28,15.81-.6,6.69-.26,13.56-.7,20.38-.42,6.62-4.68,10.84-10.9,14.1-5.88-10.24-12.27-20.08-17.23-30.59-2.19-4.65-2.37-10.73.71-15.4-.89-1.67-1.76-3.3-2.62-4.93l-2.73,4.64a17.92,17.92,0,0,1,.7,15.73c-5,10.51-11.3,20.4-17.77,31.76-3.46-4.09-7.27-6.92-8.75-10.67-3.18-8.09-2.43-16.73-1.3-24.8-1.11-3.64-2.78-6.95-3-10.37-.81-10.36-1.08-20.76-1.53-30.46l-3.88-4.41V377.39c-.63-.26-1.62-.45-1.63-.71-.63-9.12-1.16-18.26-1.8-28.85-1,4.24-1.7,7-2.38,9.82L56,357.41V320.28l-1.81,3.27-1.14-.2q-6-55-12.07-110l1.26-.19-2.19-5.64"/><path class="cls-9" d="M162.79,207.48c-4.2,38.5-8.4,77-12.64,115.79l-3.46-1.92v36.29l-.92.15c-.67-2.73-1.35-5.47-2.09-8.49-1.28,14-2.51,27.65-3.76,41.49l-3.49,3.74c-.86,30-1.88,60-2.73,90C133,507.35,132.54,530.19,132,553c0,1.43-.22,2.87-.37,4.39h61.54V436.88h2.3c.13-.59.27-1.19.43-1.78-3.54-4.72-3.95-10.72-3.71-16.89a64.3,64.3,0,0,0-.07-8.78c-.51-5.17-1.32-10.31-2.07-15.9l-3.23-2.07V377l-2.89-.73V351.43l-1,0q-.75,3-1.48,6.06c-1.06-6-.88-11.81-1.1-17.62s1.09-11.87-1.2-18L177,324.38c-4.31-39.6-8.52-78.24-12.74-116.89h-1.49"/><path class="cls-9" d="M195.42,436.88h-2.3V557.42h10.11c-.52-6.69-1.3-13-1.42-19.31-.22-12.35-.09-24.71,0-37.07,0-5.44,1.87-11.08-2.14-16-.43-.52-.23-1.63-.17-2.46.68-8.71-1.32-17-3.67-25.27a40.66,40.66,0,0,1-.37-20.41"/></svg>