<?xml version="1.0" encoding="utf-8"?>
<!-- Generator: Adobe Illustrator 26.0.2, SVG Export Plug-In . SVG Version: 6.00 Build 0)  -->
<svg version="1.1" id="Layer_1" xmlns="http://www.w3.org/2000/svg" xmlns:xlink="http://www.w3.org/1999/xlink" x="0px" y="0px"
     viewBox="0 0 801.69 450" style="enable-background:new 0 0 801.69 450;" xml:space="preserve">
<style type="text/css">
	.st0{fill:#F9BC26;}
	.st1{fill:none;}
	.st2{fill:#02BC67;}
	.st3{fill:#80EA6E;}
	.st4{fill:#97EBF3;}
	.st5{fill:#3F939B;}
	.st6{fill:#81D5DD;}
	.st7{fill:#FF877A;}
	.st8{fill:#D0584B;}
	.st9{fill:#F8BB25;}
	.st10{fill:#E5A812;}
	.st11{fill:#AA7A00;}
	.st12{fill:#3EA82C;}
	.st13{fill:#82D6DE;}
</style>
    <path class="st0" d="M81.36,448.21l0.01-0.11c0.11-1.43,0.23-2.83,0.35-4.21c0.27-3.05,0.53-5.93,0.58-9
	c0.1-5.27,0.09-10.63,0.07-15.81c-0.01-3.09-0.02-6.19,0-9.28c0-0.94-0.09-1.92-0.18-2.87c-0.27-2.81-0.55-5.72,1.61-8.29
	c0.17-0.21,0.12-0.68,0.08-1.06l-0.01-0.14c-0.62-5.86,0.85-11.49,2.26-16.93l0.46-1.77c1.05-4.1,1.06-8.37,0.03-14.74
	c2.4-3.23,2.42-7.56,2.44-12.14c0.01-3.52,0.25-6.96,0.51-10.61c0.11-1.52,0.21-3.04,0.3-4.58l1-1.2c0.5-0.59,1.03-1.21,1.61-1.89
	l-0.02-9.53h1.65c0.19-2.1,0.19-4.24,0.2-6.32c0.01-3.77,0.03-7.68,1.12-11.44l0.19,0.01l0.72,4.39c0.26,0,0.52-0.01,0.77-0.02
	V285.3l1.1-0.11l0.02,0.08c0.2,0.75,0.42,1.52,0.63,2.28l0.57-0.04l8.75-80.05l0.97-0.04l0.03,0.07c0.5,1.29,1,2.58,1.5,3.9
	l0.04,0.12l-0.89,0.13l8.29,75.56l0.65,0.11l0.18-0.33c0.23-0.41,0.51-0.93,1.03-1.86l0.19-0.34v25.86c0.27,0.04,0.53,0.08,0.8,0.13
	c0.33-1.38,0.67-2.76,1.1-4.52l0.52-2.14l0.2,0.02l0.01,0.22c0.42,7.2,0.79,13.42,1.22,19.64c0.03,0.06,0.36,0.17,0.58,0.24
	c0.17,0.05,0.34,0.11,0.48,0.17l0.06,0.03v9.23c0.7,0.76,1.44,1.6,2.65,2.97c0.11,1.94,0.19,3.86,0.27,5.8
	c0.2,4.97,0.41,10.11,0.81,15.23c0.13,1.59,0.69,3.14,1.29,4.78c0.28,0.76,0.56,1.54,0.8,2.33c-0.73,5.32-1.32,11.43,0.9,17.07
	c0.68,1.71,2.05,3.12,3.64,4.76c0.75,0.77,1.52,1.56,2.27,2.45c1.29-2.26,2.57-4.44,3.82-6.57c3.04-5.18,5.92-10.07,8.34-15.17
	c1.52-3.17,1.34-7.19-0.48-10.74c0.42-0.81,1.01-1.81,1.62-2.84l0.35-0.6l1.91,3.6l-0.03,0.05c-1.93,2.93-2.12,7.05-0.48,10.5
	c2.43,5.15,5.42,10.17,8.31,15.03c1.17,1.97,2.35,3.95,3.5,5.95c2.16-1.15,3.79-2.37,4.96-3.71l0.18-0.2v11.83l-1.19,1.17
	c-0.48,0.46-1,0.94-1.62,1.54l0.03,12.39h-10.24v36.94H81.36z M172.18,372.13c0.03-2.47,0.07-5.03,0.29-7.52
	c0.17-1.16,0.36-2.32,0.55-3.48c0.39-2.42,0.8-4.92,1.02-7.4c0.37-4.04,0.62-8.14,0.86-12.09c0.11-1.78,0.22-3.55,0.33-5.3
	l0.92-1.01l0.17-0.19v38.3l-4.16,0.25L172.18,372.13z"/>
    <path class="st0" d="M176.22,335.4c-0.27,0.29-0.57,0.61-0.89,0.95c-0.38,5.67-0.66,11.54-1.19,17.39
	c-0.33,3.65-1.04,7.26-1.57,10.88c-0.26,2.96-0.26,5.96-0.31,8.97c1.26-0.08,2.54-0.15,3.96-0.24
	C176.22,360.7,176.22,348.05,176.22,335.4 M109.08,207.53c-0.27,0.01-0.54,0.02-0.81,0.03c-2.92,26.68-5.83,53.37-8.75,80.05
	c-0.24,0.02-0.49,0.03-0.73,0.05c-0.22-0.79-0.44-1.58-0.65-2.36c-0.31,0.03-0.62,0.06-0.93,0.09c0,8.47,0,16.93,0,25.4
	c-0.32,0.01-0.64,0.02-0.96,0.02c-0.24-1.49-0.49-2.99-0.73-4.48c-1.69,5.84-0.78,11.87-1.32,17.83c-0.62,0-1.06,0-1.64,0
	c0,3.35,0,6.52,0,9.5c-0.96,1.12-1.77,2.08-2.58,3.03c-0.3,5.15-0.79,10.17-0.81,15.18c-0.02,4.52-0.04,8.94-2.44,12.12
	c0.88,5.44,1.16,10.14-0.03,14.78c-1.57,6.14-3.4,12.21-2.72,18.67c0.04,0.42,0.13,1-0.09,1.27c-2.86,3.4-1.4,7.35-1.41,11.09
	c-0.04,8.36,0.09,16.73-0.07,25.09c-0.08,4.49-0.6,8.66-0.94,13.22h75.16c0-12.44,0-24.35,0-36.94c3.53,0,6.65,0,10.24,0
	c0-4.43,0-8.51,0-12.36c1.13-1.08,1.9-1.8,2.78-2.64c0-3.83,0-7.66,0-11.56c-1.29,1.48-3.03,2.7-5.07,3.78
	c-4.05-7.05-8.45-13.83-11.86-21.07c-1.51-3.19-1.63-7.38,0.49-10.6c-0.61-1.15-1.21-2.28-1.8-3.39c-0.7,1.19-1.4,2.38-1.88,3.19
	c1.88,3.68,1.97,7.71,0.48,10.83c-3.44,7.23-7.78,14.04-12.24,21.87c-2.38-2.82-5-4.77-6.02-7.35c-2.19-5.57-1.67-11.52-0.9-17.08
	c-0.77-2.51-1.91-4.79-2.1-7.14c-0.56-7.13-0.74-14.3-1.05-20.97c-1.21-1.37-1.95-2.21-2.67-3.04c0-3.11,0-6.14,0-9.16
	c-0.43-0.18-1.11-0.31-1.12-0.49c-0.43-6.28-0.8-12.57-1.23-19.86c-0.71,2.92-1.18,4.84-1.64,6.76c-0.33-0.06-0.65-0.11-0.98-0.16
	c0-8.28,0-16.56,0-25.56c-0.69,1.24-0.96,1.74-1.24,2.25c-0.26-0.04-0.52-0.09-0.79-0.13c-2.77-25.24-5.54-50.48-8.31-75.73
	c0.29-0.04,0.58-0.09,0.86-0.13C110.08,210.11,109.58,208.82,109.08,207.53"/>
    <g>
	<path class="st1" d="M-0.1,448.21V-0.1h801.87v448.3h-7.82v-93.98h-42.17v-68.34h5.6v-5.97h-39.64v-41.17h-4.96v-56.78H698v-29.81
		h-7.73v-16.58h-31.79v-22.16h-8.08V81.8h-4.27v31.62h-8.08v22.16h-31.79v16.58h-7.73v29.81h-14.78v68.09l-4.1,16.14l-0.2-0.02
		v-0.96h-10.19v-13.81h-7.53v-0.1c0-12.16-9.61-22.05-21.43-22.05s-21.43,9.89-21.43,22.05v0.1h-7.53v13.81h-10.19v28.46h-3.52
		V280.9h-22.21v12.78h-2.77v-3.48h-8.27v-8.29h-11.7l0-0.09c-0.14-2.76-0.53-12.17,0.09-17.52c0.76-6.5-1.05-21.28-1.07-21.42
		c0.04-0.11,2.61-5.13,3.06-8.3c0.24-1.67-0.88-7.3-1.96-12.75c-0.99-5.02-1.93-9.77-1.76-11.16c0.34-2.88,1.86-15.06,1.86-15.06
		c0.13-0.11,7.17-3.46,10.8-8.77c0.96-1.4,1.97-2.8,2.94-4.16c2.64-3.65,5.13-7.11,4.64-8.16c-0.68-1.47-2.05-3.42-2.06-3.43
		l-0.04-0.05l3.44-5.85l-1.66-1.55l-18.09,0.03l-7.75,7.78l-4.28,0.5l-0.02-0.08c-0.05-0.17-4.85-16.94-8.03-21.81
		c-3.17-4.86-11.49-9.57-11.58-9.62c-0.1-0.23-1.42-4.42-0.85-6.95c0.6-2.59,0.3-6.28-0.62-7.73c-0.58-0.92-0.61-2.11-0.52-2.94
		c1-1.38,1.76-2.85,2.27-4.41l0.02-0.08l0.08,0.01c1.82,0.17,11.16,1.09,14.09,1.38l-13.47-4.51l0.01-0.08
		c0.07-0.61,0.11-1.21,0.11-1.78c0-0.8-0.07-1.62-0.21-2.5l-0.01-0.08l13.05-4.89l-13.82,1.94l-0.03-0.08
		c-0.64-1.72-1.57-3.29-2.74-4.67l-0.05-0.06l9.38-11.48l-11.94,9.11l-0.06-0.04c-1.45-1.05-3.08-1.82-4.83-2.28L411,98.28
		l-0.26-16.14L407.4,97.8l-0.08,0c-2.04,0.01-4.03,0.44-5.91,1.29l-0.07,0.03l-9.7-11.91l7.18,13.41l-0.07,0.05
		c-1.59,1.17-2.92,2.62-3.97,4.32l-0.04,0.06l-6.03-0.98l5.19,2.58l-0.04,0.09c-0.58,1.29-0.99,2.63-1.21,3.99l-0.03,0.21
		l-0.14-0.16c-0.97-1.1-2.72-3.21-3.57-4.96c-0.36-0.73-0.87-1.6-1.42-2.53c-1.29-2.18-2.76-4.64-2.55-6.09
		c0.13-0.89-0.06-1.71-0.35-2.97c-0.36-1.56-0.84-3.7-1.05-7.33c-0.16-2.77-0.85-5.38-1.51-7.9c-0.89-3.39-1.73-6.59-1.01-9.45
		c0.27-1.07,0.53-2.05,0.78-2.96c0.88-3.22,1.51-5.54,0.98-7.79c-0.69-2.89-0.61-7.03-0.61-7.08l0-0.06l0.05-0.03
		c0.05-0.03,5.15-2.74,4.85-9.95c-0.25-5.88-3.71-9.94-9.27-10.84l-0.08-0.01v-1.6c1.82-1.66,3.94-4.45,3.92-8.74
		c-0.02-4.36-2.28-6.68-4.28-8.74c-1.33-1.37-2.59-2.67-2.95-4.37c-0.55,1.28-2.54,6.56-0.49,11.57l0.12,0.3l-0.27-0.18
		c-0.03-0.02-2.78-1.88-3.11-5.38c-0.87,1.74-4.66,10.32,2.01,15.52l0.04,1.82l-0.08,0.02c-4.22,1.05-8.72,4.76-8.72,12.01
		c0,7.92,4.38,8.02,4.42,8.02l0.09,0l0.01,0.09c0.02,0.11,1.62,11.06,2.98,14.76c0.94,2.55,0.78,8.07,0.66,12.5
		c-0.06,2.19-0.12,4.09-0.04,5.38c0.07,1.22,0.04,2.48,0.01,3.81c-0.07,2.98-0.15,6.36,0.91,10.5c1.51,5.92,1.91,9.33,1.91,9.36
		c-0.12,0.17-9.34,9.31-8.66,14.79c0.67,5.45,5.47,6.72,5.52,6.73l0.12,0.03l-0.05,0.11c-0.03,0.07-3.41,7.05-1.99,10.42
		c1.43,3.37,4.89,4.76,4.92,4.78l0.07,0.03l-0.01,0.08c-0.01,0.05-0.55,5.48-1.62,8c-1.06,2.5-0.53,5.82,1.21,7.55
		c1.73,1.74,2.87,2.36,2.89,2.36l0.09,0.05l-0.05,0.09c-0.05,0.09-5.27,9.24-5.73,14.9c-0.45,5.64,6.12,13.87,6.19,13.95l0.04,0.05
		l-0.03,0.06c-0.05,0.08-4.94,8.51-3.44,12.4c0.26,0.67,0.54,1.35,0.83,2.05c1.44,3.44,3.07,7.35,3,13.54
		c-0.08,7.47-0.54,15.27-1.15,19.39c-0.6,4.06,0.07,6.67,0.08,6.7c-0.04,0.18-3.68,12.98-3.6,18.49c0.06,4.35,0.08,13.55,0.08,17.81
		v0.1h-7.25l-0.21-8.08c-0.3-11.54-0.6-23.07-0.92-34.61c-0.37-13.04-0.76-26.08-1.16-39.11c-0.36-11.76-0.71-23.52-1.05-35.28
		c-0.35-12.07-0.66-24.14-0.97-36.21c-0.19-7.24-0.37-14.48-0.57-21.72c-0.02-0.94-0.11-1.89-0.22-2.98
		c-0.05-0.48-0.1-0.99-0.15-1.54h-8.89c0,0-0.99-3.8-1.31-5.02l1.62-2.96c0,0-0.33-0.48-0.46-0.66l-16.64,0.04v-52.6h-2.09v52.66
		h-16.91c-0.11,0.24-0.22,0.49-0.33,0.74c0.55,0.75,1.12,1.59,1.75,2.52l0.06,0.09c-0.39,1.57-0.82,3.16-1.37,5.12l-0.06,0.22h-8.89
		c-0.05,0.52-0.1,0.99-0.15,1.43c-0.09,0.82-0.17,1.53-0.19,2.24l-0.61,23.63c-0.43,16.96-0.87,33.92-1.31,50.88l-0.01,0.23
		l-46.03-45.94v62.44h-19.89v18.04l-1.44-0.14v-34.86l-0.65-0.3c-1.13-0.51-2.06-0.94-3.12-1.43l-0.06-0.03v-13.1l-1.4-1.22
		l-0.79-0.71l-0.23-3.89l-0.23-4.33l-3.39,2.3l-0.6-10.04l-5.35-1.26l-1.34-5.7c-1.42-0.43-2.42-0.76-3.01-0.95l-0.06-0.02
		l-0.01-0.06c-0.19-1.54-0.41-3.05-0.63-4.52c-0.47-3.16-0.91-6.15-1-9.18c-0.17-6.22-0.13-12.56-0.1-18.68
		c0.01-2.54,0.03-5.07,0.03-7.61l-0.21,0.06c0,0-0.85-3.46-1.27-5.2l-0.92-0.51l-1.17-0.7c-0.42-7.06-0.8-14.02-1.18-20.97
		L210.4,57.3c-0.19,0-0.37-0.01-0.56-0.02c-0.63,11.98-1.27,23.96-1.92,36.09c-0.75,0.57-1.47,1.07-2.64,1.88l-0.25,0.17
		c-0.03,1.33-0.11,2.77-0.19,4.24c-0.17,3.07-0.34,6.23-0.49,9.4c-0.04,0.91-0.03,1.85-0.02,2.75c0.02,0.91,0.03,1.84-0.01,2.76
		c-0.29,5.78-0.6,11.56-0.91,17.39l-0.42,7.85l-3.59,1.04c-0.31,1.46-0.7,3.05-1.15,4.89l-0.22,0.9l-5.71,1.1v9.94l-3.48-2.04v7.74
		c-1.07,1-1.88,1.72-2.95,2.67l0.03,12.85l-3.83,1.75v34.76l-5.75,0.57v157.48l-4.05,0.25c-0.84,0.06-1.67,0.11-2.52,0.15v22.31
		l-1.2,1.18c-0.48,0.45-0.99,0.94-1.61,1.53l0.03,12.39h-10.24v36.94H-0.1z"/>
        <path class="st1" d="M0,0v448.11h156.64c0-12.33,0-24.46,0-36.94c3.53,0,6.65,0,10.24,0c0-4.43,0-8.51,0-12.36
		c1.13-1.08,1.9-1.8,2.78-2.64c0-3.83,0-7.66,0-11.56c0-3.55,0-7.15,0-10.84c0.88-0.05,1.74-0.1,2.61-0.16
		c1.26-0.08,2.54-0.15,3.96-0.24c0-12.66,0-25.31,0-37.96c0-39.8,0-79.58,0-119.52c2.03-0.2,3.68-0.37,5.75-0.57
		c0-11.57,0-23.13,0-34.73c1.41-0.64,2.47-1.13,3.83-1.75c0-4.28,0-8.65,0-12.86c1.07-0.95,1.88-1.67,2.92-2.6c0-2.38,0-4.93,0-7.91
		c1.25,0.73,2.1,1.23,3.48,2.04c0-3.61,0-6.71,0-9.85c2.22-0.43,4.08-0.78,5.73-1.1c0.54-2.2,0.99-4.04,1.43-5.8
		c1.42-0.41,2.43-0.71,3.52-1.02c0.45-8.48,0.91-16.82,1.33-25.17c0.09-1.83-0.06-3.68,0.03-5.51c0.21-4.68,0.49-9.35,0.72-13.72
		c1.32-0.91,2.09-1.44,2.85-1.97c0.65-12.16,1.29-24.18,1.92-36.19c0.25,0.01,0.5,0.02,0.75,0.02c0.65,12.03,1.31,24.07,1.96,36.17
		c0.79,0.47,1.5,0.89,2.14,1.27c0.42,1.74,0.83,3.42,1.24,5.1l0.24-0.07c0,8.81-0.17,17.62,0.07,26.42
		c0.13,4.44,1.03,8.85,1.63,13.69c0.59,0.19,1.59,0.52,3.08,1.02c0.38,1.6,0.81,3.44,1.33,5.64c1.53,0.36,3.27,0.77,5.36,1.26
		c0.18,3.04,0.37,6.23,0.59,9.94c1.33-0.9,2.09-1.42,3.39-2.3c0.16,2.96,0.29,5.54,0.44,8.33c0.6,0.54,1.31,1.17,2.23,2
		c0,4.24,0,8.63,0,13.04c1.28,0.59,2.36,1.08,3.83,1.75c0,11.5,0,23.08,0,34.83c0.43,0.04,0.84,0.08,1.24,0.12
		c0-6.01,0-12.02,0-18.03c6.88,0,13.14,0,19.89,0c0-21.15,0-41.83,0-62.58c15.34,15.31,30.44,30.38,46.04,45.95
		c0.65-24.84,1.28-49.67,1.92-74.51c0.03-1.11,0.2-2.21,0.34-3.76c2.99,0,5.87,0,8.91,0c0.56-2.03,1.01-3.66,1.42-5.19
		c-0.65-0.96-1.24-1.83-1.82-2.7c0.12-0.27,0.24-0.54,0.36-0.8c5.52,0,11.05,0,16.87,0c0-17.88,0-35.23,0-52.66
		c0.87,0,1.42,0,2.29,0c0,17.48,0,34.83,0,52.6c5.74,0,11.18,0,16.62,0c0.16,0.24,0.33,0.48,0.49,0.71
		c-0.48,0.86-0.96,1.72-1.64,2.94c0.32,1.22,0.75,2.87,1.29,4.95c2.91,0,5.8,0,8.9,0c0.16,1.83,0.35,3.22,0.38,4.61
		c0.52,19.31,0.98,38.62,1.54,57.93c0.71,24.8,1.51,49.59,2.21,74.39c0.4,14.2,0.76,28.39,1.13,42.59h7.05
		c0-2.8-0.01-13.01-0.08-17.81c-0.08-5.59,3.6-18.47,3.6-18.47s-0.69-2.61-0.08-6.74c0.61-4.14,1.07-11.95,1.15-19.38
		c0.08-7.43-2.3-11.57-3.83-15.55s3.45-12.49,3.45-12.49s-6.67-8.27-6.21-14.02c0.46-5.75,5.74-14.94,5.74-14.94
		s-1.15-0.61-2.91-2.38c-1.76-1.76-2.3-5.13-1.23-7.66c1.07-2.53,1.61-7.97,1.61-7.97s-3.52-1.38-4.98-4.83
		c-1.46-3.45,1.99-10.5,1.99-10.5s-4.9-1.23-5.59-6.82c-0.69-5.59,8.66-14.79,8.66-14.79s-0.38-3.37-1.91-9.35
		c-1.53-5.98-0.69-10.34-0.92-14.33c-0.23-3.98,0.77-14.1-0.61-17.85c-1.38-3.75-2.99-14.78-2.99-14.78s-4.52,0-4.52-8.12
		c0-6.76,3.98-10.91,8.8-12.11V29.3c-7.56-5.9-1.87-15.96-1.87-15.96c0.17,3.72,3.09,5.66,3.09,5.66
		c-2.39-5.84,0.62-11.95,0.62-11.95c0.62,4.42,7.26,5.93,7.29,13.45c0.02,4.34-2.12,7.14-3.92,8.74v1.51
		c5.06,0.82,9.08,4.5,9.35,10.93c0.31,7.36-4.9,10.04-4.9,10.04s-0.08,4.14,0.61,7.05c0.69,2.91-0.54,5.9-1.76,10.8
		c-1.23,4.91,2.14,10.73,2.53,17.32c0.38,6.59,1.69,8.31,1.4,10.32s2.76,6.09,3.96,8.56c0.86,1.76,2.62,3.87,3.56,4.94
		c0.23-1.41,0.65-2.75,1.22-4.01l-5.7-2.83l6.62,1.08c1.05-1.7,2.41-3.18,4-4.35l-7.63-14.25L401.37,99
		c1.82-0.82,3.83-1.29,5.95-1.3l3.51-16.44l0.27,16.94c1.77,0.47,3.41,1.25,4.86,2.3l12.56-9.58l-9.87,12.07
		c1.17,1.37,2.11,2.96,2.76,4.7l14.64-2.06l-13.83,5.18c0.13,0.82,0.21,1.66,0.21,2.52c0,0.6-0.04,1.2-0.11,1.79l14.24,4.77
		c0,0-12.8-1.27-14.97-1.47c-0.53,1.6-1.3,3.07-2.27,4.39c-0.08,0.82-0.05,1.99,0.51,2.88c0.98,1.55,1.21,5.29,0.63,7.81
		c-0.57,2.53,0.8,6.84,0.8,6.84s8.39,4.71,11.61,9.65c3.22,4.94,8.04,21.84,8.04,21.84l4.14-0.46l7.82-7.81h18.16l1.72,1.61
		l-3.45,5.86c0,0,1.38,1.95,2.07,3.45c0.69,1.49-3.91,7.01-7.59,12.41c-3.68,5.4-10.78,8.73-10.78,8.73s-1.52,12.18-1.86,15.06
		c-0.35,2.87,4.18,20.69,3.72,23.91s-3.06,8.27-3.06,8.27s1.84,14.86,1.07,21.45c-0.59,5.09-0.27,13.82-0.09,17.5h11.7v8.29h8.27
		v3.48h2.57V280.8h22.41v12.78h3.32v-28.46h10.19v-13.81h7.53c0-12.24,9.64-22.15,21.53-22.15s21.53,9.92,21.53,22.15h7.53v13.81
		h10.19v1.06l4.1-16.12v-68.19h14.78v-29.81h7.73v-16.58h31.79v-22.16h8.08V81.7h4.47v31.61h8.08v22.16h31.79v16.58h7.73v29.81
		h14.78v56.78h4.96v41.17h39.64v6.17h-5.6v68.14h42.17v93.98h7.62V0H0z"/>
        <path class="st2" d="M313.19,448.21l0-0.1c-1.34-88.3-2.67-176.3-3.98-263.27c-1.35-1.3-2.71-2.66-4.07-4.02l-0.03-0.03l-0.04-0.08
		c0.33-12.42,0.64-24.84,0.96-37.25s0.64-24.83,0.96-37.25c0.02-0.71,0.1-1.41,0.18-2.23c0.05-0.47,0.11-0.97,0.16-1.54l0.01-0.09
		h8.92c0.54-2,0.99-3.61,1.4-5.12l-0.91-1.28l-0.9-1.33c0.11-0.36,0.23-0.63,0.35-0.9l0.03-0.06h16.83V40.99h2.49v52.6h16.52
		c0.16,0.16,0.24,0.28,0.33,0.4c0.08,0.12,0.28,0.41,0.28,0.41l-0.03,0.05c-0.48,0.87-0.96,1.73-1.64,2.94
		c0.33,1.13,0.75,2.76,1.28,4.8h8.92l0.01,0.09c0.05,0.65,0.11,1.25,0.17,1.81c0.1,1.02,0.19,1.91,0.21,2.8
		c0.23,8.44,0.45,16.88,0.67,25.31c0.28,10.87,0.56,21.74,0.87,32.62c0.35,12.4,0.73,24.8,1.1,37.19s0.75,24.8,1.1,37.19
		c0.32,11.3,0.61,22.6,0.9,33.9l0.23,8.79h-5.44v8.29h-10.81v63.35h-12.37v94.66H313.19z"/>
        <path class="st2" d="M350.13,353.45V290.1h10.81v-8.29h5.44c-0.37-14.2-0.73-28.4-1.13-42.59c-0.7-24.8-1.51-49.59-2.21-74.39
		c-0.55-19.31-1.01-38.62-1.54-57.93c-0.04-1.39-0.23-2.78-0.38-4.61c-3.1,0-5.99,0-8.9,0c-0.54-2.08-0.97-3.73-1.29-4.95
		c0.68-1.21,1.16-2.07,1.64-2.94c-0.16-0.24-0.33-0.47-0.49-0.71c-5.44,0-10.88,0-16.62,0c0-17.78,0-35.12,0-52.6
		c-0.87,0-1.42,0-2.29,0c0,17.44,0,34.79,0,52.66c-5.82,0-11.34,0-16.87,0c-0.12,0.27-0.24,0.54-0.36,0.8
		c0.59,0.87,1.17,1.74,1.82,2.7c-0.42,1.52-0.87,3.16-1.42,5.19c-3.04,0-5.92,0-8.91,0c-0.14,1.56-0.31,2.66-0.34,3.76
		c-0.65,24.84-1.27,49.67-1.92,74.51c1.37,1.37,2.75,2.75,4.14,4.13c1.31,86.97,2.64,174.97,3.98,263.27h24.47v-94.66L350.13,353.45
		L350.13,353.45z"/>
        <path class="st3" d="M169.55,373.67l0.09-0.01c0.89-0.06,1.74-0.11,2.61-0.16l0.11-0.01l0,0.11c-0.02,1.5-0.05,3.28-0.18,5.08
		c-0.14,2.3-0.95,4.26-2.45,5.99l-0.18,0.2V373.67z"/>
        <path class="st3" d="M172.26,373.6c-0.87,0.05-1.72,0.1-2.61,0.16c0,3.7,0,7.3,0,10.84c1.41-1.62,2.28-3.55,2.43-5.93
		C172.2,376.98,172.24,375.29,172.26,373.6z"/>
        <path class="st3" d="M221.27,448.17l-0.01-0.09c-0.1-1.29-0.22-2.55-0.33-3.8c-0.29-3.16-0.56-6.15-0.62-9.19
		c-0.12-6.79-0.09-13.71-0.05-20.39l0.02-5.13c0-0.9,0.08-1.81,0.16-2.69c0.24-2.81,0.48-5.71-1.6-8.27
		c-0.27-0.33-0.21-0.93-0.16-1.47l0.03-0.3c0.47-6.13-0.99-11.94-2.53-17.37c-1.39-4.9-1.38-9.92,0.04-15.33
		c-2.52-3.3-2.71-7.72-2.55-11.6c0.08-1.98,0.16-4.03-0.04-6.04c-0.25-2.43-0.58-4.82-0.94-7.35c-0.16-1.17-0.33-2.36-0.49-3.59
		l-0.89-0.53l-1.28-0.83l-0.05-10l-1.99-0.51v-17.04l-0.52-0.01l-1,4.09l-0.2-0.01c-0.55-3.08-0.61-6.14-0.68-9.11
		c-0.02-1.01-0.04-2.03-0.08-3.04c-0.05-1.21,0-2.46,0.05-3.66c0.11-2.78,0.22-5.65-0.81-8.51c-0.47,0.56-0.75,0.89-1.31,1.57
		l-0.15,0.18l-8.79-80.63h-0.85l-8.71,79.79l-2.36-1.32v24.9l-0.18,0.03c-0.19,0.03-0.36,0.07-0.54,0.09l-0.09,0.01l-1.32-5.35
		c-0.86,9.46-1.69,18.64-2.54,27.98l-0.25,0.29c-0.42,0.44-0.86,0.91-1.37,1.46l-0.17,0.19V215.77c0,0,4.16-0.41,5.75-0.57v-34.7
		l3.83-1.75v-12.8c0.6-0.58,1.1-1.03,1.6-1.47l1.35-1.2l-0.03-8.01l3.48,2.04v-9.76l5.75-1.1l1.41-5.74l0.94-0.32
		c0.97-0.28,1.75-0.51,2.58-0.75l0.42-7.77c0.31-5.8,0.63-11.56,0.91-17.33c0.05-0.95,0.04-1.92,0.02-2.86
		c-0.01-0.87-0.03-1.77,0.01-2.65c0.14-3.19,0.32-6.38,0.49-9.47c0.08-1.44,0.16-2.86,0.23-4.25l1.21-0.88
		c0.67-0.47,1.18-0.82,1.68-1.16c0.6-12.08,1.24-24.1,1.88-36.11l0-0.09h0.09c0.24,0,0.48,0.01,0.72,0.02l0.09,0l0.04,0.09
		l0.14,2.67c0.6,11.14,1.2,22.29,1.82,33.5l1.38,0.77l0.71,0.42c0.45,1.75,0.85,3.38,1.25,5.01l0.01,0.05l0.27-0.08v0.13
		c0,2.6-0.02,5.2-0.03,7.79c-0.04,6.11-0.07,12.42,0.1,18.62c0.09,3.01,0.53,6,1,9.16c0.21,1.45,0.43,2.94,0.62,4.46
		c0.6,0.2,1.58,0.53,3.02,1l0.74,2.93l0.64,2.72c1.51,0.36,5.37,1.26,5.37,1.26l0.58,9.84l3.39-2.3l0.45,8.51l0.75,0.63l1.45,1.3
		l0.03,13.05c0.73,0.33,3.83,1.75,3.83,1.75v34.8c0.43,0.04,0.79,0.07,1.13,0.07h0.1v232.93H221.27z"/>
        <path class="st3" d="M238,215.26c0-11.75,0-23.33,0-34.83c-1.47-0.67-2.55-1.17-3.83-1.75c0-4.42,0-8.8,0-13.04
		c-0.92-0.83-1.63-1.46-2.23-2c-0.15-2.79-0.28-5.38-0.44-8.33c-1.3,0.88-2.06,1.4-3.39,2.3c-0.22-3.71-0.41-6.9-0.59-9.94
		c-2.09-0.49-3.84-0.9-5.36-1.26c-0.52-2.2-0.95-4.04-1.33-5.64c-1.49-0.49-2.49-0.82-3.08-1.02c-0.6-4.84-1.5-9.26-1.63-13.69
		c-0.25-8.8-0.07-17.61-0.07-26.42l-0.24,0.07c-0.41-1.68-0.82-3.36-1.24-5.1c-0.64-0.38-1.35-0.8-2.14-1.27
		c-0.66-12.11-1.31-24.14-1.96-36.17c-0.25-0.01-0.5-0.02-0.75-0.02c-0.64,12.01-1.28,24.03-1.92,36.19
		c-0.76,0.52-1.52,1.05-2.85,1.97c-0.23,4.37-0.51,9.04-0.72,13.72c-0.08,1.83,0.07,3.68-0.03,5.51c-0.41,8.35-0.88,16.7-1.33,25.17
		c-1.09,0.32-2.1,0.61-3.52,1.02c-0.44,1.77-0.89,3.61-1.43,5.8c-1.66,0.32-3.51,0.67-5.73,1.1c0,3.14,0,6.24,0,9.85
		c-1.38-0.81-2.23-1.31-3.48-2.04c0,2.98,0,5.53,0,7.91c-1.04,0.93-1.86,1.65-2.92,2.6c0,4.21,0,8.58,0,12.86
		c-1.36,0.62-2.42,1.11-3.83,1.75c0,11.6,0,23.16,0,34.73c-2.07,0.21-3.72,0.37-5.75,0.57c0,39.95,0,79.72,0,119.52
		c0.6-0.65,1.11-1.19,1.59-1.7c0.86-9.53,1.71-18.9,2.59-28.57c0.51,2.08,0.98,3.96,1.44,5.84c0.21-0.03,0.42-0.07,0.64-0.11
		c0-8.17,0-16.34,0-24.99c0.92,0.51,1.41,0.79,2.38,1.33c2.91-26.71,5.81-53.22,8.7-79.73c0.34,0,0.69,0,1.03,0
		c2.9,26.61,5.8,53.22,8.77,80.48c0.6-0.73,0.88-1.06,1.42-1.7c1.58,4.19,0.67,8.33,0.83,12.36c0.16,4,0.03,8.02,0.76,12.13
		c0.34-1.39,0.68-2.78,1.02-4.17c0.23,0,0.46,0.01,0.7,0.01c0,5.74,0,11.48,0,17.06c1.02,0.26,1.47,0.38,1.99,0.51
		c0,3.15,0,6.18,0,9.99c0.53,0.34,1.49,0.96,2.22,1.43c0.51,3.85,1.07,7.38,1.43,10.94c0.2,2,0.12,4.04,0.04,6.05
		c-0.17,4.25,0.12,8.38,2.55,11.62c-1.41,5.39-1.42,10.41-0.04,15.28c1.62,5.72,2.99,11.41,2.53,17.4c-0.04,0.57-0.18,1.34,0.11,1.7
		c2.77,3.4,1.49,7.28,1.47,11.03c-0.03,8.51-0.12,17.02,0.03,25.52c0.08,4.25,0.59,8.49,0.95,12.98h17.87c0-77.51,0-154.94,0-232.73
		C238.84,215.34,238.43,215.3,238,215.26z"/>
        <path class="st4" d="M263.23,448.21v-37.28h-10.07v-12.54c-0.48-0.34-0.94-0.73-1.45-1.16l-1.09-0.91l-0.04-22.5l-7.02-0.41V215.88
		c-0.89-0.08-4.42-0.41-4.42-0.41v-18.22h19.89v-62.72l46.21,46.12l-0.02,2.05l-0.05,1.87c-0.15,5.77-0.33,11.54-0.52,17.31
		c-0.1,3.28-0.21,6.55-0.3,9.82c-0.17,5.6-0.34,11.2-0.52,16.8c-0.35,11.27-0.7,22.54-1.01,33.81c-0.25,8.92-0.47,17.84-0.69,26.77
		c-0.23,9.58-0.47,19.16-0.74,28.73c-0.35,12.15-0.73,24.29-1.1,36.43c-0.38,12.14-0.76,24.29-1.1,36.43
		c-0.33,11.33-0.61,22.85-0.89,33.99c-0.17,6.96-0.34,13.93-0.52,20.89c-0.02,0.82-0.1,1.64-0.19,2.51l-0.01,0.09l-0.1,0.06H263.23z
		"/>
        <path class="st4" d="M299.08,390.67c0.69-24.29,1.52-48.57,2.21-72.86c0.53-18.5,0.91-37,1.43-55.5
		c0.47-16.87,1.02-33.74,1.53-50.61c0.27-9.04,0.58-18.09,0.82-27.13c0.03-1.28,0.07-2.57,0.1-3.85
		c-15.59-15.56-30.69-30.63-46.04-45.95c0,20.75,0,41.43,0,62.58c-6.75,0-13.01,0-19.89,0c0,6.01,0,12.02,0,18.03
		c1.43,0.13,2.75,0.26,4.42,0.41c0,52.41,0,104.84,0,157.52c2.6,0.15,4.63,0.27,7.02,0.41c0,7.6,0,15.14,0,22.52
		c1.01,0.84,1.73,1.45,2.58,2.15c0,4.03,0,8.05,0,12.44c3.33,0,6.45,0,10.07,0c0,12.57,0,24.81,0,37.28h34.14
		c0.09-0.87,0.18-1.72,0.2-2.56C298.15,427.26,298.55,408.96,299.08,390.67z"/>
        <path class="st5" d="M297.37,448.22l0.01-0.11c0.1-0.94,0.18-1.75,0.2-2.55c0.19-7.31,0.37-14.62,0.55-21.93
		c0.27-10.99,0.54-21.98,0.85-32.96c0.36-12.64,0.75-25.28,1.15-37.93c0.36-11.64,0.73-23.29,1.06-34.93
		c0.28-9.94,0.53-19.89,0.77-29.83c0.21-8.56,0.42-17.11,0.66-25.67c0.31-11.23,0.66-22.45,1.01-33.68
		c0.18-5.64,0.35-11.29,0.52-16.93l0.21-6.81c0.21-6.77,0.43-13.55,0.61-20.32l0.11-4.08l1.47,1.46c0.94,0.94,1.88,1.88,2.83,2.83
		c1.35,87.04,2.68,175.04,4.01,263.34l0,0.1H297.37z"/>
        <path class="st5" d="M305.17,180.72c-0.03,1.28-0.07,2.57-0.1,3.85c-0.24,9.04-0.54,18.09-0.82,27.13
		c-0.51,16.87-1.07,33.74-1.53,50.61c-0.51,18.5-0.9,37-1.43,55.5c-0.7,24.29-1.52,48.57-2.21,72.86
		c-0.52,18.29-0.92,36.59-1.4,54.89c-0.02,0.84-0.11,1.69-0.2,2.56h15.8c-1.33-88.3-2.66-176.3-3.98-263.27
		C307.92,183.46,306.54,182.09,305.17,180.72z"/>
        <path class="st6" d="M239.14,448.21V215.27l0.11,0.01c1.44,0.13,2.75,0.25,4.42,0.41l0.09,0.01v157.52l7.02,0.41v22.62l0.81,0.62
		c0.61,0.51,1.15,0.95,1.74,1.45l0.04,12.42h10.07v37.48H239.14z"/>
        <path class="st6" d="M253.26,410.83c0-4.39,0-8.41,0-12.44c-0.84-0.71-1.57-1.31-2.58-2.15c0-7.38,0-14.92,0-22.52
		c-2.39-0.14-4.42-0.26-7.02-0.41c0-52.68,0-105.1,0-157.52c-1.67-0.16-2.98-0.28-4.42-0.41c0,77.8,0,155.23,0,232.73h24.09
		c0-12.48,0-24.71,0-37.28C259.71,410.83,256.59,410.83,253.26,410.83z"/>
        <path class="st7" d="M371.12,448.24l-0.02-0.25c-0.11-1.33-0.21-2.58-0.25-3.86c-0.38-13.23-0.76-26.46-1.13-39.69
		c0,0-1.18-41.62-1.41-49.65c-0.38-13.32-0.76-26.63-1.12-39.95c-0.3-11.01-0.59-22.02-0.87-33.03l0-0.1h7.05l-0.01-2.7
		c-0.01-4.21-0.02-11.27-0.07-15.01c-0.08-5.55,3.57-18.37,3.6-18.5l0,0c-0.01,0-0.69-2.63-0.08-6.73
		c0.61-4.11,1.07-11.89,1.15-19.37c0.07-6.15-1.56-10.03-2.99-13.46c-0.29-0.7-0.58-1.38-0.84-2.06
		c-1.48-3.85,2.95-11.69,3.42-12.52c-0.57-0.73-6.63-8.56-6.19-14.04c0.42-5.41,5.16-13.94,5.7-14.9c-0.3-0.18-1.35-0.85-2.84-2.35
		c-1.79-1.79-2.34-5.2-1.25-7.77c0.99-2.33,1.53-7.21,1.6-7.87c-0.51-0.22-3.62-1.68-4.97-4.85c-1.38-3.26,1.5-9.55,1.94-10.48
		c-0.75-0.24-4.92-1.76-5.55-6.87c-0.69-5.58,8.3-14.49,8.69-14.87l0,0c-0.04,0-0.44-3.39-1.94-9.25
		c-1.07-4.16-0.99-7.56-0.91-10.56c0.03-1.32,0.06-2.58-0.01-3.79c-0.07-1.29-0.02-3.19,0.04-5.39c0.13-4.42,0.28-9.91-0.65-12.43
		c-1.31-3.55-2.83-13.71-2.98-14.72c-0.64-0.06-4.53-0.71-4.53-8.21c0-7.31,4.53-11.09,8.8-12.19v-1.58
		c-7.5-5.81-1.91-15.91-1.86-16.01l0.17-0.3l0.02,0.35c0.13,2.93,2.04,4.77,2.77,5.37c-2.14-5.71,0.72-11.64,0.75-11.7l0.14-0.29
		l0.05,0.32c0.25,1.8,1.51,3.09,2.96,4.59c2.02,2.08,4.32,4.44,4.33,8.88c0.02,4.38-2.14,7.21-3.95,8.81l0.03,1.35
		c5.61,0.93,9.1,5.04,9.35,11.01c0.29,6.94-4.35,9.79-4.9,10.1c-0.01,0.51-0.03,4.29,0.61,6.97c0.55,2.31-0.1,4.68-0.99,7.96
		c-0.24,0.89-0.5,1.85-0.77,2.89c-0.7,2.81,0.13,5.97,1.02,9.33c0.67,2.54,1.36,5.16,1.52,7.96c0.21,3.61,0.7,5.74,1.05,7.29
		c0.29,1.28,0.48,2.13,0.35,3.05c-0.2,1.38,1.25,3.83,2.54,5.99c0.13,0.22,0.26,0.44,0.39,0.65l0.03-0.1l6.55,1.07
		c1.06-1.69,2.38-3.12,3.92-4.27l-7.59-14.17l0.17-0.11l10.26,12.62c1.85-0.83,3.81-1.26,5.84-1.28l3.49-16.36l0.2,0.02l0.27,16.86
		c1.73,0.47,3.33,1.23,4.76,2.25l12.5-9.54l0.14,0.14l-9.82,12.01c1.15,1.36,2.06,2.9,2.7,4.59l14.56-2.05l0.05,0.19l-13.75,5.15
		c0.13,0.87,0.2,1.67,0.2,2.46c0,0.6-0.05,1.18-0.1,1.72l14.17,4.74l-0.04,0.19c0,0-12.51-1.24-14.89-1.46
		c-0.52,1.55-1.28,3.01-2.26,4.34c-0.06,0.75-0.04,1.88,0.51,2.77c0.95,1.51,1.25,5.2,0.64,7.88c-0.57,2.47,0.78,6.74,0.8,6.79
		c0,0,0,0,0,0c0.05,0,8.4,4.73,11.6,9.63c3.07,4.73,7.66,20.51,8.03,21.79l4.06-0.45l7.76-7.78l18.23-0.03l1.85,1.69l-3.46,5.87
		c0.22,0.32,1.42,2.07,2.04,3.41c0.54,1.16-1.76,4.33-4.66,8.36c-0.98,1.35-1.99,2.75-2.94,4.15c-3.64,5.35-10.71,8.71-10.82,8.76
		c0.04,0.03-1.46,12.12-1.8,14.98c-0.16,1.36,0.77,6.07,1.76,11.06c1.08,5.48,2.2,11.15,1.96,12.85c-0.46,3.19-3.04,8.25-3.07,8.3
		c0.03,0.09,1.84,14.89,1.08,21.42c-0.59,5.11-0.27,13.79-0.09,17.39h11.7V290h8.27v3.68h-2.04v154.56H371.12z M388.16,103.98
		c0.36,0.62,0.69,1.2,0.94,1.71c0.59,1.24,1.77,2.88,3.41,4.76c0.24-1.31,0.63-2.57,1.15-3.74L388.16,103.98z"/>
        <path class="st7" d="M472.77,293.58v-3.48h-8.27v-8.29h-11.7c-0.18-3.69-0.5-12.41,0.09-17.5c0.77-6.59-1.07-21.45-1.07-21.45
		s2.6-5.06,3.06-8.27c0.46-3.22-4.06-21.03-3.72-23.91c0.35-2.87,1.86-15.06,1.86-15.06s7.1-3.33,10.78-8.73s8.28-10.92,7.59-12.41
		s-2.07-3.45-2.07-3.45l3.45-5.86l-1.72-1.61h-18.16l-7.82,7.81l-4.14,0.46c0,0-4.83-16.89-8.04-21.84
		c-3.22-4.94-11.61-9.65-11.61-9.65s-1.38-4.31-0.8-6.84c0.57-2.53,0.34-6.26-0.63-7.81c-0.56-0.9-0.59-2.06-0.51-2.88
		c0.97-1.32,1.74-2.79,2.27-4.39c2.17,0.2,14.97,1.47,14.97,1.47l-14.24-4.77c0.06-0.59,0.11-1.18,0.11-1.79
		c0-0.86-0.08-1.7-0.21-2.52l13.83-5.18l-14.64,2.06c-0.65-1.74-1.59-3.33-2.76-4.7l9.87-12.07l-12.56,9.58
		c-1.45-1.05-3.1-1.83-4.86-2.3l-0.27-16.94l-3.51,16.44c-2.11,0.01-4.12,0.47-5.95,1.3l-10.31-12.68l7.63,14.25
		c-1.59,1.17-2.94,2.65-4,4.35l-6.62-1.08l5.7,2.83c-0.57,1.25-0.98,2.6-1.22,4.01c-0.94-1.07-2.71-3.17-3.56-4.94
		c-1.21-2.47-4.25-6.55-3.96-8.56c0.29-2.01-1.01-3.73-1.4-10.32c-0.38-6.59-3.75-12.41-2.53-17.32c1.23-4.9,2.45-7.89,1.76-10.8
		s-0.61-7.05-0.61-7.05s5.21-2.68,4.9-10.04c-0.27-6.44-4.29-10.12-9.35-10.93v-1.51c1.81-1.6,3.94-4.4,3.92-8.74
		c-0.03-7.52-6.67-9.03-7.29-13.45c0,0-3.01,6.11-0.62,11.95c0,0-2.92-1.95-3.09-5.66c0,0-5.69,10.06,1.87,15.96v1.66
		c-4.82,1.21-8.8,5.35-8.8,12.11c0,8.12,4.52,8.12,4.52,8.12s1.61,11.03,2.99,14.78c1.38,3.76,0.38,13.87,0.61,17.85
		c0.23,3.98-0.61,8.35,0.92,14.33s1.91,9.35,1.91,9.35s-9.35,9.19-8.66,14.79c0.69,5.59,5.59,6.82,5.59,6.82s-3.45,7.05-1.99,10.5
		c1.46,3.45,4.98,4.83,4.98,4.83s-0.54,5.44-1.61,7.97c-1.07,2.53-0.53,5.9,1.23,7.66c1.76,1.76,2.91,2.38,2.91,2.38
		s-5.29,9.19-5.74,14.94c-0.46,5.75,6.21,14.02,6.21,14.02s-4.98,8.51-3.45,12.49s3.91,8.12,3.83,15.55
		c-0.08,7.43-0.54,15.25-1.15,19.38c-0.61,4.14,0.08,6.74,0.08,6.74s-3.68,12.87-3.6,18.47c0.07,4.8,0.07,15.01,0.08,17.81h-7.05
		c0.28,11.01,0.57,22.02,0.87,33.03c0.58,21.34,1.21,42.68,1.81,64.03c0.62,21.75,1.22,43.5,1.85,65.25
		c0.04,1.32,0.15,2.65,0.26,4.01h99.52V293.58H472.77z"/>
        <path class="st8" d="M337.64,448.2v-94.86h12.39v-63.35h10.81v-8.29h5.64l0.29,11.12c0.19,7.34,0.38,14.67,0.58,22.01
		c0.36,13.38,0.75,26.76,1.13,40.14c0.23,7.96,0.46,15.93,0.68,23.89c0.31,10.72,0.61,21.45,0.91,32.17
		c0.31,11.02,0.62,22.04,0.93,33.06c0.04,1.28,0.14,2.55,0.25,3.9l0.02,0.22H337.64z"/>
        <path class="st8" d="M369.06,378.86c-0.6-21.34-1.23-42.68-1.81-64.03c-0.3-11.01-0.58-22.02-0.87-33.03h-5.44v8.29h-10.81v63.35
		h-12.39v94.66h33.42c-0.11-1.36-0.22-2.69-0.26-4.01C370.28,422.36,369.68,400.61,369.06,378.86z"/>
        <path class="st9" d="M156.55,448.22v-37.14h10.24v-12.26c1.16-1.14,1.93-1.87,2.81-2.71l-0.03-11.49c1.5-1.76,2.29-3.68,2.43-5.94
		c0.12-1.83,0.15-3.67,0.17-5.07l0-0.09l3.96-0.24v-37.87l0.86-0.96l0.76-0.81c0.84-9.48,1.69-18.85,2.56-28.51l0.2-0.01l1.42,5.75
		l0.47-0.08v-25.08l2.4,1.34c2.91-26.66,5.8-53.12,8.68-79.58l0.01-0.09h1.21l8.75,80.34c0.39-0.46,0.64-0.76,0.96-1.15l0.42-0.51
		l0.06,0.16c1.11,2.95,1,5.9,0.88,8.75c-0.05,1.2-0.1,2.44-0.05,3.64c0.04,1.01,0.06,2.02,0.08,3.04c0.06,2.8,0.12,5.7,0.59,8.6
		l0.92-3.78l0.88,0.01v17.08l1.99,0.51v10.07l0.69,0.39c0.47,0.31,1.02,0.66,1.48,0.95c0.19,1.14,0.34,2.19,0.48,3.22
		c0.38,2.69,0.74,5.22,0.99,7.79c0.18,1.93,0.13,3.81,0.04,6.06c-0.15,3.84,0.03,8.21,2.53,11.56c-1.39,5.46-1.4,10.44-0.02,15.31
		c1.55,5.46,3.01,11.3,2.53,17.43l-0.02,0.25c-0.05,0.49-0.11,1.11,0.11,1.38c2.12,2.62,1.88,5.56,1.64,8.4
		c-0.07,0.89-0.15,1.8-0.15,2.69l-0.02,4.11c-0.04,7.02-0.08,14.28,0.06,21.42c0.06,3.03,0.33,6.02,0.62,9.18
		c0.11,1.25,0.23,2.51,0.33,3.79l0.01,0.11H156.55z"/>
        <path class="st9" d="M220.4,409.61c0.01-3.74,1.29-7.63-1.47-11.03c-0.29-0.36-0.16-1.13-0.11-1.7c0.47-6-0.91-11.68-2.53-17.4
		c-1.38-4.87-1.37-9.89,0.04-15.28c-2.43-3.25-2.72-7.38-2.55-11.62c0.08-2.02,0.15-4.05-0.04-6.05c-0.35-3.56-0.91-7.1-1.43-10.94
		c-0.74-0.47-1.69-1.09-2.22-1.43c0-3.81,0-6.83,0-9.99c-0.52-0.13-0.98-0.25-1.99-0.51c0-5.59,0-11.33,0-17.06
		c-0.23,0-0.46-0.01-0.7-0.01c-0.34,1.39-0.68,2.78-1.02,4.17c-0.73-4.11-0.6-8.13-0.76-12.13c-0.16-4.03,0.75-8.17-0.83-12.36
		c-0.54,0.65-0.81,0.98-1.42,1.7c-2.97-27.26-5.87-53.87-8.77-80.48c-0.34,0-0.69,0-1.03,0c-2.89,26.51-5.78,53.02-8.7,79.73
		c-0.97-0.54-1.46-0.82-2.38-1.33c0,8.64,0,16.81,0,24.99c-0.21,0.04-0.42,0.07-0.64,0.11c-0.46-1.88-0.93-3.76-1.44-5.84
		c-0.87,9.66-1.72,19.03-2.59,28.57c-0.48,0.51-0.99,1.06-1.59,1.7c0,12.65,0,25.3,0,37.96c-1.42,0.09-2.7,0.16-3.96,0.24
		c-0.02,1.69-0.06,3.38-0.17,5.07c-0.15,2.38-1.02,4.31-2.43,5.93c0,3.9,0,7.74,0,11.56c-0.88,0.84-1.65,1.57-2.78,2.64
		c0,3.85,0,7.94,0,12.36c-3.59,0-6.71,0-10.24,0c0,12.48,0,24.61,0,36.94h64.74c-0.36-4.49-0.87-8.73-0.95-12.98
		C220.27,426.63,220.36,418.12,220.4,409.61z"/>
        <polygon class="st2" points="639.37,448.21 611.67,339.16 611.67,284.79 605.75,284.79 605.75,280.9 596.87,280.9 586.41,239.73
		583.78,250.09 583.58,250.07 583.58,181.77 598.36,181.77 598.36,151.96 606.09,151.96 606.09,135.38 637.88,135.38 637.88,113.22
		645.95,113.22 645.95,81.6 650.62,81.6 650.62,113.22 658.7,113.22 658.7,135.38 690.48,135.38 690.48,151.96 698.21,151.96
		698.21,181.77 712.99,181.77 712.99,238.75 710.2,238.75 710.2,230.29 693.52,230.29 693.52,238.75 679.79,238.75 679.79,448.21
		"/>
        <polygon class="st2" points="693.42,238.65 693.42,230.19 710.3,230.19 710.3,238.65 712.89,238.65 712.89,181.87 698.11,181.87
		698.11,152.06 690.38,152.06 690.38,135.48 658.6,135.48 658.6,113.32 650.52,113.32 650.52,81.7 646.05,81.7 646.05,113.32
		637.98,113.32 637.98,135.48 606.19,135.48 606.19,152.06 598.46,152.06 598.46,181.87 583.68,181.87 583.68,250.07 586.41,239.32
		596.95,280.8 605.85,280.8 605.85,284.69 611.77,284.69 611.77,339.14 639.45,448.11 679.69,448.11 679.69,238.65 	"/>
        <path class="st0" d="M485.07,448.21v-94.66h-12.39v-60.07h2.57V280.7h22.61v12.78h3.12v-28.46h10.19v-13.81h7.53
		c0.05-12.22,9.74-22.15,21.63-22.15s21.58,9.93,21.63,22.15h7.53v13.81h10.19v1.16l-4.72,18.61h-13.71v54.03l-27.79,109.39H485.07z
		"/>
        <path class="st0" d="M561.13,284.69h13.75l4.7-18.51v-1.06h-10.19v-13.81h-7.53c0-12.24-9.64-22.15-21.53-22.15
		s-21.53,9.92-21.53,22.15h-7.53v13.81h-10.19v28.46h-3.32V280.8h-22.41v12.78h-2.57v59.87h12.39v94.66h48.21l27.77-109.29v-54.13
		H561.13z"/>
        <polygon class="st10" points="470.58,448.21 470.58,293.48 472.87,293.48 472.87,353.35 485.25,353.35 485.25,448.21 	"/>
        <polygon class="st10" points="472.77,353.45 472.77,293.58 470.68,293.58 470.68,448.11 485.15,448.11 485.15,353.45 	"/>
        <polygon class="st11" points="597.86,284.79 596.82,280.7 605.95,280.7 605.95,284.79 	"/>
        <polygon class="st11" points="605.85,284.69 605.85,280.8 596.95,280.8 597.94,284.69 	"/>
        <polygon class="st3" points="712.79,448.21 712.79,238.55 717.96,238.55 717.96,279.72 757.59,279.72 757.59,286.09 751.99,286.09
		751.99,354.03 794.16,354.03 794.16,448.21 	"/>
        <polygon class="st3" points="751.89,354.13 751.89,285.99 757.49,285.99 757.49,279.82 717.86,279.82 717.86,238.65 712.89,238.65
		712.89,448.11 794.06,448.11 794.06,354.13 	"/>
        <polygon class="st12" points="679.59,448.21 679.59,238.55 693.32,238.55 693.32,230.09 710.4,230.09 710.4,238.55 712.99,238.55
		712.99,448.21 	"/>
        <polygon class="st12" points="710.3,238.65 710.3,230.19 693.42,230.19 693.42,238.65 679.69,238.65 679.69,448.11 712.89,448.11
		712.89,238.65 	"/>
        <polygon class="st4" points="579.49,293.68 579.49,266.18 583.58,250.05 583.78,250.07 583.78,280.9 583.54,280.9 583.54,293.68
		"/>
        <polygon class="st4" points="583.44,293.58 583.44,280.8 583.68,280.8 583.68,250.07 579.59,266.18 579.59,293.58 	"/>
        <polygon class="st5" points="610.4,448.21 610.4,293.68 605.75,293.68 605.75,284.59 611.87,284.59 611.87,339.14 639.58,448.21
		"/>
        <polygon class="st5" points="611.77,284.69 605.85,284.69 605.85,293.58 610.5,293.58 610.5,448.11 639.45,448.11 611.77,339.14
		"/>
        <polygon class="st5" points="583.58,280.9 583.58,250.07 586.31,239.3 586.51,239.3 597.08,280.9 	"/>
        <polygon class="st5" points="596.95,280.8 586.41,239.32 583.68,250.07 583.68,280.8 	"/>
        <polygon class="st13" points="533.24,448.21 561.03,338.81 561.03,284.59 574.81,284.59 579.49,266.16 579.69,266.18
		579.69,293.48 583.34,293.48 583.34,280.7 583.78,280.7 583.78,448.21 	"/>
        <polygon class="st13" points="583.44,280.8 583.44,293.58 579.59,293.58 579.59,266.18 574.89,284.69 561.13,284.69 561.13,338.83
		533.37,448.11 583.68,448.11 583.68,280.8 	"/>
        <polygon class="st5" points="583.58,448.21 583.58,280.7 597.03,280.7 598.02,284.59 605.95,284.59 605.95,293.48 610.6,293.48
		610.6,448.21 	"/>
        <polygon class="st5" points="605.85,293.58 605.85,284.69 597.94,284.69 596.95,280.8 583.68,280.8 583.68,448.11 610.5,448.11
		610.5,293.58 	"/>
</g>
</svg>
