<?xml version="1.0" encoding="UTF-8"?>
<svg xmlns="http://www.w3.org/2000/svg" viewBox="0 0 2399.54 1344.23">
  <defs>
    <style>
      .cls-1, .cls-2 {
        fill: #f8bc23;
      }

      .cls-2, .cls-3, .cls-4, .cls-5, .cls-6, .cls-7 {
        mix-blend-mode: color;
      }

      .cls-3 {
        fill: #f5867b;
      }

      .cls-4 {
        fill: #27b466;
      }

      .cls-5 {
        fill: #90c969;
      }

      .cls-6 {
        fill: #95d7e1;
      }

      .cls-8 {
        isolation: isolate;
      }
    </style>
  </defs>
  <g class="cls-8">
    <g id="Layer_1" data-name="Layer 1">
      <g>
        <path class="cls-3" d="M597.04,517.42h-61.02l-42.55-188.14h3.67v-22.13h0c-.42-1.19-1.64-4.49-7.14-5.16v-5.91h-3.57v-19.52c-.16-2.49,1.02-4.61,1.82-4.61,.73,0,1.54,.33,1.75,4.61v19.52h-3.57v5.8c-3.69,.73-6.58,2.77-7.14,5.27h0v22.13h3.94l-41.97,188.14h-54.73v826.3h210.49V517.42Z"/>
        <polygon class="cls-4" points="1341.27 6.65 1308.95 748.28 1329.72 1343.72 925.54 1343.72 956.66 516.18 935.51 .42 1341.27 6.65"/>
        <path class="cls-3" d="M2198.93,755.47v-24.96c21.82-1.94,37.05,4.21,40.51,.64h.04l54.06-50.63c0-19.23-84.69-18.85-160.04-18.85s-146.23,5.63-137,20.68l54.28,48.28c2.35,3.66,17.08-2.37,38.76-.33v25.16h-200.6v588.25h510.6V755.47h-200.6Zm-239.87,59.01h-53.48v-33.99h53.48v33.99Zm60.55,0h-53.48v-33.99h53.48v33.99Zm60.55,0h-53.48v-33.99h53.48v33.99Zm60.54,0h-53.48v-33.99h53.48v33.99Zm60.55,0h-53.48v-33.99h53.48v33.99Zm60.55,0h-53.48v-33.99h53.48v33.99Zm60.55,0h-53.48v-33.99h53.48v33.99Zm60.54,0h-53.48v-33.99h53.48v33.99Z"/>
        <polygon class="cls-5" points="2131.34 973.57 2131.34 933.51 2140.28 933.51 2140.28 919.52 2142.98 919.52 2142.98 902.5 2068.34 902.5 2068.34 860.41 2077.27 860.41 2077.27 846.42 2079.98 846.42 2079.98 829.4 2005.3 829.4 2005.3 790.38 2014.24 790.38 2014.24 776.39 2016.94 776.39 2016.94 759.37 1941.97 759.37 1941.97 711.87 1952.31 711.87 1952.31 697.88 1955.44 697.88 1955.44 680.85 1869.04 680.85 1869.04 612.12 1889.26 612.12 1889.26 597.07 1901.45 597.07 1901.45 579.64 1583.75 579.64 1583.75 597.07 1583.75 612.12 1594.65 612.12 1594.65 1343.72 1869.04 1343.72 1869.04 1343.72 1941.77 1343.72 1941.77 1343.72 2004.81 1343.72 2005.3 1343.72 2068.34 1343.72 2068.34 1343.72 2130.77 1343.72 2131.34 1343.72 2194.3 1343.72 2194.3 1004.58 2203.23 1004.58 2203.23 990.59 2205.94 990.59 2205.94 973.57 2131.34 973.57"/>
        <g class="cls-7">
          <path class="cls-4" d="M265.71,616.21v-9.47l24.82-.04v-44.27h-24.82v-8.27h24.82v-34.77l-24.82-.59v-14.28h24.82v-45.5h-34.82v-113.3l-16.55-1.39v-54.91h-8.27v-86.87h-8.27V95.01h-8.51l-6.52,355.74-.37,8.69-44.93-.42v45.5h35.47l-.25,12.63-35.22-.83v37.84h32.87l-.2,8.27h-32.67v37.23l-.02,8.11,8.3-.17,23.01-.54-.17,9.14h-31.11v37.23h8.27l24.94,.41,.03,7.87-7.52,384.7h-42.26v33.09H67.15v37.23H5.11v227H389.8v-297.32h-124.1v-392.56h24.82v-37.64h-24.82Z"/>
        </g>
        <polygon class="cls-2" points="1227.07 1268.25 1227.07 318.77 1248.95 212.43 1496.72 311.18 1481.53 1343.72 1227.07 1343.72 1227.07 1268.25"/>
        <polygon class="cls-6" points="903.97 337.11 903.97 218.19 909.76 218.19 909.76 210.43 903.97 210.43 777.29 210.43 769.82 210.43 769.82 218.19 777.29 218.19 777.29 337.11 596.77 337.11 596.77 1343.72 1090.82 1343.72 1090.82 337.11 903.97 337.11"/>
        <path class="cls-1" d="M2200.74,1183.22h-454.91l1.36,1.04h-1.29l166.44,126.68-31.88,32.78h198.84l-36.1-34.07,.03-.03,154.45-122.85h-1.36s4.42-3.56,4.42-3.56Zm-99.53,30.72l3.81-1.56-4.56,7.77,.75-6.21Zm-21.05,4.3h2.05l-2.5,4.13,.46-4.13Zm-20.11,5.42h1.8l-2.05,3.38,.26-3.38Zm-20.28,5.37h2.68l-2.9,4.68,.23-4.68Zm-19.58,8.94l3.46-5.59h2.54l-6.13,9.92,.13-4.33Zm-19.81,.98l4.05-.95-4.12,6.57,.07-5.62Zm-28.14,7.91l-4.96-6.38h4.77l.19,6.38Zm-19.91,2.06l-9.4-15.03,5.09,1.51,3.99,7.05,.32,6.47Zm-.55-11.14l-.82-1.27h.76l.06,1.27Zm-19.51,2.05l-5.43-9.1h3.14l1.89,3.56,.39,5.55Zm-19.64-11.15l.63,6.64-5.39-8.96,4.51,1.89,.25,.43Zm-19.83,2.75l-5.98-10.2h3.85l1.13,1.85,1.01,8.34Zm-19.46,.57l-9.42-16.15,5.67,1.24,2.21,3.86,1.55,11.05Zm-23.32-19.2l.36,1.98-1.54-2.38,1.18,.4Zm-52.43-7.48v-6.2l2.58,1.44,6.46,11.84-9.04-7.08Zm19.45-9.47h9.71l.84,4.38-10.26-2.59-.29-1.79Zm7.34,10.37c-.07-.13,.06-.27,.19-.2l4.31,1.03,2.14,11.19-6.65-12.01Zm12.34-10.37h10.25l1.75,9.72-10.85-2.74-1.15-6.98Zm8.24,47.56l-.58-1.05-2.76-16.78,11.74,22.73-8.4-4.91Zm-5.53-31.11l-.44-2.68,4.85,1.08,5,8.59,3.42,5.92,2.6,14.44-15.42-27.35Zm17.78-16.46h11.06l2.13,15.2-11.1-2.8-2.08-12.39Zm12.81,65.37l-2.16-1.96-1.66-9.88,9.11,15.78-5.3-3.94Zm2.07-12.9l-8.19-12.64-1.72-10.25,13.56,23.73,1.11,7.91-4.76-8.75Zm5.35-52.47h11.06l2.46,20.39-11.16-2.82-2.36-17.57Zm3.43,25.56l13.5,23.03,1.25,10.33-13.14-21.36-1.61-11.99Zm7.5,55.92l-1.07-7.95,6.95,12.16-5.89-4.21Zm-3.41-25.42l-1.4-10.42,13.24,23.1,1.16,9.61-13-22.28Zm13.27-56.06h-.02s.01-.03,.02,0h11.3l2.42,25.69-11.05-2.79c-1.41-12.9-2.49-22.42-2.67-22.9Zm3.28,28.47l12.56,19.68,.98,10.36-12.52-20.57c-.35-3.25-.69-6.42-1.02-9.48Zm1.93,17.95l12.39,20.39,.9,9.6-12.34-21.05c-.31-2.96-.63-5.96-.95-8.95Zm5.33,50.43s-.35-3.38-.93-8.87l7.64,13.33-6.71-4.46Zm-.92-18.06l-1.17-1.9c-.29-2.8-.61-5.79-.94-8.92l12.17,20.76,.66,7.04-10.72-16.98Zm11.48-78.79h9.82l2.18,30.58-9.54-2.41-2.45-28.17Zm3.12,35.82l10.51,17.79,.43,6.07-10.35-17.02-.6-6.84Zm1.39,15.99l10.22,17.3,.4,5.59-10.08-16.75-.53-6.14Zm1.18,13.48l9.87,15.47,.83,11.71-9.73-15.99-.97-11.19Zm6.39,48.88l-2.32-2.17-.43-4.94,5.08,8.66-2.33-1.55Zm3.94-6.05l-7.74-13.2-.89-10.23,9.59,15.77,.83,11.71-1.78-4.05Zm3.59-108.12l10.79-.02,1.76,35.69-10.18-2.57-2.36-33.1Zm3.07,42.98l10.73,18.16,.29,5.84-10.5-16.65-.52-7.35Zm1.17,16.41l10.28,16.24,.21,4.21-10.25-17.19-.23-3.27Zm2.56,34.04l-.15-.25-.37-5.2,4.6,7.78-4.07-2.33Zm-1.24-15.48l-.39-5.47,10.02,16.97,.23,4.73-9.87-16.23Zm15.47-77.95h10.79l1.2,40.84-10.47-2.64c-.81-20.34-1.52-38.2-1.52-38.2Zm1.61,40.53l.56,.15,10.36,18.56,.1,3.4-.77-.55-10.04-16.51c-.07-1.69-.13-3.38-.2-5.06Zm.53,13.31l10.76,17.88,.08,2.76-.42-.42-10.24-15.86c-.06-1.44-.11-2.89-.17-4.35Zm1.64,42.47c0-.2-.06-1.89-.16-4.67l2.18,3.45c-1.18,1.09-2.02,1.7-2.02,1.22Zm5.03-4.23l-.27-.54-5.25-8.33c-.06-1.44-.12-2.96-.18-4.57l7.07,11.97c-.45,.48-.91,.97-1.38,1.47Zm-6.04-22.38c-.06-1.46-.12-2.95-.18-4.48l10.34,18.27,.4,3.11-10.57-16.9Zm27.98,13.58l-2.16,3.32h-2.96l5.12-8.08v4.77Zm0-10.8l-6.44,10.13-2.18,2.41-.04-2.3,8.67-13.63v3.39Zm0-8.43l-6.76,10.78-.95,1.11v-4.45l7.71-13.09v5.65Zm0-8.53l-6.92,9.3v-3.69l6.92-9.85v4.24Zm0-8.74l-6.92,8.91v-3.78l4.45-5.84h2.47v.7Zm0-5.7l-8.52,2.35-.9-.23-.83-43.2h10.25v41.08Zm19.08,53.68l-1.42,1.72,1.42-2.31v.6Zm.1-9.07l-10.29,16.58h0s.06-4.91,.06-4.91l4.24-6.19,6.04-10.04-.06,4.56Zm.15-12.07l-10.26,15.68h0s.05-3.68,.05-3.68l.93-2.06,9.33-14.56-.06,4.62Zm.13-11.12l-10.26,16.62,.07-5.43,7.23-10.54,3.01-4.87-.05,4.22Zm.11-9.26l-10.24,15.72,.07-5.27,10.24-16.15-.07,5.71Zm.14-11.76l-10.23,16.09,.05-3.46,8.12-12.78,2.07-.51v.67Zm.06-5.85l-10.05,2.77,.5-38.39h9.98l-.43,35.62Zm16.88,75.79l-5.45,4.87c.18-.37,2.34-3.97,5.64-9.44l-.19,4.57Zm.64-15.47l-6.08,9.9-2.03-1.99,8.33-13.26-.22,5.34Zm.55-13.33l-6.63,10.91-2.03-2.36,8.93-15.08-.27,6.53Zm.62-15.04l-9.28,14.94-.94,1.13,.14-4.6,10.29-16.72-.22,5.25Zm.57-13.89l-10.4,16.75,.15-5.2,10.48-17.42-.24,5.87Zm.45-10.87l-10.5,16.05,.15-5.07,10.58-16.49-.23,5.51Zm.53-12.76l-10.25,2.83,.97-32.87,10.52-.02-1.24,30.06Zm15.53,66.44l-4.25,3.6h-.86l5.46-9.27-.35,5.67Zm1-16.33l-10.63,17.55,.31-6.34c3.41-5.62,7.09-11.68,10.71-17.65l-.4,6.44Zm1.06-17.26l-10.85,17.67,.25-5.04,10.9-17.35-.29,4.72Zm.87-14.21l-11.06,18.19,.35-7.07,11.19-18.9-.48,7.78Zm.91-14.8l-11.24,18.1,.27-5.47,9.36-15.2,1.8-.38-.18,2.95Zm.57-9.35l-10.62,2.93,1.34-27.46h10.79l-1.51,24.53Zm15.53,56.14l-6.8,5.44,7.33-12.34-.53,6.9Zm1.36-17.63l-11.62,19.37,.65-8.56,11.67-19.81-.69,9Zm1.45-18.8l-11.64,19.21,.49-6.53c6.7-11.01,11.64-19.12,11.64-19.12l-.5,6.44Zm-10.32,1.76l.33-4.42,9.13-14.53h2.18l-11.64,18.95Zm12.26-27.06l-10.44,2.88,1.65-21.81h10.25l-1.46,18.93Zm15.21,45.01l-6.78,5.37h0s7.63-13.41,7.63-13.41l-.85,8.05Zm1.96-18.58l-12.92,22,1.07-9.64,12.82-21.58-.97,9.21Zm2.12-20.13l-12.73,21.21,1.11-10.03,9.2-15.62,2.97-.79-.55,5.23Zm1.26-11.97l-10.64,2.94,1.79-16.22,10.25,.02-1.4,13.26Zm16.23,32.89l-7.32,6.32h0l8.3-14.35-.99,8.03Zm2.78-22.7l-12.65,22.37,1.39-11.45,11.11-19.53,1.24-.29-1.09,8.89Zm1.96-15.97l-10.31,2.84,1.25-10.32,9.98-.02-.92,7.5Zm9.03,8.54l2.5-4.31,5.77-1.39-9.91,16.66,1.64-10.96Zm8.06,12.46l-7.8,6.42,9.29-16.22-1.48,9.79Zm4.06-26.83l-10.4,2.87,.68-4.53h9.98l-.25,1.66Zm19.13,8.92l-7.51,5.4,6.55-12.16,2.16-1.06-1.2,7.82Z"/>
        <path class="cls-3" d="M1661.98,400c.49-.85,.74-1.71,.74-2.59,0-11.22-41.55-20.32-92.8-20.32s-92.8,9.1-92.8,20.32c0,1.27,.54,2.51,1.55,3.72l-2.44,.02c0,2.1,.08,4.18,.22,6.24v936.33h187.15V399.99h-1.63Z"/>
        <path class="cls-2" d="M936.42,993.1l-7.37-.04-122.32-29.86v-3.81c-114.51-31.79-207.19-49.79-207.19-49.79,0,0-77.38,14.95-204.03,49.79v3.87c-6.78,1.05-129.61,34.99-132.85,31.63v10.86h9.49v6.33h12.65v331.64H914.27v-331.64h9.49v-6.33h12.65v-12.65Z"/>
      </g>
    </g>
  </g>
</svg>