<svg id="Layer_1" data-name="Layer 1" xmlns="http://www.w3.org/2000/svg" viewBox="0 0 524.26 553.88">
    <defs>
        <style>
            .cls-1{fill:#80ea6e;}.cls-2{fill:#97ebf3;}.cls-3{fill:#81d5dd;}.cls-4{fill:#02bc67;}.cls-5{fill:#44fea9;}.cls-6{fill:#f9bc26;}.cls-7{fill:#f8bb25;}.cls-8{fill:#aa7a00;}.cls-9{fill:#ff877a;}
        </style>
    </defs>
    <path class="cls-1"
          d="M299.3,185.94c0,15.22.41,34.49.41,50.95-8.21-.29-13.4-.29-19.9-.29,0-16.28-.15-32.16-.15-50.21-20,25.69-37.92,47.84-54.59,70.93-4.82,6.67-8.26,16-8.34,24.19-.51,47.14-.46,94.3-.4,141.45,42.33,18.85,71.22,54.39,62.56,103.47-2.55,14.4-11.4,22.07-22.34,25,.06.77.12,1.54.17,2.3H216.37v0H364.59l0-1.09H347.23V366.18H364.8q-.14-42.09-.36-84.19c0-6,.1-13.35-3.09-17.69-18.75-25.5-38.67-48.49-58.16-73.17a1.85,1.85,0,0,0-.2-.2c-.6-.84-1.72-2.36-3.69-5"
          transform="translate(0 0)"/>
    <path class="cls-2"
          d="M461.62,0H460V49.39h-6.12V78.21H436.47v34.3H404.12v90.1H397.4V366.18H364.8q.21,64.76.42,129.5c0,6.22,0,12.38,0,20.82l-.66,36.15H524.26v-350h-6.48v-90.1h-32.6V78.21H467.74V49.39h-6.12V0"
          transform="translate(0 0)"/>
    <path class="cls-3" d="M364.8,366.18H347.23V552.65h17.38l.66-36.15c0-8.44,0-14.6,0-20.82q-.25-64.76-.42-129.5"
          transform="translate(0 0)"/>
    <path class="cls-4"
          d="M25,553.11l-.06.61h4.31a37.16,37.16,0,0,1-4.25-.61m115.1-42.53c-38.31,0-44.26,11.23-69.37,29.73-10.16,7.48-22.48,12.48-33.94,13.41H216.37v-8.41a50.73,50.73,0,0,1-4.87-3c-25.45-17.86-29.31-31.71-71.36-31.71m39-105.54-3.21.28v5.38q3.39.62,6.75,1.35l-3.54-7m17.43-63.69c-3.85,20.85-8.31,45-13.1,70.88A173.59,173.59,0,0,1,216,422.81V405.24l-3-.25c-1,2.13-2,4.26-3.76,8-2.75-14.09-5.31-26.34-7.48-38.67-2.12-12.11-3.83-24.28-5.18-32.93m-141.24-231H53.63v9.69c0,23.64.11,47.29-.15,70.92,0,2.92-1.16,6.92-3.24,8.5-5.09,3.85-5.41,8.73-5.63,14.27-2,50.92-3.73,101.86-6.53,152.74Q36,404.13,33.41,441.73c18.09-15,42-25.35,68.05-30.48q-.79-17.37-1.56-34.75-3.7-82.8-7.48-165.61c-.14-2.92-1.91-5.79-3-8.63-2.27-3.88-5.5-7.36-5.57-11.34-.46-23.94,0-77.72,0-80.55H81.21V198H55.8V110.37h-.46"
          transform="translate(0 0)"/>
    <path class="cls-5"
          d="M216.37,545.31v8.41h40.35c-.05-.76-.11-1.53-.17-2.3a44.22,44.22,0,0,1-11.34,1.41,61.88,61.88,0,0,1-28.84-7.52"
          transform="translate(0 0)"/>
    <path class="cls-6"
          d="M36.83,553.72H29.29c1.22.11,2.45.16,3.7.16s2.55,0,3.84-.16m-3.42-112c-24.27,20.16-38,48.79-32,84.7,2.68,16.11,12,24.27,23.64,26.68L27.09,534c2.07-30.74,4.26-61.49,6.32-92.23M216,422.81V518.1h.37V468.28q0-22.66,0-45.32l-.33-.15m-33.31-10.76.6,1.2.19-1-.79-.18m-42.55-4.54a201,201,0,0,0-38.68,3.74q1.44,31.85,2.9,63.69c.11,2.45-.08,5.06.72,7.28.58,1.58,2.59,3.6,4,3.62h0c1.25,0,3.52-2.37,3.62-3.8.49-7.34.12-14.74.65-22.07a71.37,71.37,0,0,1,4.75-22.13c1.25,7.52,2.5,15,4.08,24.49,8.55-9.66,16.31-18.15,23.64-27,1.08-1.3,0-4.33.1-6.54a11.85,11.85,0,0,1,1-4c.11-.25,1.09-.36,1.64-.36.22,0,.37,0,.38.05a37.12,37.12,0,0,1,1,4.33c.49,2.74,0,6.26,1.6,8.11,6.88,8.21,14.34,15.94,21.59,23.84l2.89-.18V410.7a201.88,201.88,0,0,0-35.8-3.19"
          transform="translate(0 0)"/>
    <path class="cls-7"
          d="M216.33,423q0,22.67,0,45.32V518.1h27.92c.86-3.42,1.69-6.75,2.52-10.07l3.26.08c.88,14.2,5.24,29,6.48,43.31,10.94-2.92,19.79-10.59,22.34-25,8.66-49.08-20.23-84.62-62.56-103.47"
          transform="translate(0 0)"/>
    <path class="cls-8"
          d="M175.94,410.7v49.91l-2.89.18c-7.25-7.9-14.71-15.63-21.59-23.84-1.56-1.85-1.11-5.37-1.6-8.11a37.12,37.12,0,0,0-1-4.33s-.16-.05-.38-.05c-.55,0-1.53.11-1.64.36a11.85,11.85,0,0,0-1,4c-.13,2.21,1,5.24-.1,6.54-7.33,8.85-15.09,17.34-23.64,27-1.58-9.45-2.83-17-4.08-24.49A71.37,71.37,0,0,0,113.35,460c-.53,7.33-.16,14.73-.65,22.07-.1,1.43-2.37,3.8-3.62,3.8h0c-1.39,0-3.4-2-4-3.62-.8-2.22-.61-4.83-.72-7.28q-1.45-31.85-2.9-63.69c-26,5.13-50,15.45-68,30.48-2.06,30.74-4.25,61.49-6.32,92.23L25,553.11a37.16,37.16,0,0,0,4.25.61h7.54c11.46-.93,23.78-5.93,33.94-13.41,25.11-18.5,31.06-29.73,69.37-29.73,42.05,0,45.91,13.85,71.36,31.71a50.73,50.73,0,0,0,4.87,3V518.1H216V422.81a173.59,173.59,0,0,0-32.52-10.58l-.19,1-.6-1.2q-3.36-.74-6.75-1.35"
          transform="translate(0 0)"/>
    <path class="cls-7"
          d="M246.81,508c-.83,3.32-1.66,6.65-2.52,10.07H216.37v27.21a61.88,61.88,0,0,0,28.84,7.52,44.22,44.22,0,0,0,11.34-1.41c-1.24-14.29-5.6-29.11-6.48-43.31l-3.26-.08"
          transform="translate(0 0)"/>
    <path class="cls-9"
          d="M490.83,333.76a9.44,9.44,0,0,0-9.41,8.65l-11.07-.36c0-1.08,0-2.17,0-3.26a116.61,116.61,0,0,0-6.93-39.74l9.24-3.4a9.4,9.4,0,1,0-.36-1l-9.24,3.4A115.65,115.65,0,0,0,439.3,259.6l7.23-6.78a9.3,9.3,0,1,0-.72-.76l-7.23,6.77c-.74-.78-1.5-1.56-2.27-2.33a116.13,116.13,0,0,0-37.57-25.22l4-9.69a9.3,9.3,0,0,0,2.86.44,9.42,9.42,0,1,0-3.85-.81l-4,9.66a116,116,0,0,0-39.45-8.39l.43-13.24h.3a9.47,9.47,0,1,0-1.34-.1l-.44,13.3c-1.08,0-2.16-.05-3.25-.05a116.55,116.55,0,0,0-38.21,6.39L312,218a9.45,9.45,0,1,0-3.59.71,9.72,9.72,0,0,0,2.6-.36l3.81,10.81a115.68,115.68,0,0,0-40,24.36l-6.9-7.37a9.47,9.47,0,1,0-.75.73l6.89,7.36c-.79.74-1.57,1.5-2.34,2.27a116.31,116.31,0,0,0-23.2,33l-8.77-4.05a9.59,9.59,0,0,0,.49-3,9.44,9.44,0,1,0-.88,4l8.72,4a115.89,115.89,0,0,0-10.37,44l-11.26-.37a9.36,9.36,0,1,0,0,1.05l11.25.37c0,1.08-.05,2.16-.05,3.25a116.33,116.33,0,0,0,6.94,39.74l-9.25,3.4a9.44,9.44,0,1,0,.78,3.76,9.33,9.33,0,0,0-.41-2.77l9.24-3.4A115.79,115.79,0,0,0,268.73,418l-7.23,6.77a9.49,9.49,0,1,0,.72.77l7.23-6.78c.75.79,1.5,1.57,2.27,2.34a117.46,117.46,0,0,0,24.37,18.7l-56.95,105H228.92v3h-5v6H484.12v-6h-5v-3H468.9L412,439.79a116.76,116.76,0,0,0,21.26-15.71l9.23,9.85a9.42,9.42,0,1,0,.83-.65L434,423.36c.78-.75,1.56-1.5,2.33-2.27a116.45,116.45,0,0,0,23.21-33l10.28,4.75a9.25,9.25,0,0,0-.29,2.31,9.43,9.43,0,1,0,.6-3.32L460,387.12a115.64,115.64,0,0,0,10.36-44l11.07.36a9.44,9.44,0,1,0,9.44-9.7Zm-23.58,5c0,1.06,0,2.11,0,3.16l-32.59-1.06q0-1,0-2.1a80.33,80.33,0,0,0-4.78-27.36l30.64-11.29A113.28,113.28,0,0,1,467.25,338.79Zm-34.2,2-72.69-2.37a6.22,6.22,0,0,0-.22-1.37L428.39,312a78.72,78.72,0,0,1,4.69,26.82C433.08,339.48,433.07,340.16,433.05,340.84ZM275,336.75l72.69,2.36a6.22,6.22,0,0,0,.22,1.38l-68.25,25.13A78.74,78.74,0,0,1,275,338.79Q275,337.77,275,336.75Zm84-1.9,53-49.7A79,79,0,0,1,428,311l-68.24,25.12A6.84,6.84,0,0,0,359,334.85Zm-.71-.77a6.41,6.41,0,0,0-1.37-.94l27.62-67.28a79.43,79.43,0,0,1,26.79,18.52Zm-2.34-1.34a6,6,0,0,0-1.19-.25l2.36-72.69a78.39,78.39,0,0,1,26.45,5.67Zm-2.24-.29a6.09,6.09,0,0,0-1.29.2l-24.18-68.59A78.68,78.68,0,0,1,354,259.73l2,0Zm-2.28.55a6.4,6.4,0,0,0-1.35.82l-49.7-53a79.14,79.14,0,0,1,26.87-16.37Zm-2.11,1.53a6.92,6.92,0,0,0-.82,1.13l-66-30.47a79.26,79.26,0,0,1,17.14-23.7Zm-1.26,2.09a6.3,6.3,0,0,0-.34,1.44L275,335.7a78.41,78.41,0,0,1,7-29.56Zm.21,4.85a6,6,0,0,0,.61,1l-.43.79L296,392.44a79.29,79.29,0,0,1-16-25.84Zm-1.41,4.76-32.92,60.68a79.83,79.83,0,0,1-17.21-13.7Zm3.58-2.2a8.1,8.1,0,0,0,.7.42L323.5,411.72a79.21,79.21,0,0,1-7.75-3.77Zm1.67.82a6.61,6.61,0,0,0,1.19.25l-2.37,72.68a78.49,78.49,0,0,1-26.45-5.66Zm1.92,73c-.69,0-1.37,0-2,0l2.37-72.69a6.18,6.18,0,0,0,1.29-.19l24.17,68.59A78.62,78.62,0,0,1,354,417.85Zm2.6-73.26a7.41,7.41,0,0,0,1-.56L392.28,408a77.93,77.93,0,0,1-11.49,5.23Zm5.83,4,45.21,48.25a79.3,79.3,0,0,1-13.55,10.1Zm-2-3.64-1.3-2.41c.13-.19.26-.39.37-.59l66,30.48a79.57,79.57,0,0,1-17.14,23.69ZM360,341a5.79,5.79,0,0,0,.34-1.45L433,341.89a78.61,78.61,0,0,1-7,29.56ZM322.9,413.18l-12.41,30.21a109.35,109.35,0,0,1-11.07-5.34L315,409.33A80.06,80.06,0,0,0,322.9,413.18Zm1,.39a80.13,80.13,0,0,0,27,5.79L349.81,452a112.74,112.74,0,0,1-38.34-8.16Zm28.05,5.83q1.05,0,2.1,0A80.17,80.17,0,0,0,380.33,415l10.85,30.81A113.46,113.46,0,0,1,354,452c-1.06,0-2.11,0-3.16,0Zm29.4-4.74A79.42,79.42,0,0,0,393,409.33l15.58,28.72a110.87,110.87,0,0,1-16.45,7.42Zm78.83-115.5L429.5,310.44a80.92,80.92,0,0,0-16.32-26.37L437,261.75A112.56,112.56,0,0,1,460.15,299.16Zm-26.06-40.44c.74.75,1.47,1.5,2.2,2.27L412.47,283.3a81,81,0,0,0-27.34-18.89l12.41-30.22A113.11,113.11,0,0,1,434.09,258.72Zm-37.52-24.93L384.16,264a79.88,79.88,0,0,0-27-5.78l1.06-32.6A113,113,0,0,1,396.57,233.79ZM354,225.56c1.05,0,2.1,0,3.15,0l-1.06,32.59c-.69,0-1.39,0-2.09,0a80.43,80.43,0,0,0-26.31,4.41l-10.86-30.8A113.3,113.3,0,0,1,354,225.56Zm-38.16,6.56,10.86,30.8a80.84,80.84,0,0,0-27.42,16.71L277,255.81A112.6,112.6,0,0,1,315.86,232.12ZM274,258.72c.74-.74,1.5-1.47,2.26-2.2l22.32,23.82A81,81,0,0,0,281,304.53l-29.66-13.7A113.4,113.4,0,0,1,274,258.72Zm-23,33.06,29.66,13.7a80.18,80.18,0,0,0-7.15,30.17l-32.59-1.06A112.54,112.54,0,0,1,250.94,291.78Zm-10.16,47c0-1.05,0-2.1.05-3.15l32.58,1.06c0,.69,0,1.39,0,2.09a80.35,80.35,0,0,0,4.78,27.37l-30.65,11.28A113.24,113.24,0,0,1,240.78,338.79Zm7.1,39.64,30.66-11.29a80.68,80.68,0,0,0,16.31,26.37L271,415.84A112.82,112.82,0,0,1,247.88,378.43ZM274,418.86c-.75-.74-1.48-1.5-2.2-2.26l23.82-22.32a81,81,0,0,0,17.61,14L297.59,437A113.67,113.67,0,0,1,274,418.86Zm192.56,125.9h-225l56.39-103.94a114.48,114.48,0,0,0,11.38,5.49l-4,9.68a9.61,9.61,0,0,0-2.86-.44,9.46,9.46,0,1,0,3.84.82l4-9.66a116.16,116.16,0,0,0,39.44,8.39l-.32,9.9a9.5,9.5,0,1,0,1.05,0l.32-9.91c1.08,0,2.17.05,3.26.05a116.59,116.59,0,0,0,38.21-6.39l3.39,9.63a9.12,9.12,0,1,0,1-.4l-3.38-9.58a114.86,114.86,0,0,0,16.9-7.62ZM410.44,437l-15.58-28.73A81.76,81.76,0,0,0,408.74,398l22.32,23.82A113.6,113.6,0,0,1,410.44,437Zm23.65-18.16c-.75.75-1.5,1.48-2.27,2.2l-22.31-23.82A81.26,81.26,0,0,0,427,373.06l29.66,13.69A113.46,113.46,0,0,1,434.09,418.86Zm23-33.06-29.66-13.69a80,80,0,0,0,7.14-30.17l32.6,1.06A112.86,112.86,0,0,1,457.1,385.8Z"
          transform="translate(0 0)"/>
</svg>