<svg id="Layer_1" data-name="Layer 1" xmlns="http://www.w3.org/2000/svg" viewBox="0 0 526.55 580.61"><defs><style>.cls-1{fill:#02bc67;}.cls-2{fill:#80ea6e;}.cls-3{fill:#3ea82c;}.cls-4{fill:#ff877a;}.cls-5{fill:#d0584b;}.cls-6{fill:#97ebf3;}.cls-7{fill:#3f939b;}.cls-8{fill:#81d5dd;}.cls-9{fill:#f9bc26;}.cls-10{fill:#e5a812;}</style></defs><path class="cls-1" d="M275,580.48h-1.64v0H275v0M212.72,0c-1.77,6.1-4.31,10.77-4,16.36.3,6.24-.6,12.37-3.81,17.87-9.56,16.38-19.23,32.69-28.84,49-1.61,2.75-3.05,5.63-7,6.24V108.1l-4.8-.33c-.86-3.44-1.62-6.51-2.67-10.68-1.18,4.43-2,7.64-2.86,10.73l-4.12,1.24c.41,10.07-2.68,19.69-1.76,29.63a94,94,0,0,1,0,10.07c0,1,.11,2.51-.38,2.86,0,6.57-.08,13.13,0,19.69.09,13.86,0,27.72-.06,41.58q0,20.46-.07,40.92,0,20.81-.08,41.59,0,20.46-.05,40.92l0,22.65q5.76-3.33,11.51-6.66c1.63-.94,3.32-1.77,5.09-2.7,11.93,6.87,23.83,13.63,35.62,20.59a14.32,14.32,0,0,0,7.47,2.3,15.34,15.34,0,0,0,4.19-.63c0-3.91-.08-8.05,0-12.19.06-2.37-.81-5,2.19-6.69.8-.45.72-2.69.81-4.12.34-5.37-.71-10.78,1.93-16.05,1.1-2.19.18-5.38.18-6.85,2.18-1.52,4.43-2.24,4.7-3.42,2.5-10.67,6.63-21.08,5.74-32.32-.1-1.24-.92-2.42-1.4-3.6l2.57-6.63,3.67,7.05c-.43.35-2,1.05-2,1.76,0,4.55-.79,9,.88,13.65,2,5.6,2.81,11.63,4.17,17.47,1,4.34,1.08,4.38,5.48,5.47.6,8.24,1.06,16.58,1.93,24.87.18,1.73,1.86,3.29,3.24,5.57.24,23.8-.61,48.4,2.36,73.29l9.06,1a72.19,72.19,0,0,1,.86,7.82q.15,14.87,0,29.74a15.52,15.52,0,0,0,2.94,10,13.55,13.55,0,0,1,2.25,6.93c.34,4.83-.12,9.71.16,14.54s.78,9.58,1.28,14.36l.09-309a5.5,5.5,0,0,1,.4-.95H275v-44c0-1.34.1-2.7,0-4-.09-1-.19-2.39-.78-2.72-2-1.11-1.46-2.89-1.48-4.44-.06-6.72,0-13.44,0-20.16a25.33,25.33,0,0,0-.29-4c-.43-2.77-1.13-5.5-1.42-8.27a65.79,65.79,0,0,1,0-7l-4.49-1.3c-.76-3.28-1.46-6.3-2.15-9.32l-.7-.06-2.5,9.8-5.19-.31V91c-2.61-3-4.73-4.91-6.11-7.22-9.55-16-18.9-32.11-28.44-48.12-3.15-5.3-5.18-10.93-4.78-17C217,12.38,214.87,6.84,212.72,0"/><path class="cls-2" d="M151.55,131.2a24,24,0,0,0-4,5.66q-19.33,35.43-38.64,70.86-52.67,96.53-105.4,193a25.19,25.19,0,0,0-3.2,12.62q0,81.51-.19,163c0,1.23-.07,2.45-.14,3.66H67c0-.78.08-1.56.08-2.34q0-24.06,0-48.1c0-3.16-.32-6.34,2.63-8.68a4.41,4.41,0,0,0,1.31-2.77c.76-6.41,1.52-12.82,2-19.26a93.93,93.93,0,0,0,0-11.38c-.21-4.35.53-8.15,3.43-11.73,1.41-1.74,1.87-4.64,1.92-7,.19-10.33,0-20.67.1-31,0-2.46.42-4.91.66-7.46L88.54,429c.59-7.14,1.47-13.78,1.62-20.44.36-16.45.37-32.9.57-49.34,0-2.21-.6-4.56,2.13-6.11.8-.45.71-2.68.83-4.1.43-5.36-.83-10.78,2-16,1.13-2.13.19-5.37.19-8.63l2.81.68c3.16-4.22,7.82-23,7.79-31.43,0-4,0-4-1.81-6.36,1-2.41,1.87-4.62,3.06-7.54,1.16,2.61,2.12,4.78,3.13,7.07-.44,1.06-1.66,2.55-1.58,4a144.82,144.82,0,0,0,1.68,16.12c.85,4.9,2.37,9.67,3.55,14.51.49,2,1.29,3.55,3.39,3.55a6.21,6.21,0,0,0,1.68-.26c.64,8.49,1.12,16.78,2,25,.21,2,1.77,3.77,3.49,5.5V373.3A77.31,77.31,0,0,0,133,370c5.78-3.28,11.54-6.61,17.29-9.94q0-100.41,0-200.81c0-2.65-1.07-5.69,2.15-7.62h0c0-6.8-.23-13.61-.91-20.42"/><path class="cls-3" d="M152.46,151.62h0c-3.22,1.93-2.15,5-2.15,7.62q0,100.41,0,200.81l1.87-1.09,0-22.65q0-20.46.05-40.92,0-20.79.08-41.59,0-20.46.07-40.92c0-13.86.15-27.72.06-41.58,0-6.56.08-13.12,0-19.69"/><path class="cls-4" d="M330.9,105.65l-1.22,0v14.18l-6.5.69c-.21,1.87-.37,3.42-.55,5l-4.31,1.8v23H306.91V165H292.45v22.09H280.91v16.54H275V580.48H393.33v-.43h-9c.33-7.77.08-15.49.14-23.21.06-8.61,0-17.21,0-25.82V245.94a69.51,69.51,0,0,1,8.84-.57V203.3H381.56v-16l-11.1-.47V164.78h-15v-14.3L343.91,150V127.1l-3.72-1.33c-.2-2-.38-3.68-.55-5.38l-8-.47c0-2.76.14-5.11,0-7.44s.88-4.78-.73-6.83"/><path class="cls-5" d="M275,203.61h-5.48a5.5,5.5,0,0,0-.4.95l-.09,309c.15,1.44.29,2.87.44,4.31a2.82,2.82,0,0,0,.59,1.76c4.23,3.51,3.29,8.32,3.3,12.87,0,15,0,30,0,44.93v3.06H275V203.61"/><path class="cls-6" d="M150.25,580.05H67l0,.56H273.33v-.11H150.25v-.45"/><path class="cls-7" d="M232.77,280l-2.57,6.63c.48,1.18,1.3,2.36,1.4,3.6.89,11.24-3.24,21.65-5.74,32.32-.27,1.18-2.52,1.9-4.7,3.42,0,1.47.92,4.66-.18,6.85-2.64,5.27-1.59,10.68-1.93,16.05-.09,1.43,0,3.67-.81,4.12-3,1.69-2.13,4.32-2.19,6.69-.12,4.14,0,8.28,0,12.19a15.34,15.34,0,0,1-4.19.63,14.32,14.32,0,0,1-7.47-2.3c-11.79-7-23.69-13.72-35.62-20.59-1.77.93-3.46,1.76-5.09,2.7q-5.76,3.31-11.51,6.66,0,9.46,0,18.93,0,20.48,0,40.93,0,20.79,0,41.58l0,40.93q0,20.79-.05,41.58c0,12.27,0,24.58,0,37.13h-1.69v.45H273.33v0H269c0-.1,0-.2,0-.31q0-33.3,0-66.62c-.5-4.78-1-9.56-1.28-14.36s.18-9.71-.16-14.54a13.55,13.55,0,0,0-2.25-6.93,15.52,15.52,0,0,1-2.94-10q.15-14.87,0-29.74a72.19,72.19,0,0,0-.86-7.82l-9.06-1c-3-24.89-2.12-49.49-2.36-73.29-1.38-2.28-3.06-3.84-3.24-5.57-.87-8.29-1.33-16.63-1.93-24.87-4.4-1.09-4.47-1.13-5.48-5.47-1.36-5.84-2.16-11.87-4.17-17.47-1.67-4.64-.91-9.1-.88-13.65,0-.71,1.61-1.41,2-1.76L232.77,280"/><path class="cls-8" d="M107.69,279.66c-1.19,2.92-2.09,5.13-3.06,7.54,1.8,2.38,1.8,2.38,1.81,6.36,0,8.4-4.63,27.21-7.79,31.43l-2.81-.68c0,3.26.94,6.5-.19,8.63-2.79,5.26-1.53,10.68-2,16-.12,1.42,0,3.65-.83,4.1-2.73,1.55-2.1,3.9-2.13,6.11-.2,16.44-.21,32.89-.57,49.34-.15,6.66-1,13.3-1.62,20.44l-9.36,1.32c-.24,2.55-.65,5-.66,7.46-.07,10.34.09,20.68-.1,31,0,2.39-.51,5.29-1.92,7-2.9,3.58-3.64,7.38-3.43,11.73a93.93,93.93,0,0,1,0,11.38c-.48,6.44-1.24,12.85-2,19.26a4.41,4.41,0,0,1-1.31,2.77c-3,2.34-2.63,5.52-2.63,8.68q0,24,0,48.1c0,.78,0,1.56-.08,2.34h83.21v-2q0-109,0-217.95c-5.75,3.33-11.51,6.66-17.29,9.94a77.31,77.31,0,0,1-7.93,3.3V355.15c-1.72-1.73-3.28-3.54-3.49-5.5-.89-8.25-1.37-16.54-2-25a6.21,6.21,0,0,1-1.68.26c-2.1,0-2.9-1.53-3.39-3.55-1.18-4.84-2.7-9.61-3.55-14.51a144.82,144.82,0,0,1-1.68-16.12c-.08-1.42,1.14-2.91,1.58-4-1-2.29-2-4.46-3.13-7.07"/><path class="cls-7" d="M152.13,359l-1.87,1.09q0,109,0,218v2h1.69c0-12.55,0-24.86,0-37.13q0-20.79.05-41.58l0-40.93q0-20.79,0-41.58,0-20.46,0-40.93,0-9.47,0-18.93"/><path class="cls-7" d="M269,513.55q0,33.32,0,66.62c0,.11,0,.21,0,.31h4.36v-3.06c0-15,0-30,0-44.93,0-4.55.93-9.36-3.3-12.87a2.82,2.82,0,0,1-.59-1.76c-.15-1.44-.29-2.87-.44-4.31"/><path class="cls-9" d="M418.2,245.06c-8.74,0-18.18.11-24.87.31V580.05H526.55V486.21H515.86V418.56H500.2V341.2H485.47c0-11.54,0-22.54,0-33.55s.22-21.94-.17-33.28H470.82V258.82H456.34c-.15-1.12-.23-1.77-.33-2.42s-.2-1.24-.37-2.22H440.7v-8.62c-2.47-.34-12-.5-22.5-.5"/><path class="cls-10" d="M393.33,245.37a69.51,69.51,0,0,0-8.84.57V531c0,8.61.05,17.21,0,25.82-.06,7.72.19,15.44-.14,23.21h9V245.37"/></svg>