<?xml version="1.0" encoding="UTF-8"?>
<svg xmlns="http://www.w3.org/2000/svg" viewBox="0 0 1025.81 1049.1">
  <defs>
    <style>
      .cls-1 {
        fill: #f8bc23;
      }

      .cls-1, .cls-2, .cls-3, .cls-4, .cls-5, .cls-6 {
        mix-blend-mode: color;
      }

      .cls-2 {
        fill: #f5867b;
      }

      .cls-3 {
        fill: #27b466;
      }

      .cls-4 {
        fill: #90c969;
      }

      .cls-5 {
        fill: #95d7e1;
      }

      .cls-7 {
        isolation: isolate;
      }
    </style>
  </defs>
  <g class="cls-7">
    <g id="Layer_1" data-name="Layer 1">
      <g>
        <polygon class="cls-5" points="427.36 983.39 427.36 162.07 446.29 70.08 660.62 155.49 647.47 1049.1 427.36 1049.1 427.36 983.39"/>
        <polygon class="cls-4" points="952.42 706.46 952.42 669.44 960.68 669.44 960.68 656.51 963.18 656.51 963.18 640.78 894.19 640.78 894.19 601.88 902.45 601.88 902.45 588.95 904.95 588.95 904.95 573.22 835.94 573.22 835.94 537.16 844.2 537.16 844.2 524.23 846.7 524.23 846.7 508.5 777.41 508.5 777.41 464.6 786.97 464.6 786.97 451.67 789.86 451.67 789.86 435.94 710.01 435.94 710.01 372.43 728.7 372.43 728.7 358.51 739.96 358.51 739.96 342.41 446.36 342.41 446.36 358.51 446.36 372.43 456.43 372.43 456.43 1049.1 710.01 1049.1 710.01 1049.1 777.23 1049.1 777.23 1049.1 835.48 1049.1 835.94 1049.1 894.19 1049.1 894.19 1049.1 951.89 1049.1 952.42 1049.1 1010.6 1049.1 1010.6 735.12 1018.86 735.12 1018.86 722.19 1021.36 722.19 1021.36 706.46 952.42 706.46"/>
        <path class="cls-2" d="M427.27,370.43h-50.11l-34.95-154.52h3.01v-18.18h0c-.34-.98-1.35-3.69-5.86-4.24v-4.85h-2.93v-16.03c-.13-2.04,.84-3.79,1.5-3.79,.6,0,1.26,.27,1.43,3.79v16.03h-2.93v4.76c-3.03,.6-5.4,2.27-5.86,4.32h0v18.18h3.23l-34.47,154.52h-44.95v678.67h172.88V370.43Z"/>
        <path class="cls-1" d="M783.29,723.76l-6.84-.04-113.5-27.7v-3.54c-106.25-29.5-192.25-46.2-192.25-46.2,0,0-71.8,13.87-189.31,46.2v3.59c-6.29,.97-120.27,32.47-123.27,29.35v10.08h8.81v5.87h11.74v307.73H762.75v-307.73h8.81v-5.87h11.74v-11.74Z"/>
        <g class="cls-6">
          <path class="cls-3" d="M218.22,444.63v-7.86l20.61-.03v-36.75h-20.61v-6.87h20.61v-28.87l-20.61-.49v-11.85h20.61v-37.78h-28.91v-94.07l-13.74-1.15v-45.59h-6.87V101.18h-6.87V11.89h-7.06l-5.41,295.37-.31,7.22-37.3-.35v37.78h29.45l-.2,10.49-29.24-.69v31.42h27.29l-.16,6.87h-27.13v30.91l-.02,6.74,6.89-.14,19.1-.45-.14,7.59h-25.83v30.91h6.87l20.7,.34,.02,6.53-6.25,319.41h-35.09v27.48H53.37v30.91H1.85v188.9H321.26v-247.28h-103.03V475.88h20.61v-31.25h-20.61Z"/>
        </g>
      </g>
    </g>
  </g>
</svg>