<?xml version="1.0" encoding="utf-8"?>
<!-- Generator: Adobe Illustrator 26.0.3, SVG Export Plug-In . SVG Version: 6.00 Build 0)  -->
<svg version="1.1" id="Layer_1" xmlns="http://www.w3.org/2000/svg" xmlns:xlink="http://www.w3.org/1999/xlink" x="0px" y="0px"
	 viewBox="0 0 576.2 531.5" style="enable-background:new 0 0 576.2 531.5;" xml:space="preserve">
<style type="text/css">
	.st0{fill:#02BC67;}
	.st1{fill:#80EA6E;}
	.st2{fill:#3EA82C;}
	.st3{fill:#97EBF3;}
	.st4{fill:#81D5DD;}
	.st5{fill:#3F939B;}
	.st6{fill:#F9BC26;}
	.st7{fill:#AA7A00;}
	.st8{fill:#F8BB25;}
	.st9{fill:#FFD262;}
	.st10{fill:#FF877A;}
	.st11{fill:#FFA298;}
	.st12{fill:#D0584B;}
	.st13{fill:#FFC1BB;}
</style>
<path class="st0" d="M284.2,373.4l-13.3-50.9h-1.6l-10.5,39l-5.7-17.1l0-35.9h5.4V186.8h-3.6V166h8.1v-26.8
	c0-11.1,5.4-20.6,11.8-20.7v-1.5c0-12,5-20.7,11.9-20.7h8.1V79.2h-3.6V64.9c0-4.9,2.9-8,5.5-8h3.5v-41h-4.5V11h4.5V-0.1h4.7V11h4.5
	v4.9h-4.5v40.9h3.5c2.8,0,4.6,3.2,4.6,8v14.3h-2.7v17.2h7.2c7.3,0,11.9,7.9,11.9,20.7v1.5h0.8c6.4,0,11.9,9.5,11.9,20.7V166h7.3
	v20.8h-3.6v26.6l-6.5,8.1l6.4,5.4l0,81.5h6.3V360l-0.8,2.6l-4.7-15.9H346l-2.9-11.6h-1.6l-2.9,11.6h-1.2l-8.1,26.6H284.2z
	 M305.6,96.4V79.2h-6.1v17.2H305.6z"/>
<path class="st0" d="M299.4,96.5V79.1h6.3v17.4H299.4 M304.8,0h-4.5v11.1h-4.5v4.7h4.5V57h-3.6c-2.7,0-5.4,3.2-5.4,7.9v14.2h3.6
	v17.4h-8.2c-6.4,0-11.8,7.9-11.8,20.6v1.6c-6.4,0-11.8,9.5-11.8,20.6v26.9H255v20.6h3.6v121.8h-5.4v35.8l5.6,16.8l10.4-38.8h1.7
	l13.3,50.9h45.1l8.1-26.6h1.1l2.9-11.6h1.7l2.9,11.6h0.6l4.6,15.6l0.7-2.3v-51.5h-6.3V227l-6.5-5.5l6.5-8.1v-26.7h3.6v-20.6H342
	v-26.9c0-11.1-5.4-20.6-11.8-20.6h-0.9v-1.6c0-12.7-4.5-20.6-11.8-20.6h-7.2V79.1h2.7V64.9c0-4.7-1.8-7.9-4.5-7.9h-3.6V15.8h4.5
	v-4.7h-4.5V0"/>
<path class="st1" d="M546.4,531.4v-91h-22.8l-9.1-25.1l0-32.2l0.1,0.1l0,0l0,0l8.8,9.3l2.5,7.8c3.2,1,6.1,3.2,8,6.1l0.6-2.3l9.5,10
	l1,13.9h2.3V471l0.1,60.4H546.4z M253.1,460.1c-54.4-11.5-130.6-26.6-184.7-33l-0.1,0v-11c0-4.4,2.1-9.1,5.8-12.8l0-19.1h17.4v-9.8
	h0.6l10.4-24.8l1.8-1.8l5.3,0l1.8,1.8l10.4,24.8h27.8v9.8h2.8l12.1-17.9l9.9,0l1.2,0.6l12.2,17.4l3.8,0v-26h2.9v-46.8h2.3v-37.9
	h-3.5v-4.7c0-2.2,1.7-4.7,4.1-4.7h4v-10.3c0-3.5,1.7-6.8,4.7-8.8l0-27.6h-2.8l-1.9-1l-1.1-2l0-4.1h5.8c0-3.2,1.5-5.5,4.5-7.4
	c-1.1-0.6-1.1-1.8-1.1-2.9v-3.9H206v-7c0-3.7,3.1-7,6.5-7h5.2l0,0c3.4,0,6.5,3.4,6.5,7v7h-3.5v3.9c0,0.2,0,0.3,0,0.4
	c0,0.9,0,1.7-0.8,2.3c2.7,1.5,4.4,4.4,4.3,7.6h5.9v4.1l-1.1,2l-1.8,1l-2.8,0v27.7c2.9,1.9,4.7,5.1,4.6,8.7v10.3h3.9
	c2.4,0,4.1,2.5,4.1,4.7v4.7h-3.5v38h2.3v45.1l6.2-19.7h8.8l2.5,7.6l0,115.8L253.1,460.1z M351.9,360l6.2-20.4h8l0,0.1l-5.6,59.5
	l-8.7,8.4V360z"/>
<path class="st1" d="M514.6,383.4v31.9l9.1,25.1h22.8v91h0.9l-0.1-60.3v-42.8H545l-1-13.9l-9.4-9.9l-0.6,2.4c-1.9-3-4.7-5.3-8.1-6.4
	l-2.5-7.8L514.6,383.4 M366.1,339.7h-7.9L352,360v47.3l8.5-8.1L366.1,339.7 M217.7,181.9h-5.2c-3.5,0-6.4,3.5-6.4,6.9v6.9h3.5v4.1
	c0,1.1,0,2.3,1.2,2.9c-2.9,1.7-4.6,4.1-4.6,7.5h-5.8v4l1.1,2l1.8,0.9h2.9v27.8c-2.9,1.9-4.7,5.2-4.6,8.7V264h-4.1
	c-2.3,0-4.1,2.3-4.1,4.6v4.6h3.5v38.1h-2.3v46.8h-2.9v26h-4l-12.1-17.4l-1.2-0.6h-9.8l-12.1,17.9h-2.9v-9.8h-27.8l-10.4-24.9
	l-1.7-1.7h-5.2l-1.7,1.7l-10.4,24.9h-0.6v9.8H74.2v19.1c-3.5,3.5-5.8,8.1-5.8,12.7V427c52.4,6.2,125.5,20.5,184.7,33V344.3l-2.5-7.5
	H242l-6.4,20.2v-45.7h-2.3v-38.2h3.5v-4.6c0-2.3-1.7-4.6-4-4.6h-4.1v-10.4c0-3.5-1.7-6.8-4.6-8.7v-27.8h2.9l1.8-0.9l1.1-2v-4H224
	c0.1-3.2-1.6-6.2-4.4-7.7c1.1-0.6,0.9-1.6,0.9-2.7v-4.1h3.5v-6.9C224,185.3,221.1,181.8,217.7,181.9"/>
<path class="st2" d="M329.9,474.5h-10.5c-22.2-5-44.5-9.9-66.2-14.5l-0.1,0V344.3l0.2,0l5.5,16.5l10.3-38.5h1.8v0.1l0.1,0l13.3,50.8
	h45l8.1-26.6h1.1l2.9-11.6h1.9l0,0.1l2.9,11.5h0.6l0,0.1l4.5,15.3l0.6-2l0.2,0v47.3l0,0l-8.2,7.9l5.5,5.5H343v40.6h-13.1V474.5z
	 M253.2,459.9c21.7,4.6,43.9,9.4,66.1,14.4l10.3,0v-13.2h13.1v-40.6h6.1l-5.4-5.4l0.1-0.1l8.3-8v-46.6l-0.6,2l-4.7-15.9H346l0-0.1
	l-2.9-11.5h-1.6l-2.9,11.6h-1.2l-8.1,26.6h-45.3l0-0.1l-13.3-50.9h-1.6l-10.5,39l-0.1-0.3l-5.4-16.2V459.9z"/>
<path class="st2" d="M270.9,322.4h-1.7l-10.4,38.8l-5.6-16.8V460c25.6,5.4,48.6,10.5,66.2,14.5h10.4v-13.2h13.1v-40.6h6.3l-5.5-5.5
	l8.3-8V360l-0.7,2.3l-4.6-15.6h-0.6l-2.9-11.6h-1.7l-2.9,11.6h-1.2l-8.1,26.6h-45.1L270.9,322.4"/>
<path class="st3" d="M369.1,339.8H366l8.4-88.7l61.6,51.8l0.9,9.3l-29.3,25.7l0,15.9l-25.9,25L369.1,339.8z M377.1,222.5l11-115.5
	c-0.1-7.7,5.6-14.4,13.2-15.6l2.4,0v0c8.6,1.2,14.4,7.5,14.4,15.6l16.2,177L377.1,222.5z"/>
<path class="st3" d="M374.5,251.3l-8.4,88.4h3.1l12.6,38.8l25.7-24.8v-15.9l29.3-25.6l-0.9-9.2L374.5,251.3 M403.7,91.5h-2.4
	c-7.6,1.2-13.2,7.8-13.1,15.5l-11,115.4l56.9,61.3L418,107C418,98.7,412,92.7,403.7,91.5"/>
<path class="st4" d="M360.3,399.4l0-0.3l5.7-59.5h3.3l0,0.1l12.6,38.9l0,0L360.3,399.4z M366.2,339.8l-5.6,59l21.1-20.4l-12.6-38.7
	H366.2z"/>
<polyline class="st4" points="369.2,339.7 368,339.7 366.9,339.7 366.1,339.7 360.5,399.1 381.8,378.5 369.2,339.7 "/>
<path class="st3" d="M317.4,531.2l0.2-0.2c0.2-0.2,0.4-0.5,0.7-0.8l41.5,0.2v0.8H317.4z M402.8,384.4l4.7-5.7h0.2v5.7H402.8z"/>
<path class="st3" d="M318.3,530.3c-0.2,0.3-0.5,0.6-0.7,0.8h42v-0.6L318.3,530.3 M407.5,378.8l-4.5,5.5h4.5L407.5,378.8"/>
<path class="st4" d="M359.8,530.6L359.8,530.6l-41.6-0.2l0.3-0.4H352V423.3l1,1l9,9l41-49.2h4.7v26.6l0,0l-43.3,29.6h-4.5V530.6z
	 M318.5,530.2l41,0.2v-90.1h4.6l43.2-29.6v-26.3H403l-41,49.3l-0.1-0.1l-9.8-9.8v106.3L318.5,530.2L318.5,530.2z"/>
<path class="st4" d="M407.5,384.3H403l-41,49.2l-9.1-9.1l-0.8-0.8V530h-33.5l-0.2,0.2l41.3,0.2v-90.1h4.6l43.3-29.6L407.5,384.3"/>
<path class="st5" d="M352.1,530.1h-33.8l0.1-0.2c6.7-8.2,22-31.4,28.7-48.7l-2.3-1l-4-0.9c-5.8-1.3-12.9-2.9-21.5-4.9l0-0.2h10.3
	v-13.1h13.1v-40.6h6.4v0.1l0.1-0.1l2.9,2.9V530.1z M318.7,529.9h33.2V423.6l-2.8-2.8H343v40.6h-13.1v13.1h-9.6
	c8.2,1.8,15.1,3.4,20.6,4.7l4,0.9l2.5,1l0,0.1C340.7,498.4,325.5,521.6,318.7,529.9z"/>
<path class="st5" d="M349.1,420.7h-6.3v40.6h-13.1v13.1h-10.4c10.8,2.4,19.5,4.4,25.5,5.8l2.4,1c-6.8,17.6-22.4,41.1-28.7,48.8H352
	V423.6L349.1,420.7"/>
<path class="st6" d="M271.4,531.2H51.2l0,0c-18.2-30.1-50.9-98.2-51.2-98.9l0,0c-0.1-1.3,0.3-2.5,1.3-3.5c3-3.2,11.3-4.8,24.8-4.8v0
	c10.8,0,25.1,1,42.5,3.1l0.1,0v74.2L68.5,529l184.8,0.9v0.1h18.2V531.2z M51.3,531h219.9v-0.8H253v-0.1l-184.8-0.9v-0.1l0.1-28v-74
	C51,425.1,36.8,424,26,424v0c-13.4,0-21.7,1.6-24.7,4.8c-0.9,1-1.3,2.1-1.2,3.4C0.8,433.6,33.2,501.1,51.3,531z"/>
<path class="st6" d="M26,423.9c-16.6,0-26.4,2.4-26,8.3c0,0,32.8,68.5,51.2,98.9h220.1v-1h-18.2V530l-184.8-0.9l0.1-28V427
	C51.9,425,37.3,423.9,26,423.9"/>
<polygon class="st7" points="271.3,530.1 246.8,530.1 246.8,530 253,530 253,529.9 253.2,529.9 271.4,529.9 271.4,530.1 "/>
<polyline class="st7" points="253.1,530 253.1,530 246.8,530 271.3,530 271.3,530 253.1,530 "/>
<path class="st8" d="M253.2,530.1l-0.1,0l-184.9-0.9v-0.1l0.1-28v-74.2l0.1,0c54.1,6.4,130.3,21.5,184.7,33l0.1,0V530.1z M68.5,529
	l184.6,0.9v-69.8c-54.3-11.5-130.4-26.6-184.5-33v74L68.5,529z"/>
<path class="st8" d="M68.5,427v74.1l-0.1,28l184.8,0.9v-70C194,447.5,120.9,433.2,68.5,427"/>
<path class="st7" d="M271.4,530.2l-0.1,0l-18.3-0.1V460h0.1l0-0.1c27.5,5.9,49.8,10.7,66.2,14.5l0,0.2h-47.9V530.2z M253.2,529.9
	l18,0.1v-55.7h47.2c-16.3-3.7-38.2-8.5-65.2-14.2V529.9z"/>
<path class="st7" d="M253.1,460v70l18.2,0.1v-55.7h48C301.8,470.4,278.8,465.4,253.1,460"/>
<path class="st9" d="M317.7,531.1h-46.5V530h1.5v0l45.8,0.2l-0.1,0.2C318.2,530.6,317.9,530.9,317.7,531.1L317.7,531.1z M271.4,531
	h46.2c0.2-0.2,0.3-0.4,0.5-0.6l-45.4-0.2v0h-1.3V531z"/>
<path class="st9" d="M272.7,530h-1.4v1h46.3c0.2-0.2,0.4-0.5,0.7-0.8L272.7,530"/>
<polygon class="st7" points="272.7,530.1 271.2,530.1 271.2,529.9 271.3,529.9 272.7,530 "/>
<polyline class="st7" points="271.3,530 271.3,530 272.7,530 271.3,530 "/>
<path class="st8" d="M318.4,530.4L318.4,530.4l-45.6-0.2l0-0.2h46L318.4,530.4z M314.2,530.1l4,0l0,0H314.2z"/>
<path class="st8" d="M318.5,530h-45.8l45.6,0.2L318.5,530"/>
<path class="st7" d="M318.6,530.1h-47.3v-55.8h48.1v0.1l0-0.1c10.3,2.3,18.7,4.2,24.8,5.6l0.8,0.2l2.5,1l0,0.1
	C340.7,498.5,325.3,521.8,318.6,530.1L318.6,530.1z M271.4,529.9h47.1c6.7-8.2,22-31.4,28.7-48.7l-2.3-1l-0.7-0.2
	c-6.1-1.4-14.4-3.3-24.8-5.6v0h-47.9V529.9z"/>
<path class="st7" d="M319.3,474.4h-48V530h47.2c6.3-7.7,21.9-31.2,28.7-48.8l-2.4-1C338.9,478.8,330.1,476.8,319.3,474.4"/>
<path class="st10" d="M359.6,531.6V531h128l59.1,0.3v0.3H359.6z M543.9,414.4l-1.3-18.4h-1.2v-13.3h-2.7v13.3H537l-2.3,8.7
	l-11.3-11.9l-13.8-43.7h-10.9l-8.7,26.6h-28.9v8.7H460l-12.2-18l-6.2,0l-4.9-54.2l7.1-6.3l-4.3-2.1v2.3l-3.7-3.1l-1.8-19.5
	l12.4,13.3l-2.3,2.3l4.4,4.5l9.1-6.8l9.1,4.6l2.2-2.2l-2.3-2.3L551,196.5l-0.2-0.1h0.3l0,0l0,0h0.2l-0.1,0.1l11.3,9.1l9.2,9.2
	l-95.8,89l-2.3,0l-2.1,2.2l43.2,27.3l0,25.2l61.6,52.5l-9.2,9.2l-9.2,9.2L543.9,414.4z"/>
<path class="st10" d="M487.5,531.1H359.6v0.4h186.9v-0.1L487.5,531.1 M551.1,196.5l-84.4,100.3l2.3,2.3l-2.3,2.3l-9.1-4.6l-9.1,6.8
	L444,299l2.3-2.3l-12.1-13l1.8,19.2l3.5,2.9v-2.2l4.6,2.3l-7.2,6.3l4.9,54.1h6.1l12.1,17.9h1.2v-8.7h28.9l8.7-26.6h11l13.7,43.7
	l11.2,11.8l2.3-8.6h1.7v-13.3h2.9v13.3h1.2l1.3,18.5l13.9,14.7l9.1-9.1l9.1-9.1l-61.5-52.5v-25.1l-43.3-27.4l2.3-2.3h2.3l95.7-88.9
	l-9.1-9.1L551.1,196.5"/>
<path class="st11" d="M487.5,531.2l0-0.2H536v-56.5h-60.8v-13.1h-11.9v-40.6h-16.7l-5-54.6h6.3l12.2,18l1,0v-8.7H490l8.7-26.6h11.1
	l13.8,43.8l-0.2,0.1l-8.7-9.1v31.7l9.1,25h22.8v91.2L487.5,531.2z M534.6,404.5l2.3-8.8h1.7v-13.3h3.1v13.3h1.2l1.3,18.9
	L534.6,404.5z"/>
<path class="st11" d="M541.5,382.5h-2.9v13.3h-1.7l-2.3,8.6l9.4,9.9l-1.3-18.5h-1.2V382.5 M509.7,349h-11l-8.7,26.6h-28.9v8.7H460
	l-12.1-17.9h-6.1l5,54.4h16.7v40.6h11.9v13.1h60.8v56.7h-48.6l59,0.3v-91h-22.8l-9.1-25.1v-31.9l8.9,9.3L509.7,349"/>
<path class="st10" d="M374.6,251.5l-0.1-0.1l-28.9-24.3v-13.7l0,0l2.6-3.3l9.2-9.2l0.1,0.1l19.9,21.4l0,0L374.6,251.5z M345.7,227
	l28.7,24.1l2.7-28.6l-19.8-21.3l-9,9l-2.6,3.2V227z"/>
<polyline class="st10" points="357.4,201 348.2,210.2 345.6,213.4 345.6,227 374.5,251.3 377.2,222.4 357.4,201 "/>
<path class="st12" d="M345.7,227.2l-6.7-5.7l0.1-0.1l6.7-8.4V227.2z M339.3,221.5l6.3,5.3v-13.1L339.3,221.5z"/>
<polyline class="st12" points="345.6,213.4 339.1,221.6 345.6,227 345.6,213.4 "/>
<path class="st11" d="M358.5,420.8h-6.6v-13.6l0,0l8.7-8.3l0,0.3L358.5,420.8z M352.1,420.6h6.2l2-21.3l-8.2,7.9V420.6z"/>
<polyline class="st11" points="360.5,399.1 352,407.3 352,420.7 358.4,420.7 360.5,399.1 "/>
<path class="st12" d="M352.1,420.8h-3l-5.6-5.6l0.1-0.1l8.5-8.2V420.8z M349.2,420.6h2.7v-13.1l-8.1,7.8L349.2,420.6z"/>
<polyline class="st12" points="352,407.3 343.7,415.3 349.1,420.7 352,420.7 352,407.3 "/>
<path class="st13" d="M359.6,531.2v-0.8l128,0.6v0.2H359.6z M407.5,384.4v-5.3l-4.4,5.2l-19.5,0l-1.9-5.9l25.8-24.8l0-15.9
	l29.3-25.7h0.2l5,54.3h-4.9l-12.1,17.9H407.5z M374.5,251.4l2.7-29.2l57.1,61.5l1.8,19.5L374.5,251.4z"/>
<path class="st13" d="M359.6,530.5v0.6h127.9L359.6,530.5 M436.8,312.2l-29.3,25.6v16l-25.7,24.8l1.9,5.7H403l4.5-5.5v5.5h17.2
	l12.1-17.9h4.8L436.8,312.2 M377.3,222.4l-2.8,28.9l61.4,51.6l-1.8-19.2L377.3,222.4"/>
<path class="st11" d="M487.5,531.2l-128-0.6v-90.3h4.7l43.2-29.6l0-26.5h17.3l12.1-17.9l4.9,0v0.1l0.1,0l5,54.3h16.7v40.6h11.9v13.1
	h60.8v56.9H487.5z M351.9,423.6l0-3h6.4l2-21.5l21.3-20.6l0-0.1h0.1l0.1-0.1l0,0.1h0.2l-0.1,0.1l1.8,5.6h19.4l-41.2,49.5
	L351.9,423.6z"/>
<path class="st11" d="M381.8,378.5l-21.4,20.6l-2,21.6H352v2.8l0.8,0.8l9.1,9.1l41-49.2h-19.3L381.8,378.5 M441.7,366.3h-4.8
	l-12.1,17.9h-17.2v26.5l-43.3,29.6h-4.6v90.1l127.9,0.6h48.6v-56.7h-60.8v-13.1h-11.9v-40.6h-16.7L441.7,366.3"/>
<path class="st12" d="M352.1,423.8l-3.2-3.2h3.2V423.8z M349.4,420.8l2.5,2.5v-2.5H349.4z"/>
<polyline class="st12" points="352,420.7 349.1,420.7 352,423.6 352,420.7 "/>
</svg>
