<?xml version="1.0" encoding="UTF-8"?>
<svg xmlns="http://www.w3.org/2000/svg" viewBox="0 0 1025.81 1049.1">
  <defs>
    <style>
      .cls-1, .cls-2 {
        fill: #ff877a;
      }

      .cls-3 {
        fill: #f9bc26;
      }

      .cls-3, .cls-4, .cls-5, .cls-2, .cls-6, .cls-7 {
        mix-blend-mode: color;
      }

      .cls-4 {
        fill: #82d6de;
      }

      .cls-5 {
        fill: #80ea6e;
      }

      .cls-6 {
        fill: #02bc67;
      }

      .cls-8 {
        isolation: isolate;
      }
    </style>
  </defs>
  <g class="cls-8">
    <g id="Layer_1" data-name="Layer 1">
      <g>
        <g class="cls-7">
          <path class="cls-2" d="M217.82,1049.11l.02-16.58,44.03,.05,.04-32.64h3.23s.19-175.49,.19-175.49h-1.54s.01-12.93,.01-12.93h-2.08s0-5.93,0-5.93l-5.92-5.93v-8.16s5.7,0,5.7,0l.04-32.48h4.31s.19-171.18,.19-171.18h-1.54s.01-13.09,.01-13.09h-1.77s0-7.47,0-7.47l-5.61-5.63v-6.93s15.71,.02,15.71,.02l.14-128.54h-1.77s0-6.54,0-6.54l-6.07-6.09v-7.54s7.86,0,7.86,0l.07-64.66,35.71,.04,1.85-6.62,.05-44.03h9.85s13.15-56.47,13.15-56.47c-8.77-5.55-6.45-14.79-6.45-14.79,2.32-7.69,8.18-14.92,8.18-14.92v-4.31s3.24,0,3.24,0h1.59s3.23,0,3.23,0v4.31s5.84,7.24,8.14,14.94c0,0,2.3,9.24-6.48,14.77l13.02,56.51h9.85s-.05,44.04-.05,44.04l1.84,6.62,35.71,.04-.07,64.66h7.85s0,7.55,0,7.55l-6.09,6.07v6.54s-1.78,0-1.78,0l-.14,128.54,15.7,.02v6.93s-5.63,5.61-5.63,5.61v7.47s-1.78,0-1.78,0v13.09s-1.55,0-1.55,0l-.19,171.18h4.31s-.04,32.49-.04,32.49h5.7s0,8.17,0,8.17l-5.93,5.92v5.93s-2.08,0-2.08,0v12.93s-1.55,0-1.55,0l-.19,175.49h3.23s-.04,32.64-.04,32.64l44.03,.05-.02,16.32s-241.43-.51-241.43,0Z"/>
          <rect class="cls-1" x="322.09" y="181.92" width="35.1" height="2.26" transform="translate(156.21 522.48) rotate(-89.94)"/>
          <circle class="cls-1" cx="339.75" cy="163.03" r="3.55"/>
        </g>
        <polygon class="cls-4" points="427.36 983.4 427.36 162.07 446.29 70.08 660.62 155.5 647.47 1049.11 427.36 1049.11 427.36 983.4"/>
        <polygon class="cls-5" points="952.42 706.46 952.42 669.44 960.68 669.44 960.68 656.51 963.18 656.51 963.18 640.78 894.19 640.78 894.19 601.88 902.45 601.88 902.45 588.95 904.95 588.95 904.95 573.22 835.94 573.22 835.94 537.16 844.2 537.16 844.2 524.23 846.7 524.23 846.7 508.5 777.41 508.5 777.41 464.6 786.97 464.6 786.97 451.67 789.86 451.67 789.86 435.94 710.01 435.94 710.01 372.43 728.7 372.43 728.7 358.51 739.96 358.51 739.96 342.41 446.36 342.41 446.36 358.51 446.36 372.43 456.43 372.43 456.43 1049.11 710.01 1049.11 710.01 1049.11 777.23 1049.11 777.23 1049.11 835.48 1049.11 835.94 1049.11 894.19 1049.11 894.19 1049.11 951.89 1049.11 952.42 1049.11 1010.6 1049.11 1010.6 735.12 1018.86 735.12 1018.86 722.19 1021.36 722.19 1021.36 706.46 952.42 706.46"/>
        <path class="cls-3" d="M783.29,723.76l-6.84-.04-113.5-27.7v-3.54c-106.25-29.5-192.25-46.2-192.25-46.2,0,0-71.8,13.87-189.31,46.2v3.59c-6.29,.97-120.27,32.47-123.27,29.35v10.08h8.81v5.87h11.74v307.74H762.75v-307.74h8.81v-5.87h11.74v-11.74Z"/>
        <path class="cls-6" d="M218.22,444.63v-7.86l20.61-.03v-36.75h-20.61v-6.87h20.61v-28.87l-20.61-.49v-11.85h20.61v-37.78h-28.91v-94.07l-13.74-1.15v-45.59h-6.87V101.18h-6.87V11.89h-7.06l-5.41,295.37-.31,7.22-37.3-.35v37.78h29.45l-.2,10.49-29.24-.69v31.42h27.29l-.16,6.87h-27.13v30.91l-.02,6.74,6.89-.14,19.1-.45-.14,7.59h-25.83v30.91h6.87l20.7,.34,.02,6.53-6.25,319.41h-35.09v27.48H53.37v30.91H1.85v188.91H321.26v-247.29h-103.03V475.88h20.61v-31.25h-20.61Z"/>
      </g>
    </g>
  </g>
</svg>