<?xml version="1.0" encoding="utf-8"?>
<!-- Generator: Adobe Illustrator 26.0.3, SVG Export Plug-In . SVG Version: 6.00 Build 0)  -->
<svg version="1.1" id="Layer_1" xmlns="http://www.w3.org/2000/svg" xmlns:xlink="http://www.w3.org/1999/xlink" x="0px" y="0px"
     viewBox="0 0 724.1 448.5" style="enable-background:new 0 0 724.1 448.5;" xml:space="preserve">
<style type="text/css">
	.st0{fill:none;}
	.st1{fill:#F9BC26;}
	.st2{fill:#02BC67;}
	.st3{fill:#45FFAA;}
	.st4{fill:#80EA6E;}
	.st5{fill:#81EB6F;}
	.st6{fill:#3EA82C;}
	.st7{fill:#97EBF3;}
	.st8{fill:#3F939B;}
	.st9{fill:#81D5DD;}
	.st10{fill:#98FF86;}
	.st11{fill:#D0584B;}
	.st12{fill:#FFA49A;}
	.st13{fill:#FFC1BB;}
	.st14{fill:#F8BB25;}
	.st15{fill:#FFD262;}
	.st16{fill:#FF877A;}
	.st17{fill:#FFA298;}
</style>
    <g>
	<path class="st0" d="M700.7,448.5v-44.3H716v-4.4h-15.2v-17H716v-4.4h-15.2v-17H716V357h-15.2v-17H716v-4.4h-15.2v-17H716v-4.4
		h-15.2v-17H716v-4.4h-15.2v-17H716v-4.4h-15.2v-17H716V250h-15.2v-17H716v-4.4h-15.2v-17H716v-4.4h-15.2v-20.7h-11.3v-0.2
		c0-14-10.6-25.3-23.6-25.3c-13,0-23.6,11.4-23.6,25.3v0.2h-10.9v-24.4H580v24.4h-5.1v-3.9c0-10.3,0-20.5,0-30.7l-17.2-3.7v-44.4
		l-14.4-2.3l0-0.1l-1.4-7.4c-0.3-1.6-0.6-3-0.7-3.9c-3-1.3-6-3-8.8-4.6l-0.1-0.1c-4.7-2.7-9.2-5.2-13.6-6.1l-0.1,0l-0.1-0.1V59.9h5
		v-9h-5v-7.5H512v7.5h-4.9v9h4.9v19.4l-0.1,0c-5,0.9-9.9,3.6-15.1,6.4c-2.7,1.5-5.7,3.1-8.8,4.5l-1.1,9.1l-0.3,2.3l-15,2.2V58.1
		h-8.4v8.4l-16.6,6.2v-5.6h-8.4v8.7L421.6,82v-6.4h-8.4v9.5l-16.6,6.2v-5.3h-8.4v8.4l-16.6,6.2v-4.6h-8.4v72
		c-17.8,10.4-60.7,42.3-75.7,115.3l0,0.1l-0.4,0l-3.1-79.8h0.2c0.7,0,1.3,0,1.9,0c0.5,0,1,0,1.5,0c0.6,0,1.3,0,1.9,0
		c1.4-0.1,2.5-0.6,3.3-1.5c0.7-0.9,1.1-2.1,0.9-3.5c-0.1-0.6,0.1-1.3,0.2-1.9l0-0.3c0.5-2.4,1-4.9,1.5-7.4l0.6-2.8
		c-0.8,0-1.4-0.3-1.8-0.7c-0.6-0.6-0.6-1.5-0.5-2.7c0.1-1,0-2,0-2.8c-0.1-2.5-1.1-3.5-3.6-3.5l-0.2,0c-0.6,0-1.2,0-1.7,0l-3.6,0V169
		l-2.5-0.6l0-0.1c0-0.2-0.1-0.3-0.1-0.3c0-0.1,0-0.2,0-0.2l0-0.9c0-17.4,0-34.6,0-51.9v-0.2c0-0.6,0-1.1,0.3-1.4
		c0.9-0.8,1.3-1.4,1.1-1.9c-0.2-0.7-1.3-1.1-2.4-1.4l-0.1,0l-0.1-0.1c0,0,0-0.4-0.1-0.6c0-0.3-0.1-0.5-0.1-0.8
		c-0.3-5.9-0.2-11.8-0.2-17.6l0-0.6c0-7.9,0-16.1-0.6-24.1c-0.9-11.7-0.9-23.7-0.9-35.3l0-0.4c0-5.1,0-10.3-0.1-15.5
		c0-1.3,0-2.5,0-3.8V9.7c0-0.1,0-0.3,0-0.4c0-0.4,0-0.7-0.1-1c-0.2-0.4-0.6-0.7-1-0.8c-0.1,0-0.6,0.4-0.7,0.7C277,8.6,277,9,277,9.4
		c0,0.2,0,0.5,0,0.7l-0.3,12.8c-0.1,6.8-0.3,13.9-0.5,20.8c-0.1,3.2-0.1,6.5-0.2,9.2l0,0.1c-0.1,6.2-0.1,12.6-0.7,19
		c-0.7,8.1-0.5,16.4-0.4,24.4l0,1.3c0.1,3.1,0.1,6.4,0.1,9.6v3.1H275c-1.2,0-1.9,0.2-2.2,0.7c-0.2,0.4-0.2,1,0.1,1.8l0.1,0.4
		c0.4,1.1,0.9,2.1,0.9,3.1c0.1,11.8,0.1,23.9,0,35.6v16.7l-2.9,0.7v7.3h-4.6c-3.6,0-4.4,0.8-4.5,4.3c0,0.7,0,1.4,0,2l0,0.3
		c0,0.9,0.1,1.8-0.5,2.4c-0.4,0.4-1,0.6-1.8,0.6l0.6,3.2c0.1,0.7,0.3,1.4,0.4,2.1c0.1,0.5,0.2,1,0.3,1.5l0.1,0.6
		c0.4,1.6,0.8,3.3,0.8,5c0,2.2,0.8,4.8,4.4,5c0.6,0,1.2,0,1.8,0c0.5,0,1,0,1.5,0c0.6,0,1.1,0,1.7,0h0.1l0.1,0.1l-4.2,108.1h-0.4
		v-69.5l-14.5-2.6l-0.1-0.1v-31l-12.1-1.6l0-0.1c-0.8-3.6-1.5-6.5-1.8-7.9c-2.4-0.8-4.9-2-7.2-3l-0.3-0.1c-5-2.3-9.8-4.6-14.3-4.6
		h-0.2c-5,0.1-10,2.3-15.3,4.7c-2.3,1-4.8,2.2-7.4,3.1l-1.3,8l-13,1.6v31.3l-14.8,2.4v22.4h-26.7v110.4l-30.2-23.3l-0.1-5.9H60v21.3
		H43.9V346h-7.7v21.3h-8.5V346h-8.5v21.3H0.6v7.5h2.8v73.7h-81.4V0h802.1v448.5H700.7z"/>
        <path class="st0" d="M700.8,448.4v-44.1h15.2v-4.6h-15.2v-16.8h15.2v-4.6h-15.2v-16.8h15.2v-4.6h-15.2v-16.8h15.2v-4.6h-15.2v-16.8
		h15.2v-4.6h-15.2v-16.8h15.2v-4.6h-15.2v-16.8h15.2v-4.6h-15.2v-16.8h15.2v-4.6h-15.2v-16.8h15.2v-4.6h-15.2v-16.8h15.2v-4.6h-15.2
		v-20.7h-11.3v-0.1c0-14-10.7-25.4-23.7-25.4S642,172.3,642,186.3v0.1h-10.8V162h-51.4v24.4H575v-3.4c0-10.4,0-20.8,0-31.2
		l-17.2-3.7v-44.4l-14.4-2.3l0-0.1c-0.5-2.8-1-5.3-1.4-7.4c-0.3-1.6-0.6-3-0.7-3.9c-3.1-1.4-6.1-3.1-9-4.7
		c-4.8-2.7-9.2-5.2-13.6-6.1l-0.1,0V60h5v-9.2h-5v-7.5h-6.7v7.5H507V60h4.9v19.2l-0.1,0c-4.9,0.9-9.8,3.6-15,6.4
		c-2.8,1.5-5.8,3.1-8.8,4.5l-1.2,9.1l-0.3,2.3l-14.8,2.2V58h-8.6v8.5l-16.4,6.1V67h-8.6v8.8l-16.4,6.1v-6.4h-8.6V85l-16.4,6.1v-5.3
		h-8.6v8.4l-16.4,6.1v-4.5h-8.6v72.1c-17.8,10.3-60.7,42.1-75.7,115.2l-0.2,0l-3.1-79.6h0.1c0.7,0,1.3,0,1.9,0c0.5,0,1,0,1.5,0
		c0.6,0,1.3,0,1.9-0.1c1.4-0.1,2.6-0.6,3.3-1.5c0.8-0.9,1.1-2.1,0.9-3.6c-0.1-0.6,0.1-1.3,0.2-1.9l0-0.3c0.5-2.4,1-4.9,1.5-7.4
		l0.6-2.9c-0.9,0-1.5-0.2-1.8-0.7c-0.6-0.6-0.6-1.5-0.5-2.6c0-1,0-1.9,0-2.8c-0.1-2.5-1.1-3.6-3.7-3.6c-0.7,0-1.3,0-2,0l-3.5,0V169
		l-2.5-0.6l0-0.1c0-0.1,0-0.2-0.1-0.3c0-0.1,0-0.1,0-0.2c0-17.7,0-35.3,0-52.9v-0.2c0-0.5,0-1.1,0.3-1.3c0.9-0.8,1.3-1.5,1.2-2
		c-0.2-0.7-1.3-1.2-2.5-1.5l-0.1,0c0,0,0-0.4-0.1-0.6c0-0.3-0.1-0.5-0.1-0.8c-0.3-6.1-0.2-12.2-0.2-18.2c0-7.9,0-16.1-0.6-24.2
		c-0.9-11.9-0.9-24-0.9-35.7c0-5.1,0-10.3-0.1-15.5c0-1.3,0-2.5,0-3.8V9.7c0-0.1,0-0.3,0-0.4c0-0.4,0-0.7-0.1-1
		c-0.2-0.4-0.7-0.8-1.1-0.9c-0.2,0-0.7,0.5-0.8,0.8c-0.1,0.4-0.1,0.9-0.1,1.3c0,0.2,0,0.4,0,0.7c-0.1,3.5-0.1,7-0.2,10.5
		c-0.2,7.6-0.3,15.4-0.5,23.1c-0.1,3.1-0.1,6.2-0.1,9.2c-0.1,6.2-0.1,12.7-0.7,19.1c-0.7,8.2-0.5,16.5-0.4,24.6
		c0.1,3.5,0.1,7.1,0.1,10.7v3H275c-1.2,0-2,0.2-2.3,0.7c-0.3,0.4-0.2,1,0.1,1.8l0.1,0.3c0.4,1,0.9,2.1,0.9,3.1
		c0.1,13.5,0,27.2,0,40.5v11.6l-2.9,0.7v7.3h-4.5c-3.6,0-4.5,0.9-4.6,4.4c0,0.7,0,1.4,0,2l0,0.3c0,0.9,0.1,1.8-0.5,2.3
		c-0.4,0.4-1,0.6-1.8,0.6h-0.1l0.4,1.9c0.2,1.2,0.5,2.3,0.7,3.4c0.1,0.7,0.3,1.4,0.5,2.1c0.4,1.6,0.8,3.3,0.8,5
		c0,2.2,0.8,4.9,4.5,5.1c0.6,0,1.2,0,1.8,0c0.5,0,1,0,1.5,0c0.5,0,1.1,0,1.7,0h0.1l-4.2,108h-0.2v-69.5c-5.3-0.9-9.3-1.6-14.5-2.6
		l-0.1,0v-31.1l-12.2-1.6l0-0.1c-0.8-3.5-1.5-6.4-1.8-7.9c-2.6-0.9-5.1-2.1-7.6-3.3c-5-2.4-9.8-4.6-14.4-4.6h-0.2
		c-5.1,0.1-10.1,2.3-15.4,4.7c-2.4,1.1-4.8,2.2-7.4,3.1c-0.3,1.8-0.7,4.1-1.1,6.5l-0.2,1.5l-0.1,0c-2.4,0.3-4.7,0.6-7,0.9l-5.9,0.7
		v31.3c0,0-10.9,1.8-14.8,2.4v22.4H138v110.3l-30.1-23.1l0-5.9h-48v21.3H44v-21.3h-7.9v21.3h-8.3v-21.3h-8.7v21.3H0.5v7.7h2.8v73.5
		h-81.2V0.1h801.9v448.3H700.8z"/>
        <path class="st0" d="M700.8,448.4v-44.1h15.2v-4.6h-15.2v-16.8h15.2v-4.6h-15.2v-16.8h15.2v-4.6h-15.2v-16.8h15.2v-4.6h-15.2v-16.8
		h15.2v-4.6h-15.2v-16.8h15.2v-4.6h-15.2v-16.8h15.2v-4.6h-15.2v-16.8h15.2v-4.6h-15.2v-16.8h15.2v-4.6h-15.2v-16.8h15.2v-4.6h-15.2
		v-20.7h-11.3v-0.1c0-14-10.6-25.4-23.7-25.4S642,172.3,642,186.3v0.1h-10.7V162h-51.4v24.4H575l0-3.4c0-10.4,0-20.8,0-31.2
		l-17.2-3.7v-44.4l-14.4-2.3l0-0.1c-0.5-2.8-1-5.3-1.4-7.4c-0.3-1.6-0.6-3-0.7-3.9c-3.1-1.4-6.1-3.1-9-4.7
		c-4.8-2.7-9.3-5.2-13.6-6.1l-0.1,0V60h5v-9.2h-5v-7.5h-6.7v7.5H507V60h4.9v19.2l-0.1,0c-4.9,0.9-9.8,3.6-15,6.4
		c-2.8,1.5-5.8,3.1-8.8,4.5l-1.2,9.1l-0.3,2.3l-14.8,2.2V58h-8.6v8.5l-16.4,6.1V67h-8.6v8.7l-16.4,6.1v-6.4h-8.6V85l-16.4,6.1v-5.3
		h-8.6v8.4l-16.4,6.1v-4.5h-8.6v72.1c-17.8,10.3-60.7,42.1-75.7,115.2l-0.2,0l-3.1-79.6h0.1c0.7,0,1.3,0,1.9,0c0.5,0,1.1,0,1.6,0
		c0.6,0,1.3,0,1.9,0c1.4-0.1,2.6-0.6,3.3-1.5c0.8-0.9,1.1-2.1,0.9-3.6c-0.1-0.6,0.1-1.3,0.2-1.9l0.1-0.3c0.5-2.4,1-4.9,1.5-7.4
		l0.6-2.9c-0.9,0-1.5-0.2-1.8-0.7c-0.6-0.6-0.6-1.5-0.5-2.6c0.1-1,0-2,0-2.8c-0.1-2.5-1.1-3.6-3.7-3.6c-0.7,0-1.3,0-1.9,0l-3.5,0
		V169l-2.5-0.6l0-0.1c0-0.1-0.1-0.2-0.1-0.3c0-0.1,0-0.1,0-0.2c0-17.7,0-35.3,0-52.9l0-0.2c0-0.5,0-1.1,0.3-1.4
		c0.9-0.8,1.3-1.5,1.2-2c-0.2-0.7-1.3-1.2-2.5-1.5l-0.1,0c0,0,0-0.4-0.1-0.6c0-0.3-0.1-0.5-0.1-0.8c-0.3-6.1-0.2-12.2-0.2-18.2
		c0-7.9,0-16.1-0.6-24.1c-0.9-11.9-0.9-24-0.9-35.7c0-5.1,0-10.3-0.1-15.5c0-1.3,0-2.5,0-3.8l0-1.5c0-0.1,0-0.3,0-0.4
		c0-0.4,0.1-0.7-0.1-1c-0.2-0.4-0.7-0.8-1.1-0.9c-0.2,0-0.7,0.5-0.8,0.8c-0.1,0.4-0.1,0.9-0.1,1.3c0,0.2,0,0.5,0,0.7
		c-0.1,3.5-0.2,7-0.2,10.5c-0.2,7.6-0.3,15.4-0.5,23.1c-0.1,3.1-0.1,6.2-0.2,9.2c-0.1,6.2-0.1,12.7-0.7,19.1
		c-0.7,8.1-0.5,16.5-0.4,24.6c0.1,3.5,0.1,7.1,0.1,10.6v3l-0.1,0c-1.2,0-2,0.2-2.3,0.7c-0.3,0.4-0.2,1,0.1,1.8l0.2,0.4
		c0.4,1,0.9,2,0.9,3.1c0.1,13.5,0.1,27.2,0.1,40.5l0,11.6l-2.9,0.7v7.3h-4.5c-3.6,0-4.5,0.9-4.6,4.4c0,0.7,0,1.4,0,2l0,0.3
		c0,0.9,0.1,1.8-0.5,2.3c-0.4,0.4-0.9,0.6-1.8,0.6h-0.1l0.4,1.9c0.2,1.2,0.5,2.3,0.7,3.4c0.1,0.7,0.3,1.4,0.5,2.1
		c0.4,1.6,0.8,3.3,0.8,5c0,2.2,0.8,4.9,4.5,5.1c0.6,0,1.2,0,1.8,0c0.5,0,1,0,1.5,0c0.6,0,1.1,0,1.7,0h0.1l-4.2,108l-0.2,0v-69.5
		c-5.3-0.9-9.3-1.7-14.5-2.6l-0.1,0v-31.1l-12.2-1.6l0-0.1c-0.8-3.5-1.5-6.4-1.8-7.9c-2.6-0.9-5.1-2.1-7.6-3.3
		c-5-2.3-9.8-4.6-14.4-4.6h-0.2c-5.1,0.1-10.1,2.3-15.4,4.7c-2.4,1.1-4.8,2.2-7.4,3.1c-0.3,1.8-0.7,4.1-1.1,6.5l-0.2,1.5l-0.1,0
		c-2.4,0.3-4.7,0.6-7,0.9l-5.9,0.7v31.3c0,0-10.9,1.8-14.8,2.4v22.4H138v110.3L108,351.8l0-5.9h-48v21.3H44v-21.3h-7.9v21.3h-8.3
		v-21.3h-8.7v21.3H0.5v7.7h2.8v73.5h-81.2V0.1H724v448.3H700.8z"/>
        <path class="st0" d="M-77.7,0.2v448.1H3.2V375H0.4v-7.9H19v-21.3h8.9v21.3H36v-21.3h8.1v21.3h15.7v-21.3H108v6l29.9,23V264.5h26.7
		c0-7.4,0-14.9,0-22.3c5.4-0.9,9.4-1.5,14.8-2.4c0-10.4,0-20.7,0-31.3c5-0.6,8.7-1.1,13.1-1.6c0.5-3,1-5.9,1.3-8
		c8.2-3,15.4-7.7,22.8-7.9c0.1,0,0.1,0,0.2,0c6.8,0,13.7,4.7,22.1,7.9c0.3,1.5,1,4.4,1.8,7.9c3.5,0.4,7.2,0.9,12.2,1.6
		c0,10.2,0,20.5,0,31.1c5.2,0.9,9.2,1.6,14.5,2.6c0,23.2,0,46.4,0,69.6c1.4-35.9,2.8-71.9,4.2-107.9c-1.1,0-2.2,0-3.2,0
		c-0.6,0-1.2,0-1.8,0c-3.2-0.1-4.6-2.2-4.6-5.2c0-2.4-0.8-4.7-1.3-7.1c-0.3-1.7-0.7-3.5-1.1-5.5c0.1,0,0.1,0,0.2,0
		c2.4,0,2.2-1.6,2.1-3.1c0-0.7,0-1.4,0-2c0-3.6,1-4.4,4.7-4.5c0.5,0,1,0,1.5,0c0.9,0,1.8,0,2.9,0c0-2.5,0-4.9,0-7.3
		c1-0.2,1.8-0.4,2.9-0.7c0-0.9,0-1.7,0-2.5c0-16.5,0-33,0-49.6c0-1.1-0.6-2.3-1-3.4c-0.8-2,0.1-2.7,2.2-2.7c0-1.1,0-2,0-2.9
		c0-11.8-0.7-23.6,0.2-35.2c0.8-9.5,0.5-18.9,0.8-28.3c0.3-11.2,0.5-22.4,0.8-33.6c0-0.7-0.1-1.4,0.1-2c0.1-0.3,0.6-0.9,0.9-0.9
		c0,0,0,0,0,0c0.5,0.1,1,0.5,1.1,0.9c0.2,0.4,0.1,1,0.1,1.5c0,1.8,0,3.6,0,5.4c0.2,17.1-0.3,34.2,1,51.2c1.1,14.2,0.2,28.2,0.8,42.4
		c0,0.4,0.1,0.8,0.1,1.3c2.2,0.6,3.8,1.4,1.3,3.7c-0.3,0.3-0.2,0.9-0.2,1.4c0,17.6,0,35.2,0,52.9c0,0.1,0,0.2,0.1,0.4
		c0.7,0.2,1.5,0.4,2.5,0.6c0,2.3,0,4.7,0,7.4c1.2,0,2.3,0,3.4,0c0.7,0,1.3,0,2,0c2.7,0.1,3.8,1.1,3.8,3.7c0,0.9,0,1.9,0,2.8
		c-0.1,1.6-0.1,3.1,2.4,3.1c-0.8,3.6-1.5,7.1-2.2,10.4c-0.1,0.7-0.3,1.4-0.2,2.1c0.3,2.9-1.3,5-4.3,5.2c-0.6,0-1.2,0.1-1.9,0.1
		c-1,0-2.2,0-3.4,0c1,26.5,2,53,3.1,79.5c14.9-72.6,56.8-104.3,75.7-115.2V95.7h8.8v4.5l16.2-6v-8.5h8.8V91l16.2-6v-9.6h8.8v6.3
		l16.2-6v-8.8h8.8v5.5l16.2-6v-8.5h8.8v45.7c5.5-0.8,9.7-1.4,14.6-2.2c0.6-4.3,1.1-8.4,1.5-11.4c8.5-3.8,16.2-9.5,23.8-10.9v-19
		h-4.9v-9.4h4.9v-7.5h6.9v7.5h5v9.4h-5v19.1c7,1.5,14.2,7,22.7,10.9c0.4,2.1,1.2,6.2,2.1,11.2c4.1,0.7,8.5,1.3,14.4,2.3
		c0,14.6,0,29.3,0,44.4c6.1,1.3,10.9,2.3,17.2,3.7c0,11.5,0,23,0,34.6h4.7v-24.4h51.6v24.4h10.5c0-14.1,10.7-25.5,23.8-25.5
		c13.2,0,23.8,11.4,23.8,25.5h11.3V207h15.2v4.8h-15.2v16.6h15.2v4.8h-15.2v16.6h15.2v4.8h-15.2v16.6h15.2v4.8h-15.2v16.6h15.2v4.8
		h-15.2V314h15.2v4.8h-15.2v16.6h15.2v4.8h-15.2v16.6h15.2v4.8h-15.2v16.6h15.2v4.8h-15.2v16.6h15.2v4.8h-15.2v44h23V0.2H-77.7z"/>
        <path class="st1" d="M640.1,448.5v-18.4l-0.4-99.2l-0.2-12.8l-21.4-0.6l-6.5-0.4h-4.2L608,263l-26.5-16.9l-5-3l-1.7-0.9l0-5.6
		c0-16.8,0.1-33.5,0.1-50.3v-0.2h4.7v-24.4h52v24.4h10.2c0.1-14.1,10.9-25.5,24-25.5s23.9,11.4,24,25.5h11.3v20.7h15.2v5.2h-15.2
		v16.2h15.2v5.2h-15.2v16.2h15.2v5.2h-15.2V271h15.2v5.2h-15.2v16.2h15.2v5.2h-15.2v16.2h15.2v5.2h-15.2v16.2h15.2v5.2h-15.2v16.2
		h15.2v5.2h-15.2V378h15.2v5.2h-15.2v16.2h15.2v5.2l-0.2,0l-15.1,0v44H640.1z"/>
        <path class="st1" d="M640.2,448.4v-18.3l-0.4-99.2l-0.2-12.9l-21.5-0.6l-6.5-0.4h-4.1l0.5-54l-26.5-17l-5-3l-1.7-0.9l0-5.6
		c0-16.8,0-33.5,0.1-50.3v-0.1h4.7v-24.4h51.8v24.4h10.3c0-14.1,10.8-25.5,23.9-25.5s23.9,11.4,23.9,25.5h11.3v20.7h15.2v5h-15.2
		v16.4h15.2v5h-15.2v16.4h15.2v5h-15.2v16.4h15.2v5h-15.2v16.4h15.2v5h-15.2v16.4h15.2v5h-15.2v16.4h15.2v5h-15.2v16.4h15.2v5h-15.2
		v16.4h15.2v5h-15.2v16.4h15.2v5l-0.1,0h-15.1v44L640.2,448.4L640.2,448.4z"/>
        <path class="st1" d="M640.2,448.4v-18.3l-0.4-99.2l-0.2-12.9l-21.5-0.6l-6.5-0.3h-4.1l0.6-54l-26.5-17l-5-3l-1.7-0.9l0-5.6
		c0-16.8,0.1-33.5,0.1-50.3v-0.1h4.7v-24.4h51.8v24.4h10.4c0.1-14.1,10.8-25.5,23.9-25.5s23.9,11.4,23.9,25.5H701v20.7h15.2v5H701
		v16.4h15.2v5H701v16.4h15.2v5H701v16.4h15.2v5H701v16.4h15.2v5H701v16.4h15.2v5H701v16.4h15.2v5H701v16.4h15.2v5H701v16.4h15.2v5
		H701v16.4h15.2v5l-0.1,0H701v44H640.2z"/>
        <path class="st1" d="M716.2,404.4v-4.8H701V383h15.2v-4.8H701v-16.6h15.2v-4.8H701v-16.6h15.2v-4.8H701v-16.6h15.2V314H701v-16.6
		h15.2v-4.8H701V276h15.2v-4.8H701v-16.6h15.2v-4.8H701v-16.6h15.2v-4.8H701v-16.6h15.2V207H701v-20.7h-11.3
		c0-14.1-10.7-25.5-23.8-25.5c-13.2,0-23.8,11.4-23.8,25.5h-10.5v-24.4h-51.6v24.4h-4.7c0,18.6,0,37.1-0.1,55.8l1.6,0.9l5,3
		l26.5,17.1l-0.5,53.9h4l6.5,0.4l21.5,0.6l0.2,13l0.4,99.2v18.2H701v-44L716.2,404.4L716.2,404.4L716.2,404.4z"/>
        <polygon class="st2" points="3,448.5 3,375.2 0.2,375.2 0.2,366.9 18.8,366.9 18.8,345.6 28.1,345.6 28.1,366.9 35.8,366.9
		35.8,345.6 44.3,345.6 44.3,366.9 59.6,366.9 59.6,345.6 108.2,345.6 108.2,352.1 106,350.4 106,448.5 	"/>
        <polygon class="st2" points="3.1,448.4 3.1,375.1 0.3,375.1 0.3,367 18.9,367 18.9,345.7 28,345.7 28,367 35.9,367 35.9,345.7
		44.2,345.7 44.2,367 59.7,367 59.7,345.7 108.1,345.7 108.1,351.9 105.9,350.2 105.9,448.4 	"/>
        <polygon class="st2" points="3.1,448.4 3.1,375.1 0.3,375.1 0.3,367 18.9,367 18.9,345.7 28,345.7 28,367 35.9,367 35.9,345.7
		44.2,345.7 44.2,367 59.7,367 59.7,345.7 108.1,345.7 108.1,351.9 105.9,350.2 105.9,448.4 	"/>
        <polygon class="st2" points="108,351.7 108,345.8 59.8,345.8 59.8,367.1 44.1,367.1 44.1,345.8 36,345.8 36,367.1 27.9,367.1
		27.9,345.8 19,345.8 19,367.1 0.4,367.1 0.4,375 3.2,375 3.2,448.3 105.8,448.3 105.8,350 	"/>
        <polygon class="st2" points="558,233.4 558.1,233 569.9,233 569.9,239.6 	"/>
        <polygon class="st2" points="558.1,233.3 558.2,233.1 569.8,233.1 569.8,239.4 	"/>
        <polygon class="st2" points="558.1,233.3 558.2,233.1 569.8,233.1 569.8,239.4 	"/>
        <polygon class="st2" points="569.7,233.2 558.2,233.2 569.7,239.3 	"/>
        <path class="st2" d="M533.6,370.3L509.1,346l-22.5,22.3l-0.1,0l-1.1-0.5v-0.1c0-1.1,0-2.2,0-3.3l0-0.4c0-2.3,0-4.6,0.1-6.9
		c0.2-3.9-0.5-6.6-2.2-9.1c-0.8-1.1-1.2-2.9-1.3-4.7c-0.1-8.6-0.1-16.9,0-24.8c0-1.3,0.4-2.6,0.7-3.7l0-0.1c0.1-0.4,0.2-0.8,0.3-1.1
		c-0.1-0.8-0.3-1.7-0.4-2.5c-0.3-1.6-0.5-3.1-0.5-4.5c-0.1-2.5,0-5.1,0-7.6l0-0.4c0-3.3,0.1-6.7-0.1-10c-0.1-2.6,0.2-5.2,0.4-7.8
		l0-0.2c0.4-3.4,0.7-6.8,0.2-10.1c-0.1-0.5-0.1-0.9-0.1-1.4l0-0.3c0-1.1-0.1-2.2-0.5-3c-1.9-3.6-1.3-7-0.4-9.9
		c0.1-0.2,0.1-0.3,0.2-0.5c0.3-0.8,0.5-1.5,0.3-2c-0.9-2.9-1.9-5.8-3-9.1l-0.2-0.7c-0.4-1.1-0.8-2.3-1.2-3.5
		c-0.6,1.7-3.8,10.8-4.9,14.1c2,2.4,1.6,5.4,1.2,8.4l0,0.1c0,0.3-0.1,0.6-0.1,0.9c-0.1,1.2-0.4,2.4-0.7,3.6l0,0.2
		c-0.2,0.9-0.4,1.8-0.5,2.7c-0.1,0.9-0.2,1.9-0.2,2.8c0,0.5-0.1,0.9-0.1,1.3l0,0.1l-0.1,0.1c-0.2,0-0.3,0-0.4,0l-0.1,0l-0.1-0.1
		v-171l14.6-2.2c0.1-0.9,1.2-8.8,1.5-11.3c3.1-1.5,6-3.1,8.8-4.6l0.1-0.1c5.2-2.8,10-5.4,14.9-6.4V60.3h-4.9v-9.8h4.9V43h7.3v7.5h5
		v9.8h-5V79c4.3,1,8.7,3.4,13.4,6.1l0.2,0.1c2.9,1.6,5.8,3.3,8.9,4.7c0.5,2,1.1,5.4,2.2,11.3l14.4,2.3v44.5l3.1,0.7
		c4.7,1,8.8,1.9,14,3l0.1,0l0.1,0.1c0,10.7,0,21.3,0,31.9v3h-5.5v20.7h-14.1v4.4h14.1v17h-14.1v4.5l0,0l0,8v78.8
		c-2.8,2.8-5.4,5.3-8,7.9l-0.9,0.9v-0.5c0-2-0.6-4-1.2-5.8c-0.9-2.8-1.7-5.4-0.4-8.3c0-0.1-0.1-0.4-0.1-0.6l-4-9.6l-0.5,1.2
		c-0.5,1.1-0.9,2.1-1.3,3c-0.3,0.6-0.5,1.3-0.8,1.9c-1.2,2.6-2.4,5.4-0.7,8.5c0.3,0.5,0,1.3-0.2,2c-0.1,0.3-0.2,0.6-0.2,0.9
		c-0.1,0.5-0.2,1-0.3,1.5c-0.2,1-0.5,2.1-0.5,3.1c0,1.3,0,2.6,0,3.8l0,0.2c0,2.8,0,5.3,0.1,7.9c0.4,6.4,0.4,13,0.3,19.4l0,0.2
		c0,2.6-0.1,5.1-0.1,7.7c0,2-0.4,3.9-3.2,5.2l-0.1,0L533.6,370.3z"/>
        <path class="st2" d="M509.1,345.9c-5.2,5.1-22.5,22.4-22.5,22.4l0,0l-1.1-0.5v-0.1c0-1.1,0-2.2,0-3.2c0-2.4,0-4.9,0-7.3
		c0.2-3.9-0.5-6.7-2.2-9.2c-0.8-1.1-1.2-2.8-1.2-4.6c-0.1-8.5-0.1-16.9,0-24.8c0-1.3,0.4-2.5,0.8-3.7c0.1-0.5,0.3-0.9,0.4-1.3
		c-0.1-0.9-0.2-1.7-0.4-2.5c-0.2-1.6-0.5-3-0.5-4.5c0-2.5,0-5.1,0-7.6c0-3.4,0.1-7-0.1-10.5c-0.1-2.7,0.2-5.4,0.5-8
		c0.4-3.3,0.7-6.8,0.2-10.1c-0.1-0.5-0.1-1.1-0.1-1.6c0-1.1-0.1-2.2-0.5-3c-1.9-3.5-1.2-7-0.4-9.8c0-0.2,0.1-0.3,0.2-0.5
		c0.2-0.7,0.5-1.5,0.3-2.1c-1-3.1-2-6.2-3.3-9.8c-0.4-1.2-0.8-2.4-1.3-3.8c0,0-3.8,10.7-5,14.4c2,2.4,1.6,5.5,1.2,8.4
		c0,0.4-0.1,0.7-0.1,1.1c-0.2,1.2-0.4,2.4-0.7,3.6c-0.2,0.9-0.4,1.9-0.6,2.9c-0.2,1-0.2,1.9-0.2,2.9c0,0.4,0,0.8-0.1,1.2l0,0.1h-0.1
		c-0.1,0-0.2,0-0.3,0l-0.1,0V103.5l1.9-0.3c4.6-0.7,8.4-1.2,12.7-1.9c0,0,1.2-8.7,1.5-11.3c3.1-1.4,6-3,8.8-4.5
		c5.2-2.8,10.1-5.5,15-6.4V60.2h-4.9v-9.6h4.9v-7.5h7.1v7.5h5v9.6h-5v18.9c4.3,1,8.8,3.5,13.6,6.1c2.9,1.6,5.9,3.3,9,4.8
		c0.5,2.2,1.2,6.3,2.2,11.2l14.4,2.3V148c6.1,1.3,10.8,2.3,17.2,3.7l0.1,0v0.1c0,10.6,0,21.2,0,31.8v2.9h-5.5v20.7h-14.1v4.6h14.1
		v16.8h-14.1v4.6l0.1,0.1l-0.1,7.9v78.8c-2.7,2.7-5.3,5.2-8,7.8l-0.7,0.7v-0.2c0-2.1-0.6-4-1.2-5.8c-0.9-2.8-1.7-5.4-0.5-8.3
		c0.1-0.2-0.1-0.5-0.2-0.7l-4.1-9.7l-0.6,1.4c-0.5,1.2-0.9,2.1-1.3,3c-0.2,0.6-0.5,1.3-0.8,1.9c-1.2,2.7-2.4,5.4-0.7,8.6
		c0.3,0.5,0,1.2-0.2,1.9c-0.1,0.3-0.2,0.6-0.2,0.9c-0.1,0.5-0.2,1-0.3,1.5c-0.2,1-0.5,2.1-0.5,3.1c0,1.3,0,2.7,0,4
		c0,2.6,0,5.2,0.1,7.9c0.5,6.5,0.3,13.1,0.3,19.5c0,2.6-0.1,5.1-0.1,7.7c0,1.9-0.4,3.9-3.1,5.1l-0.1,0L509.1,345.9z"/>
        <path class="st2" d="M509.1,345.9c-5.2,5.1-22.5,22.4-22.5,22.4l0,0l-1.1-0.5v-0.1c0-1.1,0-2.2,0-3.2c0-2.4,0-4.9,0.1-7.3
		c0.2-3.9-0.5-6.7-2.2-9.2c-0.8-1.1-1.2-2.8-1.2-4.6c-0.1-8.6-0.1-16.9,0-24.8c0-1.3,0.4-2.6,0.8-3.7c0.1-0.5,0.3-0.9,0.4-1.3
		c-0.1-0.9-0.3-1.7-0.4-2.5c-0.2-1.6-0.5-3.1-0.5-4.5c-0.1-2.5,0-5.1,0-7.6c0-3.4,0.1-7-0.1-10.4c-0.1-2.7,0.2-5.4,0.4-8
		c0.4-3.3,0.7-6.7,0.2-10.1c-0.1-0.5-0.1-1.1-0.1-1.6c0-1.1-0.1-2.2-0.6-3c-1.9-3.5-1.2-7-0.4-9.8c0-0.2,0.1-0.3,0.2-0.5
		c0.3-0.7,0.5-1.5,0.3-2.1c-1-3.1-2-6.2-3.3-9.8c-0.4-1.2-0.8-2.4-1.3-3.8c0,0-3.7,10.7-5,14.4c2,2.4,1.6,5.5,1.2,8.4
		c0,0.4-0.1,0.7-0.1,1.1c-0.2,1.2-0.4,2.4-0.7,3.6c-0.2,0.9-0.4,1.9-0.6,2.9c-0.1,1-0.2,1.9-0.3,2.9c0,0.4,0,0.8-0.1,1.3l0,0.1h-0.1
		c-0.1,0-0.2,0-0.3,0l-0.1,0V103.5l1.9-0.3c4.6-0.7,8.4-1.3,12.7-1.9c0,0,1.2-8.7,1.5-11.3c3.1-1.4,6-3,8.8-4.5
		c5.2-2.8,10.1-5.5,15.1-6.4V60.2h-4.9v-9.6h4.9v-7.5h7.1v7.5h5v9.6h-5v18.9c4.4,1,8.8,3.5,13.6,6.1c2.9,1.6,5.9,3.3,9,4.7
		c0.5,2.2,1.2,6.3,2.2,11.3l14.4,2.3V148c6.1,1.3,10.8,2.3,17.2,3.7l0.1,0v0.1c0,10.6,0,21.2,0,31.8l0,2.9h-5.5v20.7h-14.1v4.6h14.1
		v16.8h-14.1l0,4.6l0.1,0.1l-0.1,7.9v78.8c-2.7,2.7-5.4,5.3-8,7.8l-0.7,0.7l0-0.2c0-2.1-0.6-4-1.2-5.8c-0.9-2.8-1.7-5.4-0.4-8.3
		c0.1-0.2-0.1-0.5-0.2-0.7l-4.1-9.7l-0.6,1.4c-0.5,1.2-0.9,2.1-1.3,3c-0.2,0.6-0.5,1.3-0.8,1.9c-1.2,2.7-2.4,5.4-0.7,8.6
		c0.3,0.5,0,1.2-0.2,1.9c-0.1,0.3-0.2,0.6-0.2,0.9c-0.1,0.5-0.2,1-0.3,1.5c-0.2,1-0.5,2.1-0.5,3.1c0,1.3,0,2.7,0,4
		c0,2.6-0.1,5.2,0.1,7.9c0.4,6.5,0.4,13.1,0.3,19.6c0,2.6-0.1,5.1-0.1,7.7c0,1.9-0.4,3.9-3.1,5.1l-0.1,0L509.1,345.9z"/>
        <path class="st2" d="M472.1,274.4c0.1-1.4,0.1-2.8,0.3-4.2c0.3-2.2,1-4.3,1.2-6.5c0.4-3.3,1.2-6.7-1.1-9.5
		c1.7-4.8,3.2-9.2,5.1-14.7c1.8,5.3,3.3,9.5,4.7,13.8c0.2,0.8-0.2,1.8-0.5,2.6c-1,3.3-1.4,6.5,0.3,9.8c0.7,1.3,0.5,3.1,0.7,4.7
		c0.9,6.1-1,12-0.7,18.1c0.3,6,0,12,0.1,18c0,2.2,0.5,4.4,0.9,7c-0.3,1.3-1.1,3.1-1.1,4.9c-0.1,8.3-0.1,16.6,0,24.8
		c0,1.5,0.4,3.3,1.2,4.6c1.9,2.9,2.3,5.9,2.2,9.2c-0.1,3.5,0,7,0,10.5c0.3,0.1,0.6,0.3,1,0.5c7.4-7.3,14.8-14.7,22.6-22.4
		c8.3,8.2,16.5,16.3,24.6,24.4c2.6-1.1,3.1-3,3.1-5c0-9.1,0.4-18.2-0.2-27.3c-0.3-4-0.1-7.9-0.1-11.9c0-1.6,0.5-3.1,0.8-4.7
		c0.2-0.9,0.8-2.1,0.4-2.8c-2.2-4,0.2-7.2,1.5-10.5c0.5-1.4,1.1-2.7,2-4.6c1.5,3.6,2.8,6.7,4.1,9.8c0.1,0.3,0.3,0.7,0.2,0.9
		c-2.1,4.7,1.7,9,1.6,14.1c2.8-2.7,5.6-5.4,8.5-8.2v-1.1V314v-16.6v-4.8V276v-4.8v-16.6v-4.8v-8.6l0.1-7.9h-0.1v-4.8h14.1v-16.6
		h-14.1V207h14.1v-20.7h5.5c0-11.6,0-23.1,0-34.6c-6.3-1.4-11.1-2.4-17.2-3.7c0-15.2,0-29.9,0-44.4c-5.9-0.9-10.3-1.6-14.4-2.3
		c-0.9-5-1.7-9.2-2.1-11.2c-8.4-3.9-15.7-9.4-22.7-10.9V60.1h5v-9.4h-5v-7.5h-6.9v7.5h-4.9v9.4h4.9v19c-7.7,1.4-15.3,7.1-23.8,10.9
		c-0.4,3-1,7.1-1.5,11.4c-4.9,0.7-9.1,1.3-14.6,2.2v170.8C471.9,274.4,472,274.4,472.1,274.4z"/>
        <path class="st3" d="M569.5,239.4v-6h-11.3l-2.3-1.2l0,1.2h-0.3l-0.1-0.1l0-5.1h14.1V212h-14.1v-5.2h14.1v-20.7h5.9v0.2
		c0,16.7,0,33.5-0.1,50.3l0,5.8L569.5,239.4z"/>
        <path class="st3" d="M569.6,239.3v-6h-11.4l-2.4-1.2l0,1.2h-0.2l-0.1-0.1v-4.9h14.1v-16.4h-14.1v-5h14.1v-20.7h5.7v0.1
		c0,18.5,0,37-0.1,55.6v0.3L569.6,239.3z"/>
        <path class="st3" d="M569.6,239.3v-6h-11.4l-2.4-1.2l0,1.2h-0.2l-0.1-0.1v-4.9h14.1v-16.4h-14.1v-5h14.1v-20.7h5.7l0,0.1
		c0,18.5,0,37-0.1,55.6l0,0.3L569.6,239.3z"/>
        <path class="st3" d="M569.7,207h-14.1v4.8h14.1v16.6h-14.1v4.8h0.1l0-1.3l2.5,1.3h11.5v6l5.4,2.8c0-18.6,0.1-37.2,0.1-55.8h-5.5
		L569.7,207L569.7,207z"/>
        <path class="st4" d="M362.9,382.3c-8.9-8.1-19.5-14.6-31.6-19.4c-13.7-5.4-27.6-9.3-41.4-11.5l-0.1,0l-0.1-0.1l-2.6-68.2
		c15-73.3,58-105.1,75.8-115.4l0.3-0.2v215.1L362.9,382.3z"/>
        <path class="st4" d="M362.9,382.3c-8.9-8.1-19.5-14.6-31.6-19.4c-13.7-5.4-27.6-9.3-41.4-11.5l-0.1,0l-2.6-68.2
		c15-73.2,58-105,75.7-115.3l0.1-0.1v214.6L362.9,382.3z"/>
        <path class="st4" d="M362.9,382.3c-8.9-8.1-19.5-14.6-31.6-19.4c-13.7-5.4-27.6-9.3-41.4-11.5l-0.1,0l-2.6-68.2
		c15-73.2,58-105,75.7-115.3l0.1-0.1v214.7L362.9,382.3z"/>
        <path class="st4" d="M331.4,362.8c11.7,4.6,22.4,10.9,31.6,19.4V167.9c-18.9,10.9-60.8,42.7-75.7,115.2c0.9,22.7,1.8,45.4,2.6,68.1
		C303.8,353.5,317.6,357.4,331.4,362.8z"/>
        <path class="st5" d="M588.1,448.5v-0.2c0-2.4,0.1-5.2-0.1-8c-0.5-8.7-1.3-18-2.2-28.5c-0.1-1.6-0.6-3.2-1-4.7
		c-0.2-0.7-0.4-1.5-0.6-2.2c-0.1-0.6-0.3-1.2-0.5-1.9l-0.1-0.3c-0.5-1.6-1-3.2-1-4.9c-0.2-8-0.1-15.9,0-21.9c0-1.5,0.3-3,0.6-4.5
		l0.1-0.5c0.1-0.6,0.2-1.3,0.4-2c0-0.4-0.1-0.8-0.2-1.3c-0.2-1.1-0.4-2.6-0.4-4.2c-0.1-6.8-0.1-13.8,0-20.5l0-3.4c0-0.3,0-0.5,0-0.8
		c0-0.9,0-2.1,0.2-3.1c0.9-3.8,0.8-7.9-0.5-13.2c-0.6-2.7-0.8-5.1,0.5-7.9l-2.4-5.6l-2.2-5.2l-1,2.5c-0.7,1.7-1.3,3.1-1.9,4.6
		c-0.2,0.4-0.3,0.8-0.5,1.1l-0.1,0.3l-0.3-0.1l0.1-24.3c0-15.3,0.1-30.5,0.1-45.8v-0.3l1.9,1l5,3l26.6,17.1l-0.5,53.9h3.8l6.5,0.4
		l21.7,0.7l0.2,13.2l0.4,99.2v18.4H588.1z"/>
        <path class="st5" d="M588.2,448.4v-0.1c0-2.6,0.1-5.3-0.1-8c-0.5-8.9-1.3-18.2-2.2-28.5c-0.1-1.6-0.6-3.2-1-4.7
		c-0.2-0.7-0.4-1.5-0.6-2.2c-0.2-0.7-0.4-1.4-0.6-2.1c-0.5-1.6-1-3.2-1-4.8c-0.2-7.8-0.1-15.4,0-21.9c0-1.5,0.3-2.9,0.6-4.5
		c0.2-0.8,0.3-1.6,0.5-2.5c0-0.4-0.1-0.9-0.2-1.4c-0.2-1.3-0.4-2.7-0.4-4.1c-0.1-6.8,0-13.8,0-20.5l0-3.3c0-0.3,0-0.5,0-0.8
		c0-1,0-2.1,0.2-3.1c0.9-3.8,0.8-8-0.5-13.2c-0.6-2.7-0.8-5.1,0.5-7.9l-2.4-5.7l-2.3-5.4l-1.1,2.7c-0.7,1.7-1.3,3.1-1.9,4.6
		c-0.2,0.4-0.3,0.8-0.5,1.1l-0.1,0.2l-0.2,0l0-24.2c0-15.3,0.1-30.5,0.1-45.8v-0.2l1.8,0.9l5,3l26.5,17.1l-0.5,53.9h3.9l6.5,0.4
		l21.6,0.6l0.2,13.1l0.4,99.2v18.3H588.2z"/>
        <path class="st5" d="M588.2,448.4l0-0.1c0-2.6,0.1-5.3-0.1-8c-0.5-8.8-1.3-18.2-2.2-28.5c-0.1-1.6-0.6-3.2-1-4.7
		c-0.2-0.7-0.4-1.5-0.6-2.2c-0.2-0.7-0.4-1.4-0.6-2.1c-0.5-1.6-1-3.2-1-4.8c-0.2-7.8-0.1-15.4,0-21.9c0-1.5,0.3-2.9,0.6-4.5
		c0.2-0.8,0.3-1.6,0.5-2.5c0-0.4-0.1-0.9-0.2-1.4c-0.2-1.3-0.4-2.7-0.4-4.2c-0.1-6.8,0-13.8,0-20.5l0-3.3c0-0.3,0-0.5,0-0.8
		c0-1,0-2.1,0.2-3.1c0.9-3.8,0.8-8-0.5-13.2c-0.6-2.7-0.8-5.1,0.5-7.9l-2.4-5.7l-2.3-5.4l-1.1,2.7c-0.7,1.7-1.3,3.1-1.9,4.6
		c-0.1,0.4-0.3,0.7-0.5,1.1l-0.1,0.2l-0.2,0l0.1-24.2c0-15.3,0.1-30.6,0.1-45.8v-0.2l1.8,0.9l5,3l26.6,17.1l-0.5,53.9h3.9l6.5,0.3
		l21.6,0.7l0.2,13.1l0.4,99.2v18.3H588.2z"/>
        <path class="st5" d="M639.9,330.9l-0.2-13l-21.5-0.6l-6.5-0.4h-4l0.5-53.9l-26.5-17.1l-5-3l-1.6-0.9c0,23.3-0.1,46.7-0.2,70
		c0.2-0.5,0.5-0.9,0.6-1.3c0.9-2.2,1.8-4.4,3.1-7.5c1.8,4.4,3.3,7.9,4.8,11.4c-1.2,2.6-1.2,4.9-0.5,7.8c1,4.2,1.5,8.8,0.5,13.2
		c-0.3,1.2-0.2,2.6-0.2,3.9c0,8-0.1,15.9,0,23.9c0,2.1,0.5,4.1,0.6,5.5c-0.4,2.7-1,4.9-1.1,7c-0.1,7.3-0.2,14.6,0,21.9
		c0.1,2.3,1,4.6,1.6,7c0.6,2.3,1.4,4.6,1.6,7c0.8,9.5,1.6,19,2.2,28.5c0.2,2.6,0.1,5.3,0.1,8h52v-18.2L639.9,330.9z"/>
        <path class="st6" d="M555.4,318.6h1.9l-0.4,0.3c-0.4,0.3-0.7,0.7-1.1,1l-0.4,0.4V318.6z"/>
        <path class="st6" d="M555.5,318.7h1.5l-0.2,0.2c-0.4,0.4-0.8,0.8-1.2,1.1l-0.2,0.2V318.7z"/>
        <path class="st6" d="M555.5,318.7h1.5l-0.2,0.2c-0.4,0.4-0.8,0.8-1.2,1.1l-0.2,0.2V318.7z"/>
        <path class="st6" d="M555.6,318.8v1.1c0.4-0.4,0.8-0.8,1.2-1.1H555.6z"/>
        <rect x="555.4" y="297.2" class="st6" width="14.5" height="17"/>
        <rect x="555.5" y="297.3" class="st6" width="14.3" height="16.8"/>
        <rect x="555.5" y="297.3" class="st6" width="14.3" height="16.8"/>
        <rect x="555.6" y="297.4" class="st6" width="14.1" height="16.6"/>
        <rect x="555.4" y="275.8" class="st6" width="14.5" height="17"/>
        <rect x="555.5" y="275.9" class="st6" width="14.3" height="16.8"/>
        <rect x="555.5" y="275.9" class="st6" width="14.3" height="16.8"/>
        <rect x="555.6" y="276" class="st6" width="14.1" height="16.6"/>
        <polygon class="st6" points="555.4,250 555.4,241.2 555.5,233 558.2,233 569.9,239.1 569.9,250 	"/>
        <polygon class="st6" points="555.5,249.9 555.5,241.2 555.6,233.1 558.2,233.1 569.8,239.2 569.8,249.9 	"/>
        <polygon class="st6" points="555.5,249.9 555.5,241.2 555.6,233.1 558.2,233.1 569.8,239.2 569.8,249.9 	"/>
        <polygon class="st6" points="569.7,239.3 558.2,233.2 555.7,233.2 555.6,241.2 555.6,249.8 569.7,249.8 	"/>
        <rect x="555.4" y="254.4" class="st6" width="14.5" height="17"/>
        <rect x="555.5" y="254.5" class="st6" width="14.3" height="16.8"/>
        <rect x="555.5" y="254.5" class="st6" width="14.3" height="16.8"/>
        <rect x="555.6" y="254.6" class="st6" width="14.1" height="16.6"/>
        <polygon class="st6" points="562.5,318.6 569.9,318.6 569.9,325.7 	"/>
        <polygon class="st6" points="562.8,318.7 569.8,318.7 569.8,325.5 	"/>
        <polygon class="st6" points="562.8,318.7 569.8,318.7 569.8,325.5 	"/>
        <path class="st6" d="M563,318.8c2.2,2.2,4.4,4.3,6.7,6.5v-6.5H563z"/>
        <path class="st5" d="M569.5,325.4l-0.1-6.4H563l-3.1-3l-3,2.9l-1.5,0.1v-5.2h14.1v-16.2h-14.1v-5.2h14.1v-16.2h-14.1V271h14.1
		v-16.2h-14.1v-5.2h14.1v-10.7l5.8,3l-0.2,70.1l-0.1,0.1c-0.4,0.9-0.9,1.9-0.7,2.5c1.3,2.9,0.5,5.5-0.4,8.2l0,0.1
		c-0.5,1.6-1.1,3.3-1.1,5.1v0.5L569.5,325.4z"/>
        <path class="st5" d="M569.6,325.3l0-6.4H563l-3.1-3l-3,3l-1.4,0v-5h14.1v-16.4h-14.1v-5h14.1v-16.4h-14.1v-5h14.1v-16.4h-14.1v-5
		h14.1v-10.6l5.6,2.9l-0.2,70.1c-0.5,1-1,2-0.7,2.7c1.3,2.9,0.5,5.4-0.5,8.1c-0.5,1.7-1.1,3.4-1.2,5.2v0.2L569.6,325.3z"/>
        <path class="st5" d="M569.6,325.3l0-6.4H563l-3.1-3l-3.1,3l-1.4,0v-5h14.1v-16.4h-14.1v-5h14.1v-16.4h-14.1v-5h14.1v-16.4h-14.1v-5
		h14.1v-10.6l5.6,2.9l-0.2,70.1c-0.5,1-1,2-0.7,2.7c1.3,2.9,0.4,5.4-0.4,8.1c-0.6,1.7-1.1,3.4-1.2,5.2l0,0.2L569.6,325.3z"/>
        <path class="st5" d="M569.7,249.8h-14.1v4.8h14.1v16.6h-14.1v4.8h14.1v16.6h-14.1v4.8h14.1V314h-14.1v4.8h1.2c1-1,2.1-2,3.1-3
		c1,1,2.1,2,3.1,3h6.7v6.5c1,0.9,1.9,1.9,2.9,2.8c0.1-4.7,3.7-8.6,1.6-13.3c-0.3-0.7,0.2-1.7,0.7-2.7c0-23.4,0.1-46.7,0.2-70
		l-5.4-2.8L569.7,249.8L569.7,249.8L569.7,249.8z"/>
        <polygon class="st5" points="555.5,233.4 555.5,231.6 558.3,233.1 558.2,233.4 	"/>
        <polygon class="st5" points="555.6,233.3 555.6,231.8 558.2,233.2 558.2,233.3 	"/>
        <polygon class="st5" points="555.6,233.3 555.6,231.8 558.2,233.2 558.2,233.3 	"/>
        <polygon class="st5" points="555.7,231.9 555.7,233.2 558.2,233.2 	"/>
        <path class="st7" d="M173.2,370.1l-0.1,0V264.7h-8.7V242l14.8-2.4v-31.3l6-0.7c2.4-0.3,4.7-0.6,7.1-0.9l1.3-8l0.1,0
		c2.5-0.9,4.9-2,7.2-3l0.2-0.1c5.3-2.4,10.4-4.7,15.5-4.7h0.2c4.7,0,9.5,2.2,14.5,4.6c2.2,1,4.9,2.3,7.6,3.3c0.4,1.5,1,4.1,1.8,7.3
		l0.1,0.5c2.5,0.3,5.1,0.7,8.1,1.1l4.1,0.5v31.1c5.1,0.9,9.1,1.6,14.4,2.5l0.1,0l0.1,0.1v69.7l-1.4,37.4H266
		c-1.9-0.1-3.9-0.1-6.2-0.1c-24.4,0-49.1,5-73.4,14.8c-4.5,1.8-8.9,4-13,6.4L173.2,370.1L173.2,370.1z"/>
        <path class="st7" d="M173.2,370.1V264.6h-8.7v-22.5l14.8-2.4v-31.3l1.5-0.2c4.3-0.5,7.7-1,11.6-1.4l1.3-8l0,0
		c2.5-0.9,5-2.1,7.4-3.1c5.3-2.4,10.4-4.7,15.5-4.7h0.2c4.6,0,9.4,2.2,14.5,4.6c2.4,1.1,5,2.3,7.6,3.3c0.4,1.5,1,4.4,1.8,7.9
		c2.5,0.3,5.1,0.7,8.2,1.1l4,0.5v31.1c5.1,0.9,9.1,1.6,14.5,2.6l0.1,0v69.7l-1.4,37.3H266c-2-0.1-4-0.1-6.2-0.1
		c-24.5,0-49.2,5-73.4,14.8c-4.5,1.8-8.9,4-13,6.4l0,0L173.2,370.1L173.2,370.1z"/>
        <path class="st7" d="M173.2,370.1V264.6h-8.7v-22.5l14.8-2.4v-31.3l1.5-0.2c4.3-0.5,7.7-1,11.6-1.4l1.3-8l0.1,0
		c2.5-0.9,5-2,7.4-3.1c5.3-2.4,10.4-4.7,15.5-4.7h0.2c4.6,0,9.4,2.2,14.5,4.6c2.4,1.1,5,2.3,7.6,3.3c0.4,1.5,1.1,4.4,1.8,7.9
		c2.5,0.3,5.1,0.7,8.2,1.1l4,0.5v31.1c5.1,0.9,9.1,1.6,14.5,2.6l0.1,0v69.7l-1.4,37.3l-0.1,0c-2-0.1-4-0.1-6.2-0.1
		c-24.5,0-49.2,5-73.4,14.8c-4.5,1.8-8.9,4-13,6.4l0,0H173.2z"/>
        <path class="st7" d="M173.3,370c4.2-2.4,8.5-4.6,13-6.4c24.4-9.9,48.9-14.8,73.4-14.8c2.1,0,4.1,0,6.2,0.1
		c0.5-12.4,1-24.8,1.4-37.2c0-23.2,0-46.4,0-69.6c-5.4-0.9-9.4-1.7-14.5-2.6c0-10.6,0-20.9,0-31.1c-5-0.6-8.7-1.1-12.2-1.6
		c-0.8-3.5-1.5-6.4-1.8-7.9c-8.3-3.2-15.2-7.9-22.1-7.9c-0.1,0-0.1,0-0.2,0c-7.4,0.1-14.6,4.8-22.8,7.9c-0.3,2.1-0.8,5-1.3,8
		c-4.3,0.5-8,1-13.1,1.6c0,10.6,0,20.9,0,31.3c-5.4,0.9-9.4,1.5-14.8,2.4c0,7.4,0,14.9,0,22.3h8.7L173.3,370L173.3,370L173.3,370z"
        />
        <path class="st7" d="M397,448.5L397,448.5L397,448.5l-0.1-39.7c-4.9,5.2-7,7.4-8.6,7.4c-1.4,0-2.3-1.6-3.8-4.7
		c-3.4-7-7.6-13.5-12.2-19.3l0-228.8c-1.1,0.5-4.4,1.9-9.1,4.6l-0.3,0.2V95.5h9.2v4.4l15.8-5.9v-8.6h9.2v5.1l15.8-5.9v-9.7h9.2v6.3
		l15.8-5.9v-8.8h9.2v5.4l15.8-5.9v-8.6h9.2v46.1l-0.9,0.1v44.8l-17.5,3.4c0,38.1,0,78.1,0.1,122.3v0.2h-10.3l0-0.1
		c-0.1-1.2-0.1-2.2-0.2-3.2c-0.1-2.2-0.1-4.3-0.8-6.2c-1.3-3.7-1.2-7.3,0.3-11.4l-2.2-6.1l-2.6-7.2l-1.8,4.9c-0.7,2-1.4,3.9-2.1,5.9
		c-0.7,1.9-0.7,3.5,0,5.4c0.8,2.3,1.2,5.6,0.2,7.7c-0.9,1.8-1,3.6-1.1,5.3c-0.1,0.9-0.1,1.7-0.3,2.6c-0.4,2.2-0.1,4.5,0.2,6.5l0,0.3
		c0.2,1.3,0.4,2.6,0.4,4c0.1,7.7,0.1,16,0,24.4c0,1.6-0.4,3.2-0.6,4.4c-0.1,0.5-0.2,1-0.3,1.5c0.1,0.7,0.3,1.4,0.5,2l0,0.1
		c0.3,1.4,0.6,2.6,0.6,3.8c0.1,3.6,0,7.1,0,10.6c0,3.8,0,7.6,0,11.3c0.1,3.6-0.6,6.3-2.3,8.9c-0.8,1.2-1.3,2.9-1.3,4.4
		c-0.2,6.4-0.2,12.9-0.2,19.5v0.1c-0.1,10-0.1,20.3-0.7,30.4c-0.4,6.9-0.5,14-0.6,20.8l0,0.9c-0.1,7.3-0.2,14.9-0.7,22.4l0,0.1
		l-0.1,0.1H397z"/>
        <path class="st7" d="M397,448.4v-39.8c-5,5.3-7.1,7.5-8.7,7.5c-1.4,0-2.2-1.6-3.7-4.6c-3.5-7-7.6-13.5-12.2-19.3l0-228.9
		c-0.7,0.3-4.1,1.7-9.2,4.7l-0.1,0.1V95.6h9v4.5l16-5.9v-8.5h9v5.2l16-5.9v-9.6h9v6.3l16-5.9v-8.8h9v5.5l16-5.9v-8.5h9v45.9
		l-0.9,0.1v44.8c0,0-11.2,2.2-17.5,3.4c0,36.4,0,76.4,0.1,122.4v0.1h-10.1l0-0.1c-0.1-1.1-0.1-2.1-0.2-3.1c-0.1-2.2-0.1-4.3-0.8-6.2
		c-1.3-3.7-1.2-7.2,0.3-11.3l-2.2-6.2l-2.7-7.5l-1.4,3.9c-0.9,2.6-1.8,4.8-2.6,7.1c-0.7,1.9-0.7,3.5,0,5.4c0.8,2.3,1.2,5.5,0.2,7.6
		c-0.9,1.8-1,3.6-1.1,5.3c-0.1,0.9-0.1,1.7-0.3,2.6c-0.4,2.2-0.1,4.4,0.2,6.5c0.2,1.4,0.4,2.8,0.4,4.2c0.1,7.2,0.1,15.7,0,24.4
		c0,1.6-0.3,3.1-0.6,4.4c-0.1,0.5-0.2,1-0.3,1.5c0.2,0.8,0.3,1.5,0.5,2.2c0.3,1.4,0.6,2.6,0.6,3.8c0.1,3.5,0,7.1,0,10.6
		c0,3.7,0,7.5,0,11.3c0.1,3.6-0.6,6.3-2.2,8.8c-0.8,1.2-1.3,2.9-1.3,4.5c-0.2,6.5-0.2,13.1-0.2,19.5c0,10-0.1,20.4-0.7,30.6
		c-0.4,7.1-0.5,14.5-0.6,21.5c-0.1,7.4-0.2,15-0.7,22.5l0,0.1L397,448.4L397,448.4z"/>
        <path class="st7" d="M397,448.4v-39.8c-5,5.3-7.1,7.5-8.7,7.5c-1.4,0-2.2-1.6-3.7-4.6c-3.4-7-7.6-13.5-12.2-19.3l0-228.8
		c-0.7,0.3-4.2,1.7-9.2,4.7l-0.1,0.1V95.6h9v4.5l16-5.9v-8.5h9v5.2l16-5.9v-9.6h9v6.3l16-5.9v-8.8h9v5.5l16-5.9v-8.5h9v45.9
		l-0.9,0.1v44.8c0,0-11.2,2.2-17.5,3.4c0,36.4,0,76.4,0.1,122.3l0,0.1h-10.1l0-0.1c-0.1-1.1-0.1-2.1-0.2-3.1
		c-0.1-2.2-0.1-4.3-0.8-6.2c-1.3-3.7-1.2-7.3,0.3-11.3l-2.2-6.2l-2.7-7.5l-1.4,3.9c-0.9,2.5-1.8,4.8-2.6,7.1c-0.7,1.9-0.7,3.5,0,5.4
		c0.8,2.3,1.2,5.5,0.2,7.6c-0.9,1.8-1,3.6-1.1,5.3c-0.1,0.8-0.1,1.7-0.3,2.6c-0.4,2.2-0.1,4.4,0.2,6.5c0.2,1.4,0.4,2.8,0.4,4.2
		c0.1,7.2,0.1,15.7,0,24.4c0,1.6-0.3,3.1-0.6,4.4c-0.1,0.5-0.2,1-0.3,1.5c0.2,0.8,0.3,1.5,0.5,2.2c0.3,1.4,0.6,2.6,0.6,3.8
		c0.1,3.5,0,7.1,0,10.6c0,3.7,0,7.5,0.1,11.3c0.1,3.6-0.6,6.3-2.2,8.8c-0.8,1.2-1.3,2.9-1.3,4.5c-0.2,6.5-0.2,13.1-0.2,19.5
		c0,10-0.1,20.4-0.7,30.6c-0.4,7.1-0.5,14.4-0.6,21.5c-0.1,7.4-0.2,15-0.7,22.5l0,0.1H397z"/>
        <path class="st7" d="M430,354.2c0-1.5,0.5-3.3,1.4-4.5c1.8-2.7,2.3-5.6,2.2-8.8c-0.1-7.3,0-14.6-0.1-21.9c0-1.8-0.7-3.6-1.1-6
		c0.2-1.5,0.9-3.7,0.9-5.9c0.1-8.1,0.1-16.2,0-24.4c0-3.6-1.3-7.1-0.7-10.8c0.5-2.6,0.1-5.2,1.4-7.9c1-2,0.6-5.2-0.2-7.5
		c-0.7-2.1-0.7-3.7,0-5.5c1.2-3.5,2.5-7,4.1-11.3c1.9,5.2,3.5,9.6,5,14c-1.4,3.7-1.7,7.3-0.3,11.2c1,2.8,0.7,6,1,9.4
		c3.3,0,6.6,0,10,0c-0.1-40.9-0.1-81.7-0.1-122.4c6.4-1.2,11.2-2.2,17.5-3.4c0-14.8,0-29.5,0-44.8c0.3,0,0.6-0.1,0.9-0.1V57.9h-8.8
		v8.5l-16.2,6v-5.5h-8.8v8.8l-16.2,6v-6.3h-8.8v9.6l-16.2,6v-5.2h-8.8v8.5l-16.2,6v-4.5h-8.8v72.2c5.8-3.3,9.4-4.7,9.4-4.7v228.9
		c4.6,5.7,8.7,12.1,12.2,19.3c1.5,3,2.3,4.6,3.6,4.6c1.6,0,3.9-2.4,8.8-7.7c0,14,0,26.7,0,40h30.7c1-14.7,0.4-29.4,1.3-44
		C430.1,387.6,429.6,370.9,430,354.2z"/>
        <path class="st8" d="M453.4,274.6L453.4,274.6L453.4,274.6l-0.1-0.2c-0.1-43.6-0.1-82.8-0.1-122.4v-0.1l0.1-0.1
		c0,0,11.1-2.2,17.5-3.4c0-14.8,0-29.4,0-44.6v-0.1l0.1-0.1l1.2-0.2v171.2H453.4z"/>
        <path class="st8" d="M453.4,274.5v-0.1c0-40.2-0.1-81.7-0.1-122.4v-0.1c0,0,11.2-2.2,17.5-3.4c0-14.8,0-29.5,0-44.7v-0.1l1.1-0.2
		v171L453.4,274.5L453.4,274.5z"/>
        <path class="st8" d="M453.4,274.5L453.4,274.5c0-40.3-0.1-81.8-0.1-122.5v-0.1c0,0,11.2-2.2,17.5-3.4c0-14.8,0-29.5,0-44.7v-0.1
		l1.1-0.2v171H453.4z"/>
        <path class="st8" d="M471,148.5c-6.3,1.2-11.2,2.2-17.5,3.4c0,40.8,0,81.6,0.1,122.4c6,0,12.1,0,18.3,0V103.6
		c-0.3,0-0.6,0.1-0.9,0.1C471,119,471,133.7,471,148.5z"/>
        <path class="st9" d="M372.2,392.3c-2.8-3.5-6-6.8-9.4-9.9l-0.1-214.4c5.8-3.5,9.5-4.9,9.5-4.9l0.3-0.1v229.8L372.2,392.3z"/>
        <path class="st9" d="M372.3,392.2c-2.9-3.5-6-6.9-9.4-10l0-214.3c5.8-3.4,9.4-4.8,9.5-4.8l0.1-0.1v229.4L372.3,392.2z"/>
        <path class="st9" d="M372.3,392.2c-2.9-3.5-6-6.9-9.4-9.9l0-214.3c5.8-3.4,9.4-4.8,9.5-4.8l0.1-0.1v229.4L372.3,392.2z"/>
        <path class="st9" d="M372.4,392.1V163.2c0,0-3.6,1.4-9.4,4.7v214.2C366.3,385.2,369.5,388.5,372.4,392.1z"/>
        <path class="st4" d="M112.7,448.5v-73.7h6.4v-7.5h-11.2v-16l29.9,23v-110h27.1v111.4c-10.9,8.2-20,18.5-27,30.8l-0.2,0.4
		c-3.1,5.5-4.7,8.3-6.8,8.3c-1.9,0-4.1-2.3-8.4-6.7v40H112.7z"/>
        <path class="st4" d="M112.8,448.4v-73.5h6.4v-7.7h-11.2v-15.7l29.9,23V264.4h26.9v111.3c-10.9,8.1-20,18.4-27,30.8l-0.2,0.4
		c-3.1,5.5-4.7,8.3-6.7,8.3c-1.9,0-4.1-2.3-8.6-6.9v40.1L112.8,448.4L112.8,448.4z"/>
        <path class="st4" d="M112.8,448.4v-73.5h6.4v-7.7h-11.2v-15.7l29.9,23V264.4h26.9v111.3c-10.9,8.1-20,18.4-27,30.8l-0.2,0.4
		c-3.1,5.5-4.7,8.3-6.7,8.3c-1.9,0-4.1-2.3-8.5-6.9v40.1H112.8z"/>
        <path class="st4" d="M130.8,415.1c2,0,3.6-2.8,6.9-8.6c7.2-12.7,16.4-22.9,27-30.7c0-37.1,0-74.1,0-111.2h-26.7v110.2l-29.9-23
		v15.4h11.2v7.9h-6.4v73.3h9.3c0-13,0-25.9,0-40.3C126.6,412.7,128.9,415.1,130.8,415.1z"/>
        <polygon class="st6" points="105.6,448.5 105.6,349.6 108.2,351.6 108.2,366.9 119.5,366.9 119.5,375.2 113.1,375.2 113.1,448.5
		"/>
        <polygon class="st6" points="105.7,448.4 105.7,349.8 108.1,351.7 108.1,367 119.4,367 119.4,375.1 113,375.1 113,448.4 	"/>
        <polygon class="st6" points="105.7,448.4 105.7,349.8 108.1,351.7 108.1,367 119.4,367 119.4,375.1 113,375.1 113,448.4 	"/>
        <polygon class="st6" points="119.3,375 119.3,367.1 108,367.1 108,351.7 105.8,350 105.8,448.3 112.9,448.3 112.9,375 	"/>
        <path class="st10" d="M164.5,264.3h9.1V370c-3.3,2.1-6.2,4-8.7,5.9l-0.3,0.2V264.3z"/>
        <path class="st10" d="M164.6,264.4h8.9V370c-3.1,1.9-6,3.8-8.7,5.8l-0.2,0.1V264.4z"/>
        <path class="st10" d="M164.6,264.4h8.9V370c-3.1,1.9-6,3.8-8.7,5.8l-0.2,0.1V264.4z"/>
        <path class="st10" d="M173.3,370V264.5h-8.7c0,37.1,0,74.1,0,111.2C167.5,373.6,170.3,371.7,173.3,370z"/>
        <path class="st11" d="M471.7,448.5V274.2h0.3c0-0.4,0-0.7,0.1-1.1c0-1,0.1-2,0.3-2.9c0.2-1,0.4-1.9,0.6-2.8l0.1-0.3
		c0.2-1.1,0.5-2.3,0.6-3.4c0-0.4,0.1-0.7,0.1-1c0.4-2.9,0.8-5.9-1.2-8.3c0.8-2.6,1.6-5,2.5-7.5l2.8-7.9l0.2,0.5
		c0.4,1.2,0.8,2.3,1.2,3.4l0.2,0.6c1.3,3.6,2.3,6.7,3.3,9.7c0.2,0.7-0.1,1.5-0.3,2.2c-0.1,0.2-0.1,0.3-0.1,0.4l-0.1,0.2
		c-0.9,2.8-1.5,6.2,0.3,9.6c0.5,0.9,0.5,2,0.6,3.1c0,0.5,0,1.1,0.1,1.6c0.5,3.4,0.1,6.8-0.2,10.2l0,0.1c-0.3,2.6-0.6,5.2-0.4,7.9
		c0.2,3.5,0.1,7,0.1,10.4l0,0.7c0,2.2,0,4.6,0,6.8c0,1.5,0.3,2.9,0.5,4.5l0.1,0.7c0.1,0.6,0.2,1.2,0.3,1.9c-0.1,0.3-0.2,0.7-0.3,1
		l-0.1,0.3c-0.3,1-0.7,2.4-0.8,3.7c-0.1,7.9-0.1,16.3,0,24.8c0,1.7,0.5,3.4,1.2,4.4c1.7,2.6,2.4,5.4,2.2,9.4
		c-0.1,2.3-0.1,4.6-0.1,6.8l0,0.5c0,1,0,2.1,0,3.1l0.7,0.3l22.6-22.4l0.1,0c8.3,8.2,16.5,16.3,24.6,24.4c2.3-1.1,2.8-2.7,2.8-4.7
		c0-2.1,0-4.1,0.1-6.2l0-1.5c0.1-6.4,0.2-13-0.3-19.5c-0.2-2.7-0.2-5.3-0.1-7.9l0-1c0-1,0-2,0-3c0-1.1,0.2-2.2,0.5-3.2
		c0.1-0.5,0.2-1,0.3-1.5c0.1-0.3,0.2-0.6,0.3-0.9c0.2-0.6,0.4-1.3,0.2-1.7c-1.8-3.3-0.5-6.1,0.7-8.8c0.3-0.7,0.6-1.3,0.8-1.9
		c0.3-0.9,0.7-1.8,1.2-2.9l0.8-1.8l0.2-0.4l0.2,0.4c1.5,3.6,2.8,6.7,4.1,9.8c0.2,0.4,0.3,0.8,0.2,1.1c-1.2,2.7-0.4,5.3,0.5,8
		c0.6,1.7,1.1,3.5,1.2,5.5c2.2-2.1,8.1-7.9,8.1-7.9l0.3-0.3v80l0,0.1l0,49H471.7z"/>
        <path class="st11" d="M471.8,448.4V274.3h0.3c0-0.4,0-0.8,0.1-1.2c0-1,0.1-2,0.3-2.9c0.2-0.9,0.3-1.9,0.5-2.8
		c0.2-1.2,0.5-2.5,0.7-3.7c0-0.4,0.1-0.7,0.1-1c0.4-2.9,0.8-5.9-1.2-8.4c1-2.9,1.9-5.5,2.9-8.4l2.3-6.7l0.1,0.3
		c0.5,1.4,1,2.8,1.4,4.1c1.2,3.5,2.3,6.6,3.3,9.7c0.2,0.6-0.1,1.4-0.3,2.2c-0.1,0.2-0.1,0.3-0.2,0.5c-0.9,2.8-1.5,6.2,0.3,9.7
		c0.5,0.9,0.5,2,0.6,3.1c0,0.5,0,1.1,0.1,1.6c0.5,3.4,0.1,6.9-0.2,10.2c-0.3,2.6-0.6,5.3-0.5,7.9c0.2,3.5,0.1,7,0.1,10.4
		c0,2.5,0,5,0,7.6c0,1.5,0.3,3,0.5,4.6c0.1,0.8,0.2,1.6,0.4,2.4c-0.1,0.4-0.2,0.8-0.3,1.2c-0.3,1.1-0.7,2.4-0.8,3.7
		c-0.1,7.9-0.1,16.3,0,24.8c0,1.7,0.5,3.4,1.2,4.5c1.7,2.5,2.4,5.3,2.2,9.3c-0.1,2.4-0.1,4.9,0,7.3c0,1,0,2.1,0,3.2l0.8,0.4l8.4-8.4
		c4.6-4.6,9.3-9.2,14.1-14l0.1-0.1l0.1,0.1c8.2,8.2,16.4,16.3,24.5,24.4c2.4-1.1,2.9-2.7,2.9-4.9c0-2.6,0-5.1,0.1-7.7
		c0.1-6.4,0.2-13.1-0.3-19.5c-0.2-2.6-0.2-5.3-0.1-7.9c0-1.3,0-2.7,0-4c0-1.1,0.2-2.2,0.5-3.2c0.1-0.5,0.2-1,0.3-1.5
		c0.1-0.3,0.2-0.6,0.2-0.9c0.2-0.7,0.4-1.4,0.2-1.8c-1.8-3.3-0.5-6,0.7-8.8c0.3-0.6,0.6-1.2,0.8-1.9c0.3-0.9,0.7-1.8,1.2-2.9
		c0.2-0.5,0.5-1.1,0.8-1.8l0.1-0.2l0.1,0.2c1.5,3.6,2.8,6.7,4.1,9.8c0.2,0.4,0.3,0.8,0.2,1c-1.2,2.8-0.4,5.4,0.5,8.1
		c0.6,1.8,1.2,3.7,1.2,5.7c2-2,8.3-8.1,8.3-8.1l0.2-0.2v79.7l0,0.1v48.9L471.8,448.4L471.8,448.4z"/>
        <path class="st11" d="M471.8,448.4V274.3h0.3c0-0.4,0-0.8,0.1-1.2c0.1-1,0.1-2,0.3-2.9c0.2-0.9,0.4-1.9,0.5-2.8
		c0.3-1.2,0.5-2.4,0.7-3.7c0-0.3,0.1-0.7,0.1-1c0.4-2.9,0.8-5.9-1.2-8.4c1-2.9,1.9-5.5,2.9-8.4l2.3-6.7l0.1,0.3
		c0.5,1.4,1,2.8,1.4,4.1c1.2,3.5,2.3,6.6,3.3,9.7c0.2,0.7-0.1,1.4-0.3,2.2c-0.1,0.2-0.1,0.3-0.2,0.5c-0.9,2.8-1.5,6.2,0.3,9.7
		c0.5,0.9,0.5,2,0.6,3.1c0,0.5,0,1.1,0.1,1.6c0.5,3.4,0.1,6.9-0.2,10.2c-0.3,2.6-0.6,5.3-0.4,7.9c0.2,3.5,0.1,7,0.1,10.4
		c0,2.5,0,5,0,7.6c0,1.5,0.3,3,0.5,4.6c0.1,0.8,0.3,1.6,0.4,2.4c-0.1,0.4-0.2,0.8-0.4,1.2c-0.3,1.1-0.7,2.4-0.8,3.7
		c-0.1,7.9-0.1,16.3,0,24.8c0,1.7,0.5,3.4,1.2,4.5c1.7,2.5,2.4,5.3,2.2,9.3c-0.1,2.4-0.1,4.9,0,7.3c0,1.1,0,2.1,0,3.2l0.8,0.4
		l8.4-8.4c4.6-4.6,9.3-9.2,14.1-14l0.1-0.1l0.1,0.1c8.2,8.2,16.4,16.3,24.5,24.4c2.4-1.1,2.9-2.7,2.9-4.9c0-2.6,0-5.1,0.1-7.7
		c0.1-6.4,0.2-13.1-0.3-19.5c-0.2-2.7-0.2-5.3-0.1-7.9c0-1.3,0-2.7,0-4c0-1.1,0.2-2.2,0.5-3.2c0.1-0.5,0.2-1,0.3-1.5
		c0.1-0.3,0.2-0.6,0.2-0.9c0.2-0.7,0.4-1.4,0.2-1.8c-1.8-3.3-0.5-6.1,0.7-8.8c0.3-0.6,0.6-1.2,0.8-1.9c0.3-0.9,0.7-1.8,1.2-2.9
		c0.2-0.5,0.5-1.1,0.8-1.8l0.1-0.2l0.1,0.2c1.5,3.6,2.8,6.7,4.1,9.8c0.2,0.4,0.3,0.8,0.2,1c-1.2,2.8-0.4,5.4,0.5,8.1
		c0.6,1.8,1.2,3.7,1.2,5.7c2-1.9,8.3-8.1,8.3-8.1l0.2-0.2v79.7l0,0.1v48.9H471.8z"/>
        <path class="st11" d="M555.6,399.6V383v-4.8v-16.6v-4.8v-16.6v-4.8V320c-2.9,2.8-5.7,5.5-8.5,8.2c0.1-5.1-3.7-9.3-1.6-14.1
		c0.1-0.2-0.1-0.6-0.2-0.9c-1.3-3.1-2.6-6.2-4.1-9.8c-0.8,2-1.5,3.3-2,4.6c-1.3,3.4-3.7,6.6-1.5,10.5c0.4,0.6-0.2,1.8-0.4,2.8
		c-0.3,1.6-0.8,3.1-0.8,4.7c0,4-0.2,7.9,0.1,11.9c0.6,9,0.2,18.2,0.2,27.3c0,2-0.4,3.8-3.1,5c-8.1-8.1-16.3-16.2-24.6-24.4
		c-7.8,7.7-15.2,15.1-22.6,22.4c-0.3-0.1-0.6-0.3-1-0.5c0-3.5-0.1-7,0-10.5c0.1-3.3-0.3-6.4-2.2-9.2c-0.8-1.2-1.2-3-1.2-4.6
		c-0.1-8.3-0.1-16.6,0-24.8c0-1.8,0.8-3.6,1.1-4.9c-0.3-2.6-0.8-4.8-0.9-7c-0.1-6,0.2-12-0.1-18c-0.3-6.1,1.6-12,0.7-18.1
		c-0.2-1.6,0-3.4-0.7-4.7c-1.8-3.3-1.4-6.5-0.3-9.8c0.3-0.9,0.7-1.9,0.5-2.6c-1.3-4.3-2.8-8.5-4.7-13.8c-1.9,5.5-3.5,9.9-5.1,14.7
		c2.2,2.8,1.5,6.2,1.1,9.5c-0.3,2.2-0.9,4.3-1.2,6.5c-0.2,1.4-0.2,2.8-0.3,4.2c-0.1,0-0.2,0-0.3,0v174h83.8v-44L555.6,399.6
		L555.6,399.6L555.6,399.6z"/>
        <path class="st12" d="M574.6,448.5L574.6,448.5L574.6,448.5l-0.1-0.2c0-46.9,0.1-93.2,0.2-136.2c0.2-0.5,0.5-1,0.7-1.4
		c0.7-1.7,1.4-3.4,2.2-5.4l1-2.5l4.9,11.8c-1.1,2.5-1.2,4.7-0.5,7.9c1.2,5.3,1.4,9.5,0.5,13.3c-0.2,0.9-0.2,2-0.2,3.1l0,0.7l0,3.5
		c0,6.7,0,13.6,0,20.4c0,1.5,0.2,2.9,0.4,4.1c0.1,0.5,0.2,1,0.2,1.4c-0.1,1-0.3,1.8-0.5,2.6l0,0.2c-0.3,1.6-0.5,2.9-0.6,4.3
		c-0.1,6-0.2,13.8,0,21.9c0,1.6,0.5,3.1,1,4.7c0.2,0.8,0.4,1.5,0.6,2.2c0.1,0.6,0.3,1.2,0.5,1.8l0.1,0.3c0.5,1.6,0.9,3.2,1.1,4.8
		c0.9,10.4,1.6,19.8,2.2,28.5c0.2,2.8,0.1,5.7,0.1,8v0.2H574.6z"/>
        <path class="st12" d="M574.6,448.4v-0.1c0-46.2,0.1-92.6,0.2-136.2c0.2-0.5,0.5-0.9,0.7-1.4c0.7-1.7,1.4-3.4,2.2-5.4l0.9-2.3
		c0,0,3.4,8.1,4.8,11.6c-1.1,2.5-1.2,4.6-0.5,7.8c1.2,5.3,1.4,9.5,0.5,13.3c-0.2,1-0.2,2.1-0.2,3.1l0,0.7l0,3.5c0,6.7,0,13.6,0,20.4
		c0,1.5,0.2,2.9,0.4,4.1c0.1,0.5,0.2,1,0.2,1.4c-0.1,0.9-0.3,1.8-0.5,2.6c-0.3,1.6-0.6,3.1-0.6,4.5c-0.1,6.5-0.2,14.1,0,21.9
		c0,1.6,0.5,3.2,1,4.7c0.2,0.7,0.4,1.5,0.6,2.2c0.2,0.7,0.4,1.5,0.6,2.2c0.4,1.6,0.9,3.2,1,4.8c0.9,10.3,1.6,19.6,2.2,28.5
		c0.2,2.8,0.1,5.5,0.1,8v0.1L574.6,448.4L574.6,448.4z"/>
        <path class="st12" d="M574.6,448.4L574.6,448.4c0-46.3,0.1-92.7,0.2-136.3c0.2-0.5,0.5-0.9,0.6-1.4c0.7-1.7,1.4-3.4,2.2-5.4
		l0.9-2.3c0,0,3.4,8.1,4.8,11.6c-1.1,2.5-1.2,4.6-0.5,7.8c1.2,5.3,1.4,9.5,0.5,13.3c-0.2,1-0.2,2.1-0.2,3.1l0,0.7l0,3.5
		c0,6.7,0,13.6,0,20.4c0,1.5,0.2,2.9,0.4,4.1c0.1,0.5,0.2,1,0.2,1.4c-0.1,0.9-0.3,1.8-0.5,2.6c-0.3,1.6-0.6,3.1-0.6,4.5
		c-0.1,6.5-0.2,14.1,0,21.9c0,1.6,0.5,3.2,1,4.7c0.2,0.7,0.4,1.5,0.6,2.2c0.2,0.7,0.4,1.4,0.6,2.2c0.4,1.6,0.9,3.2,1,4.8
		c0.9,10.3,1.6,19.6,2.2,28.5c0.2,2.7,0.1,5.6,0.1,8l0,0.1H574.6z"/>
        <path class="st12" d="M588.2,440.3c-0.6-9.5-1.3-19-2.2-28.5c-0.2-2.4-1.1-4.6-1.6-7c-0.6-2.3-1.5-4.6-1.6-7
		c-0.2-7.3-0.2-14.6,0-21.9c0-2.2,0.6-4.3,1.1-7c-0.2-1.4-0.6-3.5-0.6-5.5c-0.1-8,0-15.9,0-23.9c0-1.3-0.1-2.6,0.2-3.9
		c1.1-4.5,0.5-9.1-0.5-13.2c-0.7-3-0.7-5.2,0.5-7.8c-1.5-3.5-2.9-7-4.8-11.4c-1.3,3.1-2.2,5.3-3.1,7.5c-0.2,0.4-0.4,0.9-0.6,1.3
		c-0.1,45.5-0.2,91-0.2,136.2h13.5C588.3,445.6,588.3,443,588.2,440.3z"/>
        <rect x="555.4" y="382.8" class="st11" width="14.5" height="17"/>
        <rect x="555.5" y="382.9" class="st11" width="14.3" height="16.8"/>
        <rect x="555.5" y="382.9" class="st11" width="14.3" height="16.8"/>
        <rect x="555.6" y="383" class="st11" width="14.1" height="16.6"/>
        <rect x="555.4" y="340" class="st11" width="14.5" height="17"/>
        <rect x="555.5" y="340.1" class="st11" width="14.3" height="16.8"/>
        <rect x="555.5" y="340.1" class="st11" width="14.3" height="16.8"/>
        <rect x="555.6" y="340.2" class="st11" width="14.1" height="16.6"/>
        <rect x="555.4" y="404.2" class="st11" width="14.5" height="44.3"/>
        <rect x="555.5" y="404.3" class="st11" width="14.3" height="44.1"/>
        <rect x="555.5" y="404.3" class="st11" width="14.3" height="44.1"/>
        <rect x="555.6" y="404.4" class="st11" width="14.1" height="44"/>
        <path class="st11" d="M555.4,335.6V320c0.5-0.5,0.8-0.9,1.2-1.3l6.4-0.1c2.2,2,4.2,4,6.2,6l0.6,0.6l0.1,10.5H555.4z"/>
        <path class="st11" d="M555.5,335.5V320c0.4-0.5,0.8-0.8,1.2-1.2l6.3,0c2.1,2,4.1,4,6.1,5.9l0.6,0.6l0,10.3H555.5z"/>
        <path class="st11" d="M555.5,335.5V320c0.4-0.5,0.8-0.8,1.2-1.2l6.3,0c2.1,2,4.1,4,6.1,5.9l0.6,0.6l0,10.3H555.5z"/>
        <path class="st11" d="M556.8,318.8c-0.4,0.4-0.8,0.8-1.2,1.1v15.4h14.1v-10.1c-2.2-2.1-4.4-4.3-6.7-6.5H556.8z"/>
        <rect x="555.4" y="361.4" class="st11" width="14.5" height="17"/>
        <rect x="555.5" y="361.5" class="st11" width="14.3" height="16.8"/>
        <rect x="555.5" y="361.5" class="st11" width="14.3" height="16.8"/>
        <rect x="555.6" y="361.6" class="st11" width="14.1" height="16.6"/>
        <polygon class="st12" points="556.3,319 559.9,315.5 563.5,319 	"/>
        <polygon class="st12" points="556.5,318.9 559.9,315.6 563.3,318.9 	"/>
        <polygon class="st12" points="556.5,318.9 559.9,315.6 563.3,318.9 	"/>
        <path class="st12" d="M559.9,315.8c-1.1,1-2.1,2-3.1,3h6.2C562,317.8,561,316.8,559.9,315.8z"/>
        <path class="st12" d="M569.6,448.5L569.6,448.5L569.6,448.5l-0.1-43.9h-14.1v-5.2h14.1v-16.2h-14.1V378h14.1v-16.2h-14.1v-5.2h14.1
		v-16.2h-14.1v-5.2h14.1v-10.4l2.9,2.9c0.1-1.7,0.7-3.4,1.2-4.8c0.9-2.7,1.7-5.1,0.5-7.9c-0.3-0.8,0.2-1.9,0.7-2.9l0-0.1l0.3,0.1
		l0,0.1c-0.1,41-0.2,89.2-0.2,136.2v0.2H569.6z"/>
        <path class="st12" d="M569.6,448.4v-44h-14.1v-5h14.1v-16.4h-14.1v-5h14.1v-16.4h-14.1v-5h14.1v-16.4h-14.1v-5h14.1V325l2.9,2.8
		c0.1-1.8,0.6-3.4,1.2-5c0.9-2.7,1.7-5.2,0.5-8c-0.3-0.7,0.2-1.8,0.7-2.8l0.2,0c-0.1,43.8-0.2,90.4-0.2,136.2v0.1L569.6,448.4
		L569.6,448.4z"/>
        <path class="st12" d="M569.6,448.4v-44h-14.1v-5h14.1v-16.4h-14.1v-5h14.1v-16.4h-14.1v-5h14.1v-16.4h-14.1v-5h14.1V325l2.9,2.8
		c0.1-1.8,0.6-3.4,1.2-5c0.9-2.7,1.7-5.2,0.5-8c-0.3-0.7,0.2-1.8,0.7-2.8l0.2,0c-0.1,43.8-0.2,90.3-0.2,136.2v0.1H569.6z"/>
        <path class="st12" d="M574.2,314.8c2.1,4.7-1.5,8.6-1.6,13.3c-1-0.9-1.9-1.9-2.9-2.8v10.1h-14.1v4.8h14.1v16.6h-14.1v4.8h14.1v16.6
		h-14.1v4.8h14.1v16.6h-14.1v4.8h14.1v44h5c0-45.2,0.1-90.7,0.2-136.2C574.4,313.1,573.9,314.1,574.2,314.8z"/>
        <path class="st13" d="M427.5,448.5l0-0.1c0.5-7.5,0.6-15.1,0.7-22.4l0-0.1c0.1-6.7,0.2-14.3,0.6-21.6c0.6-10.5,0.7-21.4,0.8-31
		c0-6.5,0.1-12.8,0.2-19.1c0-1.6,0.6-3.4,1.4-4.6c1.6-2.4,2.3-5.1,2.2-8.6c-0.1-3.8-0.1-7.8,0-11.3c0-3.5,0-7.1,0-10.6
		c0-1.2-0.3-2.4-0.6-3.7c-0.2-0.8-0.3-1.5-0.5-2.2c0.1-0.5,0.2-1,0.3-1.5c0.3-1.2,0.6-2.9,0.6-4.4c0.1-8.4,0.1-16.7,0-24.3
		c0-1.4-0.2-2.7-0.4-4.1c-0.3-2.1-0.7-4.4-0.3-6.7c0.2-0.9,0.2-1.8,0.3-2.6c0.1-1.7,0.2-3.5,1.2-5.4c1-2,0.6-5.1-0.2-7.4
		c-0.7-2-0.7-3.7,0-5.6c0.6-1.7,1.2-3.4,1.9-5.2l2.4-6.6l5.2,14.5c-1.5,4.1-1.6,7.6-0.3,11.2c0.7,1.9,0.8,4.1,0.8,6.3
		c0,0.9,0.1,1.9,0.2,2.9c3.2,0,6.5,0,9.8,0h0.2l0,39.7c0.1,41.7,0.1,88.9,0.1,134.5v0.2H427.5z"/>
        <path class="st13" d="M427.6,448.4l0-0.1c0.5-7.5,0.6-15.1,0.7-22.5c0.1-7.1,0.2-14.4,0.6-21.6c0.6-10.3,0.7-20.8,0.8-31
		c0-6.3,0.1-12.7,0.2-19.1c0-1.6,0.5-3.3,1.4-4.6c1.6-2.5,2.3-5.1,2.2-8.7c-0.1-3.8-0.1-7.6,0-11.3c0-3.5,0-7.1,0-10.6
		c0-1.2-0.3-2.4-0.6-3.8c-0.2-0.7-0.3-1.4-0.5-2.2c0.1-0.5,0.2-0.9,0.3-1.5c0.3-1.3,0.6-2.9,0.6-4.5c0.1-8.7,0.1-17.2,0-24.4
		c0-1.4-0.2-2.8-0.4-4.2c-0.3-2.1-0.6-4.3-0.2-6.6c0.1-0.9,0.2-1.8,0.3-2.6c0.1-1.7,0.2-3.5,1.2-5.4c1-2,0.6-5.2-0.2-7.4
		c-0.7-2-0.7-3.6,0-5.6c0.8-2.3,1.7-4.6,2.6-7.1l1.6-4.5l5.1,14.3c-1.5,4.1-1.6,7.6-0.3,11.2c0.7,1.9,0.8,4,0.8,6.3c0,1,0.1,2,0.2,3
		c3.3,0,6.6,0,9.8,0h0.1l0,39.6c0.1,44.1,0.1,89.7,0.1,134.5v0.1L427.6,448.4L427.6,448.4z"/>
        <path class="st13" d="M427.6,448.4l0-0.1c0.5-7.5,0.6-15.1,0.7-22.5c0.1-7.1,0.2-14.4,0.6-21.6c0.6-10.3,0.7-20.8,0.8-31
		c0-6.3,0.1-12.7,0.2-19.1c0-1.6,0.6-3.3,1.4-4.6c1.6-2.5,2.3-5.1,2.2-8.7c-0.1-3.8-0.1-7.6-0.1-11.3c0-3.5,0-7.1,0-10.6
		c0-1.2-0.3-2.4-0.6-3.8c-0.2-0.7-0.3-1.4-0.5-2.2c0.1-0.5,0.2-0.9,0.3-1.5c0.3-1.3,0.6-2.9,0.6-4.5c0.1-8.7,0.1-17.2,0-24.3
		c0-1.4-0.2-2.8-0.4-4.2c-0.3-2.1-0.6-4.3-0.2-6.6c0.2-0.9,0.2-1.7,0.3-2.6c0.1-1.7,0.3-3.5,1.2-5.4c1-2,0.6-5.2-0.2-7.4
		c-0.7-2-0.7-3.6,0-5.6c0.8-2.3,1.6-4.6,2.6-7.1l1.6-4.5l5.1,14.3c-1.5,4.1-1.6,7.6-0.3,11.2c0.7,1.9,0.7,4,0.8,6.3c0,1,0.1,2,0.2,3
		c3.3,0,6.6,0,9.8,0l0.1,0l0.1,39.6c0.1,44.1,0.1,89.7,0.1,134.5v0.1H427.6z"/>
        <path class="st13" d="M443.6,274.4c-0.3-3.4,0-6.6-1-9.4c-1.4-3.9-1.1-7.5,0.3-11.2c-1.6-4.4-3.1-8.8-5-14
		c-1.6,4.4-2.9,7.8-4.1,11.3c-0.6,1.8-0.7,3.4,0,5.5c0.8,2.3,1.2,5.5,0.2,7.5c-1.3,2.7-1,5.3-1.4,7.9c-0.6,3.7,0.6,7.2,0.7,10.8
		c0.1,8.1,0.1,16.2,0,24.4c0,2.2-0.6,4.4-0.9,5.9c0.5,2.4,1.1,4.2,1.1,6c0.1,7.3,0,14.6,0.1,21.9c0.1,3.2-0.5,6-2.2,8.8
		c-0.8,1.3-1.3,3-1.4,4.5c-0.5,16.7,0,33.3-1,50c-0.9,14.6-0.3,29.4-1.3,44h26c0-58-0.1-116-0.2-174
		C450.2,274.4,446.9,274.4,443.6,274.4z"/>
        <path class="st11" d="M453.5,448.5L453.5,448.5c0-48.1-0.1-96.8-0.1-144l0-30.3H472v174.3H453.5z"/>
        <path class="st11" d="M453.6,448.4v-0.1c0-52.3-0.1-105.5-0.2-157l0-17.1H472v174.1H453.6z"/>
        <path class="st11" d="M453.6,448.4L453.6,448.4c0-52.4-0.1-105.6-0.1-157.1l0-17.1H472v174.1H453.6z"/>
        <path class="st11" d="M453.5,274.4c0.1,58,0.2,116,0.2,173.9h18.2V274.4C465.6,274.4,459.6,274.4,453.5,274.4z"/>
        <path class="st1" d="M293.6,448.5L293.6,448.5l-0.1-0.1v-0.1c-0.2-5-0.4-10-0.6-15.1l0-0.9l0.4-0.1l0,0.1
		c1.1,4.9,2.3,10.1,3.8,15.8l0.1,0.2H293.6z"/>
        <path class="st1" d="M293.6,448.4v-0.1c-0.2-5.3-0.4-10.5-0.6-15.8l0.2,0c1.1,4.8,2.3,10,3.8,15.8l0,0.1L293.6,448.4L293.6,448.4z"
        />
        <path class="st1" d="M293.6,448.4L293.6,448.4c-0.2-5.4-0.4-10.6-0.6-15.9l0.2,0c1.1,4.8,2.3,10,3.8,15.8l0,0.1H293.6z"/>
        <path class="st1" d="M293.7,448.3h3.2c-1.4-5.4-2.6-10.6-3.8-15.8C293.3,437.8,293.5,443,293.7,448.3z"/>
        <path class="st14" d="M296.7,448.5L296.7,448.5c-1.5-5.9-2.7-11.1-3.8-16l-3.2-81.5l0.2,0c13.8,2.3,27.7,6.2,41.4,11.5
		c12.2,4.8,22.8,11.3,31.7,19.4l0.1,66.5H296.7z"/>
        <path class="st14" d="M296.8,448.4L296.8,448.4c-1.5-5.9-2.7-11.1-3.8-15.9l-3.2-81.4l0.1,0c13.8,2.3,27.7,6.1,41.4,11.5
		c12.1,4.8,22.8,11.3,31.7,19.4l0,66.3L296.8,448.4L296.8,448.4z"/>
        <path class="st14" d="M296.8,448.4L296.8,448.4c-1.5-5.9-2.7-11.1-3.8-15.9l-3.2-81.4l0.1,0c13.8,2.3,27.7,6.2,41.4,11.5
		c12.2,4.8,22.8,11.3,31.7,19.4l0,66.3H296.8z"/>
        <path class="st14" d="M331.4,362.8c-13.8-5.4-27.6-9.2-41.4-11.5c1,27.1,2.1,54.1,3.1,81.2c1.1,5.2,2.4,10.5,3.8,15.8H363v-66.1
		C353.8,373.7,343.1,367.4,331.4,362.8z"/>
        <path class="st15" d="M173.1,448.5V370c4.1-2.5,8.6-4.7,13.2-6.6c24.3-9.9,49-14.9,73.5-14.9c2.1,0,4.2,0,6.2,0.1l0.1,0l0.1,0.1
		l-0.4,10.4c-1.2,29.7-2.3,59.4-3.5,89.1l0,0.1l-0.1,0.1H173.1z"/>
        <path class="st15" d="M173.2,448.4V370c4.2-2.5,8.6-4.7,13.1-6.5c24.3-9.9,49-14.9,73.5-14.9c2.2,0,4.3,0,6.2,0.1h0.1l-0.4,10.4
		c-1.2,29.7-2.3,59.4-3.5,89.1v0.1L173.2,448.4L173.2,448.4z"/>
        <path class="st15" d="M173.2,448.4V370c4.2-2.5,8.6-4.7,13.1-6.5c24.3-9.9,49-14.8,73.5-14.8c2.2,0,4.3,0,6.2,0.1l0.1,0l-0.4,10.4
		c-1.2,29.7-2.3,59.4-3.5,89.1l0,0.1H173.2z"/>
        <path class="st15" d="M259.8,348.8c-24.5,0-49.1,4.9-73.4,14.8c-4.5,1.8-8.9,4-13,6.4v78.3h88.8c1.3-33.1,2.6-66.3,3.9-99.5
		C263.9,348.8,261.9,348.8,259.8,348.8z"/>
        <path class="st15" d="M372.2,448.5v-56.9l0.4,0.4c4.7,5.8,8.8,12.3,12.3,19.3c1.4,2.9,2.2,4.5,3.4,4.5c1.5,0,3.9-2.5,8.7-7.6
		l0.3-0.4v40.7H372.2z"/>
        <path class="st15" d="M372.3,448.4v-56.5l0.2,0.2c4.7,5.8,8.8,12.3,12.2,19.3c1.4,2.9,2.3,4.5,3.5,4.5c1.5,0,3.8-2.3,8.8-7.6
		l0.2-0.2v40.3H372.3z"/>
        <path class="st15" d="M372.3,448.4v-56.6l0.2,0.2c4.7,5.8,8.8,12.3,12.3,19.3c1.4,2.9,2.3,4.5,3.5,4.5c1.5,0,3.8-2.3,8.7-7.6
		l0.2-0.2v40.3H372.3z"/>
        <path class="st15" d="M388.3,416c-1.3,0-2.2-1.6-3.6-4.6c-3.5-7.2-7.6-13.6-12.2-19.3v56.2h24.7c0-13.3,0-26,0-40
		C392.1,413.6,389.9,416,388.3,416z"/>
        <path class="st14" d="M362.9,448.5L362.9,448.5L362.9,448.5l-0.1-66.8l0.3,0.3c3.4,3.1,6.5,6.4,9.4,10l0,56.5H362.9z"/>
        <path class="st14" d="M362.9,448.4V382l0.2,0.1c3.4,3.1,6.5,6.5,9.4,10l0,56.3L362.9,448.4L362.9,448.4z"/>
        <path class="st14" d="M362.9,448.4V382l0.2,0.2c3.4,3.1,6.5,6.4,9.4,10l0,56.3H362.9z"/>
        <path class="st14" d="M363,382.2v66.1h9.4v-56.2C369.5,388.5,366.3,385.2,363,382.2z"/>
        <path class="st14" d="M122,448.5v-41l0.3,0.4c4.5,4.6,6.7,7,8.5,7c1.9,0,3.4-2.7,6.5-8.1l0.2-0.4c7-12.4,16.1-22.7,27-30.8l0.3-0.2
		v73.2H122z"/>
        <path class="st14" d="M122.1,448.4v-40.6l0.2,0.2c4.5,4.7,6.7,7,8.6,7c1.9,0,3.5-2.7,6.6-8.2l0.2-0.4c7-12.4,16.1-22.7,27-30.8
		l0.2-0.1v72.9L122.1,448.4L122.1,448.4z"/>
        <path class="st14" d="M122.1,448.4v-40.6l0.2,0.2c4.5,4.7,6.7,7,8.6,7c1.9,0,3.5-2.7,6.6-8.2l0.2-0.4c7-12.4,16.1-22.7,27-30.8
		l0.2-0.1v72.9H122.1z"/>
        <path class="st14" d="M137.7,406.4c-3.3,5.8-4.9,8.6-6.9,8.6c-1.9,0-4.2-2.4-8.6-7c0,14.4,0,27.3,0,40.3h15.8h17.7h9
		c0-24.3,0-48.5,0-72.6C154.1,383.5,144.9,393.7,137.7,406.4z"/>
        <path class="st15" d="M164.6,448.5L164.6,448.5l-0.1-0.1v-72.7c2.7-2.1,5.6-4,8.8-5.9l0.3-0.2v78.9H164.6z"/>
        <path class="st15" d="M164.6,448.4v-72.7c2.7-2.1,5.7-4,8.7-5.8l0.1-0.1v78.6L164.6,448.4L164.6,448.4z"/>
        <path class="st15" d="M164.6,448.4v-72.7c2.7-2.1,5.7-4,8.7-5.8l0.2-0.1v78.6H164.6z"/>
        <path class="st15" d="M164.7,375.7c0,24.2,0,48.4,0,72.6h8.7V370C170.3,371.7,167.5,373.6,164.7,375.7z"/>
        <path class="st16" d="M282.1,350.3c-4.9-0.6-9.8-1-14.6-1.2h-0.2v-37.5c0,0,3-76.9,4.2-107.7l-3,0c-0.6,0-1.2,0-1.8,0
		c-3.1-0.1-4.8-2.1-4.8-5.4c0-1.6-0.4-3.3-0.8-4.9l-0.1-0.4c-0.1-0.6-0.3-1.2-0.4-1.8c-0.1-0.7-0.3-1.4-0.4-2l-0.7-3.7h0.4
		c0.8,0,1.3-0.1,1.6-0.5c0.4-0.5,0.4-1.2,0.4-2.1l0-0.3c0-0.7,0-1.4,0-2c0-3.6,1.1-4.6,4.9-4.7h4.2v-7.3l2.9-0.7l0-16.5
		c0-11.6,0-23.7-0.1-35.4c0-1-0.4-2-0.8-2.9l-0.2-0.4c-0.4-0.9-0.4-1.6-0.1-2.1c0.3-0.5,1.1-0.8,2.3-0.8v-2.7c0-3.2-0.1-6.4-0.1-9.5
		l0-1.1c-0.1-8.1-0.3-16.4,0.4-24.6c0.5-6.3,0.6-12.7,0.7-18.9l0-0.1c0-2.8,0.1-6,0.1-9.3c0.2-7.7,0.4-15.6,0.5-23.1l0.2-10.5
		c0-0.2,0-0.4,0-0.6c0-0.5,0-1,0.1-1.5c0.1-0.4,0.7-1,1.1-1c0.6,0.1,1.1,0.6,1.4,1c0.2,0.4,0.1,0.8,0.1,1.2c0,0.2,0,0.3,0,0.4l0,2.9
		c0,0.8,0,1.6,0,2.4c0.1,5.2,0.1,10.4,0.1,15.5v0.4c0,11.6,0,23.6,0.9,35.3c0.6,8,0.6,16,0.6,23.8l0,0.3c0,5.3,0,11.9,0.2,18.2
		c0,0.2,0,0.5,0.1,0.7c0,0.2,0,0.3,0,0.4c1.1,0.3,2.3,0.8,2.5,1.6c0.2,0.6-0.3,1.4-1.3,2.3c-0.2,0.2-0.2,0.7-0.2,1.1v0.2
		c0,17.6,0,35.2,0.1,52.9c0,0,0,0.1,0,0.2l0,0.1l2.6,0.6v7.3l3.2,0c0.7,0,1.3,0,2,0c2.8,0.1,3.9,1.2,4,3.9c0,0.7,0.1,1.8,0,2.8
		c-0.1,1-0.1,1.8,0.4,2.4c0.3,0.4,0.9,0.6,1.7,0.6h0.2l-0.7,3.3c-0.5,2.5-1,5-1.5,7.4l-0.1,0.2c-0.1,0.5-0.3,1.2-0.2,1.8
		c0.2,1.5-0.2,2.8-1,3.8c-0.8,1-2,1.5-3.5,1.6c-0.6,0-1.2,0.1-1.9,0.1l-3.2,0l3.1,79.3c-4.2,20.5-6,43-5.2,67v0.3L282.1,350.3z"/>
        <path class="st16" d="M282.1,350.2c-4.9-0.6-9.9-1-14.7-1.2h-0.1v-37.4c0,0,3-77,4.2-107.8c-0.5,0-1.1,0-1.6,0s-1,0-1.5,0
		c-0.6,0-1.2,0-1.8,0c-3-0.1-4.7-2-4.7-5.3c0-1.6-0.4-3.3-0.8-4.9c-0.2-0.7-0.4-1.5-0.5-2.2c-0.2-1.1-0.4-2.2-0.7-3.4l-0.4-2.1h0.3
		c0.8,0,1.3-0.2,1.6-0.5c0.5-0.5,0.5-1.3,0.4-2.2l0-0.3c0-0.7,0-1.4,0-2c0-3.6,1-4.6,4.8-4.6h4.3v-7.3c0,0,2.2-0.5,2.9-0.7v-11.5
		c0-13.3,0-27,0-40.5c0-1-0.4-2-0.9-3l-0.1-0.3c-0.4-0.9-0.4-1.6-0.1-2c0.3-0.5,1.1-0.8,2.4-0.8v-2.8c0-3.5-0.1-7.1-0.1-10.6
		c-0.1-8.1-0.3-16.4,0.4-24.6c0.5-6.4,0.6-12.8,0.7-19.1c0-3,0.1-6.2,0.1-9.2c0.2-7.7,0.4-15.5,0.5-23.1c0.1-3.5,0.1-7,0.2-10.5
		c0-0.2,0-0.4,0-0.6c0-0.5,0-1,0.1-1.4c0.1-0.4,0.6-1,1-1c0.5,0.1,1.1,0.5,1.3,1c0.2,0.3,0.1,0.7,0.1,1.1c0,0.1,0,0.3,0,0.4
		c0,0.7,0,1.4,0,2.1c0,1.1,0,2.1,0,3.2c0.1,5.1,0.1,10.4,0.1,15.5c0,11.7,0,23.8,0.9,35.7c0.6,8.1,0.6,16.2,0.6,24.2
		c0,6,0,12.1,0.2,18.2c0,0.3,0,0.5,0.1,0.8c0,0.1,0,0.3,0,0.4c1.2,0.3,2.3,0.8,2.5,1.6c0.1,0.6-0.3,1.3-1.2,2.2
		c-0.2,0.2-0.2,0.8-0.2,1.2v0.2c0,17.6,0,35.2,0,52.9c0,0.1,0,0.1,0,0.2l0,0.1l2.6,0.6v7.3l3.3,0c0.7,0,1.3,0,2,0
		c2.7,0.1,3.9,1.2,3.9,3.8c0,0.9,0,1.9,0,2.8c-0.1,1-0.1,1.9,0.5,2.4c0.4,0.4,1,0.6,1.8,0.6h0.1l-0.7,3.2c-0.5,2.5-1,5-1.5,7.4
		l0,0.2c-0.1,0.6-0.3,1.2-0.2,1.9c0.2,1.5-0.2,2.8-1,3.7c-0.8,0.9-2,1.5-3.5,1.6c-0.6,0-1.2,0.1-1.9,0.1c-0.5,0-1,0-1.6,0
		c-0.6,0-1.1,0-1.8,0l3.1,79.4c-4.2,20.5-6,43-5.2,67v0.1L282.1,350.2z"/>
        <path class="st16" d="M282.1,350.2c-4.9-0.6-9.9-1-14.7-1.2l-0.1,0v-37.4c0,0,3-77,4.2-107.8c-0.6,0-1.1,0-1.6,0c-0.5,0-1,0-1.5,0
		c-0.6,0-1.2,0-1.8,0c-3.1-0.1-4.7-2-4.7-5.3c0-1.6-0.4-3.3-0.8-4.9c-0.2-0.7-0.3-1.5-0.5-2.2c-0.2-1.1-0.4-2.2-0.7-3.4l-0.4-2.2
		h0.3c0.8,0,1.3-0.2,1.6-0.5c0.5-0.5,0.5-1.3,0.4-2.2l0-0.3c0-0.7,0-1.4,0-2c0-3.6,1-4.5,4.8-4.6h4.3v-7.3c0,0,2.2-0.5,2.9-0.7
		l0-11.5c0-13.3,0-27-0.1-40.5c0-1-0.4-2-0.9-3l-0.2-0.4c-0.4-0.9-0.4-1.6-0.1-2c0.3-0.5,1.1-0.8,2.4-0.8v-2.8
		c0-3.5-0.1-7.1-0.1-10.6c-0.1-8.1-0.3-16.5,0.4-24.6c0.5-6.4,0.6-12.8,0.7-19.1c0-3,0.1-6.2,0.2-9.2c0.2-7.7,0.4-15.5,0.5-23.1
		c0.1-3.5,0.1-7,0.2-10.5c0-0.2,0-0.4,0-0.6c0-0.5,0-1,0.1-1.4c0.1-0.4,0.6-1,1-1c0.5,0.1,1.1,0.5,1.3,1c0.2,0.3,0.1,0.7,0.1,1.1
		c0,0.1,0,0.3,0,0.4c0,0.7,0,1.4,0,2.1c0,1.1,0,2.1,0,3.2c0.1,5.2,0.1,10.4,0.1,15.5c0,11.7,0,23.8,0.9,35.7
		c0.6,8.1,0.6,16.3,0.6,24.2c0,6,0,12.1,0.2,18.2c0,0.3,0,0.5,0.1,0.8c0,0.1,0,0.3,0,0.4c1.2,0.3,2.3,0.8,2.5,1.6
		c0.1,0.6-0.3,1.3-1.2,2.2c-0.2,0.2-0.2,0.8-0.2,1.2l0,0.2c0,17.6,0,35.2,0,52.9c0,0.1,0,0.1,0,0.2l0,0.1l2.6,0.6v7.3l3.3,0
		c0.7,0,1.3,0,2,0c2.7,0.1,3.8,1.2,3.9,3.8c0,0.9,0.1,1.8,0,2.8c-0.1,1-0.1,1.9,0.5,2.4c0.4,0.4,1,0.6,1.8,0.6l0.1,0l-0.7,3.2
		c-0.5,2.5-1,5-1.5,7.4l0,0.2c-0.1,0.6-0.3,1.2-0.2,1.8c0.2,1.5-0.2,2.8-1,3.7c-0.8,0.9-2,1.5-3.5,1.6c-0.6,0-1.2,0.1-1.9,0.1
		c-0.5,0-1,0-1.6,0c-0.6,0-1.1,0-1.8,0l3.1,79.4c-4.2,20.5-6,43-5.2,67l0,0.1L282.1,350.2z"/>
        <path class="st16" d="M282.1,350.1c-0.8-25.5,1.2-47.7,5.2-67c-1-26.5-2-53-3.1-79.5c1.3,0,2.4,0,3.4,0c0.6,0,1.2,0,1.9-0.1
		c3-0.2,4.6-2.2,4.3-5.2c-0.1-0.7,0.1-1.4,0.2-2.1c0.7-3.4,1.4-6.8,2.2-10.4c-2.5,0-2.5-1.5-2.4-3.1c0-0.9,0-1.9,0-2.8
		c-0.1-2.6-1.2-3.7-3.8-3.7c-0.6,0-1.3,0-2,0c-1.1,0-2.2,0-3.4,0c0-2.7,0-5,0-7.4c-1.1-0.3-1.9-0.5-2.5-0.6
		c-0.1-0.3-0.1-0.4-0.1-0.4c0-17.6,0-35.2,0-52.9c0-0.5,0-1.2,0.2-1.4c2.4-2.2,0.9-3.1-1.3-3.7c0-0.5-0.1-0.9-0.1-1.3
		c-0.6-14.1,0.3-28.2-0.8-42.4c-1.3-17-0.8-34.1-1-51.2c0-1.8,0-3.6,0-5.4c0-0.5,0.1-1.1-0.1-1.5s-0.7-0.8-1.1-0.9c0,0,0,0,0,0
		c-0.2,0-0.8,0.5-0.9,0.9c-0.2,0.6-0.1,1.3-0.1,2c-0.2,11.2-0.5,22.4-0.8,33.6c-0.3,9.4,0,18.8-0.8,28.3c-1,11.7-0.2,23.5-0.2,35.2
		c0,0.9,0,1.8,0,2.9c-2.2,0-3.1,0.7-2.2,2.7c0.5,1.1,1,2.3,1,3.4c0.1,16.5,0,33,0,49.6c0,0.8,0,1.7,0,2.5c-1,0.2-1.8,0.4-2.9,0.7
		c0,2.4,0,4.8,0,7.3c-1,0-2,0-2.9,0c-0.5,0-1,0-1.5,0c-3.7,0-4.6,0.9-4.7,4.5c0,0.7,0,1.4,0,2c0,1.5,0.3,3.1-2.1,3.1
		c-0.1,0-0.1,0-0.2,0c0.4,2,0.7,3.7,1.1,5.5c0.5,2.4,1.3,4.7,1.3,7.1c0,3.1,1.4,5.1,4.6,5.2c0.6,0,1.2,0,1.8,0c1,0,2.1,0,3.2,0
		c-1.4,36-2.8,72-4.2,107.9c0,12.4,0,24.9,0,37.3C272.3,349.1,277.2,349.5,282.1,350.1z"/>
        <path class="st17" d="M289.9,351.4c-2.5-0.4-5.1-0.8-7.8-1.1l-0.1,0l-0.1-0.1c-0.8-24,1-46.6,5.2-67.1l0-0.1l0.4,0l2.6,68.4
		L289.9,351.4z"/>
        <path class="st17" d="M290,351.4c-2.5-0.4-5.1-0.8-7.8-1.1l-0.1,0v-0.1c-0.8-23.9,1-46.5,5.2-67l0.2,0l2.6,68.2L290,351.4z"/>
        <path class="st17" d="M290,351.3c-2.5-0.4-5.1-0.8-7.8-1.1l-0.1,0l0-0.1c-0.8-23.9,1-46.5,5.2-67l0.2,0l2.6,68.2L290,351.3z"/>
        <path class="st17" d="M282.1,350.1c2.6,0.3,5.2,0.7,7.8,1.1c-0.9-22.7-1.8-45.4-2.6-68.1C283.4,302.5,281.3,324.7,282.1,350.1z"/>
        <path class="st13" d="M267.3,349.1c-0.5,0-0.9,0-1.3,0h-0.2l1.4-37.5h0.4v37.6L267.3,349.1z"/>
        <path class="st13" d="M267.3,349c-0.4,0-0.9,0-1.3,0h-0.1l1.4-37.3h0.2V349L267.3,349z"/>
        <path class="st13" d="M267.3,349c-0.4,0-0.9,0-1.3,0l-0.1,0l1.4-37.3l0.2,0V349L267.3,349z"/>
        <path class="st13" d="M267.4,348.9c0-12.4,0-24.9,0-37.3c-0.5,12.4-1,24.8-1.4,37.2C266.5,348.9,267,348.9,267.4,348.9z"/>
        <path class="st12" d="M267.2,448.5v-99.8h0.2c4.9,0.2,9.9,0.6,14.7,1.2l0.1,0l0.1,0.1c0.8,25.6,4.5,53.3,11,82.4l0.6,16.1H267.2z"
        />
        <path class="st12" d="M267.3,448.4v-99.6h0.1c4.9,0.2,9.8,0.6,14.7,1.2l0.1,0v0.1c0.8,25.5,4.5,53.2,11,82.4l0.6,16L267.3,448.4
		L267.3,448.4z"/>
        <path class="st12" d="M267.3,448.4v-99.6l0.1,0c4.9,0.2,9.8,0.6,14.7,1.2l0.1,0l0,0.1c0.8,25.5,4.5,53.3,11,82.4l0.6,16H267.3z"/>
        <path class="st12" d="M282.1,350.1c-4.9-0.6-9.8-1-14.7-1.2c0,33.1,0,66.2,0,99.4h26.3c-0.2-5.3-0.4-10.5-0.6-15.8
		C286.3,401.8,282.9,374.5,282.1,350.1z"/>
        <path class="st17" d="M292.9,432.5c-6.5-29.1-10.2-56.8-11-82.4v-0.2l0.2,0c2.6,0.3,5.2,0.7,7.8,1.1l0.1,0l0.1,0.1l3.2,81.4
		L292.9,432.5L292.9,432.5z"/>
        <path class="st17" d="M293,432.5c-6.5-29.1-10.2-56.8-11-82.4V350l0.1,0c2.5,0.3,5.2,0.7,7.8,1.1l0.1,0l3.1,81.3L293,432.5z"/>
        <path class="st17" d="M293,432.5c-6.5-29.1-10.2-56.8-11-82.4l0-0.1l0.1,0c2.5,0.3,5.2,0.7,7.8,1.1l0.1,0l3.2,81.3L293,432.5z"/>
        <path class="st17" d="M293.1,432.5c-1-27.1-2.1-54.2-3.1-81.2c-2.6-0.4-5.2-0.8-7.8-1.1C282.9,374.5,286.3,401.8,293.1,432.5z"/>
        <path class="st13" d="M261.9,448.5l3.9-99.9l0.4,0c0.4,0,0.8,0,1.2,0l0.2,0l0.1,0.1v99.7H261.9z"/>
        <path class="st13" d="M262,448.4l3.9-99.6l0.3,0c0.4,0,0.9,0,1.3,0h0.1v99.6L262,448.4L262,448.4z"/>
        <path class="st13" d="M262,448.4l3.9-99.7l0.3,0c0.4,0,0.9,0,1.3,0l0.1,0v99.6H262z"/>
        <path class="st13" d="M266,348.9c-1.3,33.2-2.6,66.3-3.9,99.4h5.3c0-33.2,0-66.3,0-99.4C267,348.9,266.5,348.9,266,348.9z"/>
</g>
</svg>