<svg id="Layer_1" data-name="Layer 1" xmlns="http://www.w3.org/2000/svg" viewBox="0 0 406.81 545.15"><defs><style>.cls-1{fill:#02bc67;}.cls-2{fill:#97ebf3;}.cls-3{fill:#3f939b;}.cls-4{fill:#80ea6e;}.cls-5{fill:#f9bc26;}.cls-6{fill:#aa7a00;}.cls-7{fill:#ffd262;}.cls-8{fill:#f8bb25;}.cls-9{fill:#ff877a;}.cls-10{fill:#d0584b;}.cls-11{fill:#ffa298;}.cls-12{fill:#ffa49a;}</style></defs><path class="cls-1" d="M243,544.93l-142.39.13v.09h151V545H243v0M181.73,59.84H173.1v8.93H167V80h6.14v22.72c-9.56,1.71-19.14,8.47-29.76,13-.5,3.59-1.2,8.53-1.93,13.65l-19.31,2.75v53.51l-21.88,4.1v8.39a74.82,74.82,0,0,1,7.25-3.54V417.34q49.85-19.11,100-19.1a266.32,266.32,0,0,1,40.94,3.18Q250.22,355,252,308.47q.08-32.91.11-65.72h-1.53c-.76,0-1.5,0-2.23,0-3.88-.17-5.64-2.67-5.63-6.43,0-2.93-1-5.86-1.53-8.79-.41-2.15-.83-4.29-1.3-6.77h.22c3,0,2.66-2,2.61-3.87,0-.85,0-1.69,0-2.53,0-4.38,1.18-5.49,5.68-5.52h3.74q0-9.66,0-19.31l-21.51-4.39V132l-18-2.71c-1.18-6-2.15-10.94-2.65-13.44-10.53-4.64-19.57-11.23-28.27-13V80H188V68.77h-6.29V59.84" transform="translate(0 0)"/><path class="cls-2" d="M100.22,198.15C71.47,213.82-31,286,9.25,503.24V483.61c6.44,6.69,9.75,10.13,12.45,10.13,2.94,0,5.17-4.05,9.93-12.43,16.7-29.43,40.51-49.4,68.84-61.19q-.15-111.09-.25-222" transform="translate(0 0)"/><path class="cls-3" d="M107.47,194.61a74.82,74.82,0,0,0-7.25,3.54q0,110.79.25,222l1.25-.51q2.88-1.17,5.75-2.27V194.61" transform="translate(0 0)"/><path class="cls-4" d="M282.83,229.22c-.3,1.51-.61,3-.91,4.5a9,9,0,0,0-.3,2.61c.39,3.6-1.63,6.16-5.28,6.38-.75,0-1.5,0-2.28,0h-1.91v58.71q2,52.91,4,105.74a302.86,302.86,0,0,1,34.39,11.23c32.47,12.75,59.49,34.84,76.71,70.07,2.09,4.28,3.32,6.6,5.2,6.6,2.31,0,5.61-3.48,12.7-11.06v58.17h1.63v-26.9l-.67-145.79-.31-19-34.26-1L361.31,349H355l.88-79.2L313.6,244.67l-8-4.41-22.82-11" transform="translate(0 0)"/><path class="cls-5" d="M9.25,503.24v41.91l91.32-.09v0H18.35q-5.42-21.74-9.1-41.77" transform="translate(0 0)"/><path class="cls-6" d="M207.51,398.24q-50.13,0-100,19.1V545h-6.9v0L243,544.93q2.74-71.73,5.49-143.51a266.32,266.32,0,0,0-40.94-3.18" transform="translate(0 0)"/><path class="cls-7" d="M100.47,420.12c-28.33,11.79-52.14,31.76-68.84,61.19-4.76,8.38-7,12.43-9.93,12.43-2.7,0-6-3.44-12.45-10.13v19.63Q13,523.3,18.35,545h82.22q0-62.42-.1-124.89" transform="translate(0 0)"/><path class="cls-6" d="M107.47,417.34q-2.86,1.1-5.75,2.27l-1.25.51q.07,62.47.1,124.89h6.9V417.34" transform="translate(0 0)"/><path class="cls-5" d="M281.35,542.18c0,.91.07,1.8.1,2.71l123.74-.11v-2.57l-123.84,0" transform="translate(0 0)"/><path class="cls-8" d="M276.19,407.2q2.58,67.47,5.16,135l123.84,0V484c-7.09,7.58-10.39,11.06-12.7,11.06-1.88,0-3.11-2.32-5.2-6.6-17.22-35.23-44.24-57.32-76.71-70.07a302.86,302.86,0,0,0-34.39-11.23" transform="translate(0 0)"/><path class="cls-9" d="M262,0c-.31,0-1,.66-1.06,1.09a11.63,11.63,0,0,0-.09,2.51c-.3,13.82-.55,27.64-.93,41.46-.32,11.65,0,23.28-1,35-1.16,14.42-.28,29-.28,43.52v3.54c-2.65,0-3.76.89-2.74,3.33a11.59,11.59,0,0,1,1.24,4.19c.08,20.41.06,40.82.06,61.22V199l-3.48.82v9h-1.62q0,16.94,0,33.93h2.41q-1.26,32.89-2.52,65.73-.09,46.71-.21,93.49,10.18,1.71,20.36,4.21V301.46l-2.25-58.73,2.25,0v-5.07l.11-13.58,10.57,5.12c.56-2.73,1.14-5.51,1.74-8.42-3-.05-3-1.9-2.89-3.88.07-1.15,0-2.31,0-3.47-.1-3.2-1.41-4.52-4.66-4.62-.79,0-1.57,0-2.38,0l-4.15,0v-9.08l-3.1-.78a3.47,3.47,0,0,1-.12-.54q0-32.65-.07-65.32c0-.61,0-1.46.31-1.78,3-2.74,1.08-3.77-1.62-4.53-.05-.57-.12-1.08-.15-1.6-.73-17.43.34-34.84-1-52.33-1.58-21-.92-42.13-1.22-63.21,0-2.21,0-4.42,0-6.62a4.8,4.8,0,0,0-.09-1.87A2.33,2.33,0,0,0,262.06,0h0" transform="translate(0 0)"/><path class="cls-10" d="M252,308.47q-1.77,46.53-3.55,92.95c1.12.17,2.23.35,3.34.54q.11-46.77.21-93.49m-1.71-99.65H248.4c-4.5,0-5.64,1.14-5.68,5.52,0,.84,0,1.68,0,2.53.05,1.86.36,3.87-2.61,3.87h-.22c.47,2.48.89,4.62,1.3,6.77.55,2.93,1.54,5.86,1.53,8.79,0,3.76,1.75,6.26,5.63,6.43.73,0,1.47,0,2.23,0h1.53q0-17,0-33.93h-1.85" transform="translate(0 0)"/><path class="cls-11" d="M272.15,301.46V406.17c1.34.33,2.69.67,4,1q-2-52.86-4-105.74m.11-77.36-.11,13.58v5.07h1.91c.78,0,1.53,0,2.28,0,3.65-.22,5.67-2.78,5.28-6.38a9,9,0,0,1,.3-2.61c.3-1.5.61-3,.91-4.5l-10.57-5.12" transform="translate(0 0)"/><path class="cls-9" d="M281.45,544.89l-29.85,0v0h29.85v-.06" transform="translate(0 0)"/><path class="cls-10" d="M251.6,544.92H243v0h8.64v0" transform="translate(0 0)"/><path class="cls-12" d="M251.79,402c-.1,47.75-.19,95.5-.19,143l29.85,0c0-.91-.07-1.8-.1-2.71h-9.2v-136Q262,403.68,251.79,402" transform="translate(0 0)"/><path class="cls-10" d="M248.45,401.42q-2.74,71.82-5.49,143.51h8.64c0-47.46.09-95.21.19-143-1.11-.19-2.22-.37-3.34-.54" transform="translate(0 0)"/><path class="cls-11" d="M272.15,406.17v136h9.2q-2.58-67.51-5.16-135c-1.35-.36-2.7-.7-4-1" transform="translate(0 0)"/></svg>