<svg xmlns="http://www.w3.org/2000/svg" xmlns:xlink="http://www.w3.org/1999/xlink" viewBox="0 0 1007.03 549.29"><defs><style>.a,.h,.j{fill:none;}.b{fill:url(#a);}.c{fill:url(#b);}.d{fill:url(#c);}.e{fill-rule:evenodd;fill:url(#d);}.f{clip-path:url(#e);}.g{opacity:0.7;fill:url(#f);}.g,.i,.j{isolation:isolate;}.h{stroke:#0091da;stroke-linecap:round;stroke-linejoin:round;stroke-width:2.61px;}.i{fill:#07968c;opacity:0.2;}.j{stroke:#83c6ed;stroke-miterlimit:10;stroke-width:4px;opacity:0.4;}.k{fill:url(#g);}.l{fill:url(#h);}.m{clip-path:url(#i);}.n{fill:url(#j);}.o{fill:url(#k);}.p{fill:#304250;}.q{fill:url(#l);}.r{fill:#78be20;}.s{fill:url(#m);}</style><linearGradient id="a" x1="322.94" y1="904.97" x2="322.94" y2="1239.71" gradientTransform="translate(-0.01 -824)" gradientUnits="userSpaceOnUse"><stop offset="0" stop-color="#19bfd3" stop-opacity="0"/><stop offset="0.05" stop-color="#19bfd3" stop-opacity="0.04"/><stop offset="0.23" stop-color="#19bfd3" stop-opacity="0.18"/><stop offset="0.39" stop-color="#19bfd3" stop-opacity="0.27"/><stop offset="0.5" stop-color="#19bfd3" stop-opacity="0.3"/><stop offset="0.61" stop-color="#19bfd3" stop-opacity="0.27"/><stop offset="0.77" stop-color="#19bfd3" stop-opacity="0.19"/><stop offset="0.95" stop-color="#19bfd3" stop-opacity="0.05"/><stop offset="1" stop-color="#19bfd3" stop-opacity="0"/></linearGradient><linearGradient id="b" x1="503.52" y1="2.71" x2="503.52" y2="552" gradientTransform="matrix(1, 0, 0, -1, -0.01, 552)" gradientUnits="userSpaceOnUse"><stop offset="0" stop-color="#0091da" stop-opacity="0"/><stop offset="0.06" stop-color="#0091da" stop-opacity="0.05"/><stop offset="0.25" stop-color="#0091da" stop-opacity="0.19"/><stop offset="0.41" stop-color="#0091da" stop-opacity="0.27"/><stop offset="0.53" stop-color="#0091da" stop-opacity="0.3"/><stop offset="0.63" stop-color="#0091da" stop-opacity="0.27"/><stop offset="0.78" stop-color="#0091da" stop-opacity="0.19"/><stop offset="0.94" stop-color="#0091da" stop-opacity="0.06"/><stop offset="1" stop-color="#0091da" stop-opacity="0"/></linearGradient><linearGradient id="c" x1="321.77" y1="136.26" x2="558.7" y2="373.19" gradientTransform="matrix(1, 0, 0, -1, -0.01, 552)" gradientUnits="userSpaceOnUse"><stop offset="0" stop-color="#a0d2f1"/><stop offset="0.03" stop-color="#a5d4f2"/><stop offset="0.32" stop-color="#cce7f7"/><stop offset="0.59" stop-color="#e8f4fc"/><stop offset="0.83" stop-color="#f9fcfe"/><stop offset="1" stop-color="#fff"/></linearGradient><linearGradient id="d" x1="299.75" y1="359.04" x2="614.3" y2="359.04" gradientTransform="matrix(1, 0, 0, -1, 0, 552)" xlink:href="#c"/><clipPath id="e" transform="translate(-0.01)"><rect class="a" x="299.75" y="183.77" width="314.56" height="193.42" rx="7.34"/></clipPath><linearGradient id="f" x1="422.36" y1="384.65" x2="422.36" y2="127.18" gradientTransform="matrix(1, 0, 0, -1, -0.01, 552)" gradientUnits="userSpaceOnUse"><stop offset="0.28" stop-color="#fff"/><stop offset="0.44" stop-color="#fff" stop-opacity="0.62"/><stop offset="0.6" stop-color="#fff" stop-opacity="0.28"/><stop offset="0.7" stop-color="#fff" stop-opacity="0.08"/><stop offset="0.75" stop-color="#fff" stop-opacity="0"/></linearGradient><linearGradient id="g" x1="8235.83" y1="10297.74" x2="8165.83" y2="10367.74" gradientTransform="matrix(0, -1, -1, 0, 10608, 8540.71)" gradientUnits="userSpaceOnUse"><stop offset="0.05" stop-color="#1d428a"/><stop offset="0.85" stop-color="#0091da"/></linearGradient><linearGradient id="h" x1="8233.24" y1="10300.33" x2="8171.83" y2="10361.74" gradientTransform="matrix(0, -1, -1, 0, 10608, 8540.71)" gradientUnits="userSpaceOnUse"><stop offset="0" stop-color="#a0d2f1"/><stop offset="0.01" stop-color="#a1d2f1"/><stop offset="0.68" stop-color="#e4f2fb"/><stop offset="1" stop-color="#fff"/></linearGradient><clipPath id="i" transform="translate(-0.01)"><rect class="a" x="249.42" y="256.67" width="79.51" height="138.61" rx="5.51"/></clipPath><linearGradient id="j" x1="294.17" y1="302.41" x2="294.17" y2="186.28" xlink:href="#f"/><linearGradient id="k" x1="445.63" y1="162.65" x2="518.53" y2="162.65" gradientTransform="matrix(0.16, 0.99, 0.99, -0.16, 244.31, -60.45)" gradientUnits="userSpaceOnUse"><stop offset="0" stop-color="#78be20"/><stop offset="1" stop-color="#00c1d5"/></linearGradient><linearGradient id="l" x1="564.17" y1="380.66" x2="699.75" y2="380.66" gradientTransform="matrix(1, 0, 0, -1, -0.01, 552)" gradientUnits="userSpaceOnUse"><stop offset="0" stop-color="#78be20"/><stop offset="1" stop-color="#00c1d5"/></linearGradient><linearGradient id="m" x1="182.43" y1="271.89" x2="261.65" y2="192.67" gradientTransform="matrix(1, 0, 0, -1, -0.01, 552)" gradientUnits="userSpaceOnUse"><stop offset="0" stop-color="#78be20"/><stop offset="1" stop-color="#00c1d5"/></linearGradient></defs><polygon class="b" points="602.09 80.97 267.35 415.71 43.77 415.71 378.93 80.97 602.09 80.97"/><polygon class="c" points="0 549.29 549.29 0 1007.03 0 457.75 549.29 0 549.29"/><rect class="d" x="299.74" y="183.77" width="314.56" height="193.42" rx="7.34"/><path class="e" d="M299.75,202.15V190.78a7,7,0,0,1,7-7H607.3a7,7,0,0,1,7,7h0v11.37" transform="translate(-0.01)"/><g class="f"><polygon class="g" points="293.62 424.82 293.62 167.35 551.09 167.35 293.62 424.82"/></g><rect class="h" x="309.91" y="190.79" width="7.2" height="7.2" rx="0.91"/><line class="h" x1="323.61" y1="194.39" x2="346.1" y2="194.39"/><circle class="i" cx="631.95" cy="181.98" r="67.79"/><circle class="i" cx="222.34" cy="329.12" r="56.02"/><circle class="i" cx="482.28" cy="395.47" r="36.45" transform="translate(14.65 808.18) rotate(-80.78)"/><line class="j" x1="340.91" y1="225.7" x2="457.82" y2="225.7"/><line class="j" x1="340.91" y1="244.65" x2="457.82" y2="244.85"/><line class="j" x1="340.91" y1="339.9" x2="457.82" y2="340.1"/><line class="j" x1="374.91" y1="263.7" x2="491.82" y2="263.9"/><line class="j" x1="402.91" y1="282.75" x2="519.82" y2="282.95"/><line class="j" x1="402.91" y1="301.8" x2="519.82" y2="302"/><line class="j" x1="402.91" y1="320.85" x2="519.82" y2="321.05"/><rect class="k" x="245.19" y="245.66" width="87.93" height="160.65" rx="6.24"/><rect class="l" x="249.41" y="256.67" width="79.51" height="138.61" rx="5.51"/><g class="m"><polygon class="n" points="235.43 365.72 352.89 249.78 235.81 249.59 235.43 365.72"/></g><circle class="o" cx="482.08" cy="389.35" r="36.45" transform="translate(20.53 802.84) rotate(-80.78)"/><path class="p" d="M494,376.14l-9.18,10.8.08.26,13.52-2.73v8.59l-13.6-2.38-.09.26L494,401.39l-7.57,4.43-4.84-13.18-.17.08-4.94,13.1-7.31-4.43,9.1-10.62v-.17L465,393.06v-8.59l13.18,2.64.09-.17-9-10.71,7.57-4.34,4.76,13h.17l4.85-13Z" transform="translate(-0.01)"/><circle class="q" cx="631.95" cy="171.34" r="67.79"/><path class="r" d="M331.87,161.35a6.43,6.43,0,0,1-3.1-2.7,9,9,0,0,1-.93-4.35v-7.05a4.9,4.9,0,0,0-1.12-3.6,5.31,5.31,0,0,0-3.78-1.1V139.8a5.22,5.22,0,0,0,3.78-1.12,5,5,0,0,0,1.12-3.63v-7a9,9,0,0,1,.93-4.37,6.39,6.39,0,0,1,3.1-2.68,20,20,0,0,1,6-1.4l.3,2.65a19,19,0,0,0-4.52,1.1,3.89,3.89,0,0,0-2,1.75,7.39,7.39,0,0,0-.55,3.15l0,7.2a6.6,6.6,0,0,1-.92,3.68,5.41,5.41,0,0,1-2.83,2,5.61,5.61,0,0,1,2.83,2.08,6.57,6.57,0,0,1,.92,3.67l0,7.15a7.16,7.16,0,0,0,.58,3.23,3.87,3.87,0,0,0,2.05,1.75,19.56,19.56,0,0,0,4.47,1.07l-.3,2.65A19.82,19.82,0,0,1,331.87,161.35Z" transform="translate(-0.01)"/><path class="r" d="M650.9,386.12a6.55,6.55,0,0,1,3.11,2.7,9.1,9.1,0,0,1,.92,4.35v7.05a4.91,4.91,0,0,0,1.13,3.6,5.24,5.24,0,0,0,3.77,1.1v2.75a5.19,5.19,0,0,0-3.77,1.13,5,5,0,0,0-1.13,3.62v7a9.1,9.1,0,0,1-.92,4.38,6.49,6.49,0,0,1-3.11,2.67,19.09,19.09,0,0,1-6,1.4l-.3-2.65a18,18,0,0,0,4.52-1.1,3.89,3.89,0,0,0,2-1.75,7.07,7.07,0,0,0,.55-3.15l0-7.2a6.48,6.48,0,0,1,.93-3.67,5.29,5.29,0,0,1,2.82-2,5.47,5.47,0,0,1-2.82-2.07,6.53,6.53,0,0,1-.93-3.68l0-7.15a7.12,7.12,0,0,0-.58-3.22,3.89,3.89,0,0,0-2-1.75,19.79,19.79,0,0,0-4.48-1.08l.3-2.65A19.85,19.85,0,0,1,650.9,386.12Z" transform="translate(-0.01)"/><path class="r" d="M169.77,221.59a20.35,20.35,0,0,0-4.1,5.84,18,18,0,0,0,0,13.7,20.94,20.94,0,0,0,4.1,5.85l-1.29,1.36a19.23,19.23,0,0,1-5-6.32,18,18,0,0,1,0-15.48,19.17,19.17,0,0,1,5-6.34Z" transform="translate(-0.01)"/><path class="r" d="M696.64,105a20.58,20.58,0,0,0,4.11-5.84,18.05,18.05,0,0,0,0-13.7,21.18,21.18,0,0,0-4.11-5.85l1.29-1.36a19.23,19.23,0,0,1,5,6.32,18,18,0,0,1,0,15.48,19.17,19.17,0,0,1-5,6.34Z" transform="translate(-0.01)"/><path class="r" d="M645.83,259.61a1,1,0,0,1,.38.77,16.48,16.48,0,0,1-.2,2.43c-.13.85-.22,1.37-.25,1.57-.1.5-.22,1.25-.35,2.25.43-.3,1.05-.78,1.85-1.45a22.62,22.62,0,0,1,3.15-2.35,1,1,0,0,1,.5-.15,1.17,1.17,0,0,1,.6.18,1.32,1.32,0,0,1,.5.52,1.64,1.64,0,0,1,.2.65,1,1,0,0,1-.55,1,22.32,22.32,0,0,1-3.65,1.6l-2.15.85,2.15.85a24.18,24.18,0,0,1,3.65,1.6,1,1,0,0,1,.55.95,1.64,1.64,0,0,1-.2.65,1.34,1.34,0,0,1-.5.53,1.16,1.16,0,0,1-.6.17.82.82,0,0,1-.5-.15,21.86,21.86,0,0,1-3.15-2.35c-.8-.66-1.42-1.15-1.85-1.45.13,1,.25,1.75.35,2.25,0,.2.12.73.25,1.58a16.34,16.34,0,0,1,.2,2.42,1,1,0,0,1-.38.78,1.32,1.32,0,0,1-.87.32,1.36,1.36,0,0,1-.88-.32,1,1,0,0,1-.37-.78,16.34,16.34,0,0,1,.2-2.42c.13-.85.22-1.38.25-1.58.1-.5.22-1.25.35-2.25-.43.3-1,.79-1.85,1.45a21.86,21.86,0,0,1-3.15,2.35.82.82,0,0,1-.5.15,1.16,1.16,0,0,1-.6-.17,1.34,1.34,0,0,1-.5-.53,1.64,1.64,0,0,1-.2-.65,1,1,0,0,1,.55-.95,24.18,24.18,0,0,1,3.65-1.6l2.15-.85-2.15-.85a22.32,22.32,0,0,1-3.65-1.6,1,1,0,0,1-.55-1,1.64,1.64,0,0,1,.2-.65,1.32,1.32,0,0,1,.5-.52,1.17,1.17,0,0,1,.6-.18.82.82,0,0,1,.5.15,22.62,22.62,0,0,1,3.15,2.35c.8.67,1.42,1.15,1.85,1.45-.13-1-.25-1.75-.35-2.25,0-.2-.12-.72-.25-1.57a16.48,16.48,0,0,1-.2-2.43,1,1,0,0,1,.37-.77,1.3,1.3,0,0,1,.88-.33A1.28,1.28,0,0,1,645.83,259.61Z" transform="translate(-0.01)"/><circle class="s" cx="222.03" cy="319.72" r="56.02"/><path class="p" d="M188.41,315.83c5.77-.16,6.36-3.18,6.36-5.69a59.62,59.62,0,0,0-.51-6.53,60.77,60.77,0,0,1-.41-6.61c0-7.87,4.94-11.3,12.72-11.3h2.93v7.11H208c-3.76,0-5.1,2.26-5.1,5.95,0,1.5.25,3,.42,4.77s.37,3.79.41,5.69c.09,6.36-2.51,8.71-7.11,9.71v.17c4.6,1,7.2,3.43,7.11,9.79,0,2.18-.25,4.1-.41,5.86s-.42,3.27-.42,4.69c0,3.68,1.25,6,5.1,6h1.51v7h-3c-7.45,0-12.64-3-12.64-11.39a60.77,60.77,0,0,1,.41-6.61,59.62,59.62,0,0,0,.51-6.53c0-2.34-.59-5.52-6.36-5.69Z" transform="translate(-0.01)"/><path class="p" d="M252.86,322.28c-5.69.17-6.36,3.35-6.36,5.69a62.18,62.18,0,0,0,.5,6.53,63.49,63.49,0,0,1,.5,6.61c0,8.38-5.19,11.39-12.72,11.39h-3v-7h1.51c3.85-.09,5.11-2.35,5.11-6a33.5,33.5,0,0,0-.42-4.69,57.3,57.3,0,0,1-.42-5.86c-.08-6.36,2.51-8.79,7.2-9.79V319c-4.69-1-7.28-3.35-7.2-9.71a54.24,54.24,0,0,1,.42-5.69,34.64,34.64,0,0,0,.42-4.77c0-3.69-1.34-5.86-5.11-5.95h-1.51V285.7h2.93c7.87,0,12.81,3.43,12.81,11.3a63.49,63.49,0,0,1-.5,6.61,62.18,62.18,0,0,0-.5,6.53c0,2.51.67,5.53,6.36,5.69Z" transform="translate(-0.01)"/><path class="p" d="M603.48,132.57H629v9.72H615.27v57H629V209H603.48Z" transform="translate(-0.01)"/><path class="p" d="M636.42,199.26H650.1v-57H636.42v-9.72h25.47V209H636.42Z" transform="translate(-0.01)"/></svg>