<svg width="614" height="185" viewBox="0 0 614 185" fill="none" xmlns="http://www.w3.org/2000/svg">
<rect x="171" y="114" width="181" height="70" rx="19" fill="#FEFCCC" stroke="black" stroke-width="2"/>
<rect x="432" y="114" width="181" height="70" rx="19" fill="#FEFCCC" stroke="black" stroke-width="2"/>
<text fill="black" xml:space="preserve" style="white-space: pre" font-family="sans-serif" font-size="16" letter-spacing="0em"><tspan x="179" y="137.969">f7884&#10;</tspan></text>
<text fill="black" xml:space="preserve" style="white-space: pre" font-family="sans-serif" font-size="16" font-weight="bold" letter-spacing="0em"><tspan x="179" y="156.969">Add overview page</tspan></text>
<text fill="black" xml:space="preserve" style="white-space: pre" font-family="sans-serif" font-size="16" letter-spacing="0em"><tspan x="441" y="137.969">3f9b9&#10;</tspan></text>
<text fill="black" xml:space="preserve" style="white-space: pre" font-family="sans-serif" font-size="16" font-weight="bold" letter-spacing="0em"><tspan x="441" y="156.969">Fix exceedingly long </tspan><tspan x="441" y="175.969">submissions to API</tspan></text>
<path d="M431.707 149.707C432.098 149.317 432.098 148.683 431.707 148.293L425.343 141.929C424.953 141.538 424.319 141.538 423.929 141.929C423.538 142.319 423.538 142.953 423.929 143.343L429.586 149L423.929 154.657C423.538 155.047 423.538 155.681 423.929 156.071C424.319 156.462 424.953 156.462 425.343 156.071L431.707 149.707ZM353 150H431V148H353V150Z" fill="black"/>
<path d="M171.707 149.707C172.098 149.317 172.098 148.683 171.707 148.293L165.343 141.929C164.953 141.538 164.319 141.538 163.929 141.929C163.538 142.319 163.538 142.953 163.929 143.343L169.586 149L163.929 154.657C163.538 155.047 163.538 155.681 163.929 156.071C164.319 156.462 164.953 156.462 165.343 156.071L171.707 149.707ZM93 150H171V148H93V150Z" fill="black"/>
<rect x="186" y="1" width="150" height="49" fill="#5E9AED" stroke="black" stroke-width="2"/>
<text fill="black" xml:space="preserve" style="white-space: pre" font-family="sans-serif" font-size="16" letter-spacing="0em"><tspan x="240.281" y="30.9688">HEAD</tspan></text>
<rect x="448" y="27" width="150" height="49" fill="#74CCD3" stroke="black" stroke-width="2"/>
<text fill="black" xml:space="preserve" style="white-space: pre" font-family="sans-serif" font-size="16" letter-spacing="0em"><tspan x="510.547" y="56.9688">wip</tspan></text>
<line x1="522.5" y1="75" x2="522.5" y2="102" stroke="black"/>
<rect x="516.707" y="106.718" width="8.5" height="8.5" transform="rotate(-45 516.707 106.718)" fill="white" stroke="black"/>
<line x1="261.5" y1="50.9902" x2="262.5" y2="101.99" stroke="black"/>
<rect x="256.707" y="106.718" width="8.5" height="8.5" transform="rotate(-45 256.707 106.718)" fill="white" stroke="black"/>
<text fill="black" xml:space="preserve" style="white-space: pre" font-family="sans-serif" font-size="16" letter-spacing="0em"><tspan x="34.6719" y="166.969">...</tspan></text>
</svg>
