<svg width="626" height="193" viewBox="0 0 626 193" fill="none" xmlns="http://www.w3.org/2000/svg">
<rect x="171" y="122" width="181" height="70" rx="19" fill="#FEFCCC" stroke="black" stroke-width="2"/>
<rect x="432" y="122" width="181" height="70" rx="19" fill="#FEFCCC" stroke="black" stroke-width="2"/>
<text fill="black" xml:space="preserve" style="white-space: pre" font-family="sans-serif" font-size="16" letter-spacing="0em"><tspan x="179" y="145.969">f7884&#10;</tspan></text>
<text fill="black" xml:space="preserve" style="white-space: pre" font-family="sans-serif" font-size="16" font-weight="bold" letter-spacing="0em"><tspan x="179" y="164.969">Add overview page</tspan></text>
<text fill="black" xml:space="preserve" style="white-space: pre" font-family="sans-serif" font-size="16" letter-spacing="0em"><tspan x="441" y="145.969">3f9b9&#10;</tspan></text>
<text fill="black" xml:space="preserve" style="white-space: pre" font-family="sans-serif" font-size="16" font-weight="bold" letter-spacing="0em"><tspan x="441" y="164.969">Fix exceedingly long </tspan><tspan x="441" y="183.969">submissions to API</tspan></text>
<path d="M431.707 157.707C432.098 157.317 432.098 156.683 431.707 156.293L425.343 149.929C424.953 149.538 424.319 149.538 423.929 149.929C423.538 150.319 423.538 150.953 423.929 151.343L429.586 157L423.929 162.657C423.538 163.047 423.538 163.681 423.929 164.071C424.319 164.462 424.953 164.462 425.343 164.071L431.707 157.707ZM353 158H431V156H353V158Z" fill="black"/>
<path d="M171.707 157.707C172.098 157.317 172.098 156.683 171.707 156.293L165.343 149.929C164.953 149.538 164.319 149.538 163.929 149.929C163.538 150.319 163.538 150.953 163.929 151.343L169.586 157L163.929 162.657C163.538 163.047 163.538 163.681 163.929 164.071C164.319 164.462 164.953 164.462 165.343 164.071L171.707 157.707ZM93 158H171V156H93V158Z" fill="black"/>
<rect x="475" y="1" width="150" height="49" fill="#5E9AED" stroke="black" stroke-width="2"/>
<text fill="black" xml:space="preserve" style="white-space: pre" font-family="sans-serif" font-size="16" letter-spacing="0em"><tspan x="529.281" y="30.9688">HEAD</tspan></text>
<path d="M523.004 109C522.344 71.383 611.886 101.304 607.869 50" stroke="black"/>
<rect x="448" y="35" width="150" height="49" fill="#74CCD3" stroke="black" stroke-width="2"/>
<text fill="black" xml:space="preserve" style="white-space: pre" font-family="sans-serif" font-size="16" letter-spacing="0em"><tspan x="510.547" y="64.9688">wip</tspan></text>
<line x1="522.5" y1="83" x2="522.5" y2="110" stroke="black"/>
<rect x="516.707" y="114.718" width="8.5" height="8.5" transform="rotate(-45 516.707 114.718)" fill="white" stroke="black"/>
<text fill="black" xml:space="preserve" style="white-space: pre" font-family="sans-serif" font-size="16" letter-spacing="0em"><tspan x="34.6719" y="174.969">...</tspan></text>
</svg>
