<?xml version="1.0" encoding="utf-8"?>
<!-- Generator: Adobe Illustrator 25.2.3, SVG Export Plug-In . SVG Version: 6.00 Build 0)  -->
<svg version="1.1" id="Layer_1" xmlns="http://www.w3.org/2000/svg" xmlns:xlink="http://www.w3.org/1999/xlink" x="0px" y="0px"
	 viewBox="0 0 416 181.6" style="enable-background:new 0 0 416 181.6;" xml:space="preserve">
<style type="text/css">
	.st0{clip-path:url(#SVGID_2_);}
	.st1{fill:url(#SVGID_3_);}
	.st2{fill:none;stroke:url(#SVGID_4_);stroke-linecap:round;stroke-linejoin:round;stroke-dasharray:6,4.5;}
	.st3{fill:none;stroke:url(#SVGID_5_);stroke-linejoin:round;}
	.st4{fill:url(#SVGID_6_);}
	.st5{opacity:0.15;fill:#F4F8FA;enable-background:new    ;}
</style>
<g>
	<g>
		<defs>
			<rect id="SVGID_1_" width="416" height="181.6"/>
		</defs>
		<clipPath id="SVGID_2_">
			<use xlink:href="#SVGID_1_"  style="overflow:visible;"/>
		</clipPath>
		<g class="st0">
			
				<linearGradient id="SVGID_3_" gradientUnits="userSpaceOnUse" x1="61.9508" y1="-63.2692" x2="356.0392" y2="230.8292" gradientTransform="matrix(1 0 0 -1 0 184)">
				<stop  offset="0.21" style="stop-color:#747376;stop-opacity:0"/>
				<stop  offset="0.5" style="stop-color:#747376;stop-opacity:0.2"/>
				<stop  offset="0.75" style="stop-color:#747376;stop-opacity:0"/>
			</linearGradient>
			<path class="st1" d="M386.9-0.5H15.6v201.4h386.8V-0.5H386.9z M401.5,0l-14.6,14.6V0L401.5,0z M279.1,92.2l14.6-14.6v14.6H279.1z
				 M293.4,92.7l-14.6,14.6V92.7H293.4z M263.7,92.2l14.6-14.6v14.6H263.7z M277.9,92.7l-14.6,14.6V92.7H277.9z M248.2,92.2
				l14.6-14.6v14.6H248.2z M262.5,92.7l-14.6,14.6V92.7H262.5z M232.8,92.2l14.6-14.6v14.6H232.8z M247,92.7l-14.6,14.6V92.7H247z
				 M217.3,92.2l14.6-14.6v14.6H217.3z M231.6,92.7L217,107.3V92.7H231.6z M201.9,92.2l14.6-14.6v14.6H201.9z M216.1,92.7
				l-14.6,14.6V92.7H216.1z M186.4,92.2L201,77.7v14.6H186.4z M200.7,92.7l-14.6,14.6V92.7H200.7z M171,92.2l14.6-14.6v14.6H171z
				 M185.2,92.7l-14.6,14.6V92.7H185.2z M155.5,92.2l14.6-14.6v14.6H155.5z M169.8,92.7l-14.6,14.6V92.7H169.8z M140.1,92.2
				l14.6-14.6v14.6H140.1z M154.3,92.7l-14.6,14.6V92.7H154.3z M124.6,92.2l14.6-14.6v14.6H124.6z M138.9,92.7l-14.6,14.6V92.7
				H138.9z M123.4,92.7l-14.6,14.6V92.7H123.4z M109.2,92.2l14.6-14.6v14.6H109.2z M123.8,93.1v14.6h-14.6L123.8,93.1z M139.2,93.1
				v14.6h-14.6L139.2,93.1z M154.7,93.1v14.6h-14.6L154.7,93.1z M170.1,93.1v14.6h-14.6L170.1,93.1z M185.6,93.1v14.6H171
				L185.6,93.1z M201.1,93.1v14.6h-14.6L201.1,93.1z M216.5,93.1v14.6h-14.6L216.5,93.1z M232,93.1v14.6h-14.6L232,93.1z
				 M247.4,93.1v14.6h-14.6L247.4,93.1z M262.9,93.1v14.6h-14.6L262.9,93.1z M278.3,93.1v14.6h-14.6L278.3,93.1z M293.8,93.1v14.6
				h-14.6L293.8,93.1z M294.3,92.7h14.6l-14.6,14.6V92.7z M309.2,93.1v14.6h-14.6L309.2,93.1z M294.6,92.2l14.6-14.6v14.6H294.6z
				 M294.3,91.9V77.3h14.6L294.3,91.9z M278.8,91.9V77.3h14.6L278.8,91.9z M263.4,91.9V77.3H278L263.4,91.9z M247.9,91.9V77.3h14.6
				L247.9,91.9z M232.5,91.9V77.3H247L232.5,91.9z M217,91.9V77.3h14.6L217,91.9z M201.6,91.9V77.3h14.6L201.6,91.9z M186.1,91.9
				V77.3h14.6L186.1,91.9z M170.6,91.9V77.3h14.6L170.6,91.9z M155.2,91.9V77.3h14.6L155.2,91.9z M139.7,91.9V77.3h14.6L139.7,91.9z
				 M124.3,91.9V77.3h14.6L124.3,91.9z M108.8,91.9V77.3h14.6L108.8,91.9z M108.3,92.2H93.7l14.6-14.6L108.3,92.2z M108.3,107.7
				H93.7l14.6-14.6L108.3,107.7z M123.4,108.2l-14.6,14.6v-14.6H123.4z M138.9,108.2l-14.6,14.6v-14.6H138.9z M154.3,108.2
				l-14.6,14.6v-14.6H154.3z M169.8,108.2l-14.6,14.6v-14.6H169.8z M185.2,108.2l-14.6,14.6v-14.6H185.2z M200.7,108.2l-14.6,14.6
				v-14.6H200.7z M216.2,108.2l-14.6,14.6v-14.6H216.2z M231.6,108.2L217,122.8v-14.6H231.6z M247.1,108.2l-14.6,14.6v-14.6H247.1z
				 M262.5,108.2l-14.6,14.6v-14.6H262.5z M278,108.2l-14.6,14.6v-14.6H278z M293.4,108.2l-14.6,14.6v-14.6H293.4z M308.9,108.2
				l-14.6,14.6v-14.6H308.9z M309.7,92.7h14.6l-14.6,14.6V92.7z M309.7,77.3h14.6l-14.6,14.6V77.3z M108,77.3L93.4,91.9V77.3H108z
				 M108,92.7l-14.6,14.6V92.7H108z M108,108.2l-14.6,14.6v-14.6H108z M108.4,108.5v14.6H93.7L108.4,108.5z M123.8,108.5v14.6h-14.6
				L123.8,108.5z M139.3,108.5v14.6h-14.6L139.3,108.5z M154.7,108.5v14.6h-14.6L154.7,108.5z M170.2,108.5v14.6h-14.6L170.2,108.5z
				 M185.6,108.5v14.6H171L185.6,108.5z M201.1,108.5v14.6h-14.6L201.1,108.5z M216.5,108.5v14.6h-14.6L216.5,108.5z M232,108.5
				v14.6h-14.6L232,108.5z M247.4,108.5v14.6h-14.6L247.4,108.5z M262.9,108.5v14.6h-14.6L262.9,108.5z M278.3,108.5v14.6h-14.6
				L278.3,108.5z M293.8,108.5v14.6h-14.6L293.8,108.5z M309.2,108.5v14.6h-14.6L309.2,108.5z M309.7,108.2h14.6l-14.6,14.6V108.2z
				 M324.7,108.5v14.6H310L324.7,108.5z M310,107.7l14.6-14.6v14.6H310z M310,92.2l14.6-14.6v14.6H310z M310,76.8l14.6-14.6v14.6
				H310z M294.5,76.8l14.6-14.6v14.6H294.5z M279.1,76.8l14.6-14.6v14.6H279.1z M263.6,76.8l14.6-14.6v14.6H263.6z M248.2,76.8
				l14.6-14.6v14.6H248.2z M232.7,76.8l14.6-14.6v14.6H232.7z M217.3,76.8l14.6-14.6v14.6H217.3z M201.8,76.8l14.6-14.6v14.6H201.8z
				 M186.4,76.8L201,62.2v14.6H186.4z M170.9,76.8l14.6-14.6v14.6H170.9z M155.5,76.8l14.6-14.6v14.6H155.5z M140,76.8l14.6-14.6
				v14.6H140z M124.6,76.8l14.6-14.6v14.6H124.6z M109.1,76.8l14.6-14.6v14.6H109.1z M93.7,76.8l14.6-14.6v14.6H93.7z M78.2,76.8
				l14.6-14.6v14.6H78.2z M92.8,92.2H78.2l14.6-14.6L92.8,92.2z M92.8,107.7H78.2l14.6-14.6L92.8,107.7z M92.8,123.1H78.2l14.6-14.6
				L92.8,123.1z M107.9,123.6l-14.6,14.6v-14.6L107.9,123.6z M123.4,123.6l-14.6,14.6v-14.6L123.4,123.6z M138.8,123.6l-14.6,14.6
				v-14.6L138.8,123.6z M154.3,123.6l-14.6,14.6v-14.6L154.3,123.6z M169.7,123.6l-14.6,14.6v-14.6L169.7,123.6z M185.2,123.6
				l-14.6,14.6v-14.6L185.2,123.6z M200.6,123.6L186,138.2v-14.6L200.6,123.6z M216.1,123.6l-14.6,14.6v-14.6L216.1,123.6z
				 M231.5,123.6L217,138.2v-14.6L231.5,123.6z M247,123.6l-14.6,14.6v-14.6L247,123.6z M262.4,123.6l-14.6,14.6v-14.6L262.4,123.6z
				 M277.9,123.6l-14.6,14.6v-14.6L277.9,123.6z M293.3,123.6l-14.6,14.6v-14.6L293.3,123.6z M308.8,123.6l-14.6,14.6v-14.6
				L308.8,123.6z M324.2,123.6l-14.6,14.6v-14.6L324.2,123.6z M325.1,108.2h14.6l-14.6,14.6V108.2z M325.1,92.7h14.6l-14.6,14.6
				V92.7z M325.1,77.3h14.6l-14.6,14.6V77.3z M325.1,61.8h14.6l-14.6,14.6V61.8z M309.6,76.4V61.8h14.6L309.6,76.4z M294.2,76.4
				V61.8h14.6L294.2,76.4z M278.7,76.4V61.8h14.6L278.7,76.4z M263.3,76.4V61.8h14.6L263.3,76.4z M247.8,76.4V61.8h14.6L247.8,76.4z
				 M232.4,76.4V61.8H247L232.4,76.4z M216.9,76.4V61.8h14.6L216.9,76.4z M201.5,76.4V61.8h14.6L201.5,76.4z M186,76.4V61.8h14.6
				L186,76.4z M170.6,76.4V61.8h14.6L170.6,76.4z M155.1,76.4V61.8h14.6L155.1,76.4z M139.7,76.4V61.8h14.6L139.7,76.4z M124.2,76.4
				V61.8h14.6L124.2,76.4z M108.8,76.4V61.8h14.6L108.8,76.4z M93.3,76.4V61.8H108L93.3,76.4z M77.9,76.4V61.8h14.6L77.9,76.4z
				 M92.5,77.3L77.9,91.9V77.3H92.5z M92.5,92.7l-14.6,14.6V92.7H92.5z M92.5,108.2l-14.6,14.6v-14.6H92.5z M92.5,123.6l-14.6,14.6
				v-14.6L92.5,123.6z M92.8,124v14.6H78.2L92.8,124z M108.3,124v14.6H93.7L108.3,124z M123.7,124v14.6h-14.6L123.7,124z M139.2,124
				v14.6h-14.6L139.2,124z M154.6,124v14.6H140L154.6,124z M170.1,124v14.6h-14.6L170.1,124z M185.5,124v14.6H171L185.5,124z
				 M201,124v14.6h-14.6L201,124z M216.4,124v14.6h-14.6L216.4,124z M231.9,124v14.6h-14.6L231.9,124z M247.3,124v14.6h-14.6
				L247.3,124z M262.8,124v14.6h-14.6L262.8,124z M278.3,124v14.6h-14.6L278.3,124z M293.7,124v14.6h-14.6L293.7,124z M309.2,124
				v14.6h-14.6L309.2,124z M324.6,124v14.6H310L324.6,124z M325.1,123.7h14.6l-14.6,14.6V123.7z M340.1,124v14.6h-14.6L340.1,124z
				 M325.5,123.2l14.6-14.6v14.6H325.5z M325.5,107.7l14.6-14.6v14.6H325.5z M325.5,92.2l14.6-14.6v14.6L325.5,92.2z M325.5,76.8
				l14.6-14.6v14.6H325.5z M325.5,61.3l14.6-14.6v14.6L325.5,61.3z M310,61.3l14.6-14.6v14.6L310,61.3z M294.6,61.3l14.6-14.6v14.6
				L294.6,61.3z M279.1,61.3l14.6-14.6v14.6L279.1,61.3z M263.7,61.3l14.6-14.6v14.6L263.7,61.3z M248.2,61.3l14.6-14.6v14.6
				L248.2,61.3z M232.8,61.3l14.6-14.6v14.6L232.8,61.3z M217.3,61.3l14.6-14.6v14.6L217.3,61.3z M201.9,61.3l14.6-14.6v14.6
				L201.9,61.3z M186.4,61.3L201,46.7v14.6L186.4,61.3z M171,61.3l14.6-14.6v14.6L171,61.3z M155.5,61.3l14.6-14.6v14.6L155.5,61.3z
				 M140,61.3l14.6-14.6v14.6L140,61.3z M124.6,61.3l14.6-14.6v14.6L124.6,61.3z M109.1,61.3l14.6-14.6v14.6L109.1,61.3z M93.7,61.3
				l14.6-14.6v14.6L93.7,61.3z M78.2,61.3l14.6-14.6v14.6L78.2,61.3z M77.4,76.8H62.8l14.6-14.6V76.8z M77.4,92.2H62.8l14.6-14.6
				V92.2z M77.4,107.7H62.8l14.6-14.6V107.7z M77.4,123.1H62.8l14.6-14.6V123.1z M77.4,138.6H62.8L77.4,124V138.6z M92.5,139.1
				l-14.6,14.6v-14.6L92.5,139.1z M107.9,139.1l-14.6,14.6v-14.6L107.9,139.1z M123.4,139.1l-14.6,14.6v-14.6L123.4,139.1z
				 M138.9,139.1l-14.6,14.6v-14.6L138.9,139.1z M154.3,139.1l-14.6,14.6v-14.6L154.3,139.1z M169.8,139.1l-14.6,14.6v-14.6
				L169.8,139.1z M185.2,139.1l-14.6,14.6v-14.6L185.2,139.1z M200.7,139.1l-14.6,14.6v-14.6L200.7,139.1z M216.1,139.1l-14.6,14.6
				v-14.6L216.1,139.1z M231.6,139.1L217,153.7v-14.6L231.6,139.1z M247,139.1l-14.6,14.6v-14.6L247,139.1z M262.5,139.1l-14.6,14.6
				v-14.6L262.5,139.1z M277.9,139.1l-14.6,14.6v-14.6L277.9,139.1z M293.4,139.1l-14.6,14.6v-14.6L293.4,139.1z M308.8,139.1
				l-14.6,14.6v-14.6L308.8,139.1z M324.3,139.1l-14.6,14.6v-14.6L324.3,139.1z M339.7,139.1l-14.6,14.6v-14.6L339.7,139.1z
				 M340.6,123.6h14.6l-14.6,14.6V123.6z M340.6,108.2h14.6l-14.6,14.6V108.2z M340.6,92.7h14.6l-14.6,14.6V92.7z M340.6,77.3h14.6
				l-14.6,14.6V77.3z M340.6,61.8h14.6l-14.6,14.6V61.8z M340.6,46.4h14.6L340.6,61L340.6,46.4z M325.1,61V46.4h14.6L325.1,61z
				 M309.7,61V46.4h14.6L309.7,61z M294.2,61V46.4h14.6L294.2,61z M278.8,61V46.4h14.6L278.8,61z M263.3,61V46.4h14.6L263.3,61z
				 M247.9,61V46.4h14.6L247.9,61z M232.4,61V46.4H247L232.4,61z M217,61V46.4h14.6L217,61z M201.6,61V46.4h14.6L201.6,61z
				 M186.1,61V46.4h14.6L186.1,61z M170.6,61V46.4h14.6L170.6,61z M155.2,61V46.4h14.6L155.2,61z M139.7,61V46.4h14.6L139.7,61z
				 M124.3,61V46.4h14.6L124.3,61z M108.8,61V46.4h14.6L108.8,61z M93.3,61V46.4H108L93.3,61z M77.9,61V46.4h14.6L77.9,61z
				 M77.4,61.3H62.8l14.6-14.6V61.3z M62.4,61V46.4H77L62.4,61z M77,61.8L62.4,76.4V61.8L77,61.8z M77,77.3L62.4,91.9V77.3L77,77.3z
				 M77,92.7l-14.6,14.6V92.7L77,92.7z M77,108.2l-14.6,14.6v-14.6L77,108.2z M77,123.7l-14.6,14.6v-14.6L77,123.7z M77,139.1
				l-14.6,14.6v-14.6L77,139.1z M77.3,139.5v14.6H62.8L77.3,139.5z M92.8,139.5v14.6H78.2L92.8,139.5z M108.3,139.5v14.6H93.7
				L108.3,139.5z M123.7,139.5v14.6h-14.6L123.7,139.5z M139.2,139.5v14.6h-14.6L139.2,139.5z M154.6,139.5v14.6H140L154.6,139.5z
				 M170.1,139.5v14.6h-14.6L170.1,139.5z M185.5,139.5v14.6H171L185.5,139.5z M201,139.5v14.6h-14.6L201,139.5z M216.4,139.5v14.6
				h-14.6L216.4,139.5z M231.9,139.5v14.6h-14.6L231.9,139.5z M247.3,139.5v14.6h-14.5L247.3,139.5z M262.8,139.5v14.6h-14.6
				L262.8,139.5z M278.2,139.5v14.6h-14.6L278.2,139.5z M293.7,139.5v14.6h-14.6L293.7,139.5z M309.1,139.5v14.6h-14.6L309.1,139.5z
				 M324.6,139.5v14.6H310L324.6,139.5z M340,139.5v14.6h-14.6L340,139.5z M340.5,139.1h14.6l-14.6,14.6V139.1z M355.5,139.5v14.6
				h-14.6L355.5,139.5z M340.9,138.6l14.6-14.6v14.6H340.9z M340.9,123.2l14.6-14.6v14.6H340.9z M340.9,107.7l14.6-14.6v14.6H340.9z
				 M340.9,92.2l14.6-14.6v14.6L340.9,92.2z M340.9,76.8l14.6-14.6v14.6H340.9z M340.9,61.3l14.6-14.6v14.6L340.9,61.3z M340.9,45.9
				l14.6-14.6v14.6H340.9z M325.5,45.9l14.6-14.6v14.6H325.5z M310,45.9l14.6-14.6v14.6H310z M294.6,45.9l14.6-14.6v14.6H294.6z
				 M279.1,45.9l14.6-14.6v14.6H279.1z M263.7,45.9l14.6-14.6v14.6H263.7z M248.2,45.9l14.6-14.6v14.6H248.2z M232.8,45.9l14.6-14.6
				v14.6H232.8z M217.3,45.9l14.6-14.6v14.6H217.3z M201.9,45.9l14.6-14.6v14.6H201.9z M186.4,45.9L201,31.3v14.6L186.4,45.9z
				 M171,45.9l14.6-14.6v14.6H171z M155.5,45.9l14.6-14.6v14.6H155.5z M140.1,45.9l14.6-14.6v14.6H140.1z M124.6,45.9l14.6-14.6
				v14.6H124.6z M109.2,45.9l14.6-14.6v14.6H109.2z M93.7,45.9l14.6-14.6v14.6H93.7z M78.2,45.9l14.6-14.6v14.6H78.2z M62.8,45.9
				l14.6-14.6v14.6H62.8z M62,61.3H47.3L62,46.7V61.3z M62,76.8H47.3L62,62.2V76.8z M62,92.2H47.3L62,77.7V92.2z M62,107.7H47.3
				L62,93.1V107.7z M62,123.1H47.3L62,108.6V123.1z M62,138.6H47.3L62,124V138.6z M62,154H47.3L62,139.4V154z M77.1,154.5
				l-14.6,14.6v-14.6H77.1z M92.5,154.5l-14.6,14.6v-14.6H92.5z M108,154.5l-14.6,14.6v-14.6H108z M123.4,154.5l-14.6,14.6v-14.6
				H123.4z M138.9,154.5l-14.6,14.6v-14.6H138.9z M154.4,154.5l-14.6,14.6v-14.6H154.4z M169.8,154.5l-14.6,14.6v-14.6H169.8z
				 M185.3,154.5l-14.6,14.6v-14.6H185.3z M200.7,154.5l-14.6,14.6v-14.6H200.7z M216.2,154.5l-14.6,14.6v-14.6H216.2z M231.6,154.5
				L217,169.1v-14.6H231.6z M247.1,154.5l-14.6,14.6v-14.6H247.1z M262.5,154.5l-14.6,14.6v-14.6H262.5z M278,154.5l-14.6,14.6
				v-14.6H278z M293.4,154.5l-14.6,14.6v-14.6H293.4z M308.9,154.5l-14.6,14.6v-14.6H308.9z M324.3,154.5l-14.6,14.6v-14.6H324.3z
				 M339.8,154.5l-14.6,14.6v-14.6H339.8z M355.2,154.5l-14.6,14.6v-14.6H355.2z M356,139.1h14.6L356,153.7V139.1z M356,123.7h14.6
				L356,138.2V123.7z M356,108.2h14.6L356,122.8V108.2z M356,92.7h14.6L356,107.3V92.7z M356,77.3h14.6L356,91.9V77.3z M356,61.8
				h14.6L356,76.4V61.8z M356,46.4h14.6L356,61V46.4z M356,30.9h14.6L356,45.5V30.9z M340.5,45.5V30.9h14.6L340.5,45.5z M325.1,45.5
				V30.9h14.6L325.1,45.5z M309.6,45.5V30.9h14.6L309.6,45.5z M294.2,45.5V30.9h14.6L294.2,45.5z M278.7,45.5V30.9h14.6L278.7,45.5z
				 M263.3,45.5V30.9h14.6L263.3,45.5z M247.8,45.5V30.9h14.6L247.8,45.5z M232.4,45.5V30.9H247L232.4,45.5z M216.9,45.5V30.9h14.6
				L216.9,45.5z M201.5,45.5V30.9h14.6L201.5,45.5z M186,45.5V30.9h14.6L186,45.5z M170.6,45.5V30.9h14.6L170.6,45.5z M155.1,45.5
				V30.9h14.6L155.1,45.5z M139.7,45.5V30.9h14.6L139.7,45.5z M124.2,45.5V30.9h14.6L124.2,45.5z M108.8,45.5V30.9h14.6L108.8,45.5z
				 M93.3,45.5V30.9H108L93.3,45.5z M77.9,45.5V30.9h14.6L77.9,45.5z M62.4,45.5V30.9H77L62.4,45.5z M61.9,45.9H47.3L62,31.3
				L61.9,45.9z M46.9,45.5V30.9h14.7L46.9,45.5z M61.5,46.4L47,61V46.4L61.5,46.4z M61.5,61.8L47,76.4V61.8L61.5,61.8z M61.5,77.3
				L47,91.9V77.3L61.5,77.3z M61.5,92.7L47,107.3V92.7L61.5,92.7z M61.5,108.2L47,122.8v-14.6L61.5,108.2z M61.5,123.7L47,138.2
				v-14.6L61.5,123.7z M61.5,139.1L47,153.7v-14.6H61.5z M61.5,154.6L47,169.1v-14.6L61.5,154.6z M61.9,154.9v14.6H47.3L61.9,154.9z
				 M77.3,154.9v14.6H62.8L77.3,154.9z M92.8,154.9v14.6H78.2L92.8,154.9z M108.2,154.9v14.6H93.7L108.2,154.9z M123.7,154.9v14.6
				h-14.6L123.7,154.9z M139.1,154.9v14.6h-14.6L139.1,154.9z M154.6,154.9v14.6H140L154.6,154.9z M170,154.9v14.6h-14.6L170,154.9z
				 M185.5,154.9v14.6H171L185.5,154.9z M200.9,154.9v14.6h-14.6L200.9,154.9z M216.4,154.9v14.6h-14.6L216.4,154.9z M231.8,154.9
				v14.6h-14.6L231.8,154.9z M247.3,154.9v14.6h-14.5L247.3,154.9z M262.7,154.9v14.6h-14.6L262.7,154.9z M278.2,154.9v14.6h-14.6
				L278.2,154.9z M293.6,154.9v14.6H279L293.6,154.9z M309.1,154.9v14.6h-14.6L309.1,154.9z M324.5,154.9v14.6H310L324.5,154.9z
				 M340,154.9v14.6h-14.6L340,154.9z M355.4,154.9v14.6h-14.6L355.4,154.9z M355.9,154.6h14.6L356,169.1L355.9,154.6z M370.9,154.9
				v14.6h-14.6L370.9,154.9z M356.3,154.1l14.6-14.6v14.6H356.3z M356.3,138.6L371,124v14.6H356.3z M356.3,123.2l14.6-14.6v14.6
				H356.3z M356.3,107.7L371,93.1v14.6L356.3,107.7z M356.3,92.2L371,77.7v14.6L356.3,92.2z M356.3,76.8L371,62.2v14.6L356.3,76.8z
				 M356.3,61.3L371,46.7v14.6L356.3,61.3z M356.3,45.9L371,31.3v14.6L356.3,45.9z M356.3,30.4L371,15.8v14.6L356.3,30.4z
				 M340.8,30.4l14.6-14.6v14.6L340.8,30.4z M325.4,30.4L340,15.8v14.6L325.4,30.4z M309.9,30.4l14.6-14.6v14.6L309.9,30.4z
				 M294.5,30.4l14.6-14.6v14.6L294.5,30.4z M279,30.4l14.6-14.6v14.6L279,30.4z M263.6,30.4l14.6-14.6v14.6L263.6,30.4z
				 M248.1,30.4l14.6-14.6v14.6L248.1,30.4z M232.7,30.4l14.6-14.6v14.6L232.7,30.4z M217.2,30.4l14.6-14.6v14.6L217.2,30.4z
				 M201.8,30.4l14.6-14.6v14.6L201.8,30.4z M186.3,30.4L201,15.8v14.6L186.3,30.4z M170.9,30.4l14.6-14.6v14.6L170.9,30.4z
				 M155.4,30.4L170,15.8v14.6L155.4,30.4z M140,30.4l14.6-14.6v14.6L140,30.4z M124.5,30.4l14.6-14.6v14.6L124.5,30.4z M109.1,30.4
				l14.6-14.6v14.6L109.1,30.4z M93.6,30.4l14.6-14.6v14.6L93.6,30.4z M78.2,30.4l14.6-14.6v14.6L78.2,30.4z M62.7,30.4l14.7-14.6
				v14.6L62.7,30.4z M47.3,30.4L62,15.8v14.6L47.3,30.4z M46.5,45.9H31.9l14.6-14.6V45.9z M46.5,61.3H31.9l14.6-14.6V61.3z
				 M46.5,76.8H31.9l14.6-14.6V76.8z M46.5,92.2H31.9l14.6-14.6V92.2z M46.5,107.7H31.9l14.6-14.6V107.7z M46.5,123.1H31.9
				l14.6-14.6V123.1z M46.5,138.6H31.9L46.5,124V138.6z M46.5,154H31.9l14.6-14.6V154z M46.5,169.5H31.9l14.6-14.6V169.5z M61.6,170
				L47,184.6V170L61.6,170z M77.1,170l-14.6,14.6V170L77.1,170z M92.5,170l-14.6,14.6V170L92.5,170z M108,170l-14.6,14.6V170H108z
				 M123.4,170l-14.6,14.6V170H123.4z M138.9,170l-14.6,14.6V170H138.9z M154.4,170l-14.6,14.6V170H154.4z M169.8,170l-14.6,14.6
				V170H169.8z M185.3,170l-14.6,14.6V170H185.3z M200.7,170l-14.6,14.6V170H200.7z M216.2,170l-14.6,14.6V170H216.2z M231.6,170
				L217,184.6V170H231.6z M247,170l-14.6,14.6V170H247z M262.5,170l-14.6,14.6V170H262.5z M277.9,170l-14.6,14.6V170H277.9z
				 M293.4,170l-14.6,14.6V170H293.4z M308.8,170l-14.6,14.6V170H308.8z M324.3,170l-14.6,14.6V170H324.3z M339.7,170l-14.6,14.6
				V170H339.7z M355.2,170l-14.6,14.6V170H355.2z M370.6,170L356,184.6V170H370.6z M371.5,154.6h14.6l-14.6,14.6V154.6z
				 M371.5,139.1h14.6l-14.6,14.6V139.1z M371.5,123.7h14.6l-14.6,14.6V123.7z M371.5,108.2h14.6l-14.6,14.6V108.2z M371.5,92.7
				h14.6l-14.6,14.6V92.7z M371.5,77.3h14.6l-14.6,14.6V77.3z M371.5,61.8h14.6l-14.6,14.6V61.8z M371.5,46.4h14.6L371.5,61
				L371.5,46.4z M371.5,30.9h14.6l-14.6,14.6V30.9z M371.5,15.5h14.6l-14.6,14.6V15.5z M356,30.1V15.5h14.6L356,30.1z M340.5,30.1
				V15.5h14.6L340.5,30.1z M325.1,30.1V15.5h14.6L325.1,30.1z M309.6,30.1V15.5h14.6L309.6,30.1z M294.2,30.1V15.5h14.6L294.2,30.1z
				 M278.7,30.1V15.5h14.6L278.7,30.1z M263.3,30.1V15.5h14.6L263.3,30.1z M247.8,30.1V15.5h14.6L247.8,30.1z M232.4,30.1V15.5H247
				L232.4,30.1z M216.9,30.1V15.5h14.6L216.9,30.1z M201.5,30.1V15.5h14.6L201.5,30.1z M186,30.1V15.5h14.6L186,30.1z M170.6,30.1
				V15.5h14.6L170.6,30.1z M155.1,30.1V15.5h14.6L155.1,30.1z M139.7,30.1V15.5h14.6L139.7,30.1z M124.2,30.1V15.5h14.6L124.2,30.1z
				 M108.8,30.1V15.5h14.6L108.8,30.1z M93.3,30.1V15.5H108L93.3,30.1z M77.9,30.1V15.5h14.6L77.9,30.1z M62.4,30.1V15.5H77
				L62.4,30.1z M47,30.1V15.5h14.6L47,30.1z M46.5,30.4H31.9l14.6-14.6V30.4z M31.5,30.1V15.5h14.6L31.5,30.1z M46.1,30.9L31.5,45.5
				V30.9H46.1z M46.1,46.4L31.5,61V46.4H46.1z M46.1,61.8L31.5,76.4V61.8H46.1z M46.1,77.3L31.5,91.9V77.3H46.1z M46.1,92.7
				l-14.6,14.6V92.7H46.1z M46.1,108.2l-14.6,14.6v-14.6H46.1z M46.1,123.6l-14.6,14.6v-14.6L46.1,123.6z M46.1,139.1l-14.6,14.6
				v-14.6L46.1,139.1z M46.1,154.5l-14.6,14.6v-14.6H46.1z M46.1,170l-14.6,14.6V170L46.1,170z M46.5,170.4V185H31.9L46.5,170.4z
				 M61.9,170.4V185H47.3L61.9,170.4z M77.4,170.4V185H62.8L77.4,170.4z M92.8,170.4V185H78.2L92.8,170.4z M108.3,170.4V185H93.7
				L108.3,170.4z M123.7,170.4V185h-14.6L123.7,170.4z M139.2,170.4V185h-14.6L139.2,170.4z M154.6,170.4V185H140L154.6,170.4z
				 M170.1,170.4V185h-14.6L170.1,170.4z M185.5,170.4V185H171L185.5,170.4z M201,170.4V185h-14.6L201,170.4z M216.4,170.4V185
				h-14.6L216.4,170.4z M231.9,170.4V185h-14.6L231.9,170.4z M247.3,170.4V185h-14.5L247.3,170.4z M262.8,170.4V185h-14.6
				L262.8,170.4z M278.2,170.4V185h-14.6L278.2,170.4z M293.7,170.4V185h-14.6L293.7,170.4z M309.1,170.4V185h-14.6L309.1,170.4z
				 M324.6,170.4V185H310L324.6,170.4z M340.1,170.4V185h-14.6L340.1,170.4z M355.5,170.4V185h-14.6L355.5,170.4z M371,170.4V185
				h-14.6L371,170.4z M371.5,170h14.6l-14.6,14.6V170z M386.4,170.4V185h-14.6L386.4,170.4z M371.8,169.5l14.6-14.6v14.6
				L371.8,169.5z M371.8,154l14.6-14.6V154H371.8z M371.8,138.6l14.6-14.6v14.6L371.8,138.6z M371.8,123.1l14.6-14.6v14.6H371.8z
				 M371.8,107.7l14.6-14.6v14.6H371.8z M371.8,92.2l14.6-14.6v14.6H371.8z M371.8,76.8l14.6-14.6v14.6H371.8z M371.8,61.3
				l14.6-14.6v14.6L371.8,61.3z M371.8,45.9l14.6-14.6v14.6H371.8z M371.8,30.4l14.6-14.6v14.6H371.8z M371.8,15l14.6-14.6V15
				L371.8,15z M356.4,15L371,0.4V15L356.4,15z M340.9,15l14.6-14.6V15L340.9,15z M325.5,15l14.6-14.6V15L325.5,15z M310,15
				l14.6-14.6V15H310z M294.5,15l14.6-14.6V15H294.5z M279.1,15l14.6-14.6V15H279.1z M263.6,15l14.6-14.6V15H263.6z M248.2,15
				l14.6-14.6V15H248.2z M232.7,15l14.6-14.6V15H232.7z M217.3,15l14.6-14.6V15H217.3z M201.8,15l14.6-14.6V15H201.8z M186.4,15
				L201,0.4V15H186.4z M171,15l14.6-14.6V15H171z M155.5,15l14.6-14.6V15H155.5z M140.1,15l14.6-14.6V15H140.1z M124.6,15l14.6-14.6
				V15H124.6z M109.2,15l14.6-14.6V15H109.2z M93.7,15l14.6-14.6V15H93.7z M78.2,15L92.8,0.4V15H78.2z M62.8,15L77.4,0.4V15H62.8z
				 M47.3,15L62,0.4V15H47.3z M31.9,15L46.5,0.4V15H31.9z M31,30.4H16.4L31,15.8V30.4z M31,45.9H16.4L31,31.3V45.9z M31,61.3H16.4
				L31,46.7V61.3z M31,76.8H16.4L31,62.2V76.8z M31,77.7v14.6H16.4L31,77.7z M16.1,91.9V77.3h14.6L16.1,91.9z M31,107.7H16.4
				L31,93.1V107.7z M31,123.1H16.4L31,108.6V123.1z M31,138.6H16.4L31,124V138.6z M31,154H16.4L31,139.4V154z M31,169.5H16.4
				L31,154.9V169.5z M31,185H16.4L31,170.4V185z M46.1,185.5l-14.6,14.6v-14.6H46.1z M61.5,185.5L47,200.1v-14.6L61.5,185.5z
				 M77,185.5l-14.6,14.6v-14.6H77z M92.5,185.5l-14.6,14.6v-14.6H92.5z M107.9,185.5l-14.6,14.6v-14.6H107.9z M123.4,185.5
				l-14.6,14.6v-14.6H123.4z M138.8,185.5l-14.6,14.6v-14.6H138.8z M154.3,185.5l-14.6,14.6v-14.6H154.3z M169.7,185.5l-14.6,14.6
				v-14.6H169.7z M185.2,185.5l-14.6,14.6v-14.6H185.2z M200.6,185.5L186,200.1v-14.6H200.6z M216.1,185.5l-14.6,14.6v-14.6H216.1z
				 M231.5,185.5L217,200.1v-14.6L231.5,185.5z M247,185.5l-14.6,14.6v-14.6H247z M262.4,185.5l-14.6,14.6v-14.6H262.4z
				 M277.9,185.5l-14.6,14.6v-14.6H277.9z M293.3,185.5l-14.6,14.6v-14.6H293.3z M308.8,185.5l-14.6,14.6v-14.6H308.8z M324.2,185.5
				l-14.6,14.6v-14.6H324.2z M339.7,185.5l-14.6,14.6v-14.6H339.7z M355.2,185.5l-14.6,14.6v-14.6H355.2z M370.6,185.5L356,200.1
				v-14.6L370.6,185.5z M386.1,185.5l-14.6,14.6v-14.6H386.1z M386.9,170h14.6l-14.6,14.6V170z M386.9,154.6h14.6l-14.6,14.6V154.6z
				 M386.9,139.1h14.6l-14.6,14.6V139.1z M386.9,123.7h14.6l-14.6,14.6V123.7z M386.9,108.2h14.6l-14.6,14.6V108.2z M386.9,92.8
				h14.6l-14.6,14.6V92.8z M386.9,77.3h14.6l-14.6,14.6V77.3z M386.9,76.5V61.8h14.6L386.9,76.5z M401.9,62.2v14.6h-14.6L401.9,62.2
				z M386.9,46.4h14.6L386.9,61L386.9,46.4z M386.9,31h14.6l-14.6,14.6V31z M386.9,15.5h14.6l-14.6,14.6V15.5z M386.1,0l-14.6,14.6
				V0H386.1z M370.6,0L356,14.6V0H370.6z M355.2,0l-14.6,14.6V0H355.2z M339.7,0l-14.6,14.6V0H339.7z M324.3,0l-14.6,14.6V0H324.3z
				 M308.8,0l-14.6,14.6V0H308.8z M293.4,0l-14.6,14.6V0H293.4z M277.9,0l-14.6,14.6V0H277.9z M262.5,0l-14.6,14.6V0H262.5z M247,0
				l-14.6,14.6V0H247z M231.6,0L217,14.6V0H231.6z M216.1,0l-14.6,14.6V0H216.1z M200.7,0l-14.6,14.6V0H200.7z M185.2,0l-14.6,14.6
				V0H185.2z M169.8,0l-14.6,14.6V0H169.8z M154.3,0l-14.6,14.6V0H154.3z M138.9,0l-14.6,14.6V0H138.9z M123.4,0l-14.6,14.6V0H123.4
				z M108,0L93.4,14.6V0H108z M92.5,0L77.9,14.6V0H92.5z M77.1,0L62.5,14.6V0H77.1z M61.6,0L47,14.6V0H61.6z M46.1,0L31.5,14.6V0
				H46.1z M31,15H16.4L31,0.4V15z M30.7,0L16.1,14.6V0H30.7z M30.7,15.4L16.1,30V15.5L30.7,15.4z M30.7,30.9L16.1,45.5V30.9
				L30.7,30.9z M30.7,46.4L16.1,61V46.4L30.7,46.4z M30.7,61.8L16.1,76.4V61.8L30.7,61.8z M30.7,92.7l-14.6,14.6V92.7L30.7,92.7z
				 M30.7,108.2l-14.6,14.6v-14.6L30.7,108.2z M30.7,123.6l-14.6,14.6v-14.6L30.7,123.6z M30.7,139.1l-14.6,14.6v-14.6L30.7,139.1z
				 M30.7,154.5l-14.6,14.6v-14.6H30.7z M30.7,170l-14.6,14.6V170L30.7,170z M30.7,185.4L16.1,200v-14.6H30.7z M16.4,200.4L31,185.8
				v14.6H16.4z M31.9,200.4l14.6-14.6v14.6H31.9z M47.4,200.4L62,185.8v14.6H47.4z M62.8,200.4l14.6-14.6v14.6H62.8z M78.2,200.4
				l14.6-14.6v14.6H78.2z M93.7,200.4l14.6-14.6v14.6H93.7z M109.2,200.4l14.6-14.6v14.6H109.2z M124.6,200.4l14.6-14.6v14.6H124.6z
				 M140.1,200.4l14.6-14.6v14.6H140.1z M155.5,200.4l14.6-14.6v14.6H155.5z M171,200.4l14.6-14.6v14.6H171z M186.4,200.4l14.6-14.6
				v14.6H186.4z M201.9,200.4l14.6-14.6v14.6H201.9z M217.3,200.4l14.6-14.6v14.6H217.3z M232.8,200.4l14.6-14.6v14.6H232.8z
				 M248.2,200.4l14.6-14.6v14.6H248.2z M263.7,200.4l14.6-14.6v14.6H263.7z M279.1,200.4l14.6-14.6v14.6H279.1z M294.6,200.4
				l14.6-14.6v14.6H294.6z M310,200.4l14.6-14.6v14.6H310z M325.5,200.4l14.6-14.6v14.6H325.5z M340.9,200.4l14.6-14.6v14.6H340.9z
				 M356.4,200.4l14.6-14.6v14.6H356.4z M371.9,200.4l14.6-14.6v14.6H371.9z M386.9,185.5h14.6l-14.6,14.6V185.5z M387.3,200.4
				l14.6-14.6v14.6H387.3z M387.3,185l14.6-14.6V185L387.3,185z M387.3,169.5l14.6-14.6v14.6H387.3z M387.3,154.1l14.6-14.6v14.6
				H387.3z M387.3,138.6l14.6-14.6v14.6H387.3z M387.3,123.2l14.6-14.6v14.6H387.3z M387.3,107.7l14.6-14.6v14.6H387.3z M387.3,92.2
				l14.6-14.6v14.6L387.3,92.2z M387.3,61.3l14.6-14.6v14.6H387.3z M387.3,45.9l14.6-14.6v14.6H387.3z M387.3,30.4l14.6-14.6v14.6
				L387.3,30.4z M387.3,15l14.6-14.6V15L387.3,15z"/>
			<g>
				
					<linearGradient id="SVGID_4_" gradientUnits="userSpaceOnUse" x1="-3434.6499" y1="2197.8301" x2="-3202.8599" y2="2197.8301" gradientTransform="matrix(-1 0 0 1 -3048.4199 -2090.24)">
					<stop  offset="0" style="stop-color:#79BF43"/>
					<stop  offset="0.16" style="stop-color:#5EBF6C"/>
					<stop  offset="0.33" style="stop-color:#46BF91"/>
					<stop  offset="0.5" style="stop-color:#33BFAE"/>
					<stop  offset="0.67" style="stop-color:#26BFC2"/>
					<stop  offset="0.84" style="stop-color:#1EBFCF"/>
					<stop  offset="1" style="stop-color:#1BBFD3"/>
				</linearGradient>
				<polygon class="st2" points="385.7,61 247.6,61.5 154.9,154.2 293,154.2 				"/>
				
					<linearGradient id="SVGID_5_" gradientUnits="userSpaceOnUse" x1="-3281.1199" y1="2128.5701" x2="-3171.96" y2="2128.5701" gradientTransform="matrix(-1 0 0 1 -3048.4199 -2090.24)">
					<stop  offset="0" style="stop-color:#79BF43"/>
					<stop  offset="0.16" style="stop-color:#5EBF6C"/>
					<stop  offset="0.33" style="stop-color:#46BF91"/>
					<stop  offset="0.5" style="stop-color:#33BFAE"/>
					<stop  offset="0.67" style="stop-color:#26BFC2"/>
					<stop  offset="0.84" style="stop-color:#1EBFCF"/>
					<stop  offset="1" style="stop-color:#1BBFD3"/>
				</linearGradient>
				<polygon class="st3" points="232.2,15.1 170.4,15.1 124,61.5 185.8,61.5 				"/>
				
					<linearGradient id="SVGID_6_" gradientUnits="userSpaceOnUse" x1="-3435.6899" y1="2244.1799" x2="-3203.3599" y2="2244.1799" gradientTransform="matrix(-1 0 0 1 -3048.4199 -2090.24)">
					<stop  offset="0" style="stop-color:#79BF43"/>
					<stop  offset="0.16" style="stop-color:#5EBF6C"/>
					<stop  offset="0.33" style="stop-color:#46BF91"/>
					<stop  offset="0.5" style="stop-color:#33BFAE"/>
					<stop  offset="0.67" style="stop-color:#26BFC2"/>
					<stop  offset="0.84" style="stop-color:#1EBFCF"/>
					<stop  offset="1" style="stop-color:#1BBFD3"/>
				</linearGradient>
				<polygon class="st4" points="387.3,107.3 247.6,107.9 154.9,200.6 294,200.6 				"/>
				<polygon class="st5" points="309.5,107.9 247.6,107.9 216.2,138.8 278.6,138.8 				"/>
				<polygon class="st5" points="309.5,123.3 263.1,123.3 216.8,169.7 263.1,169.7 				"/>
			</g>
		</g>
	</g>
</g>
</svg>
