<svg xmlns="http://www.w3.org/2000/svg" xmlns:xlink="http://www.w3.org/1999/xlink" viewBox="0 0 415.95 181.63">
  <defs>
    <clipPath id="a">
      <rect width="415.95" height="181.63" style="fill: none"/>
    </clipPath>
    <linearGradient id="b" x1="61.95" y1="247.27" x2="356.04" y2="-46.83" gradientUnits="userSpaceOnUse">
      <stop offset="0.21" stop-color="#737275" stop-opacity="0"/>
      <stop offset="0.5" stop-color="#737275" stop-opacity="0.2"/>
      <stop offset="0.75" stop-color="#737275" stop-opacity="0"/>
    </linearGradient>
    <linearGradient id="c" x1="138.39" y1="146.51" x2="340.69" y2="146.51" gradientUnits="userSpaceOnUse">
      <stop offset="0" stop-color="#79bf43"/>
      <stop offset="0.16" stop-color="#5ebf6c"/>
      <stop offset="0.33" stop-color="#46bf91"/>
      <stop offset="0.5" stop-color="#33bfae"/>
      <stop offset="0.67" stop-color="#26bfc2"/>
      <stop offset="0.84" stop-color="#1ebfcf"/>
      <stop offset="1" stop-color="#1bbfd3"/>
    </linearGradient>
    <linearGradient id="d" x1="45.56" y1="7.67" x2="187.13" y2="7.67" xlink:href="#c"/>
    <linearGradient id="e" x1="139.46" y1="7.56" x2="340.34" y2="7.56" xlink:href="#c"/>
    <linearGradient id="f" x1="139.46" y1="62.77" x2="139.46" y2="196.97" xlink:href="#c"/>
    <linearGradient id="h" x1="241.55" y1="191" x2="241.55" y2="55.61" gradientTransform="translate(473.72 253.77) rotate(180)" xlink:href="#c"/>
    <linearGradient id="i" x1="349.72" y1="83.25" x2="349.72" y2="-56.71" gradientTransform="translate(690.05 36.28) rotate(180)" xlink:href="#c"/>
  </defs>
  <g style="isolation: isolate">
    <g style="clip-path: url(#a)">
      <path d="M386.94-.47H15.59V200.91H402.4V-.47Zm14.6.5-14.6,14.6V0ZM279.13,92.24l14.6-14.59V92.24Zm14.25.5-14.6,14.6V92.74Zm-29.7-.5,14.6-14.59V92.24Zm14.25.5-14.6,14.6V92.74Zm-29.7-.5,14.6-14.59V92.24Zm14.24.5-14.6,14.6V92.74Zm-29.69-.5,14.59-14.59V92.24Zm14.24.5-14.6,14.6V92.74Zm-29.7-.5,14.6-14.59V92.24Zm14.25.5L217,107.34V92.74Zm-29.7-.5,14.6-14.59V92.24Zm14.25.5-14.6,14.6V92.74Zm-29.7-.5L201,77.65V92.24Zm14.24.5-14.59,14.6V92.74ZM171,92.24l14.6-14.59V92.24Zm14.24.5-14.6,14.6V92.74Zm-29.7-.5,14.6-14.59V92.24Zm14.25.5-14.6,14.6V92.74Zm-29.7-.5,14.6-14.59V92.24Zm14.25.5-14.6,14.6V92.74Zm-29.7-.5,14.6-14.59V92.24Zm14.25.5-14.6,14.6V92.74Zm-15.46,0-14.59,14.6V92.74Zm-14.24-.5,14.6-14.59V92.24Zm14.6.86v14.6h-14.6Zm15.45,0v14.6h-14.6Zm15.45,0v14.6h-14.6Zm15.45,0v14.6h-14.6Zm15.46,0v14.6H171Zm15.45,0v14.6h-14.6Zm15.45,0v14.6h-14.6Zm15.45,0v14.6h-14.6Zm15.45,0v14.6H232.78Zm15.46,0v14.6h-14.6Zm15.45,0v14.6h-14.6Zm15.45,0v14.6h-14.6Zm.5-.36h14.6l-14.6,14.6Zm14.95.36v14.6h-14.6Zm-14.6-.86,14.6-14.59V92.24Zm-.35-.35V77.29h14.6Zm-15.45,0V77.29h14.6Zm-15.45,0V77.29h14.6Zm-15.46,0V77.29h14.6Zm-15.45,0V77.29H247Zm-15.45,0V77.29h14.6Zm-15.45,0V77.29h14.6Zm-15.45,0V77.29h14.59Zm-15.46,0V77.29h14.6Zm-15.45,0V77.29h14.6Zm-15.45,0V77.29h14.6Zm-15.45,0V77.29h14.6Zm-15.45,0V77.29H123.4Zm-.5.35H93.71l14.6-14.59Zm0,15.46H93.71l14.6-14.6Zm15.09.5-14.59,14.59V108.2Zm15.46,0-14.6,14.59V108.2Zm15.45,0-14.6,14.59V108.2Zm15.45,0-14.6,14.59V108.2Zm15.45,0-14.6,14.59V108.2Zm15.45,0-14.59,14.59V108.2Zm15.46,0-14.6,14.59V108.2Zm15.45,0L217,122.79V108.2Zm15.45,0-14.6,14.59V108.2Zm15.45,0-14.6,14.59V108.2Zm15.46,0-14.6,14.59V108.2Zm15.45,0-14.6,14.59V108.2Zm15.45,0-14.6,14.59V108.2Zm.85-15.46h14.6l-14.6,14.6Zm0-15.45h14.6l-14.6,14.6ZM108,77.29l-14.6,14.6V77.29Zm0,15.45-14.6,14.6V92.74Zm0,15.46-14.6,14.59V108.2Zm.36.35v14.6H93.71Zm15.45,0v14.6h-14.6Zm15.45,0v14.6h-14.6Zm15.45,0v14.6h-14.6Zm15.45,0v14.6h-14.6Zm15.46,0v14.6H171Zm15.45,0v14.6h-14.6Zm15.45,0v14.6h-14.6Zm15.45,0v14.6h-14.6Zm15.45,0v14.6H232.78Zm15.46,0v14.6h-14.6Zm15.45,0v14.6h-14.6Zm15.45,0v14.6h-14.6Zm15.45,0v14.6h-14.6Zm.5-.35h14.6l-14.6,14.59Zm15,.35v14.6H310ZM310,107.7l14.6-14.6v14.6Zm0-15.46,14.6-14.59V92.24Zm0-15.45,14.6-14.6v14.6Zm-15.46,0,14.6-14.6v14.6Zm-15.45,0,14.6-14.6v14.6Zm-15.45,0,14.6-14.6v14.6Zm-15.45,0,14.6-14.6v14.6Zm-15.45,0,14.59-14.6v14.6Zm-15.46,0,14.6-14.6v14.6Zm-15.45,0,14.6-14.6v14.6Zm-15.45,0L201,62.19v14.6Zm-15.45,0,14.6-14.6v14.6Zm-15.46,0,14.6-14.6v14.6Zm-15.45,0,14.6-14.6v14.6Zm-15.45,0,14.6-14.6v14.6Zm-15.45,0,14.6-14.6v14.6Zm-15.45,0,14.6-14.6v14.6Zm-15.46,0,14.6-14.6v14.6Zm14.6,15.45H78.25l14.6-14.59Zm0,15.46H78.25l14.6-14.6Zm0,15.45H78.25l14.6-14.6Zm15.1.5-14.6,14.6v-14.6Zm15.45,0-14.59,14.6v-14.6Zm15.46,0-14.6,14.6v-14.6Zm15.45,0-14.6,14.6v-14.6Zm15.45,0-14.6,14.6v-14.6Zm15.45,0-14.6,14.6v-14.6Zm15.45,0-14.59,14.6v-14.6Zm15.46,0-14.6,14.6v-14.6Zm15.45,0L217,138.25v-14.6Zm15.45,0-14.6,14.6v-14.6Zm15.45,0-14.6,14.6v-14.6Zm15.46,0-14.6,14.6v-14.6Zm15.45,0-14.6,14.6v-14.6Zm15.45,0-14.6,14.6v-14.6Zm15.45,0-14.6,14.6v-14.6Zm.86-15.45h14.59l-14.59,14.59Zm0-15.46h14.59l-14.59,14.6Zm0-15.45h14.59l-14.59,14.6Zm0-15.45h14.59l-14.59,14.6Zm-15.46,14.6V61.84h14.6Zm-15.45,0V61.84h14.6Zm-15.45,0V61.84h14.6Zm-15.45,0V61.84h14.6Zm-15.46,0V61.84h14.6Zm-15.45,0V61.84H247Zm-15.45,0V61.84h14.6Zm-15.45,0V61.84h14.6Zm-15.45,0V61.84h14.59Zm-15.46,0V61.84h14.6Zm-15.45,0V61.84h14.6Zm-15.45,0V61.84h14.6Zm-15.45,0V61.84h14.6Zm-15.45,0V61.84H123.4Zm-15.46,0V61.84H108Zm-15.45,0V61.84H92.5Zm14.6.85L77.9,91.89V77.29Zm0,15.45-14.6,14.6V92.74Zm0,15.46L77.9,122.79V108.2Zm0,15.45-14.6,14.6v-14.6Zm.35.35v14.6H78.25Zm15.46,0v14.6H93.71Zm15.45,0v14.6h-14.6Zm15.45,0v14.6h-14.6Zm15.45,0v14.6h-14.6Zm15.45,0v14.6h-14.6Zm15.46,0v14.6H171ZM201,124v14.6h-14.6Zm15.45,0v14.6h-14.6Zm15.45,0v14.6h-14.6Zm15.45,0v14.6H232.78Zm15.46,0v14.6h-14.6Zm15.45,0v14.6h-14.6Zm15.45,0v14.6h-14.6Zm15.45,0v14.6h-14.6Zm15.46,0v14.6H310Zm.5-.35h14.59l-14.59,14.6Zm14.95.35v14.6h-14.6Zm-14.6-.85,14.6-14.6v14.6Zm0-15.45,14.6-14.6v14.6Zm0-15.46,14.6-14.59V92.24Zm0-15.45,14.6-14.6v14.6Zm0-15.45,14.6-14.6v14.6Zm-15.45,0,14.6-14.6v14.6Zm-15.46,0,14.6-14.6v14.6Zm-15.45,0,14.6-14.6v14.6Zm-15.45,0,14.6-14.6v14.6Zm-15.45,0,14.6-14.6v14.6Zm-15.45,0,14.59-14.6v14.6Zm-15.46,0,14.6-14.6v14.6Zm-15.45,0,14.6-14.6v14.6Zm-15.45,0L201,46.74v14.6Zm-15.45,0,14.6-14.6v14.6Zm-15.46,0,14.6-14.6v14.6Zm-15.45,0,14.6-14.6v14.6Zm-15.45,0,14.6-14.6v14.6Zm-15.45,0,14.6-14.6v14.6Zm-15.45,0,14.6-14.6v14.6Zm-15.46,0,14.6-14.6v14.6ZM77.4,76.79H62.8l14.6-14.6Zm0,15.45H62.8L77.4,77.65Zm0,15.46H62.8L77.4,93.1Zm0,15.45H62.8l14.6-14.6Zm0,15.45H62.8L77.4,124Zm15.1.5L77.9,153.7V139.1Zm15.45,0-14.6,14.6V139.1Zm15.45,0-14.59,14.6V139.1Zm15.46,0-14.6,14.6V139.1Zm15.45,0-14.6,14.6V139.1Zm15.45,0-14.6,14.6V139.1Zm15.45,0-14.6,14.6V139.1Zm15.45,0-14.59,14.6V139.1Zm15.46,0-14.6,14.6V139.1Zm15.45,0L217,153.7V139.1Zm15.45,0-14.6,14.6V139.1Zm15.45,0-14.6,14.6V139.1Zm15.46,0-14.6,14.6V139.1Zm15.45,0-14.6,14.6V139.1Zm15.45,0-14.6,14.6V139.1Zm15.45,0-14.6,14.6V139.1Zm15.45,0-14.59,14.6V139.1Zm.86-15.45h14.6l-14.6,14.6Zm0-15.45h14.6l-14.6,14.59Zm0-15.46h14.6l-14.6,14.6Zm0-15.45h14.6l-14.6,14.6Zm0-15.45h14.6l-14.6,14.6Zm0-15.45h14.6L340.59,61ZM325.14,61V46.39h14.59Zm-15.46,0V46.39h14.6Zm-15.45,0V46.39h14.6Zm-15.45,0V46.39h14.6Zm-15.45,0V46.39h14.6Zm-15.46,0V46.39h14.6Zm-15.45,0V46.39H247ZM217,61V46.39h14.6Zm-15.45,0V46.39h14.6Zm-15.45,0V46.39h14.59Zm-15.46,0V46.39h14.6Zm-15.45,0V46.39h14.6Zm-15.45,0V46.39h14.6Zm-15.45,0V46.39h14.6Zm-15.45,0V46.39H123.4ZM93.35,61V46.39H108ZM77.9,61V46.39H92.5Zm-.5.35H62.8l14.6-14.6Zm-15-.35V46.39h14.6Zm14.6.85-14.6,14.6V61.84Zm0,15.45-14.6,14.6V77.29Zm0,15.45-14.6,14.6V92.74Zm0,15.46-14.6,14.59V108.2Zm0,15.45-14.6,14.6v-14.6Zm0,15.45-14.6,14.6V139.1Zm.35.35v14.6H62.8Zm15.45,0v14.6H78.25Zm15.46,0v14.6H93.71Zm15.45,0v14.6h-14.6Zm15.45,0v14.6h-14.6Zm15.45,0v14.6h-14.6Zm15.45,0v14.6h-14.6Zm15.46,0v14.6H171Zm15.45,0v14.6h-14.6Zm15.45,0v14.6h-14.6Zm15.45,0v14.6h-14.6Zm15.45,0v14.6H232.78Zm15.46,0v14.6h-14.6Zm15.45,0v14.6h-14.6Zm15.45,0v14.6h-14.6Zm15.45,0v14.6h-14.6Zm15.46,0v14.6H310Zm15.45,0v14.6h-14.6Zm.5-.35h14.6l-14.6,14.6Zm15,.35v14.6h-14.6Zm-14.6-.85,14.6-14.6v14.6Zm0-15.45,14.6-14.6v14.6Zm0-15.45,14.6-14.6v14.6Zm0-15.46,14.6-14.59V92.24Zm0-15.45,14.6-14.6v14.6Zm0-15.45,14.6-14.6v14.6Zm0-15.45,14.6-14.6v14.6Zm-15.45,0,14.6-14.6v14.6Zm-15.45,0,14.6-14.6v14.6Zm-15.46,0,14.6-14.6v14.6Zm-15.45,0,14.6-14.6v14.6Zm-15.45,0,14.6-14.6v14.6Zm-15.45,0,14.6-14.6v14.6Zm-15.45,0,14.59-14.6v14.6Zm-15.46,0,14.6-14.6v14.6Zm-15.45,0,14.6-14.6v14.6Zm-15.45,0L201,31.29v14.6Zm-15.45,0,14.6-14.6v14.6Zm-15.46,0,14.6-14.6v14.6Zm-15.45,0,14.6-14.6v14.6Zm-15.45,0,14.6-14.6v14.6Zm-15.45,0,14.6-14.6v14.6Zm-15.45,0,14.6-14.6v14.6Zm-15.46,0,14.6-14.6v14.6Zm-15.45,0,14.6-14.6v14.6ZM62,61.34H47.35L62,46.74Zm0,15.45H47.35L62,62.19Zm0,15.45H47.35L62,77.65Zm0,15.46H47.35L62,93.1Zm0,15.45H47.35L62,108.55Zm0,15.45H47.35L62,124Zm0,15.45H47.35L62,139.45Zm15.1.5-14.6,14.6v-14.6Zm15.45,0-14.6,14.6v-14.6Zm15.45,0-14.6,14.6v-14.6Zm15.45,0-14.59,14.6v-14.6Zm15.46,0-14.6,14.6v-14.6Zm15.45,0-14.6,14.6v-14.6Zm15.45,0-14.6,14.6v-14.6Zm15.45,0-14.6,14.6v-14.6Zm15.45,0-14.59,14.6v-14.6Zm15.46,0-14.6,14.6v-14.6Zm15.45,0L217,169.15v-14.6Zm15.45,0-14.6,14.6v-14.6Zm15.45,0-14.6,14.6v-14.6Zm15.46,0-14.6,14.6v-14.6Zm15.45,0-14.6,14.6v-14.6Zm15.45,0-14.6,14.6v-14.6Zm15.45,0-14.6,14.6v-14.6Zm15.45,0-14.59,14.6v-14.6Zm15.46,0-14.6,14.6v-14.6ZM356,139.1h14.6L356,153.7Zm0-15.45h14.6L356,138.25Zm0-15.45h14.6L356,122.79Zm0-15.46h14.6L356,107.34Zm0-15.45h14.6L356,91.89Zm0-15.45h14.6L356,76.44Zm0-15.45h14.6L356,61Zm0-15.46h14.6L356,45.53Zm-15.45,14.6V30.93h14.6Zm-15.45,0V30.93h14.59Zm-15.46,0V30.93h14.6Zm-15.45,0V30.93h14.6Zm-15.45,0V30.93h14.6Zm-15.45,0V30.93h14.6Zm-15.46,0V30.93h14.6Zm-15.45,0V30.93H247Zm-15.45,0V30.93h14.6Zm-15.45,0V30.93h14.6Zm-15.45,0V30.93h14.59Zm-15.46,0V30.93h14.6Zm-15.45,0V30.93h14.6Zm-15.45,0V30.93h14.6Zm-15.45,0V30.93h14.6Zm-15.45,0V30.93H123.4Zm-15.46,0V30.93H108Zm-15.45,0V30.93H92.5Zm-15.45,0V30.93h14.6Zm-.5.36H47.35L62,31.29Zm-15-.36V30.93H61.59Zm14.59.86L47,61V46.39Zm0,15.45L47,76.44V61.84Zm0,15.45L47,91.89V77.29Zm0,15.45L47,107.34V92.74Zm0,15.46L47,122.79V108.2Zm0,15.45L47,138.25v-14.6Zm0,15.45L47,153.7V139.1Zm0,15.45L47,169.15v-14.6Zm.36.36V169.5H47.35Zm15.45,0V169.5H62.8Zm15.45,0V169.5H78.25Zm15.46,0V169.5H93.71Zm15.45,0V169.5h-14.6Zm15.45,0V169.5h-14.6Zm15.45,0V169.5h-14.6Zm15.45,0V169.5h-14.6Zm15.46,0V169.5H171Zm15.45,0V169.5h-14.6Zm15.45,0V169.5h-14.6Zm15.45,0V169.5h-14.6Zm15.45,0V169.5H232.78Zm15.46,0V169.5h-14.6Zm15.45,0V169.5h-14.6Zm15.45,0V169.5h-14.6Zm15.45,0V169.5h-14.6Zm15.46,0V169.5H310Zm15.45,0V169.5h-14.6Zm15.45,0V169.5h-14.6Zm.5-.36h14.6L356,169.15Zm14.95.36V169.5h-14.6Zm-14.6-.86,14.6-14.6v14.6Zm0-15.45L371,124v14.6Zm0-15.45,14.6-14.6v14.6Zm0-15.45L371,93.1v14.6Zm0-15.46L371,77.65V92.24Zm0-15.45L371,62.19v14.6Zm0-15.45L371,46.74v14.6Zm0-15.45L371,31.29v14.6Zm0-15.46L371,15.84V30.43Zm-15.45,0,14.6-14.59V30.43Zm-15.45,0,14.6-14.59V30.43Zm-15.45,0,14.6-14.59V30.43Zm-15.46,0,14.6-14.59V30.43Zm-15.45,0,14.6-14.59V30.43Zm-15.45,0,14.6-14.59V30.43Zm-15.45,0,14.6-14.59V30.43Zm-15.45,0,14.59-14.59V30.43Zm-15.46,0,14.6-14.59V30.43Zm-15.45,0,14.6-14.59V30.43Zm-15.45,0L201,15.84V30.43Zm-15.45,0,14.6-14.59V30.43Zm-15.46,0,14.6-14.59V30.43Zm-15.45,0,14.6-14.59V30.43Zm-15.45,0,14.6-14.59V30.43Zm-15.45,0,14.6-14.59V30.43Zm-15.45,0,14.6-14.59V30.43Zm-15.46,0,14.6-14.59V30.43Zm-15.45,0L77.4,15.84V30.43Zm-15.45,0L62,15.84V30.43ZM46.5,45.89H31.9l14.6-14.6Zm0,15.45H31.9l14.6-14.6Zm0,15.45H31.9l14.6-14.6Zm0,15.45H31.9L46.5,77.65Zm0,15.46H31.9L46.5,93.1Zm0,15.45H31.9l14.6-14.6Zm0,15.45H31.9L46.5,124Zm0,15.45H31.9l14.6-14.6Zm0,15.45H31.9l14.6-14.59Zm15.09.5L47,184.6V170Zm15.46,0-14.6,14.6V170Zm15.45,0L77.9,184.6V170ZM108,170l-14.6,14.6V170Zm15.45,0-14.59,14.6V170Zm15.46,0-14.6,14.6V170Zm15.45,0-14.6,14.6V170Zm15.45,0-14.6,14.6V170Zm15.45,0-14.6,14.6V170Zm15.45,0-14.59,14.6V170Zm15.46,0-14.6,14.6V170Zm15.45,0L217,184.6V170ZM247,170l-14.6,14.6V170Zm15.45,0-14.6,14.6V170Zm15.46,0-14.6,14.6V170Zm15.45,0-14.6,14.6V170Zm15.45,0-14.6,14.6V170Zm15.45,0-14.6,14.6V170Zm15.45,0-14.59,14.6V170Zm15.46,0-14.6,14.6V170Zm15.45,0L356,184.6V170Zm.85-15.45h14.6l-14.6,14.6Zm0-15.45h14.6l-14.6,14.6Zm0-15.45h14.6l-14.6,14.6Zm0-15.45h14.6l-14.6,14.59Zm0-15.46h14.6l-14.6,14.6Zm0-15.45h14.6l-14.6,14.6Zm0-15.45h14.6l-14.6,14.6Zm0-15.45h14.6L371.49,61Zm0-15.46h14.6l-14.6,14.6Zm0-15.45h14.6l-14.6,14.6ZM356,30.08V15.48h14.6Zm-15.45,0V15.48h14.6Zm-15.45,0V15.48h14.59Zm-15.46,0V15.48h14.6Zm-15.45,0V15.48h14.6Zm-15.45,0V15.48h14.6Zm-15.45,0V15.48h14.6Zm-15.46,0V15.48h14.6Zm-15.45,0V15.48H247Zm-15.45,0V15.48h14.6Zm-15.45,0V15.48h14.6Zm-15.45,0V15.48h14.59Zm-15.46,0V15.48h14.6Zm-15.45,0V15.48h14.6Zm-15.45,0V15.48h14.6Zm-15.45,0V15.48h14.6Zm-15.45,0V15.48H123.4Zm-15.46,0V15.48H108Zm-15.45,0V15.48H92.5Zm-15.45,0V15.48h14.6ZM47,30.08V15.48H61.59Zm-.5.35H31.9L46.5,15.84Zm-15-.35V15.48h14.6Zm14.6.85-14.6,14.6V30.93Zm0,15.46L31.54,61V46.39Zm0,15.45-14.6,14.6V61.84Zm0,15.45-14.6,14.6V77.29Zm0,15.45-14.6,14.6V92.74Zm0,15.46-14.6,14.59V108.2Zm0,15.45-14.6,14.6v-14.6Zm0,15.45-14.6,14.6V139.1Zm0,15.45-14.6,14.6v-14.6Zm0,15.45-14.6,14.6V170Zm.36.36V185H31.9Zm15.45,0V185H47.35Zm15.45,0V185H62.8Zm15.45,0V185H78.25Zm15.46,0V185H93.71Zm15.45,0V185h-14.6Zm15.45,0V185h-14.6Zm15.45,0V185h-14.6Zm15.45,0V185h-14.6Zm15.46,0V185H171Zm15.45,0V185h-14.6Zm15.45,0V185h-14.6Zm15.45,0V185h-14.6Zm15.45,0V185H232.78Zm15.46,0V185h-14.6Zm15.45,0V185h-14.6Zm15.45,0V185h-14.6Zm15.45,0V185h-14.6Zm15.46,0V185H310Zm15.45,0V185h-14.6Zm15.45,0V185h-14.6Zm15.45,0V185h-14.6Zm.5-.36h14.6l-14.6,14.6Zm14.95.36V185H371.85Zm-14.59-.86,14.59-14.59V169.5Zm0-15.45,14.59-14.6v14.6Zm0-15.45L386.44,124v14.6Zm0-15.45,14.59-14.6v14.6Zm0-15.45,14.59-14.6v14.6Zm0-15.46,14.59-14.59V92.24Zm0-15.45,14.59-14.6v14.6Zm0-15.45,14.59-14.6v14.6Zm0-15.45,14.59-14.6v14.6Zm0-15.46,14.59-14.59V30.43Zm0-15.45L386.44.38V15Zm-15.46,0L371,.38V15Zm-15.45,0L355.54.38V15Zm-15.45,0L340.09.38V15ZM310,15,324.64.38V15Zm-15.46,0L309.18.38V15Zm-15.45,0L293.73.38V15Zm-15.45,0L278.28.38V15Zm-15.45,0L262.83.38V15Zm-15.45,0L247.37.38V15Zm-15.46,0L231.92.38V15Zm-15.45,0L216.47.38V15Zm-15.45,0L201,.38V15ZM171,15,185.57.38V15Zm-15.46,0L170.11.38V15Zm-15.45,0L154.66.38V15Zm-15.45,0L139.21.38V15Zm-15.45,0L123.76.38V15ZM93.71,15,108.31.38V15ZM78.25,15,92.85.38V15ZM62.8,15,77.4.38V15ZM47.35,15,62,.38V15ZM31.9,15,46.5.38V15ZM31,30.43H16.44L31,15.84Zm0,15.46H16.44L31,31.29Zm0,15.45H16.44L31,46.74Zm0,15.45H16.44L31,62.19Zm0,.86V92.24H16.44ZM16.09,91.89V77.29h14.6ZM31,107.7H16.44L31,93.1Zm0,15.45H16.44L31,108.55Zm0,15.45H16.44L31,124Zm0,15.45H16.44L31,139.45Zm0,15.45H16.44L31,154.91ZM31,185H16.44L31,170.36Zm15.1.5-14.6,14.6v-14.6Zm15.45,0L47,200.06v-14.6Zm15.46,0-14.6,14.6v-14.6Zm15.45,0-14.6,14.6v-14.6Zm15.45,0-14.6,14.6v-14.6Zm15.45,0-14.59,14.6v-14.6Zm15.46,0-14.6,14.6v-14.6Zm15.45,0-14.6,14.6v-14.6Zm15.45,0-14.6,14.6v-14.6Zm15.45,0-14.6,14.6v-14.6Zm15.45,0-14.59,14.6v-14.6Zm15.46,0-14.6,14.6v-14.6Zm15.45,0L217,200.06v-14.6Zm15.45,0-14.6,14.6v-14.6Zm15.45,0-14.6,14.6v-14.6Zm15.46,0-14.6,14.6v-14.6Zm15.45,0-14.6,14.6v-14.6Zm15.45,0-14.6,14.6v-14.6Zm15.45,0-14.6,14.6v-14.6Zm15.45,0-14.59,14.6v-14.6Zm15.46,0-14.6,14.6v-14.6Zm15.45,0L356,200.06v-14.6Zm15.45,0-14.6,14.6v-14.6Zm.85-15.46h14.6l-14.6,14.6Zm0-15.45h14.6l-14.6,14.6Zm0-15.45h14.6l-14.6,14.6Zm0-15.45h14.6l-14.6,14.6Zm0-15.45h14.6l-14.6,14.59Zm0-15.46h14.6l-14.6,14.6Zm0-15.45h14.6l-14.6,14.6Zm0-.85V61.84h14.6Zm15-14.25v14.6H387.3Zm-15-15.8h14.6L386.94,61Zm0-15.46h14.6l-14.6,14.6Zm0-15.45h14.6l-14.6,14.6ZM386.09,0l-14.6,14.6V0ZM370.64,0,356,14.63V0ZM355.19,0l-14.6,14.6V0ZM339.73,0l-14.59,14.6V0ZM324.28,0l-14.6,14.6V0ZM308.83,0l-14.6,14.6V0ZM293.38,0l-14.6,14.6V0ZM277.93,0l-14.6,14.6V0ZM262.47,0l-14.6,14.6V0ZM247,0l-14.6,14.6V0ZM231.57,0,217,14.63V0ZM216.12,0l-14.6,14.6V0ZM200.66,0l-14.59,14.6V0ZM185.21,0l-14.6,14.6V0ZM169.76,0l-14.6,14.6V0ZM154.31,0l-14.6,14.6V0ZM138.86,0l-14.6,14.6V0ZM123.4,0l-14.59,14.6V0ZM108,0l-14.6,14.6V0ZM92.5,0,77.9,14.63V0ZM77.05,0l-14.6,14.6V0ZM61.59,0,47,14.63V0ZM46.14,0l-14.6,14.6V0ZM31,15H16.44L31,.38ZM30.69,0l-14.6,14.6V0Zm0,15.45-14.6,14.6V15.48Zm0,15.45-14.6,14.6V30.93Zm0,15.46L16.09,61V46.39Zm0,15.45-14.6,14.6V61.84Zm0,30.9-14.6,14.6V92.74Zm0,15.46-14.6,14.59V108.2Zm0,15.45-14.6,14.6v-14.6Zm0,15.45-14.6,14.6V139.1Zm0,15.45-14.6,14.6v-14.6Zm0,15.45-14.6,14.6V170Zm0,15.46-14.6,14.6v-14.6ZM16.44,200.41,31,185.81v14.6Zm15.46,0,14.6-14.6v14.6Zm15.45,0L62,185.81v14.6Zm15.45,0,14.6-14.6v14.6Zm15.45,0,14.6-14.6v14.6Zm15.46,0,14.6-14.6v14.6Zm15.45,0,14.6-14.6v14.6Zm15.45,0,14.6-14.6v14.6Zm15.45,0,14.6-14.6v14.6Zm15.45,0,14.6-14.6v14.6Zm15.46,0,14.6-14.6v14.6Zm15.45,0,14.6-14.6v14.6Zm15.45,0,14.6-14.6v14.6Zm15.45,0,14.6-14.6v14.6Zm15.46,0,14.59-14.6v14.6Zm15.45,0,14.6-14.6v14.6Zm15.45,0,14.6-14.6v14.6Zm15.45,0,14.6-14.6v14.6Zm15.45,0,14.6-14.6v14.6Zm15.46,0,14.6-14.6v14.6Zm15.45,0,14.6-14.6v14.6Zm15.45,0,14.6-14.6v14.6Zm15.45,0,14.6-14.6v14.6Zm15.46,0,14.59-14.6v14.6Zm15.09-14.95h14.6l-14.6,14.6Zm.36,14.95,14.6-14.6v14.6Zm0-15.45,14.6-14.6V185Zm0-15.46,14.6-14.59V169.5Zm0-15.45,14.6-14.6v14.6Zm0-15.45L401.9,124v14.6Zm0-15.45,14.6-14.6v14.6Zm0-15.45,14.6-14.6v14.6Zm0-15.46,14.6-14.59V92.24Zm0-30.9,14.6-14.6v14.6Zm0-15.45,14.6-14.6v14.6Zm0-15.46,14.6-14.59V30.43Zm0-15.45L401.9.38V15Z" style="fill: url(#b)"/>
      <path d="M139.59,200.65l92.58,0,108-108a.11.11,0,0,0-.08-.18l-92.32-.1Z" style="fill: none;stroke-miterlimit: 10;stroke: url(#c)"/>
      <polygon points="46.75 46.2 108.31 46.39 185.92 -31.06 122.46 -31.06 46.75 46.2" style="fill: none;stroke-miterlimit: 10;stroke: url(#d)"/>
      <polygon points="139.46 61.59 232.17 61.69 340.34 -46.47 247.76 -46.57 139.46 61.59" style="fill: url(#e)"/>
      <g style="opacity: 0.15">
        <polygon points="193.19 61.59 232.17 61.59 282.3 11.46 243.31 11.46 193.19 61.59" style="fill: #f4f8fa"/>
      </g>
      <g style="opacity: 0.15">
        <polygon points="193.19 38.41 232.17 38.41 282.3 -11.71 243.31 -11.71 193.19 38.41" style="fill: #f4f8fa"/>
      </g>
      <g style="mix-blend-mode: multiply">
        <g>
          <line x1="139.46" y1="189.08" x2="139.46" y2="68.46" style="fill: none;stroke-linecap: round;stroke-miterlimit: 10;stroke-dasharray: 5.84838342666626,4.386287689208984;stroke: url(#f)"/>
          <line x1="139.46" y1="66.27" x2="139.46" y2="63.27" style="fill: none;stroke-linecap: round;stroke-miterlimit: 10;stroke: url(#f)"/>
        </g>
      </g>
      <line x1="232.17" y1="197.66" x2="232.17" y2="63.27" style="fill: none;stroke-linecap: round;stroke-miterlimit: 10;stroke-dasharray: 6,4.5;mix-blend-mode: multiply;stroke: url(#h)"/>
      <line x1="340.34" y1="-46.47" x2="340.34" y2="92.49" style="fill: none;stroke-linecap: round;stroke-miterlimit: 10;stroke-dasharray: 6,4.5;mix-blend-mode: multiply;stroke: url(#i)"/>
    </g>
  </g>
</svg>
