<svg xmlns="http://www.w3.org/2000/svg" xmlns:xlink="http://www.w3.org/1999/xlink" viewBox="0 0 415.95 181.63">
  <defs>
    <clipPath id="a">
      <rect width="415.95" height="181.63" style="fill: none"/>
    </clipPath>
    <linearGradient id="b" x1="61.95" y1="247.27" x2="356.04" y2="-46.83" gradientUnits="userSpaceOnUse">
      <stop offset="0.21" stop-color="#3a4a51" stop-opacity="0"/>
      <stop offset="0.5" stop-color="#46494d"/>
      <stop offset="0.75" stop-color="#46494d" stop-opacity="0"/>
    </linearGradient>
    <linearGradient id="c" x1="182.01" y1="219.57" x2="278.59" y2="122.99" gradientUnits="userSpaceOnUse">
      <stop offset="0" stop-color="#79bf43"/>
      <stop offset="0.16" stop-color="#5ebf6c"/>
      <stop offset="0.33" stop-color="#46bf91"/>
      <stop offset="0.5" stop-color="#33bfae"/>
      <stop offset="0.67" stop-color="#26bfc2"/>
      <stop offset="0.84" stop-color="#1ebfcf"/>
      <stop offset="1" stop-color="#1bbfd3"/>
    </linearGradient>
    <linearGradient id="d" x1="153.69" y1="107.71" x2="326.1" y2="107.71" xlink:href="#c"/>
    <linearGradient id="e" x1="61.1" y1="-1.95" x2="189.8" y2="-1.95" xlink:href="#c"/>
    <linearGradient id="f" x1="173.2" y1="81.58" x2="306.47" y2="-51.69" gradientUnits="userSpaceOnUse">
      <stop offset="0" stop-color="#1bbfd3"/>
      <stop offset="0.16" stop-color="#1ebfcf"/>
      <stop offset="0.33" stop-color="#26bfc2"/>
      <stop offset="0.5" stop-color="#33bfae"/>
      <stop offset="0.67" stop-color="#46bf91"/>
      <stop offset="0.84" stop-color="#5ebf6c"/>
      <stop offset="1" stop-color="#79bf43"/>
    </linearGradient>
    <linearGradient id="g" x1="154.91" y1="60.74" x2="154.91" y2="154.46" xlink:href="#f"/>
    <linearGradient id="j" x1="232.17" y1="63.35" x2="232.17" y2="154.34" xlink:href="#c"/>
    <linearGradient id="m" x1="324.88" y1="-32.2" x2="324.88" y2="61.74" xlink:href="#c"/>
    <linearGradient id="n" x1="324.76" y1="-32.2" x2="324.76" y2="61.74" xlink:href="#c"/>
  </defs>
  <g style="clip-path: url(#a)">
    <g>
      <polygon points="139.45 216.31 232.17 215.76 324.88 123.05 232.17 123.05 139.45 216.31" style="fill: url(#c)"/>
      <polygon points="154.91 154.3 232.17 153.84 324.88 61.13 247.62 61.59 154.91 154.3" style="fill: none;stroke-miterlimit: 10;stroke: url(#d)"/>
      <polygon points="62.31 30.43 123.84 30.43 188.59 -34.32 127.36 -34.32 62.31 30.43" style="fill: none;stroke-miterlimit: 10;stroke: url(#e)"/>
      <polygon points="154.91 61.59 247.62 -31.82 324.65 -31.82 232.17 61.59 154.91 61.59" style="fill: none;stroke-linecap: round;stroke-miterlimit: 10;stroke-dasharray: 6,4.5;stroke: url(#f)"/>
      <g style="opacity: 0.15">
        <polygon points="216.35 200.31 247.62 200.31 294.53 153.96 263.07 153.96 216.35 200.31" style="fill: #f4f8fa"/>
      </g>
      <g>
        <line x1="154.91" y1="153.96" x2="154.91" y2="150.96" style="fill: none;stroke-linecap: round;stroke-miterlimit: 10;stroke: url(#g)"/>
        <line x1="154.91" y1="146.55" x2="154.91" y2="66.45" style="fill: none;stroke-linecap: round;stroke-miterlimit: 10;stroke-dasharray: 5.878884792327881,4.409163475036621;stroke: url(#g)"/>
        <line x1="154.91" y1="64.24" x2="154.91" y2="61.24" style="fill: none;stroke-linecap: round;stroke-miterlimit: 10;stroke: url(#g)"/>
      </g>
      <g>
        <line x1="232.17" y1="153.84" x2="232.17" y2="150.84" style="fill: none;stroke-linecap: round;stroke-miterlimit: 10;stroke: url(#j)"/>
        <line x1="232.17" y1="146.57" x2="232.17" y2="68.99" style="fill: none;stroke-linecap: round;stroke-miterlimit: 10;stroke-dasharray: 5.693913459777832,4.270434856414795;stroke: url(#j)"/>
        <line x1="232.17" y1="66.85" x2="232.17" y2="63.85" style="fill: none;stroke-linecap: round;stroke-miterlimit: 10;stroke: url(#j)"/>
      </g>
      <g>
        <line x1="324.88" y1="61.24" x2="324.87" y2="58.24" style="fill: none;stroke-linecap: round;stroke-miterlimit: 10;stroke: url(#m)"/>
        <line x1="324.86" y1="53.82" x2="324.66" y2="-26.49" style="fill: none;stroke-linecap: round;stroke-miterlimit: 10;stroke-dasharray: 5.8944597244262695,4.420845031738281;stroke: url(#n)"/>
      </g>
    </g>
  </g>
</svg>
