<svg xmlns="http://www.w3.org/2000/svg" xmlns:xlink="http://www.w3.org/1999/xlink" viewBox="0 0 278.64 185.93">
  <defs>
    <linearGradient id="a" x1="23.18" y1="209.11" x2="255.46" y2="-23.18" gradientUnits="userSpaceOnUse">
      <stop offset="0.21" stop-color="#747477" stop-opacity="0"/>
      <stop offset="0.5" stop-color="#747477" stop-opacity="0.2"/>
      <stop offset="0.75" stop-color="#747477" stop-opacity="0"/>
    </linearGradient>
    <linearGradient id="b" x1="59.82" y1="46.85" x2="183.49" y2="46.85" gradientTransform="translate(322.76 201.65) rotate(180)" gradientUnits="userSpaceOnUse">
      <stop offset="0" stop-color="#1bbfd3"/>
      <stop offset="0.16" stop-color="#1ebfcf"/>
      <stop offset="0.33" stop-color="#26bfc2"/>
      <stop offset="0.5" stop-color="#33bfae"/>
      <stop offset="0.67" stop-color="#46bf91"/>
      <stop offset="0.84" stop-color="#5ebf6c"/>
      <stop offset="1" stop-color="#79bf43"/>
    </linearGradient>
    <linearGradient id="c" x1="138.82" y1="123.87" x2="263.44" y2="123.87" gradientTransform="matrix(1, 0, 0, 1, 0, 0)" xlink:href="#b"/>
    <clipPath id="d">
      <polygon points="262.94 123.87 201.13 123.87 139.27 185.73 201.08 185.73 262.94 123.87" style="fill: none"/>
    </clipPath>
    <linearGradient id="e" x1="138.82" y1="123.87" x2="263.44" y2="123.87" gradientUnits="userSpaceOnUse">
      <stop offset="0" stop-color="#79bf43"/>
      <stop offset="0.16" stop-color="#5ebf6c"/>
      <stop offset="0.33" stop-color="#46bf91"/>
      <stop offset="0.5" stop-color="#33bfae"/>
      <stop offset="0.67" stop-color="#26bfc2"/>
      <stop offset="0.84" stop-color="#1ebfcf"/>
      <stop offset="1" stop-color="#1bbfd3"/>
    </linearGradient>
  </defs>
  <g style="isolation: isolate">
    <g>
      <polygon points="262.94 123.87 201.13 123.87 139.27 185.73 201.08 185.73 262.94 123.87" style="fill: url(#b)"/>
      <polygon points="262.94 92.96 201.13 92.96 139.32 154.77 201.13 154.77 262.94 92.96" style="fill: none;stroke-linecap: round;stroke-linejoin: round;stroke-dasharray: 6,4.5;stroke: url(#c)"/>
      <g style="clip-path: url(#d)">
        <polygon points="262.94 92.96 201.13 92.96 139.32 154.77 201.13 154.77 262.94 92.96" style="fill: none;stroke-linecap: round;stroke-linejoin: round;stroke-dasharray: 6,4.5;mix-blend-mode: multiply;stroke: url(#e)"/>
      </g>
      <polygon points="232.03 154.77 216.58 154.77 185.68 185.68 201.08 185.73 232.03 154.77" style="fill: #f4f8fa;opacity: 0.2"/>
    </g>
  </g>
</svg>
