<svg xmlns="http://www.w3.org/2000/svg" xmlns:xlink="http://www.w3.org/1999/xlink" viewBox="0 0 278.64 185.93">
  <defs>
    <linearGradient id="a" x1="23.18" y1="209.11" x2="255.46" y2="-23.18" gradientUnits="userSpaceOnUse">
      <stop offset="0.21" stop-color="#3a4a51" stop-opacity="0"/>
      <stop offset="0.5" stop-color="#46494d"/>
      <stop offset="0.75" stop-color="#46494d" stop-opacity="0"/>
    </linearGradient>
    <linearGradient id="b" x1="59.82" y1="46.85" x2="183.49" y2="46.85" gradientTransform="translate(322.76 201.65) rotate(180)" gradientUnits="userSpaceOnUse">
      <stop offset="0" stop-color="#1bbfd3"/>
      <stop offset="0.16" stop-color="#1ebfcf"/>
      <stop offset="0.33" stop-color="#26bfc2"/>
      <stop offset="0.5" stop-color="#33bfae"/>
      <stop offset="0.67" stop-color="#46bf91"/>
      <stop offset="0.84" stop-color="#5ebf6c"/>
      <stop offset="1" stop-color="#79bf43"/>
    </linearGradient>
    <linearGradient id="c" x1="138.82" y1="123.87" x2="263.44" y2="123.87" gradientTransform="matrix(1, 0, 0, 1, 0, 0)" xlink:href="#b"/>
    <clipPath id="d">
      <polygon points="262.94 123.87 201.13 123.87 139.27 185.73 201.08 185.73 262.94 123.87" style="fill: none"/>
    </clipPath>
    <linearGradient id="e" x1="138.82" y1="123.87" x2="263.44" y2="123.87" gradientUnits="userSpaceOnUse">
      <stop offset="0" stop-color="#79bf43"/>
      <stop offset="0.16" stop-color="#5ebf6c"/>
      <stop offset="0.33" stop-color="#46bf91"/>
      <stop offset="0.5" stop-color="#33bfae"/>
      <stop offset="0.67" stop-color="#26bfc2"/>
      <stop offset="0.84" stop-color="#1ebfcf"/>
      <stop offset="1" stop-color="#1bbfd3"/>
    </linearGradient>
  </defs>
  <g style="isolation: isolate">
    <g>
      <path d="M263.19,0H0V185.93H278.64V0Zm14.6.5-14.6,14.6V.5ZM170.47,92.36V77.76h14.6Zm15-14.25v14.6h-14.6ZM170,92.71H155.38L170,78.11ZM155,92.36V77.76h14.6Zm-.5.35h-14.6l14.6-14.6Zm-15-.35V77.76h14.6Zm-.5.35h-14.6l14.6-14.6Zm-14.95-.35V77.76h14.6Zm-.5.35H109l14.6-14.6Zm-15-.35V77.76h14.59Zm-.5.35H93.57l14.6-14.6Zm-15-.35V77.76h14.6Zm-.5.35H78.11l14.6-14.6Zm15.1.5-14.6,14.6V93.21Zm15.45,0-14.59,14.6V93.21Zm15.46,0-14.6,14.6V93.21Zm15.45,0-14.6,14.6V93.21Zm15.45,0L155,107.81V93.21Zm15.45,0-14.6,14.6V93.21Zm.86-15.45h14.6l-14.6,14.6Zm-15.1-.5,14.6-14.6v14.6Zm-15.45,0L170,62.66v14.6Zm-15.46,0,14.6-14.6v14.6Zm-15.45,0,14.6-14.6v14.6Zm-15.45,0,14.6-14.6v14.6Zm-15.45,0,14.6-14.6v14.6Zm-1.21.5-14.6,14.6V77.76Zm-14.25-.5,14.6-14.6v14.6ZM92.36,93.21l-14.6,14.6V93.21Zm.35.36v14.6H78.11Zm15.46,0v14.6H93.57Zm15.45,0v14.6H109Zm15.45,0v14.6h-14.6Zm15.45,0v14.6h-14.6Zm15.45,0v14.6H155.38Zm15.46,0v14.6h-14.6Zm.5-.36h14.6l-14.6,14.6Zm14.95.36v14.6h-14.6Zm-14.6-.86,14.6-14.6v14.6Zm0-15.45,14.6-14.6v14.6Zm-.35-.35V62.31h14.6Zm-15.46,0V62.31h14.6Zm-15.45,0V62.31h14.6Zm-15.45,0V62.31h14.6Zm-15.45,0V62.31h14.6Zm-15.45,0V62.31h14.59Zm-15.46,0V62.31h14.6Zm-15.45,0V62.31h14.6Zm-.5.35H62.66l14.6-14.6Zm0,15.45H62.66l14.6-14.6Zm0,15.46H62.66l14.6-14.6Zm15.1.5-14.6,14.59V108.67Zm15.45,0-14.6,14.59V108.67Zm15.45,0-14.59,14.59V108.67Zm15.46,0-14.6,14.59V108.67Zm15.45,0-14.6,14.59V108.67Zm15.45,0L155,123.26V108.67Zm15.45,0-14.6,14.59V108.67Zm15.46,0-14.6,14.59V108.67Zm.85-15.46H216l-14.6,14.6Zm0-15.45H216l-14.6,14.6Zm0-15.45H216l-14.6,14.6Zm-15.1-.5,14.6-14.6v14.6Zm-15.45,0,14.6-14.6v14.6Zm-15.45,0L170,47.21v14.6Zm-15.46,0,14.6-14.6v14.6Zm-15.45,0,14.6-14.6v14.6Zm-15.45,0,14.6-14.6v14.6Zm-15.45,0,14.6-14.6v14.6Zm-15.46,0,14.6-14.6v14.6Zm-1.2.5-14.6,14.6V62.31Zm-14.25-.5,14.6-14.6v14.6Zm14.25,16-14.6,14.6V77.76Zm0,15.45-14.6,14.6V93.21Zm0,15.46-14.6,14.59V108.67Zm.35.35v14.6H62.66Zm15.45,0v14.6H78.11Zm15.46,0v14.6H93.57Zm15.45,0v14.6H109Zm15.45,0v14.6h-14.6Zm15.45,0v14.6h-14.6ZM170,109v14.6H155.38Zm15.46,0v14.6h-14.6Zm15.45,0v14.6h-14.6Zm.5-.35H216l-14.6,14.59Zm15,.35v14.6h-14.6Zm-14.6-.85,14.6-14.6v14.6Zm0-15.46,14.6-14.6v14.6Zm0-15.45,14.6-14.6v14.6Zm0-15.45,14.6-14.6v14.6Zm-.35-.35V46.86H216Zm-15.45,0V46.86h14.6Zm-15.46,0V46.86h14.6Zm-15.45,0V46.86h14.6Zm-15.45,0V46.86h14.6Zm-15.45,0V46.86h14.6Zm-15.45,0V46.86h14.59Zm-15.46,0V46.86h14.6Zm-15.45,0V46.86h14.6Zm-15.45,0V46.86h14.6Zm-.5.35H47.21l14.6-14.6Zm0,15.45H47.21l14.6-14.6Zm0,15.45H47.21l14.6-14.6Zm0,15.46H47.21l14.6-14.6Zm0,15.45H47.21L61.81,109Zm15.1.5-14.6,14.6v-14.6Zm15.45,0-14.6,14.6v-14.6Zm15.45,0-14.6,14.6v-14.6Zm15.45,0-14.59,14.6v-14.6Zm15.46,0-14.6,14.6v-14.6Zm15.45,0-14.6,14.6v-14.6Zm15.45,0L155,138.72v-14.6Zm15.45,0-14.6,14.6v-14.6Zm15.46,0-14.6,14.6v-14.6Zm15.45,0-14.6,14.6v-14.6Zm.85-15.45h14.6l-14.6,14.59Zm0-15.46h14.6l-14.6,14.6Zm0-15.45h14.6l-14.6,14.6Zm0-15.45h14.6l-14.6,14.6Zm0-15.45h14.6l-14.6,14.6Zm-155.37,0-14.6,14.6V46.86Zm0,15.45-14.6,14.6V62.31Zm0,15.45-14.6,14.6V77.76Zm0,15.45-14.6,14.6V93.21Zm0,15.46-14.6,14.59V108.67Zm0,15.45-14.6,14.6v-14.6Zm.35.35v14.6H47.21Zm15.45,0v14.6H62.66Zm15.45,0v14.6H78.11Zm15.46,0v14.6H93.57Zm15.45,0v14.6H109Zm15.45,0v14.6h-14.6Zm15.45,0v14.6h-14.6Zm15.45,0v14.6H155.38Zm15.46,0v14.6h-14.6Zm15.45,0v14.6h-14.6Zm15.45,0v14.6h-14.6Zm.5-.35h14.6l-14.6,14.6Zm14.95.35v14.6h-14.6Zm-14.6-.85,14.6-14.6v14.6Zm0-15.45,14.6-14.6v14.6Zm0-15.46,14.6-14.6v14.6Zm0-15.45,14.6-14.6v14.6Zm0-15.45,14.6-14.6v14.6Zm0-15.45,14.6-14.6v14.6Zm-15.45,0,14.6-14.6v14.6Zm-15.45,0,14.6-14.6v14.6Zm-15.45,0,14.6-14.6v14.6Zm-15.45,0L170,31.76v14.6Zm-15.46,0,14.6-14.6v14.6Zm-15.45,0,14.6-14.6v14.6Zm-15.45,0,14.6-14.6v14.6Zm-15.45,0,14.6-14.6v14.6Zm-15.46,0,14.6-14.6v14.6Zm-15.45,0,14.6-14.6v14.6Zm-15.45,0,14.6-14.6v14.6Zm-15.45,0,14.6-14.6v14.6Zm14.6,15.45H31.76l14.6-14.6Zm0,15.45H31.76l14.6-14.6Zm0,15.45H31.76l14.6-14.6Zm0,15.46H31.76l14.6-14.6Zm0,15.45H31.76L46.36,109Zm0,15.45H31.76l14.6-14.6Zm15.1.5-14.6,14.6v-14.6Zm15.45,0-14.6,14.6v-14.6Zm15.45,0-14.6,14.6v-14.6Zm15.45,0-14.6,14.6v-14.6Zm15.45,0-14.59,14.6v-14.6Zm15.46,0-14.6,14.6v-14.6Zm15.45,0-14.6,14.6v-14.6Zm15.45,0L155,154.17v-14.6Zm15.45,0-14.6,14.6v-14.6Zm15.46,0-14.6,14.6v-14.6Zm15.45,0-14.6,14.6v-14.6Zm15.45,0-14.6,14.6v-14.6Zm.85-15.45h14.6l-14.6,14.6Zm0-15.45h14.6l-14.6,14.59Zm0-15.46h14.6l-14.6,14.6Zm0-15.45h14.6l-14.6,14.6Zm0-15.45h14.6l-14.6,14.6Zm0-15.45h14.6l-14.6,14.6Zm0-15.46h14.6L232.28,46ZM216.83,46V31.4h14.6Zm-15.45,0V31.4H216Zm-15.45,0V31.4h14.6Zm-15.46,0V31.4h14.6ZM155,46V31.4h14.6Zm-15.45,0V31.4h14.6Zm-15.45,0V31.4h14.6Zm-15.45,0V31.4h14.59ZM93.21,46V31.4h14.6ZM77.76,46V31.4h14.6ZM62.31,46V31.4h14.6ZM46.86,46V31.4h14.6ZM31.4,46V31.4H46Zm14.6.86L31.4,61.46V46.86Zm0,15.45L31.4,76.91V62.31Zm0,15.45L31.4,92.36V77.76Zm0,15.45-14.6,14.6V93.21Zm0,15.46L31.4,123.26V108.67Zm0,15.45-14.6,14.6v-14.6Zm0,15.45-14.6,14.6v-14.6Zm.36.35v14.6H31.76Zm15.45,0v14.6H47.21Zm15.45,0v14.6H62.66Zm15.45,0v14.6H78.11Zm15.46,0v14.6H93.57Zm15.45,0v14.6H109Zm15.45,0v14.6h-14.6Zm15.45,0v14.6h-14.6Zm15.45,0v14.6H155.38Zm15.46,0v14.6h-14.6Zm15.45,0v14.6h-14.6Zm15.45,0v14.6h-14.6Zm15.45,0v14.6h-14.6Zm.5-.35h14.6l-14.6,14.6Zm15,.35v14.6h-14.6Zm-14.6-.85,14.6-14.6v14.6Zm0-15.45,14.6-14.6v14.6Zm0-15.45,14.6-14.6v14.6Zm0-15.46,14.6-14.6v14.6Zm0-15.45,14.6-14.6v14.6Zm0-15.45,14.6-14.6v14.6Zm0-15.45,14.6-14.6v14.6Zm0-15.46,14.6-14.59V30.9Zm-15.46,0,14.6-14.59V30.9Zm-15.45,0,14.6-14.59V30.9Zm-15.45,0,14.6-14.59V30.9Zm-15.45,0,14.6-14.59V30.9Zm-15.45,0L170,16.31V30.9Zm-15.46,0,14.6-14.59V30.9Zm-15.45,0,14.6-14.59V30.9ZM109,30.9l14.6-14.59V30.9Zm-15.45,0,14.6-14.59V30.9Zm-15.46,0,14.6-14.59V30.9Zm-15.45,0,14.6-14.59V30.9Zm-15.45,0,14.6-14.59V30.9Zm-15.45,0,14.6-14.59V30.9ZM30.9,46.36H16.31L30.9,31.76Zm0,15.45H16.31L30.9,47.21Zm0,15.45H16.31L30.9,62.66Zm0,15.45H16.31L30.9,78.11Zm0,15.46H16.31L30.9,93.57Zm0,15.45H16.31L30.9,109Zm0,15.45H16.31l14.59-14.6Zm0,15.45H16.31l14.59-14.6ZM46,155l-14.6,14.6V155Zm15.46,0-14.6,14.6V155Zm15.45,0-14.6,14.6V155Zm15.45,0-14.6,14.6V155Zm15.45,0-14.6,14.6V155Zm15.45,0-14.59,14.6V155Zm15.46,0-14.6,14.6V155Zm15.45,0-14.6,14.6V155Zm15.45,0L155,169.62V155Zm15.45,0-14.6,14.6V155Zm15.46,0-14.6,14.6V155ZM216,155l-14.6,14.6V155Zm15.45,0-14.6,14.6V155Zm15.45,0-14.6,14.6V155Zm.86-15.45h14.59l-14.59,14.6Zm0-15.45h14.59l-14.59,14.6Zm0-15.45h14.59l-14.59,14.59Zm0-15.46h14.59l-14.59,14.6Zm0-15.45h14.59l-14.59,14.6Zm0-15.45h14.59l-14.59,14.6Zm0-15.45h14.59l-14.59,14.6Zm0-15.46h14.59L247.74,46Zm0-15.45h14.59l-14.59,14.6Zm-15.46,14.6V16h14.6Zm-15.45,0V16h14.6Zm-15.45,0V16H216Zm-15.45,0V16h14.6Zm-15.46,0V16h14.6Zm-15.45,0V16h14.6Zm-15.45,0V16h14.6Zm-15.45,0V16h14.6Zm-15.45,0V16h14.59Zm-15.46,0V16h14.6Zm-15.45,0V16h14.6Zm-15.45,0V16h14.6Zm-15.45,0V16h14.6Zm-15.46,0V16H46Zm-.5.35H16.31L30.9,16.31ZM16,30.55V16h14.6Zm14.6.85L16,46V31.4Zm0,15.46L16,61.46V46.86Zm0,15.45L16,76.91V62.31Zm0,15.45L16,92.36V77.76Zm0,15.45L16,107.81V93.21Zm0,15.46L16,123.26V108.67Zm0,15.45L16,138.72v-14.6Zm0,15.45L16,154.17v-14.6Zm0,15.45L16,169.62V155Zm.35.36V170H16.31Zm15.46,0V170H31.76Zm15.45,0V170H47.21Zm15.45,0V170H62.66Zm15.45,0V170H78.11Zm15.46,0V170H93.57Zm15.45,0V170H109Zm15.45,0V170h-14.6Zm15.45,0V170h-14.6Zm15.45,0V170H155.38Zm15.46,0V170h-14.6Zm15.45,0V170h-14.6Zm15.45,0V170h-14.6Zm15.45,0V170h-14.6Zm15.46,0V170h-14.6Zm.5-.36h14.59l-14.59,14.6Zm14.95.36V170h-14.6Zm-14.6-.86,14.6-14.6v14.6Zm0-15.45,14.6-14.6v14.6Zm0-15.45,14.6-14.6v14.6Zm0-15.45,14.6-14.6v14.6Zm0-15.46,14.6-14.6v14.6Zm0-15.45,14.6-14.6v14.6Zm0-15.45,14.6-14.6v14.6Zm0-15.45,14.6-14.6v14.6Zm0-15.46,14.6-14.59V30.9Zm0-15.45L262.69.85v14.6Zm-15.45,0L247.24.85v14.6Zm-15.46,0L231.78.85v14.6Zm-15.45,0L216.33.85v14.6Zm-15.45,0L200.88.85v14.6Zm-15.45,0L185.43.85v14.6Zm-15.45,0L170,.85v14.6Zm-15.46,0L154.52.85v14.6Zm-15.45,0L139.07.85v14.6Zm-15.45,0L123.62.85v14.6Zm-15.45,0L108.17.85v14.6Zm-15.46,0L92.71.85v14.6Zm-15.45,0L77.26.85v14.6Zm-15.45,0L61.81.85v14.6Zm-15.45,0L46.36.85v14.6Zm-15.45,0L30.9.85v14.6ZM15.45,30.9H.85l14.6-14.59Zm0,15.46H.85l14.6-14.6Zm0,.85v14.6H.85ZM.5,61.46V46.86H15.1Zm15,15.8H.85l14.6-14.6Zm0,15.45H.85l14.6-14.6Zm0,15.46H.85l14.6-14.6Zm0,15.45H.85L15.45,109Zm0,15.45H.85l14.6-14.6Zm0,15.45H.85l14.6-14.6Zm0,15.45H.85l14.6-14.59Zm15.1.5L16,185.07v-14.6Zm15.45,0-14.6,14.6v-14.6Zm15.46,0-14.6,14.6v-14.6Zm15.45,0-14.6,14.6v-14.6Zm15.45,0-14.6,14.6v-14.6Zm15.45,0-14.6,14.6v-14.6Zm15.45,0-14.59,14.6v-14.6Zm15.46,0-14.6,14.6v-14.6Zm15.45,0-14.6,14.6v-14.6Zm15.45,0L155,185.07v-14.6Zm15.45,0-14.6,14.6v-14.6Zm15.46,0-14.6,14.6v-14.6Zm15.45,0-14.6,14.6v-14.6Zm15.45,0-14.6,14.6v-14.6Zm15.45,0-14.6,14.6v-14.6Zm15.45,0-14.59,14.6v-14.6Zm.86-15.45h14.6l-14.6,14.6Zm0-15.45h14.6l-14.6,14.6Zm0-15.45h14.6l-14.6,14.6Zm0-15.45h14.6l-14.6,14.59Zm0-15.46h14.6l-14.6,14.6Zm0-15.45h14.6l-14.6,14.6Zm0-15.45h14.6l-14.6,14.6Zm0-15.45h14.6l-14.6,14.6Zm0-.86V31.4h14.6Zm14.95-14.24v14.6h-14.6ZM263.19,16h14.6l-14.6,14.6ZM262.33.5,247.74,15.1V.5ZM246.88.5l-14.6,14.6V.5ZM231.43.5l-14.6,14.6V.5ZM216,.5l-14.6,14.6V.5ZM200.53.5l-14.6,14.6V.5ZM185.07.5l-14.6,14.6V.5ZM169.62.5,155,15.1V.5ZM154.17.5l-14.6,14.6V.5ZM138.72.5l-14.6,14.6V.5ZM123.26.5,108.67,15.1V.5ZM107.81.5,93.21,15.1V.5ZM92.36.5,77.76,15.1V.5ZM76.91.5,62.31,15.1V.5ZM61.46.5,46.86,15.1V.5ZM46,.5,31.4,15.1V.5ZM30.55.5,16,15.1V.5Zm-15.1,15H.85L15.45.85ZM15.1.5.5,15.1V.5ZM15.1,16,.5,30.55V16Zm0,15.45L.5,46V31.4Zm0,30.91L.5,76.91V62.31Zm0,15.45L.5,92.36V77.76Zm0,15.45L.5,107.81V93.21Zm0,15.46L.5,123.26V108.67Zm0,15.45L.5,138.72v-14.6Zm0,15.45L.5,154.17v-14.6Zm0,15.45L.5,169.62V155Zm0,15.45L.5,185.07v-14.6Zm-14.25,15,14.6-14.6v14.6Zm15.46,0,14.59-14.6v14.6Zm15.45,0,14.6-14.6v14.6Zm15.45,0,14.6-14.6v14.6Zm15.45,0,14.6-14.6v14.6Zm15.45,0,14.6-14.6v14.6Zm15.46,0,14.6-14.6v14.6Zm15.45,0,14.6-14.6v14.6Zm15.45,0,14.6-14.6v14.6Zm15.45,0,14.6-14.6v14.6Zm15.46,0L170,170.83v14.6Zm15.45,0,14.6-14.6v14.6Zm15.45,0,14.6-14.6v14.6Zm15.45,0,14.6-14.6v14.6Zm15.45,0,14.6-14.6v14.6Zm15.46,0,14.6-14.6v14.6Zm15.45,0,14.6-14.6v14.6Zm15.1-15h14.6l-14.6,14.6Zm.35,15,14.6-14.6v14.6Zm0-15.46,14.6-14.59V170Zm0-15.45,14.6-14.6v14.6Zm0-15.45,14.6-14.6v14.6Zm0-15.45,14.6-14.6v14.6Zm0-15.45,14.6-14.6v14.6Zm0-15.46,14.6-14.6v14.6Zm0-15.45,14.6-14.6v14.6Zm0-15.45,14.6-14.6v14.6Zm0-30.91,14.6-14.59V30.9Zm0-15.45L278.14.85v14.6Z" style="fill: url(#a)"/>
      <polygon points="262.94 123.87 201.13 123.87 139.27 185.73 201.08 185.73 262.94 123.87" style="fill: url(#b)"/>
      <polygon points="262.94 92.96 201.13 92.96 139.32 154.77 201.13 154.77 262.94 92.96" style="fill: none;stroke-linecap: round;stroke-linejoin: round;stroke-dasharray: 6,4.5;stroke: url(#c)"/>
      <g style="clip-path: url(#d)">
        <polygon points="262.94 92.96 201.13 92.96 139.32 154.77 201.13 154.77 262.94 92.96" style="fill: none;stroke-linecap: round;stroke-linejoin: round;stroke-dasharray: 6,4.5;mix-blend-mode: multiply;stroke: url(#e)"/>
      </g>
      <polygon points="232.03 154.77 216.58 154.77 185.68 185.68 201.08 185.73 232.03 154.77" style="fill: #f4f8fa;opacity: 0.2"/>
    </g>
  </g>
</svg>
