<?xml version="1.0" encoding="utf-8"?>
<!-- Generator: Adobe Illustrator 25.2.3, SVG Export Plug-In . SVG Version: 6.00 Build 0)  -->
<svg version="1.1" id="Layer_1" xmlns="http://www.w3.org/2000/svg" xmlns:xlink="http://www.w3.org/1999/xlink" x="0px" y="0px"
	 viewBox="0 0 893.3 352.8" style="enable-background:new 0 0 893.3 352.8;" xml:space="preserve">
<style type="text/css">
	.st0{clip-path:url(#SVGID_2_);}
	.st1{fill:#FFCE00;}
	.st2{fill:#0EAF1A;}
	.st3{fill:#001BBA;}
	.st4{fill:#81008C;}
	.st5{fill:#010101;}
	.st6{fill:#663607;}
	.st7{fill:#3AC9D8;}
	.st8{fill:#FC92B9;}
	.st9{fill:#D9D9DB;}
	.st10{fill:#FF7900;}
	.st11{fill:#DD0000;}
</style>
<g>
	<g>
		<path d="M1.1,100.5c0-9.9,8.6-18.2,18.7-18.2c5.3,0,10.3,2.3,13.7,5.9L28,93.1c-2.1-2.4-5-3.9-8.2-3.9c-5.9,0-10.9,5.2-10.9,11.3
			c0,6.2,5,11.4,10.9,11.4c3.2,0,6.2-1.6,8.2-3.9l5.5,4.9c-3.4,3.6-8.4,5.9-13.7,5.9C9.7,118.7,1.1,110.4,1.1,100.5z"/>
		<path d="M45.8,89.7v7h17.7v6.8H45.8v7.7h19.5v6.8H38.2V82.8h27.1v6.8L45.8,89.7L45.8,89.7z"/>
		<path d="M96,111.3v6.8H70.9V82.9h7.6v28.4H96z"/>
		<path d="M108.4,89.7v7h17.7v6.8h-17.7v7.7h19.5v6.8h-27.1V82.8h27.1v6.8L108.4,89.7L108.4,89.7z"/>
		<path d="M134,82.9h17.8c6.3,0,10.7,3.7,10.7,8.8c0,3.6-1.8,6.2-4.9,7.8c4.1,1.8,6.5,5.1,6.5,9c0,5.6-4.8,9.5-11.5,9.5h-18.5V82.9
			H134z M150,97.1c2.8,0,4.8-1.6,4.8-3.9c0-2.2-2-3.8-4.8-3.8h-8.4v7.7H150z M151.1,111.6c3,0,5.2-1.8,5.2-4.3s-2.2-4.3-5.2-4.3
			h-9.6v8.6H151.1z"/>
		<path d="M190.7,118.1l-8.1-11.4H177v11.4h-7.5V82.9h15.8c7.6,0,13.3,4.9,13.3,11.9c0,5.2-3.2,9.3-8,11l8.7,12.3H190.7z
			 M177.1,99.7h7.5c3.7,0,6.3-1.9,6.3-5c0-3-2.6-5-6.3-5h-7.5V99.7z"/>
		<path d="M227.9,112.6h-15.7l-2.3,5.5h-8.5l14.4-35.2h8.5l14.4,35.2h-8.5L227.9,112.6z M225.3,106.2l-5.2-12.9l-5.2,12.9H225.3z"/>
		<path d="M248.6,89.7h-11v-6.8h29.5v6.8h-11v28.4h-7.6V89.7H248.6z"/>
		<path d="M279.8,89.7v7h17.7v6.8h-17.7v7.7h19.5v6.8h-27.1V82.8h27.1v6.8L279.8,89.7L279.8,89.7z"/>
	</g>
	<g>
		<path d="M412.9,47.5H454c20.2,0,35.4,12.9,35.4,31.4c0,18.4-15.1,31.4-35.4,31.4h-23.9v31.8h-17.2L412.9,47.5L412.9,47.5z
			 M452.1,94.4c11.7,0,19.8-5.9,19.8-15.5s-8.1-15.5-19.8-15.5h-22v31H452.1z"/>
		<path d="M566,142l-22.3-31.7h-18.3v31.8h-17.2V47.6h41.1c20.2,0,35.4,12.9,35.4,31.4c0,14.3-9.2,25.3-22.8,29.6l23.7,33.6H566V142
			z M525.4,94.4h22c11.7,0,19.8-5.9,19.8-15.5s-8.1-15.5-19.8-15.5h-22V94.4z"/>
		<path d="M610.7,47.5h17.1V142h-17.1V47.5z"/>
		<path d="M661.7,47.5H695c31.2,0,53.2,19.5,53.2,47.2S726.2,142,695,142h-33.3V47.5z M696.8,126.5c19.9,0,34-13.2,34-31.8
			s-14-31.6-34-31.6h-17.9v63.4H696.8z"/>
		<path d="M784.5,63.2V86h48.8v15.7h-48.8v24.6h53.9V142h-71.1V47.5h71.1v15.7H784.5z"/>
	</g>
	<g>
		<path d="M52.7,214.7h17.1l31.2,57.7l31.1-57.7h17.2v94.5h-17.2V246L101,303.7L69.8,246v63.2H52.7V214.7z"/>
		<path d="M194,304.2c-7.6-4.4-13.7-10.4-18.2-18c-4.5-7.5-6.7-15.6-6.7-24.4c0-8.7,2.2-16.8,6.7-24.3s10.5-13.4,18.2-17.9
			c7.6-4.4,15.8-6.7,24.6-6.7c8.8,0,17,2.2,24.6,6.7s13.7,10.4,18.2,17.9s6.8,15.6,6.8,24.3c0,8.7-2.3,16.8-6.8,24.4
			c-4.5,7.5-10.6,13.5-18.2,18s-15.8,6.7-24.6,6.7C209.8,310.9,201.6,308.7,194,304.2z M234.6,290.7c5-3,8.9-7.1,11.8-12.2
			s4.3-10.6,4.3-16.6c0-5.9-1.4-11.4-4.3-16.4s-6.8-9.2-11.8-12.2s-10.3-4.5-16-4.5s-11,1.5-15.9,4.5s-8.8,7.1-11.8,12.2
			c-2.9,5.1-4.4,10.6-4.4,16.4c0,6,1.5,11.5,4.4,16.6s6.9,9.1,11.8,12.2c4.9,3,10.2,4.5,15.9,4.5
			C224.3,295.2,229.7,293.7,234.6,290.7z"/>
		<path d="M288.3,214.7h17.1l49.9,66.5v-66.5h17.1v94.5h-17.1l-49.9-66.5v66.5h-17.1V214.7z"/>
		<path d="M419.7,230.4h-30.3v-15.7H467v15.7h-30.1v78.8h-17.2V230.4z"/>
		<path d="M565.7,214.7v94.5h-17.2v-40.3h-47.2v40.3h-17.1v-94.5h17.1v38.5h47.2v-38.5H565.7z"/>
	</g>
	<g>
		<g>
			<defs>
				<path id="SVGID_1_" d="M821.7,0l-0.1,0.1H358.8v167.8H0v184.9h624V184h181.5l0.1-0.1h87.5l0.2-183.8L821.7,0L821.7,0z
					 M877.1,167.8h-55.6l-0.1,0.1H608v168.8H16.1V184h358.8V16.2h430.7l0.1-0.1h71.6L877.1,167.8z"/>
			</defs>
			<clipPath id="SVGID_2_">
				<use xlink:href="#SVGID_1_"  style="overflow:visible;"/>
			</clipPath>
			<g class="st0">
				<g id="Teal_100-30_1_">
					<polygon class="st1" points="-33.8,367 49.5,367 485.8,-69.2 402.4,-69.2 					"/>
				</g>
				<g id="Teal_100-30_4_">
					<polygon class="st2" points="49.2,367 132.5,367 568.8,-69.2 485.4,-69.2 					"/>
				</g>
				<g id="Teal_100-30_5_">
					<polygon class="st3" points="132.2,367 215.5,367 651.8,-69.2 568.4,-69.2 					"/>
				</g>
				<g id="Teal_100-30_6_">
					<polygon class="st4" points="215.2,367 298.6,367 735.3,-69.7 651.9,-69.7 					"/>
				</g>
				<g id="Teal_100-30_7_">
					<polygon class="st5" points="298.2,367 381.6,367 817.8,-69.2 734.5,-69.2 					"/>
				</g>
				<g id="Teal_100-30_8_">
					<polygon class="st6" points="381.2,367 464.6,367 900.8,-69.2 817.5,-69.2 					"/>
				</g>
				<g id="Teal_100-30_9_">
					<polygon class="st7" points="464.3,367 547.6,367 984.3,-69.7 901,-69.7 					"/>
				</g>
				<g id="Teal_100-30_10_">
					<polygon class="st8" points="547.3,367 630.6,367 1067.3,-69.7 984,-69.7 					"/>
				</g>
				<g id="Teal_100-30_11_">
					<polygon class="st9" points="630.3,367 713.6,367 1149.9,-69.2 1066.5,-69.2 					"/>
				</g>
				<g id="Teal_100-30_2_">
					<polygon class="st10" points="-116.8,367 -33.5,367 402.7,-69.2 319.4,-69.2 					"/>
				</g>
				<g id="Teal_100-30_3_">
					<polygon class="st11" points="-199.9,367 -116.5,367 319.7,-69.2 236.4,-69.2 					"/>
				</g>
			</g>
		</g>
	</g>
</g>
</svg>
