<svg xmlns="http://www.w3.org/2000/svg" viewBox="0 0 833.73 329.25"><title>pride-playlist</title><g id="Layer_2" data-name="Layer 2"><g id="Layer_1-2" data-name="Layer 1"><path d="M1.05,93.57c0-9.24,8-17,17.48-17a17.66,17.66,0,0,1,12.79,5.51l-5.12,4.6A10.26,10.26,0,0,0,18.53,83C13,83,8.33,87.87,8.33,93.57S13,104.2,18.53,104.2a10.25,10.25,0,0,0,7.67-3.68l5.12,4.59a17.75,17.75,0,0,1-12.79,5.51C9.1,110.62,1.05,102.82,1.05,93.57Z"/><path d="M42.77,83.51v6.56H59.3v6.37H42.77v7.24H61v6.37H35.68V77.14H61v6.37Z"/><path d="M89.62,103.68v6.37H66.15V77.14h7.09v26.54Z"/><path d="M101.26,83.51v6.56h16.53v6.37H101.26v7.24h18.26v6.37H94.17V77.14h25.35v6.37Z"/><path d="M125.17,77.14h16.67c5.89,0,10,3.45,10,8.24a7.87,7.87,0,0,1-4.6,7.33c3.84,1.72,6,4.79,6,8.43,0,5.27-4.5,8.91-10.78,8.91H125.17Zm14.9,13.27c2.63,0,4.5-1.54,4.5-3.64s-1.87-3.6-4.5-3.6h-7.86v7.24Zm1.1,13.6c2.83,0,4.84-1.67,4.84-4s-2-4-4.84-4h-9v8Z"/><path d="M178.15,110.05l-7.52-10.68h-5.22v10.68h-7V77.14h14.8c7.14,0,12.41,4.6,12.41,11.11a10.72,10.72,0,0,1-7.48,10.3l8.1,11.5ZM165.41,92.9h7c3.5,0,5.89-1.82,5.89-4.65s-2.39-4.64-5.89-4.64h-7Z"/><path d="M212.88,104.87H198.22l-2.1,5.18h-7.91l13.41-32.91h7.91l13.41,32.91H215Zm-2.44-6-4.89-12-4.88,12Z"/><path d="M232.19,83.51H221.94V77.14h27.59v6.37H239.28v26.54h-7.09Z"/><path d="M261.36,83.51v6.56h16.53v6.37H261.36v7.24h18.25v6.37H254.27V77.14h25.34v6.37Z"/><path d="M385.66,44.11h38.42c18.89,0,33,12.08,33,29.3s-14.13,29.3-33,29.3H401.72v29.68H385.66Zm36.62,43.82c10.92,0,18.5-5.52,18.5-14.52s-7.58-14.52-18.5-14.52H401.72v29Z"/><path d="M528.66,132.39l-20.81-29.68H490.76v29.68H474.7V44.11h38.42c18.88,0,33,12.08,33,29.3,0,13.37-8.61,23.64-21.33,27.63l22.1,31.35Zm-37.9-44.46h20.56c10.92,0,18.5-5.52,18.5-14.52s-7.58-14.52-18.5-14.52H490.76Z"/><path d="M570.42,44.11h15.93v88.28H570.42Z"/><path d="M618,44.11h31.1c29.16,0,49.72,18.25,49.72,44.08s-20.56,44.2-49.72,44.2H618Zm32.77,73.76c18.63,0,31.74-12.34,31.74-29.68s-13.11-29.56-31.74-29.56H634.07v59.24Z"/><path d="M732.7,58.76V80.09h45.62V94.74H732.7v23h50.37v14.65H716.64V44.11h66.43V58.76Z"/><path d="M49.23,200.26H65.17l29.17,53.85,29.05-53.85h16.06v88.29H123.39v-59l-29,53.85L65.17,229.56v59H49.23Z"/><path d="M181.22,283.86a47.19,47.19,0,0,1-17-16.77,44.15,44.15,0,0,1,0-45.43,47.34,47.34,0,0,1,17-16.71,45.56,45.56,0,0,1,46,0,47.75,47.75,0,0,1,17,16.71,43.7,43.7,0,0,1,0,45.43,47.67,47.67,0,0,1-17,16.77,45.56,45.56,0,0,1-46,0Zm37.91-12.66a31.36,31.36,0,0,0,15-26.86,30.67,30.67,0,0,0-4-15.36,31.12,31.12,0,0,0-11-11.37,28.14,28.14,0,0,0-14.91-4.24,27.7,27.7,0,0,0-14.84,4.24,31.84,31.84,0,0,0-11,11.37,31,31,0,0,0,0,30.85,31.85,31.85,0,0,0,11,11.37,27.7,27.7,0,0,0,14.84,4.24A28.05,28.05,0,0,0,219.13,271.2Z"/><path d="M269.25,200.26h15.94l46.65,62.07V200.26h15.93v88.29H331.84l-46.65-62.07v62.07H269.25Z"/><path d="M392,214.91H363.71V200.26h72.48v14.65H408.05v73.64H392Z"/><path d="M528.33,200.26v88.29H512.27V250.9H468.19v37.65H452.25V200.26h15.94v36h44.08v-36Z"/><polygon points="156.28 171.67 81.92 171.67 96.92 156.67 171.28 156.67 156.28 171.67" fill="#ff7900"/><polygon points="230.78 171.67 156.41 171.67 171.41 156.67 245.78 156.67 230.78 171.67" fill="#ffce00"/><polygon points="230.73 329.25 156.36 329.25 171.36 314.25 245.73 314.25 230.73 329.25" fill="#ffce00"/><polygon points="305.2 329.25 230.83 329.25 245.83 314.25 320.2 314.25 305.2 329.25" fill="#0eaf1a"/><polygon points="379.48 329.25 305.11 329.25 320.11 314.25 394.48 314.25 379.48 329.25" fill="#001bba"/><polygon points="156.28 329.25 81.92 329.25 96.92 314.25 171.28 314.25 156.28 329.25" fill="#ff7900"/><polygon points="349.84 171.67 305.06 171.67 320.06 156.67 334.84 156.67 334.84 0.1 394.53 0.1 379.53 15.1 349.84 15.1 349.84 171.67" fill="#001bba"/><polygon points="453.94 15.1 379.57 15.1 394.57 0.1 468.94 0.1 453.94 15.1" fill="#81008c"/><polygon points="453.94 329.25 379.57 329.25 394.57 314.25 468.94 314.25 453.94 329.25" fill="#81008c"/><polygon points="528.27 329.25 453.9 329.25 468.9 314.25 543.27 314.25 528.27 329.25" fill="#010101"/><polygon points="528.36 15.1 453.99 15.1 468.99 0.1 543.36 0.1 528.36 15.1" fill="#010101"/><polygon points="677.42 15.1 603.05 15.1 618.05 0.1 692.42 0.1 677.42 15.1" fill="#3ac9d8"/><polygon points="677.22 172.67 602.85 172.67 617.85 157.67 692.22 157.67 677.22 172.67" fill="#3ac9d8"/><polygon points="751.79 15.1 677.42 15.1 692.42 0.1 766.79 0.1 751.79 15.1" fill="#fc92b9"/><polygon points="751.59 172.77 677.22 172.77 692.22 157.77 766.59 157.77 751.59 172.77" fill="#fc92b9"/><polygon points="833.51 172.57 751.66 172.57 766.66 157.57 818.53 157.57 818.71 15 751.86 15 766.86 0 833.73 0 833.51 172.57" fill="#d9d9db"/><polygon points="602.73 15.1 528.36 15.1 543.36 0.1 617.73 0.1 602.73 15.1" fill="#663607"/><polygon points="582.37 329.25 528.27 329.25 543.27 314.25 567.37 314.25 567.37 157.67 617.82 157.67 602.82 172.67 582.37 172.67 582.37 329.25" fill="#663607"/><polygon points="81.87 329.25 0 329.25 0 156.67 96.87 156.67 81.87 171.67 15 171.67 15 314.25 96.87 314.25 81.87 329.25" fill="#d00"/><polygon points="305.25 171.67 230.89 171.67 245.89 156.67 320.25 156.67 305.25 171.67" fill="#0eaf1a"/></g></g></svg>