<svg xmlns="http://www.w3.org/2000/svg" viewBox="0 0 296.22 31.58">
  <g>
    <g>
      <path fill="#FFFFFF" d="M81.05,4.07h6a10.68,10.68,0,0,1,5,1.14,8.55,8.55,0,0,1,3.43,3.17A8.65,8.65,0,0,1,96.75,13a8.68,8.68,0,0,1-1.24,4.61,8.52,8.52,0,0,1-3.43,3.19,10.68,10.68,0,0,1-5,1.14h-6Zm6,16A8.32,8.32,0,0,0,91,19.17a6.7,6.7,0,0,0,2.7-2.52,6.91,6.91,0,0,0,1-3.66A6.76,6.76,0,0,0,91,6.82a8.44,8.44,0,0,0-3.94-.91h-4V20.08Z" transform="translate(0 -3.76)"/>
      <path fill="#FFFFFF" d="M108.54,20a4.71,4.71,0,0,0,1.83-1.14l1.2,1.27a5.93,5.93,0,0,1-2.4,1.51,8.74,8.74,0,0,1-3,.57,6.51,6.51,0,0,1-3.35-.91,6.85,6.85,0,0,1-2.51-2.53,7.1,7.1,0,0,1-1-3.63,7.16,7.16,0,0,1,.9-3.56,6.45,6.45,0,0,1,2.42-2.52A6.27,6.27,0,0,1,106,8.18a5.66,5.66,0,0,1,4.69,2.1A8.86,8.86,0,0,1,112.35,16h-11a5.18,5.18,0,0,0,1.52,3.28,4.52,4.52,0,0,0,3.27,1.27A6.65,6.65,0,0,0,108.54,20Zm-5.6-8.93a4.93,4.93,0,0,0-1.56,3.11h9.05a5.25,5.25,0,0,0-1.33-3.11,4,4,0,0,0-3-1.18A4.44,4.44,0,0,0,102.94,11.1Z" transform="translate(0 -3.76)"/>
      <path fill="#FFFFFF" d="M113.62,8.49h2.19l4.47,11.15,4.39-11.15h2.19l-5.65,13.44h-1.87Z" transform="translate(0 -3.76)"/>
      <path fill="#FFFFFF" d="M137.45,20a4.84,4.84,0,0,0,1.84-1.14l1.19,1.27a5.93,5.93,0,0,1-2.4,1.51,8.74,8.74,0,0,1-3,.57,6.51,6.51,0,0,1-3.35-.91,6.85,6.85,0,0,1-2.51-2.53,7.1,7.1,0,0,1-1-3.63,7.16,7.16,0,0,1,.9-3.56,6.52,6.52,0,0,1,2.42-2.52,6.3,6.3,0,0,1,3.31-.91,5.65,5.65,0,0,1,4.69,2.1A8.86,8.86,0,0,1,141.26,16h-11a5.18,5.18,0,0,0,1.52,3.28,4.52,4.52,0,0,0,3.27,1.27A6.65,6.65,0,0,0,137.45,20Zm-5.6-8.93a4.93,4.93,0,0,0-1.56,3.11h9.05A5.19,5.19,0,0,0,138,11.1a4,4,0,0,0-3-1.18A4.48,4.48,0,0,0,131.85,11.1Z" transform="translate(0 -3.76)"/>
      <path fill="#FFFFFF" d="M144.54,3.76h2V21.93h-2Z" transform="translate(0 -3.76)"/>
      <path fill="#FFFFFF" d="M153.31,21.29a7,7,0,0,1-2.53-2.57,6.88,6.88,0,0,1-.94-3.52,6.79,6.79,0,0,1,.94-3.51,7,7,0,0,1,2.53-2.56,6.64,6.64,0,0,1,3.47-1,6.55,6.55,0,0,1,3.46,1,7,7,0,0,1,2.52,2.56,6.79,6.79,0,0,1,.94,3.51,6.88,6.88,0,0,1-.94,3.52,7,7,0,0,1-2.52,2.57,6.55,6.55,0,0,1-3.46.95A6.64,6.64,0,0,1,153.31,21.29Zm5.92-1.5A5.29,5.29,0,0,0,161,17.85a5.51,5.51,0,0,0,.66-2.65,5.39,5.39,0,0,0-.66-2.64,5.25,5.25,0,0,0-1.78-1.93,4.58,4.58,0,0,0-4.9,0,5.14,5.14,0,0,0-1.8,1.93,5.39,5.39,0,0,0-.66,2.64,5.51,5.51,0,0,0,.66,2.65,5.17,5.17,0,0,0,1.8,1.94,4.58,4.58,0,0,0,4.9,0Z" transform="translate(0 -3.76)"/>
      <path fill="#FFFFFF" d="M177.05,9.07a6.14,6.14,0,0,1,2.22,2.5,7.91,7.91,0,0,1,.81,3.63,8,8,0,0,1-.81,3.64,6.17,6.17,0,0,1-2.22,2.51,5.84,5.84,0,0,1-3.16.89A5.46,5.46,0,0,1,171,21.5a5.61,5.61,0,0,1-2-2.09v7h-1.95V8.49H169V11a5.61,5.61,0,0,1,2-2.09,5.46,5.46,0,0,1,2.85-.74A5.84,5.84,0,0,1,177.05,9.07Zm-1.2,10.75a4.41,4.41,0,0,0,1.6-1.88A6.37,6.37,0,0,0,178,15.2a6.23,6.23,0,0,0-.58-2.73,4.53,4.53,0,0,0-1.6-1.88,4.12,4.12,0,0,0-2.32-.67,4.19,4.19,0,0,0-2.34.67,4.49,4.49,0,0,0-1.61,1.88A6.09,6.09,0,0,0,169,15.2a6.22,6.22,0,0,0,.58,2.74,4.37,4.37,0,0,0,1.61,1.88,4.11,4.11,0,0,0,2.34.68A4.05,4.05,0,0,0,175.85,19.82Z" transform="translate(0 -3.76)"/>
      <path fill="#FFFFFF" d="M191.64,20a4.87,4.87,0,0,0,1.83-1.14l1.2,1.27a6,6,0,0,1-2.41,1.51,8.64,8.64,0,0,1-3,.57,6.52,6.52,0,0,1-3.36-.91,6.92,6.92,0,0,1-2.51-2.53,7.1,7.1,0,0,1-.95-3.63,7.16,7.16,0,0,1,.9-3.56,6.59,6.59,0,0,1,2.42-2.52,6.31,6.31,0,0,1,3.32-.91,5.68,5.68,0,0,1,4.69,2.1A8.86,8.86,0,0,1,195.44,16h-11A5.08,5.08,0,0,0,186,19.23a4.48,4.48,0,0,0,3.26,1.27A6.7,6.7,0,0,0,191.64,20ZM186,11.1a5,5,0,0,0-1.56,3.11h9.05a5.19,5.19,0,0,0-1.33-3.11,4,4,0,0,0-3-1.18A4.48,4.48,0,0,0,186,11.1Z" transform="translate(0 -3.76)"/>
      <path fill="#FFFFFF" d="M202.65,9a6.3,6.3,0,0,1,3.22-.79V9.92a6.11,6.11,0,0,0-2.69.57,4.52,4.52,0,0,0-1.85,1.6,4.2,4.2,0,0,0-.66,2.33v7.51h-1.95V8.49h1.95v2.62A4.59,4.59,0,0,1,202.65,9Z" transform="translate(0 -3.76)"/>
      <path fill="#FFFFFF" d="M220,21a9.36,9.36,0,0,1-3.37-3.39,9.07,9.07,0,0,1,0-9.19A9.41,9.41,0,0,1,220,5a8.7,8.7,0,0,1,4.53-1.26,8.85,8.85,0,0,1,3.49.71,9.1,9.1,0,0,1,2.93,2l-1.37,1.4a7.17,7.17,0,0,0-2.31-1.66,6.47,6.47,0,0,0-2.74-.6,6.56,6.56,0,0,0-3.52,1,7.57,7.57,0,0,0-2.6,2.7,7.28,7.28,0,0,0-1,3.66,7.2,7.2,0,0,0,1,3.66,7.68,7.68,0,0,0,2.6,2.71,6.57,6.57,0,0,0,3.52,1,6.47,6.47,0,0,0,2.74-.6,7.17,7.17,0,0,0,2.31-1.66l1.37,1.4a9.36,9.36,0,0,1-2.93,2,8.53,8.53,0,0,1-3.49.73A8.7,8.7,0,0,1,220,21Z" transform="translate(0 -3.76)"/>
      <path fill="#FFFFFF" d="M242.23,20a4.71,4.71,0,0,0,1.83-1.14l1.2,1.27a5.9,5.9,0,0,1-2.41,1.51,8.64,8.64,0,0,1-3,.57,6.51,6.51,0,0,1-3.35-.91A6.85,6.85,0,0,1,234,18.8a7.1,7.1,0,0,1-1-3.63,7.16,7.16,0,0,1,.9-3.56,6.5,6.5,0,0,1,2.41-2.52,6.33,6.33,0,0,1,3.32-.91,5.66,5.66,0,0,1,4.69,2.1A8.86,8.86,0,0,1,246,16H235a5.18,5.18,0,0,0,1.52,3.28,4.52,4.52,0,0,0,3.27,1.27A6.69,6.69,0,0,0,242.23,20Zm-5.6-8.93a4.93,4.93,0,0,0-1.56,3.11h9.05a5.25,5.25,0,0,0-1.33-3.11,4,4,0,0,0-3-1.18A4.44,4.44,0,0,0,236.63,11.1Z" transform="translate(0 -3.76)"/>
      <path fill="#FFFFFF" d="M258.31,8.83a4.48,4.48,0,0,1,1.78,1.83,5.58,5.58,0,0,1,.64,2.72v8.55h-2V13.64a3.8,3.8,0,0,0-.94-2.69,3.1,3.1,0,0,0-2.41-1,4.57,4.57,0,0,0-2.08.47,3.8,3.8,0,0,0-1.52,1.26,2.88,2.88,0,0,0-.56,1.73v8.55h-2V8.49h2v2.13a4.42,4.42,0,0,1,1.79-1.77,5.25,5.25,0,0,1,2.63-.67A5.15,5.15,0,0,1,258.31,8.83Z" transform="translate(0 -3.76)"/>
      <path fill="#FFFFFF" d="M271.1,21.38a3.87,3.87,0,0,1-2.49.86,3.14,3.14,0,0,1-2.36-1,3.43,3.43,0,0,1-.92-2.47V10.23h-2.1V8.49h2.1V4.8h1.95V8.49h3.3v1.74h-3.3v8.58a1.72,1.72,0,0,0,.43,1.21,1.34,1.34,0,0,0,1,.48,1.91,1.91,0,0,0,.8-.16,1.64,1.64,0,0,0,.6-.39Z" transform="translate(0 -3.76)"/>
      <path fill="#FFFFFF" d="M282,20a4.84,4.84,0,0,0,1.84-1.14L285,20.16a5.93,5.93,0,0,1-2.4,1.51,8.64,8.64,0,0,1-3,.57,6.52,6.52,0,0,1-3.36-.91,6.85,6.85,0,0,1-2.51-2.53,7.1,7.1,0,0,1-.95-3.63,7.16,7.16,0,0,1,.9-3.56,6.52,6.52,0,0,1,2.42-2.52,6.3,6.3,0,0,1,3.31-.91,5.68,5.68,0,0,1,4.7,2.1A8.92,8.92,0,0,1,285.79,16h-11a5.08,5.08,0,0,0,1.52,3.28,4.48,4.48,0,0,0,3.26,1.27A6.61,6.61,0,0,0,282,20Zm-5.6-8.93a4.93,4.93,0,0,0-1.56,3.11h9.05a5.19,5.19,0,0,0-1.33-3.11,4,4,0,0,0-3-1.18A4.48,4.48,0,0,0,276.38,11.1Z" transform="translate(0 -3.76)"/>
      <path fill="#FFFFFF" d="M293,9a6.3,6.3,0,0,1,3.22-.79V9.92a6.11,6.11,0,0,0-2.69.57,4.46,4.46,0,0,0-1.85,1.6,4.2,4.2,0,0,0-.66,2.33v7.51h-1.95V8.49H291v2.62A4.59,4.59,0,0,1,293,9Z" transform="translate(0 -3.76)"/>
    </g>
    <g>
      <g>
        <path fill="#FFFFFF" d="M16.1,29.7a2,2,0,0,1,.71.83,2.47,2.47,0,0,1,.27,1.13,2.56,2.56,0,0,1-.27,1.15,2.08,2.08,0,0,1-.71.82,1.64,1.64,0,0,1-1,.3,1.83,1.83,0,0,1-1.67-1v.88H13V28h.41v2.39a1.88,1.88,0,0,1,.69-.71,2,2,0,0,1,1-.26A1.79,1.79,0,0,1,16.1,29.7Zm-.24,3.6a1.76,1.76,0,0,0,.58-.69,2.14,2.14,0,0,0,0-1.89,1.73,1.73,0,0,0-.58-.68,1.49,1.49,0,0,0-1.64,0,1.59,1.59,0,0,0-.57.66,2.21,2.21,0,0,0-.2,1,2.17,2.17,0,0,0,.2,1,1.68,1.68,0,0,0,.57.67,1.41,1.41,0,0,0,.82.24A1.49,1.49,0,0,0,15.86,33.3Z" transform="translate(0 -3.76)"/>
        <path fill="#FFFFFF" d="M17.54,35.2l.11-.39a1.3,1.3,0,0,0,.57.14.83.83,0,0,0,.78-.4l.26-.59L17.35,29.5h.45l1.68,4,1.6-4h.44l-2,4.92a1.58,1.58,0,0,1-.51.69,1.34,1.34,0,0,1-.77.23A1.64,1.64,0,0,1,17.54,35.2Z" transform="translate(0 -3.76)"/>
        <path fill="#FFFFFF" d="M24.84,28.08h2.82a2,2,0,0,1,.88.18,1.4,1.4,0,0,1,.82,1.26,1.36,1.36,0,0,1-.82,1.27,2,2,0,0,1,.78.63,1.42,1.42,0,0,1,.28.85,1.55,1.55,0,0,1-.23.81,1.71,1.71,0,0,1-.66.56,2.21,2.21,0,0,1-.95.19H24.84Zm2.56,2.35a1,1,0,0,0,.63-.2.67.67,0,0,0,0-1A1,1,0,0,0,27.4,29H25.88v1.45Zm.16,2.5a1,1,0,0,0,.69-.23.78.78,0,0,0,.09-1.1l-.09-.08a1,1,0,0,0-.69-.23H25.88v1.64Z" transform="translate(0 -3.76)"/>
        <path fill="#FFFFFF" d="M32.36,29.65a1.78,1.78,0,0,1,.93-.25v.87a1.63,1.63,0,0,0-1.12.38,1.27,1.27,0,0,0-.43,1v2.18h-1V29.5h1v.82A1.6,1.6,0,0,1,32.36,29.65Z" transform="translate(0 -3.76)"/>
        <path fill="#FFFFFF" d="M34.86,33.63A2.23,2.23,0,0,1,34,32.8a2.2,2.2,0,0,1,0-2.27,2.34,2.34,0,0,1,3.21-.8,2.45,2.45,0,0,1,.8.8,2.25,2.25,0,0,1,0,2.27,2.37,2.37,0,0,1-3.17.83Zm1.82-.75a1.41,1.41,0,0,0,.48-.52,1.42,1.42,0,0,0-.47-1.9,1.26,1.26,0,0,0-1.32,0,1.43,1.43,0,0,0-.44,2,1.54,1.54,0,0,0,.44.44,1.26,1.26,0,0,0,.66.18,1.22,1.22,0,0,0,.65-.18Z" transform="translate(0 -3.76)"/>
        <path fill="#FFFFFF" d="M42.37,29.9a1.8,1.8,0,0,1,.5,1.33v2.6h-1v-.51a1.56,1.56,0,0,1-.6.45,1.78,1.78,0,0,1-.75.16,1.82,1.82,0,0,1-.83-.17,1.35,1.35,0,0,1-.57-.49,1.22,1.22,0,0,1-.21-.72,1.26,1.26,0,0,1,.23-.75,1.67,1.67,0,0,1,.64-.51,2.09,2.09,0,0,1,.89-.18,3.5,3.5,0,0,1,1.2.23v-.11a1,1,0,0,0-.25-.71,1.06,1.06,0,0,0-.8-.28,2.68,2.68,0,0,0-1.18.33l-.35-.71A4,4,0,0,1,41,29.4,1.83,1.83,0,0,1,42.37,29.9ZM41.47,33a.76.76,0,0,0,.4-.52V32a3.39,3.39,0,0,0-1-.16,1,1,0,0,0-.66.2.58.58,0,0,0-.27.5.55.55,0,0,0,.24.48,1,1,0,0,0,.61.19,1.56,1.56,0,0,0,.73-.19Z" transform="translate(0 -3.76)"/>
        <path fill="#FFFFFF" d="M48.29,28v5.85h-1v-.68a1.79,1.79,0,0,1-.64.58,1.73,1.73,0,0,1-.86.2,1.88,1.88,0,0,1-1-.28,2.06,2.06,0,0,1-.71-.81,2.66,2.66,0,0,1-.25-1.18A2.58,2.58,0,0,1,44,30.5a2,2,0,0,1,.71-.8,1.81,1.81,0,0,1,1-.29,1.73,1.73,0,0,1,.86.2,1.7,1.7,0,0,1,.64.58V28Zm-1.37,4.69a1.66,1.66,0,0,0,0-2,1.15,1.15,0,0,0-.88-.39,1.19,1.19,0,0,0-.9.39,1.62,1.62,0,0,0,0,2,1.15,1.15,0,0,0,.9.39,1.1,1.1,0,0,0,.88-.39Z" transform="translate(0 -3.76)"/>
        <path fill="#FFFFFF" d="M50.4,33.62a2.26,2.26,0,0,1-.85-.83,2.14,2.14,0,0,1,0-2.25,2.41,2.41,0,0,1,.85-.83,2.34,2.34,0,0,1,1.16-.31,2.14,2.14,0,0,1,.9.19,2.26,2.26,0,0,1,.74.52l-.69.6a1.33,1.33,0,0,0-1-.44,1.23,1.23,0,0,0-.65.19,1.38,1.38,0,0,0-.48.51,1.43,1.43,0,0,0,0,1.39,1.41,1.41,0,0,0,.48.52,1.22,1.22,0,0,0,.65.18,1.25,1.25,0,0,0,.54-.12,1.45,1.45,0,0,0,.45-.33l.69.6a2.53,2.53,0,0,1-.76.53,2.08,2.08,0,0,1-.92.19A2.12,2.12,0,0,1,50.4,33.62Z" transform="translate(0 -3.76)"/>
        <path fill="#FFFFFF" d="M54.76,33.63a2.33,2.33,0,0,1-.85-.83,2.2,2.2,0,0,1,0-2.27,2.37,2.37,0,0,1,2-1.13,2.33,2.33,0,0,1,2,1.13,2.25,2.25,0,0,1,0,2.27,2.35,2.35,0,0,1-3.17.83Zm1.82-.75a1.41,1.41,0,0,0,.48-.52,1.43,1.43,0,0,0,0-1.39,1.3,1.3,0,0,0-.48-.51,1.26,1.26,0,0,0-1.32,0,1.44,1.44,0,0,0-.43,2,1.63,1.63,0,0,0,.43.44A1.26,1.26,0,0,0,56.58,32.88Z" transform="translate(0 -3.76)"/>
        <path fill="#FFFFFF" d="M65,29.62a1.54,1.54,0,0,1,.57.59,1.77,1.77,0,0,1,.2.87v2.75h-1V31.25a1,1,0,0,0-.23-.7.78.78,0,0,0-.6-.28,1,1,0,0,0-.69.26.84.84,0,0,0-.27.65v2.65H62V31.25a1,1,0,0,0-.24-.7.78.78,0,0,0-.6-.28,1,1,0,0,0-.68.26.84.84,0,0,0-.27.65v2.66h-1V29.5h1v.59a1.18,1.18,0,0,1,.49-.5,1.39,1.39,0,0,1,.72-.19,1.52,1.52,0,0,1,.9.28,1.5,1.5,0,0,1,.56.75,1.23,1.23,0,0,1,.45-.75,1.35,1.35,0,0,1,.87-.28A1.57,1.57,0,0,1,65,29.62Z" transform="translate(0 -3.76)"/>
      </g>
      <path fill="#FFFFFF" d="M6,5.9H0V4H14V5.9H8V21.78H6ZM23.22,9.59a5.66,5.66,0,0,1,1.38,4v8.16H22.66V19.69a4.66,4.66,0,0,1-2,1.77,6.2,6.2,0,0,1-2.71.64,5.28,5.28,0,0,1-3.52-1.17A3.88,3.88,0,0,1,13,17.82a3.93,3.93,0,0,1,.72-2.32,4.68,4.68,0,0,1,1.92-1.58,6.16,6.16,0,0,1,2.63-.56,13.72,13.72,0,0,1,4.35.76v-.5a4.56,4.56,0,0,0-.83-2.76A3.22,3.22,0,0,0,19,9.73a5.6,5.6,0,0,0-1.86.32,15.67,15.67,0,0,0-2.06.9l-.77-1.58a10.8,10.8,0,0,1,4.82-1.29A5.24,5.24,0,0,1,23.22,9.59ZM21,19.65a3.39,3.39,0,0,0,1.65-2.06V15.54A15,15,0,0,0,18.62,15a4.23,4.23,0,0,0-2.6.77,2.34,2.34,0,0,0-1.08,2,2.28,2.28,0,0,0,1,1.93,4,4,0,0,0,2.4.72A5.23,5.23,0,0,0,21,19.65ZM37.2,8.73A4.42,4.42,0,0,1,39,10.56a5.67,5.67,0,0,1,.64,2.71v8.52H37.67V13.52a3.86,3.86,0,0,0-.94-2.68,3.11,3.11,0,0,0-2.41-1,4.68,4.68,0,0,0-2.08.46,3.78,3.78,0,0,0-1.51,1.26,3,3,0,0,0-.56,1.73v8.52H28.23V8.39h1.94v2.13A4.55,4.55,0,0,1,32,8.75,5.5,5.5,0,0,1,37.2,8.73Zm4.54,11.53,7.91-10H41.89V8.38H52.27V9.92L44.34,20h8v1.83H41.74ZM65.81,8.39V21.78H63.87V19.67a4.59,4.59,0,0,1-1.79,1.76,5.53,5.53,0,0,1-5.24,0,4.49,4.49,0,0,1-1.77-1.82,5.58,5.58,0,0,1-.64-2.71V8.41h2v8.27a3.89,3.89,0,0,0,.92,2.68,3.17,3.17,0,0,0,2.42,1,4.68,4.68,0,0,0,2.08-.46,3.85,3.85,0,0,0,1.51-1.26,2.93,2.93,0,0,0,.56-1.73V8.42h1.94Zm2.36-.21h0a1.8,1.8,0,0,1,3.6,0h0a1.8,1.8,0,1,1-3.6,0Zm3.4,0h0A1.6,1.6,0,0,0,68.37,8v.2h0a1.6,1.6,0,1,0,3.2.2Zm-2.35-1h.88c.44,0,.76.2.76.62a.57.57,0,0,1-.42.58l.48.68h-.54L70,8.49h-.29v.59h-.46Zm.85.91c.21,0,.32-.1.32-.26s-.12-.26-.32-.26h-.39v.52Z" transform="translate(0 -3.76)"/>
    </g>
  </g>
</svg>