<svg xmlns="http://www.w3.org/2000/svg" viewBox="0 0 332.86 38.49">
  <g>
    <g>
      <path class='st st0' d="M30,19.76l-7.25,9.08-.59-1.24,6.48-8.13ZM8.26,27.6,1.77,19.45l-1.34.31,7.25,9.08Z"/>
      <path class='st st1' d="M0,17.88,2.58,6.57l1.07.87L1.34,17.57Zm30.45,0L27.87,6.57l-1.09.85,2.33,10.15Z"/>
      <path class='st st2' d="M21,29.68H9.41l.6-1.23H20.44ZM26.66,5.05,16.19,0V1.38l9.4,4.51ZM14.26,1.38,4.86,5.89,3.79,5.05,14.26,0Z"/>
      <path class='st st3' d="M20.37,26.08H10.05L3.63,18,5.91,8l9.31-4.49L24.53,8,26.82,18Zm-9.72-1.24h9.13l5.7-7.12-2-8.9-8.22-4L7,8.8,5,17.72Z"/>
    </g>
    <g>
      <g>
        <path fill="#FFFFFF" d="M117.69,7.22h6a10.57,10.57,0,0,1,5,1.14,8.45,8.45,0,0,1,3.43,3.17,8.65,8.65,0,0,1,1.27,4.62,8.57,8.57,0,0,1-4.67,7.8,10.69,10.69,0,0,1-5,1.14h-6Zm6,16a8.33,8.33,0,0,0,4-.9,6.69,6.69,0,0,0,2.7-2.52,6.86,6.86,0,0,0,1-3.66,6.73,6.73,0,0,0-3.7-6.17,8.42,8.42,0,0,0-3.94-.91h-4V23.23Z"/>
        <path fill="#FFFFFF" d="M145.18,23.15A4.84,4.84,0,0,0,147,22l1.2,1.27a6,6,0,0,1-2.4,1.51,9,9,0,0,1-3,.57,6.59,6.59,0,0,1-3.35-.91A6.92,6.92,0,0,1,137,21.92a7.28,7.28,0,0,1-.1-7.19,6.44,6.44,0,0,1,2.42-2.52,6.25,6.25,0,0,1,3.37-.88,5.67,5.67,0,0,1,4.69,2.1A8.77,8.77,0,0,1,149,19.15H138a5.23,5.23,0,0,0,1.52,3.28,4.58,4.58,0,0,0,3.27,1.27A6.83,6.83,0,0,0,145.18,23.15Zm-5.6-8.93A4.93,4.93,0,0,0,138,17.33h9a5.21,5.21,0,0,0-1.33-3.11,4,4,0,0,0-3-1.18,4.41,4.41,0,0,0-3.16,1.21Z"/>
        <path fill="#FFFFFF" d="M150.26,11.64h2.19l4.47,11.15,4.39-11.15h2.19l-5.65,13.44H156Z"/>
        <path fill="#FFFFFF" d="M174.09,23.15A5,5,0,0,0,175.93,22l1.19,1.27a6,6,0,0,1-2.4,1.51,9,9,0,0,1-3,.57,6.59,6.59,0,0,1-3.35-.91,6.92,6.92,0,0,1-2.51-2.53,7.28,7.28,0,0,1-.1-7.19,6.44,6.44,0,0,1,2.42-2.52,6.26,6.26,0,0,1,3.31-.91,5.6,5.6,0,0,1,4.69,2.1,8.83,8.83,0,0,1,1.72,5.75h-11a5.23,5.23,0,0,0,1.52,3.28,4.58,4.58,0,0,0,3.27,1.27A6.83,6.83,0,0,0,174.09,23.15Zm-5.6-8.93a4.93,4.93,0,0,0-1.56,3.11h9a5.14,5.14,0,0,0-1.34-3.08,4,4,0,0,0-3-1.18,4.48,4.48,0,0,0-3.15,1.18Z"/>
        <path fill="#FFFFFF" d="M181.18,6.91h2V25.08h-2Z"/>
        <path fill="#FFFFFF" d="M190,24.44a7.08,7.08,0,0,1-2.53-2.57,6.93,6.93,0,0,1-.94-3.52,6.84,6.84,0,0,1,.94-3.51A7,7,0,0,1,190,12.28a6.5,6.5,0,0,1,6.93,0,7,7,0,0,1,2.52,2.56,6.75,6.75,0,0,1,.94,3.51,6.83,6.83,0,0,1-.94,3.52,7.06,7.06,0,0,1-2.52,2.57,6.58,6.58,0,0,1-3.46.95A6.73,6.73,0,0,1,190,24.44Zm5.92-1.5A5.32,5.32,0,0,0,197.64,21a5.48,5.48,0,0,0,.66-2.65,5.39,5.39,0,0,0-.66-2.64,5.16,5.16,0,0,0-1.78-1.93,4.57,4.57,0,0,0-4.9,0,5.06,5.06,0,0,0-1.8,1.93,5.39,5.39,0,0,0-.66,2.64,5.6,5.6,0,0,0,.66,2.65,5.16,5.16,0,0,0,1.8,1.94,4.61,4.61,0,0,0,4.9,0Z"/>
        <path fill="#FFFFFF" d="M213.69,12.22a6,6,0,0,1,2.22,2.5,7.84,7.84,0,0,1,.81,3.63,8.07,8.07,0,0,1-.81,3.64,6.18,6.18,0,0,1-2.22,2.51,5.85,5.85,0,0,1-3.16.89,5.35,5.35,0,0,1-4.89-2.83v7h-1.95V11.64h1.95v2.51a5.57,5.57,0,0,1,2-2.09,5.4,5.4,0,0,1,2.85-.74A5.77,5.77,0,0,1,213.69,12.22ZM212.49,23a4.48,4.48,0,0,0,1.6-1.88,6.34,6.34,0,0,0,.55-2.74,6.1,6.1,0,0,0-.58-2.73,4.43,4.43,0,0,0-1.6-1.88,4.08,4.08,0,0,0-2.32-.67,4.14,4.14,0,0,0-2.34.67,4.46,4.46,0,0,0-1.61,1.88,6.1,6.1,0,0,0-.55,2.73,6.2,6.2,0,0,0,.58,2.74A4.52,4.52,0,0,0,207.83,23a4.23,4.23,0,0,0,2.34.68A4.12,4.12,0,0,0,212.49,23Z"/>
        <path fill="#FFFFFF" d="M228.28,23.15A4.92,4.92,0,0,0,230.11,22l1.2,1.27a6.08,6.08,0,0,1-2.41,1.51,8.78,8.78,0,0,1-3,.57,6.62,6.62,0,0,1-3.36-.91A7,7,0,0,1,220,21.92a7.45,7.45,0,0,1-.05-7.19,6.51,6.51,0,0,1,2.42-2.52,6.26,6.26,0,0,1,3.32-.91,5.67,5.67,0,0,1,4.69,2.1,8.81,8.81,0,0,1,1.67,5.75h-11a5.13,5.13,0,0,0,1.56,3.23,4.54,4.54,0,0,0,3.26,1.27A6.67,6.67,0,0,0,228.28,23.15Zm-5.64-8.9a5,5,0,0,0-1.56,3.11h9a5.15,5.15,0,0,0-1.33-3.11,4,4,0,0,0-3-1.18A4.45,4.45,0,0,0,222.64,14.25Z"/>
        <path fill="#FFFFFF" d="M239.29,12.15a6.28,6.28,0,0,1,3.22-.79v1.71a6,6,0,0,0-2.69.57,4.47,4.47,0,0,0-1.85,1.6,4.24,4.24,0,0,0-.66,2.33v7.51h-1.95V11.64h1.95v2.62A4.6,4.6,0,0,1,239.29,12.15Z"/>
        <path fill="#FFFFFF" d="M256.64,24.15a9.36,9.36,0,0,1-3.37-3.39,9.05,9.05,0,0,1,0-9.19,9.37,9.37,0,0,1,3.37-3.42,8.63,8.63,0,0,1,4.53-1.26,9,9,0,0,1,6.42,2.71L266.22,11a7,7,0,0,0-2.31-1.66,6.33,6.33,0,0,0-2.74-.6,6.56,6.56,0,0,0-3.52,1,7.48,7.48,0,0,0-2.6,2.7,7.34,7.34,0,0,0-1,3.66,7.27,7.27,0,0,0,1,3.66,7.75,7.75,0,0,0,2.6,2.71,6.63,6.63,0,0,0,6.26.4,7.32,7.32,0,0,0,2.31-1.66l1.37,1.4a9.53,9.53,0,0,1-2.93,2,9,9,0,0,1-8-.46Z"/>
        <path fill="#FFFFFF" d="M278.87,23.15A4.84,4.84,0,0,0,280.7,22l1.2,1.27a5.91,5.91,0,0,1-2.41,1.51,8.78,8.78,0,0,1-3,.57,6.59,6.59,0,0,1-3.35-.91,6.89,6.89,0,0,1-2.5-2.5,7.28,7.28,0,0,1-.1-7.19A6.42,6.42,0,0,1,273,12.24a6.26,6.26,0,0,1,3.32-.91,5.67,5.67,0,0,1,4.69,2.1,8.79,8.79,0,0,1,1.68,5.72h-11a5.23,5.23,0,0,0,1.52,3.28,4.58,4.58,0,0,0,3.27,1.27A6.83,6.83,0,0,0,278.87,23.15Zm-5.6-8.93a4.93,4.93,0,0,0-1.56,3.11h9.05a5.21,5.21,0,0,0-1.33-3.11,4,4,0,0,0-3-1.18,4.41,4.41,0,0,0-3.16,1.21Z"/>
        <path fill="#FFFFFF" d="M295,12a4.42,4.42,0,0,1,1.78,1.83,5.57,5.57,0,0,1,.64,2.72v8.55h-2V16.79a3.78,3.78,0,0,0-.94-2.69,3.07,3.07,0,0,0-2.41-1,4.56,4.56,0,0,0-2.08.47,3.72,3.72,0,0,0-1.52,1.26,2.88,2.88,0,0,0-.56,1.73v8.55h-2V11.64h2v2.13A4.42,4.42,0,0,1,289.65,12a5.15,5.15,0,0,1,2.63-.67A5.08,5.08,0,0,1,295,12Z"/>
        <path fill="#FFFFFF" d="M307.74,24.53a3.87,3.87,0,0,1-2.49.86,3.19,3.19,0,0,1-2.36-1,3.47,3.47,0,0,1-.92-2.47V13.38h-2.1V11.64H302V8h1.95v3.69h3.3v1.74h-3.3V22a1.75,1.75,0,0,0,.43,1.21,1.37,1.37,0,0,0,1,.48,2,2,0,0,0,.8-.16,1.73,1.73,0,0,0,.6-.39Z"/>
        <path fill="#FFFFFF" d="M318.64,23.15A5,5,0,0,0,320.48,22l1.16,1.3a6,6,0,0,1-2.4,1.51,8.78,8.78,0,0,1-3,.57,6.62,6.62,0,0,1-3.36-.91A6.92,6.92,0,0,1,310.37,22a7.45,7.45,0,0,1-.05-7.19,6.44,6.44,0,0,1,2.42-2.52,6.26,6.26,0,0,1,3.31-.91,5.68,5.68,0,0,1,4.7,2.1,8.91,8.91,0,0,1,1.68,5.72h-11A5.11,5.11,0,0,0,313,22.43a4.54,4.54,0,0,0,3.26,1.27A6.77,6.77,0,0,0,318.64,23.15ZM313,14.22a4.93,4.93,0,0,0-1.56,3.11h9a5.15,5.15,0,0,0-1.33-3.11,4,4,0,0,0-3-1.18A4.46,4.46,0,0,0,313,14.25Z"/>
        <path fill="#FFFFFF" d="M329.64,12.15a6.28,6.28,0,0,1,3.22-.79v1.71a6,6,0,0,0-2.69.57,4.47,4.47,0,0,0-1.85,1.6,4.24,4.24,0,0,0-.66,2.33v7.51h-2V11.64h1.93v2.62A4.5,4.5,0,0,1,329.64,12.15Z"/>
      </g>
      <g>
        <g>
          <path fill="#FFFFFF" d="M52.74,32.85a1.91,1.91,0,0,1,.71.83,2.44,2.44,0,0,1,.27,1.13A2.56,2.56,0,0,1,53.45,36a2.08,2.08,0,0,1-.71.82,1.68,1.68,0,0,1-1,.3,1.85,1.85,0,0,1-1.67-1V37h-.43V31.15h.41v2.39a1.81,1.81,0,0,1,.69-.71,1.87,1.87,0,0,1,1-.26A1.76,1.76,0,0,1,52.74,32.85Zm-.24,3.6a1.84,1.84,0,0,0,.58-.69,2.1,2.1,0,0,0,0-1.89,1.67,1.67,0,0,0-.58-.68,1.48,1.48,0,0,0-1.64,0,1.59,1.59,0,0,0-.57.66,2.27,2.27,0,0,0-.2,1,2.32,2.32,0,0,0,.2,1,1.76,1.76,0,0,0,.57.67,1.48,1.48,0,0,0,.82.24A1.5,1.5,0,0,0,52.5,36.45Z"/>
          <path fill="#FFFFFF" d="M54.18,38.35l.11-.39a1.41,1.41,0,0,0,.57.14.84.84,0,0,0,.78-.4l.26-.59L54,32.65h.45l1.68,4,1.6-4h.44l-2,4.92a1.58,1.58,0,0,1-.51.69,1.39,1.39,0,0,1-.77.23A1.86,1.86,0,0,1,54.18,38.35Z"/>
          <path fill="#FFFFFF" d="M61.48,31.23H64.3a1.91,1.91,0,0,1,.88.18A1.37,1.37,0,0,1,66,32.67a1.35,1.35,0,0,1-.82,1.27,1.92,1.92,0,0,1,.78.63,1.42,1.42,0,0,1,.28.85,1.58,1.58,0,0,1-.23.81,1.71,1.71,0,0,1-.66.56,2.37,2.37,0,0,1-.95.19H61.48ZM64,33.58a1.07,1.07,0,0,0,.63-.2.68.68,0,0,0,.06-1l-.06,0a1,1,0,0,0-.63-.23H62.52V33.6Zm.16,2.5a1,1,0,0,0,.69-.23.78.78,0,0,0,.09-1.1h0l-.09-.08a1,1,0,0,0-.69-.23H62.52v1.64Z"/>
          <path fill="#FFFFFF" d="M69,32.8a1.69,1.69,0,0,1,.93-.25v.87a1.58,1.58,0,0,0-1.12.38,1.3,1.3,0,0,0-.43,1V37h-1V32.65h1v.82A1.55,1.55,0,0,1,69,32.8Z"/>
          <path fill="#FFFFFF" d="M71.5,36.78a2.28,2.28,0,0,1-.86-.83,2.2,2.2,0,0,1,0-2.27,2.34,2.34,0,0,1,4,0,2.25,2.25,0,0,1,0,2.27,2.37,2.37,0,0,1-3.17.83ZM73.32,36a1.45,1.45,0,0,0,0-2.42,1.26,1.26,0,0,0-1.32,0,1.43,1.43,0,0,0-.46,2l0,0a1.84,1.84,0,0,0,.44.44,1.28,1.28,0,0,0,.66.18,1.22,1.22,0,0,0,.65-.18Z"/>
          <path fill="#FFFFFF" d="M79,33.05a1.8,1.8,0,0,1,.5,1.33V37h-1v-.51a1.58,1.58,0,0,1-.6.45,1.9,1.9,0,0,1-.75.16,1.85,1.85,0,0,1-.83-.17,1.43,1.43,0,0,1-.57-.49,1.26,1.26,0,0,1-.21-.72,1.33,1.33,0,0,1,.23-.75,1.67,1.67,0,0,1,.64-.51,2,2,0,0,1,.89-.18,3.28,3.28,0,0,1,1.2.23v-.11a.92.92,0,0,0-1.05-1,2.58,2.58,0,0,0-1.18.33L75.93,33a3.93,3.93,0,0,1,1.71-.46A1.83,1.83,0,0,1,79,33.05Zm-.9,3.1a.78.78,0,0,0,.4-.52v-.48a3.08,3.08,0,0,0-1-.16.94.94,0,0,0-.66.2.57.57,0,0,0-.27.5.55.55,0,0,0,.24.48,1.1,1.1,0,0,0,.61.19,1.65,1.65,0,0,0,.73-.19Z"/>
          <path fill="#FFFFFF" d="M84.93,31.15V37h-1v-.68a1.79,1.79,0,0,1-.64.58,1.81,1.81,0,0,1-.86.2,2,2,0,0,1-1-.28,2.21,2.21,0,0,1-.71-.81,2.69,2.69,0,0,1-.25-1.18,2.61,2.61,0,0,1,.17-1.18,2,2,0,0,1,.71-.8,1.9,1.9,0,0,1,1.86-.09,1.62,1.62,0,0,1,.64.58V31.15Zm-1.37,4.69a1.65,1.65,0,0,0,0-2,1.1,1.1,0,0,0-.88-.39,1.15,1.15,0,0,0-.9.39,1.62,1.62,0,0,0,0,2,1.19,1.19,0,0,0,.9.39A1.13,1.13,0,0,0,83.56,35.84Z"/>
          <path fill="#FFFFFF" d="M87,36.77a2.41,2.41,0,0,1-.85-.83,2.17,2.17,0,0,1,0-2.25,2.33,2.33,0,0,1,.85-.83,2.24,2.24,0,0,1,1.16-.31,2,2,0,0,1,.9.19,2.12,2.12,0,0,1,.74.52l-.69.6a1.28,1.28,0,0,0-1-.44,1.17,1.17,0,0,0-.65.19,1.39,1.39,0,0,0-.48.51,1.43,1.43,0,0,0,0,1.39,1.41,1.41,0,0,0,.48.52,1.27,1.27,0,0,0,1.19.06,1.63,1.63,0,0,0,.45-.33l.69.6a2.53,2.53,0,0,1-.76.53,2.23,2.23,0,0,1-.92.19A2.19,2.19,0,0,1,87,36.77Z"/>
          <path fill="#FFFFFF" d="M91.4,36.78a2.41,2.41,0,0,1-.85-.83,2.2,2.2,0,0,1,0-2.27,2.35,2.35,0,0,1,2-1.13,2.31,2.31,0,0,1,2,1.13,2.25,2.25,0,0,1,0,2.27,2.36,2.36,0,0,1-3.17.83ZM93.22,36a1.41,1.41,0,0,0,.48-.52,1.43,1.43,0,0,0,0-1.39,1.24,1.24,0,0,0-.48-.51,1.26,1.26,0,0,0-1.32,0,1.45,1.45,0,0,0-.44,2h0a1.8,1.8,0,0,0,.43.44A1.28,1.28,0,0,0,93.22,36Z"/>
          <path fill="#FFFFFF" d="M101.64,32.77a1.47,1.47,0,0,1,.57.59,1.72,1.72,0,0,1,.2.87V37h-1V34.4a1,1,0,0,0-.23-.7.78.78,0,0,0-.6-.28,1,1,0,0,0-.69.26.83.83,0,0,0-.27.65V37h-1V34.4a1,1,0,0,0-.24-.7.78.78,0,0,0-.6-.28,1,1,0,0,0-.68.26.83.83,0,0,0-.27.65V37h-1V32.65h1v.59a1.13,1.13,0,0,1,.49-.5,1.32,1.32,0,0,1,.72-.19,1.52,1.52,0,0,1,1.46,1,1.18,1.18,0,0,1,.45-.75,1.32,1.32,0,0,1,.87-.28A1.51,1.51,0,0,1,101.64,32.77Z"/>
        </g>
        <path fill="#FFFFFF" d="M42.64,9.05h-6V7.15h14v1.9h-6V24.93h-2Zm17.22,3.69a5.61,5.61,0,0,1,1.38,4V24.9H59.3V22.84a4.7,4.7,0,0,1-2,1.77,6.35,6.35,0,0,1-2.71.64,5.36,5.36,0,0,1-3.52-1.17,4.1,4.1,0,0,1-.71-5.43,4.68,4.68,0,0,1,1.92-1.58,6.13,6.13,0,0,1,2.63-.56,13.45,13.45,0,0,1,4.35.76v-.5A4.52,4.52,0,0,0,58.43,14a3.19,3.19,0,0,0-2.79-1.13,5.39,5.39,0,0,0-1.86.32,15.67,15.67,0,0,0-2.06.9L51,12.52a10.74,10.74,0,0,1,4.82-1.29A5.2,5.2,0,0,1,59.86,12.74ZM57.64,22.8a3.39,3.39,0,0,0,1.65-2.06v-2a14.45,14.45,0,0,0-4-.54,4.17,4.17,0,0,0-2.6.77,2.33,2.33,0,0,0-1.08,2,2.3,2.3,0,0,0,1,1.93,4,4,0,0,0,2.4.72A5.3,5.3,0,0,0,57.64,22.8Zm16.2-10.92a4.3,4.3,0,0,1,1.8,1.83,5.53,5.53,0,0,1,.64,2.71v8.52h-2V16.67A3.86,3.86,0,0,0,73.37,14,3.1,3.1,0,0,0,71,13a4.55,4.55,0,0,0-2.08.46,3.84,3.84,0,0,0-1.51,1.26,3,3,0,0,0-.56,1.73V25H64.87V11.54h1.94v2.13a4.52,4.52,0,0,1,1.83-1.77A5.48,5.48,0,0,1,73.84,11.88Zm4.54,11.53,7.91-10H78.53V11.53H88.91v1.54L81,23.15h8V25H78.38Zm24.07-11.87V24.93h-1.94V22.82a4.59,4.59,0,0,1-1.79,1.76,5.53,5.53,0,0,1-5.24,0,4.56,4.56,0,0,1-1.77-1.82,5.58,5.58,0,0,1-.64-2.71V11.56h2v8.27A3.93,3.93,0,0,0,94,22.51a3.21,3.21,0,0,0,2.42,1,4.82,4.82,0,0,0,2.08-.46A3.86,3.86,0,0,0,100,21.79a2.93,2.93,0,0,0,.56-1.73V11.57h1.94Zm2.36-.21h0a1.8,1.8,0,1,1,3.6,0h0a1.8,1.8,0,1,1-3.6,0Zm3.4,0h0a1.6,1.6,0,1,0-3.2-.18v.2h0a1.6,1.6,0,1,0,3.2.2Zm-2.35-1h.88c.44,0,.76.2.76.62a.57.57,0,0,1-.42.58l.48.68H107l-.38-.57h-.29v.59h-.46Zm.85.91c.21,0,.32-.1.32-.26s-.12-.26-.32-.26h-.39v.52Z"/>
      </g>
    </g>
  </g>
</svg>