<svg xmlns="http://www.w3.org/2000/svg" viewBox="0 0 447.1 23.04">
  <g>
    <g>
      <path d="M51.58,17.33l-5.26-15a2.8,2.8,0,0,1-.16-.72A1.28,1.28,0,0,1,47.46.38a1.36,1.36,0,0,1,1.31,1.09l4.35,12.9L57.51,1.44A1.32,1.32,0,0,1,58.78.38h.13a1.38,1.38,0,0,1,1.35,1.06l4.35,12.93L69,1.4a1.28,1.28,0,0,1,1.24-1,1.24,1.24,0,0,1,1.27,1.23,2.8,2.8,0,0,1-.16.72l-5.3,15a1.53,1.53,0,0,1-1.4,1.2h-.1a1.44,1.44,0,0,1-1.41-1.2L58.85,4.61,54.49,17.33a1.44,1.44,0,0,1-1.4,1.2H53a1.54,1.54,0,0,1-1.44-1.2" class="cls-1" fill="#fff"/>
      <path d="M89.9,1.68a1.29,1.29,0,1,1,2.58,0v3a7.06,7.06,0,0,1,6-4.34,1.25,1.25,0,0,1,1.27,1.33,1.3,1.3,0,0,1-1.14,1.34c-3.36.41-6.11,3-6.11,8.1v6a1.29,1.29,0,0,1-1.27,1.33,1.3,1.3,0,0,1-1.31-1.33V1.68" class="cls-1" fill="#fff"/>
      <path d="M108,18.67c-4.67,0-8.48-3.7-8.48-9.13V9.46c0-5.05,3.45-9.13,8.15-9.13,5,0,7.89,4.24,7.89,8.9a1.2,1.2,0,0,1-1.18,1.22H102.11c.35,3.8,3,5.94,6,5.94a6.82,6.82,0,0,0,4.89-2,1.15,1.15,0,0,1,.73-.3,1.12,1.12,0,0,1,1.12,1.12,1.16,1.16,0,0,1-.4.85A8.53,8.53,0,0,1,108,18.67m5-10.15c-.26-3.2-2-6-5.42-6-3,0-5.2,2.54-5.52,6Z" class="cls-1" fill="#fff"/>
      <path d="M71.59,13.17V13.1c0-3.72,3-5.71,7.39-5.71a18.15,18.15,0,0,1,5.32.75V7.53c0-3.18-1.91-4.83-5.15-4.83a8.64,8.64,0,0,0-4,.81,1.2,1.2,0,0,1-.46.1,1.16,1.16,0,0,1-1.14-1.13,1.08,1.08,0,0,1,.7-1.09,11.22,11.22,0,0,1,5.2-1,7.47,7.47,0,0,1,5.58,2,7.08,7.08,0,0,1,1.77,5.16v9.76a1.24,1.24,0,0,1-1.24,1.3,1.2,1.2,0,0,1-1.23-1.23V15.63a7.51,7.51,0,0,1-6.25,3c-3.21,0-6.46-1.88-6.46-5.51M84.33,11.8V10.09a17.91,17.91,0,0,0-5.08-.75c-3.24,0-5,1.44-5,3.66v.07c0,2.22,2,3.52,4.35,3.52,3.17,0,5.78-2,5.78-4.79" class="cls-1" fill="#fff"/>
      <path d="M4.72,1.49A2.41,2.41,0,0,0,1.45.24,2.47,2.47,0,0,0,.25,3.59l5.49,12.2C6.6,17.7,7.51,18.7,9.22,18.7s2.62-1.09,3.48-2.91L17.54,5a.68.68,0,0,1,.68-.45.77.77,0,0,1,.76.79V15.77c0,1.61.87,2.93,2.55,2.93s2.58-1.32,2.58-2.93V7.24a2.6,2.6,0,0,1,2.73-2.71,2.53,2.53,0,0,1,2.61,2.71v8.53c0,1.61.88,2.93,2.55,2.93a2.63,2.63,0,0,0,2.59-2.93V7.24a2.59,2.59,0,0,1,2.72-2.71,2.53,2.53,0,0,1,2.62,2.71v8.53c0,1.61.87,2.93,2.55,2.93s2.58-1.32,2.58-2.93V6.07A6,6,0,0,0,38.88,0a7.86,7.86,0,0,0-5.49,2.39A6,6,0,0,0,28.1,0c-2.76,0-5.18,2.39-5.18,2.39A6.14,6.14,0,0,0,18.3,0a5.68,5.68,0,0,0-5.58,3.88l-3.5,8.45L4.72,1.49" class="cls-1" fill="#fff"/>
      <path d="M115.79,2.54h0a2.14,2.14,0,1,1,4.28,0h0a2.14,2.14,0,1,1-4.28,0m3.87,0h0A1.74,1.74,0,0,0,117.93.74a1.77,1.77,0,0,0-1.74,1.79h0a1.74,1.74,0,1,0,3.47,0" class="cls-1" fill="#fff"/>
      <path d="M117.11,1.67a.23.23,0,0,1,.23-.24h.72a.8.8,0,0,1,.6.22.65.65,0,0,1,.18.48h0a.64.64,0,0,1-.41.64l.31.39a.26.26,0,0,1,.07.18.21.21,0,0,1-.21.22.29.29,0,0,1-.23-.12l-.44-.58h-.36v.47a.23.23,0,1,1-.46,0Zm.92.79c.22,0,.34-.12.34-.3h0c0-.19-.13-.3-.35-.3h-.45v.61Z" class="cls-1" fill="#fff"/>
    </g>
    <g>
      <path d="M144.57,2.84h-5.94V.36h14.58V2.84h-6V18.5h-2.67Z" class="cls-1" fill="#fff"/>
      <path d="M167.61,10.23V18.5H165V16.63a5.69,5.69,0,0,1-4.54,2.19c-2.9,0-5-1.69-5-4.36s2.45-4.54,5.46-4.54a13.11,13.11,0,0,1,4.12.74v-.43a3.21,3.21,0,0,0-3.51-3.54,8.61,8.61,0,0,0-3.85,1.14l-1-1.93a11.58,11.58,0,0,1,5.18-1.37C165.57,4.53,167.61,6.85,167.61,10.23Zm-2.57,4V12.4a12.76,12.76,0,0,0-3.72-.53c-1.82,0-3.35,1-3.35,2.51s1.32,2.38,3,2.38S164.6,15.91,165,14.22Z" class="cls-1" fill="#fff"/>
      <path d="M183.46,9.81V18.5H180.9V10.26a3.18,3.18,0,0,0-3.15-3.46A3.63,3.63,0,0,0,174,9.65V18.5h-2.61V4.85H174v2a5.1,5.1,0,0,1,4.33-2.3A5,5,0,0,1,183.46,9.81Z" class="cls-1" fill="#fff"/>
      <path d="M186.63,16.55l7.66-9.35h-7.5V4.85h10.94v2l-7.66,9.35h7.71V18.5H186.63Z" class="cls-1" fill="#fff"/>
      <path d="M213,4.85V18.5h-2.62v-2a5.09,5.09,0,0,1-4.33,2.3,5,5,0,0,1-5.12-5.29V4.85h2.56v8.24a3.17,3.17,0,0,0,3.14,3.46,3.63,3.63,0,0,0,3.75-2.86V4.85Z" class="cls-1" fill="#fff"/>
      <path d="M224.73.36H231c5.86,0,10,3.75,10,9.05s-4.18,9.09-10,9.09h-6.26Zm6.42,15.71c4.2,0,7.13-2.75,7.13-6.66s-2.93-6.63-7.13-6.63H227.4V16.07Z" class="cls-1" fill="#fff"/>
      <path d="M254.63,15l1.64,1.69a8.19,8.19,0,0,1-5.52,2.12,7,7,0,0,1-7-7.19,6.85,6.85,0,0,1,6.82-7.1c4.17,0,6.58,3.17,6.58,8.05H246.37a4.32,4.32,0,0,0,4.35,3.91A5.94,5.94,0,0,0,254.63,15Zm-8.24-4.51h8.19a3.8,3.8,0,0,0-3.93-3.65A4.29,4.29,0,0,0,246.39,10.5Z" class="cls-1" fill="#fff"/>
      <path d="M258.84,4.85h2.82l4.26,10.61,4.17-10.61h2.83L267.16,18.5H264.7Z" class="cls-1" fill="#fff"/>
      <path d="M284.67,15l1.64,1.69a8.19,8.19,0,0,1-5.52,2.12,7,7,0,0,1-7-7.19,6.85,6.85,0,0,1,6.82-7.1c4.17,0,6.58,3.17,6.58,8.05H276.41a4.32,4.32,0,0,0,4.35,3.91A5.94,5.94,0,0,0,284.67,15Zm-8.24-4.51h8.19a3.8,3.8,0,0,0-3.94-3.65A4.28,4.28,0,0,0,276.43,10.5Z" class="cls-1" fill="#fff"/>
      <path d="M290.2,0h2.59V18.5H290.2Z" class="cls-1" fill="#fff"/>
      <path d="M295.85,11.66a7.19,7.19,0,0,1,14.37,0,7.19,7.19,0,0,1-14.37,0Zm11.75,0a4.57,4.57,0,1,0-9.13,0,4.58,4.58,0,1,0,9.13,0Z" class="cls-1" fill="#fff"/>
      <path d="M327.15,11.66c0,4.2-2.69,7.16-6.28,7.16a5.54,5.54,0,0,1-4.86-2.7V23h-2.59V4.85H316V7.2a5.56,5.56,0,0,1,4.86-2.67C324.46,4.53,327.15,7.49,327.15,11.66Zm-2.64,0c0-2.85-1.77-4.86-4.28-4.86s-4.22,2-4.22,4.86,1.77,4.89,4.22,4.89S324.51,14.51,324.51,11.66Z" class="cls-1" fill="#fff"/>
      <path d="M340.5,15l1.64,1.69a8.23,8.23,0,0,1-5.53,2.12,7,7,0,0,1-7-7.19,6.85,6.85,0,0,1,6.81-7.1c4.18,0,6.58,3.17,6.58,8.05H332.23a4.33,4.33,0,0,0,4.36,3.91A6,6,0,0,0,340.5,15Zm-8.24-4.51h8.18a3.8,3.8,0,0,0-3.93-3.65A4.28,4.28,0,0,0,332.26,10.5Z" class="cls-1" fill="#fff"/>
      <path d="M353.84,4.53V6.8c-2.83,0-4.83,1.56-5.07,3.94V18.5h-2.62V4.85h2.62V7.46A5.39,5.39,0,0,1,353.84,4.53Z" class="cls-1" fill="#fff"/>
      <path d="M363.33,9.41A9.53,9.53,0,0,1,372.76,0a9.31,9.31,0,0,1,6.68,2.85l-1.88,1.8a6.58,6.58,0,0,0-4.8-2.2,6.94,6.94,0,0,0,0,13.87,6.57,6.57,0,0,0,4.8-2.19l1.88,1.8a9.43,9.43,0,0,1-6.68,2.85A9.55,9.55,0,0,1,363.33,9.41Z" class="cls-1" fill="#fff"/>
      <path d="M392.23,15l1.63,1.69a8.19,8.19,0,0,1-5.52,2.12,7,7,0,0,1-7-7.19,6.85,6.85,0,0,1,6.81-7.1c4.18,0,6.58,3.17,6.58,8.05H384a4.33,4.33,0,0,0,4.36,3.91A6,6,0,0,0,392.23,15ZM384,10.5h8.18a3.8,3.8,0,0,0-3.93-3.65A4.28,4.28,0,0,0,384,10.5Z" class="cls-1" fill="#fff"/>
      <path d="M409.82,9.81V18.5h-2.56V10.26a3.17,3.17,0,0,0-3.14-3.46,3.63,3.63,0,0,0-3.75,2.85V18.5h-2.62V4.85h2.62v2a5.08,5.08,0,0,1,4.33-2.3A5,5,0,0,1,409.82,9.81Z" class="cls-1" fill="#fff"/>
      <path d="M420.92,17.84a4.38,4.38,0,0,1-2.72,1,3.5,3.5,0,0,1-3.59-3.73v-8h-2.06V4.85h2.06V1.09h2.56V4.85h3.22V7.06h-3.22v7.85a1.51,1.51,0,0,0,1.4,1.64A2,2,0,0,0,420,16Z" class="cls-1" fill="#fff"/>
      <path d="M433.76,15l1.64,1.69a8.23,8.23,0,0,1-5.52,2.12,7,7,0,0,1-7-7.19,6.85,6.85,0,0,1,6.82-7.1c4.17,0,6.57,3.17,6.57,8.05H425.49a4.34,4.34,0,0,0,4.36,3.91A5.94,5.94,0,0,0,433.76,15Zm-8.24-4.51h8.19a3.81,3.81,0,0,0-3.94-3.65A4.28,4.28,0,0,0,425.52,10.5Z" class="cls-1" fill="#fff"/>
      <path d="M447.1,4.53V6.8c-2.82,0-4.83,1.56-5.07,3.94V18.5h-2.61V4.85H442V7.46A5.39,5.39,0,0,1,447.1,4.53Z" class="cls-1" fill="#fff"/>
    </g>
  </g>
</svg>
