<svg xmlns="http://www.w3.org/2000/svg" viewBox="0 0 447.11 35.31">
  <g>
    <g>
      <g>
        <path d="M51.59,17.35l-5.26-15a2.51,2.51,0,0,1-.16-.72A1.27,1.27,0,0,1,47.47.4a1.36,1.36,0,0,1,1.31,1.09l4.35,12.9L57.52,1.46A1.31,1.31,0,0,1,58.79.4h.13a1.39,1.39,0,0,1,1.35,1.06l4.35,12.93L69,1.42a1.27,1.27,0,0,1,1.24-1,1.24,1.24,0,0,1,1.27,1.21v0a2.89,2.89,0,0,1-.16.72l-5.3,15a1.53,1.53,0,0,1-1.4,1.2h-.1a1.44,1.44,0,0,1-1.41-1.2L58.86,4.63,54.5,17.35a1.44,1.44,0,0,1-1.4,1.2H53a1.54,1.54,0,0,1-1.44-1.2" class="cls-1" fill="#fff"/>
        <path d="M89.91,1.7a1.29,1.29,0,1,1,2.58,0v3a7.07,7.07,0,0,1,6-4.34,1.25,1.25,0,0,1,1.27,1.23v.1A1.31,1.31,0,0,1,98.62,3c-3.36.41-6.11,3-6.11,8.1v6a1.29,1.29,0,0,1-1.25,1.33h0a1.29,1.29,0,0,1-1.31-1.29V1.7" class="cls-1" fill="#fff"/>
        <path d="M108,18.69c-4.67,0-8.48-3.7-8.48-9.13V9.48c0-5.05,3.45-9.13,8.15-9.13,5,0,7.89,4.24,7.89,8.9a1.2,1.2,0,0,1-1.18,1.22H102.12c.35,3.8,3,5.94,6,5.94a6.81,6.81,0,0,0,4.89-2,1.16,1.16,0,0,1,.73-.3,1.12,1.12,0,0,1,1.12,1.12h0a1.18,1.18,0,0,1-.4.85A8.51,8.51,0,0,1,108,18.69m5-10.15c-.26-3.2-2-6-5.42-6-3,0-5.2,2.54-5.52,6Z" class="cls-1" fill="#fff"/>
        <path d="M71.6,13.19v-.07c0-3.72,3-5.71,7.39-5.71a18.1,18.1,0,0,1,5.32.75V7.55c0-3.18-1.91-4.83-5.15-4.83a8.62,8.62,0,0,0-4,.81,1.23,1.23,0,0,1-.46.1A1.16,1.16,0,0,1,73.56,2.5a1.07,1.07,0,0,1,.7-1.09,11.22,11.22,0,0,1,5.2-1,7.48,7.48,0,0,1,5.58,2,7.11,7.11,0,0,1,1.77,5.16v9.76a1.25,1.25,0,0,1-1.18,1.3h-.06a1.2,1.2,0,0,1-1.23-1.17V15.65a7.5,7.5,0,0,1-6.25,3c-3.21,0-6.46-1.88-6.46-5.51m12.71-1.32V10.11a17.85,17.85,0,0,0-5.08-.75c-3.24,0-5,1.44-5,3.66v.07c0,2.22,2,3.52,4.35,3.52,3.17,0,5.78-2,5.78-4.79" class="cls-1" fill="#fff"/>
        <path d="M4.73,1.51A2.41,2.41,0,0,0,1.58.21L1.46.26A2.47,2.47,0,0,0,.22,3.53a.59.59,0,0,0,0,.08l5.49,12.2c.86,1.91,1.77,2.91,3.48,2.91s2.62-1.09,3.48-2.91L17.55,5a.68.68,0,0,1,.68-.45.77.77,0,0,1,.76.78h0V15.79c0,1.61.87,2.93,2.55,2.93s2.58-1.32,2.58-2.93V7.26A2.6,2.6,0,0,1,26.6,4.55h.25A2.53,2.53,0,0,1,29.46,7a2.43,2.43,0,0,1,0,.27v8.53c0,1.61.88,2.93,2.55,2.93a2.62,2.62,0,0,0,2.6-2.65,2.53,2.53,0,0,0,0-.28V7.26a2.58,2.58,0,0,1,2.46-2.71h.26A2.53,2.53,0,0,1,39.94,7a2.62,2.62,0,0,1,0,.28v8.53c0,1.61.87,2.93,2.55,2.93s2.58-1.32,2.58-2.93V6.09A6,6,0,0,0,39.14,0h-.25A7.84,7.84,0,0,0,33.4,2.41,6,6,0,0,0,28.11,0c-2.76,0-5.18,2.39-5.18,2.39A6.13,6.13,0,0,0,18.31,0,5.66,5.66,0,0,0,12.73,3.9l-3.5,8.45L4.73,1.51" class="cls-1" fill="#fff"/>
        <path d="M115.8,2.56h0a2.14,2.14,0,1,1,4.28,0h0a2.14,2.14,0,1,1-4.28,0h0m3.87,0h0A1.74,1.74,0,0,0,118,.76h0a1.77,1.77,0,0,0-1.74,1.79h0a1.74,1.74,0,1,0,3.47.26V2.55" class="cls-1" fill="#fff"/>
        <path d="M117.12,1.69a.23.23,0,0,1,.22-.24h.73a.83.83,0,0,1,.6.22.66.66,0,0,1,.18.48h0a.64.64,0,0,1-.41.64l.31.39a.29.29,0,0,1,.07.18.22.22,0,0,1-.2.22h0a.29.29,0,0,1-.23-.12l-.44-.58h-.36v.47a.23.23,0,0,1-.46,0h0Zm.92.79c.22,0,.34-.12.34-.3h0c0-.19-.13-.3-.35-.3h-.45v.61Z" class="cls-1" fill="#fff"/>
      </g>
      <g id="dev-title">
        <path d="M144.58,2.86h-5.94V.38h14.58V2.86h-6V18.52h-2.67Z" class="cls-1" fill="#fff"/>
        <path d="M167.62,10.25v8.27H165V16.65a5.67,5.67,0,0,1-4.54,2.19c-2.9,0-5-1.69-5-4.36s2.45-4.54,5.46-4.54a12.91,12.91,0,0,1,4.12.74v-.43a3.22,3.22,0,0,0-2.85-3.54,3.64,3.64,0,0,0-.66,0,8.53,8.53,0,0,0-3.85,1.14l-1-1.93a11.43,11.43,0,0,1,5.18-1.37C165.58,4.55,167.62,6.87,167.62,10.25Zm-2.57,4V12.42a12.68,12.68,0,0,0-3.72-.53c-1.82,0-3.35,1-3.35,2.51s1.32,2.38,3,2.38,3.63-.85,4-2.54Z" class="cls-1" fill="#fff"/>
        <path d="M183.47,9.83v8.69h-2.56V10.28A3.19,3.19,0,0,0,178,6.83h-.26A3.63,3.63,0,0,0,174,9.67v8.85H171.4V4.87H174v2a5.09,5.09,0,0,1,4.33-2.3,5,5,0,0,1,5.13,4.86C183.48,9.56,183.47,9.7,183.47,9.83Z" class="cls-1" fill="#fff"/>
        <path d="M186.64,16.57l7.66-9.35h-7.5V4.87h10.94v2l-7.66,9.35h7.71v2.3H186.64Z" class="cls-1" fill="#fff"/>
        <path d="M213,4.87V18.52h-2.62v-2a5.1,5.1,0,0,1-4.33,2.3A5,5,0,0,1,200.93,14c0-.14,0-.28,0-.42V4.87h2.56v8.24a3.17,3.17,0,0,0,2.86,3.45h.28a3.63,3.63,0,0,0,3.75-2.86V4.87Z" class="cls-1" fill="#fff"/>
        <path d="M224.74.38H231c5.86,0,10,3.75,10,9s-4.18,9.09-10,9.09h-6.26Zm6.42,15.71c4.2,0,7.13-2.75,7.13-6.66s-2.93-6.63-7.13-6.63h-3.75V16.09Z" class="cls-1" fill="#fff"/>
        <path d="M254.64,15l1.64,1.69a8.21,8.21,0,0,1-5.52,2.12,7,7,0,0,1-7-7v-.19a6.85,6.85,0,0,1,6.59-7.1h.23c4.17,0,6.58,3.17,6.58,8.05H246.38a4.31,4.31,0,0,0,4.35,3.91A5.93,5.93,0,0,0,254.64,15Zm-8.24-4.51h8.19a3.8,3.8,0,0,0-3.93-3.65,4.29,4.29,0,0,0-4.26,3.66Z" class="cls-1" fill="#fff"/>
        <path d="M258.85,4.87h2.82l4.26,10.61L270.1,4.87h2.83l-5.76,13.65h-2.46Z" class="cls-1" fill="#fff"/>
        <path d="M284.68,15l1.64,1.69a8.21,8.21,0,0,1-5.52,2.12,7,7,0,0,1-7-7v-.19a6.85,6.85,0,0,1,6.59-7.1h.23c4.17,0,6.58,3.17,6.58,8.05H276.42a4.31,4.31,0,0,0,4.35,3.91A5.93,5.93,0,0,0,284.68,15Zm-8.24-4.51h8.19a3.8,3.8,0,0,0-3.94-3.65,4.28,4.28,0,0,0-4.25,3.66Z" class="cls-1" fill="#fff"/>
        <path d="M290.21,0h2.59v18.5h-2.59Z" class="cls-1" fill="#fff"/>
        <path d="M295.86,11.68a7.19,7.19,0,0,1,14.37,0,7.19,7.19,0,0,1-14.37,0Zm11.75,0a4.57,4.57,0,1,0-9.13-.43,3.09,3.09,0,0,0,0,.43,4.58,4.58,0,1,0,9.13,0Z" class="cls-1" fill="#fff"/>
        <path d="M327.16,11.68c0,4.2-2.69,7.16-6.28,7.16a5.52,5.52,0,0,1-4.86-2.7V23h-2.59V4.87H316V7.22a5.56,5.56,0,0,1,4.86-2.67C324.47,4.55,327.16,7.51,327.16,11.68Zm-2.64,0c0-2.85-1.77-4.86-4.28-4.86s-4.22,2-4.22,4.86,1.77,4.89,4.22,4.89,4.28-2,4.28-4.89Z" class="cls-1" fill="#fff"/>
        <path d="M340.51,15l1.64,1.69a8.25,8.25,0,0,1-5.53,2.12,7,7,0,0,1-7-7v-.19a6.85,6.85,0,0,1,6.59-7.1h.22c4.18,0,6.58,3.17,6.58,8.05H332.24a4.33,4.33,0,0,0,4.36,3.91A6,6,0,0,0,340.51,15Zm-8.24-4.51h8.18a3.8,3.8,0,0,0-3.93-3.65,4.28,4.28,0,0,0-4.25,3.66Z" class="cls-1" fill="#fff"/>
        <path d="M353.85,4.55V6.82c-2.83,0-4.83,1.56-5.07,3.94v7.76h-2.62V4.87h2.62V7.48A5.38,5.38,0,0,1,353.85,4.55Z" class="cls-1" fill="#fff"/>
        <path d="M363.34,9.43A9.52,9.52,0,0,1,372.77,0a9.31,9.31,0,0,1,6.68,2.85l-1.88,1.8a6.59,6.59,0,0,0-4.8-2.2,6.94,6.94,0,0,0,0,13.87,6.6,6.6,0,0,0,4.8-2.19l1.88,1.8a9.38,9.38,0,0,1-16.11-6.52Z" class="cls-1" fill="#fff"/>
        <path d="M392.24,15l1.63,1.69a8.21,8.21,0,0,1-5.52,2.12,7,7,0,0,1-7-7v-.19a6.85,6.85,0,0,1,6.59-7.1h.22c4.18,0,6.58,3.17,6.58,8.05H384a4.33,4.33,0,0,0,4.36,3.91A6,6,0,0,0,392.24,15ZM384,10.52h8.18a3.8,3.8,0,0,0-3.93-3.65A4.28,4.28,0,0,0,384,10.52Z" class="cls-1" fill="#fff"/>
        <path d="M409.83,9.83v8.69h-2.56V10.28a3.18,3.18,0,0,0-2.87-3.45h-.27a3.63,3.63,0,0,0-3.75,2.85v8.85h-2.62V4.87h2.62v2a5.07,5.07,0,0,1,4.33-2.3,5,5,0,0,1,5.12,4.87C409.84,9.57,409.83,9.7,409.83,9.83Z" class="cls-1" fill="#fff"/>
        <path d="M420.93,17.86a4.44,4.44,0,0,1-2.72,1,3.51,3.51,0,0,1-3.6-3.4c0-.11,0-.22,0-.33v-8h-2.06V4.87h2.06V1.11h2.56V4.87h3.22V7.08h-3.22v7.85a1.51,1.51,0,0,0,1.37,1.64h0A2,2,0,0,0,420,16Z" class="cls-1" fill="#fff"/>
        <path d="M433.77,15l1.64,1.69a8.23,8.23,0,0,1-5.52,2.12,7,7,0,0,1-7-7v-.19a6.85,6.85,0,0,1,6.59-7.1h.23c4.17,0,6.57,3.17,6.57,8.05H425.5a4.34,4.34,0,0,0,4.36,3.91A5.93,5.93,0,0,0,433.77,15Zm-8.24-4.51h8.19a3.82,3.82,0,0,0-3.94-3.65,4.28,4.28,0,0,0-4.25,3.66Z" class="cls-1" fill="#fff"/>
        <path d="M447.11,4.55V6.82c-2.82,0-4.83,1.56-5.07,3.94v7.76h-2.61V4.87H442V7.48A5.39,5.39,0,0,1,447.11,4.55Z" class="cls-1" fill="#fff"/>
      </g>
    </g>
    <g id="by-broadcom">
      <path d="M46.56,32.46v1.15h-.51V26h.51v3.49a2.57,2.57,0,0,1,2.19-1.31,2.64,2.64,0,0,1,2.59,2.76v0a2.66,2.66,0,0,1-2.59,2.79,2.57,2.57,0,0,1-2.19-1.28ZM50.79,31v0a2.14,2.14,0,0,0-2.09-2.3,2.23,2.23,0,0,0-2.17,2.28v0a2.23,2.23,0,0,0,2.17,2.29A2.11,2.11,0,0,0,50.79,31Z" class="cls-1" fill="#fff"/>
      <path d="M56.85,28.28h.56L55.1,33.79c-.47,1.12-1,1.52-1.77,1.52a2.38,2.38,0,0,1-1.06-.23l.18-.45a1.8,1.8,0,0,0,.91.2c.55,0,.92-.32,1.31-1.25l-2.55-5.29h.59l2.21,4.76,1.92-4.76Z" class="cls-1" fill="#fff"/>
      <path d="M61.92,26.29H65.2a2.64,2.64,0,0,1,1.91.65,1.64,1.64,0,0,1,.49,1.21v0a1.74,1.74,0,0,1-1,1.63A1.78,1.78,0,0,1,68,31.58v0c0,1.3-1.07,2-2.7,2H61.92V26.29Zm4.39,2.07c0-.57-.46-.93-1.28-.93H63.18v1.95h1.76c.82,0,1.37-.33,1.37-1v0Zm-1.09,2.1h-2v2h2.13c.88,0,1.41-.35,1.41-1v0C66.72,30.82,66.23,30.46,65.22,30.46Z" class="cls-1" fill="#fff"/>
      <path d="M69.31,28.09h1.27v1.25a2,2,0,0,1,2-1.35v1.34h-.08c-1.1,0-1.88.72-1.88,2.18v2.1H69.31V28.09Z" class="cls-1" fill="#fff"/>
      <path d="M73.13,30.88v0a2.94,2.94,0,0,1,5.88,0v0a2.88,2.88,0,0,1-3,2.87,2.84,2.84,0,0,1-2.93-2.85Zm4.62,0v0a1.71,1.71,0,0,0-1.69-1.78,1.67,1.67,0,0,0-1.66,1.76v0a1.7,1.7,0,0,0,1.68,1.76A1.68,1.68,0,0,0,77.75,30.88Z" class="cls-1" fill="#fff"/>
      <path d="M79.93,32v0c0-1.19.93-1.77,2.28-1.77a4.76,4.76,0,0,1,1.48.22v-.13c0-.78-.48-1.2-1.37-1.2a3.7,3.7,0,0,0-1.58.35l-.33-1A4.74,4.74,0,0,1,82.49,28a2.48,2.48,0,0,1,1.82.61,2.29,2.29,0,0,1,.6,1.71v3.27H83.68v-.69a2.26,2.26,0,0,1-1.8.8A1.76,1.76,0,0,1,79.93,32Zm3.78-.4v-.38A3.59,3.59,0,0,0,82.46,31c-.81,0-1.29.35-1.29.92v0c0,.53.46.84,1.07.84.83,0,1.47-.48,1.47-1.19Z" class="cls-1" fill="#fff"/>
      <path d="M86.14,30.86v0A2.63,2.63,0,0,1,88.7,28a2.26,2.26,0,0,1,1.88,1V26h1.26v7.63H90.58v-.92a2.22,2.22,0,0,1-1.88,1,2.64,2.64,0,0,1-2.56-2.86Zm4.46,0v0A1.65,1.65,0,0,0,89,29.08a1.63,1.63,0,0,0-1.59,1.76v0A1.64,1.64,0,0,0,89,32.62,1.66,1.66,0,0,0,90.6,30.86Z" class="cls-1" fill="#fff"/>
      <path d="M93.12,30.88v0A2.85,2.85,0,0,1,96,28a2.76,2.76,0,0,1,2.2.95l-.79.85A1.86,1.86,0,0,0,96,29.09a1.66,1.66,0,0,0-1.6,1.75v0A1.67,1.67,0,0,0,96,32.63,2,2,0,0,0,97.47,32l.76.75a2.77,2.77,0,0,1-2.25,1,2.82,2.82,0,0,1-2.85-2.85Z" class="cls-1" fill="#fff"/>
      <path d="M98.93,30.88v0a2.94,2.94,0,0,1,5.88,0v0a2.88,2.88,0,0,1-3,2.87,2.83,2.83,0,0,1-2.92-2.85Zm4.62,0v0a1.72,1.72,0,0,0-1.7-1.78,1.67,1.67,0,0,0-1.66,1.76v0a1.68,1.68,0,1,0,3.36,0Z" class="cls-1" fill="#fff"/>
      <path d="M106.09,28.09h1.26v.84A2,2,0,0,1,109,28a1.74,1.74,0,0,1,1.65,1,2.22,2.22,0,0,1,1.86-1,1.86,1.86,0,0,1,1.93,2.11V33.6h-1.26V30.47c0-.88-.41-1.35-1.12-1.35s-1.18.48-1.18,1.37v3.12h-1.26V30.46c0-.86-.42-1.34-1.12-1.34a1.21,1.21,0,0,0-1.18,1.37v3.12h-1.26V28.09Z" class="cls-1" fill="#fff"/>
    </g>
  </g>
</svg>
