<svg xmlns="http://www.w3.org/2000/svg" xmlns:xlink="http://www.w3.org/1999/xlink" viewBox="0 0 483.43 73.7"><defs><clipPath id="clip-path" transform="translate(-73.57 -73.6)"><rect width="614.8" height="220.9" fill="none"/></clipPath></defs><g id="Layer_2" data-name="Layer 2"><g id="Layer_1-2" data-name="Layer 1"><g clip-path="url(#clip-path)"><path d="M281.3,141.9,260.1,83a8.87,8.87,0,0,1-.7-2.8,5.15,5.15,0,0,1,5.3-5c2.7,0,4.5,1.8,5.3,4.3l17.5,50.8,17.7-50.9c.8-2.4,2.4-4.2,5.1-4.2h.5a5.58,5.58,0,0,1,5.4,4.2l17.5,50.9,17.8-51.1c.7-2.2,2.2-4,5-4a5,5,0,0,1,5.1,4.9,8.87,8.87,0,0,1-.7,2.8L339.6,142c-1.1,3.1-3.2,4.7-5.7,4.7h-.4c-2.7,0-4.7-1.6-5.7-4.7L310.4,91.9l-17.4,50c-.9,3.1-3,4.7-5.7,4.7H287c-2.5,0-4.6-1.6-5.7-4.7" transform="translate(-73.57 -73.6)" fill="#fff"/><path d="M435.6,80.3a5.3,5.3,0,0,1,5.1-5.3,5.21,5.21,0,0,1,5.3,5.3v12c5.1-11.6,16.5-17.1,24-17.1a5,5,0,0,1,5.1,5.3,5.22,5.22,0,0,1-4.6,5.3c-13.5,1.6-24.6,11.8-24.6,31.9v23.7a5.2,5.2,0,1,1-10.4,0V80.3" transform="translate(-73.57 -73.6)" fill="#fff"/><path d="M508.6,147.1c-18.8,0-34.2-14.6-34.2-36v-.3c0-19.9,13.9-36,32.8-36,20.2,0,31.8,16.7,31.8,35a4.8,4.8,0,0,1-4.8,4.8H484.7c1.4,15,11.9,23.4,24.1,23.4a27.57,27.57,0,0,0,19.7-8,4.25,4.25,0,0,1,2.9-1.2,4.46,4.46,0,0,1,4.5,4.4,4.2,4.2,0,0,1-1.6,3.3c-6.4,6.5-14.1,10.6-25.7,10.6m20.2-39.9c-1.1-12.6-8.2-23.5-21.8-23.5-11.9,0-20.9,10-22.2,23.5Z" transform="translate(-73.57 -73.6)" fill="#fff"/><path d="M361.9,125.5v-.3c0-14.7,12.1-22.5,29.8-22.5a72,72,0,0,1,21.4,3v-2.4c0-12.5-7.7-19-20.7-19-7,0-11.1.9-16.2,3.2a5,5,0,0,1-1.9.4,4.62,4.62,0,0,1-4.6-4.4,4.17,4.17,0,0,1,2.8-4.3c6.9-3,12-4,20.9-4,9.8,0,17.4,2.5,22.5,7.7,4.7,4.7,7.1,11.4,7.1,20.3v38.4a4.92,4.92,0,0,1-5,5.1,4.81,4.81,0,0,1-5-4.9v-6.6c-4.9,6.3-12.9,12-25.2,12-12.8,0-25.9-7.4-25.9-21.7m51.3-5.4v-6.7a71.83,71.83,0,0,0-20.5-3c-13,0-20.3,5.7-20.3,14.4v.3c0,8.7,8.1,13.9,17.5,13.9,12.8,0,23.3-7.9,23.3-18.9" transform="translate(-73.57 -73.6)" fill="#fff"/><path d="M92.6,79.5a9.78,9.78,0,0,0-13.2-4.9,9.59,9.59,0,0,0-4.8,13.2l22.1,48c3.5,7.5,7.1,11.5,14,11.5,7.3,0,10.5-4.3,14-11.5,0,0,19.3-42,19.5-42.4a2.74,2.74,0,0,1,2.8-1.8,3.05,3.05,0,0,1,3.1,3.1v41.1c0,6.3,3.5,11.5,10.3,11.5s10.4-5.2,10.4-11.5V102.2c0-6.5,4.6-10.7,11-10.7s10.5,4.3,10.5,10.7v33.6c0,6.3,3.5,11.5,10.3,11.5s10.4-5.2,10.4-11.5V102.2c0-6.5,4.6-10.7,11-10.7s10.5,4.3,10.5,10.7v33.6c0,6.3,3.5,11.5,10.3,11.5s10.4-5.2,10.4-11.5V97.5c0-14.1-11.3-23.9-24.9-23.9A32,32,0,0,0,208.2,83c-4.5-5.9-10.8-9.4-21.3-9.4C175.8,73.6,166,83,166,83a24.77,24.77,0,0,0-18.6-9.4c-9.9,0-17.7,4.3-22.5,15.3l-14.1,33.3L92.6,79.5" transform="translate(-73.57 -73.6)" fill="#fff"/><path d="M539.8,83.7h0a8.6,8.6,0,1,1,17.2-.1h0a8.6,8.6,0,1,1-17.2.1m15.6-.1h0a7,7,0,1,0-14,0v.1a6.9,6.9,0,0,0,7,7,7,7,0,0,0,7-7.1" transform="translate(-73.57 -73.6)" fill="#fff"/><path d="M545.2,80.2a.9.9,0,0,1,.9-.9H549a3,3,0,0,1,2.4.9,2.49,2.49,0,0,1,.7,1.9h0a2.53,2.53,0,0,1-1.7,2.5l1.3,1.5a.91.91,0,0,1,.3.7.82.82,0,0,1-.9.8,1.05,1.05,0,0,1-.9-.5l-1.8-2.3H547v1.8a.9.9,0,0,1-1.8,0V80.2Zm3.7,3.1c.9,0,1.4-.5,1.4-1.2h0c0-.8-.5-1.2-1.4-1.2H547v2.4Z" transform="translate(-73.57 -73.6)" fill="#fff"/></g></g></g></svg>